%TF.GenerationSoftware,KiCad,Pcbnew,8.99.0-417-ga763d613e5*%
%TF.CreationDate,2024-05-15T16:43:23-04:00*%
%TF.ProjectId,jig,6a69672e-6b69-4636-9164-5f7063625858,rev?*%
%TF.SameCoordinates,PX85b368ePY7384544*%
%TF.FileFunction,Profile,NP*%
%FSLAX46Y46*%
G04 Gerber Fmt 4.6, Leading zero omitted, Abs format (unit mm)*
G04 Created by KiCad (PCBNEW 8.99.0-417-ga763d613e5) date 2024-05-15 16:43:23*
%MOMM*%
%LPD*%
G01*
G04 APERTURE LIST*
%TA.AperFunction,Profile*%
%ADD10C,0.100000*%
%TD*%
G04 APERTURE END LIST*
D10*
X-56901086Y-29506358D02*
G75*
G02*
X-57901088Y-28506358I16J1000018D01*
G01*
X42098914Y-28506358D02*
G75*
G02*
X41098914Y-29506324I-999984J18D01*
G01*
X41098914Y70493642D02*
G75*
G02*
X42098912Y69493642I16J-999982D01*
G01*
X-57901086Y69493642D02*
G75*
G02*
X-56901086Y70493676I1000016J18D01*
G01*
X41098914Y70493642D02*
X-56901086Y70493642D01*
X42098914Y-28506358D02*
X42098914Y69493642D01*
X-56901086Y-29506358D02*
X41098914Y-29506358D01*
X-57901086Y69493642D02*
X-57901086Y-28506358D01*
X-29527753Y8984106D02*
X-17864951Y-2608880D01*
X-25880630Y20533214D02*
X-28798128Y20533214D01*
X-6511146Y-5061556D02*
X-6511146Y-8756441D01*
X-29820646Y10864223D02*
G75*
G02*
X-28820646Y11864451I999816J412D01*
G01*
X-7556608Y-9256241D02*
G75*
G02*
X-9196910Y-8767386I1078J2999976D01*
G01*
X-29085592Y25820636D02*
X-28710815Y26445265D01*
X-6511146Y-5061556D02*
X1864057Y-5061556D01*
X-34660411Y39082590D02*
X-27999382Y39082590D01*
X5468302Y16334700D02*
X5468302Y42573663D01*
X10268687Y26371556D02*
G75*
G02*
X11268691Y25371556I-17J-1000021D01*
G01*
X-29527753Y8984106D02*
G75*
G02*
X-29820686Y9691213I707023J707129D01*
G01*
X5468302Y42573663D02*
G75*
G02*
X6468302Y43573703I1000168J-128D01*
G01*
X-29798128Y21533077D02*
X-29798128Y23248157D01*
X-35661021Y44522803D02*
G75*
G02*
X-34661021Y45522926I1000091J32D01*
G01*
X-29820646Y10864223D02*
X-29820646Y9691213D01*
X6468302Y43573663D02*
X8345576Y43573663D01*
X10970466Y44065643D02*
X10970466Y45565643D01*
X7549370Y41073663D02*
X7549370Y26371556D01*
X8345576Y43573663D02*
X10338136Y45565643D01*
X10970466Y44065643D02*
X10757245Y43073663D01*
X-23731698Y16334700D02*
X5468302Y16334700D01*
X10970466Y45565643D02*
X10338136Y45565643D01*
X2618505Y-4717916D02*
X10774909Y4657407D01*
X-34660411Y39082590D02*
G75*
G02*
X-35660375Y40082453I-19J999945D01*
G01*
X-6511146Y-8756441D02*
G75*
G02*
X-7008855Y-9256444I-499984J-24D01*
G01*
X-7008855Y-9256435D02*
X-7556608Y-9256241D01*
X-14663981Y-5193954D02*
G75*
G02*
X-17864948Y-2608877I10898751J16769689D01*
G01*
X7549370Y41073663D02*
G75*
G02*
X8549370Y42073635I1000100J-128D01*
G01*
X-24731698Y45522940D02*
G75*
G02*
X-23731625Y44522940I68J-1000005D01*
G01*
X-27999382Y39082603D02*
X-27998280Y29018292D01*
X-23731698Y44522940D02*
X-23731698Y16334700D01*
X-25880630Y20533214D02*
X-25880630Y11864453D01*
X11268687Y25371556D02*
X11266013Y5969850D01*
X-34661021Y45522940D02*
X-24731698Y45522940D01*
X-14663981Y-5193954D02*
X-9196918Y-8767398D01*
X2618505Y-4717916D02*
G75*
G02*
X1864057Y-5061549I-754435J656351D01*
G01*
X7549370Y26371556D02*
X10268687Y26371556D01*
X-28798128Y20533214D02*
G75*
G02*
X-29798151Y21533077I-2J1000021D01*
G01*
X-25880630Y11864453D02*
X-28820646Y11864453D01*
X-27998280Y29018292D02*
G75*
G02*
X-28710817Y26445266I-4999950J-557D01*
G01*
X-29798128Y23248157D02*
G75*
G02*
X-29085607Y25820645I5000198J-22D01*
G01*
X9757245Y42073663D02*
X8549370Y42073663D01*
X10757245Y43073663D02*
G75*
G02*
X9757245Y42073660I-1000075J72D01*
G01*
X-35660413Y40082453D02*
X-35661021Y44522803D01*
X11266013Y5969850D02*
G75*
G02*
X10774913Y4657404I-2000043J285D01*
G01*
M02*
