%TF.GenerationSoftware,KiCad,Pcbnew,8.99.0-2194-gb3b7cbcab2*%
%TF.CreationDate,2024-09-04T20:13:09-04:00*%
%TF.ProjectId,thundervolt_lite,7468756e-6465-4727-966f-6c745f6c6974,rev?*%
%TF.SameCoordinates,PX85b368ePY7384544*%
%TF.FileFunction,Paste,Top*%
%TF.FilePolarity,Positive*%
%FSLAX46Y46*%
G04 Gerber Fmt 4.6, Leading zero omitted, Abs format (unit mm)*
G04 Created by KiCad (PCBNEW 8.99.0-2194-gb3b7cbcab2) date 2024-09-04 20:13:09*
%MOMM*%
%LPD*%
G01*
G04 APERTURE LIST*
G04 Aperture macros list*
%AMRoundRect*
0 Rectangle with rounded corners*
0 $1 Rounding radius*
0 $2 $3 $4 $5 $6 $7 $8 $9 X,Y pos of 4 corners*
0 Add a 4 corners polygon primitive as box body*
4,1,4,$2,$3,$4,$5,$6,$7,$8,$9,$2,$3,0*
0 Add four circle primitives for the rounded corners*
1,1,$1+$1,$2,$3*
1,1,$1+$1,$4,$5*
1,1,$1+$1,$6,$7*
1,1,$1+$1,$8,$9*
0 Add four rect primitives between the rounded corners*
20,1,$1+$1,$2,$3,$4,$5,0*
20,1,$1+$1,$4,$5,$6,$7,0*
20,1,$1+$1,$6,$7,$8,$9,0*
20,1,$1+$1,$8,$9,$2,$3,0*%
%AMFreePoly0*
4,1,14,0.334644,0.085355,0.385355,0.034644,0.400000,-0.000711,0.400000,-0.050000,0.385355,-0.085355,0.350000,-0.100000,-0.350000,-0.100000,-0.385355,-0.085355,-0.400000,-0.050000,-0.400000,0.050000,-0.385355,0.085355,-0.350000,0.100000,0.299289,0.100000,0.334644,0.085355,0.334644,0.085355,$1*%
%AMFreePoly1*
4,1,14,0.385355,0.085355,0.400000,0.050000,0.400000,0.000711,0.385355,-0.034644,0.334644,-0.085355,0.299289,-0.100000,-0.350000,-0.100000,-0.385355,-0.085355,-0.400000,-0.050000,-0.400000,0.050000,-0.385355,0.085355,-0.350000,0.100000,0.350000,0.100000,0.385355,0.085355,0.385355,0.085355,$1*%
%AMFreePoly2*
4,1,14,0.085355,0.385355,0.100000,0.350000,0.100000,-0.350000,0.085355,-0.385355,0.050000,-0.400000,-0.050000,-0.400000,-0.085355,-0.385355,-0.100000,-0.350000,-0.100000,0.299289,-0.085355,0.334644,-0.034644,0.385355,0.000711,0.400000,0.050000,0.400000,0.085355,0.385355,0.085355,0.385355,$1*%
%AMFreePoly3*
4,1,14,0.034644,0.385355,0.085355,0.334644,0.100000,0.299289,0.100000,-0.350000,0.085355,-0.385355,0.050000,-0.400000,-0.050000,-0.400000,-0.085355,-0.385355,-0.100000,-0.350000,-0.100000,0.350000,-0.085355,0.385355,-0.050000,0.400000,-0.000711,0.400000,0.034644,0.385355,0.034644,0.385355,$1*%
%AMFreePoly4*
4,1,14,0.385355,0.085355,0.400000,0.050000,0.400000,-0.050000,0.385355,-0.085355,0.350000,-0.100000,-0.299289,-0.100000,-0.334644,-0.085355,-0.385355,-0.034644,-0.400000,0.000711,-0.400000,0.050000,-0.385355,0.085355,-0.350000,0.100000,0.350000,0.100000,0.385355,0.085355,0.385355,0.085355,$1*%
%AMFreePoly5*
4,1,14,0.385355,0.085355,0.400000,0.050000,0.400000,-0.050000,0.385355,-0.085355,0.350000,-0.100000,-0.350000,-0.100000,-0.385355,-0.085355,-0.400000,-0.050000,-0.400000,-0.000711,-0.385355,0.034644,-0.334644,0.085355,-0.299289,0.100000,0.350000,0.100000,0.385355,0.085355,0.385355,0.085355,$1*%
%AMFreePoly6*
4,1,14,0.085355,0.385355,0.100000,0.350000,0.100000,-0.299289,0.085355,-0.334644,0.034644,-0.385355,-0.000711,-0.400000,-0.050000,-0.400000,-0.085355,-0.385355,-0.100000,-0.350000,-0.100000,0.350000,-0.085355,0.385355,-0.050000,0.400000,0.050000,0.400000,0.085355,0.385355,0.085355,0.385355,$1*%
%AMFreePoly7*
4,1,14,0.085355,0.385355,0.100000,0.350000,0.100000,-0.350000,0.085355,-0.385355,0.050000,-0.400000,0.000711,-0.400000,-0.034644,-0.385355,-0.085355,-0.334644,-0.100000,-0.299289,-0.100000,0.350000,-0.085355,0.385355,-0.050000,0.400000,0.050000,0.400000,0.085355,0.385355,0.085355,0.385355,$1*%
G04 Aperture macros list end*
%ADD10RoundRect,0.075000X0.162500X-0.075000X0.162500X0.075000X-0.162500X0.075000X-0.162500X-0.075000X0*%
%ADD11RoundRect,0.100000X0.100000X-0.155000X0.100000X0.155000X-0.100000X0.155000X-0.100000X-0.155000X0*%
%ADD12RoundRect,0.225000X0.178170X0.285273X-0.264994X0.207131X-0.178170X-0.285273X0.264994X-0.207131X0*%
%ADD13RoundRect,0.140000X-0.140000X-0.170000X0.140000X-0.170000X0.140000X0.170000X-0.140000X0.170000X0*%
%ADD14RoundRect,0.140000X0.207631X-0.073414X0.111865X0.189700X-0.207631X0.073414X-0.111865X-0.189700X0*%
%ADD15RoundRect,0.225000X0.225000X0.250000X-0.225000X0.250000X-0.225000X-0.250000X0.225000X-0.250000X0*%
%ADD16RoundRect,0.225000X0.250000X-0.225000X0.250000X0.225000X-0.250000X0.225000X-0.250000X-0.225000X0*%
%ADD17RoundRect,0.150000X-1.100000X0.600000X-1.100000X-0.600000X1.100000X-0.600000X1.100000X0.600000X0*%
%ADD18RoundRect,0.135000X-0.185000X0.135000X-0.185000X-0.135000X0.185000X-0.135000X0.185000X0.135000X0*%
%ADD19RoundRect,0.135000X0.226274X0.035355X0.035355X0.226274X-0.226274X-0.035355X-0.035355X-0.226274X0*%
%ADD20RoundRect,0.250000X0.925000X-0.412500X0.925000X0.412500X-0.925000X0.412500X-0.925000X-0.412500X0*%
%ADD21RoundRect,0.225000X0.335876X0.017678X0.017678X0.335876X-0.335876X-0.017678X-0.017678X-0.335876X0*%
%ADD22RoundRect,0.140000X0.021213X-0.219203X0.219203X-0.021213X-0.021213X0.219203X-0.219203X0.021213X0*%
%ADD23RoundRect,0.140000X0.140000X0.170000X-0.140000X0.170000X-0.140000X-0.170000X0.140000X-0.170000X0*%
%ADD24RoundRect,0.250000X-0.925000X0.412500X-0.925000X-0.412500X0.925000X-0.412500X0.925000X0.412500X0*%
%ADD25RoundRect,0.135000X0.185000X-0.135000X0.185000X0.135000X-0.185000X0.135000X-0.185000X-0.135000X0*%
%ADD26RoundRect,0.140000X-0.058955X0.212189X-0.219557X-0.017173X0.058955X-0.212189X0.219557X0.017173X0*%
%ADD27RoundRect,0.225000X-0.250000X0.225000X-0.250000X-0.225000X0.250000X-0.225000X0.250000X0.225000X0*%
%ADD28RoundRect,0.150000X1.100000X-0.600000X1.100000X0.600000X-1.100000X0.600000X-1.100000X-0.600000X0*%
%ADD29RoundRect,0.225000X-0.225000X-0.250000X0.225000X-0.250000X0.225000X0.250000X-0.225000X0.250000X0*%
%ADD30RoundRect,0.062500X-0.212500X0.062500X-0.212500X-0.062500X0.212500X-0.062500X0.212500X0.062500X0*%
%ADD31RoundRect,0.050000X-0.050000X-0.425000X0.050000X-0.425000X0.050000X0.425000X-0.050000X0.425000X0*%
%ADD32RoundRect,0.135000X0.024413X0.227715X-0.209413X0.092715X-0.024413X-0.227715X0.209413X-0.092715X0*%
%ADD33RoundRect,0.218750X0.335876X0.026517X0.026517X0.335876X-0.335876X-0.026517X-0.026517X-0.335876X0*%
%ADD34RoundRect,0.062500X0.212500X-0.062500X0.212500X0.062500X-0.212500X0.062500X-0.212500X-0.062500X0*%
%ADD35RoundRect,0.050000X0.050000X0.425000X-0.050000X0.425000X-0.050000X-0.425000X0.050000X-0.425000X0*%
%ADD36RoundRect,0.225000X-0.017678X0.335876X-0.335876X0.017678X0.017678X-0.335876X0.335876X-0.017678X0*%
%ADD37C,0.200000*%
%ADD38RoundRect,0.172500X-0.243952X0.000000X0.000000X-0.243952X0.243952X0.000000X0.000000X0.243952X0*%
%ADD39FreePoly0,315.000000*%
%ADD40RoundRect,0.050000X-0.282843X0.212132X0.212132X-0.282843X0.282843X-0.212132X-0.212132X0.282843X0*%
%ADD41FreePoly1,315.000000*%
%ADD42FreePoly2,315.000000*%
%ADD43RoundRect,0.050000X-0.282843X-0.212132X-0.212132X-0.282843X0.282843X0.212132X0.212132X0.282843X0*%
%ADD44FreePoly3,315.000000*%
%ADD45FreePoly4,315.000000*%
%ADD46FreePoly5,315.000000*%
%ADD47FreePoly6,315.000000*%
%ADD48FreePoly7,315.000000*%
%ADD49RoundRect,0.325000X0.325000X1.025000X-0.325000X1.025000X-0.325000X-1.025000X0.325000X-1.025000X0*%
%ADD50RoundRect,0.140000X0.170000X-0.140000X0.170000X0.140000X-0.170000X0.140000X-0.170000X-0.140000X0*%
%ADD51RoundRect,0.218750X0.381250X-0.218750X0.381250X0.218750X-0.381250X0.218750X-0.381250X-0.218750X0*%
%ADD52RoundRect,0.100000X-0.100000X0.225000X-0.100000X-0.225000X0.100000X-0.225000X0.100000X0.225000X0*%
G04 APERTURE END LIST*
D10*
%TO.C,U7*%
X7271510Y17595707D03*
X7271510Y17095707D03*
X7271510Y16595707D03*
X8947510Y16595707D03*
X8947510Y17095707D03*
X8947510Y17595707D03*
%TD*%
D11*
%TO.C,Q1*%
X16747510Y1705708D03*
X16247510Y2995707D03*
X17247510Y2995707D03*
%TD*%
D12*
%TO.C,C23*%
X23047991Y45611648D03*
X21521539Y45342494D03*
%TD*%
D13*
%TO.C,C8*%
X-1595668Y2141502D03*
X-635668Y2141502D03*
%TD*%
D14*
%TO.C,C17*%
X-15676320Y46264655D03*
X-16004660Y47166759D03*
%TD*%
D15*
%TO.C,C1*%
X-6140668Y10141502D03*
X-7690668Y10141502D03*
%TD*%
D16*
%TO.C,C11*%
X4284332Y-2333498D03*
X4284332Y-783498D03*
%TD*%
%TO.C,C10*%
X5584332Y-2333498D03*
X5584332Y-783498D03*
%TD*%
D17*
%TO.C,L2*%
X-3015668Y7391502D03*
X-3015668Y3691502D03*
%TD*%
D18*
%TO.C,R4*%
X16947510Y18005707D03*
X16947510Y16985707D03*
%TD*%
D19*
%TO.C,R7*%
X21608134Y8335083D03*
X20886886Y9056331D03*
%TD*%
D16*
%TO.C,C20*%
X-17315668Y45940707D03*
X-17315668Y47490707D03*
%TD*%
D20*
%TO.C,C189*%
X23347510Y23178207D03*
X23347510Y26253207D03*
%TD*%
D18*
%TO.C,R3*%
X-14915668Y43451502D03*
X-14915668Y42431502D03*
%TD*%
D21*
%TO.C,C24*%
X-8867660Y8693494D03*
X-9963676Y9789510D03*
%TD*%
D22*
%TO.C,C27*%
X16908100Y8356296D03*
X17586920Y9035118D03*
%TD*%
D13*
%TO.C,C25*%
X16567510Y10295707D03*
X17527510Y10295707D03*
%TD*%
D16*
%TO.C,C4*%
X-12815668Y25066502D03*
X-12815668Y26616502D03*
%TD*%
D23*
%TO.C,C22*%
X17527510Y14495707D03*
X16567510Y14495707D03*
%TD*%
D24*
%TO.C,C5*%
X-19715668Y45853207D03*
X-19715668Y42778207D03*
%TD*%
D25*
%TO.C,R2*%
X-615668Y9531502D03*
X-615668Y10551502D03*
%TD*%
D26*
%TO.C,C2*%
X-10340351Y13134695D03*
X-10890985Y12348309D03*
%TD*%
D15*
%TO.C,C15*%
X22930510Y11584707D03*
X21380510Y11584707D03*
%TD*%
%TO.C,C16*%
X-11640668Y42341502D03*
X-13190668Y42341502D03*
%TD*%
D27*
%TO.C,C18*%
X-16215668Y44690707D03*
X-16215668Y43140707D03*
%TD*%
D28*
%TO.C,L1*%
X-6915668Y13991502D03*
X-6915668Y17691502D03*
%TD*%
D29*
%TO.C,C9*%
X-2290668Y1141502D03*
X-740668Y1141502D03*
%TD*%
D30*
%TO.C,U2*%
X-1840668Y10041502D03*
D31*
X-2615668Y10016502D03*
X-3415668Y10016502D03*
D30*
X-4190668Y10041502D03*
X-4190668Y9541502D03*
X-4190668Y9041502D03*
D31*
X-3015668Y9066502D03*
D30*
X-1840668Y9041502D03*
X-1840668Y9541502D03*
%TD*%
D32*
%TO.C,R1*%
X-9210817Y11850707D03*
X-10094163Y11340707D03*
%TD*%
D29*
%TO.C,C7*%
X-3790668Y11241502D03*
X-2240668Y11241502D03*
%TD*%
D33*
%TO.C,D1*%
X17551090Y4197052D03*
X16437396Y5310746D03*
%TD*%
D27*
%TO.C,C19*%
X-17315668Y44690707D03*
X-17315668Y43140707D03*
%TD*%
D34*
%TO.C,U1*%
X-8090668Y11341502D03*
D35*
X-7315668Y11366502D03*
X-6515668Y11366502D03*
D34*
X-5740668Y11341502D03*
X-5740668Y11841502D03*
X-5740668Y12341502D03*
D35*
X-6915668Y12316502D03*
D34*
X-8090668Y12341502D03*
X-8090668Y11841502D03*
%TD*%
D18*
%TO.C,R5*%
X17947510Y18005707D03*
X17947510Y16985707D03*
%TD*%
D23*
%TO.C,C14*%
X22635510Y15784707D03*
X21675510Y15784707D03*
%TD*%
D36*
%TO.C,C3*%
X-10667660Y14389510D03*
X-11763676Y13293494D03*
%TD*%
D37*
%TO.C,U4*%
X22855510Y12984707D03*
X22455510Y12984707D03*
X22055510Y12984707D03*
X22855510Y13384707D03*
X22455510Y13384707D03*
X22055510Y13384707D03*
X22855510Y13784707D03*
X22455510Y13784707D03*
X22055510Y13784707D03*
X22855510Y14184707D03*
X22455510Y14184707D03*
X22055510Y14184707D03*
X22855510Y14584707D03*
X22455510Y14584707D03*
X22055510Y14584707D03*
%TD*%
D34*
%TO.C,U3*%
X-13790668Y43541502D03*
D35*
X-13015668Y43566502D03*
X-12215668Y43566502D03*
D34*
X-11440668Y43541502D03*
X-11440668Y44041502D03*
X-11440668Y44541502D03*
D35*
X-12615668Y44516502D03*
D34*
X-13790668Y44541502D03*
X-13790668Y44041502D03*
%TD*%
D16*
%TO.C,C6*%
X-14115668Y25066502D03*
X-14115668Y26616502D03*
%TD*%
D38*
%TO.C,U5*%
X19147510Y7496748D03*
X18546469Y6895707D03*
X19748551Y6895707D03*
X19147510Y6294666D03*
D39*
X18687890Y8486697D03*
D40*
X18405048Y8203856D03*
X18122205Y7921010D03*
X17839362Y7638169D03*
D41*
X17556520Y7355326D03*
D42*
X17556520Y6436087D03*
D43*
X17839361Y6153245D03*
X18122207Y5870402D03*
X18405048Y5587559D03*
D44*
X18687891Y5304717D03*
D45*
X19607130Y5304717D03*
D40*
X19889972Y5587558D03*
X20172815Y5870404D03*
X20455658Y6153245D03*
D46*
X20738500Y6436088D03*
D47*
X20738500Y7355327D03*
D43*
X20455659Y7638169D03*
X20172813Y7921012D03*
X19889972Y8203855D03*
D48*
X19607129Y8486697D03*
%TD*%
D15*
%TO.C,C12*%
X22930510Y16884707D03*
X21380510Y16884707D03*
%TD*%
D49*
%TO.C,L3*%
X-11215668Y46641502D03*
X-14015668Y46641502D03*
%TD*%
D50*
%TO.C,C26*%
X9959510Y16615707D03*
X9959510Y17575707D03*
%TD*%
D15*
%TO.C,C13*%
X22930510Y17984707D03*
X21380510Y17984707D03*
%TD*%
D51*
%TO.C,L4*%
X19882510Y12732207D03*
X19882510Y14857207D03*
%TD*%
D52*
%TO.C,U8*%
X17697510Y13345707D03*
X17047510Y13345707D03*
X16397510Y13345707D03*
X16397510Y11445707D03*
X17697510Y11445707D03*
%TD*%
M02*
