%TF.GenerationSoftware,KiCad,Pcbnew,8.99.0-344-gfbc433deaa*%
%TF.CreationDate,2024-05-24T16:54:21-04:00*%
%TF.ProjectId,thundervolt_lite,7468756e-6465-4727-966f-6c745f6c6974,rev?*%
%TF.SameCoordinates,PX85b368ePY7384544*%
%TF.FileFunction,Legend,Top*%
%TF.FilePolarity,Positive*%
%FSLAX46Y46*%
G04 Gerber Fmt 4.6, Leading zero omitted, Abs format (unit mm)*
G04 Created by KiCad (PCBNEW 8.99.0-344-gfbc433deaa) date 2024-05-24 16:54:21*
%MOMM*%
%LPD*%
G01*
G04 APERTURE LIST*
%ADD10C,0.140000*%
%ADD11C,0.150000*%
%ADD12C,0.112500*%
%ADD13C,0.300000*%
%ADD14C,0.120000*%
%ADD15C,0.100000*%
%ADD16C,0.127000*%
%ADD17C,0.200000*%
G04 APERTURE END LIST*
D10*
X-12083388Y31078826D02*
G75*
G02*
X-12043876Y31361633I9518J142834D01*
G01*
D11*
G36*
X-11147144Y40269561D02*
G01*
X-11131903Y40257544D01*
X-11120179Y40242596D01*
X-11116662Y40179875D01*
X-11120179Y40163169D01*
X-11131903Y40147928D01*
X-11147144Y40139428D01*
X-11565678Y40016330D01*
X-11143920Y39788305D01*
X-11128679Y39776581D01*
X-11116662Y39761340D01*
X-11113438Y39741117D01*
X-11116662Y39681912D01*
X-11128386Y39666672D01*
X-11143627Y39658465D01*
X-11160626Y39658465D01*
X-11179384Y39663448D01*
X-12100863Y40169910D01*
X-12116104Y40181633D01*
X-12126069Y40198633D01*
X-12129586Y40217097D01*
X-12126069Y40279526D01*
X-12100863Y40299749D01*
X-12082398Y40303266D01*
X-12063641Y40294767D01*
X-11731275Y40107481D01*
X-11182608Y40274543D01*
X-11165608Y40276302D01*
X-11147144Y40269561D01*
G37*
G36*
X-11147144Y39576693D02*
G01*
X-11131903Y39564676D01*
X-11120179Y39549728D01*
X-11116662Y39487007D01*
X-11120179Y39470300D01*
X-11131903Y39455060D01*
X-11147144Y39446560D01*
X-11569195Y39323462D01*
X-11144213Y39095437D01*
X-11128679Y39083713D01*
X-11116662Y39068472D01*
X-11116662Y39048249D01*
X-11116662Y39004285D01*
X-11120179Y38989044D01*
X-11131903Y38973804D01*
X-11147144Y38965597D01*
X-11165902Y38965597D01*
X-11182901Y38970580D01*
X-11800444Y39308221D01*
X-11815978Y39319945D01*
X-11825943Y39335185D01*
X-11829460Y39355409D01*
X-11825943Y39370649D01*
X-11815978Y39387649D01*
X-11800444Y39395855D01*
X-11182901Y39581675D01*
X-11165902Y39583434D01*
X-11147144Y39576693D01*
G37*
G36*
X-11411512Y38873566D02*
G01*
X-11277862Y38812896D01*
X-11258812Y38799414D01*
X-11169712Y38701522D01*
X-11116662Y38595129D01*
X-11116662Y38573148D01*
X-11116662Y38441550D01*
X-11121938Y38422792D01*
X-11167074Y38340140D01*
X-11234485Y38282694D01*
X-11322999Y38250747D01*
X-11345567Y38247230D01*
X-11480682Y38264229D01*
X-11498267Y38269212D01*
X-11513801Y38280935D01*
X-11525818Y38297935D01*
X-11529335Y38316400D01*
X-11529335Y38715004D01*
X-11398030Y38715004D01*
X-11398030Y38389086D01*
X-11363445Y38385862D01*
X-11286362Y38411068D01*
X-11247967Y38470273D01*
X-11247967Y38578130D01*
X-11290465Y38654041D01*
X-11327102Y38688039D01*
X-11398030Y38715004D01*
X-11529335Y38715004D01*
X-11529335Y38745192D01*
X-11631624Y38724969D01*
X-11662398Y38698005D01*
X-11698156Y38632352D01*
X-11698156Y38524201D01*
X-11665915Y38455032D01*
X-11593522Y38411068D01*
X-11569782Y38380587D01*
X-11571540Y38345122D01*
X-11623710Y38294711D01*
X-11640710Y38286211D01*
X-11657416Y38286211D01*
X-11676174Y38291194D01*
X-11691414Y38302917D01*
X-11777876Y38402568D01*
X-11829460Y38507202D01*
X-11829460Y38529184D01*
X-11829460Y38660782D01*
X-11824185Y38679540D01*
X-11779635Y38762192D01*
X-11682036Y38850119D01*
X-11663278Y38860084D01*
X-11529628Y38887049D01*
X-11411512Y38873566D01*
G37*
G36*
X-10845260Y37993706D02*
G01*
X-10830019Y37981982D01*
X-10820054Y37964983D01*
X-10816537Y37902554D01*
X-10820054Y37884090D01*
X-10830019Y37870607D01*
X-10845260Y37862108D01*
X-10863724Y37862108D01*
X-11782273Y37973483D01*
X-11800738Y37980224D01*
X-11815978Y37991947D01*
X-11825943Y38008947D01*
X-11829460Y38027411D01*
X-11825943Y38089840D01*
X-11815978Y38103615D01*
X-11800738Y38111822D01*
X-11782273Y38111822D01*
X-10863724Y38000447D01*
X-10845260Y37993706D01*
G37*
G36*
X-11143627Y37726406D02*
G01*
X-11128386Y37712924D01*
X-11116662Y37695925D01*
X-11113438Y37593050D01*
X-10862552Y37562568D01*
X-10844380Y37555827D01*
X-10829726Y37544104D01*
X-10819761Y37527104D01*
X-10816537Y37508640D01*
X-10816537Y37464676D01*
X-10816537Y37446211D01*
X-10826502Y37432729D01*
X-10841742Y37424229D01*
X-10860207Y37424229D01*
X-11116662Y37454711D01*
X-11116662Y37370300D01*
X-11116662Y37355060D01*
X-11128386Y37339819D01*
X-11143627Y37333078D01*
X-11160333Y37329854D01*
X-11204297Y37334836D01*
X-11222761Y37341577D01*
X-11238002Y37353301D01*
X-11247967Y37370300D01*
X-11251484Y37471417D01*
X-11781394Y37535604D01*
X-11800444Y37542345D01*
X-11815685Y37554362D01*
X-11825943Y37571068D01*
X-11829460Y37633497D01*
X-11825943Y37652254D01*
X-11815685Y37665737D01*
X-11800444Y37674236D01*
X-11781394Y37674236D01*
X-11251484Y37610049D01*
X-11251484Y37694460D01*
X-11247967Y37711166D01*
X-11238002Y37726406D01*
X-11222761Y37734906D01*
X-11204297Y37736665D01*
X-11160333Y37731389D01*
X-11143627Y37726406D01*
G37*
G36*
X-11411512Y37218186D02*
G01*
X-11277862Y37157516D01*
X-11258812Y37144034D01*
X-11169712Y37044383D01*
X-11116662Y36939749D01*
X-11116662Y36917767D01*
X-11116662Y36786169D01*
X-11121352Y36767411D01*
X-11163264Y36684760D01*
X-11177625Y36666295D01*
X-11143627Y36657795D01*
X-11128386Y36646072D01*
X-11116662Y36630831D01*
X-11113438Y36610607D01*
X-11116662Y36551403D01*
X-11128679Y36536162D01*
X-11144213Y36527663D01*
X-11161212Y36527663D01*
X-11784911Y36602108D01*
X-11803668Y36608849D01*
X-11819202Y36620573D01*
X-11829460Y36635813D01*
X-11832978Y36698242D01*
X-11829460Y36715241D01*
X-11819202Y36730482D01*
X-11803962Y36738688D01*
X-11768497Y36737223D01*
X-11784031Y36758912D01*
X-11829460Y36851822D01*
X-11829460Y36868821D01*
X-11698156Y36868821D01*
X-11625762Y36720224D01*
X-11320361Y36683001D01*
X-11247967Y36814892D01*
X-11247967Y36922750D01*
X-11284897Y36998661D01*
X-11316844Y37032659D01*
X-11434959Y37083071D01*
X-11511163Y37093329D01*
X-11629279Y37069589D01*
X-11661226Y37042624D01*
X-11698156Y36976972D01*
X-11698156Y36868821D01*
X-11829460Y36868821D01*
X-11829460Y36873804D01*
X-11829460Y37005402D01*
X-11824185Y37024159D01*
X-11779635Y37106811D01*
X-11682036Y37194739D01*
X-11663278Y37204704D01*
X-11529628Y37231668D01*
X-11411512Y37218186D01*
G37*
G36*
X-10845260Y36250398D02*
G01*
X-10830019Y36238674D01*
X-10820054Y36221675D01*
X-10816537Y36159247D01*
X-10820054Y36140782D01*
X-10830019Y36127300D01*
X-10845260Y36118800D01*
X-10863724Y36118800D01*
X-11782273Y36230175D01*
X-11800738Y36236916D01*
X-11815978Y36248640D01*
X-11825943Y36265639D01*
X-11829460Y36284104D01*
X-11825943Y36346532D01*
X-11815978Y36360307D01*
X-11800738Y36368514D01*
X-11782273Y36368514D01*
X-10863724Y36257139D01*
X-10845260Y36250398D01*
G37*
G36*
X-11498560Y35527049D02*
G01*
X-11398909Y35474585D01*
X-11311275Y35386658D01*
X-11255588Y35295506D01*
X-11228330Y35310747D01*
X-11096732Y35354711D01*
X-10995615Y35357935D01*
X-10973634Y35352952D01*
X-10873982Y35299023D01*
X-10821519Y35199372D01*
X-10816537Y35179149D01*
X-10821519Y35113497D01*
X-10873982Y35013845D01*
X-10973634Y34961382D01*
X-10995322Y34956400D01*
X-11083250Y34956400D01*
X-11103473Y34961382D01*
X-11203124Y35013552D01*
X-11297500Y35109979D01*
X-11461338Y34976623D01*
X-11280207Y34917418D01*
X-11170591Y34861731D01*
X-11116662Y34762080D01*
X-11116662Y34741857D01*
X-11116662Y34654222D01*
X-11119886Y34635464D01*
X-11131317Y34620224D01*
X-11146264Y34610259D01*
X-11162678Y34606741D01*
X-11223347Y34610259D01*
X-11238002Y34620224D01*
X-11247967Y34635464D01*
X-11251484Y34730133D01*
X-11269070Y34763838D01*
X-11312740Y34785820D01*
X-11586195Y34873455D01*
X-11661226Y34801061D01*
X-11698156Y34730133D01*
X-11698156Y34654222D01*
X-11701380Y34635464D01*
X-11711345Y34620224D01*
X-11725999Y34610259D01*
X-11744171Y34606741D01*
X-11786669Y34606741D01*
X-11804841Y34610259D01*
X-11819495Y34620224D01*
X-11829460Y34635464D01*
X-11829460Y34654222D01*
X-11829460Y34741857D01*
X-11829460Y34762080D01*
X-11776997Y34861731D01*
X-11701086Y34937642D01*
X-11785497Y35027328D01*
X-11829460Y35113497D01*
X-11829460Y35135185D01*
X-11829460Y35146909D01*
X-11698156Y35146909D01*
X-11662691Y35076274D01*
X-11630451Y35042275D01*
X-11605246Y35030552D01*
X-11421535Y35182373D01*
X-11186125Y35182373D01*
X-11176160Y35163908D01*
X-11142454Y35130203D01*
X-11071526Y35094739D01*
X-11005581Y35094739D01*
X-10971875Y35111738D01*
X-10954876Y35146909D01*
X-10954876Y35167425D01*
X-10971875Y35201131D01*
X-11005581Y35219596D01*
X-11074750Y35219596D01*
X-11186125Y35182373D01*
X-11421535Y35182373D01*
X-11372238Y35223113D01*
X-11432908Y35324229D01*
X-11466906Y35357935D01*
X-11537541Y35393399D01*
X-11603487Y35393399D01*
X-11665915Y35361452D01*
X-11698156Y35299023D01*
X-11698156Y35146909D01*
X-11829460Y35146909D01*
X-11829460Y35310747D01*
X-11824478Y35331263D01*
X-11772015Y35430621D01*
X-11716327Y35483085D01*
X-11628693Y35527049D01*
X-11606711Y35532031D01*
X-11520542Y35532031D01*
X-11498560Y35527049D01*
G37*
G36*
X-10845260Y33904494D02*
G01*
X-10830019Y33892771D01*
X-10820054Y33875771D01*
X-10816537Y33813343D01*
X-10820054Y33794878D01*
X-10830019Y33781396D01*
X-10845260Y33772896D01*
X-10863724Y33772896D01*
X-11782273Y33884271D01*
X-11800738Y33891012D01*
X-11815978Y33902736D01*
X-11825943Y33919735D01*
X-11829460Y33938200D01*
X-11825943Y34000628D01*
X-11815978Y34014404D01*
X-11800738Y34022610D01*
X-11782273Y34022610D01*
X-10863724Y33911236D01*
X-10845260Y33904494D01*
G37*
G36*
X-11414443Y33608472D02*
G01*
X-11281673Y33547802D01*
X-11262915Y33534320D01*
X-11165902Y33422945D01*
X-11116662Y33311277D01*
X-11116662Y33176455D01*
X-11116662Y33157697D01*
X-11170298Y33063322D01*
X-11259984Y32987411D01*
X-11279035Y32977153D01*
X-11413564Y32950189D01*
X-11518784Y32960154D01*
X-11667088Y33024341D01*
X-11686139Y33037823D01*
X-11775825Y33137474D01*
X-11829460Y33242108D01*
X-11829460Y33259107D01*
X-11698156Y33259107D01*
X-11661226Y33183196D01*
X-11629279Y33149198D01*
X-11511163Y33098786D01*
X-11434959Y33088528D01*
X-11316844Y33112268D01*
X-11284897Y33139233D01*
X-11247967Y33205178D01*
X-11247967Y33313036D01*
X-11284897Y33388947D01*
X-11316844Y33422945D01*
X-11434959Y33475116D01*
X-11511163Y33485374D01*
X-11629279Y33459875D01*
X-11661226Y33432910D01*
X-11698156Y33367258D01*
X-11698156Y33259107D01*
X-11829460Y33259107D01*
X-11829460Y33264090D01*
X-11829460Y33395688D01*
X-11824478Y33414446D01*
X-11771721Y33510580D01*
X-11683208Y33585025D01*
X-11664450Y33594990D01*
X-11531680Y33621954D01*
X-11414443Y33608472D01*
G37*
G36*
X-11414443Y32781954D02*
G01*
X-11281673Y32721284D01*
X-11262915Y32707802D01*
X-11165902Y32596427D01*
X-11116662Y32484760D01*
X-11116662Y32349938D01*
X-11116662Y32331180D01*
X-11170298Y32236804D01*
X-11259984Y32160894D01*
X-11279035Y32150635D01*
X-11413564Y32123671D01*
X-11518784Y32133636D01*
X-11667088Y32197823D01*
X-11686139Y32211305D01*
X-11775825Y32310956D01*
X-11829460Y32415590D01*
X-11829460Y32432589D01*
X-11698156Y32432589D01*
X-11661226Y32356679D01*
X-11629279Y32322680D01*
X-11511163Y32272268D01*
X-11434959Y32262010D01*
X-11316844Y32285751D01*
X-11284897Y32312715D01*
X-11247967Y32378661D01*
X-11247967Y32486518D01*
X-11284897Y32562429D01*
X-11316844Y32596427D01*
X-11434959Y32648598D01*
X-11511163Y32658856D01*
X-11629279Y32633357D01*
X-11661226Y32606393D01*
X-11698156Y32540740D01*
X-11698156Y32432589D01*
X-11829460Y32432589D01*
X-11829460Y32437572D01*
X-11829460Y32569170D01*
X-11824478Y32587928D01*
X-11771721Y32684062D01*
X-11683208Y32758507D01*
X-11664450Y32768472D01*
X-11531680Y32795437D01*
X-11414443Y32781954D01*
G37*
G36*
X-11160626Y31884508D02*
G01*
X-11143627Y31877767D01*
X-11128386Y31866044D01*
X-11116662Y31850803D01*
X-11116662Y31830580D01*
X-11116662Y31788374D01*
X-11119886Y31771375D01*
X-11131024Y31756427D01*
X-11145678Y31747928D01*
X-11177625Y31749393D01*
X-11162091Y31727704D01*
X-11116662Y31634794D01*
X-11116662Y31612813D01*
X-11116662Y31481215D01*
X-11121938Y31462457D01*
X-11174987Y31368081D01*
X-11264087Y31292171D01*
X-11282845Y31281912D01*
X-11432029Y31254948D01*
X-11534611Y31268430D01*
X-11668260Y31329100D01*
X-11687311Y31342582D01*
X-11784911Y31453957D01*
X-11829460Y31546867D01*
X-11829460Y31563866D01*
X-11698156Y31563866D01*
X-11661226Y31487956D01*
X-11629279Y31453957D01*
X-11511163Y31403545D01*
X-11434959Y31393287D01*
X-11316844Y31417028D01*
X-11284897Y31443992D01*
X-11247967Y31509938D01*
X-11247967Y31617795D01*
X-11320361Y31766393D01*
X-11625762Y31803615D01*
X-11698156Y31672017D01*
X-11698156Y31563866D01*
X-11829460Y31563866D01*
X-11829460Y31568849D01*
X-11829460Y31700447D01*
X-11824771Y31719205D01*
X-11782859Y31801857D01*
X-11768497Y31820321D01*
X-12083278Y31861061D01*
X-12101449Y31866044D01*
X-12116397Y31877767D01*
X-12126362Y31894767D01*
X-12129586Y31913231D01*
X-12126069Y31974194D01*
X-12116104Y31987677D01*
X-12100863Y31995883D01*
X-12082105Y31997642D01*
X-11160626Y31884508D01*
G37*
G36*
X-10820054Y30961270D02*
G01*
X-10816537Y30898842D01*
X-10820054Y30880377D01*
X-10873982Y30827914D01*
X-10889223Y30819414D01*
X-10951652Y30824690D01*
X-10970116Y30829672D01*
X-10985357Y30841396D01*
X-11039286Y30907342D01*
X-11042803Y30971529D01*
X-11039286Y30988235D01*
X-10985357Y31040698D01*
X-10970116Y31049198D01*
X-10907688Y31045681D01*
X-10889223Y31038940D01*
X-10873982Y31027216D01*
X-10820054Y30961270D01*
G37*
G36*
X-11147144Y31028975D02*
G01*
X-11131903Y31015492D01*
X-11120179Y31000252D01*
X-11116662Y30936065D01*
X-11120179Y30919065D01*
X-11131903Y30903825D01*
X-11147144Y30897083D01*
X-11163850Y30895618D01*
X-12082398Y31008458D01*
X-12100863Y31013734D01*
X-12116104Y31025457D01*
X-12126069Y31042457D01*
X-12129586Y31060922D01*
X-12126069Y31123350D01*
X-12116104Y31136832D01*
X-12100863Y31145332D01*
X-12082398Y31147090D01*
X-11163850Y31033957D01*
X-11147144Y31028975D01*
G37*
G36*
X-11766446Y30323797D02*
G01*
X-11749447Y30312073D01*
X-11312154Y29868039D01*
X-11184366Y29768388D01*
X-11109628Y29721201D01*
X-11043096Y29712701D01*
X-10980082Y29738200D01*
X-10947842Y29797111D01*
X-10947842Y29949226D01*
X-10980082Y30018395D01*
X-11042510Y30057083D01*
X-11093215Y30067342D01*
X-11108456Y30079065D01*
X-11118421Y30096065D01*
X-11123403Y30114529D01*
X-11118421Y30175199D01*
X-11108456Y30188975D01*
X-11093215Y30197181D01*
X-11032252Y30192199D01*
X-11010270Y30185457D01*
X-10922929Y30131529D01*
X-10859621Y30058842D01*
X-10816537Y29965932D01*
X-10816537Y29943950D01*
X-10816537Y29768388D01*
X-10821519Y29749924D01*
X-10865776Y29667272D01*
X-10930549Y29608067D01*
X-11019063Y29577586D01*
X-11041338Y29574362D01*
X-11128093Y29586085D01*
X-11150075Y29592827D01*
X-11243864Y29650273D01*
X-11374876Y29753148D01*
X-11698156Y30080824D01*
X-11698156Y29658772D01*
X-11701380Y29640307D01*
X-11711345Y29626532D01*
X-11725999Y29618326D01*
X-11786669Y29621550D01*
X-11804841Y29628291D01*
X-11819495Y29640307D01*
X-11829460Y29657014D01*
X-11829460Y29675478D01*
X-11829460Y30286867D01*
X-11825943Y30305332D01*
X-11815978Y30318814D01*
X-11800444Y30327314D01*
X-11783445Y30329072D01*
X-11766446Y30323797D01*
G37*
G36*
X-11247674Y29395576D02*
G01*
X-11011149Y29314390D01*
X-10869000Y29199791D01*
X-10816537Y29039470D01*
X-10816537Y28929561D01*
X-10860500Y28804704D01*
X-10878965Y28782722D01*
X-11027855Y28706811D01*
X-11256174Y28689812D01*
X-11396564Y28706811D01*
X-11633382Y28787704D01*
X-11775239Y28902596D01*
X-11826702Y29061159D01*
X-11698156Y29061159D01*
X-11667088Y28965025D01*
X-11593229Y28909337D01*
X-11384841Y28843392D01*
X-11261156Y28829910D01*
X-11052768Y28845150D01*
X-10978909Y28882373D01*
X-10947842Y28970007D01*
X-10947842Y29040935D01*
X-10978909Y29135604D01*
X-11052768Y29193050D01*
X-11261156Y29258702D01*
X-11384841Y29272185D01*
X-11593229Y29257237D01*
X-11667088Y29218256D01*
X-11698156Y29132087D01*
X-11698156Y29061159D01*
X-11826702Y29061159D01*
X-11829460Y29069658D01*
X-11827702Y29172827D01*
X-11783738Y29295925D01*
X-11765273Y29319665D01*
X-11616383Y29395576D01*
X-11388065Y29412575D01*
X-11247674Y29395576D01*
G37*
G36*
X-11766446Y28588695D02*
G01*
X-11749447Y28576972D01*
X-11312154Y28132938D01*
X-11184366Y28033287D01*
X-11109628Y27986099D01*
X-11043096Y27977600D01*
X-10980082Y28003099D01*
X-10947842Y28062010D01*
X-10947842Y28214125D01*
X-10980082Y28283294D01*
X-11042510Y28321982D01*
X-11093215Y28332240D01*
X-11108456Y28343964D01*
X-11118421Y28360963D01*
X-11123403Y28379428D01*
X-11118421Y28440098D01*
X-11108456Y28453873D01*
X-11093215Y28462080D01*
X-11032252Y28457097D01*
X-11010270Y28450356D01*
X-10922929Y28396427D01*
X-10859621Y28323741D01*
X-10816537Y28230831D01*
X-10816537Y28208849D01*
X-10816537Y28033287D01*
X-10821519Y28014822D01*
X-10865776Y27932171D01*
X-10930549Y27872966D01*
X-11019063Y27842485D01*
X-11041338Y27839261D01*
X-11128093Y27850984D01*
X-11150075Y27857725D01*
X-11243864Y27915171D01*
X-11374876Y28018046D01*
X-11698156Y28345723D01*
X-11698156Y27923671D01*
X-11701380Y27905206D01*
X-11711345Y27891431D01*
X-11725999Y27883224D01*
X-11786669Y27886448D01*
X-11804841Y27893189D01*
X-11819495Y27905206D01*
X-11829460Y27921912D01*
X-11829460Y27940377D01*
X-11829460Y28551766D01*
X-11825943Y28570231D01*
X-11815978Y28583713D01*
X-11800444Y28592212D01*
X-11783445Y28593971D01*
X-11766446Y28588695D01*
G37*
G36*
X-11533731Y27685681D02*
G01*
X-10836760Y27118549D01*
X-10825036Y27105067D01*
X-10816537Y27084843D01*
X-10816537Y27067844D01*
X-10816537Y27052603D01*
X-10837053Y27037656D01*
X-10855811Y27035897D01*
X-11473061Y27110049D01*
X-11473061Y26983434D01*
X-11476285Y26964969D01*
X-11485957Y26951487D01*
X-11500612Y26942987D01*
X-11518491Y26941229D01*
X-11558937Y26946211D01*
X-11576816Y26953245D01*
X-11591470Y26964969D01*
X-11601142Y26981675D01*
X-11604366Y27000433D01*
X-11604366Y27127049D01*
X-11800151Y27155771D01*
X-11815685Y27167495D01*
X-11825943Y27184494D01*
X-11829460Y27245164D01*
X-11825943Y27263629D01*
X-11815685Y27277111D01*
X-11800151Y27285611D01*
X-11604366Y27265388D01*
X-11604366Y27474655D01*
X-11473354Y27474655D01*
X-11473061Y27248681D01*
X-11145678Y27207942D01*
X-11473354Y27474655D01*
X-11604366Y27474655D01*
X-11604366Y27655492D01*
X-11604366Y27672199D01*
X-11582384Y27694180D01*
X-11548972Y27695939D01*
X-11533731Y27685681D01*
G37*
D12*
G36*
X24311562Y8569348D02*
G01*
X24308336Y8582055D01*
X24310360Y8595441D01*
X24317621Y8607479D01*
X24466306Y8778521D01*
X24295264Y8927206D01*
X24286377Y8938426D01*
X24282653Y8951566D01*
X24284512Y8965096D01*
X24313238Y9002163D01*
X24324459Y9011050D01*
X24337599Y9014773D01*
X24351129Y9012915D01*
X24363477Y9005676D01*
X24534519Y8856991D01*
X24683203Y9028033D01*
X24694114Y9036899D01*
X24707088Y9040766D01*
X24720120Y9039341D01*
X24755362Y9012200D01*
X24763586Y9001556D01*
X24766811Y8988849D01*
X24764787Y8975464D01*
X24757526Y8963426D01*
X24608842Y8792384D01*
X24779884Y8643699D01*
X24788605Y8632623D01*
X24792328Y8619483D01*
X24790636Y8605809D01*
X24761743Y8568886D01*
X24750688Y8559855D01*
X24737383Y8556275D01*
X24723853Y8558134D01*
X24711671Y8565229D01*
X24540628Y8713913D01*
X24391944Y8542871D01*
X24381034Y8534006D01*
X24368060Y8530138D01*
X24355027Y8531564D01*
X24319785Y8558705D01*
X24311562Y8569348D01*
G37*
G36*
X20679446Y37137585D02*
G01*
X20660322Y37155390D01*
X20656585Y37169239D01*
X20656585Y37204629D01*
X20666697Y37227490D01*
X20702307Y37243977D01*
X20722531Y37300910D01*
X20722531Y37387079D01*
X20701648Y37449068D01*
X20683403Y37461817D01*
X20666477Y37464235D01*
X20640538Y37452804D01*
X20557227Y37269256D01*
X20515462Y37197156D01*
X20438745Y37165502D01*
X20421819Y37164183D01*
X20406212Y37169239D01*
X20326857Y37221116D01*
X20286411Y37335202D01*
X20283993Y37446650D01*
X20318504Y37550404D01*
X20324659Y37563153D01*
X20400057Y37593488D01*
X20412806Y37595906D01*
X20426655Y37593488D01*
X20438086Y37584476D01*
X20448197Y37570627D01*
X20450615Y37555460D01*
X20448197Y37511056D01*
X20431711Y37493471D01*
X20405113Y37484458D01*
X20384889Y37427525D01*
X20384889Y37341576D01*
X20405552Y37279368D01*
X20416104Y37272993D01*
X20434129Y37279368D01*
X20449736Y37309922D01*
X20517220Y37462916D01*
X20558766Y37535236D01*
X20635483Y37565571D01*
X20684722Y37562934D01*
X20701648Y37557878D01*
X20779464Y37507320D01*
X20821010Y37392135D01*
X20821010Y37270575D01*
X20782102Y37165502D01*
X20708462Y37133848D01*
X20693295Y37132529D01*
X20679446Y37137585D01*
G37*
G36*
X20401376Y38181503D02*
G01*
X20415224Y38182822D01*
X20429073Y38177766D01*
X20473476Y38132264D01*
X20483588Y38106765D01*
X20474795Y38084123D01*
X20408850Y38056206D01*
X20384889Y38011803D01*
X20384889Y37930910D01*
X20412587Y37873977D01*
X20436547Y37848478D01*
X20525134Y37809350D01*
X20582287Y37801657D01*
X20670873Y37820781D01*
X20694834Y37841004D01*
X20722531Y37890243D01*
X20722531Y37971356D01*
X20698351Y38023234D01*
X20632625Y38066318D01*
X20623612Y38091597D01*
X20635043Y38114458D01*
X20679446Y38149849D01*
X20691976Y38149849D01*
X20706044Y38146112D01*
X20782321Y38062581D01*
X20821010Y37984106D01*
X20821010Y37967620D01*
X20821010Y37868921D01*
X20817053Y37854853D01*
X20783640Y37792864D01*
X20710441Y37726918D01*
X20696372Y37719444D01*
X20596135Y37699221D01*
X20507548Y37709333D01*
X20407311Y37754835D01*
X20393023Y37764947D01*
X20326198Y37838366D01*
X20286411Y37918160D01*
X20286411Y37934647D01*
X20286411Y38033345D01*
X20289928Y38047414D01*
X20321142Y38109403D01*
X20389945Y38175128D01*
X20401376Y38181503D01*
G37*
G36*
X20082859Y38369228D02*
G01*
X20071428Y38378021D01*
X20063954Y38390770D01*
X20061317Y38437592D01*
X20063954Y38451440D01*
X20071428Y38461552D01*
X20082859Y38467927D01*
X20096707Y38467927D01*
X20785619Y38384396D01*
X20799467Y38379340D01*
X20810898Y38370547D01*
X20818372Y38357798D01*
X20821010Y38343949D01*
X20818372Y38297128D01*
X20810898Y38286796D01*
X20799467Y38280641D01*
X20785619Y38280641D01*
X20096707Y38364172D01*
X20082859Y38369228D01*
G37*
D13*
G36*
X-2435742Y16464368D02*
G01*
X-2388848Y16380837D01*
X-2413742Y16281394D01*
X-2474707Y16176659D01*
X-2553454Y16075632D01*
X-2634741Y15985812D01*
X-2732286Y15887993D01*
X-2846088Y15782174D01*
X-2909085Y15726266D01*
X-3014768Y15637859D01*
X-3112329Y15562193D01*
X-3216331Y15486631D01*
X-3326773Y15411171D01*
X-3443654Y15335814D01*
X-3463761Y15323265D01*
X-3577105Y15253009D01*
X-3690906Y15184047D01*
X-3743480Y15090013D01*
X-3781032Y15015031D01*
X-3811074Y14926126D01*
X-3785428Y14907075D01*
X-3657648Y14962233D01*
X-3611772Y14997445D01*
X-3527656Y15078085D01*
X-3448373Y15164019D01*
X-3337731Y15219706D01*
X-3260795Y15169392D01*
X-3312818Y15073527D01*
X-3398170Y14982728D01*
X-3468890Y14916845D01*
X-3563798Y14839949D01*
X-3682114Y14768834D01*
X-3821054Y14724315D01*
X-3882149Y14719497D01*
X-4017819Y14761220D01*
X-4028694Y14770299D01*
X-4068262Y14856761D01*
X-4048202Y14957904D01*
X-4005794Y15057575D01*
X-3997187Y15074626D01*
X-3946497Y15167057D01*
X-3889374Y15260033D01*
X-3829451Y15350464D01*
X-3787627Y15410704D01*
X-3736268Y15481534D01*
X-3498932Y15481534D01*
X-3369822Y15561671D01*
X-3262704Y15637818D01*
X-3156015Y15722480D01*
X-3049755Y15815657D01*
X-2965056Y15896330D01*
X-2880632Y15982452D01*
X-2817494Y16050620D01*
X-2742481Y16137418D01*
X-2674333Y16229946D01*
X-2646036Y16299259D01*
X-2661423Y16313914D01*
X-2786364Y16257628D01*
X-2890504Y16174921D01*
X-2984236Y16088768D01*
X-3054165Y16019846D01*
X-3144815Y15925908D01*
X-3232115Y15828741D01*
X-3316067Y15728346D01*
X-3396670Y15624722D01*
X-3461281Y15535902D01*
X-3498932Y15481534D01*
X-3736268Y15481534D01*
X-3720741Y15502948D01*
X-3653623Y15592100D01*
X-3563772Y15706162D01*
X-3473509Y15814727D01*
X-3382834Y15917798D01*
X-3291747Y16015373D01*
X-3200247Y16107453D01*
X-3108336Y16194037D01*
X-3062225Y16235268D01*
X-2970230Y16311963D01*
X-2866022Y16386839D01*
X-2752977Y16450535D01*
X-2621131Y16494993D01*
X-2554444Y16501493D01*
X-2435742Y16464368D01*
G37*
G36*
X-2608666Y15594863D02*
G01*
X-2533195Y15570927D01*
X-2511213Y15530871D01*
X-2574961Y15440013D01*
X-2662356Y15347559D01*
X-2737970Y15262538D01*
X-2809961Y15174473D01*
X-2878310Y15078045D01*
X-2936156Y14985901D01*
X-2989708Y14892039D01*
X-3038967Y14796460D01*
X-3048303Y14777138D01*
X-3142628Y14700314D01*
X-3173600Y14697515D01*
X-3257864Y14725359D01*
X-3285708Y14773719D01*
X-3248071Y14874748D01*
X-3197671Y14972216D01*
X-3152351Y15054109D01*
X-3092267Y15149547D01*
X-3026470Y15236962D01*
X-2948332Y15328024D01*
X-2857851Y15422732D01*
X-2815296Y15464437D01*
X-2726407Y15545739D01*
X-2701723Y15564089D01*
X-2608666Y15594863D01*
G37*
G36*
X-2217389Y16095072D02*
G01*
X-2101909Y16032086D01*
X-2100885Y16018380D01*
X-2150851Y15923902D01*
X-2197606Y15884047D01*
X-2313697Y15823597D01*
X-2382253Y15813705D01*
X-2463586Y15837152D01*
X-2494361Y15890397D01*
X-2444187Y15985456D01*
X-2377857Y16037431D01*
X-2254896Y16091470D01*
X-2217389Y16095072D01*
G37*
G36*
X-1826112Y15627592D02*
G01*
X-1904680Y15540523D01*
X-1980100Y15446012D01*
X-2045285Y15354590D01*
X-2066447Y15322777D01*
X-2128973Y15222522D01*
X-2181627Y15122543D01*
X-2219236Y15019465D01*
X-2226915Y14961786D01*
X-2211527Y14919776D01*
X-2163900Y14907075D01*
X-2030807Y14955161D01*
X-1933091Y15030174D01*
X-1846262Y15109186D01*
X-1770425Y15187955D01*
X-1665645Y15241199D01*
X-1603363Y15224102D01*
X-1579915Y15188443D01*
X-1637611Y15093877D01*
X-1725453Y15005663D01*
X-1784347Y14952504D01*
X-1875159Y14873318D01*
X-1977982Y14801641D01*
X-2105236Y14742251D01*
X-2240104Y14719497D01*
X-2382256Y14753899D01*
X-2434277Y14792281D01*
X-2479625Y14885792D01*
X-2481904Y14919776D01*
X-2470312Y15021412D01*
X-2440545Y15119086D01*
X-2392460Y15223660D01*
X-2335359Y15320823D01*
X-2264101Y15414978D01*
X-2192301Y15501321D01*
X-2120669Y15585093D01*
X-2204933Y15532337D01*
X-2293593Y15547968D01*
X-2350013Y15608052D01*
X-2277473Y15675952D01*
X-2127011Y15694215D01*
X-2118471Y15695003D01*
X-1986580Y15717473D01*
X-1908942Y15808768D01*
X-1821770Y15900047D01*
X-1754305Y15967089D01*
X-1669477Y16048268D01*
X-1627543Y16083837D01*
X-1523495Y16126336D01*
X-1451688Y16101911D01*
X-1421646Y16055505D01*
X-1483346Y15960434D01*
X-1541081Y15903586D01*
X-1626793Y15823346D01*
X-1627543Y15822497D01*
X-1475945Y15838626D01*
X-1346175Y15844968D01*
X-1215711Y15796370D01*
X-1209155Y15765345D01*
X-1259713Y15704284D01*
X-1379148Y15688652D01*
X-1526259Y15672694D01*
X-1685428Y15650062D01*
X-1826112Y15627592D01*
G37*
G36*
X-722623Y15568973D02*
G01*
X-660341Y15479092D01*
X-693494Y15379950D01*
X-765121Y15288094D01*
X-851761Y15206933D01*
X-970421Y15125181D01*
X-1108015Y15057361D01*
X-1241023Y15010317D01*
X-1387941Y14973509D01*
X-1387941Y14960809D01*
X-1369622Y14918799D01*
X-1232279Y14875980D01*
X-1219413Y14875812D01*
X-1074146Y14896253D01*
X-933634Y14948742D01*
X-801895Y15021167D01*
X-682446Y15102929D01*
X-641290Y15134221D01*
X-523321Y15185024D01*
X-463237Y15164019D01*
X-445652Y15133733D01*
X-510567Y15042869D01*
X-614151Y14964971D01*
X-650816Y14940781D01*
X-761216Y14876112D01*
X-887577Y14816623D01*
X-986405Y14779580D01*
X-1128515Y14740679D01*
X-1273172Y14720964D01*
X-1322728Y14719497D01*
X-1470922Y14738914D01*
X-1584312Y14797166D01*
X-1642495Y14888597D01*
X-1648792Y14941758D01*
X-1632804Y15045726D01*
X-1604758Y15105889D01*
X-1324193Y15105889D01*
X-1189383Y15151696D01*
X-1154200Y15168904D01*
X-1042181Y15238894D01*
X-952322Y15316365D01*
X-930718Y15339874D01*
X-902874Y15394095D01*
X-918262Y15407285D01*
X-1050290Y15358232D01*
X-1056015Y15355017D01*
X-1165722Y15281941D01*
X-1257074Y15195705D01*
X-1324193Y15105889D01*
X-1604758Y15105889D01*
X-1584839Y15148618D01*
X-1518275Y15235956D01*
X-1428218Y15322504D01*
X-1314668Y15408262D01*
X-1198251Y15480971D01*
X-1072932Y15542199D01*
X-927874Y15585934D01*
X-833998Y15594863D01*
X-722623Y15568973D01*
G37*
D12*
G36*
X-10410909Y8549624D02*
G01*
X-10396454Y8551333D01*
X-10382309Y8549624D01*
X-10347181Y8518226D01*
X-10340186Y8507501D01*
X-10338321Y8493201D01*
X-10341896Y8480610D01*
X-10500440Y8191501D01*
X-10154130Y8295953D01*
X-10139675Y8297974D01*
X-10125219Y8296264D01*
X-10114494Y8285539D01*
X-10091179Y8262224D01*
X-10084961Y8252276D01*
X-10083096Y8237976D01*
X-10086827Y8225541D01*
X-10096774Y8215593D01*
X-10108432Y8209220D01*
X-10614995Y8060780D01*
X-10629451Y8058759D01*
X-10642818Y8061557D01*
X-10655409Y8070417D01*
X-10661626Y8080365D01*
X-10665356Y8094665D01*
X-10661471Y8107255D01*
X-10432515Y8533303D01*
X-10424432Y8543251D01*
X-10410909Y8549624D01*
G37*
G36*
X-9798339Y8283985D02*
G01*
X-9786681Y8276058D01*
X-9756061Y8242017D01*
X-9754195Y8229582D01*
X-9757615Y8217148D01*
X-9767252Y8207511D01*
X-9954862Y8061246D01*
X-9934966Y8057827D01*
X-9861601Y8032646D01*
X-9849943Y8020988D01*
X-9780153Y7951198D01*
X-9773158Y7938608D01*
X-9752019Y7861201D01*
X-9758081Y7772758D01*
X-9762589Y7757370D01*
X-9819167Y7672192D01*
X-9880098Y7622142D01*
X-9992167Y7578154D01*
X-10009420Y7575200D01*
X-10109520Y7580796D01*
X-10193144Y7608153D01*
X-10204802Y7619810D01*
X-10274592Y7689601D01*
X-10281898Y7701880D01*
X-10303503Y7767940D01*
X-10305835Y7785504D01*
X-10329150Y7771204D01*
X-10343450Y7769339D01*
X-10357750Y7772758D01*
X-10391946Y7803224D01*
X-10399873Y7814881D01*
X-10401583Y7827472D01*
X-10398008Y7840062D01*
X-10388215Y7849854D01*
X-10385242Y7852186D01*
X-10221123Y7852186D01*
X-10189725Y7744003D01*
X-10132369Y7686647D01*
X-10072527Y7665974D01*
X-10037709Y7665042D01*
X-9948178Y7700792D01*
X-9902325Y7735765D01*
X-9852275Y7810995D01*
X-9849633Y7842238D01*
X-9865021Y7896796D01*
X-9922376Y7954151D01*
X-10039419Y7994409D01*
X-10221123Y7852186D01*
X-10385242Y7852186D01*
X-9840462Y8279477D01*
X-9826939Y8285850D01*
X-9812639Y8287715D01*
X-9798339Y8283985D01*
G37*
G36*
X-9497727Y7612505D02*
G01*
X-9414103Y7585148D01*
X-9402445Y7573490D01*
X-9332655Y7503700D01*
X-9325194Y7491265D01*
X-9303589Y7425205D01*
X-9301413Y7407797D01*
X-9278874Y7421319D01*
X-9264574Y7423185D01*
X-9250274Y7421319D01*
X-9237840Y7412304D01*
X-9208151Y7379197D01*
X-9206442Y7364741D01*
X-9210172Y7351995D01*
X-9219187Y7342980D01*
X-9589434Y7051695D01*
X-9602957Y7045322D01*
X-9617412Y7043301D01*
X-9630935Y7045943D01*
X-9665908Y7077186D01*
X-9673058Y7088066D01*
X-9675701Y7101589D01*
X-9671970Y7114024D01*
X-9652385Y7132055D01*
X-9672126Y7135319D01*
X-9745491Y7160499D01*
X-9757149Y7172157D01*
X-9826939Y7241947D01*
X-9834089Y7254693D01*
X-9854296Y7322152D01*
X-9852797Y7350907D01*
X-9757459Y7350907D01*
X-9742227Y7296505D01*
X-9684871Y7239149D01*
X-9567673Y7198736D01*
X-9385969Y7340959D01*
X-9417523Y7449298D01*
X-9474723Y7506498D01*
X-9534565Y7527171D01*
X-9569538Y7528259D01*
X-9658914Y7492353D01*
X-9704767Y7457380D01*
X-9754817Y7382150D01*
X-9757459Y7350907D01*
X-9852797Y7350907D01*
X-9849166Y7420542D01*
X-9844503Y7435775D01*
X-9787925Y7520953D01*
X-9718134Y7576444D01*
X-9615081Y7615147D01*
X-9597828Y7618100D01*
X-9497727Y7612505D01*
G37*
G36*
X-9129968Y7272413D02*
G01*
X-9114735Y7273345D01*
X-9099502Y7270547D01*
X-9043235Y7217699D01*
X-8894017Y7334587D01*
X-8880805Y7340649D01*
X-8866816Y7342203D01*
X-8852516Y7338472D01*
X-8841014Y7330390D01*
X-8817698Y7307075D01*
X-8807906Y7297282D01*
X-8806041Y7284847D01*
X-8809616Y7272257D01*
X-8819408Y7262465D01*
X-8971579Y7142624D01*
X-8926814Y7097859D01*
X-8918731Y7089776D01*
X-8916866Y7075476D01*
X-8921374Y7063818D01*
X-8928524Y7053249D01*
X-8954481Y7032576D01*
X-8967849Y7026359D01*
X-8982149Y7024493D01*
X-8996449Y7028224D01*
X-9051939Y7079984D01*
X-9367006Y6832997D01*
X-9380685Y6826469D01*
X-9395140Y6824759D01*
X-9409440Y6828179D01*
X-9444413Y6859421D01*
X-9452496Y6871234D01*
X-9454205Y6883825D01*
X-9450630Y6896415D01*
X-9440527Y6906518D01*
X-9125460Y7153505D01*
X-9170225Y7198270D01*
X-9177220Y7208995D01*
X-9180018Y7222362D01*
X-9176443Y7234953D01*
X-9167583Y7245678D01*
X-9141470Y7266195D01*
X-9129968Y7272413D01*
G37*
D11*
G36*
X17585938Y845365D02*
G01*
X17583080Y859500D01*
X17583943Y873896D01*
X17591903Y887073D01*
X17623025Y918854D01*
X17637181Y921403D01*
X17650156Y918570D01*
X17659944Y910062D01*
X17881298Y665797D01*
X17929867Y648626D01*
X17977579Y665985D01*
X18009161Y702317D01*
X18027398Y766853D01*
X18042490Y869656D01*
X17827571Y1106580D01*
X17821100Y1118904D01*
X17818054Y1133493D01*
X17818751Y1148033D01*
X17828702Y1159480D01*
X17849469Y1183369D01*
X17859680Y1191095D01*
X17873815Y1193953D01*
X17886790Y1191121D01*
X17896412Y1182757D01*
X18210990Y835317D01*
X18218457Y822128D01*
X18221315Y807993D01*
X18219622Y794318D01*
X18209671Y782871D01*
X18188905Y758982D01*
X18178860Y751112D01*
X18165886Y747244D01*
X18153574Y749500D01*
X18143621Y758152D01*
X18114255Y790378D01*
X18112701Y721244D01*
X18092570Y648161D01*
X18080888Y634723D01*
X18016136Y560235D01*
X18004231Y552235D01*
X17924931Y525343D01*
X17912988Y529026D01*
X17815076Y585596D01*
X17592409Y833041D01*
X17585938Y845365D01*
G37*
G36*
X17984833Y1444632D02*
G01*
X17980849Y1461493D01*
X18002177Y1541982D01*
X18002022Y1697942D01*
X18009261Y1710290D01*
X18020337Y1719011D01*
X18032612Y1721739D01*
X18045421Y1719051D01*
X18055872Y1709966D01*
X18520999Y1194957D01*
X18528134Y1182056D01*
X18530848Y1167755D01*
X18528268Y1153396D01*
X18499541Y1116329D01*
X18488321Y1107442D01*
X18476047Y1104714D01*
X18463238Y1107402D01*
X18452786Y1116487D01*
X18089929Y1519293D01*
X18089434Y1499625D01*
X18060644Y1412226D01*
X18050563Y1402639D01*
X18037257Y1399060D01*
X18024448Y1401748D01*
X18012266Y1408843D01*
X17984833Y1444632D01*
G37*
G36*
X18673715Y2233079D02*
G01*
X18811315Y2130358D01*
X18882416Y2051658D01*
X18976659Y1889345D01*
X19000423Y1754513D01*
X18948912Y1633270D01*
X18897153Y1575739D01*
X18811699Y1527694D01*
X18789566Y1523341D01*
X18667938Y1553634D01*
X18530338Y1656355D01*
X18459236Y1735055D01*
X18365303Y1897390D01*
X18344399Y2014452D01*
X18435025Y2014452D01*
X18448565Y1945594D01*
X18534216Y1805896D01*
X18597591Y1737407D01*
X18722900Y1643331D01*
X18783888Y1629054D01*
X18843872Y1662542D01*
X18878772Y1702689D01*
X18908488Y1772391D01*
X18894082Y1840254D01*
X18808576Y1980117D01*
X18745201Y2048607D01*
X18619747Y2142516D01*
X18559625Y2157789D01*
X18498920Y2123472D01*
X18464020Y2083324D01*
X18435025Y2014452D01*
X18344399Y2014452D01*
X18341230Y2032200D01*
X18390419Y2148761D01*
X18444499Y2210974D01*
X18530819Y2260015D01*
X18552087Y2263372D01*
X18673715Y2233079D01*
G37*
D13*
G36*
X11618270Y18318131D02*
G01*
X11628528Y18339673D01*
X11645748Y18357112D01*
X11725615Y18417293D01*
X11843951Y18467900D01*
X11871428Y18489785D01*
X12090880Y18489785D01*
X12116159Y18480552D01*
X12227900Y18416609D01*
X12268201Y18467900D01*
X12289083Y18483630D01*
X12314362Y18489785D01*
X12333413Y18483972D01*
X12350266Y18472346D01*
X12358692Y18454565D01*
X12358692Y18435074D01*
X12324987Y18230594D01*
X12316561Y18211103D01*
X12304104Y18193323D01*
X12282855Y18181355D01*
X12259774Y18175542D01*
X12238525Y18179303D01*
X12219474Y18189219D01*
X12175144Y18299666D01*
X12139240Y18338989D01*
X12057175Y18380364D01*
X11867032Y18380364D01*
X11769945Y18338305D01*
X11734041Y18308214D01*
X11759687Y18274020D01*
X11852377Y18227859D01*
X12105535Y18123567D01*
X12223870Y18059282D01*
X12270399Y18007307D01*
X12280657Y17989184D01*
X12280657Y17969010D01*
X12255378Y17812743D01*
X12246951Y17790517D01*
X12232297Y17772394D01*
X12152063Y17710503D01*
X12031896Y17658186D01*
X12006616Y17658186D01*
X11784966Y17658186D01*
X11761519Y17667419D01*
X11647579Y17731362D01*
X11607646Y17680071D01*
X11586397Y17664341D01*
X11563316Y17658186D01*
X11542067Y17661948D01*
X11525214Y17675625D01*
X11516787Y17693406D01*
X11514589Y17712897D01*
X11548661Y17917035D01*
X11558919Y17936868D01*
X11573940Y17954648D01*
X11594823Y17966274D01*
X11616072Y17972429D01*
X11639153Y17968326D01*
X11656006Y17958410D01*
X11700336Y17846253D01*
X11736240Y17808982D01*
X11818672Y17767607D01*
X12010646Y17767607D01*
X12105535Y17808298D01*
X12141438Y17835653D01*
X12149865Y17892073D01*
X12124586Y17921138D01*
X12033727Y17965932D01*
X11778371Y18065095D01*
X11672859Y18117754D01*
X11603249Y18195716D01*
X11609844Y18267524D01*
X11618270Y18318131D01*
G37*
G36*
X13092154Y18483972D02*
G01*
X13193637Y18431997D01*
X13252621Y18370447D01*
X13299150Y18253162D01*
X13300981Y18227175D01*
X13241997Y17879080D01*
X13273504Y17795304D01*
X13300981Y17767607D01*
X13353738Y17763504D01*
X13370591Y17751536D01*
X13379017Y17733071D01*
X13381215Y17710845D01*
X13372789Y17688619D01*
X13355936Y17670496D01*
X13334687Y17658186D01*
X13311606Y17654083D01*
X13235769Y17658186D01*
X13117433Y17724181D01*
X13096550Y17773420D01*
X13018148Y17712555D01*
X12897981Y17658186D01*
X12872702Y17658186D01*
X12701609Y17658186D01*
X12514031Y17723839D01*
X12465304Y17843176D01*
X12463473Y17869163D01*
X12465329Y17879422D01*
X12638595Y17879422D01*
X12666072Y17805563D01*
X12739711Y17767607D01*
X12877098Y17767607D01*
X12971986Y17809666D01*
X13073103Y17889338D01*
X13111205Y18118780D01*
X12794666Y18070908D01*
X12703808Y18030901D01*
X12651051Y17957042D01*
X12638595Y17879422D01*
X12465329Y17879422D01*
X12482157Y17972429D01*
X12492782Y17996365D01*
X12579244Y18115702D01*
X12786240Y18181355D01*
X13104977Y18229226D01*
X13134286Y18253162D01*
X13142712Y18308898D01*
X13115235Y18338647D01*
X13033169Y18380364D01*
X12843026Y18380364D01*
X12769387Y18348905D01*
X12752534Y18260343D01*
X12737513Y18242562D01*
X12716630Y18230594D01*
X12636397Y18226833D01*
X12615147Y18230594D01*
X12598295Y18242562D01*
X12589868Y18260343D01*
X12594265Y18333176D01*
X12604523Y18354718D01*
X12621742Y18372499D01*
X12701609Y18424816D01*
X12819945Y18467900D01*
X12847422Y18489785D01*
X13066875Y18489785D01*
X13092154Y18483972D01*
G37*
G36*
X13758937Y18637845D02*
G01*
X13769195Y18662806D01*
X13853825Y18774621D01*
X13995242Y18836170D01*
X14130064Y18839931D01*
X14149115Y18835828D01*
X14168166Y18823860D01*
X14212496Y18771885D01*
X14223120Y18753762D01*
X14225318Y18731536D01*
X14206268Y18659387D01*
X14130064Y18589289D01*
X14106983Y18577321D01*
X14083902Y18573218D01*
X14062653Y18577321D01*
X13997074Y18641606D01*
X13988647Y18659387D01*
X13988647Y18679561D01*
X14003668Y18711704D01*
X13988647Y18700078D01*
X13929662Y18621773D01*
X13906582Y18489785D01*
X14090130Y18485681D01*
X14109181Y18471662D01*
X14117607Y18453197D01*
X14119806Y18433023D01*
X14111013Y18410796D01*
X14094160Y18392674D01*
X14071079Y18380364D01*
X13889729Y18376260D01*
X13786048Y17767607D01*
X13891561Y17767607D01*
X13915008Y17763504D01*
X13931861Y17751536D01*
X13942485Y17733071D01*
X13942485Y17710845D01*
X13934059Y17688619D01*
X13919038Y17670496D01*
X13898155Y17658186D01*
X13872876Y17658186D01*
X13486728Y17658186D01*
X13467677Y17662290D01*
X13448626Y17674258D01*
X13440200Y17692722D01*
X13438002Y17714949D01*
X13446428Y17737175D01*
X13463281Y17755297D01*
X13484530Y17767607D01*
X13610926Y17771711D01*
X13714607Y18380364D01*
X13587845Y18384467D01*
X13570992Y18396777D01*
X13560367Y18414900D01*
X13558169Y18437126D01*
X13568794Y18457300D01*
X13583448Y18475765D01*
X13604697Y18489785D01*
X13733291Y18493546D01*
X13758937Y18637845D01*
G37*
G36*
X14939362Y18483972D02*
G01*
X15040479Y18433023D01*
X15110088Y18356428D01*
X15145992Y18256240D01*
X15148190Y18230936D01*
X15122911Y18109205D01*
X15108256Y18089715D01*
X15087007Y18077747D01*
X15061728Y18073986D01*
X14464554Y18073986D01*
X14458326Y18035346D01*
X14481407Y17899596D01*
X14559443Y17810350D01*
X14641875Y17767607D01*
X14728337Y17767607D01*
X14875981Y17810692D01*
X15015200Y17917035D01*
X15038647Y17921138D01*
X15059530Y17917035D01*
X15078581Y17905409D01*
X15087007Y17885577D01*
X15087007Y17866086D01*
X15080779Y17844202D01*
X14937164Y17724523D01*
X14909687Y17710845D01*
X14719910Y17658186D01*
X14590950Y17660238D01*
X14434879Y17711871D01*
X14413996Y17725549D01*
X14320940Y17828815D01*
X14310315Y17850699D01*
X14281006Y18021327D01*
X14304087Y18142374D01*
X14325923Y18183406D01*
X14504488Y18183406D01*
X14968672Y18183406D01*
X14983692Y18268207D01*
X14956215Y18343092D01*
X14880378Y18380364D01*
X14745189Y18380364D01*
X14648103Y18338989D01*
X14540392Y18252478D01*
X14504488Y18183406D01*
X14325923Y18183406D01*
X14386519Y18297272D01*
X14403371Y18319156D01*
X14531965Y18422422D01*
X14557244Y18434048D01*
X14747388Y18487733D01*
X14914083Y18489785D01*
X14939362Y18483972D01*
G37*
D11*
G36*
X22370802Y8142219D02*
G01*
X22382013Y8133866D01*
X22388388Y8122875D01*
X22387288Y8098915D01*
X22403555Y8110565D01*
X22473237Y8144637D01*
X22489724Y8144637D01*
X22588422Y8144637D01*
X22602491Y8140681D01*
X22673272Y8100893D01*
X22730205Y8034069D01*
X22737899Y8020000D01*
X22758122Y7908112D01*
X22748011Y7831176D01*
X22702508Y7730939D01*
X22692397Y7716651D01*
X22608866Y7643451D01*
X22539183Y7610038D01*
X22522697Y7610038D01*
X22423998Y7610038D01*
X22409930Y7613556D01*
X22347941Y7644990D01*
X22334092Y7655761D01*
X22303538Y7419676D01*
X22299801Y7406047D01*
X22291008Y7394836D01*
X22278258Y7387362D01*
X22264410Y7384944D01*
X22218688Y7387582D01*
X22208576Y7395056D01*
X22202421Y7406487D01*
X22201102Y7420555D01*
X22243122Y7762812D01*
X22346622Y7762812D01*
X22445321Y7708517D01*
X22526434Y7708517D01*
X22583367Y7736214D01*
X22608866Y7760175D01*
X22646674Y7848761D01*
X22654368Y7905914D01*
X22636563Y7994501D01*
X22616339Y8018461D01*
X22566880Y8046159D01*
X22485987Y8046159D01*
X22374539Y7991863D01*
X22346622Y7762812D01*
X22243122Y7762812D01*
X22285952Y8111664D01*
X22291008Y8124414D01*
X22299801Y8135845D01*
X22311231Y8144637D01*
X22326399Y8144637D01*
X22358053Y8144637D01*
X22370802Y8142219D01*
G37*
D12*
G36*
X20679446Y43437585D02*
G01*
X20660322Y43455390D01*
X20656585Y43469239D01*
X20656585Y43504629D01*
X20666697Y43527490D01*
X20702307Y43543977D01*
X20722531Y43600910D01*
X20722531Y43687079D01*
X20701648Y43749068D01*
X20683403Y43761817D01*
X20666477Y43764235D01*
X20640538Y43752804D01*
X20557227Y43569256D01*
X20515462Y43497156D01*
X20438745Y43465502D01*
X20421819Y43464183D01*
X20406212Y43469239D01*
X20326857Y43521116D01*
X20286411Y43635202D01*
X20283993Y43746650D01*
X20318504Y43850404D01*
X20324659Y43863153D01*
X20400057Y43893488D01*
X20412806Y43895906D01*
X20426655Y43893488D01*
X20438086Y43884476D01*
X20448197Y43870627D01*
X20450615Y43855460D01*
X20448197Y43811056D01*
X20431711Y43793471D01*
X20405113Y43784458D01*
X20384889Y43727525D01*
X20384889Y43641576D01*
X20405552Y43579368D01*
X20416104Y43572993D01*
X20434129Y43579368D01*
X20449736Y43609922D01*
X20517220Y43762916D01*
X20558766Y43835236D01*
X20635483Y43865571D01*
X20684722Y43862934D01*
X20701648Y43857878D01*
X20779464Y43807320D01*
X20821010Y43692135D01*
X20821010Y43570575D01*
X20782102Y43465502D01*
X20708462Y43433848D01*
X20693295Y43432529D01*
X20679446Y43437585D01*
G37*
G36*
X20788037Y44457543D02*
G01*
X20801885Y44452487D01*
X20813316Y44443474D01*
X20821010Y44430945D01*
X20823647Y44385442D01*
X20821010Y44371374D01*
X20813316Y44361262D01*
X20801885Y44354888D01*
X20775287Y44356206D01*
X20786938Y44339720D01*
X20821010Y44270038D01*
X20821010Y44253551D01*
X20821010Y44154853D01*
X20817053Y44141004D01*
X20777266Y44070003D01*
X20710441Y44013070D01*
X20696372Y44005596D01*
X20596135Y43985153D01*
X20507548Y43995264D01*
X20407311Y44040987D01*
X20393023Y44051098D01*
X20326198Y44124518D01*
X20286411Y44204312D01*
X20286411Y44216841D01*
X20384889Y44216841D01*
X20412587Y44159908D01*
X20436547Y44134629D01*
X20525134Y44096601D01*
X20582287Y44089127D01*
X20670873Y44106712D01*
X20694834Y44126936D01*
X20722531Y44176395D01*
X20722531Y44257508D01*
X20668236Y44368956D01*
X20439185Y44396653D01*
X20384889Y44297955D01*
X20384889Y44216841D01*
X20286411Y44216841D01*
X20286411Y44220798D01*
X20286411Y44319497D01*
X20289928Y44333345D01*
X20321362Y44395554D01*
X20332133Y44409403D01*
X20096048Y44438419D01*
X20082419Y44443474D01*
X20071208Y44452487D01*
X20063735Y44465017D01*
X20061317Y44479085D01*
X20063954Y44524587D01*
X20071428Y44534699D01*
X20082859Y44541074D01*
X20096927Y44541074D01*
X20788037Y44457543D01*
G37*
G36*
X20787597Y45123813D02*
G01*
X20801665Y45118757D01*
X20813316Y45109964D01*
X20821010Y45098534D01*
X20823647Y45051712D01*
X20821010Y45038963D01*
X20813316Y45027532D01*
X20801885Y45021377D01*
X20775287Y45022477D01*
X20786938Y45006210D01*
X20821010Y44936527D01*
X20821010Y44920041D01*
X20821010Y44821343D01*
X20817053Y44807274D01*
X20783640Y44745285D01*
X20710441Y44679340D01*
X20696372Y44671866D01*
X20596135Y44651643D01*
X20507548Y44661754D01*
X20407311Y44707257D01*
X20393023Y44717368D01*
X20326198Y44792107D01*
X20286411Y44870582D01*
X20286411Y44883331D01*
X20384889Y44883331D01*
X20412587Y44826398D01*
X20436547Y44800899D01*
X20525134Y44763091D01*
X20582287Y44755397D01*
X20670873Y44773202D01*
X20694834Y44793426D01*
X20722531Y44842665D01*
X20722531Y44923778D01*
X20668236Y45035226D01*
X20439185Y45063143D01*
X20384889Y44964225D01*
X20384889Y44883331D01*
X20286411Y44883331D01*
X20286411Y44887068D01*
X20286411Y44985767D01*
X20289928Y44999835D01*
X20321362Y45061824D01*
X20332133Y45075673D01*
X20306634Y45082047D01*
X20295203Y45090840D01*
X20286411Y45102271D01*
X20283993Y45117438D01*
X20286411Y45161841D01*
X20295423Y45173272D01*
X20307074Y45179647D01*
X20319823Y45179647D01*
X20787597Y45123813D01*
G37*
G36*
X-12178494Y10284904D02*
G01*
X-12105751Y10259413D01*
X-12094093Y10247755D01*
X-12024147Y10177809D01*
X-12016842Y10165530D01*
X-11995236Y10099470D01*
X-11992905Y10081906D01*
X-11970522Y10095584D01*
X-11956067Y10097294D01*
X-11941767Y10095429D01*
X-11906949Y10064031D01*
X-11899799Y10053461D01*
X-11898089Y10039006D01*
X-11901820Y10026260D01*
X-11910835Y10017245D01*
X-12307350Y9704975D01*
X-12417398Y9663008D01*
X-12434341Y9660365D01*
X-12532265Y9666272D01*
X-12616977Y9696271D01*
X-12627702Y9706996D01*
X-12697492Y9776786D01*
X-12705731Y9789998D01*
X-12728580Y9865695D01*
X-12724538Y9950252D01*
X-12720963Y9962842D01*
X-12713036Y9972635D01*
X-12700290Y9979785D01*
X-12686146Y9981495D01*
X-12671690Y9977920D01*
X-12614335Y9924294D01*
X-12606407Y9912637D01*
X-12604698Y9900047D01*
X-12606407Y9860721D01*
X-12589310Y9807873D01*
X-12555269Y9773833D01*
X-12498069Y9750518D01*
X-12464184Y9748653D01*
X-12379783Y9777408D01*
X-12343877Y9806164D01*
X-12363773Y9809583D01*
X-12437139Y9834764D01*
X-12448796Y9846421D01*
X-12518587Y9916212D01*
X-12525737Y9928958D01*
X-12547653Y10007141D01*
X-12546212Y10025172D01*
X-12449107Y10025172D01*
X-12433719Y9970614D01*
X-12376519Y9913414D01*
X-12259321Y9873001D01*
X-12077617Y10015224D01*
X-12109015Y10123407D01*
X-12166370Y10180763D01*
X-12226213Y10201435D01*
X-12261030Y10202368D01*
X-12350561Y10166618D01*
X-12396415Y10131645D01*
X-12446465Y10056414D01*
X-12449107Y10025172D01*
X-12546212Y10025172D01*
X-12540658Y10094651D01*
X-12536151Y10110040D01*
X-12479572Y10195218D01*
X-12419574Y10244336D01*
X-12306728Y10289412D01*
X-12289475Y10292365D01*
X-12178494Y10284904D01*
G37*
G36*
X-11765658Y9890410D02*
G01*
X-11751358Y9892275D01*
X-11736903Y9890565D01*
X-11702085Y9859167D01*
X-11694780Y9848442D01*
X-11693070Y9834297D01*
X-11696334Y9822018D01*
X-11740323Y9785180D01*
X-11671465Y9778807D01*
X-11599965Y9753627D01*
X-11587374Y9741036D01*
X-11517584Y9671246D01*
X-11510434Y9658811D01*
X-11489139Y9577829D01*
X-11493647Y9566172D01*
X-11556909Y9472444D01*
X-11819284Y9267581D01*
X-11832806Y9261208D01*
X-11847262Y9259187D01*
X-11860629Y9261985D01*
X-11873220Y9270845D01*
X-11895602Y9293228D01*
X-11904462Y9302087D01*
X-11906949Y9315766D01*
X-11903219Y9328511D01*
X-11893115Y9338615D01*
X-11633539Y9542856D01*
X-11611933Y9591197D01*
X-11625767Y9640159D01*
X-11659652Y9674044D01*
X-11723225Y9696582D01*
X-11825190Y9718032D01*
X-12080104Y9516899D01*
X-12093938Y9510215D01*
X-12111346Y9508972D01*
X-12128289Y9525914D01*
X-12150671Y9548297D01*
X-12157821Y9559177D01*
X-12160464Y9572700D01*
X-12156889Y9585290D01*
X-12146941Y9595238D01*
X-11778404Y9884814D01*
X-11765658Y9890410D01*
G37*
G36*
X-11278991Y9376385D02*
G01*
X-11194434Y9348096D01*
X-11182777Y9336439D01*
X-11112986Y9266648D01*
X-11105681Y9254369D01*
X-11083920Y9188153D01*
X-11081744Y9170745D01*
X-10894289Y9317165D01*
X-10881077Y9323227D01*
X-10866777Y9324781D01*
X-10852632Y9321206D01*
X-10840975Y9312968D01*
X-10810665Y9278928D01*
X-10808799Y9266493D01*
X-10812374Y9253902D01*
X-10822322Y9243955D01*
X-11370076Y8814332D01*
X-11383443Y8808114D01*
X-11397899Y8806405D01*
X-11412199Y8809824D01*
X-11446239Y8840134D01*
X-11454322Y8851947D01*
X-11456032Y8864537D01*
X-11452457Y8877128D01*
X-11432716Y8895003D01*
X-11452612Y8898422D01*
X-11525977Y8923603D01*
X-11537635Y8935260D01*
X-11607425Y9005051D01*
X-11614420Y9017641D01*
X-11636492Y9095980D01*
X-11635051Y9114011D01*
X-11537946Y9114011D01*
X-11522558Y9059453D01*
X-11465202Y9002097D01*
X-11348004Y8961684D01*
X-11166456Y9104063D01*
X-11197854Y9212246D01*
X-11255209Y9269601D01*
X-11315052Y9290274D01*
X-11349869Y9291207D01*
X-11439400Y9255457D01*
X-11485098Y9220328D01*
X-11535304Y9145253D01*
X-11537946Y9114011D01*
X-11635051Y9114011D01*
X-11629497Y9183490D01*
X-11624834Y9198723D01*
X-11568411Y9284057D01*
X-11498621Y9339547D01*
X-11395412Y9378095D01*
X-11378159Y9381048D01*
X-11278991Y9376385D01*
G37*
D11*
G36*
X7719938Y-691734D02*
G01*
X7732297Y-700869D01*
X7740088Y-714571D01*
X7740088Y-731228D01*
X7704355Y-1019777D01*
X7724505Y-1005537D01*
X7809673Y-963894D01*
X7829823Y-963894D01*
X7950454Y-963894D01*
X7967380Y-968730D01*
X8052548Y-1017359D01*
X8123745Y-1099034D01*
X8133148Y-1116228D01*
X8157865Y-1238741D01*
X8148462Y-1334655D01*
X8089624Y-1469526D01*
X8077265Y-1486989D01*
X7985918Y-1568664D01*
X7890004Y-1617293D01*
X7869854Y-1617293D01*
X7749223Y-1617293D01*
X7732297Y-1612994D01*
X7656533Y-1574574D01*
X7639338Y-1561410D01*
X7631546Y-1593918D01*
X7620800Y-1607889D01*
X7605486Y-1617293D01*
X7549603Y-1620517D01*
X7532677Y-1617293D01*
X7520318Y-1607889D01*
X7512527Y-1593918D01*
X7512527Y-1576992D01*
X7530224Y-1430569D01*
X7654921Y-1430569D01*
X7775552Y-1496930D01*
X7874690Y-1496930D01*
X7944275Y-1463078D01*
X7975172Y-1433793D01*
X8021651Y-1325520D01*
X8031055Y-1255667D01*
X8009292Y-1147394D01*
X7984575Y-1118109D01*
X7924125Y-1084257D01*
X7824987Y-1084257D01*
X7689041Y-1150618D01*
X7654921Y-1430569D01*
X7530224Y-1430569D01*
X7614620Y-732303D01*
X7620800Y-715108D01*
X7631546Y-701138D01*
X7647129Y-692003D01*
X7664055Y-688779D01*
X7719938Y-691734D01*
G37*
G36*
X8443996Y-692003D02*
G01*
X8501222Y-688779D01*
X8518148Y-692003D01*
X8566239Y-741438D01*
X8574031Y-755408D01*
X8569195Y-812634D01*
X8564627Y-829560D01*
X8553881Y-843531D01*
X8493431Y-892966D01*
X8434593Y-896190D01*
X8419279Y-892966D01*
X8371187Y-843531D01*
X8363396Y-829560D01*
X8366620Y-772334D01*
X8372799Y-755408D01*
X8383546Y-741438D01*
X8443996Y-692003D01*
G37*
G36*
X8381934Y-991835D02*
G01*
X8394292Y-977865D01*
X8408263Y-967118D01*
X8467101Y-963894D01*
X8482684Y-967118D01*
X8496655Y-977865D01*
X8502834Y-991835D01*
X8504177Y-1007687D01*
X8436205Y-1573500D01*
X8430025Y-1590694D01*
X8419279Y-1604934D01*
X8403696Y-1614068D01*
X8386770Y-1617293D01*
X8329544Y-1614068D01*
X8316916Y-1604934D01*
X8309394Y-1590694D01*
X8309394Y-1573500D01*
X8377366Y-1007687D01*
X8381934Y-991835D01*
G37*
G36*
X8662691Y-988611D02*
G01*
X8675050Y-974641D01*
X8690632Y-963894D01*
X8784934Y-960939D01*
X8812876Y-730960D01*
X8819055Y-714302D01*
X8829802Y-700869D01*
X8845385Y-691734D01*
X8862311Y-688779D01*
X8902611Y-688779D01*
X8919537Y-688779D01*
X8931895Y-697914D01*
X8939687Y-711884D01*
X8939687Y-728810D01*
X8911745Y-963894D01*
X8989122Y-963894D01*
X9003092Y-963894D01*
X9017063Y-974641D01*
X9023242Y-988611D01*
X9026198Y-1003925D01*
X9021630Y-1044226D01*
X9015451Y-1061152D01*
X9004704Y-1075122D01*
X8989122Y-1084257D01*
X8896431Y-1087481D01*
X8837593Y-1573231D01*
X8831414Y-1590694D01*
X8820399Y-1604665D01*
X8805085Y-1614068D01*
X8747858Y-1617293D01*
X8730664Y-1614068D01*
X8718305Y-1604665D01*
X8710514Y-1590694D01*
X8710514Y-1573231D01*
X8769352Y-1087481D01*
X8691976Y-1087481D01*
X8676662Y-1084257D01*
X8662691Y-1075122D01*
X8654900Y-1061152D01*
X8653288Y-1044226D01*
X8658124Y-1003925D01*
X8662691Y-988611D01*
G37*
G36*
X9315821Y-691734D02*
G01*
X9328179Y-700869D01*
X9335971Y-714571D01*
X9335971Y-731228D01*
X9300238Y-1019777D01*
X9320388Y-1005537D01*
X9405556Y-963894D01*
X9425706Y-963894D01*
X9546337Y-963894D01*
X9563263Y-968730D01*
X9648431Y-1017359D01*
X9719627Y-1099034D01*
X9729031Y-1116228D01*
X9753748Y-1238741D01*
X9744345Y-1334655D01*
X9685507Y-1469526D01*
X9673148Y-1486989D01*
X9581801Y-1568664D01*
X9485887Y-1617293D01*
X9465737Y-1617293D01*
X9345105Y-1617293D01*
X9328179Y-1612994D01*
X9252415Y-1574574D01*
X9235221Y-1561410D01*
X9227429Y-1593918D01*
X9216683Y-1607889D01*
X9201369Y-1617293D01*
X9145486Y-1620517D01*
X9128560Y-1617293D01*
X9116201Y-1607889D01*
X9108410Y-1593918D01*
X9108410Y-1576992D01*
X9126107Y-1430569D01*
X9250803Y-1430569D01*
X9371435Y-1496930D01*
X9470573Y-1496930D01*
X9540158Y-1463078D01*
X9571055Y-1433793D01*
X9617534Y-1325520D01*
X9626937Y-1255667D01*
X9605175Y-1147394D01*
X9580458Y-1118109D01*
X9520008Y-1084257D01*
X9420870Y-1084257D01*
X9284924Y-1150618D01*
X9250803Y-1430569D01*
X9126107Y-1430569D01*
X9210503Y-732303D01*
X9216683Y-715108D01*
X9227429Y-701138D01*
X9243012Y-692003D01*
X9259938Y-688779D01*
X9315821Y-691734D01*
G37*
G36*
X9995011Y-991835D02*
G01*
X10005758Y-977865D01*
X10019729Y-967118D01*
X10038267Y-963894D01*
X10092537Y-967118D01*
X10106239Y-978133D01*
X10114031Y-992373D01*
X10114031Y-1008224D01*
X10066208Y-1408269D01*
X10089313Y-1466839D01*
X10143584Y-1496930D01*
X10202422Y-1496930D01*
X10276574Y-1462003D01*
X10383504Y-1393493D01*
X10429715Y-1005269D01*
X10435894Y-989417D01*
X10446909Y-974909D01*
X10460880Y-963894D01*
X10479418Y-963894D01*
X10518106Y-963894D01*
X10533420Y-967118D01*
X10547391Y-977865D01*
X10555182Y-992104D01*
X10555182Y-1007687D01*
X10486941Y-1576455D01*
X10480761Y-1593918D01*
X10470015Y-1607889D01*
X10456044Y-1617293D01*
X10437506Y-1617293D01*
X10398818Y-1617293D01*
X10383504Y-1614337D01*
X10369533Y-1605471D01*
X10361742Y-1592306D01*
X10361742Y-1576186D01*
X10367921Y-1523259D01*
X10302904Y-1577261D01*
X10219348Y-1617293D01*
X10197586Y-1617293D01*
X10076955Y-1617293D01*
X10060029Y-1612725D01*
X9971637Y-1561141D01*
X9965458Y-1547170D01*
X9939128Y-1411493D01*
X9988832Y-1007687D01*
X9995011Y-991835D01*
G37*
G36*
X10835133Y-692003D02*
G01*
X10892359Y-688779D01*
X10909285Y-692003D01*
X10957377Y-741438D01*
X10965168Y-755408D01*
X10960332Y-812634D01*
X10955765Y-829560D01*
X10945018Y-843531D01*
X10884568Y-892966D01*
X10825730Y-896190D01*
X10810416Y-892966D01*
X10762325Y-843531D01*
X10754533Y-829560D01*
X10757757Y-772334D01*
X10763937Y-755408D01*
X10774683Y-741438D01*
X10835133Y-692003D01*
G37*
G36*
X10773071Y-991835D02*
G01*
X10785430Y-977865D01*
X10799401Y-967118D01*
X10858239Y-963894D01*
X10873821Y-967118D01*
X10887792Y-977865D01*
X10893971Y-991835D01*
X10895315Y-1007687D01*
X10827342Y-1573500D01*
X10821163Y-1590694D01*
X10810416Y-1604934D01*
X10794833Y-1614068D01*
X10777907Y-1617293D01*
X10720681Y-1614068D01*
X10708054Y-1604934D01*
X10700531Y-1590694D01*
X10700531Y-1573500D01*
X10768504Y-1007687D01*
X10773071Y-991835D01*
G37*
G36*
X11169893Y-715108D02*
G01*
X11180639Y-701138D01*
X11196222Y-692003D01*
X11253448Y-688779D01*
X11270374Y-692003D01*
X11282733Y-701138D01*
X11290524Y-715108D01*
X11290524Y-732034D01*
X11188431Y-1574037D01*
X11182251Y-1590963D01*
X11171505Y-1604934D01*
X11155922Y-1614068D01*
X11138996Y-1617293D01*
X11081770Y-1614068D01*
X11069142Y-1604934D01*
X11061620Y-1590963D01*
X11061620Y-1574037D01*
X11163713Y-732034D01*
X11169893Y-715108D01*
G37*
G36*
X11414917Y-988611D02*
G01*
X11427276Y-974641D01*
X11442858Y-963894D01*
X11537161Y-960939D01*
X11565102Y-730960D01*
X11571281Y-714302D01*
X11582028Y-700869D01*
X11597611Y-691734D01*
X11614537Y-688779D01*
X11654837Y-688779D01*
X11671763Y-688779D01*
X11684122Y-697914D01*
X11691913Y-711884D01*
X11691913Y-728810D01*
X11663971Y-963894D01*
X11741348Y-963894D01*
X11755318Y-963894D01*
X11769289Y-974641D01*
X11775468Y-988611D01*
X11778424Y-1003925D01*
X11773856Y-1044226D01*
X11767677Y-1061152D01*
X11756930Y-1075122D01*
X11741348Y-1084257D01*
X11648657Y-1087481D01*
X11589819Y-1573231D01*
X11583640Y-1590694D01*
X11572625Y-1604665D01*
X11557311Y-1614068D01*
X11500085Y-1617293D01*
X11482890Y-1614068D01*
X11470531Y-1604665D01*
X11462740Y-1590694D01*
X11462740Y-1573231D01*
X11521578Y-1087481D01*
X11444202Y-1087481D01*
X11428888Y-1084257D01*
X11414917Y-1075122D01*
X11407126Y-1061152D01*
X11405514Y-1044226D01*
X11410350Y-1003925D01*
X11414917Y-988611D01*
G37*
G36*
X11979655Y-1410956D02*
G01*
X12036881Y-1410956D01*
X12054076Y-1414180D01*
X12108078Y-1464152D01*
X12117482Y-1478123D01*
X12120706Y-1536155D01*
X12117482Y-1553350D01*
X12108078Y-1567320D01*
X12054076Y-1617293D01*
X11996850Y-1620517D01*
X11979655Y-1617293D01*
X11965685Y-1607889D01*
X11916250Y-1552275D01*
X11913295Y-1493437D01*
X11916250Y-1475974D01*
X11925653Y-1461734D01*
X11979655Y-1410956D01*
G37*
G36*
X12391522Y-988880D02*
G01*
X12402269Y-974909D01*
X12416239Y-963894D01*
X12473466Y-960939D01*
X12489048Y-963894D01*
X12502750Y-974641D01*
X12510542Y-988074D01*
X12504362Y-1057928D01*
X12569380Y-1003925D01*
X12652935Y-963894D01*
X12674697Y-963894D01*
X12795329Y-963894D01*
X12812255Y-968461D01*
X12900646Y-1020045D01*
X12906826Y-1034016D01*
X12933155Y-1169693D01*
X12883452Y-1573500D01*
X12877272Y-1590694D01*
X12866526Y-1604934D01*
X12852555Y-1614068D01*
X12834017Y-1617293D01*
X12795329Y-1617293D01*
X12780015Y-1617293D01*
X12766044Y-1607620D01*
X12758253Y-1593381D01*
X12758253Y-1575918D01*
X12806075Y-1175066D01*
X12782970Y-1114616D01*
X12728699Y-1084257D01*
X12670130Y-1084257D01*
X12595709Y-1119721D01*
X12489048Y-1189306D01*
X12442569Y-1583440D01*
X12436389Y-1601172D01*
X12422419Y-1617293D01*
X12393134Y-1617293D01*
X12354446Y-1617293D01*
X12338863Y-1614068D01*
X12324893Y-1604665D01*
X12317101Y-1590694D01*
X12317101Y-1573500D01*
X12385343Y-1004731D01*
X12391522Y-988880D01*
G37*
G36*
X13528790Y-968730D02*
G01*
X13604554Y-1010105D01*
X13657213Y-1071898D01*
X13686498Y-1153036D01*
X13689722Y-1173723D01*
X13674139Y-1297579D01*
X13669572Y-1313699D01*
X13658825Y-1327938D01*
X13643242Y-1338953D01*
X13626316Y-1342177D01*
X13233256Y-1342177D01*
X13251794Y-1435942D01*
X13276512Y-1464152D01*
X13336693Y-1496930D01*
X13435831Y-1496930D01*
X13499237Y-1467376D01*
X13539537Y-1401015D01*
X13567478Y-1379253D01*
X13599987Y-1380865D01*
X13646198Y-1428688D01*
X13653989Y-1444271D01*
X13653989Y-1459585D01*
X13649422Y-1476780D01*
X13638675Y-1490750D01*
X13547328Y-1570007D01*
X13451414Y-1617293D01*
X13431264Y-1617293D01*
X13310632Y-1617293D01*
X13293438Y-1612456D01*
X13217673Y-1571619D01*
X13137073Y-1482153D01*
X13127939Y-1464958D01*
X13103221Y-1342446D01*
X13115580Y-1234173D01*
X13121190Y-1221814D01*
X13260929Y-1221814D01*
X13559687Y-1221814D01*
X13562642Y-1190112D01*
X13539537Y-1119452D01*
X13485266Y-1084257D01*
X13386396Y-1084257D01*
X13316812Y-1123214D01*
X13285646Y-1156797D01*
X13260929Y-1221814D01*
X13121190Y-1221814D01*
X13171194Y-1111661D01*
X13183553Y-1094198D01*
X13273288Y-1012523D01*
X13370814Y-963894D01*
X13390964Y-963894D01*
X13511595Y-963894D01*
X13528790Y-968730D01*
G37*
G36*
X13806055Y-988611D02*
G01*
X13818413Y-974641D01*
X13833996Y-963894D01*
X13928298Y-960939D01*
X13956239Y-730960D01*
X13962419Y-714302D01*
X13973165Y-700869D01*
X13988748Y-691734D01*
X14005674Y-688779D01*
X14045974Y-688779D01*
X14062900Y-688779D01*
X14075259Y-697914D01*
X14083050Y-711884D01*
X14083050Y-728810D01*
X14055109Y-963894D01*
X14132485Y-963894D01*
X14146456Y-963894D01*
X14160426Y-974641D01*
X14166606Y-988611D01*
X14169561Y-1003925D01*
X14164994Y-1044226D01*
X14158814Y-1061152D01*
X14148068Y-1075122D01*
X14132485Y-1084257D01*
X14039795Y-1087481D01*
X13980957Y-1573231D01*
X13974777Y-1590694D01*
X13963762Y-1604665D01*
X13948448Y-1614068D01*
X13891222Y-1617293D01*
X13874027Y-1614068D01*
X13861669Y-1604665D01*
X13853877Y-1590694D01*
X13853877Y-1573231D01*
X13912715Y-1087481D01*
X13835339Y-1087481D01*
X13820025Y-1084257D01*
X13806055Y-1075122D01*
X13798263Y-1061152D01*
X13796651Y-1044226D01*
X13801487Y-1003925D01*
X13806055Y-988611D01*
G37*
D14*
%TO.C,C23*%
X22334650Y46003734D02*
X22057760Y45954911D01*
X22511770Y44999231D02*
X22234880Y44950408D01*
%TO.C,C8*%
X-1223504Y2501502D02*
X-1007832Y2501502D01*
X-1223504Y1781502D02*
X-1007832Y1781502D01*
%TO.C,C17*%
X-16141897Y46491247D02*
X-16215661Y46693911D01*
X-15465319Y46737503D02*
X-15539083Y46940167D01*
%TO.C,C1*%
X-6775088Y10651502D02*
X-7056248Y10651502D01*
X-6775088Y9631502D02*
X-7056248Y9631502D01*
%TO.C,C11*%
X3774332Y-1699078D02*
X3774332Y-1417918D01*
X4794332Y-1699078D02*
X4794332Y-1417918D01*
%TO.C,C10*%
X5074332Y-1699078D02*
X5074332Y-1417918D01*
X6094332Y-1699078D02*
X6094332Y-1417918D01*
D11*
%TO.C,L2*%
X-5415668Y8041502D02*
X-4415668Y8041502D01*
X-5415668Y3041502D02*
X-5415668Y8041502D01*
X-5415668Y3041502D02*
X-4415668Y3041502D01*
X-1615668Y8041502D02*
X-615668Y8041502D01*
X-1615668Y3041502D02*
X-615668Y3041502D01*
X-615668Y3041502D02*
X-615668Y8041502D01*
D14*
%TO.C,R4*%
X16567510Y17649348D02*
X16567510Y17342066D01*
X17327510Y17649348D02*
X17327510Y17342066D01*
%TO.C,R7*%
X21087450Y8318366D02*
X20870169Y8535647D01*
X21624851Y8855767D02*
X21407570Y9073048D01*
%TO.C,C20*%
X-17825668Y46575127D02*
X-17825668Y46856287D01*
X-16805668Y46575127D02*
X-16805668Y46856287D01*
%TO.C,C189*%
X24857510Y22255707D02*
X24857510Y26465707D01*
X21837510Y22255707D02*
X24857510Y22255707D01*
X21837510Y26465707D02*
X21837510Y22255707D01*
%TO.C,R3*%
X-15295668Y43095143D02*
X-15295668Y42787861D01*
X-14535668Y43095143D02*
X-14535668Y42787861D01*
%TO.C,R6*%
X16367510Y4442066D02*
X16367510Y4749351D01*
X17127510Y4442063D02*
X17127510Y4749348D01*
%TO.C,C24*%
X-9676887Y8781472D02*
X-9875698Y8980283D01*
X-8955638Y9502721D02*
X-9154449Y9701532D01*
%TO.C,C25*%
X16916699Y8874015D02*
X17069202Y9026516D01*
X17425818Y8364898D02*
X17578321Y8517399D01*
%TO.C,C27*%
X16939674Y10655707D02*
X17155346Y10655707D01*
X16939674Y9935707D02*
X17155346Y9935707D01*
%TO.C,C4*%
X-13325668Y25700922D02*
X-13325668Y25982082D01*
X-12305668Y25700922D02*
X-12305668Y25982082D01*
%TO.C,TP11*%
X22715191Y6038386D02*
G75*
G02*
X21715191Y6038386I-500000J0D01*
G01*
X21715191Y6038386D02*
G75*
G02*
X22715191Y6038386I500000J0D01*
G01*
%TO.C,C22*%
X17155346Y14855707D02*
X16939674Y14855707D01*
X17155346Y14135707D02*
X16939674Y14135707D01*
%TO.C,TP9*%
X21247510Y39585707D02*
G75*
G02*
X19847510Y39585707I-700000J0D01*
G01*
X19847510Y39585707D02*
G75*
G02*
X21247510Y39585707I700000J0D01*
G01*
%TO.C,C5*%
X-21225668Y46775707D02*
X-21225668Y42565707D01*
X-18205668Y46775707D02*
X-21225668Y46775707D01*
X-18205668Y42565707D02*
X-18205668Y46775707D01*
%TO.C,R2*%
X-995668Y9887861D02*
X-995668Y10195143D01*
X-235668Y9887861D02*
X-235668Y10195143D01*
%TO.C,C2*%
X-10848710Y13036324D02*
X-10972415Y12859655D01*
X-10258921Y12623349D02*
X-10382626Y12446680D01*
%TO.C,C15*%
X22296090Y12094707D02*
X22014930Y12094707D01*
X22296090Y11074707D02*
X22014930Y11074707D01*
%TO.C,C16*%
X-12275088Y42851502D02*
X-12556248Y42851502D01*
X-12275088Y41831502D02*
X-12556248Y41831502D01*
%TO.C,C18*%
X-16725668Y44056287D02*
X-16725668Y43775127D01*
X-15705668Y44056287D02*
X-15705668Y43775127D01*
D11*
%TO.C,L1*%
X-9315668Y18341502D02*
X-9315668Y13341502D01*
X-8315668Y18341502D02*
X-9315668Y18341502D01*
X-8315668Y13341502D02*
X-9315668Y13341502D01*
X-4515668Y18341502D02*
X-5515668Y18341502D01*
X-4515668Y18341502D02*
X-4515668Y13341502D01*
X-4515668Y13341502D02*
X-5515668Y13341502D01*
D14*
%TO.C,C9*%
X-1656248Y1651502D02*
X-1375088Y1651502D01*
X-1656248Y631502D02*
X-1375088Y631502D01*
D15*
%TO.C,U2*%
X-1215668Y10041502D02*
X-1215668Y10041502D01*
X-1115668Y10041502D02*
X-1115668Y10041502D01*
X-1215668Y10041502D02*
G75*
G02*
X-1115668Y10041502I50000J0D01*
G01*
X-1115668Y10041502D02*
G75*
G02*
X-1215668Y10041502I-50000J0D01*
G01*
D14*
%TO.C,TP10*%
X24347510Y7995707D02*
G75*
G02*
X23347510Y7995707I-500000J0D01*
G01*
X23347510Y7995707D02*
G75*
G02*
X24347510Y7995707I500000J0D01*
G01*
%TO.C,R1*%
X-9709433Y12001617D02*
X-9975547Y11847976D01*
X-9329433Y11343438D02*
X-9595547Y11189797D01*
%TO.C,C7*%
X-3156248Y11751502D02*
X-2875088Y11751502D01*
X-3156248Y10731502D02*
X-2875088Y10731502D01*
%TO.C,D1*%
D11*
X16822510Y495707D02*
G75*
G02*
X16672510Y495707I-75000J0D01*
G01*
X16672510Y495707D02*
G75*
G02*
X16822510Y495707I75000J0D01*
G01*
D14*
%TO.C,C19*%
X-17825668Y44056287D02*
X-17825668Y43775127D01*
X-16805668Y44056287D02*
X-16805668Y43775127D01*
%TO.C,TP8*%
X21247510Y42485707D02*
G75*
G02*
X19847510Y42485707I-700000J0D01*
G01*
X19847510Y42485707D02*
G75*
G02*
X21247510Y42485707I700000J0D01*
G01*
D15*
%TO.C,U1*%
X-8815668Y11341502D02*
X-8815668Y11341502D01*
X-8715668Y11341502D02*
X-8715668Y11341502D01*
X-8815668Y11341502D02*
G75*
G02*
X-8715668Y11341502I50000J0D01*
G01*
X-8715668Y11341502D02*
G75*
G02*
X-8815668Y11341502I-50000J0D01*
G01*
D14*
%TO.C,R5*%
X17567510Y17649348D02*
X17567510Y17342066D01*
X18327510Y17649348D02*
X18327510Y17342066D01*
%TO.C,C14*%
X22263346Y16144707D02*
X22047674Y16144707D01*
X22263346Y15424707D02*
X22047674Y15424707D01*
%TO.C,C3*%
X-11476887Y14301532D02*
X-11675698Y14102721D01*
X-10755638Y13580283D02*
X-10954449Y13381472D01*
D16*
%TO.C,U4*%
X21605510Y15034707D02*
X23305510Y15034707D01*
X21605510Y12534707D02*
X21605510Y15034707D01*
X22855510Y12534707D02*
X21605510Y12534707D01*
X23305510Y15034707D02*
X23305510Y12984707D01*
X23305510Y12984707D02*
X22855510Y12534707D01*
D17*
X23328937Y12534707D02*
G75*
G02*
X23282083Y12534707I-23427J0D01*
G01*
X23282083Y12534707D02*
G75*
G02*
X23328937Y12534707I23427J0D01*
G01*
D15*
%TO.C,U3*%
X-14515668Y43541502D02*
X-14515668Y43541502D01*
X-14415668Y43541502D02*
X-14415668Y43541502D01*
X-14515668Y43541502D02*
G75*
G02*
X-14415668Y43541502I50000J0D01*
G01*
X-14415668Y43541502D02*
G75*
G02*
X-14515668Y43541502I-50000J0D01*
G01*
D14*
%TO.C,TP6*%
X20247510Y2995707D02*
G75*
G02*
X18847510Y2995707I-700000J0D01*
G01*
X18847510Y2995707D02*
G75*
G02*
X20247510Y2995707I700000J0D01*
G01*
%TO.C,C6*%
X-14625668Y25700922D02*
X-14625668Y25982082D01*
X-13605668Y25700922D02*
X-13605668Y25982082D01*
%TO.C,TP12*%
X23553255Y6999838D02*
G75*
G02*
X22553255Y6999838I-500000J0D01*
G01*
X22553255Y6999838D02*
G75*
G02*
X23553255Y6999838I500000J0D01*
G01*
D15*
%TO.C,U5*%
X17026190Y6895707D02*
X18617179Y8486697D01*
X18617179Y8486697D02*
X19677840Y8486696D01*
X19147510Y4774387D02*
X17026190Y6895707D01*
X19677840Y8486696D02*
X21268830Y6895707D01*
X21268830Y6895707D02*
X19147510Y4774387D01*
D17*
%TO.C,U7*%
X7034510Y17995707D02*
X7509510Y17995707D01*
X7859510Y17895707D02*
X8359510Y17895707D01*
X7859510Y16295707D02*
X7859510Y17895707D01*
X8359510Y17895707D02*
X8359510Y16295707D01*
X8359510Y16295707D02*
X7859510Y16295707D01*
D14*
%TO.C,C12*%
X22296090Y17394707D02*
X22014930Y17394707D01*
X22296090Y16374707D02*
X22014930Y16374707D01*
D17*
%TO.C,L3*%
X-12615668Y45491502D02*
X-12615668Y47791502D01*
D14*
%TO.C,C26*%
X9599510Y16987871D02*
X9599510Y17203543D01*
X10319510Y16987871D02*
X10319510Y17203543D01*
%TO.C,C13*%
X22296090Y18494707D02*
X22014930Y18494707D01*
X22296090Y17474707D02*
X22014930Y17474707D01*
%TO.C,L4*%
X19322510Y13395085D02*
X19322510Y14194329D01*
X20442510Y13395085D02*
X20442510Y14194329D01*
%TO.C,U8*%
X15887510Y13095707D02*
X15887510Y11695707D01*
X18207510Y13105707D02*
X18207510Y11695707D01*
X18487510Y13235707D02*
X18157510Y13475707D01*
X18487510Y13715707D01*
X18487510Y13235707D01*
G36*
X18487510Y13235707D02*
G01*
X18157510Y13475707D01*
X18487510Y13715707D01*
X18487510Y13235707D01*
G37*
%TD*%
M02*
