%TF.GenerationSoftware,KiCad,Pcbnew,8.99.0-2194-gb3b7cbcab2*%
%TF.CreationDate,2024-09-04T21:17:35-04:00*%
%TF.ProjectId,thundervolt_lite,7468756e-6465-4727-966f-6c745f6c6974,rev?*%
%TF.SameCoordinates,PX85b368ePY7384544*%
%TF.FileFunction,Profile,NP*%
%FSLAX46Y46*%
G04 Gerber Fmt 4.6, Leading zero omitted, Abs format (unit mm)*
G04 Created by KiCad (PCBNEW 8.99.0-2194-gb3b7cbcab2) date 2024-09-04 21:17:35*
%MOMM*%
%LPD*%
G01*
G04 APERTURE LIST*
%TA.AperFunction,Profile*%
%ADD10C,0.100000*%
%TD*%
G04 APERTURE END LIST*
D10*
X-15545293Y11692531D02*
X-3882491Y99545D01*
X-11898170Y23241639D02*
X-14815668Y23241639D01*
X15497245Y15404511D02*
X15497245Y0D01*
X0Y0D02*
X0Y15400000D01*
X7471314Y-2353131D02*
X7471314Y-6048016D01*
X-15838186Y13572648D02*
G75*
G02*
X-14838186Y14572876I999816J412D01*
G01*
X6425852Y-6547816D02*
G75*
G02*
X4785550Y-6058961I1078J2999976D01*
G01*
X-15103132Y28529061D02*
X-14728355Y29153690D01*
X7471314Y-2353131D02*
X15846517Y-2353131D01*
X-20677951Y41791015D02*
X-14016922Y41791015D01*
X19450762Y19043125D02*
X19450762Y45282088D01*
X24251147Y29079981D02*
G75*
G02*
X25251151Y28079981I-17J-1000021D01*
G01*
X-15545293Y11692531D02*
G75*
G02*
X-15838226Y12399638I707023J707129D01*
G01*
X19450762Y45282088D02*
G75*
G02*
X20450762Y46282128I1000168J-128D01*
G01*
X-15815668Y24241502D02*
X-15815668Y25956582D01*
X-21678561Y47231228D02*
G75*
G02*
X-20678561Y48231351I1000091J32D01*
G01*
X-15838186Y13572648D02*
X-15838186Y12399638D01*
X20450762Y46282088D02*
X22328036Y46282088D01*
X24952926Y46774068D02*
X24952926Y48274068D01*
X21531830Y43782088D02*
X21531830Y29079981D01*
X22328036Y46282088D02*
X24320596Y48274068D01*
X24739705Y46774068D02*
X24739705Y45782088D01*
X-9749238Y19043125D02*
X19450762Y19043125D01*
X24952926Y48274068D02*
X24320596Y48274068D01*
X16600965Y-2009491D02*
X24757369Y7365832D01*
X-20677951Y41791015D02*
G75*
G02*
X-21677915Y42790878I-19J999945D01*
G01*
X7471314Y-6048016D02*
G75*
G02*
X6973605Y-6548019I-499984J-24D01*
G01*
X6973605Y-6548010D02*
X6425852Y-6547816D01*
X-681521Y-2485529D02*
G75*
G02*
X-3882488Y99548I10898751J16769689D01*
G01*
X21531830Y43782088D02*
G75*
G02*
X22531830Y44782060I1000100J-128D01*
G01*
X-10749238Y48231365D02*
G75*
G02*
X-9749165Y47231365I68J-1000005D01*
G01*
X-14016922Y41791028D02*
X-14015820Y31726717D01*
X-9749238Y47231365D02*
X-9749238Y19043125D01*
X-11898170Y23241639D02*
X-11898170Y14572878D01*
X25251147Y28079981D02*
X25248473Y8678275D01*
X-20678561Y48231365D02*
X-10749238Y48231365D01*
X-681521Y-2485529D02*
X4785542Y-6058973D01*
X16600965Y-2009491D02*
G75*
G02*
X15846517Y-2353124I-754435J656351D01*
G01*
X0Y0D02*
X15497245Y0D01*
X21531830Y29079981D02*
X24251147Y29079981D01*
X-14815668Y23241639D02*
G75*
G02*
X-15815691Y24241502I-2J1000021D01*
G01*
X24739705Y46774068D02*
X24952926Y46774068D01*
X-11898170Y14572878D02*
X-14838186Y14572878D01*
X-14015820Y31726717D02*
G75*
G02*
X-14728357Y29153691I-4999950J-557D01*
G01*
X-15815668Y25956582D02*
G75*
G02*
X-15103147Y28529070I5000198J-22D01*
G01*
X23739705Y44782088D02*
X22531830Y44782088D01*
X24739705Y45782088D02*
G75*
G02*
X23739705Y44782085I-1000075J72D01*
G01*
X-21677953Y42790878D02*
X-21678561Y47231228D01*
X0Y15400000D02*
X15497245Y15404511D01*
X25248473Y8678275D02*
G75*
G02*
X24757373Y7365829I-2000043J285D01*
G01*
M02*
