M48
; DRILL file {KiCad 8.99.0-2194-gb3b7cbcab2} date 2024-09-04T20:13:03-0400
; FORMAT={-:-/ absolute / inch / decimal}
; #@! TF.CreationDate,2024-09-04T20:13:03-04:00
; #@! TF.GenerationSoftware,Kicad,Pcbnew,8.99.0-2194-gb3b7cbcab2
; #@! TF.FileFunction,Plated,1,4,PTH
FMAT,2
INCH
; #@! TA.AperFunction,Plated,PTH,ViaDrill
T1C0.0100
%
G90
G05
T1
X-0.8367Y1.694
X-0.8328Y1.7178
X-0.808Y1.7221
X-0.7895Y1.8459
X-0.7838Y1.7217
X-0.7587Y1.722
X-0.7329Y1.7221
X-0.7155Y1.7084
X-0.7142Y1.6847
X-0.7027Y1.6623
X-0.6802Y1.6689
X-0.6599Y1.7226
X-0.6581Y1.662
X-0.6535Y1.8541
X-0.6523Y1.8746
X-0.6477Y1.8183
X-0.6369Y1.6682
X-0.6316Y1.881
X-0.6151Y1.6635
X-0.6148Y1.7228
X-0.6082Y1.6859
X-0.6044Y0.4959
X-0.6015Y0.5207
X-0.5861Y1.056
X-0.5856Y1.0347
X-0.5803Y1.7486
X-0.5767Y0.522
X-0.5731Y1.0773
X-0.5507Y1.6732
X-0.5505Y1.0781
X-0.5505Y1.6959
X-0.5298Y1.6349
X-0.529Y1.6981
X-0.5202Y1.0783
X-0.5179Y1.6156
X-0.5178Y0.5195
X-0.5171Y1.7454
X-0.5056Y1.6346
X-0.5021Y0.5038
X-0.4981Y0.5274
X-0.4971Y1.0783
X-0.4903Y0.9364
X-0.4863Y0.5471
X-0.4863Y0.488
X-0.4863Y0.362
X-0.4855Y1.6848
X-0.4666Y0.3424
X-0.466Y1.6967
X-0.4639Y0.4145
X-0.4586Y0.4863
X-0.4495Y0.4347
X-0.4409Y0.3285
X-0.4397Y0.4606
X-0.4391Y0.4053
X-0.4312Y0.3817
X-0.4276Y1.6812
X-0.4273Y1.6581
X-0.4242Y1.7138
X-0.4233Y0.4368
X-0.4155Y1.7357
X-0.4155Y0.4093
X-0.4147Y0.29
X-0.41Y0.4688
X-0.4093Y0.354
X-0.4025Y1.7553
X-0.3916Y0.4835
X-0.3865Y0.2629
X-0.38Y0.4211
X-0.3722Y0.4982
X-0.354Y0.3928
X-0.3527Y0.4178
X-0.3447Y0.4417
X-0.3437Y0.4862
X-0.3434Y0.304
X-0.3332Y0.4025
X-0.3301Y0.425
X-0.33Y0.3812
X-0.3245Y0.3205
X-0.3069Y0.4296
X-0.3018Y0.3344
X-0.2777Y0.3384
X-0.2722Y0.153
X-0.2651Y0.3133
X-0.2621Y0.263
X-0.2597Y0.2881
X-0.254Y0.362
X-0.254Y0.3384
X-0.254Y0.1325
X-0.2483Y0.1672
X-0.2382Y0.3154
X-0.2377Y0.1911
X-0.2373Y0.2598
X-0.2354Y0.2341
X-0.2352Y0.1468
X-0.2345Y0.11
X-0.2338Y0.2864
X-0.2304Y0.366
X-0.2304Y0.3384
X-0.1973Y0.3847
X-0.1959Y0.4845
X-0.1959Y0.461
X-0.1959Y0.4216
X-0.1959Y0.3586
X-0.1517Y0.4798
X-0.1513Y0.6884
X-0.1486Y0.4137
X-0.1419Y0.4973
X-0.132Y0.4798
X-0.1318Y0.5148
X-0.122Y0.4973
X-0.1123Y0.4798
X-0.1117Y0.5151
X-0.1023Y0.4973
X-0.0916Y0.5147
X-0.086Y0.4117
X-0.0769Y0.4762
X-0.0633Y0.4138
X-0.0584Y0.565
X-0.0572Y0.4605
X-0.0572Y0.4368
X-0.0532Y0.4841
X-0.0486Y0.3962
X-0.0427Y0.3524
X-0.0363Y0.0689
X-0.0336Y0.4644
X-0.0336Y0.4408
X-0.022Y0.5164
X0.1397Y-0.0159
X0.1948Y-0.0159
X0.244Y-0.1639
X0.2499Y-0.0159
X0.2499Y-0.0356
X0.2538Y0.7002
X0.2578Y0.653
X0.2677Y-0.0463
X0.268Y-0.0262
X0.3064Y0.7237
X0.3523Y0.6254
X0.4192Y0.712
X0.4236Y0.6542
X0.4271Y-0.0754
X0.4625Y0.6294
X0.5412Y-0.0754
X0.5955Y0.6552
X0.6279Y0.5546
X0.6279Y0.338
X0.6279Y0.2553
X0.6318Y0.0471
X0.6318Y-0.0714
X0.6343Y0.7321
X0.6475Y0.153
X0.6523Y0.3699
X0.6597Y0.2934
X0.6672Y0.6451
X0.6672Y0.5506
X0.6712Y0.4679
X0.683Y0.2091
X0.6908Y0.5983
X0.7045Y0.3802
X0.7066Y0.6451
X0.7282Y0.7316
X0.7305Y0.3643
X0.746Y0.6412
X0.7538Y0.2715
X0.7603Y0.4192
X0.7728Y0.6135
X0.7728Y0.4735
X0.7856Y0.4394
X0.7856Y0.4157
X0.7893Y0.1494
X0.7896Y0.7031
X0.7896Y0.6795
X0.7928Y0.6135
X0.7928Y0.4735
X0.7944Y0.3565
X0.7971Y0.1805
X0.7976Y1.8038
X0.809Y1.6017
X0.8092Y1.6269
X0.8093Y0.4394
X0.8093Y0.4157
X0.8132Y0.7149
X0.8132Y0.6913
X0.8132Y0.6677
X0.8132Y0.6441
X0.8132Y0.1989
X0.8212Y1.8038
X0.8233Y0.5627
X0.8233Y0.5427
X0.8233Y0.5227
X0.8329Y0.4236
X0.8329Y0.4
X0.8329Y0.2147
X0.8365Y0.2711
X0.8433Y0.5427
X0.8483Y0.5877
X0.8483Y0.5677
X0.8483Y0.5177
X0.8483Y0.4977
X0.8527Y1.0715
X0.8565Y0.4236
X0.8565Y0.4
X0.8595Y0.187
X0.8606Y1.0439
X0.8606Y1.0164
X0.8641Y0.9404
X0.8641Y0.9168
X0.8641Y0.8931
X0.8685Y1.0912
X0.8812Y0.3353
X0.8842Y1.0715
X0.8861Y0.5948
X0.888Y0.4866
X0.888Y0.4236
X0.9Y1.0912
X0.9048Y1.8253
X0.9077Y0.4866
X0.9077Y0.4236
X0.9092Y0.6025
X0.9153Y0.3384
X0.9157Y1.0715
X0.9171Y0.5419
X0.9195Y1.8396
X0.9274Y0.4236
X0.929Y0.5235
X0.9315Y1.0912
X0.9321Y1.8178
X0.9329Y0.7054
X0.9329Y0.6818
X0.9329Y0.6582
X0.9329Y0.6346
X0.9329Y0.6109
X0.9338Y1.8551
X0.9368Y0.5419
X0.9378Y0.5619
X0.9436Y1.8362
X0.9454Y1.7834
X0.9472Y1.0715
X0.9488Y0.5258
X0.9503Y0.505
X0.9585Y1.7999
X0.9587Y1.821
X0.9603Y0.5912
X0.9608Y0.5677
X0.963Y1.0912
X0.9667Y0.6603
X0.9667Y0.6167
X0.9782Y0.9404
X0.9782Y0.9168
X0.9782Y0.8931
X0.9787Y1.0715
M30
