%TF.GenerationSoftware,KiCad,Pcbnew,8.99.0-2194-gb3b7cbcab2*%
%TF.CreationDate,2024-09-04T21:17:35-04:00*%
%TF.ProjectId,thundervolt_lite,7468756e-6465-4727-966f-6c745f6c6974,rev?*%
%TF.SameCoordinates,PX85b368ePY7384544*%
%TF.FileFunction,Copper,L3,Inr*%
%TF.FilePolarity,Positive*%
%FSLAX46Y46*%
G04 Gerber Fmt 4.6, Leading zero omitted, Abs format (unit mm)*
G04 Created by KiCad (PCBNEW 8.99.0-2194-gb3b7cbcab2) date 2024-09-04 21:17:35*
%MOMM*%
%LPD*%
G01*
G04 APERTURE LIST*
%TA.AperFunction,ViaPad*%
%ADD10C,0.508000*%
%TD*%
%TA.AperFunction,Conductor*%
%ADD11C,0.508000*%
%TD*%
G04 APERTURE END LIST*
D10*
%TO.N,GND*%
X22382959Y8515768D03*
X-10752490Y11095707D03*
X20655510Y17559707D03*
X-11647205Y12353114D03*
X-12352490Y12395707D03*
X-21151976Y43631203D03*
X-13152490Y13195707D03*
X21832312Y4749794D03*
X16447510Y3885707D03*
X20655510Y18159707D03*
X6347510Y-904293D03*
X16047510Y1195707D03*
X15947510Y14085707D03*
X-15623653Y42252940D03*
X20555510Y10559707D03*
X-10552490Y10395707D03*
X-558043Y13117480D03*
X23821078Y14272199D03*
X17894886Y9656411D03*
X-1352490Y12295707D03*
X21659510Y27215707D03*
X-1234061Y10062371D03*
X19147510Y6895707D03*
X21859510Y25815707D03*
X-8381790Y9682595D03*
X-15448029Y42821808D03*
X-12752490Y12795707D03*
X18496981Y18582194D03*
X15947510Y6485707D03*
X-11417599Y11041712D03*
X7781569Y18383105D03*
X-12352490Y9195707D03*
X-8959291Y10612641D03*
X-14887631Y26822522D03*
X24059510Y27215707D03*
X21155510Y10159707D03*
X21859510Y26515707D03*
X21420510Y13784707D03*
X6808165Y-664608D03*
X10647510Y18085707D03*
X-13455943Y41526339D03*
X21755510Y10759707D03*
X23595586Y13297691D03*
X-15615408Y43760221D03*
X6347510Y-404293D03*
X-19269750Y43738105D03*
X-18139651Y42791265D03*
X-1452490Y11095707D03*
X-8992867Y9978061D03*
X16047510Y-1814293D03*
X-13153469Y41035029D03*
X24554120Y16771575D03*
X-8385073Y10794598D03*
X10847510Y-1914293D03*
X20055510Y17859707D03*
X-17849490Y42222397D03*
X20655510Y16359707D03*
X-9945845Y12281977D03*
X20259510Y45815707D03*
X11747510Y15985707D03*
X-12841535Y41519512D03*
X-11168457Y11698201D03*
X21755510Y10159707D03*
X-14874890Y26281017D03*
X-1483155Y14350540D03*
X-11152490Y10295707D03*
X20912510Y13276707D03*
X20859510Y45815707D03*
X16947510Y13985707D03*
X-13988429Y42499150D03*
X-15278935Y13224715D03*
X-14556357Y27364027D03*
X-16042527Y47776818D03*
X-2183589Y10458375D03*
X20555510Y11159707D03*
X19955510Y11159707D03*
X-21251242Y43027975D03*
X-1607368Y10509595D03*
X6800249Y-1175896D03*
X-14648441Y13258150D03*
X-16715573Y42214761D03*
X20655510Y16959707D03*
X-13981602Y43076011D03*
X-13212150Y27389510D03*
X24459510Y27715707D03*
X-13435463Y43130625D03*
X-16597737Y47095198D03*
X-16567994Y47615707D03*
X-17276805Y42390385D03*
X21155510Y10759707D03*
X3547510Y-404293D03*
X-11852490Y8695707D03*
X-19907340Y43730469D03*
X24554120Y15663023D03*
X-1952490Y12095707D03*
X-10414163Y11908507D03*
X-8463744Y10224235D03*
X23295586Y13764391D03*
X-18616889Y43741923D03*
X-13982999Y27383139D03*
X4947510Y-404293D03*
X20912510Y14292707D03*
X24138390Y12826867D03*
X-16177249Y42371295D03*
X-13135086Y44332132D03*
X-921997Y1748827D03*
X-8756615Y11219713D03*
X-852490Y11795707D03*
X8947510Y15885707D03*
X13747510Y-1914293D03*
X-20522022Y43741923D03*
X17047510Y11885707D03*
X-10397055Y8992642D03*
X-9453814Y12655446D03*
X19955510Y10559707D03*
X-16762034Y43753869D03*
X-11782621Y10528677D03*
X21247510Y6885707D03*
X6447510Y17785707D03*
X-7795043Y10912604D03*
X23795586Y13764391D03*
X22859510Y27715707D03*
X-9652490Y10695707D03*
X24859510Y27215707D03*
X-18174012Y43394493D03*
X-12652490Y13395707D03*
X22059510Y27715707D03*
X-11198036Y8343486D03*
X-1452490Y11695707D03*
X20055510Y17259707D03*
X23259510Y27215707D03*
X-12626051Y27389510D03*
X23659510Y27715707D03*
X-10952490Y9695707D03*
X24099292Y13354850D03*
X-12352490Y13895707D03*
X22459510Y27215707D03*
X15947510Y8585707D03*
X20912510Y13784707D03*
X-852490Y11195707D03*
X-3842453Y17486056D03*
X-15352490Y12595707D03*
X18947510Y16285707D03*
X20047510Y3795707D03*
%TO.N,+3V3*%
X21947510Y23285707D03*
X24847510Y22685707D03*
X24012044Y45299043D03*
X24847510Y23885707D03*
X23719736Y47120672D03*
X23967637Y46640744D03*
X24350952Y46252221D03*
X23696350Y16118007D03*
X23696350Y15518007D03*
X23675114Y46172003D03*
X21947510Y22685707D03*
X22982612Y46362366D03*
X22508002Y15108968D03*
X23696350Y16718007D03*
X23696350Y17318007D03*
X24847510Y23285707D03*
X23093356Y15304086D03*
X21947510Y23885707D03*
X23355410Y46726692D03*
X24346716Y45718441D03*
X23696350Y17918007D03*
%TO.N,+1V8*%
X-20052490Y46885707D03*
X16111722Y18594815D03*
X-14740490Y44415707D03*
X-16452490Y46185707D03*
%TO.N,+1V0*%
X-8729990Y12350469D03*
X-12452490Y23785707D03*
%TO.N,+1V15*%
X-1084343Y8952015D03*
X6197510Y-4164293D03*
%TO.N,SDA*%
X20553362Y41323876D03*
X20655658Y5053245D03*
X-5012197Y9771433D03*
X-4974828Y11708802D03*
X16947510Y16385707D03*
X-10552490Y44085707D03*
X24392037Y15016657D03*
%TO.N,SCL*%
X24404994Y14419895D03*
X-10224319Y44584302D03*
X-4974828Y12305705D03*
X20548203Y40682902D03*
X-4974828Y9108802D03*
X17947510Y16385707D03*
X21155658Y5453245D03*
%TO.N,EN*%
X-10774174Y43531497D03*
X20176763Y9056331D03*
X-4974828Y10708802D03*
%TO.N,VBAT*%
X22555510Y10759707D03*
X23555510Y10759707D03*
X-7665711Y8494501D03*
X-6452254Y3364329D03*
X22555510Y12359707D03*
X-5973853Y3728130D03*
X-5938849Y7275196D03*
X-5956351Y2794691D03*
X-6026359Y6598453D03*
X-12331076Y42793442D03*
X-2837313Y13083599D03*
X-6049695Y8010279D03*
X-10533059Y7367146D03*
X-5852490Y8595707D03*
X-5979687Y5945046D03*
X-11836425Y43095263D03*
X-6038027Y4854090D03*
X17547510Y15195707D03*
X-6452490Y8595707D03*
X-5852490Y9295707D03*
X-3852490Y12185707D03*
X-8722144Y7721876D03*
X-6732272Y7957773D03*
X-2852490Y12185707D03*
X-6656430Y6680129D03*
X-6306391Y4247355D03*
X23055510Y10759707D03*
X-8242906Y8139498D03*
X-3352490Y12185707D03*
X-3774828Y10508802D03*
X-6595884Y7316918D03*
X-7052490Y8595707D03*
X-3604193Y12632394D03*
X-6913126Y3885648D03*
X-3098987Y12632394D03*
X23055510Y12359707D03*
X-9818006Y6678382D03*
X-2326219Y13073168D03*
X-10852490Y42115707D03*
X-3348408Y13076645D03*
X-6452490Y9195707D03*
X-2598987Y12632394D03*
X-10859828Y42701881D03*
%TO.N,Net-(U4-LX2)*%
X21547510Y14927707D03*
X20136510Y15582707D03*
X19628510Y15582707D03*
X21547510Y14419707D03*
%TO.N,Net-(U4-LX1)*%
X19628510Y12026707D03*
X21547510Y12641707D03*
X20136510Y12026707D03*
X21547510Y13149707D03*
%TO.N,Net-(D1-A)*%
X17347510Y5310746D03*
X20247510Y4585707D03*
%TO.N,+1V8_ALW*%
X19312660Y10647378D03*
X23247510Y8595707D03*
X16567510Y9395707D03*
X10759510Y16615707D03*
%TO.N,ALERT*%
X16755658Y7453245D03*
X6547510Y16585707D03*
%TO.N,SAFEMODE*%
X15126184Y16641502D03*
X18555658Y9253245D03*
%TD*%
D11*
%TO.N,+3V3*%
X23967637Y46640744D02*
X24012044Y45299043D01*
X22508002Y15108968D02*
X23093356Y15304086D01*
X23719736Y47120672D02*
X23967637Y46640744D01*
X22982612Y46362366D02*
X23675114Y46172003D01*
X24350952Y46252221D02*
X24346716Y45718441D01*
X24346716Y45718441D02*
X24012044Y45299043D01*
X23675114Y46172003D02*
X24012044Y45299043D01*
X23093356Y15304086D02*
X23696350Y15518007D01*
X23967637Y46640744D02*
X24350952Y46252221D01*
X22982612Y46362366D02*
X23719736Y47120672D01*
X24847510Y23885707D02*
X24847510Y22685707D01*
X23355410Y46726692D02*
X23675114Y46172003D01*
X23696350Y17918007D02*
X23696350Y15518007D01*
X21947510Y23885707D02*
X21947510Y22685707D01*
%TO.N,VBAT*%
X-3348408Y13076645D02*
X-3852490Y12185707D01*
X-6452254Y3364329D02*
X-5956351Y2794691D01*
X-6913126Y3885648D02*
X-6452254Y3364329D01*
X-3852490Y12185707D02*
X-2852490Y12185707D01*
X-2326219Y13073168D02*
X-3348408Y13076645D01*
X-5852490Y8595707D02*
X-6049695Y8010279D01*
X-5938849Y7275196D02*
X-5970246Y7032394D01*
X-10533059Y7367146D02*
X-9818006Y6678382D01*
X-6306391Y4247355D02*
X-6913126Y3885648D01*
X-6656430Y6680129D02*
X-6595884Y7316918D01*
X-5956351Y2794691D02*
X-5973853Y3728130D01*
X22555510Y12359707D02*
X23055510Y12359707D01*
X-7052490Y8595707D02*
X-6732272Y7957773D01*
X-6452490Y9195707D02*
X-6049695Y8010279D01*
X-12331076Y42793442D02*
X-11836425Y43095263D01*
X-6656430Y6680129D02*
X-5979687Y5945046D01*
X-6595884Y7316918D02*
X-6026359Y6598453D01*
X-6452490Y9195707D02*
X-5852490Y9295707D01*
X-5852490Y9295707D02*
X-6732272Y7957773D01*
X-6038027Y4854090D02*
X-6306391Y4247355D01*
X-6049695Y8010279D02*
X-6732272Y7957773D01*
X22555510Y10759707D02*
X23555510Y10759707D01*
X-6306391Y4247355D02*
X-5973853Y3728130D01*
X-7052490Y8595707D02*
X-6452490Y9195707D01*
X-7052490Y8595707D02*
X-6452490Y8595707D01*
X-6049695Y8010279D02*
X-5938849Y7275196D01*
X-10859828Y42701881D02*
X-10852490Y42115707D01*
X-5970246Y7032394D02*
X-6026359Y6598453D01*
X-6732272Y7957773D02*
X-5970246Y7032394D01*
X-6038027Y4854090D02*
X-5973853Y3728130D01*
X-6732272Y7957773D02*
X-6595884Y7316918D01*
X-5852490Y9295707D02*
X-5852490Y8595707D01*
X-6026359Y6598453D02*
X-5979687Y5945046D01*
X-8722144Y7721876D02*
X-8242906Y8139498D01*
X-7665711Y8494501D02*
X-8242906Y8139498D01*
X-7665711Y8494501D02*
X-6732272Y7957773D01*
X-6306391Y4247355D02*
X-6452254Y3364329D01*
X-7665711Y8494501D02*
X-7052490Y8595707D01*
X-2852490Y12185707D02*
X-2326219Y13073168D01*
X-3352490Y12185707D02*
X-2837313Y13083599D01*
%TO.N,Net-(U4-LX2)*%
X19628510Y15582707D02*
X20136510Y15582707D01*
X21547510Y14927707D02*
X21547510Y14419707D01*
%TO.N,Net-(U4-LX1)*%
X20136510Y12026707D02*
X19628510Y12026707D01*
X21547510Y13149707D02*
X21547510Y12641707D01*
%TD*%
%TA.AperFunction,Conductor*%
%TO.N,GND*%
G36*
X-10782584Y48130864D02*
G01*
X-10776162Y48130865D01*
X-10776160Y48130863D01*
X-10751363Y48130865D01*
X-10747109Y48130657D01*
X-10577995Y48114011D01*
X-10569649Y48112352D01*
X-10409077Y48063653D01*
X-10401210Y48060393D01*
X-10253241Y47981311D01*
X-10246158Y47976579D01*
X-10116457Y47870145D01*
X-10110434Y47864123D01*
X-10003989Y47734429D01*
X-9999256Y47727346D01*
X-9920162Y47579379D01*
X-9916902Y47571510D01*
X-9868194Y47410952D01*
X-9866532Y47402597D01*
X-9849947Y47234228D01*
X-9849738Y47229969D01*
X-9849738Y44784465D01*
X-9862464Y44753741D01*
X-9893188Y44741015D01*
X-9923912Y44753741D01*
X-9930817Y44762740D01*
X-9957202Y44808440D01*
X-10049970Y44886282D01*
X-10049972Y44886283D01*
X-10163766Y44927702D01*
X-10163768Y44927702D01*
X-10284870Y44927702D01*
X-10284872Y44927702D01*
X-10398666Y44886283D01*
X-10491436Y44808440D01*
X-10551988Y44703562D01*
X-10573016Y44584302D01*
X-10554643Y44480102D01*
X-10561841Y44447635D01*
X-10589888Y44429767D01*
X-10597433Y44429107D01*
X-10613043Y44429107D01*
X-10726837Y44387688D01*
X-10819607Y44309845D01*
X-10880159Y44204967D01*
X-10901187Y44085707D01*
X-10880159Y43966448D01*
X-10854482Y43921974D01*
X-10850142Y43889003D01*
X-10870386Y43862620D01*
X-10877249Y43859420D01*
X-10948522Y43833478D01*
X-11041291Y43755635D01*
X-11101843Y43650757D01*
X-11122871Y43531497D01*
X-11101843Y43412238D01*
X-11101843Y43412237D01*
X-11101842Y43412236D01*
X-11041291Y43307359D01*
X-10948523Y43229517D01*
X-10907328Y43214523D01*
X-10834728Y43188098D01*
X-10834727Y43188097D01*
X-10834725Y43188097D01*
X-10713621Y43188097D01*
X-10713621Y43188098D01*
X-10599825Y43229517D01*
X-10507057Y43307359D01*
X-10446506Y43412236D01*
X-10425477Y43531497D01*
X-10446506Y43650758D01*
X-10472184Y43695232D01*
X-10476523Y43728202D01*
X-10456279Y43754585D01*
X-10449427Y43757781D01*
X-10378141Y43783727D01*
X-10285373Y43861569D01*
X-10224822Y43966446D01*
X-10203793Y44085707D01*
X-10222166Y44189907D01*
X-10214968Y44222374D01*
X-10186921Y44240242D01*
X-10179376Y44240902D01*
X-10163766Y44240902D01*
X-10163766Y44240903D01*
X-10049970Y44282322D01*
X-9957202Y44360164D01*
X-9930816Y44405866D01*
X-9904434Y44426109D01*
X-9871463Y44421769D01*
X-9851219Y44395386D01*
X-9849738Y44384140D01*
X-9849738Y19023134D01*
X-9834438Y18986196D01*
X-9806167Y18957925D01*
X-9769229Y18942625D01*
X-9769228Y18942625D01*
X15872614Y18942625D01*
X15903338Y18929899D01*
X15916064Y18899175D01*
X15903338Y18868451D01*
X15900543Y18865890D01*
X15844605Y18818953D01*
X15784053Y18714075D01*
X15763025Y18594815D01*
X15784053Y18475556D01*
X15784053Y18475555D01*
X15784054Y18475554D01*
X15844605Y18370677D01*
X15937373Y18292835D01*
X16023719Y18261407D01*
X16051168Y18251416D01*
X16051169Y18251415D01*
X16051171Y18251415D01*
X16172275Y18251415D01*
X16172275Y18251416D01*
X16286071Y18292835D01*
X16378839Y18370677D01*
X16439390Y18475554D01*
X16460419Y18594815D01*
X16439390Y18714076D01*
X16378839Y18818953D01*
X16322900Y18865892D01*
X16307545Y18895388D01*
X16317545Y18927104D01*
X16347043Y18942460D01*
X16350830Y18942625D01*
X19470752Y18942625D01*
X19470753Y18942625D01*
X19507691Y18957925D01*
X19535962Y18986196D01*
X19551262Y19023134D01*
X19551262Y23885707D01*
X21598813Y23885707D01*
X21603450Y23859410D01*
X21604110Y23851865D01*
X21604110Y23315748D01*
X21598813Y23285707D01*
X21604110Y23255667D01*
X21604110Y22719550D01*
X21603450Y22712005D01*
X21598813Y22685707D01*
X21603450Y22659410D01*
X21603450Y22659408D01*
X21604110Y22655665D01*
X21604110Y22640498D01*
X21611926Y22611323D01*
X21612256Y22609454D01*
X21612259Y22609442D01*
X21619841Y22566447D01*
X21626412Y22555066D01*
X21626415Y22555060D01*
X21670084Y22479423D01*
X21670085Y22479422D01*
X21672722Y22474855D01*
X21680393Y22461569D01*
X21715291Y22432286D01*
X21716928Y22430649D01*
X21716953Y22430623D01*
X21736442Y22411135D01*
X21736658Y22410919D01*
X21740734Y22408566D01*
X21746500Y22405236D01*
X21752702Y22400893D01*
X21770758Y22385743D01*
X21773161Y22383727D01*
X21801826Y22373294D01*
X21814963Y22365709D01*
X21844151Y22357889D01*
X21845937Y22357239D01*
X21886958Y22342307D01*
X21886959Y22342307D01*
X22008062Y22342307D01*
X22020436Y22346812D01*
X22050868Y22357889D01*
X22080057Y22365709D01*
X22093193Y22373294D01*
X22121859Y22383727D01*
X22145227Y22403336D01*
X22158362Y22410919D01*
X22179728Y22432286D01*
X22214627Y22461569D01*
X22222298Y22474855D01*
X22267508Y22553160D01*
X22267508Y22553163D01*
X22275178Y22566446D01*
X22283088Y22611306D01*
X22290910Y22640498D01*
X22290910Y22651865D01*
X22291570Y22659410D01*
X22296207Y22685707D01*
X22291570Y22712005D01*
X22290910Y22719550D01*
X22290910Y23255667D01*
X22296207Y23285707D01*
X22290910Y23315748D01*
X22290910Y23851865D01*
X22291570Y23859410D01*
X22296207Y23885707D01*
X22290910Y23915748D01*
X22290910Y23930916D01*
X22283088Y23960109D01*
X22275178Y24004968D01*
X22270369Y24013297D01*
X22270368Y24013300D01*
X22242277Y24061954D01*
X22222298Y24096559D01*
X22222297Y24096560D01*
X22214627Y24109845D01*
X22179728Y24139129D01*
X22178252Y24140605D01*
X22178206Y24140652D01*
X22158363Y24160494D01*
X22158362Y24160495D01*
X22148517Y24166180D01*
X22142318Y24170521D01*
X22121860Y24187687D01*
X22121858Y24187688D01*
X22096768Y24196820D01*
X22093191Y24198122D01*
X22080057Y24205705D01*
X22050875Y24213524D01*
X22049076Y24214179D01*
X22008064Y24229107D01*
X22008061Y24229107D01*
X21886959Y24229107D01*
X21845931Y24214176D01*
X21845932Y24214175D01*
X21844152Y24213527D01*
X21814963Y24205705D01*
X21801830Y24198125D01*
X21798258Y24196824D01*
X21798258Y24196823D01*
X21773165Y24187688D01*
X21773162Y24187687D01*
X21749794Y24168080D01*
X21736658Y24160495D01*
X21715294Y24139133D01*
X21713834Y24137907D01*
X21680394Y24109846D01*
X21680393Y24109846D01*
X21669862Y24091606D01*
X21669859Y24091603D01*
X21637416Y24035409D01*
X21627512Y24018254D01*
X21627511Y24018252D01*
X21619842Y24004968D01*
X21611931Y23960109D01*
X21611340Y23957904D01*
X21611320Y23957834D01*
X21604110Y23930922D01*
X21604110Y23919550D01*
X21603450Y23912005D01*
X21598813Y23885707D01*
X19551262Y23885707D01*
X19551262Y40682902D01*
X20199506Y40682902D01*
X20220534Y40563643D01*
X20220534Y40563642D01*
X20220535Y40563641D01*
X20281086Y40458764D01*
X20373854Y40380922D01*
X20464702Y40347856D01*
X20487649Y40339503D01*
X20487650Y40339502D01*
X20487652Y40339502D01*
X20608756Y40339502D01*
X20608756Y40339503D01*
X20722552Y40380922D01*
X20815320Y40458764D01*
X20875871Y40563641D01*
X20896900Y40682902D01*
X20875871Y40802163D01*
X20815320Y40907040D01*
X20742741Y40967941D01*
X20727386Y40997438D01*
X20737386Y41029154D01*
X20742733Y41034502D01*
X20820479Y41099738D01*
X20881030Y41204615D01*
X20902059Y41323876D01*
X20881030Y41443137D01*
X20820479Y41548014D01*
X20727711Y41625856D01*
X20727709Y41625857D01*
X20613915Y41667276D01*
X20613913Y41667276D01*
X20492811Y41667276D01*
X20492809Y41667276D01*
X20379015Y41625857D01*
X20286245Y41548014D01*
X20225693Y41443136D01*
X20204665Y41323876D01*
X20225693Y41204617D01*
X20225693Y41204616D01*
X20225694Y41204615D01*
X20286245Y41099738D01*
X20358822Y41038838D01*
X20374178Y41009341D01*
X20364178Y40977625D01*
X20358822Y40972270D01*
X20281087Y40907042D01*
X20220534Y40802162D01*
X20199506Y40682902D01*
X19551262Y40682902D01*
X19551262Y45279941D01*
X19551472Y45284205D01*
X19560758Y45378379D01*
X19568145Y45453301D01*
X19569807Y45461651D01*
X19618524Y45622208D01*
X19621774Y45630054D01*
X19700880Y45778039D01*
X19705604Y45785107D01*
X19812042Y45914803D01*
X19818058Y45920820D01*
X19947757Y46027269D01*
X19954825Y46031992D01*
X20102793Y46111097D01*
X20110650Y46114353D01*
X20271213Y46163079D01*
X20279552Y46164738D01*
X20448244Y46181379D01*
X20452509Y46181588D01*
X22328022Y46181588D01*
X22348012Y46181585D01*
X22348019Y46181588D01*
X22348027Y46181588D01*
X22368376Y46190017D01*
X22383596Y46196319D01*
X22384805Y46196770D01*
X22384950Y46196880D01*
X22384952Y46196880D01*
X22384953Y46196882D01*
X22384959Y46196887D01*
X22384965Y46196888D01*
X22384974Y46196898D01*
X22385503Y46197295D01*
X22386625Y46198549D01*
X22403068Y46214991D01*
X22562395Y46374273D01*
X22574508Y46379289D01*
X22585570Y46386334D01*
X22589448Y46385475D01*
X22593119Y46386994D01*
X22605232Y46381975D01*
X22618037Y46379135D01*
X22620171Y46375784D01*
X22623841Y46374263D01*
X22635903Y46351087D01*
X22638332Y46337307D01*
X22638991Y46329489D01*
X22638927Y46319382D01*
X22638927Y46319378D01*
X22638927Y46319375D01*
X22639281Y46316552D01*
X22639111Y46316531D01*
X22639307Y46315089D01*
X22639476Y46315113D01*
X22639888Y46312292D01*
X22646853Y46287693D01*
X22647837Y46283402D01*
X22654943Y46243107D01*
X22661192Y46232283D01*
X22661199Y46232270D01*
X22663851Y46227673D01*
X22664524Y46225299D01*
X22685807Y46189611D01*
X22685979Y46189314D01*
X22685979Y46189309D01*
X22686110Y46189085D01*
X22706652Y46152970D01*
X22709204Y46149123D01*
X22715494Y46138229D01*
X22747977Y46110972D01*
X22750085Y46109083D01*
X22750525Y46108662D01*
X22769987Y46088946D01*
X22772941Y46087215D01*
X22775597Y46084674D01*
X22775667Y46084622D01*
X22783180Y46080425D01*
X22789920Y46075777D01*
X22808264Y46060385D01*
X22825961Y46053945D01*
X22832178Y46051682D01*
X22837263Y46049453D01*
X22838279Y46048928D01*
X22847999Y46043232D01*
X22850781Y46042468D01*
X22854318Y46040640D01*
X22854606Y46040526D01*
X22854610Y46040523D01*
X22879415Y46034253D01*
X22883595Y46032967D01*
X22922061Y46018966D01*
X22930410Y46018966D01*
X22941927Y46017412D01*
X23395977Y45892598D01*
X23422227Y45872184D01*
X23424994Y45866350D01*
X23650389Y45282370D01*
X23674405Y45220148D01*
X23674674Y45219433D01*
X23675763Y45216456D01*
X23675840Y45215774D01*
X23678429Y45209170D01*
X23678586Y45208741D01*
X23678574Y45208458D01*
X23680570Y45201359D01*
X23684375Y45179784D01*
X23692434Y45165826D01*
X23693435Y45163991D01*
X23695236Y45160493D01*
X23696606Y45155983D01*
X23702119Y45147125D01*
X23702929Y45145552D01*
X23702971Y45145046D01*
X23704835Y45141307D01*
X23707974Y45133174D01*
X23708366Y45132464D01*
X23708846Y45131596D01*
X23722827Y45112639D01*
X23725486Y45108576D01*
X23744927Y45074905D01*
X23755198Y45066286D01*
X23759935Y45061652D01*
X23761223Y45060183D01*
X23761237Y45060164D01*
X23761246Y45060157D01*
X23761345Y45060044D01*
X23761853Y45059517D01*
X23762029Y45059333D01*
X23762490Y45058849D01*
X23762516Y45058829D01*
X23762517Y45058827D01*
X23774880Y45048962D01*
X23785933Y45040142D01*
X23788522Y45037904D01*
X23810397Y45017430D01*
X23810399Y45017429D01*
X23810400Y45017428D01*
X23814725Y45015119D01*
X23822184Y45010079D01*
X23837695Y44997063D01*
X23857543Y44989839D01*
X23868838Y44985728D01*
X23874447Y44983224D01*
X23886127Y44976986D01*
X23907233Y44951287D01*
X23903984Y44918191D01*
X23878285Y44897085D01*
X23869920Y44895420D01*
X23741858Y44882798D01*
X23737596Y44882588D01*
X22565187Y44882588D01*
X22565172Y44882590D01*
X22558749Y44882590D01*
X22554389Y44882590D01*
X22531868Y44882589D01*
X22531820Y44882588D01*
X22511839Y44882588D01*
X22511778Y44882564D01*
X22507617Y44882559D01*
X22507608Y44882563D01*
X22507570Y44882559D01*
X22435542Y44882552D01*
X22245925Y44849103D01*
X22245920Y44849102D01*
X22134222Y44808440D01*
X22064983Y44783235D01*
X22064981Y44783235D01*
X22064981Y44783234D01*
X22064978Y44783233D01*
X21898233Y44686958D01*
X21750725Y44563183D01*
X21750722Y44563181D01*
X21626952Y44415686D01*
X21530667Y44248933D01*
X21464795Y44067995D01*
X21464794Y44067992D01*
X21431340Y43878379D01*
X21431332Y43805592D01*
X21431332Y43802085D01*
X21431330Y43802079D01*
X21431330Y43786476D01*
X21431330Y43782101D01*
X21431326Y43749284D01*
X21431330Y43749255D01*
X21431330Y29099972D01*
X21431330Y29059990D01*
X21446630Y29023052D01*
X21474901Y28994781D01*
X21511839Y28979481D01*
X24249008Y28979481D01*
X24253266Y28979273D01*
X24422374Y28962615D01*
X24430721Y28960954D01*
X24591278Y28912247D01*
X24599141Y28908990D01*
X24747104Y28829901D01*
X24754186Y28825169D01*
X24883877Y28718734D01*
X24889900Y28712712D01*
X24996334Y28583023D01*
X25001066Y28575941D01*
X25080157Y28427976D01*
X25083417Y28420106D01*
X25132121Y28259559D01*
X25133783Y28251206D01*
X25150437Y28082143D01*
X25150646Y28077877D01*
X25150108Y24173641D01*
X25144463Y24160019D01*
X25140120Y24145931D01*
X25138206Y24144920D01*
X25137378Y24142919D01*
X25123755Y24137279D01*
X25110721Y24130387D01*
X25108790Y24131083D01*
X25106652Y24130197D01*
X25078942Y24140185D01*
X25077369Y24141488D01*
X25058362Y24160495D01*
X25045351Y24168008D01*
X25042530Y24170344D01*
X25042506Y24170390D01*
X25042318Y24170521D01*
X25021860Y24187687D01*
X25021858Y24187688D01*
X24996768Y24196820D01*
X24993191Y24198122D01*
X24980057Y24205705D01*
X24950875Y24213524D01*
X24949076Y24214179D01*
X24908064Y24229107D01*
X24908061Y24229107D01*
X24786959Y24229107D01*
X24745931Y24214176D01*
X24745932Y24214175D01*
X24744152Y24213527D01*
X24714963Y24205705D01*
X24701830Y24198125D01*
X24698258Y24196824D01*
X24698258Y24196823D01*
X24673165Y24187688D01*
X24673162Y24187687D01*
X24649794Y24168080D01*
X24636658Y24160495D01*
X24615294Y24139133D01*
X24613834Y24137907D01*
X24580394Y24109846D01*
X24580393Y24109846D01*
X24569862Y24091606D01*
X24569859Y24091603D01*
X24537416Y24035409D01*
X24527512Y24018254D01*
X24527511Y24018252D01*
X24519842Y24004968D01*
X24511931Y23960109D01*
X24511340Y23957904D01*
X24511320Y23957834D01*
X24504110Y23930922D01*
X24504110Y23919550D01*
X24503450Y23912005D01*
X24498813Y23885707D01*
X24503450Y23859410D01*
X24504110Y23851865D01*
X24504110Y23315748D01*
X24498813Y23285707D01*
X24504110Y23255667D01*
X24504110Y22719550D01*
X24503450Y22712005D01*
X24498813Y22685707D01*
X24503450Y22659410D01*
X24503450Y22659408D01*
X24504110Y22655665D01*
X24504110Y22640498D01*
X24511926Y22611323D01*
X24512256Y22609454D01*
X24512259Y22609442D01*
X24519841Y22566447D01*
X24526412Y22555066D01*
X24526415Y22555060D01*
X24570084Y22479423D01*
X24570085Y22479422D01*
X24572722Y22474855D01*
X24580393Y22461569D01*
X24615291Y22432286D01*
X24616928Y22430649D01*
X24616953Y22430623D01*
X24636442Y22411135D01*
X24636658Y22410919D01*
X24640734Y22408566D01*
X24646500Y22405236D01*
X24652702Y22400893D01*
X24670758Y22385743D01*
X24673161Y22383727D01*
X24701826Y22373294D01*
X24714963Y22365709D01*
X24744151Y22357889D01*
X24745937Y22357239D01*
X24786958Y22342307D01*
X24786959Y22342307D01*
X24908062Y22342307D01*
X24920436Y22346812D01*
X24950868Y22357889D01*
X24980057Y22365709D01*
X24993193Y22373294D01*
X25021859Y22383727D01*
X25042553Y22401092D01*
X25045356Y22403411D01*
X25058362Y22410919D01*
X25077142Y22429701D01*
X25078721Y22431006D01*
X25092802Y22435337D01*
X25106412Y22440974D01*
X25108424Y22440141D01*
X25110507Y22440781D01*
X25123524Y22433887D01*
X25137136Y22428249D01*
X25137970Y22426236D01*
X25139895Y22425216D01*
X25144225Y22411135D01*
X25149863Y22397525D01*
X25149863Y22397518D01*
X25147973Y8680139D01*
X25147973Y8679584D01*
X25147895Y8676987D01*
X25134593Y8454796D01*
X25133976Y8449653D01*
X25094552Y8231892D01*
X25093327Y8226858D01*
X25028264Y8015331D01*
X25026448Y8010479D01*
X24936677Y7808213D01*
X24934297Y7803611D01*
X24821084Y7613460D01*
X24818173Y7609175D01*
X24682382Y7432875D01*
X24680740Y7430869D01*
X16537662Y-1929134D01*
X16537657Y-1929141D01*
X16526363Y-1942123D01*
X16523817Y-1944810D01*
X16417481Y-2047782D01*
X16411730Y-2052469D01*
X16290975Y-2134792D01*
X16284510Y-2138433D01*
X16151505Y-2199014D01*
X16144515Y-2201501D01*
X16003151Y-2238567D01*
X15995840Y-2239829D01*
X15848288Y-2252472D01*
X15844579Y-2252631D01*
X7491305Y-2252631D01*
X7451323Y-2252631D01*
X7432854Y-2260281D01*
X7414384Y-2267931D01*
X7386114Y-2296201D01*
X7386114Y-2296202D01*
X7370814Y-2333140D01*
X7370814Y-6021090D01*
X7370813Y-6021092D01*
X7370813Y-6032658D01*
X7370813Y-6045179D01*
X7370813Y-6045180D01*
X7370444Y-6050833D01*
X7358025Y-6145472D01*
X7355106Y-6156399D01*
X7319778Y-6241973D01*
X7314138Y-6251777D01*
X7257920Y-6325335D01*
X7249941Y-6333351D01*
X7176641Y-6389908D01*
X7166863Y-6395593D01*
X7081452Y-6431315D01*
X7070538Y-6434284D01*
X6976144Y-6447111D01*
X6970278Y-6447507D01*
X6430573Y-6447317D01*
X6430177Y-6447317D01*
X6430175Y-6447316D01*
X6426940Y-6447316D01*
X6424843Y-6447265D01*
X6148823Y-6433846D01*
X6144655Y-6433441D01*
X5872259Y-6393664D01*
X5868148Y-6392860D01*
X5600837Y-6327039D01*
X5596824Y-6325843D01*
X5337087Y-6234590D01*
X5333207Y-6233012D01*
X5083481Y-6117183D01*
X5079771Y-6115240D01*
X4841183Y-5975216D01*
X4839402Y-5974112D01*
X4819869Y-5961344D01*
X4819866Y-5961342D01*
X4819866Y-5961343D01*
X2120360Y-4196862D01*
X2070532Y-4164293D01*
X5848813Y-4164293D01*
X5869841Y-4283552D01*
X5869841Y-4283553D01*
X5869842Y-4283554D01*
X5930393Y-4388431D01*
X6023161Y-4466273D01*
X6114009Y-4499339D01*
X6136956Y-4507692D01*
X6136957Y-4507693D01*
X6136959Y-4507693D01*
X6258063Y-4507693D01*
X6258063Y-4507692D01*
X6371859Y-4466273D01*
X6464627Y-4388431D01*
X6525178Y-4283554D01*
X6546207Y-4164293D01*
X6525178Y-4045032D01*
X6464627Y-3940155D01*
X6371859Y-3862313D01*
X6371857Y-3862312D01*
X6258063Y-3820893D01*
X6258061Y-3820893D01*
X6136959Y-3820893D01*
X6136957Y-3820893D01*
X6023163Y-3862312D01*
X5930393Y-3940155D01*
X5869841Y-4045033D01*
X5848813Y-4164293D01*
X2070532Y-4164293D01*
X-599218Y-2419261D01*
X-599706Y-2418842D01*
X-605605Y-2415008D01*
X-626473Y-2401445D01*
X-627029Y-2401077D01*
X-1192749Y-2019434D01*
X-1193971Y-2018578D01*
X-1745876Y-1618007D01*
X-1747055Y-1617120D01*
X-2284935Y-1197787D01*
X-2286094Y-1196851D01*
X-2809220Y-759324D01*
X-2810348Y-758347D01*
X-3318139Y-303115D01*
X-3319233Y-302100D01*
X-3811590Y170781D01*
X-3812123Y171302D01*
X-3830646Y189714D01*
X-3830739Y189806D01*
X-3830786Y189853D01*
X-3830786Y189854D01*
X-6030613Y2376512D01*
X-6043432Y2407198D01*
X-6030798Y2437959D01*
X-6000112Y2450778D01*
X-5995116Y2450505D01*
X-5995114Y2450504D01*
X-5995112Y2450505D01*
X-5995110Y2450504D01*
X-5995108Y2450504D01*
X-5991872Y2450565D01*
X-5966889Y2451034D01*
X-5963112Y2450939D01*
X-5938443Y2449232D01*
X-5934958Y2448990D01*
X-5934958Y2448991D01*
X-5934956Y2448990D01*
X-5928125Y2450323D01*
X-5927283Y2450487D01*
X-5918963Y2451291D01*
X-5895799Y2451291D01*
X-5884267Y2455490D01*
X-5867359Y2461644D01*
X-5865845Y2462163D01*
X-5863386Y2462956D01*
X-5846210Y2466306D01*
X-5833100Y2472714D01*
X-5830145Y2473665D01*
X-5829923Y2473647D01*
X-5828862Y2474056D01*
X-5817828Y2477234D01*
X-5811223Y2481216D01*
X-5803667Y2484826D01*
X-5782002Y2492711D01*
X-5771866Y2501218D01*
X-5771006Y2501919D01*
X-5767299Y2504866D01*
X-5764971Y2506002D01*
X-5755574Y2514184D01*
X-5754813Y2514788D01*
X-5754461Y2514889D01*
X-5750212Y2517983D01*
X-5740385Y2523904D01*
X-5723252Y2541693D01*
X-5719896Y2544825D01*
X-5689238Y2570549D01*
X-5689237Y2570551D01*
X-5689234Y2570553D01*
X-5682506Y2582209D01*
X-5682439Y2582323D01*
X-5679827Y2586778D01*
X-5677659Y2589027D01*
X-5663750Y2614199D01*
X-5663471Y2614673D01*
X-5663397Y2614730D01*
X-5662028Y2616968D01*
X-5646267Y2640369D01*
X-5646267Y2640372D01*
X-5646265Y2640373D01*
X-5643726Y2647766D01*
X-5640264Y2655374D01*
X-5628683Y2675430D01*
X-5623426Y2705249D01*
X-5623120Y2706812D01*
X-5622578Y2709333D01*
X-5616892Y2725883D01*
X-5615886Y2740434D01*
X-5615233Y2743467D01*
X-5615107Y2743651D01*
X-5614930Y2744779D01*
X-5612164Y2755928D01*
X-5612309Y2763633D01*
X-5611658Y2771990D01*
X-5607654Y2794691D01*
X-5609960Y2807764D01*
X-5610131Y2808824D01*
X-5610829Y2813506D01*
X-5610650Y2816086D01*
X-5613037Y2828316D01*
X-5613178Y2829266D01*
X-5613090Y2829622D01*
X-5613644Y2834847D01*
X-5629660Y3689004D01*
X-5628976Y3695921D01*
X-5628979Y3695921D01*
X-5628626Y3700081D01*
X-5628556Y3700905D01*
X-5628553Y3700943D01*
X-5628536Y3701142D01*
X-5628535Y3701218D01*
X-5628438Y3702532D01*
X-5628437Y3702535D01*
X-5628451Y3702777D01*
X-5627861Y3712792D01*
X-5625156Y3728130D01*
X-5630429Y3758034D01*
X-5630975Y3762436D01*
X-5631058Y3763577D01*
X-5631361Y3779769D01*
X-5632520Y3783791D01*
X-5632847Y3788317D01*
X-5632790Y3788492D01*
X-5632897Y3789091D01*
X-5632897Y3789095D01*
X-5632899Y3789100D01*
X-5633133Y3790414D01*
X-5633741Y3795589D01*
X-5634619Y3811000D01*
X-5692912Y4833776D01*
X-5689330Y4854090D01*
X-5696334Y4893810D01*
X-5697756Y4918766D01*
X-5699059Y4922712D01*
X-5699812Y4925257D01*
X-5700642Y4928411D01*
X-5701433Y4935768D01*
X-5705011Y4945020D01*
X-5705628Y4947367D01*
X-5705560Y4947871D01*
X-5706397Y4950877D01*
X-5709301Y4967347D01*
X-5710359Y4973351D01*
X-5720754Y4991354D01*
X-5722408Y4994512D01*
X-5723545Y4996919D01*
X-5726090Y5004631D01*
X-5730023Y5010627D01*
X-5731313Y5013357D01*
X-5731339Y5013889D01*
X-5732555Y5016255D01*
X-5734042Y5020101D01*
X-5734045Y5020107D01*
X-5748467Y5039854D01*
X-5751003Y5043747D01*
X-5770910Y5078228D01*
X-5770912Y5078230D01*
X-5770913Y5078231D01*
X-5781273Y5086924D01*
X-5781360Y5086997D01*
X-5785356Y5090368D01*
X-5787367Y5093123D01*
X-5815391Y5115704D01*
X-5815760Y5116015D01*
X-5815777Y5116048D01*
X-5816669Y5116804D01*
X-5843151Y5140429D01*
X-5843153Y5140431D01*
X-5843158Y5140434D01*
X-5843160Y5140435D01*
X-5843376Y5140544D01*
X-5851742Y5146056D01*
X-5863677Y5156070D01*
X-5899171Y5168989D01*
X-5901192Y5169782D01*
X-5902550Y5170355D01*
X-5923903Y5181112D01*
X-5932103Y5182817D01*
X-5936000Y5184460D01*
X-5936111Y5184572D01*
X-5936685Y5184757D01*
X-5940465Y5186428D01*
X-5947859Y5187581D01*
X-5956022Y5189682D01*
X-5977474Y5197490D01*
X-5977476Y5197490D01*
X-5998263Y5197490D01*
X-6001830Y5197637D01*
X-6004492Y5197857D01*
X-6012432Y5199506D01*
X-6019581Y5199100D01*
X-6022601Y5199348D01*
X-6023071Y5199590D01*
X-6025721Y5199719D01*
X-6029803Y5200355D01*
X-6029805Y5200355D01*
X-6054123Y5197739D01*
X-6058770Y5197490D01*
X-6098580Y5197490D01*
X-6111300Y5192861D01*
X-6111404Y5192823D01*
X-6116319Y5191049D01*
X-6119705Y5190684D01*
X-6153254Y5177714D01*
X-6153708Y5177549D01*
X-6153745Y5177551D01*
X-6154846Y5177156D01*
X-6188568Y5166028D01*
X-6188577Y5166023D01*
X-6188776Y5165892D01*
X-6197740Y5161398D01*
X-6212375Y5156070D01*
X-6212376Y5156070D01*
X-6212377Y5156069D01*
X-6241308Y5131794D01*
X-6243007Y5130439D01*
X-6244184Y5129548D01*
X-6264174Y5116435D01*
X-6269742Y5110196D01*
X-6273119Y5107638D01*
X-6273270Y5107599D01*
X-6273716Y5107194D01*
X-6277058Y5104753D01*
X-6277061Y5104751D01*
X-6281761Y5098918D01*
X-6287660Y5092901D01*
X-6305144Y5078230D01*
X-6305146Y5078227D01*
X-6315538Y5060228D01*
X-6317447Y5057214D01*
X-6318969Y5055018D01*
X-6324368Y5048964D01*
X-6327590Y5042571D01*
X-6329312Y5040084D01*
X-6329756Y5039799D01*
X-6331193Y5037567D01*
X-6333792Y5034342D01*
X-6343691Y5011964D01*
X-6345797Y5007819D01*
X-6365694Y4973356D01*
X-6365695Y4973352D01*
X-6368046Y4960026D01*
X-6371098Y4949999D01*
X-6570596Y4498961D01*
X-6588084Y4479216D01*
X-7057561Y4199336D01*
X-7059235Y4198387D01*
X-7062001Y4196901D01*
X-7087474Y4187628D01*
X-7102148Y4175317D01*
X-7106080Y4173202D01*
X-7106230Y4173187D01*
X-7106703Y4172869D01*
X-7113489Y4166870D01*
X-7120010Y4162108D01*
X-7127800Y4157463D01*
X-7127802Y4157462D01*
X-7145663Y4139093D01*
X-7148878Y4136106D01*
X-7165539Y4122125D01*
X-7180246Y4109784D01*
X-7186494Y4098961D01*
X-7186587Y4098800D01*
X-7189199Y4094322D01*
X-7190836Y4092637D01*
X-7205927Y4065635D01*
X-7206162Y4065231D01*
X-7206212Y4065194D01*
X-7207472Y4063125D01*
X-7224377Y4037604D01*
X-7224377Y4037603D01*
X-7226391Y4031592D01*
X-7229960Y4023676D01*
X-7240794Y4004911D01*
X-7246305Y3973661D01*
X-7246678Y3971789D01*
X-7247174Y3969559D01*
X-7253100Y3951866D01*
X-7253868Y3939414D01*
X-7254609Y3936073D01*
X-7254739Y3935888D01*
X-7254902Y3934841D01*
X-7257125Y3926052D01*
X-7257004Y3917412D01*
X-7257660Y3909263D01*
X-7261823Y3885649D01*
X-7261823Y3885646D01*
X-7259273Y3871179D01*
X-7259001Y3869430D01*
X-7258434Y3865211D01*
X-7258654Y3861618D01*
X-7256567Y3851334D01*
X-7256372Y3849891D01*
X-7256496Y3849426D01*
X-7255988Y3844710D01*
X-7255861Y3835639D01*
X-7255860Y3835637D01*
X-7248888Y3811000D01*
X-7247906Y3806715D01*
X-7240794Y3766387D01*
X-7234545Y3755562D01*
X-7234452Y3755401D01*
X-7231880Y3750901D01*
X-7231238Y3748637D01*
X-7215356Y3721995D01*
X-7215164Y3721660D01*
X-7215157Y3721600D01*
X-7213994Y3719470D01*
X-7200347Y3692073D01*
X-7200346Y3692071D01*
X-7196157Y3687334D01*
X-7191078Y3680277D01*
X-7180242Y3661509D01*
X-7155938Y3641115D01*
X-7151318Y3636613D01*
X-6978465Y3441089D01*
X-6967650Y3409643D01*
X-6982239Y3379759D01*
X-7013687Y3368944D01*
X-7041649Y3381496D01*
X-9950548Y6272981D01*
X-9952494Y6277639D01*
X-9956622Y6280545D01*
X-9958696Y6292486D01*
X-9963367Y6303667D01*
X-9961450Y6308337D01*
X-9962313Y6313310D01*
X-9955337Y6323220D01*
X-9950733Y6334428D01*
X-9946076Y6336374D01*
X-9943169Y6340502D01*
X-9933754Y6341522D01*
X-9920047Y6347247D01*
X-9910404Y6346193D01*
X-9907680Y6345582D01*
X-9878557Y6334982D01*
X-9860438Y6334982D01*
X-9857091Y6334231D01*
X-9856778Y6334196D01*
X-9815234Y6334974D01*
X-9814420Y6334982D01*
X-9757455Y6334982D01*
X-9711624Y6351664D01*
X-9679490Y6360922D01*
X-9669275Y6367078D01*
X-9643657Y6376402D01*
X-9617812Y6398090D01*
X-9602045Y6407590D01*
X-9583314Y6427037D01*
X-9550889Y6454244D01*
X-9541588Y6470356D01*
X-9539318Y6472711D01*
X-9518977Y6509518D01*
X-9490338Y6559121D01*
X-9481870Y6607149D01*
X-9473820Y6639610D01*
X-9474044Y6651533D01*
X-9469309Y6678382D01*
X-9475169Y6711613D01*
X-9475513Y6730013D01*
X-9482988Y6755955D01*
X-9490338Y6797643D01*
X-9492808Y6801920D01*
X-9496987Y6809160D01*
X-9496987Y6809159D01*
X-9499641Y6813756D01*
X-9500546Y6816898D01*
X-9522244Y6852906D01*
X-9550889Y6902520D01*
X-9550890Y6902521D01*
X-9587105Y6932910D01*
X-9589318Y6934900D01*
X-10255493Y7576583D01*
X-10255493Y7576584D01*
X-10259913Y7580842D01*
X-10265942Y7591284D01*
X-10303298Y7622629D01*
X-10312314Y7631314D01*
X-10327387Y7645834D01*
X-10334141Y7649566D01*
X-10341053Y7654310D01*
X-10358711Y7669127D01*
X-10387234Y7679509D01*
X-10393387Y7682308D01*
X-10397546Y7684606D01*
X-10406526Y7689569D01*
X-10406531Y7689571D01*
X-10406530Y7689571D01*
X-10430488Y7695512D01*
X-10434890Y7696854D01*
X-10472508Y7710546D01*
X-10491117Y7710546D01*
X-10494287Y7711332D01*
X-10536258Y7710546D01*
X-10593610Y7710546D01*
X-10638050Y7694372D01*
X-10638051Y7694373D01*
X-10639465Y7693859D01*
X-10671575Y7684606D01*
X-10681784Y7678456D01*
X-10685740Y7677015D01*
X-10685749Y7677010D01*
X-10707408Y7669126D01*
X-10707409Y7669125D01*
X-10730659Y7649618D01*
X-10730660Y7649619D01*
X-10733265Y7647434D01*
X-10749020Y7637938D01*
X-10767749Y7618496D01*
X-10769519Y7617010D01*
X-10800176Y7591285D01*
X-10806826Y7579767D01*
X-10808664Y7576583D01*
X-10809478Y7575173D01*
X-10811747Y7572817D01*
X-10832074Y7536038D01*
X-10832282Y7535677D01*
X-10860727Y7486408D01*
X-10867919Y7445625D01*
X-10869197Y7438375D01*
X-10877245Y7405918D01*
X-10877023Y7393997D01*
X-10877753Y7389851D01*
X-10881756Y7367147D01*
X-10881756Y7367146D01*
X-10876486Y7337253D01*
X-10876248Y7335753D01*
X-10875883Y7333153D01*
X-10875552Y7315515D01*
X-10871363Y7300974D01*
X-10870936Y7297938D01*
X-10874391Y7284584D01*
X-10875935Y7270877D01*
X-10878458Y7268866D01*
X-10879265Y7265743D01*
X-10891150Y7258744D01*
X-10901935Y7250142D01*
X-10905141Y7250504D01*
X-10907920Y7248866D01*
X-10921275Y7252321D01*
X-10934981Y7253865D01*
X-10939054Y7256921D01*
X-10940115Y7257195D01*
X-10940666Y7258130D01*
X-10944595Y7261078D01*
X-11408169Y7721877D01*
X-9070841Y7721877D01*
X-9070841Y7721875D01*
X-9068533Y7708783D01*
X-9068232Y7703140D01*
X-9068012Y7703153D01*
X-9067835Y7700315D01*
X-9067834Y7700310D01*
X-9067834Y7700309D01*
X-9066573Y7693865D01*
X-9059847Y7659480D01*
X-9059699Y7658684D01*
X-9049813Y7602615D01*
X-9026177Y7561676D01*
X-9025432Y7560385D01*
X-9010738Y7530353D01*
X-9002899Y7521358D01*
X-9000793Y7517710D01*
X-8989263Y7497740D01*
X-8989262Y7497739D01*
X-8989261Y7497738D01*
X-8963423Y7476057D01*
X-8951335Y7462186D01*
X-8928926Y7447111D01*
X-8896493Y7419896D01*
X-8879018Y7413536D01*
X-8876313Y7411716D01*
X-8836591Y7398093D01*
X-8782695Y7378476D01*
X-8733912Y7378476D01*
X-8700577Y7376186D01*
X-8688872Y7378476D01*
X-8661593Y7378476D01*
X-8629892Y7390015D01*
X-8611841Y7393546D01*
X-8587583Y7405415D01*
X-8547795Y7419896D01*
X-8533551Y7431849D01*
X-8530621Y7433282D01*
X-8498920Y7460908D01*
X-8455027Y7497738D01*
X-8455024Y7497744D01*
X-8452781Y7500416D01*
X-8448043Y7505245D01*
X-8041469Y7859546D01*
X-8035697Y7863791D01*
X-7681817Y8081444D01*
X-7648982Y8086699D01*
X-7637400Y8082102D01*
X-7053063Y7746107D01*
X-7032772Y7719761D01*
X-7032224Y7717485D01*
X-6944118Y7303493D01*
X-6943361Y7290336D01*
X-6994462Y6752887D01*
X-6994570Y6751878D01*
X-6995046Y6747873D01*
X-6997670Y6739478D01*
X-6998540Y6718438D01*
X-6998738Y6716768D01*
X-6998856Y6716560D01*
X-6999095Y6714346D01*
X-7005127Y6680130D01*
X-7005127Y6680129D01*
X-7001890Y6661768D01*
X-7001880Y6661711D01*
X-7001075Y6657105D01*
X-7001403Y6649136D01*
X-6993555Y6614120D01*
X-6993377Y6613103D01*
X-6993381Y6613087D01*
X-6993332Y6612839D01*
X-6987538Y6578465D01*
X-6987533Y6578451D01*
X-6986286Y6573268D01*
X-6984098Y6560868D01*
X-6962998Y6524320D01*
X-6962337Y6523133D01*
X-6961680Y6521908D01*
X-6949942Y6496233D01*
X-6944150Y6489224D01*
X-6942108Y6485416D01*
X-6942099Y6485325D01*
X-6941907Y6485036D01*
X-6939690Y6480801D01*
X-6938071Y6479043D01*
X-6932411Y6471343D01*
X-6923547Y6455991D01*
X-6904214Y6439768D01*
X-6901738Y6437523D01*
X-6900107Y6435925D01*
X-6892345Y6426533D01*
X-6885676Y6421789D01*
X-6883243Y6419405D01*
X-6883083Y6419029D01*
X-6881684Y6417796D01*
X-6309831Y5796645D01*
X-6261330Y5743963D01*
X-6255668Y5736260D01*
X-6246804Y5720908D01*
X-6219497Y5697994D01*
X-6219210Y5697752D01*
X-6217231Y5696062D01*
X-6201705Y5679198D01*
X-6185326Y5668817D01*
X-6182983Y5666816D01*
X-6182960Y5666770D01*
X-6182747Y5666612D01*
X-6172894Y5658073D01*
X-6170425Y5655933D01*
X-6168047Y5654364D01*
X-6168208Y5654121D01*
X-6163810Y5651267D01*
X-6154036Y5643066D01*
X-6142051Y5638704D01*
X-6136522Y5636692D01*
X-6135308Y5636229D01*
X-6131541Y5634729D01*
X-6125333Y5630794D01*
X-6108215Y5625441D01*
X-6106676Y5624828D01*
X-6106451Y5624609D01*
X-6103760Y5623541D01*
X-6089100Y5616418D01*
X-6089099Y5616417D01*
X-6074886Y5613677D01*
X-6068249Y5611842D01*
X-6040239Y5601646D01*
X-6040238Y5601646D01*
X-6016647Y5601646D01*
X-6016068Y5601642D01*
X-6012210Y5601591D01*
X-6000315Y5599297D01*
X-5975124Y5601097D01*
X-5973281Y5601072D01*
X-5973167Y5601023D01*
X-5972070Y5601039D01*
X-5952113Y5600215D01*
X-5948695Y5600073D01*
X-5948695Y5600074D01*
X-5948694Y5600073D01*
X-5947184Y5600412D01*
X-5946369Y5600594D01*
X-5936866Y5601646D01*
X-5919135Y5601646D01*
X-5910014Y5604967D01*
X-5885424Y5613918D01*
X-5885286Y5613967D01*
X-5882838Y5614835D01*
X-5860464Y5619848D01*
X-5843279Y5628847D01*
X-5840428Y5629857D01*
X-5840377Y5629874D01*
X-5840326Y5629872D01*
X-5840090Y5629974D01*
X-5824678Y5635305D01*
X-5824676Y5635307D01*
X-5822132Y5636580D01*
X-5821999Y5636313D01*
X-5817322Y5638704D01*
X-5805343Y5643064D01*
X-5805341Y5643065D01*
X-5805342Y5643065D01*
X-5805338Y5643066D01*
X-5791017Y5655085D01*
X-5790057Y5655865D01*
X-5786877Y5658376D01*
X-5780359Y5661787D01*
X-5767158Y5673942D01*
X-5765859Y5674967D01*
X-5765556Y5675053D01*
X-5763286Y5676849D01*
X-5757931Y5680473D01*
X-5749793Y5685979D01*
X-5740314Y5696918D01*
X-5735406Y5701747D01*
X-5712570Y5720908D01*
X-5700774Y5741340D01*
X-5700480Y5741841D01*
X-5698507Y5745156D01*
X-5690575Y5754307D01*
X-5679544Y5777011D01*
X-5678605Y5778588D01*
X-5678506Y5778663D01*
X-5677969Y5779624D01*
X-5667181Y5796645D01*
X-5665435Y5799399D01*
X-5664722Y5801681D01*
X-5660882Y5810436D01*
X-5652019Y5825785D01*
X-5645818Y5860958D01*
X-5645763Y5861262D01*
X-5645289Y5863824D01*
X-5638447Y5885697D01*
X-5637648Y5905065D01*
X-5637085Y5908101D01*
X-5637058Y5908144D01*
X-5637026Y5908414D01*
X-5633939Y5924418D01*
X-5633940Y5924427D01*
X-5633769Y5927270D01*
X-5633475Y5927253D01*
X-5633205Y5932489D01*
X-5630990Y5945046D01*
X-5634236Y5963450D01*
X-5634434Y5964685D01*
X-5635019Y5968694D01*
X-5634714Y5976039D01*
X-5638641Y5993558D01*
X-5638877Y5995179D01*
X-5638800Y5995484D01*
X-5639220Y5998338D01*
X-5680428Y6575254D01*
X-5679879Y6585887D01*
X-5677662Y6598453D01*
X-5677917Y6599894D01*
X-5678218Y6613013D01*
X-5678091Y6613991D01*
X-5635391Y6944201D01*
X-5635233Y6945426D01*
X-5634762Y6949075D01*
X-5632801Y6954306D01*
X-5628980Y6993781D01*
X-5604401Y7183865D01*
X-5603074Y7189012D01*
X-5603351Y7189080D01*
X-5602668Y7191841D01*
X-5602665Y7191846D01*
X-5598958Y7224775D01*
X-5598572Y7227449D01*
X-5590152Y7275196D01*
X-5599284Y7326977D01*
X-5599442Y7327945D01*
X-5599498Y7328312D01*
X-5604495Y7365611D01*
X-5605588Y7368232D01*
X-5606321Y7373036D01*
X-5606390Y7373493D01*
X-5606386Y7373509D01*
X-5606400Y7373559D01*
X-5696184Y7968970D01*
X-5694397Y7989319D01*
X-5685634Y8015331D01*
X-5539365Y8449551D01*
X-5535815Y8457406D01*
X-5532492Y8463160D01*
X-5532492Y8463162D01*
X-5529633Y8468114D01*
X-5529633Y8468115D01*
X-5524822Y8476446D01*
X-5519369Y8507373D01*
X-5518883Y8509738D01*
X-5518412Y8511749D01*
X-5512625Y8528927D01*
X-5511977Y8539205D01*
X-5511146Y8542747D01*
X-5510996Y8542958D01*
X-5510812Y8544075D01*
X-5509090Y8550498D01*
X-5509090Y8561866D01*
X-5508430Y8569411D01*
X-5503793Y8595707D01*
X-5506295Y8609894D01*
X-5506602Y8611923D01*
X-5507122Y8616014D01*
X-5506922Y8619166D01*
X-5508547Y8627235D01*
X-5508744Y8628790D01*
X-5508598Y8629327D01*
X-5509090Y8634264D01*
X-5509090Y9261866D01*
X-5508430Y9269411D01*
X-5503793Y9295707D01*
X-5506464Y9310852D01*
X-5506827Y9313336D01*
X-5507267Y9317103D01*
X-5507045Y9320908D01*
X-5508576Y9328319D01*
X-5508797Y9330214D01*
X-5508634Y9330789D01*
X-5509090Y9335251D01*
X-5509090Y9340912D01*
X-5509090Y9340916D01*
X-5515950Y9366514D01*
X-5516733Y9370006D01*
X-5516787Y9370300D01*
X-5521195Y9396755D01*
X-5521840Y9398173D01*
X-5522604Y9402386D01*
X-5522598Y9402416D01*
X-5522641Y9402596D01*
X-5524821Y9414964D01*
X-5524822Y9414966D01*
X-5524822Y9414968D01*
X-5532492Y9428252D01*
X-5532492Y9428254D01*
X-5545752Y9451219D01*
X-5547656Y9454919D01*
X-5558637Y9479058D01*
X-5559816Y9480491D01*
X-5561557Y9482753D01*
X-5563555Y9485534D01*
X-5565926Y9490255D01*
X-5571208Y9496189D01*
X-5572534Y9498035D01*
X-5572668Y9498604D01*
X-5574870Y9501653D01*
X-5577702Y9506559D01*
X-5577703Y9506560D01*
X-5579131Y9509034D01*
X-5579141Y9509052D01*
X-5582983Y9515705D01*
X-5585373Y9519845D01*
X-5604438Y9535843D01*
X-5607536Y9538711D01*
X-5608849Y9540051D01*
X-5616105Y9548865D01*
X-5620712Y9552156D01*
X-5623386Y9554885D01*
X-5623540Y9555266D01*
X-5624803Y9556401D01*
X-5624838Y9556440D01*
X-5626043Y9557794D01*
X-5630790Y9560916D01*
X-5637632Y9566490D01*
X-5641636Y9570493D01*
X-5641637Y9570494D01*
X-5641638Y9570495D01*
X-5651483Y9576180D01*
X-5657682Y9580521D01*
X-5678141Y9597687D01*
X-5692565Y9602937D01*
X-5694918Y9603873D01*
X-5698410Y9605380D01*
X-5701591Y9607472D01*
X-5708774Y9609852D01*
X-5710524Y9610607D01*
X-5710939Y9611034D01*
X-5715031Y9612870D01*
X-5719940Y9615704D01*
X-5719943Y9615705D01*
X-5745543Y9622565D01*
X-5748961Y9623634D01*
X-5749288Y9623751D01*
X-5774354Y9633142D01*
X-5775899Y9633293D01*
X-5779933Y9634739D01*
X-5779954Y9634758D01*
X-5780127Y9634809D01*
X-5791937Y9639107D01*
X-5791939Y9639107D01*
X-5833783Y9639107D01*
X-5835830Y9639155D01*
X-5836896Y9639206D01*
X-5864351Y9641867D01*
X-5870743Y9640802D01*
X-5875368Y9641020D01*
X-5875464Y9641065D01*
X-5875837Y9641045D01*
X-5877689Y9641153D01*
X-5877691Y9641153D01*
X-5883237Y9640006D01*
X-5892030Y9639107D01*
X-5913044Y9639107D01*
X-5936419Y9630600D01*
X-5944135Y9628571D01*
X-6477362Y9539698D01*
X-6477363Y9539698D01*
X-6480909Y9539107D01*
X-6513041Y9539107D01*
X-6540178Y9529231D01*
X-6544138Y9528570D01*
X-6544139Y9528571D01*
X-6553531Y9527005D01*
X-6553541Y9527001D01*
X-6565551Y9521539D01*
X-6567916Y9520546D01*
X-6570069Y9519717D01*
X-6585038Y9515705D01*
X-6594187Y9510424D01*
X-6597350Y9509205D01*
X-6597664Y9509213D01*
X-6598989Y9508612D01*
X-6605768Y9506308D01*
X-6605773Y9506307D01*
X-6605775Y9506305D01*
X-6605778Y9506304D01*
X-6608327Y9505045D01*
X-6608392Y9505177D01*
X-6613823Y9502426D01*
X-6626831Y9497691D01*
X-6626837Y9497688D01*
X-6647296Y9480522D01*
X-6649413Y9478856D01*
X-6651384Y9477401D01*
X-6663343Y9470495D01*
X-6670706Y9463133D01*
X-6673325Y9461199D01*
X-6673664Y9461115D01*
X-6674979Y9460035D01*
X-6680943Y9456047D01*
X-6689996Y9445719D01*
X-6694282Y9441466D01*
X-6694685Y9441120D01*
X-6705648Y9432092D01*
X-6706459Y9430959D01*
X-6709517Y9428319D01*
X-6709589Y9428296D01*
X-6709973Y9427931D01*
X-6719606Y9419848D01*
X-6719607Y9419846D01*
X-6724416Y9411517D01*
X-6731320Y9402520D01*
X-7207412Y8926428D01*
X-7231061Y8914282D01*
X-7690344Y8838481D01*
X-7693859Y8837901D01*
X-7726262Y8837901D01*
X-7753140Y8828119D01*
X-7757125Y8827461D01*
X-7757130Y8827460D01*
X-7766235Y8825956D01*
X-7778855Y8820240D01*
X-7783212Y8818542D01*
X-7784324Y8818177D01*
X-7798823Y8814264D01*
X-7802223Y8812294D01*
X-7806524Y8810880D01*
X-7806658Y8810891D01*
X-7807103Y8810691D01*
X-7812170Y8807575D01*
X-7820067Y8803758D01*
X-7840059Y8796481D01*
X-7840064Y8796478D01*
X-7860782Y8779096D01*
X-7864733Y8776146D01*
X-7865818Y8775429D01*
X-7877048Y8768917D01*
X-7879738Y8766219D01*
X-7883424Y8763780D01*
X-7883735Y8763720D01*
X-7884636Y8763007D01*
X-8389363Y8452574D01*
X-8397263Y8448755D01*
X-8417254Y8441478D01*
X-8427433Y8432937D01*
X-8428231Y8432284D01*
X-8431970Y8429296D01*
X-8434429Y8428092D01*
X-8445025Y8418860D01*
X-8445758Y8418273D01*
X-8446073Y8418182D01*
X-8450124Y8415203D01*
X-8461317Y8408319D01*
X-8461319Y8408317D01*
X-8477081Y8391655D01*
X-8480714Y8388232D01*
X-8510026Y8363635D01*
X-8512275Y8360954D01*
X-8517009Y8356131D01*
X-8945062Y7983114D01*
X-8945678Y7982587D01*
X-8989262Y7946014D01*
X-9012895Y7905083D01*
X-9012894Y7905082D01*
X-9013641Y7903788D01*
X-9032304Y7876045D01*
X-9036175Y7864760D01*
X-9038283Y7861108D01*
X-9038285Y7861108D01*
X-9049812Y7841141D01*
X-9049812Y7841139D01*
X-9055083Y7811252D01*
X-9056771Y7804708D01*
X-9061638Y7790514D01*
X-9063331Y7765874D01*
X-9063889Y7761310D01*
X-9070841Y7721877D01*
X-11408169Y7721877D01*
X-13442890Y9744418D01*
X-13470068Y9771433D01*
X-5360894Y9771433D01*
X-5339866Y9652174D01*
X-5339866Y9652173D01*
X-5339865Y9652172D01*
X-5279314Y9547295D01*
X-5186546Y9469453D01*
X-5182433Y9467956D01*
X-5157915Y9445490D01*
X-5156464Y9412267D01*
X-5169365Y9393843D01*
X-5241944Y9332942D01*
X-5302497Y9228062D01*
X-5323525Y9108802D01*
X-5302497Y8989543D01*
X-5302497Y8989542D01*
X-5302496Y8989541D01*
X-5241945Y8884664D01*
X-5149177Y8806822D01*
X-5073002Y8779096D01*
X-5035382Y8765403D01*
X-5035381Y8765402D01*
X-5035379Y8765402D01*
X-4914275Y8765402D01*
X-4914275Y8765403D01*
X-4800479Y8806822D01*
X-4707711Y8884664D01*
X-4668826Y8952015D01*
X-1433040Y8952015D01*
X-1412012Y8832756D01*
X-1412012Y8832755D01*
X-1412011Y8832754D01*
X-1351460Y8727877D01*
X-1258692Y8650035D01*
X-1215362Y8634264D01*
X-1144897Y8608616D01*
X-1144896Y8608615D01*
X-1144894Y8608615D01*
X-1023790Y8608615D01*
X-1023790Y8608616D01*
X-909994Y8650035D01*
X-817226Y8727877D01*
X-756675Y8832754D01*
X-735646Y8952015D01*
X-756675Y9071276D01*
X-817226Y9176153D01*
X-909994Y9253995D01*
X-909996Y9253996D01*
X-1023790Y9295415D01*
X-1023792Y9295415D01*
X-1144894Y9295415D01*
X-1144896Y9295415D01*
X-1258690Y9253996D01*
X-1351460Y9176153D01*
X-1412012Y9071275D01*
X-1433040Y8952015D01*
X-4668826Y8952015D01*
X-4647160Y8989541D01*
X-4626131Y9108802D01*
X-4647160Y9228063D01*
X-4707711Y9332940D01*
X-4800479Y9410782D01*
X-4804596Y9412281D01*
X-4829112Y9434749D01*
X-4830561Y9467972D01*
X-4817665Y9486390D01*
X-4745080Y9547295D01*
X-4684529Y9652172D01*
X-4663500Y9771433D01*
X-4684529Y9890694D01*
X-4745080Y9995571D01*
X-4837848Y10073413D01*
X-4837850Y10073414D01*
X-4951644Y10114833D01*
X-4951646Y10114833D01*
X-5072748Y10114833D01*
X-5072750Y10114833D01*
X-5186544Y10073414D01*
X-5279314Y9995571D01*
X-5339866Y9890693D01*
X-5360894Y9771433D01*
X-13470068Y9771433D01*
X-14385904Y10681787D01*
X-14413082Y10708802D01*
X-5323525Y10708802D01*
X-5302497Y10589543D01*
X-5302497Y10589542D01*
X-5302496Y10589541D01*
X-5241945Y10484664D01*
X-5149177Y10406822D01*
X-5058329Y10373756D01*
X-5035382Y10365403D01*
X-5035381Y10365402D01*
X-5035379Y10365402D01*
X-4914275Y10365402D01*
X-4914275Y10365403D01*
X-4800479Y10406822D01*
X-4707711Y10484664D01*
X-4693775Y10508802D01*
X-4123525Y10508802D01*
X-4102497Y10389543D01*
X-4102497Y10389542D01*
X-4102496Y10389541D01*
X-4041945Y10284664D01*
X-3949177Y10206822D01*
X-3858329Y10173756D01*
X-3835382Y10165403D01*
X-3835381Y10165402D01*
X-3835379Y10165402D01*
X-3714275Y10165402D01*
X-3714275Y10165403D01*
X-3600479Y10206822D01*
X-3507711Y10284664D01*
X-3447160Y10389541D01*
X-3426131Y10508802D01*
X-3447160Y10628063D01*
X-3507711Y10732940D01*
X-3600479Y10810782D01*
X-3600481Y10810783D01*
X-3714275Y10852202D01*
X-3714277Y10852202D01*
X-3835379Y10852202D01*
X-3835381Y10852202D01*
X-3949175Y10810783D01*
X-4041945Y10732940D01*
X-4102497Y10628062D01*
X-4123525Y10508802D01*
X-4693775Y10508802D01*
X-4647160Y10589541D01*
X-4626131Y10708802D01*
X-4647160Y10828063D01*
X-4707711Y10932940D01*
X-4800479Y11010782D01*
X-4800481Y11010783D01*
X-4914275Y11052202D01*
X-4914277Y11052202D01*
X-5035379Y11052202D01*
X-5035381Y11052202D01*
X-5149175Y11010783D01*
X-5241945Y10932940D01*
X-5302497Y10828062D01*
X-5323525Y10708802D01*
X-14413082Y10708802D01*
X-15472974Y11762349D01*
X-15475381Y11764944D01*
X-15560589Y11864696D01*
X-15563692Y11868328D01*
X-15567699Y11873843D01*
X-15585180Y11902365D01*
X-15637883Y11988358D01*
X-15640979Y11994434D01*
X-15656226Y12031239D01*
X-15692384Y12118521D01*
X-15694490Y12125002D01*
X-15697027Y12135569D01*
X-15725851Y12255606D01*
X-15726916Y12262329D01*
X-15733855Y12350469D01*
X-9078687Y12350469D01*
X-9057659Y12231210D01*
X-9057659Y12231209D01*
X-9057658Y12231208D01*
X-8997107Y12126331D01*
X-8904339Y12048489D01*
X-8815922Y12016307D01*
X-8790544Y12007070D01*
X-8790543Y12007069D01*
X-8790541Y12007069D01*
X-8669437Y12007069D01*
X-8669437Y12007070D01*
X-8555641Y12048489D01*
X-8462873Y12126331D01*
X-8402322Y12231208D01*
X-8389186Y12305705D01*
X-5323525Y12305705D01*
X-5302497Y12186446D01*
X-5302497Y12186445D01*
X-5302496Y12186444D01*
X-5241945Y12081567D01*
X-5193049Y12040539D01*
X-5177693Y12011041D01*
X-5187693Y11979325D01*
X-5193049Y11973970D01*
X-5241944Y11932942D01*
X-5302497Y11828062D01*
X-5323525Y11708802D01*
X-5302497Y11589543D01*
X-5302497Y11589542D01*
X-5302496Y11589541D01*
X-5241945Y11484664D01*
X-5149177Y11406822D01*
X-5058329Y11373756D01*
X-5035382Y11365403D01*
X-5035381Y11365402D01*
X-5035379Y11365402D01*
X-4914275Y11365402D01*
X-4914275Y11365403D01*
X-4800479Y11406822D01*
X-4707711Y11484664D01*
X-4647160Y11589541D01*
X-4626131Y11708802D01*
X-4647160Y11828063D01*
X-4707711Y11932940D01*
X-4756609Y11973971D01*
X-4771964Y12003467D01*
X-4761964Y12035183D01*
X-4756617Y12040531D01*
X-4707711Y12081567D01*
X-4647585Y12185708D01*
X-4201187Y12185708D01*
X-4196550Y12159410D01*
X-4195903Y12152943D01*
X-4195890Y12152419D01*
X-4195890Y12140498D01*
X-4195565Y12139280D01*
X-4195528Y12137826D01*
X-4195484Y12137510D01*
X-4188369Y12111854D01*
X-4187449Y12107790D01*
X-4180159Y12066447D01*
X-4174559Y12056748D01*
X-4172489Y12053163D01*
X-4172488Y12053160D01*
X-4171727Y12051841D01*
X-4171320Y12050376D01*
X-4149187Y12012798D01*
X-4149165Y12012761D01*
X-4149132Y12012704D01*
X-4131114Y11981499D01*
X-4127706Y11975596D01*
X-4119608Y11961570D01*
X-4119607Y11961569D01*
X-4086164Y11933506D01*
X-4083756Y11931328D01*
X-4083555Y11931132D01*
X-4063342Y11910919D01*
X-4062087Y11910195D01*
X-4061011Y11909146D01*
X-4060942Y11909094D01*
X-4060939Y11909091D01*
X-4060937Y11909090D01*
X-4052523Y11904329D01*
X-4045990Y11899797D01*
X-4026840Y11883727D01*
X-4012832Y11878629D01*
X-4001742Y11874593D01*
X-3995813Y11871916D01*
X-3995357Y11871668D01*
X-3985037Y11865709D01*
X-3983830Y11865386D01*
X-3982564Y11864696D01*
X-3982246Y11864567D01*
X-3982244Y11864566D01*
X-3956448Y11857895D01*
X-3952484Y11856664D01*
X-3927933Y11847728D01*
X-3913042Y11842307D01*
X-3896178Y11842307D01*
X-3894705Y11841926D01*
X-3851045Y11842307D01*
X-3413041Y11842307D01*
X-3400496Y11842307D01*
X-3398550Y11842182D01*
X-3352902Y11842306D01*
X-3352306Y11842307D01*
X-3291939Y11842307D01*
X-2913041Y11842307D01*
X-2854437Y11842307D01*
X-2811289Y11841804D01*
X-2809320Y11842307D01*
X-2791939Y11842307D01*
X-2791938Y11842307D01*
X-2779131Y11846970D01*
X-2753016Y11856476D01*
X-2749659Y11857544D01*
X-2749308Y11857641D01*
X-2723684Y11864186D01*
X-2722015Y11865125D01*
X-2720067Y11865659D01*
X-2719949Y11865708D01*
X-2719943Y11865709D01*
X-2710101Y11871393D01*
X-2703236Y11874594D01*
X-2678141Y11883727D01*
X-2659427Y11899432D01*
X-2654126Y11903238D01*
X-2653466Y11903641D01*
X-2644856Y11908478D01*
X-2643729Y11909581D01*
X-2642050Y11910604D01*
X-2641642Y11910917D01*
X-2641638Y11910919D01*
X-2621614Y11930945D01*
X-2618832Y11933495D01*
X-2585373Y11961569D01*
X-2577274Y11975596D01*
X-2559103Y12007070D01*
X-2556246Y12012018D01*
X-2556028Y12012393D01*
X-2060680Y12847706D01*
X-2059102Y12849030D01*
X-2029865Y12899671D01*
X-2007789Y12936897D01*
X-2007786Y12936909D01*
X-2007691Y12937128D01*
X-2007630Y12937250D01*
X-2007293Y12938055D01*
X-2004832Y12943031D01*
X-1998551Y12953907D01*
X-1991363Y12994682D01*
X-1990555Y12998331D01*
X-1990492Y12998571D01*
X-1983370Y13023956D01*
X-1983355Y13025320D01*
X-1982991Y13026683D01*
X-1982978Y13026783D01*
X-1982975Y13026791D01*
X-1982935Y13038825D01*
X-1982276Y13046213D01*
X-1977522Y13073168D01*
X-1981767Y13097237D01*
X-1982421Y13104107D01*
X-1982430Y13104668D01*
X-1982316Y13114369D01*
X-1982597Y13115468D01*
X-1982618Y13116851D01*
X-1982628Y13116904D01*
X-1982668Y13117204D01*
X-1982667Y13117209D01*
X-1990075Y13145235D01*
X-1990856Y13148787D01*
X-1996315Y13179748D01*
X-1998551Y13192429D01*
X-2027787Y13243067D01*
X-2027865Y13243203D01*
X-2048991Y13280801D01*
X-2049992Y13281824D01*
X-2051448Y13284367D01*
X-2052835Y13286450D01*
X-2059102Y13297306D01*
X-2059106Y13297311D01*
X-2090811Y13323913D01*
X-2093573Y13326440D01*
X-2093763Y13326629D01*
X-2112177Y13345478D01*
X-2113352Y13346175D01*
X-2114359Y13347180D01*
X-2114431Y13347236D01*
X-2124832Y13353289D01*
X-2130904Y13357557D01*
X-2151869Y13375148D01*
X-2151871Y13375149D01*
X-2174828Y13383505D01*
X-2181103Y13386372D01*
X-2181627Y13386664D01*
X-2189948Y13391598D01*
X-2191037Y13391904D01*
X-2192246Y13392577D01*
X-2192308Y13392598D01*
X-2192582Y13392713D01*
X-2220553Y13400311D01*
X-2224022Y13401411D01*
X-2265668Y13416568D01*
X-2324167Y13416568D01*
X-2324314Y13416569D01*
X-2367420Y13417071D01*
X-2368811Y13416717D01*
X-2373009Y13416730D01*
X-2373010Y13416731D01*
X-2373013Y13416730D01*
X-2744505Y13417994D01*
X-2759216Y13420614D01*
X-2776761Y13426999D01*
X-2776762Y13426999D01*
X-2789295Y13426999D01*
X-2791255Y13427126D01*
X-2837763Y13427000D01*
X-2837867Y13426999D01*
X-2897867Y13426999D01*
X-2913688Y13421241D01*
X-2928695Y13418621D01*
X-3282966Y13419826D01*
X-3283358Y13419829D01*
X-3287401Y13419880D01*
X-3287857Y13420045D01*
X-3300730Y13420045D01*
X-3300971Y13420048D01*
X-3301053Y13420084D01*
X-3305725Y13420369D01*
X-3306192Y13420427D01*
X-3348996Y13420054D01*
X-3349520Y13420052D01*
X-3381766Y13420161D01*
X-3392449Y13420197D01*
X-3392450Y13420197D01*
X-3393958Y13420202D01*
X-3396406Y13420045D01*
X-3408960Y13420045D01*
X-3449373Y13405337D01*
X-3452401Y13404359D01*
X-3452802Y13404246D01*
X-3479866Y13397092D01*
X-3481612Y13396094D01*
X-3483640Y13395519D01*
X-3483737Y13395477D01*
X-3492074Y13390567D01*
X-3499258Y13387179D01*
X-3522756Y13378626D01*
X-3542702Y13361889D01*
X-3547779Y13358219D01*
X-3548419Y13357824D01*
X-3558324Y13352149D01*
X-3559526Y13350957D01*
X-3561297Y13349861D01*
X-3561646Y13349588D01*
X-3580328Y13330579D01*
X-3583387Y13327752D01*
X-3615524Y13300785D01*
X-3615526Y13300782D01*
X-3621813Y13289895D01*
X-3623958Y13286182D01*
X-3625024Y13285095D01*
X-3646269Y13247550D01*
X-3646366Y13247380D01*
X-3646368Y13247379D01*
X-3646437Y13247258D01*
X-3668696Y13209005D01*
X-3669795Y13206788D01*
X-3676301Y13195518D01*
X-3678915Y13189850D01*
X-3860189Y12869456D01*
X-3870071Y12857572D01*
X-3871310Y12856533D01*
X-3871311Y12856531D01*
X-3931862Y12751655D01*
X-3932840Y12746108D01*
X-3937812Y12732263D01*
X-4150604Y12356165D01*
X-4150791Y12355838D01*
X-4172813Y12317691D01*
X-4172821Y12317678D01*
X-4180158Y12304969D01*
X-4187741Y12261973D01*
X-4188423Y12258804D01*
X-4188507Y12258478D01*
X-4195890Y12230916D01*
X-4195890Y12229465D01*
X-4196261Y12228007D01*
X-4196272Y12227921D01*
X-4196187Y12218258D01*
X-4196845Y12210335D01*
X-4201187Y12185708D01*
X-4647585Y12185708D01*
X-4647160Y12186444D01*
X-4626131Y12305705D01*
X-4647160Y12424966D01*
X-4707711Y12529843D01*
X-4800479Y12607685D01*
X-4800481Y12607686D01*
X-4914275Y12649105D01*
X-4914277Y12649105D01*
X-5035379Y12649105D01*
X-5035381Y12649105D01*
X-5149175Y12607686D01*
X-5241945Y12529843D01*
X-5302497Y12424965D01*
X-5323525Y12305705D01*
X-8389186Y12305705D01*
X-8381293Y12350469D01*
X-8402322Y12469730D01*
X-8462873Y12574607D01*
X-8555641Y12652449D01*
X-8555643Y12652450D01*
X-8669437Y12693869D01*
X-8669439Y12693869D01*
X-8790541Y12693869D01*
X-8790543Y12693869D01*
X-8904337Y12652450D01*
X-8997107Y12574607D01*
X-9057659Y12469729D01*
X-9078687Y12350469D01*
X-15733855Y12350469D01*
X-15737552Y12397430D01*
X-15737686Y12400840D01*
X-15737686Y13539993D01*
X-15737674Y13540091D01*
X-15737677Y13545759D01*
X-15737675Y13545761D01*
X-15737686Y13570575D01*
X-15737479Y13574801D01*
X-15720883Y13743957D01*
X-15719227Y13752297D01*
X-15670561Y13912903D01*
X-15667306Y13920766D01*
X-15588233Y14068782D01*
X-15583508Y14075856D01*
X-15477065Y14205598D01*
X-15471052Y14211612D01*
X-15341333Y14318086D01*
X-15334265Y14322809D01*
X-15186266Y14401917D01*
X-15178408Y14405172D01*
X-15017808Y14453876D01*
X-15009466Y14455534D01*
X-14857267Y14470502D01*
X-14840308Y14472169D01*
X-14836065Y14472378D01*
X-14811276Y14472373D01*
X-14811267Y14472378D01*
X-11918161Y14472378D01*
X-11878179Y14472378D01*
X-11841241Y14487678D01*
X-11812970Y14515949D01*
X-11797670Y14552887D01*
X-11797670Y15419962D01*
X-100506Y15419962D01*
X-100500Y15399971D01*
X-100500Y19991D01*
X-100500Y-19991D01*
X-85200Y-56929D01*
X-56929Y-85200D01*
X-19991Y-100500D01*
X-19990Y-100500D01*
X15517235Y-100500D01*
X15517236Y-100500D01*
X15554174Y-85200D01*
X15582445Y-56929D01*
X15597745Y-19991D01*
X15597745Y4585707D01*
X19898813Y4585707D01*
X19919841Y4466448D01*
X19919841Y4466447D01*
X19919842Y4466446D01*
X19980393Y4361569D01*
X20073161Y4283727D01*
X20164009Y4250661D01*
X20186956Y4242308D01*
X20186957Y4242307D01*
X20186959Y4242307D01*
X20308063Y4242307D01*
X20308063Y4242308D01*
X20421859Y4283727D01*
X20514627Y4361569D01*
X20575178Y4466446D01*
X20596207Y4585707D01*
X20583310Y4658850D01*
X20590508Y4691317D01*
X20618555Y4709185D01*
X20626100Y4709845D01*
X20716211Y4709845D01*
X20716211Y4709846D01*
X20830007Y4751265D01*
X20922775Y4829107D01*
X20983326Y4933984D01*
X21004355Y5053245D01*
X21000534Y5074911D01*
X21007731Y5107374D01*
X21035777Y5125244D01*
X21058184Y5123285D01*
X21095107Y5109845D01*
X21216211Y5109845D01*
X21216211Y5109846D01*
X21330007Y5151265D01*
X21422775Y5229107D01*
X21483326Y5333984D01*
X21504355Y5453245D01*
X21483326Y5572506D01*
X21422775Y5677383D01*
X21330007Y5755225D01*
X21330005Y5755226D01*
X21216211Y5796645D01*
X21216209Y5796645D01*
X21095107Y5796645D01*
X21095105Y5796645D01*
X20981311Y5755226D01*
X20888541Y5677383D01*
X20827989Y5572505D01*
X20806961Y5453245D01*
X20806961Y5453244D01*
X20810780Y5431580D01*
X20803581Y5399114D01*
X20775533Y5381247D01*
X20753129Y5383207D01*
X20716209Y5396645D01*
X20595107Y5396645D01*
X20595105Y5396645D01*
X20481311Y5355226D01*
X20388541Y5277383D01*
X20327989Y5172505D01*
X20306961Y5053245D01*
X20319858Y4980102D01*
X20312660Y4947635D01*
X20284613Y4929767D01*
X20277068Y4929107D01*
X20186957Y4929107D01*
X20073163Y4887688D01*
X19980393Y4809845D01*
X19919841Y4704967D01*
X19898813Y4585707D01*
X15597745Y4585707D01*
X15597745Y5310746D01*
X16998813Y5310746D01*
X17019841Y5191487D01*
X17019841Y5191486D01*
X17019842Y5191485D01*
X17080393Y5086608D01*
X17173161Y5008766D01*
X17212323Y4994512D01*
X17286956Y4967347D01*
X17286957Y4967346D01*
X17286959Y4967346D01*
X17408063Y4967346D01*
X17408063Y4967347D01*
X17521859Y5008766D01*
X17614627Y5086608D01*
X17675178Y5191485D01*
X17696207Y5310746D01*
X17675178Y5430007D01*
X17614627Y5534884D01*
X17521859Y5612726D01*
X17521857Y5612727D01*
X17408063Y5654146D01*
X17408061Y5654146D01*
X17286959Y5654146D01*
X17286957Y5654146D01*
X17173163Y5612727D01*
X17080393Y5534884D01*
X17019841Y5430006D01*
X16998813Y5310746D01*
X15597745Y5310746D01*
X15597745Y7453245D01*
X16406961Y7453245D01*
X16427989Y7333986D01*
X16427989Y7333985D01*
X16427990Y7333984D01*
X16488541Y7229107D01*
X16581309Y7151265D01*
X16672157Y7118199D01*
X16695104Y7109846D01*
X16695105Y7109845D01*
X16695107Y7109845D01*
X16816211Y7109845D01*
X16816211Y7109846D01*
X16930007Y7151265D01*
X17022775Y7229107D01*
X17083326Y7333984D01*
X17104355Y7453245D01*
X17083326Y7572506D01*
X17022775Y7677383D01*
X16930007Y7755225D01*
X16930005Y7755226D01*
X16816211Y7796645D01*
X16816209Y7796645D01*
X16695107Y7796645D01*
X16695105Y7796645D01*
X16581311Y7755226D01*
X16488541Y7677383D01*
X16427989Y7572505D01*
X16406961Y7453245D01*
X15597745Y7453245D01*
X15597745Y8595707D01*
X22898813Y8595707D01*
X22919841Y8476448D01*
X22919841Y8476447D01*
X22919842Y8476446D01*
X22980393Y8371569D01*
X23073161Y8293727D01*
X23164009Y8260661D01*
X23186956Y8252308D01*
X23186957Y8252307D01*
X23186959Y8252307D01*
X23308063Y8252307D01*
X23308063Y8252308D01*
X23421859Y8293727D01*
X23514627Y8371569D01*
X23575178Y8476446D01*
X23596207Y8595707D01*
X23575178Y8714968D01*
X23514627Y8819845D01*
X23421859Y8897687D01*
X23421857Y8897688D01*
X23308063Y8939107D01*
X23308061Y8939107D01*
X23186959Y8939107D01*
X23186957Y8939107D01*
X23073163Y8897688D01*
X22980393Y8819845D01*
X22919841Y8714967D01*
X22898813Y8595707D01*
X15597745Y8595707D01*
X15597745Y9395707D01*
X16218813Y9395707D01*
X16239841Y9276448D01*
X16239841Y9276447D01*
X16239842Y9276446D01*
X16300393Y9171569D01*
X16393161Y9093727D01*
X16454846Y9071275D01*
X16506956Y9052308D01*
X16506957Y9052307D01*
X16506959Y9052307D01*
X16628063Y9052307D01*
X16628063Y9052308D01*
X16741859Y9093727D01*
X16834627Y9171569D01*
X16881783Y9253245D01*
X18206961Y9253245D01*
X18227989Y9133986D01*
X18227989Y9133985D01*
X18227990Y9133984D01*
X18288541Y9029107D01*
X18381309Y8951265D01*
X18420309Y8937070D01*
X18495104Y8909846D01*
X18495105Y8909845D01*
X18495107Y8909845D01*
X18616211Y8909845D01*
X18616211Y8909846D01*
X18730007Y8951265D01*
X18822775Y9029107D01*
X18838493Y9056331D01*
X19828066Y9056331D01*
X19849094Y8937072D01*
X19849094Y8937071D01*
X19849095Y8937070D01*
X19909646Y8832193D01*
X20002414Y8754351D01*
X20075149Y8727877D01*
X20116209Y8712932D01*
X20116210Y8712931D01*
X20116212Y8712931D01*
X20237316Y8712931D01*
X20237316Y8712932D01*
X20351112Y8754351D01*
X20443880Y8832193D01*
X20504431Y8937070D01*
X20525460Y9056331D01*
X20504431Y9175592D01*
X20443880Y9280469D01*
X20351112Y9358311D01*
X20351110Y9358312D01*
X20237316Y9399731D01*
X20237314Y9399731D01*
X20116212Y9399731D01*
X20116210Y9399731D01*
X20002416Y9358312D01*
X19909646Y9280469D01*
X19849094Y9175591D01*
X19828066Y9056331D01*
X18838493Y9056331D01*
X18883326Y9133984D01*
X18904355Y9253245D01*
X18883326Y9372506D01*
X18822775Y9477383D01*
X18730007Y9555225D01*
X18730005Y9555226D01*
X18616211Y9596645D01*
X18616209Y9596645D01*
X18495107Y9596645D01*
X18495105Y9596645D01*
X18381311Y9555226D01*
X18288541Y9477383D01*
X18227989Y9372505D01*
X18206961Y9253245D01*
X16881783Y9253245D01*
X16895178Y9276446D01*
X16916207Y9395707D01*
X16895178Y9514968D01*
X16834627Y9619845D01*
X16741859Y9697687D01*
X16741857Y9697688D01*
X16628063Y9739107D01*
X16628061Y9739107D01*
X16506959Y9739107D01*
X16506957Y9739107D01*
X16393163Y9697688D01*
X16300393Y9619845D01*
X16239841Y9514967D01*
X16218813Y9395707D01*
X15597745Y9395707D01*
X15597745Y10647378D01*
X18963963Y10647378D01*
X18984991Y10528119D01*
X18984991Y10528118D01*
X18984992Y10528117D01*
X19045543Y10423240D01*
X19138311Y10345398D01*
X19229159Y10312332D01*
X19252106Y10303979D01*
X19252107Y10303978D01*
X19252109Y10303978D01*
X19373213Y10303978D01*
X19373213Y10303979D01*
X19487009Y10345398D01*
X19579777Y10423240D01*
X19640328Y10528117D01*
X19661357Y10647378D01*
X19646187Y10733410D01*
X19642211Y10755963D01*
X19641551Y10759707D01*
X22206813Y10759707D01*
X22211450Y10733410D01*
X22212110Y10725865D01*
X22212110Y10714495D01*
X22219439Y10687140D01*
X22220259Y10683442D01*
X22227841Y10640447D01*
X22234412Y10629066D01*
X22234415Y10629060D01*
X22278084Y10553423D01*
X22278085Y10553422D01*
X22280722Y10548855D01*
X22288393Y10535569D01*
X22323291Y10506286D01*
X22324928Y10504649D01*
X22324953Y10504623D01*
X22344653Y10484924D01*
X22344658Y10484919D01*
X22345100Y10484664D01*
X22354500Y10479236D01*
X22360702Y10474893D01*
X22378758Y10459743D01*
X22381161Y10457727D01*
X22409826Y10447294D01*
X22422963Y10439709D01*
X22452151Y10431889D01*
X22453937Y10431239D01*
X22494958Y10416307D01*
X22494959Y10416307D01*
X23616062Y10416307D01*
X23635110Y10423241D01*
X23658868Y10431889D01*
X23688057Y10439709D01*
X23701193Y10447294D01*
X23729859Y10457727D01*
X23753227Y10477336D01*
X23766362Y10484919D01*
X23787728Y10506286D01*
X23822627Y10535569D01*
X23830298Y10548855D01*
X23875508Y10627160D01*
X23875508Y10627163D01*
X23883178Y10640446D01*
X23891088Y10685306D01*
X23898910Y10714498D01*
X23898910Y10725865D01*
X23899570Y10733410D01*
X23904207Y10759707D01*
X23898910Y10789748D01*
X23898910Y10804916D01*
X23891088Y10834109D01*
X23883178Y10878968D01*
X23878369Y10887297D01*
X23878368Y10887300D01*
X23872872Y10896819D01*
X23830298Y10970559D01*
X23830297Y10970560D01*
X23822627Y10983845D01*
X23787728Y11013129D01*
X23786252Y11014605D01*
X23786206Y11014652D01*
X23766363Y11034494D01*
X23766362Y11034495D01*
X23756517Y11040180D01*
X23750318Y11044521D01*
X23729860Y11061687D01*
X23729858Y11061688D01*
X23704768Y11070820D01*
X23701191Y11072122D01*
X23688057Y11079705D01*
X23658875Y11087524D01*
X23657076Y11088179D01*
X23616064Y11103107D01*
X23616061Y11103107D01*
X23600719Y11103107D01*
X22616061Y11103107D01*
X22494959Y11103107D01*
X22453931Y11088176D01*
X22453932Y11088175D01*
X22452152Y11087527D01*
X22422963Y11079705D01*
X22409830Y11072125D01*
X22406258Y11070824D01*
X22406258Y11070823D01*
X22381165Y11061688D01*
X22381162Y11061687D01*
X22357794Y11042080D01*
X22344658Y11034495D01*
X22323294Y11013133D01*
X22321834Y11011907D01*
X22288394Y10983846D01*
X22288393Y10983846D01*
X22277862Y10965606D01*
X22277859Y10965603D01*
X22259002Y10932940D01*
X22235512Y10892254D01*
X22235511Y10892252D01*
X22227842Y10878968D01*
X22219931Y10834109D01*
X22219340Y10831904D01*
X22219320Y10831834D01*
X22212110Y10804922D01*
X22212110Y10793550D01*
X22211450Y10786005D01*
X22206813Y10759707D01*
X19641551Y10759707D01*
X19640328Y10766638D01*
X19640328Y10766639D01*
X19579777Y10871516D01*
X19487009Y10949358D01*
X19487007Y10949359D01*
X19373213Y10990778D01*
X19373211Y10990778D01*
X19252109Y10990778D01*
X19252107Y10990778D01*
X19138313Y10949359D01*
X19045543Y10871516D01*
X18984991Y10766638D01*
X18963963Y10647378D01*
X15597745Y10647378D01*
X15597745Y12026707D01*
X19279813Y12026707D01*
X19284450Y12000410D01*
X19285110Y11992865D01*
X19285110Y11981495D01*
X19292439Y11954140D01*
X19293259Y11950442D01*
X19300841Y11907447D01*
X19307412Y11896066D01*
X19307415Y11896060D01*
X19349689Y11822840D01*
X19361393Y11802569D01*
X19394836Y11774506D01*
X19396296Y11773281D01*
X19417658Y11751919D01*
X19430785Y11744340D01*
X19433699Y11741895D01*
X19433702Y11741893D01*
X19451758Y11726743D01*
X19454161Y11724727D01*
X19482826Y11714294D01*
X19495963Y11706709D01*
X19525151Y11698889D01*
X19526937Y11698239D01*
X19567958Y11683307D01*
X19567959Y11683307D01*
X20197062Y11683307D01*
X20209436Y11687812D01*
X20239868Y11698889D01*
X20269057Y11706709D01*
X20282193Y11714294D01*
X20310859Y11724727D01*
X20334227Y11744336D01*
X20347362Y11751919D01*
X20368728Y11773286D01*
X20403627Y11802569D01*
X20415331Y11822840D01*
X20456508Y11894160D01*
X20456508Y11894163D01*
X20464178Y11907446D01*
X20472088Y11952306D01*
X20479910Y11981498D01*
X20479910Y11992865D01*
X20480570Y12000410D01*
X20481777Y12007254D01*
X20485207Y12026707D01*
X20479910Y12056748D01*
X20479910Y12071916D01*
X20472088Y12101109D01*
X20464178Y12145968D01*
X20459369Y12154297D01*
X20459368Y12154300D01*
X20441235Y12185707D01*
X20411298Y12237559D01*
X20411297Y12237560D01*
X20403627Y12250845D01*
X20368728Y12280129D01*
X20367252Y12281605D01*
X20367206Y12281652D01*
X20347363Y12301494D01*
X20347362Y12301495D01*
X20337517Y12307180D01*
X20331318Y12311521D01*
X20310860Y12328687D01*
X20310858Y12328688D01*
X20285768Y12337820D01*
X20282191Y12339122D01*
X20269057Y12346705D01*
X20239875Y12354524D01*
X20238076Y12355179D01*
X20197064Y12370107D01*
X20197061Y12370107D01*
X20181719Y12370107D01*
X19689061Y12370107D01*
X19567959Y12370107D01*
X19526931Y12355176D01*
X19526932Y12355175D01*
X19525152Y12354527D01*
X19495963Y12346705D01*
X19482830Y12339125D01*
X19479258Y12337824D01*
X19479258Y12337823D01*
X19456854Y12329667D01*
X19454162Y12328687D01*
X19430794Y12309080D01*
X19417658Y12301495D01*
X19396294Y12280133D01*
X19394834Y12278907D01*
X19361394Y12250846D01*
X19361393Y12250846D01*
X19350862Y12232606D01*
X19350859Y12232603D01*
X19324210Y12186444D01*
X19308512Y12159254D01*
X19308511Y12159252D01*
X19300842Y12145968D01*
X19292931Y12101109D01*
X19292340Y12098904D01*
X19292320Y12098834D01*
X19285110Y12071922D01*
X19285110Y12060550D01*
X19284450Y12053005D01*
X19279813Y12026707D01*
X15597745Y12026707D01*
X15597745Y13149707D01*
X21198813Y13149707D01*
X21203579Y13122675D01*
X21203686Y13121919D01*
X21204110Y13115865D01*
X21204110Y12675550D01*
X21203450Y12668005D01*
X21198813Y12641707D01*
X21203450Y12615410D01*
X21203450Y12615408D01*
X21204110Y12611665D01*
X21204110Y12596498D01*
X21211926Y12567323D01*
X21212256Y12565454D01*
X21212259Y12565442D01*
X21219841Y12522447D01*
X21226412Y12511066D01*
X21226415Y12511060D01*
X21270084Y12435423D01*
X21270085Y12435422D01*
X21272722Y12430855D01*
X21280393Y12417569D01*
X21315291Y12388286D01*
X21316928Y12386649D01*
X21316953Y12386623D01*
X21333470Y12370107D01*
X21336658Y12366919D01*
X21340734Y12364566D01*
X21346500Y12361236D01*
X21352702Y12356893D01*
X21364845Y12346705D01*
X21373161Y12339727D01*
X21401826Y12329294D01*
X21414963Y12321709D01*
X21444151Y12313889D01*
X21445937Y12313239D01*
X21486958Y12298307D01*
X21486959Y12298307D01*
X21608062Y12298307D01*
X21626360Y12304968D01*
X21650868Y12313889D01*
X21680057Y12321709D01*
X21693193Y12329294D01*
X21721859Y12339727D01*
X21745227Y12359336D01*
X21745870Y12359707D01*
X22206813Y12359707D01*
X22211579Y12332675D01*
X22211686Y12331919D01*
X22212110Y12325865D01*
X22212110Y12314495D01*
X22219439Y12287140D01*
X22220259Y12283442D01*
X22227841Y12240447D01*
X22234412Y12229066D01*
X22234415Y12229060D01*
X22278084Y12153423D01*
X22278085Y12153422D01*
X22280722Y12148855D01*
X22288393Y12135569D01*
X22323291Y12106286D01*
X22324928Y12104649D01*
X22324953Y12104623D01*
X22344653Y12084924D01*
X22344658Y12084919D01*
X22348734Y12082566D01*
X22354500Y12079236D01*
X22360702Y12074893D01*
X22370770Y12066446D01*
X22381161Y12057727D01*
X22409826Y12047294D01*
X22422963Y12039709D01*
X22452151Y12031889D01*
X22453937Y12031239D01*
X22494958Y12016307D01*
X22494959Y12016307D01*
X23116062Y12016307D01*
X23128436Y12020812D01*
X23158868Y12031889D01*
X23188057Y12039709D01*
X23201193Y12047294D01*
X23213687Y12051841D01*
X23229856Y12057726D01*
X23229855Y12057726D01*
X23229859Y12057727D01*
X23253227Y12077336D01*
X23266362Y12084919D01*
X23287728Y12106286D01*
X23322627Y12135569D01*
X23330298Y12148855D01*
X23375508Y12227160D01*
X23375508Y12227163D01*
X23383178Y12240446D01*
X23391088Y12285306D01*
X23398910Y12314498D01*
X23398910Y12325865D01*
X23399570Y12333410D01*
X23404207Y12359707D01*
X23398910Y12389748D01*
X23398910Y12404916D01*
X23391088Y12434109D01*
X23383178Y12478968D01*
X23378369Y12487297D01*
X23378368Y12487300D01*
X23358076Y12522447D01*
X23330298Y12570559D01*
X23330297Y12570560D01*
X23322627Y12583845D01*
X23287728Y12613129D01*
X23286252Y12614605D01*
X23286206Y12614652D01*
X23266363Y12634494D01*
X23266362Y12634495D01*
X23256517Y12640180D01*
X23250318Y12644521D01*
X23229860Y12661687D01*
X23229858Y12661688D01*
X23204768Y12670820D01*
X23201191Y12672122D01*
X23188057Y12679705D01*
X23158875Y12687524D01*
X23157076Y12688179D01*
X23116064Y12703107D01*
X23116061Y12703107D01*
X23100719Y12703107D01*
X22616061Y12703107D01*
X22494959Y12703107D01*
X22453931Y12688176D01*
X22453932Y12688175D01*
X22452152Y12687527D01*
X22422963Y12679705D01*
X22409830Y12672125D01*
X22406258Y12670824D01*
X22406258Y12670823D01*
X22381165Y12661688D01*
X22381162Y12661687D01*
X22357794Y12642080D01*
X22344658Y12634495D01*
X22323294Y12613133D01*
X22321834Y12611907D01*
X22288394Y12583846D01*
X22288393Y12583846D01*
X22277862Y12565606D01*
X22277859Y12565603D01*
X22246373Y12511066D01*
X22235512Y12492254D01*
X22235511Y12492252D01*
X22227842Y12478968D01*
X22219931Y12434109D01*
X22219340Y12431904D01*
X22219320Y12431834D01*
X22212110Y12404922D01*
X22212110Y12393550D01*
X22211450Y12386005D01*
X22207348Y12362744D01*
X22207348Y12362743D01*
X22206813Y12359707D01*
X21745870Y12359707D01*
X21758362Y12366919D01*
X21779728Y12388286D01*
X21814627Y12417569D01*
X21822298Y12430855D01*
X21867508Y12509160D01*
X21867508Y12509163D01*
X21875178Y12522446D01*
X21883088Y12567306D01*
X21890910Y12596498D01*
X21890910Y12607865D01*
X21891570Y12615410D01*
X21896207Y12641707D01*
X21891570Y12668005D01*
X21890910Y12675550D01*
X21890910Y13119667D01*
X21896207Y13149707D01*
X21890910Y13179748D01*
X21890910Y13194916D01*
X21890909Y13194923D01*
X21883579Y13222279D01*
X21882758Y13225980D01*
X21878985Y13247379D01*
X21875178Y13268968D01*
X21870369Y13277297D01*
X21870368Y13277300D01*
X21867029Y13283084D01*
X21822298Y13360559D01*
X21822297Y13360560D01*
X21814627Y13373845D01*
X21779728Y13403129D01*
X21778252Y13404605D01*
X21778206Y13404652D01*
X21758363Y13424494D01*
X21758362Y13424495D01*
X21748517Y13430180D01*
X21742318Y13434521D01*
X21721860Y13451687D01*
X21721858Y13451688D01*
X21696768Y13460820D01*
X21693191Y13462122D01*
X21680057Y13469705D01*
X21650875Y13477524D01*
X21649076Y13478179D01*
X21608064Y13493107D01*
X21608061Y13493107D01*
X21486959Y13493107D01*
X21445931Y13478176D01*
X21445932Y13478175D01*
X21444152Y13477527D01*
X21414963Y13469705D01*
X21401830Y13462125D01*
X21398258Y13460824D01*
X21398258Y13460823D01*
X21373165Y13451688D01*
X21373162Y13451687D01*
X21349794Y13432080D01*
X21336658Y13424495D01*
X21315294Y13403133D01*
X21313834Y13401907D01*
X21280394Y13373846D01*
X21280393Y13373846D01*
X21274899Y13364331D01*
X21273490Y13361889D01*
X21269862Y13355606D01*
X21269859Y13355603D01*
X21238211Y13300785D01*
X21227512Y13282254D01*
X21227511Y13282252D01*
X21219842Y13268968D01*
X21211931Y13224109D01*
X21211340Y13221904D01*
X21211320Y13221834D01*
X21204110Y13194922D01*
X21204110Y13183550D01*
X21203450Y13176005D01*
X21199348Y13152744D01*
X21199348Y13152743D01*
X21198813Y13149707D01*
X15597745Y13149707D01*
X15597745Y15195707D01*
X17198813Y15195707D01*
X17219841Y15076448D01*
X17219841Y15076447D01*
X17219842Y15076446D01*
X17280393Y14971569D01*
X17373161Y14893727D01*
X17397605Y14884830D01*
X17486956Y14852308D01*
X17486957Y14852307D01*
X17486959Y14852307D01*
X17608063Y14852307D01*
X17608063Y14852308D01*
X17721859Y14893727D01*
X17762355Y14927707D01*
X21198813Y14927707D01*
X21203450Y14901410D01*
X21204110Y14893865D01*
X21204110Y14449748D01*
X21198813Y14419707D01*
X21204110Y14389667D01*
X21204110Y14374495D01*
X21211439Y14347140D01*
X21212259Y14343442D01*
X21219841Y14300447D01*
X21226412Y14289066D01*
X21226415Y14289060D01*
X21272696Y14208900D01*
X21280393Y14195569D01*
X21313836Y14167506D01*
X21315296Y14166281D01*
X21336658Y14144919D01*
X21349785Y14137340D01*
X21352699Y14134895D01*
X21352702Y14134893D01*
X21370758Y14119743D01*
X21373161Y14117727D01*
X21401826Y14107294D01*
X21414963Y14099709D01*
X21444151Y14091889D01*
X21445937Y14091239D01*
X21486958Y14076307D01*
X21486959Y14076307D01*
X21608062Y14076307D01*
X21620436Y14080812D01*
X21650868Y14091889D01*
X21680057Y14099709D01*
X21693193Y14107294D01*
X21721859Y14117727D01*
X21745227Y14137336D01*
X21758362Y14144919D01*
X21779728Y14166286D01*
X21814627Y14195569D01*
X21822324Y14208900D01*
X21867508Y14287160D01*
X21867508Y14287163D01*
X21875178Y14300446D01*
X21883088Y14345306D01*
X21890910Y14374498D01*
X21890910Y14385865D01*
X21891570Y14393410D01*
X21893644Y14405174D01*
X21896207Y14419707D01*
X21891570Y14446005D01*
X21890910Y14453550D01*
X21890910Y14897667D01*
X21896207Y14927707D01*
X21890910Y14957748D01*
X21890910Y14972916D01*
X21890909Y14972923D01*
X21883579Y15000279D01*
X21882758Y15003980D01*
X21879158Y15024395D01*
X21875178Y15046968D01*
X21867508Y15060252D01*
X21867508Y15060254D01*
X21839381Y15108970D01*
X22159305Y15108970D01*
X22159305Y15108968D01*
X22165965Y15071192D01*
X22166547Y15066254D01*
X22167928Y15043263D01*
X22173204Y15027433D01*
X22174773Y15021241D01*
X22178469Y15000279D01*
X22180334Y14989707D01*
X22187761Y14976842D01*
X22190024Y14972922D01*
X22193218Y14967391D01*
X22196520Y14957486D01*
X22215767Y14928335D01*
X22240885Y14884830D01*
X22283668Y14848931D01*
X22313992Y14822041D01*
X22318250Y14819912D01*
X22322165Y14816627D01*
X22322168Y14816625D01*
X22330570Y14809575D01*
X22333654Y14806987D01*
X22359995Y14797401D01*
X22372047Y14793014D01*
X22394866Y14781604D01*
X22414345Y14777618D01*
X22433241Y14770741D01*
X22447450Y14765568D01*
X22447451Y14765568D01*
X22473226Y14765568D01*
X22483449Y14763476D01*
X22518299Y14765568D01*
X22568553Y14765568D01*
X22568554Y14765568D01*
X22582257Y14770557D01*
X22620545Y14784493D01*
X22621535Y14784838D01*
X23149083Y14960686D01*
X23153907Y14960686D01*
X23206379Y14979785D01*
X23244837Y14992604D01*
X23244840Y14992607D01*
X23244846Y14992608D01*
X23247405Y14993852D01*
X23247496Y14993664D01*
X23252621Y14996219D01*
X23310231Y15016657D01*
X24043340Y15016657D01*
X24064368Y14897398D01*
X24064368Y14897397D01*
X24064369Y14897396D01*
X24124919Y14792520D01*
X24124921Y14792518D01*
X24180210Y14746124D01*
X24195566Y14716627D01*
X24185565Y14684911D01*
X24180211Y14679556D01*
X24137877Y14644033D01*
X24077325Y14539155D01*
X24056297Y14419895D01*
X24077325Y14300636D01*
X24077325Y14300635D01*
X24077326Y14300634D01*
X24137877Y14195757D01*
X24230645Y14117915D01*
X24303935Y14091239D01*
X24344440Y14076496D01*
X24344441Y14076495D01*
X24344443Y14076495D01*
X24465547Y14076495D01*
X24465547Y14076496D01*
X24579343Y14117915D01*
X24672111Y14195757D01*
X24732662Y14300634D01*
X24753691Y14419895D01*
X24732662Y14539156D01*
X24672111Y14644033D01*
X24672109Y14644035D01*
X24616820Y14690429D01*
X24601464Y14719926D01*
X24611465Y14751642D01*
X24616813Y14756992D01*
X24659154Y14792519D01*
X24719705Y14897396D01*
X24740734Y15016657D01*
X24719705Y15135918D01*
X24659154Y15240795D01*
X24566386Y15318637D01*
X24566384Y15318638D01*
X24452590Y15360057D01*
X24452588Y15360057D01*
X24331486Y15360057D01*
X24331484Y15360057D01*
X24217690Y15318638D01*
X24124920Y15240795D01*
X24064368Y15135917D01*
X24043340Y15016657D01*
X23310231Y15016657D01*
X23750621Y15172891D01*
X23756293Y15174386D01*
X23756900Y15174607D01*
X23756901Y15174607D01*
X23798157Y15189625D01*
X23799818Y15190219D01*
X23828897Y15198009D01*
X23840761Y15204860D01*
X23844243Y15206105D01*
X23844453Y15206179D01*
X23844474Y15206178D01*
X23844553Y15206215D01*
X23853773Y15209485D01*
X23853778Y15209489D01*
X23853992Y15209597D01*
X23858882Y15211727D01*
X23870699Y15216027D01*
X23891168Y15233204D01*
X23892857Y15234550D01*
X23895011Y15236182D01*
X23907202Y15243219D01*
X23916226Y15252245D01*
X23918606Y15254046D01*
X23918916Y15254127D01*
X23920208Y15255202D01*
X23920681Y15255527D01*
X23928260Y15260742D01*
X23936675Y15270608D01*
X23941792Y15275683D01*
X23963467Y15293869D01*
X23971581Y15307921D01*
X23975648Y15314968D01*
X23978013Y15319065D01*
X23986943Y15329531D01*
X24000538Y15358079D01*
X24016348Y15385460D01*
X24016348Y15385462D01*
X24019208Y15390415D01*
X24019208Y15390417D01*
X24024018Y15398746D01*
X24031642Y15441984D01*
X24031957Y15443716D01*
X24039750Y15472798D01*
X24039750Y15486500D01*
X24040453Y15490359D01*
X24040464Y15490378D01*
X24040473Y15490468D01*
X24040982Y15493222D01*
X24042249Y15500079D01*
X24042248Y15500092D01*
X24042260Y15500312D01*
X24042864Y15505628D01*
X24045047Y15518005D01*
X24045047Y15518007D01*
X24040410Y15544305D01*
X24039750Y15551850D01*
X24039750Y16087967D01*
X24045047Y16118007D01*
X24039750Y16148048D01*
X24039750Y16684165D01*
X24040410Y16691710D01*
X24045047Y16718007D01*
X24040410Y16744305D01*
X24039750Y16751850D01*
X24039750Y17287967D01*
X24045047Y17318007D01*
X24039750Y17348048D01*
X24039750Y17884165D01*
X24040410Y17891710D01*
X24045047Y17918007D01*
X24039750Y17948048D01*
X24039750Y17963216D01*
X24031928Y17992409D01*
X24024018Y18037268D01*
X24019209Y18045597D01*
X24019208Y18045600D01*
X23973999Y18123903D01*
X23971138Y18128859D01*
X23971137Y18128860D01*
X23963467Y18142145D01*
X23928568Y18171429D01*
X23927092Y18172905D01*
X23927046Y18172952D01*
X23907203Y18192794D01*
X23907202Y18192795D01*
X23897357Y18198480D01*
X23891158Y18202821D01*
X23870700Y18219987D01*
X23870698Y18219988D01*
X23845608Y18229120D01*
X23842031Y18230422D01*
X23828897Y18238005D01*
X23799715Y18245824D01*
X23797916Y18246479D01*
X23756904Y18261407D01*
X23756901Y18261407D01*
X23635799Y18261407D01*
X23594771Y18246476D01*
X23594772Y18246475D01*
X23592992Y18245827D01*
X23563803Y18238005D01*
X23550670Y18230425D01*
X23547098Y18229124D01*
X23547098Y18229123D01*
X23522005Y18219988D01*
X23522002Y18219987D01*
X23498634Y18200380D01*
X23485498Y18192795D01*
X23464134Y18171433D01*
X23462674Y18170207D01*
X23429234Y18142146D01*
X23429233Y18142146D01*
X23418702Y18123906D01*
X23418699Y18123903D01*
X23386256Y18067709D01*
X23376352Y18050554D01*
X23376351Y18050552D01*
X23368682Y18037268D01*
X23360771Y17992409D01*
X23360180Y17990204D01*
X23360160Y17990134D01*
X23352950Y17963222D01*
X23352950Y17951850D01*
X23352290Y17944305D01*
X23347653Y17918007D01*
X23352290Y17891710D01*
X23352950Y17884165D01*
X23352950Y17348048D01*
X23347653Y17318007D01*
X23352950Y17287967D01*
X23352950Y16751850D01*
X23352290Y16744305D01*
X23347653Y16718007D01*
X23352290Y16691710D01*
X23352950Y16684165D01*
X23352950Y16148048D01*
X23347653Y16118007D01*
X23352950Y16087967D01*
X23352950Y15791240D01*
X23340224Y15760516D01*
X23324027Y15750291D01*
X23039089Y15649205D01*
X23033411Y15647707D01*
X22980861Y15628581D01*
X22979741Y15628191D01*
X22589143Y15497991D01*
X22452274Y15452368D01*
X22447451Y15452368D01*
X22395004Y15433279D01*
X22394405Y15433079D01*
X22394404Y15433080D01*
X22356519Y15420451D01*
X22353960Y15419206D01*
X22353959Y15419207D01*
X22347737Y15416076D01*
X22333658Y15410951D01*
X22333654Y15410949D01*
X22304270Y15386293D01*
X22304269Y15386294D01*
X22302351Y15384686D01*
X22281065Y15370630D01*
X22267873Y15355755D01*
X22265417Y15353693D01*
X22265411Y15353686D01*
X22240883Y15333105D01*
X22230197Y15314599D01*
X22230198Y15314598D01*
X22227995Y15310784D01*
X22221075Y15302978D01*
X22205464Y15271759D01*
X22204808Y15270621D01*
X22180334Y15228230D01*
X22170735Y15173801D01*
X22170513Y15172637D01*
X22162510Y15133526D01*
X22162309Y15130688D01*
X22162306Y15130689D01*
X22161907Y15123730D01*
X22159305Y15108970D01*
X21839381Y15108970D01*
X21822298Y15138559D01*
X21822297Y15138560D01*
X21820874Y15141025D01*
X21820866Y15141040D01*
X21814627Y15151845D01*
X21781181Y15179910D01*
X21781181Y15179911D01*
X21779720Y15181137D01*
X21758362Y15202495D01*
X21745231Y15210077D01*
X21742317Y15212522D01*
X21721860Y15229687D01*
X21721858Y15229688D01*
X21696768Y15238820D01*
X21693191Y15240122D01*
X21680057Y15247705D01*
X21650875Y15255524D01*
X21649076Y15256179D01*
X21608064Y15271107D01*
X21608061Y15271107D01*
X21486959Y15271107D01*
X21445931Y15256176D01*
X21445932Y15256175D01*
X21444152Y15255527D01*
X21414963Y15247705D01*
X21401830Y15240125D01*
X21398258Y15238824D01*
X21398258Y15238823D01*
X21382793Y15233193D01*
X21373162Y15229687D01*
X21349794Y15210080D01*
X21336658Y15202495D01*
X21315294Y15181133D01*
X21313834Y15179907D01*
X21280394Y15151846D01*
X21280393Y15151846D01*
X21269862Y15133606D01*
X21269859Y15133603D01*
X21245290Y15091046D01*
X21227512Y15060254D01*
X21227511Y15060252D01*
X21219842Y15046968D01*
X21211931Y15002109D01*
X21211340Y14999904D01*
X21211320Y14999834D01*
X21204110Y14972922D01*
X21204110Y14961550D01*
X21203450Y14954005D01*
X21198813Y14927707D01*
X17762355Y14927707D01*
X17814627Y14971569D01*
X17875178Y15076446D01*
X17896207Y15195707D01*
X17875178Y15314968D01*
X17814627Y15419845D01*
X17721859Y15497687D01*
X17721857Y15497688D01*
X17608063Y15539107D01*
X17608061Y15539107D01*
X17486959Y15539107D01*
X17486957Y15539107D01*
X17373163Y15497688D01*
X17280393Y15419845D01*
X17219841Y15314967D01*
X17198813Y15195707D01*
X15597745Y15195707D01*
X15597745Y15380111D01*
X15597751Y15380180D01*
X15597749Y15384547D01*
X15597751Y15384549D01*
X15597745Y15406358D01*
X15597745Y15424502D01*
X15597740Y15424515D01*
X15597740Y15424531D01*
X15589257Y15444993D01*
X15582445Y15461440D01*
X15582442Y15461443D01*
X15582439Y15461451D01*
X15582434Y15461459D01*
X15582430Y15461465D01*
X15566531Y15477354D01*
X15566522Y15477363D01*
X15554174Y15489711D01*
X15554162Y15489716D01*
X15554150Y15489728D01*
X15534198Y15497985D01*
X15534197Y15497986D01*
X15534198Y15497988D01*
X15534183Y15497991D01*
X15528141Y15500494D01*
X15517233Y15505013D01*
X15517210Y15505017D01*
X15517207Y15505017D01*
X15501748Y15505013D01*
X15496595Y15505011D01*
X15477254Y15505011D01*
X15477242Y15505007D01*
X15473496Y15505006D01*
X15473496Y15505005D01*
X591Y15500500D01*
X-19993Y15500500D01*
X-20012Y15500497D01*
X-20020Y15500495D01*
X-20020Y15500494D01*
X-37564Y15493222D01*
X-56932Y15485200D01*
X-56951Y15485187D01*
X-70940Y15471192D01*
X-71082Y15471049D01*
X-71086Y15471044D01*
X-85200Y15456929D01*
X-85206Y15456916D01*
X-85217Y15456904D01*
X-85353Y15456577D01*
X-85353Y15456576D01*
X-87222Y15452060D01*
X-93244Y15437510D01*
X-100500Y15419991D01*
X-100500Y15419977D01*
X-100506Y15419962D01*
X-11797670Y15419962D01*
X-11797670Y15582707D01*
X19279813Y15582707D01*
X19284579Y15555675D01*
X19284686Y15554919D01*
X19285110Y15548865D01*
X19285110Y15537495D01*
X19292439Y15510140D01*
X19293259Y15506442D01*
X19300841Y15463447D01*
X19307412Y15452066D01*
X19307415Y15452060D01*
X19351084Y15376423D01*
X19351085Y15376422D01*
X19353722Y15371855D01*
X19361393Y15358569D01*
X19396291Y15329286D01*
X19397928Y15327649D01*
X19397953Y15327623D01*
X19409957Y15315620D01*
X19417658Y15307919D01*
X19421734Y15305566D01*
X19427500Y15302236D01*
X19433702Y15297893D01*
X19451758Y15282743D01*
X19454161Y15280727D01*
X19482826Y15270294D01*
X19495963Y15262709D01*
X19525151Y15254889D01*
X19527467Y15254046D01*
X19567958Y15239307D01*
X19567959Y15239307D01*
X20197062Y15239307D01*
X20209436Y15243812D01*
X20239868Y15254889D01*
X20269057Y15262709D01*
X20282193Y15270294D01*
X20286197Y15271751D01*
X20310856Y15280726D01*
X20310855Y15280726D01*
X20310859Y15280727D01*
X20334227Y15300336D01*
X20347362Y15307919D01*
X20368728Y15329286D01*
X20403627Y15358569D01*
X20411298Y15371855D01*
X20456508Y15450160D01*
X20456508Y15450163D01*
X20464178Y15463446D01*
X20472088Y15508306D01*
X20479910Y15537498D01*
X20479910Y15548865D01*
X20480570Y15556410D01*
X20485207Y15582707D01*
X20479910Y15612748D01*
X20479910Y15627916D01*
X20472088Y15657109D01*
X20464178Y15701968D01*
X20459369Y15710297D01*
X20459368Y15710300D01*
X20436279Y15750291D01*
X20411298Y15793559D01*
X20411297Y15793560D01*
X20403627Y15806845D01*
X20368728Y15836129D01*
X20367252Y15837605D01*
X20367206Y15837652D01*
X20347363Y15857494D01*
X20347362Y15857495D01*
X20337517Y15863180D01*
X20331318Y15867521D01*
X20310860Y15884687D01*
X20310858Y15884688D01*
X20285768Y15893820D01*
X20282191Y15895122D01*
X20269057Y15902705D01*
X20239875Y15910524D01*
X20238076Y15911179D01*
X20197064Y15926107D01*
X20197061Y15926107D01*
X20181719Y15926107D01*
X19689061Y15926107D01*
X19567959Y15926107D01*
X19526931Y15911176D01*
X19526932Y15911175D01*
X19525152Y15910527D01*
X19495963Y15902705D01*
X19482830Y15895125D01*
X19479258Y15893824D01*
X19479258Y15893823D01*
X19454165Y15884688D01*
X19454162Y15884687D01*
X19430794Y15865080D01*
X19417658Y15857495D01*
X19396294Y15836133D01*
X19394834Y15834907D01*
X19361394Y15806846D01*
X19361393Y15806846D01*
X19350862Y15788606D01*
X19350859Y15788603D01*
X19318416Y15732409D01*
X19308512Y15715254D01*
X19308511Y15715252D01*
X19300842Y15701968D01*
X19292931Y15657109D01*
X19292340Y15654904D01*
X19292320Y15654834D01*
X19285110Y15627922D01*
X19285110Y15616550D01*
X19284450Y15609005D01*
X19280348Y15585744D01*
X19280348Y15585743D01*
X19279813Y15582707D01*
X-11797670Y15582707D01*
X-11797670Y16585707D01*
X6198813Y16585707D01*
X6219841Y16466448D01*
X6219841Y16466447D01*
X6219842Y16466446D01*
X6280393Y16361569D01*
X6373161Y16283727D01*
X6464009Y16250661D01*
X6486956Y16242308D01*
X6486957Y16242307D01*
X6486959Y16242307D01*
X6608063Y16242307D01*
X6608063Y16242308D01*
X6721859Y16283727D01*
X6814627Y16361569D01*
X6875178Y16466446D01*
X6896207Y16585707D01*
X6890917Y16615707D01*
X10410813Y16615707D01*
X10431841Y16496448D01*
X10431841Y16496447D01*
X10431842Y16496446D01*
X10492393Y16391569D01*
X10585161Y16313727D01*
X10667584Y16283727D01*
X10698956Y16272308D01*
X10698957Y16272307D01*
X10698959Y16272307D01*
X10820063Y16272307D01*
X10820063Y16272308D01*
X10933859Y16313727D01*
X11026627Y16391569D01*
X11087178Y16496446D01*
X11108207Y16615707D01*
X11103659Y16641502D01*
X14777487Y16641502D01*
X14798515Y16522243D01*
X14798515Y16522242D01*
X14798516Y16522241D01*
X14859067Y16417364D01*
X14951835Y16339522D01*
X15022705Y16313727D01*
X15065630Y16298103D01*
X15065631Y16298102D01*
X15065633Y16298102D01*
X15186737Y16298102D01*
X15186737Y16298103D01*
X15300533Y16339522D01*
X15355574Y16385707D01*
X16598813Y16385707D01*
X16619841Y16266448D01*
X16619841Y16266447D01*
X16619842Y16266446D01*
X16680393Y16161569D01*
X16773161Y16083727D01*
X16864009Y16050661D01*
X16886956Y16042308D01*
X16886957Y16042307D01*
X16886959Y16042307D01*
X17008063Y16042307D01*
X17008063Y16042308D01*
X17121859Y16083727D01*
X17214627Y16161569D01*
X17275178Y16266446D01*
X17296207Y16385707D01*
X17598813Y16385707D01*
X17619841Y16266448D01*
X17619841Y16266447D01*
X17619842Y16266446D01*
X17680393Y16161569D01*
X17773161Y16083727D01*
X17864009Y16050661D01*
X17886956Y16042308D01*
X17886957Y16042307D01*
X17886959Y16042307D01*
X18008063Y16042307D01*
X18008063Y16042308D01*
X18121859Y16083727D01*
X18214627Y16161569D01*
X18275178Y16266446D01*
X18296207Y16385707D01*
X18275178Y16504968D01*
X18214627Y16609845D01*
X18121859Y16687687D01*
X18121857Y16687688D01*
X18008063Y16729107D01*
X18008061Y16729107D01*
X17886959Y16729107D01*
X17886957Y16729107D01*
X17773163Y16687688D01*
X17680393Y16609845D01*
X17619841Y16504967D01*
X17598813Y16385707D01*
X17296207Y16385707D01*
X17275178Y16504968D01*
X17214627Y16609845D01*
X17121859Y16687687D01*
X17121857Y16687688D01*
X17008063Y16729107D01*
X17008061Y16729107D01*
X16886959Y16729107D01*
X16886957Y16729107D01*
X16773163Y16687688D01*
X16680393Y16609845D01*
X16619841Y16504967D01*
X16598813Y16385707D01*
X15355574Y16385707D01*
X15393301Y16417364D01*
X15453852Y16522241D01*
X15474881Y16641502D01*
X15453852Y16760763D01*
X15393301Y16865640D01*
X15300533Y16943482D01*
X15300531Y16943483D01*
X15186737Y16984902D01*
X15186735Y16984902D01*
X15065633Y16984902D01*
X15065631Y16984902D01*
X14951837Y16943483D01*
X14859067Y16865640D01*
X14798515Y16760762D01*
X14777487Y16641502D01*
X11103659Y16641502D01*
X11087178Y16734968D01*
X11026627Y16839845D01*
X10933859Y16917687D01*
X10933857Y16917688D01*
X10820063Y16959107D01*
X10820061Y16959107D01*
X10698959Y16959107D01*
X10698957Y16959107D01*
X10585163Y16917688D01*
X10492393Y16839845D01*
X10431841Y16734967D01*
X10410813Y16615707D01*
X6890917Y16615707D01*
X6875178Y16704968D01*
X6814627Y16809845D01*
X6721859Y16887687D01*
X6721857Y16887688D01*
X6608063Y16929107D01*
X6608061Y16929107D01*
X6486959Y16929107D01*
X6486957Y16929107D01*
X6373163Y16887688D01*
X6280393Y16809845D01*
X6219841Y16704967D01*
X6198813Y16585707D01*
X-11797670Y16585707D01*
X-11797670Y23261630D01*
X-11812970Y23298568D01*
X-11841241Y23326839D01*
X-11878179Y23342139D01*
X-11878180Y23342139D01*
X-14813532Y23342139D01*
X-14817790Y23342348D01*
X-14986883Y23359000D01*
X-14995237Y23360662D01*
X-15155771Y23409355D01*
X-15163639Y23412613D01*
X-15311601Y23491690D01*
X-15318683Y23496422D01*
X-15448369Y23602838D01*
X-15454390Y23608857D01*
X-15560839Y23738541D01*
X-15565557Y23745601D01*
X-15586999Y23785707D01*
X-12801187Y23785707D01*
X-12780159Y23666448D01*
X-12780159Y23666447D01*
X-12780158Y23666446D01*
X-12719607Y23561569D01*
X-12626839Y23483727D01*
X-12562857Y23460439D01*
X-12513044Y23442308D01*
X-12513043Y23442307D01*
X-12513041Y23442307D01*
X-12391937Y23442307D01*
X-12391937Y23442308D01*
X-12278141Y23483727D01*
X-12185373Y23561569D01*
X-12124822Y23666446D01*
X-12103793Y23785707D01*
X-12124822Y23904968D01*
X-12185373Y24009845D01*
X-12278141Y24087687D01*
X-12278143Y24087688D01*
X-12391937Y24129107D01*
X-12391939Y24129107D01*
X-12513041Y24129107D01*
X-12513043Y24129107D01*
X-12626837Y24087688D01*
X-12719607Y24009845D01*
X-12780159Y23904967D01*
X-12801187Y23785707D01*
X-15586999Y23785707D01*
X-15644661Y23893557D01*
X-15647921Y23901425D01*
X-15684763Y24022819D01*
X-15696641Y24061955D01*
X-15698303Y24070307D01*
X-15700893Y24096560D01*
X-15714958Y24239157D01*
X-15715168Y24243422D01*
X-15715168Y25955734D01*
X-15715136Y25957411D01*
X-15700638Y26332791D01*
X-15700379Y26336134D01*
X-15675923Y26546366D01*
X-15657071Y26708439D01*
X-15656556Y26711741D01*
X-15612796Y26935650D01*
X-15584662Y27079605D01*
X-15583901Y27082834D01*
X-15483847Y27444067D01*
X-15482837Y27447233D01*
X-15355228Y27799660D01*
X-15353966Y27802764D01*
X-15240811Y28053048D01*
X-15199546Y28144321D01*
X-15198066Y28147284D01*
X-15017584Y28476244D01*
X-15016775Y28477655D01*
X-14633962Y29115677D01*
X-14540780Y29270914D01*
X-14364712Y29623442D01*
X-14216362Y29988503D01*
X-14096617Y30363919D01*
X-14006189Y30747454D01*
X-13945617Y31136822D01*
X-13915263Y31529703D01*
X-13915320Y31726728D01*
X-13915323Y31753657D01*
X-13915324Y31753658D01*
X-13916422Y41794075D01*
X-13916422Y41811006D01*
X-13916424Y41811011D01*
X-13916424Y41811030D01*
X-13931728Y41847966D01*
X-13960002Y41876234D01*
X-13960005Y41876236D01*
X-13960006Y41876236D01*
X-13996937Y41891529D01*
X-13996942Y41891530D01*
X-13996943Y41891530D01*
X-14041086Y41891527D01*
X-14041199Y41891515D01*
X-20675817Y41891515D01*
X-20680075Y41891724D01*
X-20849165Y41908375D01*
X-20857518Y41910037D01*
X-21018047Y41958727D01*
X-21025917Y41961986D01*
X-21173867Y42041060D01*
X-21180949Y42045791D01*
X-21310636Y42152211D01*
X-21316659Y42158234D01*
X-21423088Y42287904D01*
X-21427820Y42294986D01*
X-21506909Y42442930D01*
X-21510169Y42450798D01*
X-21514958Y42466580D01*
X-21558877Y42611329D01*
X-21560539Y42619682D01*
X-21565123Y42666186D01*
X-21577245Y42789160D01*
X-21577454Y42793390D01*
X-21577454Y42793444D01*
X-12679773Y42793444D01*
X-12679773Y42793441D01*
X-12674316Y42762490D01*
X-12673669Y42756001D01*
X-12673279Y42739916D01*
X-12666614Y42717254D01*
X-12665509Y42712541D01*
X-12658745Y42674182D01*
X-12658170Y42673186D01*
X-12648958Y42657231D01*
X-12647763Y42653169D01*
X-12626393Y42618144D01*
X-12626120Y42617672D01*
X-12626114Y42617662D01*
X-12598193Y42569304D01*
X-12561159Y42538228D01*
X-12561158Y42538228D01*
X-12560108Y42537347D01*
X-12535200Y42513619D01*
X-12525574Y42508369D01*
X-12522253Y42505582D01*
X-12522253Y42505581D01*
X-12505427Y42491463D01*
X-12505426Y42491463D01*
X-12505425Y42491462D01*
X-12505422Y42491461D01*
X-12475886Y42480710D01*
X-12475887Y42480710D01*
X-12472812Y42479591D01*
X-12455820Y42470323D01*
X-12430527Y42464200D01*
X-12428259Y42463374D01*
X-12428243Y42463370D01*
X-12391627Y42450042D01*
X-12372050Y42450042D01*
X-12367940Y42449047D01*
X-12326928Y42450042D01*
X-12270525Y42450042D01*
X-12270524Y42450042D01*
X-12250688Y42457263D01*
X-12223794Y42467052D01*
X-12190803Y42476755D01*
X-12181445Y42482466D01*
X-12156727Y42491462D01*
X-12132645Y42511671D01*
X-12127370Y42515461D01*
X-11821844Y42701883D01*
X-11208525Y42701883D01*
X-11208525Y42701881D01*
X-11203466Y42673186D01*
X-11202809Y42666186D01*
X-11200357Y42470323D01*
X-11196267Y42143615D01*
X-11201187Y42115707D01*
X-11195516Y42083541D01*
X-11195471Y42080011D01*
X-11195470Y42080010D01*
X-11195297Y42066202D01*
X-11188283Y42041274D01*
X-11187319Y42037052D01*
X-11180158Y41996446D01*
X-11171397Y41981271D01*
X-11170804Y41979165D01*
X-11148838Y41942194D01*
X-11148668Y41941901D01*
X-11119607Y41891569D01*
X-11084306Y41861947D01*
X-11083056Y41860899D01*
X-11059886Y41838301D01*
X-11048552Y41831946D01*
X-11045434Y41829329D01*
X-11045427Y41829324D01*
X-11026839Y41813727D01*
X-10999457Y41803760D01*
X-10999456Y41803760D01*
X-10996138Y41802553D01*
X-10981021Y41794075D01*
X-10953826Y41787152D01*
X-10927447Y41777551D01*
X-10913042Y41772307D01*
X-10913041Y41772307D01*
X-10895514Y41772307D01*
X-10893397Y41771768D01*
X-10850348Y41772307D01*
X-10791939Y41772307D01*
X-10791938Y41772307D01*
X-10782423Y41775771D01*
X-10747110Y41788625D01*
X-10715948Y41797393D01*
X-10704771Y41804035D01*
X-10678141Y41813727D01*
X-10653114Y41834728D01*
X-10638215Y41843580D01*
X-10618622Y41863670D01*
X-10585373Y41891569D01*
X-10576611Y41906746D01*
X-10575084Y41908311D01*
X-10554003Y41945904D01*
X-10524822Y41996446D01*
X-10516539Y42043426D01*
X-10508551Y42074800D01*
X-10508714Y42087801D01*
X-10503793Y42115707D01*
X-10508856Y42144416D01*
X-10509511Y42151396D01*
X-10516052Y42673974D01*
X-10511131Y42701881D01*
X-10516805Y42734055D01*
X-10517021Y42751385D01*
X-10522481Y42770786D01*
X-10524035Y42776310D01*
X-10525000Y42780535D01*
X-10532160Y42821142D01*
X-10532160Y42821143D01*
X-10538425Y42831994D01*
X-10538425Y42831993D01*
X-10540922Y42836318D01*
X-10541514Y42838423D01*
X-10563527Y42875471D01*
X-10592711Y42926019D01*
X-10629258Y42956686D01*
X-10652432Y42979287D01*
X-10663771Y42985646D01*
X-10685479Y43003861D01*
X-10688943Y43005122D01*
X-10712866Y43013830D01*
X-10712866Y43013831D01*
X-10716187Y43015040D01*
X-10731297Y43023513D01*
X-10758481Y43030434D01*
X-10760525Y43031178D01*
X-10760529Y43031179D01*
X-10799276Y43045281D01*
X-10799277Y43045281D01*
X-10816804Y43045281D01*
X-10818921Y43045820D01*
X-10861970Y43045281D01*
X-10920379Y43045281D01*
X-10920380Y43045281D01*
X-10963687Y43029521D01*
X-10963686Y43029520D01*
X-10965223Y43028961D01*
X-10996370Y43020195D01*
X-11007549Y43013553D01*
X-11011379Y43012160D01*
X-11011379Y43012159D01*
X-11034176Y43003862D01*
X-11056500Y42985130D01*
X-11056501Y42985131D01*
X-11059210Y42982858D01*
X-11074103Y42974008D01*
X-11093695Y42953921D01*
X-11095360Y42952523D01*
X-11126942Y42926023D01*
X-11126945Y42926020D01*
X-11133216Y42915160D01*
X-11133217Y42915161D01*
X-11135713Y42910839D01*
X-11137234Y42909277D01*
X-11158278Y42871753D01*
X-11158417Y42871512D01*
X-11158451Y42871451D01*
X-11187496Y42821143D01*
X-11195499Y42775760D01*
X-11196182Y42772588D01*
X-11203766Y42742794D01*
X-11203767Y42742784D01*
X-11203656Y42733858D01*
X-11204313Y42725776D01*
X-11208525Y42701883D01*
X-11821844Y42701883D01*
X-11690487Y42782033D01*
X-11682728Y42785767D01*
X-11662076Y42793283D01*
X-11635498Y42815586D01*
X-11618968Y42825671D01*
X-11601003Y42844530D01*
X-11569308Y42871125D01*
X-11559524Y42888073D01*
X-11556602Y42891139D01*
X-11536936Y42927196D01*
X-11508757Y42976002D01*
X-11500122Y43024979D01*
X-11492030Y43058399D01*
X-11492296Y43069358D01*
X-11487728Y43095263D01*
X-11493754Y43129435D01*
X-11494223Y43148791D01*
X-11501572Y43173776D01*
X-11508757Y43214524D01*
X-11518544Y43231475D01*
X-11519738Y43235536D01*
X-11541129Y43270594D01*
X-11569308Y43319401D01*
X-11607399Y43351364D01*
X-11632302Y43375086D01*
X-11641927Y43380336D01*
X-11645247Y43383122D01*
X-11645248Y43383124D01*
X-11662075Y43397243D01*
X-11662076Y43397244D01*
X-11691612Y43407994D01*
X-11694686Y43409113D01*
X-11711681Y43418382D01*
X-11736981Y43424508D01*
X-11739261Y43425338D01*
X-11739265Y43425339D01*
X-11775874Y43438663D01*
X-11795451Y43438663D01*
X-11799561Y43439658D01*
X-11840574Y43438663D01*
X-11896976Y43438663D01*
X-11942419Y43422124D01*
X-11942420Y43422125D01*
X-11943728Y43421650D01*
X-11976698Y43411950D01*
X-11986054Y43406243D01*
X-11990123Y43404761D01*
X-11990129Y43404758D01*
X-12010772Y43397244D01*
X-12034847Y43377044D01*
X-12040142Y43373240D01*
X-12477015Y43106674D01*
X-12477016Y43106675D01*
X-12480721Y43104415D01*
X-12505424Y43095422D01*
X-12531998Y43073126D01*
X-12534793Y43071420D01*
X-12548529Y43063038D01*
X-12548538Y43063030D01*
X-12564835Y43045924D01*
X-12568363Y43042611D01*
X-12598194Y43017580D01*
X-12604710Y43006294D01*
X-12607978Y43000633D01*
X-12610899Y42997566D01*
X-12630561Y42961518D01*
X-12630828Y42961056D01*
X-12630830Y42961056D01*
X-12658745Y42912703D01*
X-12667145Y42865065D01*
X-12667705Y42862388D01*
X-12675471Y42830307D01*
X-12675472Y42830305D01*
X-12675311Y42823678D01*
X-12675958Y42815085D01*
X-12679773Y42793444D01*
X-21577454Y42793444D01*
X-21577455Y42817815D01*
X-21577455Y42824235D01*
X-21577458Y42824255D01*
X-21577463Y42863725D01*
X-21577676Y44415707D01*
X-15089187Y44415707D01*
X-15068159Y44296448D01*
X-15068159Y44296447D01*
X-15068158Y44296446D01*
X-15007607Y44191569D01*
X-14914839Y44113727D01*
X-14837859Y44085708D01*
X-14801044Y44072308D01*
X-14801043Y44072307D01*
X-14801041Y44072307D01*
X-14679937Y44072307D01*
X-14679937Y44072308D01*
X-14566141Y44113727D01*
X-14473373Y44191569D01*
X-14412822Y44296446D01*
X-14391793Y44415707D01*
X-14412822Y44534968D01*
X-14473373Y44639845D01*
X-14566141Y44717687D01*
X-14566143Y44717688D01*
X-14679937Y44759107D01*
X-14679939Y44759107D01*
X-14801041Y44759107D01*
X-14801043Y44759107D01*
X-14914837Y44717688D01*
X-15007607Y44639845D01*
X-15068159Y44534967D01*
X-15089187Y44415707D01*
X-21577676Y44415707D01*
X-21577918Y46185707D01*
X-16801187Y46185707D01*
X-16780159Y46066448D01*
X-16780159Y46066447D01*
X-16780158Y46066446D01*
X-16719607Y45961569D01*
X-16626839Y45883727D01*
X-16535991Y45850661D01*
X-16513044Y45842308D01*
X-16513043Y45842307D01*
X-16513041Y45842307D01*
X-16391937Y45842307D01*
X-16391937Y45842308D01*
X-16278141Y45883727D01*
X-16185373Y45961569D01*
X-16124822Y46066446D01*
X-16103793Y46185707D01*
X-16124822Y46304968D01*
X-16185373Y46409845D01*
X-16278141Y46487687D01*
X-16278143Y46487688D01*
X-16391937Y46529107D01*
X-16391939Y46529107D01*
X-16513041Y46529107D01*
X-16513043Y46529107D01*
X-16626837Y46487688D01*
X-16719607Y46409845D01*
X-16780159Y46304967D01*
X-16801187Y46185707D01*
X-21577918Y46185707D01*
X-21578014Y46885707D01*
X-20401187Y46885707D01*
X-20380159Y46766448D01*
X-20380159Y46766447D01*
X-20380158Y46766446D01*
X-20319607Y46661569D01*
X-20226839Y46583727D01*
X-20147870Y46554984D01*
X-20113044Y46542308D01*
X-20113043Y46542307D01*
X-20113041Y46542307D01*
X-19991937Y46542307D01*
X-19991937Y46542308D01*
X-19878141Y46583727D01*
X-19785373Y46661569D01*
X-19724822Y46766446D01*
X-19703793Y46885707D01*
X-19724822Y47004968D01*
X-19785373Y47109845D01*
X-19878141Y47187687D01*
X-19878143Y47187688D01*
X-19991937Y47229107D01*
X-19991939Y47229107D01*
X-20113041Y47229107D01*
X-20113043Y47229107D01*
X-20226837Y47187688D01*
X-20319607Y47109845D01*
X-20380159Y47004967D01*
X-20401187Y46885707D01*
X-21578014Y46885707D01*
X-21578061Y47229100D01*
X-21577852Y47233357D01*
X-21577766Y47234228D01*
X-21561202Y47402473D01*
X-21559544Y47410815D01*
X-21510840Y47571394D01*
X-21507583Y47579254D01*
X-21428497Y47727231D01*
X-21423766Y47734313D01*
X-21317330Y47864021D01*
X-21311313Y47870040D01*
X-21181608Y47976500D01*
X-21174542Y47981222D01*
X-21026562Y48060333D01*
X-21018701Y48063589D01*
X-20858137Y48112310D01*
X-20849788Y48113971D01*
X-20756624Y48123155D01*
X-20680539Y48130655D01*
X-20676276Y48130865D01*
X-10782598Y48130865D01*
X-10782584Y48130864D01*
G37*
%TD.AperFunction*%
%TD*%
M02*
