%TF.GenerationSoftware,KiCad,Pcbnew,8.99.0-417-ga763d613e5*%
%TF.CreationDate,2024-05-16T16:31:54-04:00*%
%TF.ProjectId,thundervolt,7468756e-6465-4727-966f-6c742e6b6963,rev?*%
%TF.SameCoordinates,PX85b368ePY7384544*%
%TF.FileFunction,Copper,L2,Inr*%
%TF.FilePolarity,Positive*%
%FSLAX46Y46*%
G04 Gerber Fmt 4.6, Leading zero omitted, Abs format (unit mm)*
G04 Created by KiCad (PCBNEW 8.99.0-417-ga763d613e5) date 2024-05-16 16:31:54*
%MOMM*%
%LPD*%
G01*
G04 APERTURE LIST*
G04 Aperture macros list*
%AMRoundRect*
0 Rectangle with rounded corners*
0 $1 Rounding radius*
0 $2 $3 $4 $5 $6 $7 $8 $9 X,Y pos of 4 corners*
0 Add a 4 corners polygon primitive as box body*
4,1,4,$2,$3,$4,$5,$6,$7,$8,$9,$2,$3,0*
0 Add four circle primitives for the rounded corners*
1,1,$1+$1,$2,$3*
1,1,$1+$1,$4,$5*
1,1,$1+$1,$6,$7*
1,1,$1+$1,$8,$9*
0 Add four rect primitives between the rounded corners*
20,1,$1+$1,$2,$3,$4,$5,0*
20,1,$1+$1,$4,$5,$6,$7,0*
20,1,$1+$1,$6,$7,$8,$9,0*
20,1,$1+$1,$8,$9,$2,$3,0*%
G04 Aperture macros list end*
%TA.AperFunction,ComponentPad*%
%ADD10RoundRect,0.500000X-1.250000X-0.000010X1.250000X-0.000010X1.250000X0.000010X-1.250000X0.000010X0*%
%TD*%
%TA.AperFunction,ComponentPad*%
%ADD11RoundRect,0.500000X0.000010X-1.250000X0.000010X1.250000X-0.000010X1.250000X-0.000010X-1.250000X0*%
%TD*%
%TA.AperFunction,ComponentPad*%
%ADD12RoundRect,0.500000X0.000010X-0.250000X0.000010X0.250000X-0.000010X0.250000X-0.000010X-0.250000X0*%
%TD*%
%TA.AperFunction,ViaPad*%
%ADD13C,0.300000*%
%TD*%
%TA.AperFunction,Conductor*%
%ADD14C,0.300000*%
%TD*%
%TA.AperFunction,Conductor*%
%ADD15C,0.350000*%
%TD*%
%TA.AperFunction,Conductor*%
%ADD16C,0.088900*%
%TD*%
%TA.AperFunction,Conductor*%
%ADD17C,0.304800*%
%TD*%
G04 APERTURE END LIST*
D10*
%TO.N,GND*%
%TO.C,TP5*%
X23038914Y29068642D03*
%TD*%
D11*
%TO.N,+1V15*%
%TO.C,TP3*%
X7517570Y-4372602D03*
%TD*%
D10*
%TO.N,GND*%
%TO.C,TP7*%
X-13402430Y14547398D03*
%TD*%
D12*
%TO.N,+3V3*%
%TO.C,TP1*%
X24977570Y47527398D03*
%TD*%
D10*
%TO.N,+1V0*%
%TO.C,TP4*%
X-13402430Y23247398D03*
%TD*%
%TO.N,+1V8*%
%TO.C,TP2*%
X-19552430Y48237398D03*
%TD*%
D13*
%TO.N,GND*%
X-14100702Y27480205D03*
X-9687095Y9784750D03*
X5717570Y-4112602D03*
X-14349933Y28349088D03*
X-13415668Y42541502D03*
X20984332Y13841502D03*
X23384332Y28341502D03*
X-665668Y1641502D03*
X-13315668Y11041502D03*
X-17142430Y42787398D03*
X-1015668Y1641502D03*
X13934332Y17291502D03*
X18484332Y17841502D03*
X-13116372Y28050596D03*
X-13140792Y28449850D03*
X22134332Y27741502D03*
X18084332Y17841502D03*
X-2615668Y11041502D03*
X-11115697Y9819638D03*
X21185067Y43778918D03*
X-13015668Y13141502D03*
X24198914Y11693642D03*
X6234332Y16716039D03*
X18084332Y16741502D03*
X-13015668Y43441502D03*
X-14003889Y29701826D03*
X-13015668Y42141502D03*
X-10890985Y12348309D03*
X16216344Y7216418D03*
X-3515668Y17841502D03*
X18084332Y16341502D03*
X-14872430Y13217398D03*
X-13915668Y12241502D03*
X4817570Y-358498D03*
X-2815668Y10544371D03*
X-13615668Y11341502D03*
X-19015668Y43187398D03*
X-12872430Y13617398D03*
X24184332Y26241502D03*
X-12715668Y11041502D03*
X-13649019Y40162552D03*
X-15317587Y13517398D03*
X-14683731Y13921723D03*
X-18615668Y42387398D03*
X18484332Y16341502D03*
X-18615668Y42787398D03*
X-12517587Y12017398D03*
X11117570Y-2012602D03*
X4784332Y17941502D03*
X17842378Y2797052D03*
X-13950679Y28373508D03*
X-1315668Y13941502D03*
X-15173173Y27470305D03*
X-19415668Y43187398D03*
X18484332Y16741502D03*
X-17462430Y45287398D03*
X-815668Y10551502D03*
X-8090668Y10741502D03*
X18084332Y11041502D03*
X21998914Y7493642D03*
X18484332Y17441502D03*
X23384332Y26641502D03*
X23784332Y28341502D03*
X-11515668Y13241502D03*
X20184332Y13041502D03*
X21218682Y44121790D03*
X-9988477Y9514546D03*
X-19015668Y42787398D03*
X-20615668Y43187398D03*
X21184332Y43441502D03*
X-16042430Y42387398D03*
X-14515668Y11641502D03*
X24184332Y28341502D03*
X19784332Y13041502D03*
X-14878778Y44163655D03*
X17598914Y4593642D03*
X-13615668Y10741502D03*
X4817570Y-958498D03*
X-15317587Y12317398D03*
X-19815668Y42787398D03*
X-13658727Y36803503D03*
X-13790668Y43541502D03*
X3317570Y-658498D03*
X-7915668Y9341502D03*
X1858303Y16196228D03*
X-13415668Y42141502D03*
X15417570Y-2012602D03*
X18384332Y14741502D03*
X13337857Y-2030487D03*
X584332Y17241502D03*
X17584332Y10741502D03*
X22298914Y10493642D03*
X-13015668Y10741502D03*
X-17542430Y42387398D03*
X-2215668Y11041502D03*
X16527570Y2312398D03*
X-14872430Y12417398D03*
X22984332Y26241502D03*
X23689108Y46407508D03*
X-13615668Y12541502D03*
X-14072430Y13617398D03*
X-11604726Y10512945D03*
X19384332Y13441502D03*
X-14912430Y43267398D03*
X-12717118Y28075016D03*
X11534332Y16641502D03*
X24184332Y27041502D03*
X-11784158Y13552781D03*
X18484332Y10441502D03*
X20984332Y13041502D03*
X-13483731Y13921723D03*
X18984332Y13441502D03*
X4217570Y-958498D03*
X21064332Y8481502D03*
X-20215668Y43187398D03*
X22584332Y26641502D03*
X22198914Y13393642D03*
X-14215668Y11941502D03*
X-14325513Y27949834D03*
X-2815668Y10141502D03*
X17984332Y10441502D03*
X23384332Y26241502D03*
X-2615668Y11441502D03*
X-19415668Y42787398D03*
X23784332Y26241502D03*
X-13315668Y12241502D03*
X-11623297Y12270974D03*
X23784332Y26641502D03*
X23484332Y6941502D03*
X-11796211Y12997633D03*
X-2215668Y11441502D03*
X15834332Y7941502D03*
X10534332Y16391502D03*
X-13015668Y11941502D03*
X-13649019Y33735700D03*
X-13015668Y43841502D03*
X-13615668Y11941502D03*
X-12232430Y24457398D03*
X-13474993Y43120430D03*
X-2315668Y10441502D03*
X-14515668Y12241502D03*
X16384332Y841502D03*
X-7315668Y10267261D03*
X19428562Y2102219D03*
X20184332Y13441502D03*
X-2040668Y10041502D03*
X-13653006Y31521619D03*
X-12239117Y24844645D03*
X-13672430Y13617398D03*
X-13404897Y43619069D03*
X-2460454Y9972493D03*
X-12817587Y12317398D03*
X-20215668Y42387398D03*
X-14472430Y13617398D03*
X-13117587Y12617398D03*
X-2815668Y9741502D03*
X19784332Y13441502D03*
X23384332Y27691502D03*
X23384332Y27041502D03*
X24184332Y26641502D03*
X-7915668Y9741502D03*
X19063599Y4207773D03*
X-18615668Y43187398D03*
X-7845159Y10360397D03*
X-19415668Y42387398D03*
X-13083731Y13921723D03*
X3617570Y-358498D03*
X-10762853Y10333428D03*
X15954374Y6120177D03*
X-13015668Y11341502D03*
X16394161Y9245210D03*
X-14872430Y12817398D03*
X-14072430Y13217398D03*
X16904332Y15615502D03*
X22984332Y26641502D03*
X-13015668Y42541502D03*
X-14472430Y13217398D03*
X-15304334Y13929143D03*
X-9931319Y10054955D03*
X-12741538Y28474270D03*
X4217570Y-358498D03*
X24298914Y9093642D03*
X-19815668Y43187398D03*
X-13926259Y27974254D03*
X21185067Y43096537D03*
X-13315668Y10441502D03*
X-20615668Y42787398D03*
X-17142430Y42387398D03*
X16609332Y11766502D03*
X-1055973Y1242401D03*
X17484332Y11241502D03*
X-665668Y2141502D03*
X-14367183Y28995201D03*
X22405303Y6635950D03*
X-15317587Y12717398D03*
X15853691Y18287024D03*
X-12415668Y11341502D03*
X22584332Y28341502D03*
X-7691976Y10811606D03*
X-20615668Y42387398D03*
X20234332Y6091502D03*
X-16042430Y42787398D03*
X-7315668Y10641502D03*
X17198914Y17293642D03*
X-14464996Y12844424D03*
X3917570Y-658498D03*
X-11097126Y11268155D03*
X-13272430Y13617398D03*
X18084332Y17441502D03*
X-12217587Y11717398D03*
X17919359Y9294359D03*
X-13915668Y11641502D03*
X-11530443Y8402072D03*
X23784332Y27041502D03*
X-13672430Y13217398D03*
X-16782430Y46687398D03*
X18584332Y15441502D03*
X-12347555Y9225374D03*
X21548107Y44743665D03*
X-12071836Y13291040D03*
X-7315668Y11041502D03*
X24034332Y27691502D03*
X18484332Y11041502D03*
X24584332Y27791502D03*
X-10222308Y9779554D03*
X18434332Y6791502D03*
X-12409458Y12592867D03*
X-17542430Y42787398D03*
X-3615668Y14641502D03*
X-20215668Y42787398D03*
X5117570Y-658498D03*
X24098914Y14093642D03*
X-13315668Y11641502D03*
X-14872430Y13617398D03*
X-15317587Y13117398D03*
X-12886731Y27569032D03*
X3617570Y-958498D03*
X22984332Y27041502D03*
X21332972Y44451215D03*
X3199200Y17300060D03*
X-19015668Y42387398D03*
X-16442430Y42387398D03*
X20205970Y9056432D03*
X18084332Y11441502D03*
X-13883731Y13921723D03*
X-665668Y1241502D03*
X-13008888Y42979798D03*
X18584332Y13441502D03*
X5917570Y-658498D03*
X-12715668Y11641502D03*
X5517570Y-358498D03*
X20584332Y13441502D03*
X-12683731Y13921723D03*
X-13417587Y12917398D03*
X22984332Y28341502D03*
X20584332Y13841502D03*
X-14215668Y12541502D03*
X13143435Y18008229D03*
X10684332Y17291502D03*
X-665668Y841502D03*
X18484332Y11441502D03*
X8596423Y-2030487D03*
X-3015668Y12641502D03*
X-7515668Y9741502D03*
X-13915668Y12841502D03*
X20584332Y13041502D03*
X-19815668Y42387398D03*
X24584332Y28341502D03*
X-7515668Y9341502D03*
X4517570Y-658498D03*
X21984332Y28241502D03*
X22584332Y27041502D03*
X-8915668Y10241502D03*
X-16442430Y42787398D03*
X20853125Y12386758D03*
X17298914Y-706358D03*
X13934332Y16401502D03*
X22584332Y26241502D03*
X22734332Y27691502D03*
X5517570Y-958498D03*
X-13915668Y11041502D03*
X18184332Y13441502D03*
X-1115668Y841502D03*
X3017570Y-358498D03*
X20984332Y13441502D03*
X-10125668Y11241502D03*
X-14815668Y11941502D03*
X-10484292Y9021096D03*
X-12472430Y13617398D03*
X-14283731Y13921723D03*
X-14215668Y11341502D03*
X-12283731Y13921723D03*
%TO.N,+3V3*%
X24379944Y45676387D03*
X24227570Y47307398D03*
X24227570Y46907398D03*
X23827570Y47307398D03*
X23992732Y46037828D03*
X24227570Y46507398D03*
X24401858Y46148154D03*
X24227570Y47707398D03*
X23827570Y46907398D03*
%TO.N,+1V8*%
X-17982430Y46287398D03*
X-18382430Y46287398D03*
X-17982430Y45887398D03*
X-17234264Y47647059D03*
X-17182430Y47187398D03*
X-18682430Y46587398D03*
X-17882430Y46687398D03*
X-13790658Y44543362D03*
X-16782429Y47187397D03*
X-18782430Y46987398D03*
X-18282430Y46787398D03*
X-18382430Y47187398D03*
X-17582430Y46987398D03*
X-17682430Y47787398D03*
X-17982430Y47487398D03*
X-17982430Y47087398D03*
X-17582430Y47387398D03*
X-18382430Y45887398D03*
X-16782430Y47587398D03*
%TO.N,+1V0*%
X-14876166Y23985814D03*
X-15290847Y23985814D03*
X-15082393Y24332994D03*
X-15297355Y24676937D03*
X-14282393Y24332994D03*
X-14440296Y23967653D03*
X-14682393Y24332994D03*
X-12764017Y23969907D03*
X-14097355Y24676937D03*
X-13564017Y23969907D03*
X-13164017Y23969907D03*
X-8665668Y11741502D03*
X-14497355Y24676937D03*
X-14897355Y24676937D03*
X-13982393Y24032994D03*
X-15482393Y24332994D03*
%TO.N,+1V15*%
X5317570Y-5312602D03*
X6717570Y-5112602D03*
X6717570Y-3912602D03*
X6817570Y-5912602D03*
X5911790Y-4808866D03*
X6327343Y-4870960D03*
X6332119Y-3629078D03*
X-1515668Y9041502D03*
X6422872Y-5802371D03*
X5542034Y-4575983D03*
X6717570Y-5512602D03*
X5797155Y-5219642D03*
X5617570Y-5612602D03*
X6050307Y-5702066D03*
X6717570Y-3512602D03*
X5217570Y-5712602D03*
X6145837Y-4441078D03*
X6717570Y-4712602D03*
X6227037Y-4035078D03*
X5517570Y-6012602D03*
X5456208Y-4942905D03*
X5917570Y-6112602D03*
X6417570Y-6212602D03*
X6222260Y-5286513D03*
X6717570Y-4312602D03*
%TO.N,SDA*%
X-10382430Y25437398D03*
X-897441Y12846329D03*
X-10915668Y44041502D03*
X20884332Y14436143D03*
X-5215668Y11241502D03*
X4831016Y-3946522D03*
X-4915668Y9541502D03*
X19784332Y14241502D03*
X-15982431Y46685798D03*
X-13682430Y25437398D03*
X20484332Y41941502D03*
X7578667Y-1720952D03*
X-10680018Y24842344D03*
X15084332Y16793642D03*
X18934332Y5691502D03*
%TO.N,SCL*%
X17598914Y18224942D03*
X-10915668Y44541502D03*
X20484332Y40041502D03*
X-582318Y12541502D03*
X-15982430Y46246896D03*
X-13232430Y25437398D03*
X19384332Y5691502D03*
X7995838Y16160971D03*
X7584332Y17641502D03*
X-5415668Y11741502D03*
X8017570Y-1712602D03*
X-4915668Y9041502D03*
X4900451Y-3503461D03*
X16084332Y16793642D03*
X20246462Y18893642D03*
X19784332Y13841502D03*
%TO.N,EN*%
X19410383Y8129344D03*
X-10515668Y43541502D03*
X-5015668Y10398014D03*
%TO.N,VBAT*%
X-7615668Y5941502D03*
X19584332Y11941502D03*
X-6109635Y8996864D03*
X-6515668Y10241502D03*
X-3615668Y10541502D03*
X-11415668Y42541502D03*
X-8515668Y5641502D03*
X-3815668Y11441502D03*
X-12232985Y25796265D03*
X-5915668Y9341502D03*
X-7315668Y5041502D03*
X-6041307Y10239779D03*
X19684332Y11041502D03*
X20084332Y11041502D03*
X-7615668Y4741502D03*
X-12215668Y43041502D03*
X20084332Y11441502D03*
X-8215668Y7141502D03*
X-6315668Y9341502D03*
X-8515668Y6841502D03*
X-4521148Y10746356D03*
X-12215668Y43841502D03*
X-3615668Y9741502D03*
X-3615668Y10141502D03*
X23369811Y46729734D03*
X-8215668Y5341502D03*
X-8855138Y8968317D03*
X15298914Y18593642D03*
X-8215668Y6541502D03*
X-6515668Y10641502D03*
X-7915668Y6241502D03*
X19684332Y11441502D03*
X-7915668Y6841502D03*
X-6653004Y9042416D03*
X-11815668Y42541502D03*
X-11815668Y42141502D03*
X-12329478Y42615810D03*
X19184332Y11941502D03*
X-6315668Y9741502D03*
X-8815668Y6541502D03*
X-8815668Y5941502D03*
X-9115668Y6241502D03*
X-4501231Y11748826D03*
X-7015668Y5341502D03*
X6177897Y-1997614D03*
X-12215668Y43441502D03*
X-8215668Y5941502D03*
X-8633297Y8714784D03*
X-4215668Y11441502D03*
X-7315668Y5641502D03*
X-6715668Y5641502D03*
X19384332Y12641502D03*
X-11748792Y43044551D03*
X-6695302Y9540233D03*
X-4026552Y11805256D03*
X16784332Y10691502D03*
X20303233Y45471233D03*
X-11260245Y42981737D03*
X-4215668Y11041502D03*
X-5637848Y9029401D03*
X-8515668Y6241502D03*
X-7915668Y5641502D03*
X-3409137Y11257549D03*
X-3498762Y11742187D03*
X-7915668Y5041502D03*
X-3815668Y11041502D03*
X-7015668Y5941502D03*
X-4099579Y10540551D03*
X-16502430Y45287398D03*
X-8931198Y8429560D03*
X-7615668Y5341502D03*
X-4538774Y11239878D03*
X-12282593Y42202373D03*
X-9165716Y8695769D03*
X19984332Y11941502D03*
X-5915668Y9741502D03*
X-6515668Y11041502D03*
X18984332Y12641502D03*
X-7315668Y6241502D03*
X-7615668Y6541502D03*
X-11415668Y42141502D03*
%TO.N,+1V8_ALW*%
X16266332Y15957502D03*
X17095648Y9089286D03*
X9834332Y16641502D03*
X17459012Y7936601D03*
X14944710Y17742877D03*
X19591352Y8685420D03*
%TO.N,ALERT*%
X7584332Y16641502D03*
X16998332Y7891502D03*
%TO.N,SAFEMODE*%
X18184059Y8274697D03*
X12834332Y16641502D03*
%TO.N,/1v_ina*%
X-13382430Y26637398D03*
X-12582430Y26637398D03*
X-14182430Y26637398D03*
X-13782430Y26637398D03*
X-14182430Y25437398D03*
X-14982430Y26637398D03*
X-14182430Y25837398D03*
X-13782430Y26237398D03*
X-14982430Y25437398D03*
X-12829500Y25826155D03*
X-14582430Y25437398D03*
X-14582430Y26637398D03*
X-14582430Y25837398D03*
X-14582430Y26237398D03*
X-14982430Y26237398D03*
X-13382430Y26237398D03*
X-12982430Y26637398D03*
X-14976469Y25842711D03*
X-14182430Y26237398D03*
X-12582430Y26237398D03*
X-12982430Y26237398D03*
%TO.N,/1.15v_ina*%
X3943809Y-4110037D03*
X4160453Y-3726744D03*
X3620510Y-4390007D03*
X4817570Y-4812602D03*
X3352665Y-4060717D03*
X3317570Y-3412602D03*
X3617570Y-4812602D03*
X4390429Y-3386780D03*
X4917570Y-4412602D03*
X2817570Y-4212602D03*
X3992546Y-5020231D03*
X3217570Y-4512602D03*
X3673787Y-3740190D03*
X4517570Y-4512602D03*
X4383763Y-4116703D03*
X4319754Y-5287080D03*
X4389643Y-4883630D03*
X2983442Y-3771019D03*
X4097379Y-4604073D03*
X4717570Y-5212602D03*
X3927591Y-3357591D03*
%TO.N,/3.3v_ina*%
X22498914Y45493642D03*
X20084332Y16341502D03*
X23384332Y23541502D03*
X22898914Y45093642D03*
X23784332Y23941502D03*
X22984332Y23541502D03*
X24184332Y23941502D03*
X18984332Y14241502D03*
X20084332Y17441502D03*
X23784332Y23541502D03*
X19684332Y17841502D03*
X19484332Y14841502D03*
X22098914Y45493642D03*
X23298914Y45093642D03*
X23698914Y45093642D03*
X22098914Y45093642D03*
X23752406Y45500391D03*
X22498914Y45093642D03*
X20084332Y15741502D03*
X19684332Y16741502D03*
X19084332Y14841502D03*
X24078605Y45205687D03*
X19684332Y17441502D03*
X23384332Y23941502D03*
X24184332Y23541502D03*
X23384332Y23141502D03*
X19384332Y14241502D03*
X22984332Y23141502D03*
X19884332Y14941502D03*
X20084332Y16741502D03*
X22584332Y23141502D03*
X20084332Y17841502D03*
X22898914Y45493642D03*
X22584332Y23541502D03*
X22984332Y23941502D03*
X23354218Y45491392D03*
X24184332Y23141502D03*
X23784332Y23141502D03*
X22584332Y23941502D03*
X20084332Y15341502D03*
X19684332Y16341502D03*
X19584332Y15441502D03*
%TO.N,/1.8v_ina*%
X-15082430Y47387398D03*
X-15082430Y46587398D03*
X-15482430Y47387398D03*
X-15682430Y47787398D03*
X-15482430Y46187398D03*
X-15682430Y45787398D03*
X-15982431Y47187397D03*
X-15082430Y46187398D03*
X-15482430Y46587398D03*
X-14882430Y47787398D03*
X-15282430Y45787398D03*
X-15482430Y46987398D03*
X-16088879Y47613195D03*
X-15282430Y47787398D03*
X-14882430Y45787398D03*
X-15082430Y46987398D03*
%TO.N,Net-(U7-LX2)*%
X17684332Y14341502D03*
X17284332Y14341502D03*
X18984332Y13841502D03*
X17284332Y14741502D03*
X16884332Y14741502D03*
X16884332Y14341502D03*
X19384332Y13841502D03*
X17684332Y14741502D03*
%TO.N,Net-(U7-LX1)*%
X17684332Y12141502D03*
X17684332Y12541502D03*
X17284332Y12541502D03*
X16884332Y12541502D03*
X16884332Y12141502D03*
X17284332Y12141502D03*
X18984332Y13041502D03*
X19384332Y13041502D03*
%TO.N,Net-(U5-VSET)*%
X-13815668Y44041502D03*
X-14909747Y42576795D03*
%TO.N,Net-(U9-PC0)*%
X16378025Y5161502D03*
X19834332Y5691502D03*
%TD*%
D14*
%TO.N,Net-(U7-LX2)*%
X18584332Y13841502D02*
X17684332Y14741502D01*
X17384332Y13841502D02*
X16884332Y14341502D01*
X18984332Y13841502D02*
X17384332Y13841502D01*
D15*
%TO.N,GND*%
X-17552430Y42782398D02*
X-17152430Y42382398D01*
X-14072430Y13617398D02*
X-13672430Y13217398D01*
X22134332Y27741502D02*
X22734332Y27691502D01*
X24034332Y27691502D02*
X24584332Y28341502D01*
X-12472430Y14017398D02*
X-12071836Y13291040D01*
X23784332Y28341502D02*
X23384332Y27691502D01*
D14*
X20184332Y13441502D02*
X20584332Y13841502D01*
D15*
X-13140792Y28449850D02*
X-12717118Y28075016D01*
X-15317587Y13517398D02*
X-15317587Y12317398D01*
X-18615668Y42387398D02*
X-20615668Y42387398D01*
X-11981068Y13373624D02*
X-11784158Y13552781D01*
X-665668Y1291502D02*
X-665668Y841502D01*
X-14472430Y13617398D02*
X-13915668Y12693642D01*
X23384332Y27041502D02*
X24184332Y26241502D01*
X-14872430Y13617398D02*
X-14215668Y12541502D01*
X-13417587Y12917398D02*
X-13353688Y12493642D01*
X-7691976Y10811606D02*
X-7315668Y11041502D01*
X-2615668Y11441502D02*
X-2215668Y11441502D01*
X-14872430Y13617398D02*
X-13272430Y13617398D01*
X23384332Y27691502D02*
X22984332Y27041502D01*
X-12409458Y12592867D02*
X-12472430Y13617398D01*
X-11796211Y12997633D02*
X-11623297Y12270974D01*
X-13404897Y43619069D02*
X-13474993Y43120430D01*
X18084332Y11441502D02*
X18484332Y11441502D01*
X-13272430Y13617398D02*
X-13015668Y13141502D01*
X22734332Y27691502D02*
X23384332Y27041502D01*
X-11784158Y13552781D02*
X-11515668Y13241502D01*
X-13140792Y28449850D02*
X-13116372Y28050596D01*
X18484332Y17441502D02*
X18084332Y17441502D01*
X-15317587Y13517398D02*
X-14872430Y13217398D01*
X-17552430Y42782398D02*
X-17152430Y42782398D01*
X18484332Y11441502D02*
X18484332Y11041502D01*
X24584332Y27791502D02*
X24184332Y26241502D01*
X24034332Y27691502D02*
X24184332Y27041502D01*
X23784332Y28741502D02*
X24184332Y28341502D01*
X23384332Y28741502D02*
X23784332Y28341502D01*
X22584332Y27041502D02*
X24184332Y27041502D01*
X-1015668Y1641502D02*
X-665668Y1991502D01*
X-11796211Y12997633D02*
X-11515668Y13241502D01*
X-13926259Y27974254D02*
X-14325513Y27949834D01*
X-8090668Y10741502D02*
X-7315668Y11041502D01*
X18084332Y17841502D02*
X18484332Y17841502D01*
X-7845159Y10360397D02*
X-7315668Y11041502D01*
X24184332Y27041502D02*
X24584332Y27791502D01*
D14*
X20184332Y13441502D02*
X20584332Y13041502D01*
D15*
X17584332Y10741502D02*
X17984332Y10441502D01*
X23384332Y27041502D02*
X22584332Y26241502D01*
X-13353688Y12493642D02*
X-12323622Y11516178D01*
X22134332Y27741502D02*
X22984332Y27041502D01*
X-14072430Y13617398D02*
X-13915668Y12841502D01*
X-7691976Y10811606D02*
X-7515668Y9341502D01*
X-1115668Y841502D02*
X-1055973Y1242401D01*
X-14515668Y12241502D02*
X-14515668Y11641502D01*
X22734332Y27691502D02*
X21984332Y28241502D01*
X21984332Y28741502D02*
X24184332Y28741502D01*
X-13015668Y13141502D02*
X-12872430Y13617398D01*
X-7915668Y9341502D02*
X-7515668Y9741502D01*
X-15317587Y12317398D02*
X-14815668Y11941502D01*
X-12715668Y11041502D02*
X-14215668Y12541502D01*
X-12472430Y13617398D02*
X-12309812Y13484916D01*
X18084332Y17441502D02*
X18484332Y17841502D01*
X-12741538Y28474270D02*
X-13140792Y28449850D01*
X23384332Y27691502D02*
X24184332Y28341502D01*
X-12237219Y12093642D02*
X-12309812Y13484916D01*
X-19015668Y42387398D02*
X-18615668Y42787398D01*
X-11623297Y12270974D02*
X-12195783Y12393642D01*
X22584332Y27041502D02*
X22734332Y27691502D01*
X5917570Y-658498D02*
X5517570Y-358498D01*
X-13404897Y43619069D02*
X-13015668Y43441502D01*
X-12217587Y11717398D02*
X-11796211Y12997633D01*
X-15317587Y13517398D02*
X-14872430Y13617398D01*
X-13404897Y43619069D02*
X-13015668Y43841502D01*
X22734332Y27691502D02*
X22984332Y27041502D01*
X17984332Y10441502D02*
X18484332Y10441502D01*
X-14815668Y11941502D02*
X-13315668Y10441502D01*
D14*
X19784332Y13041502D02*
X20984332Y13041502D01*
D15*
X-20615668Y42387398D02*
X-20615668Y43187398D01*
X-13272430Y14017398D02*
X-12872430Y13617398D01*
X21185067Y43096537D02*
X21184332Y43441502D01*
X-13415668Y42141502D02*
X-13415668Y42541502D01*
X23384332Y27691502D02*
X22584332Y28341502D01*
X-11623297Y12270974D02*
X-12415668Y11341502D01*
X-8090668Y10741502D02*
X-7845159Y10360397D01*
X-15160825Y13795414D02*
X-14715668Y13841502D01*
X21984332Y28741502D02*
X21984332Y28241502D01*
X24034332Y27691502D02*
X23784332Y27041502D01*
X23384332Y27691502D02*
X23784332Y27041502D01*
D14*
X20184332Y13441502D02*
X20184332Y13041502D01*
D15*
X-13315668Y12241502D02*
X-13315668Y10441502D01*
X22584332Y27041502D02*
X22584332Y26241502D01*
X-9931319Y10054955D02*
X-9687095Y9784750D01*
D14*
X20984332Y13041502D02*
X20984332Y13441502D01*
D15*
X17484332Y11241502D02*
X18084332Y11441502D01*
X23384332Y28341502D02*
X23384332Y27691502D01*
X-665668Y841502D02*
X-665668Y2141502D01*
X-15160825Y13795414D02*
X-13115668Y14241502D01*
X-2615668Y11441502D02*
X-2215668Y11041502D01*
X-12071836Y13291040D02*
X-11796211Y12997633D01*
X-14472430Y13617398D02*
X-14515668Y12241502D01*
D14*
X20584332Y13441502D02*
X20584332Y13041502D01*
X18184332Y13441502D02*
X20984332Y13441502D01*
D15*
X-12817587Y12317398D02*
X-13117587Y12617398D01*
X5517570Y-358498D02*
X3017570Y-358498D01*
X-12872430Y13617398D02*
X-12701086Y13617398D01*
X-19937668Y43065398D02*
X-20615668Y42387398D01*
X-13015668Y42541502D02*
X-13015668Y42141502D01*
X-12872430Y13617398D02*
X-12697459Y12197269D01*
X21184332Y43441502D02*
X21185067Y43778918D01*
X23384332Y26241502D02*
X24184332Y27041502D01*
X-665668Y841502D02*
X-1115668Y841502D01*
X22734332Y27691502D02*
X22984332Y28341502D01*
X-11784158Y13552781D02*
X-11796211Y12997633D01*
X5517570Y-958498D02*
X5917570Y-658498D01*
X-15317587Y12717398D02*
X-14872430Y12417398D01*
X-11623297Y12270974D02*
X-12217587Y11717398D01*
X-7915668Y9741502D02*
X-7915668Y9525502D01*
X-10222308Y9779554D02*
X-9988477Y9514546D01*
X-15317587Y12317398D02*
X-14872430Y12417398D01*
X-14872430Y14017398D02*
X-15304334Y13929143D01*
X-666567Y1242401D02*
X-665668Y1241502D01*
X-2815668Y10141502D02*
X-2215668Y11041502D01*
X-9687095Y9784750D02*
X-9988477Y9514546D01*
X-9988477Y9514546D02*
X-9931319Y10054955D01*
X-19415668Y43187398D02*
X-19415668Y42387398D01*
X23384332Y27041502D02*
X24034332Y27691502D01*
X24184332Y27041502D02*
X24184332Y26241502D01*
X-19815668Y43065398D02*
X-19937668Y43065398D01*
X-15304334Y13929143D02*
X-15317587Y13517398D01*
X-14815668Y11941502D02*
X-14872430Y13617398D01*
X-13915668Y12841502D02*
X-13915668Y12693642D01*
X-12517587Y12017398D02*
X-12701086Y13617398D01*
X-13272430Y13617398D02*
X-13417587Y12917398D01*
X-13950679Y28373508D02*
X-13926259Y27974254D01*
X-13315668Y10441502D02*
X-12415668Y11341502D01*
X5517570Y-958498D02*
X3617570Y-958498D01*
D16*
X-12472430Y14017398D02*
X-12472430Y13617398D01*
D15*
X-13615668Y12541502D02*
X-13615668Y10741502D01*
X-1115668Y841502D02*
X-715668Y1241502D01*
X-13415668Y42541502D02*
X-13474993Y43120430D01*
X-8090668Y10741502D02*
X-7691976Y10811606D01*
X-14349933Y28349088D02*
X-14325513Y27949834D01*
X-2040668Y10041502D02*
X-2315668Y10441502D01*
X-16452430Y42782398D02*
X-16052430Y42782398D01*
X22134332Y27741502D02*
X22584332Y27041502D01*
D14*
X20584332Y13841502D02*
X20984332Y13841502D01*
D16*
X-12872430Y14017398D02*
X-12872430Y13617398D01*
D15*
X22584332Y28741502D02*
X22984332Y28341502D01*
X-12217587Y11717398D02*
X-12237219Y12093642D01*
X-13116372Y28050596D02*
X-12717118Y28075016D01*
X3617570Y-358498D02*
X4217570Y-958498D01*
X-2615668Y11441502D02*
X-2615668Y11041502D01*
X21185067Y43778918D02*
X21218682Y44121790D01*
X-12697459Y12197269D02*
X-12817587Y12317398D01*
X-2315668Y10441502D02*
X-2215668Y11041502D01*
X-13015668Y11941502D02*
X-13015668Y10741502D01*
X-20615668Y43187398D02*
X-18615668Y43187398D01*
X21984332Y28241502D02*
X23384332Y28341502D01*
X-12717118Y28075016D02*
X-12741538Y28474270D01*
X-13008888Y42979798D02*
X-13015668Y42541502D01*
D14*
X20584332Y13841502D02*
X20584332Y13441502D01*
D15*
X-20615668Y43187398D02*
X-19815668Y42387398D01*
X18084332Y16741502D02*
X18484332Y16741502D01*
X-12072430Y14017398D02*
X-12472430Y13617398D01*
X22984332Y28341502D02*
X23384332Y27691502D01*
X-12195783Y12393642D02*
X-12237219Y12093642D01*
X-12072430Y14017398D02*
X-11981068Y13373624D01*
X-17552430Y42382398D02*
X-17152430Y42382398D01*
X18484332Y10441502D02*
X18484332Y11041502D01*
X-7845159Y10360397D02*
X-7915668Y9741502D01*
X24584332Y28341502D02*
X24184332Y28741502D01*
X24184332Y28341502D02*
X24034332Y27691502D01*
X-14515668Y12241502D02*
X-13015668Y10741502D01*
X-715668Y1241502D02*
X-665668Y1241502D01*
X-7915668Y9525502D02*
X-7315668Y10641502D01*
X23384332Y27041502D02*
X23384332Y27691502D01*
X23784332Y28341502D02*
X24034332Y27691502D01*
X22134332Y27741502D02*
X22584332Y28341502D01*
X18484332Y10441502D02*
X17484332Y11241502D01*
X-14215668Y12541502D02*
X-14215668Y11341502D01*
X-18615668Y42787398D02*
X-18615668Y42387398D01*
X-18615668Y42787398D02*
X-18615668Y43187398D01*
X-20615668Y42787398D02*
X-18615668Y42787398D01*
X-12309812Y13484916D02*
X-12071836Y13291040D01*
X18484332Y17841502D02*
X18484332Y17441502D01*
X22734332Y27691502D02*
X23384332Y27691502D01*
X-19015668Y42387398D02*
X-19015668Y43187398D01*
X-12071836Y13291040D02*
X-11981068Y13373624D01*
D14*
X20984332Y13841502D02*
X20984332Y13441502D01*
D15*
X-16052430Y42782398D02*
X-16052430Y42382398D01*
X18084332Y11041502D02*
X18484332Y11441502D01*
X-15147572Y14153247D02*
X-14715668Y14241502D01*
X-13115668Y13841502D02*
X-13115668Y14241502D01*
X21332972Y44451215D02*
X21548107Y44743665D01*
X-7915668Y9341502D02*
X-7515668Y9341502D01*
X-12715668Y11641502D02*
X-12715668Y11041502D01*
X23784332Y27041502D02*
X24584332Y27791502D01*
X21984332Y28241502D02*
X22134332Y27741502D01*
X-2215668Y11441502D02*
X-2215668Y11041502D01*
X18084332Y11441502D02*
X18084332Y11041502D01*
X-19815668Y43065398D02*
X-19815668Y43187398D01*
X-13015668Y42141502D02*
X-13415668Y42141502D01*
X-1055973Y1242401D02*
X-666567Y1242401D01*
X-7915668Y9525502D02*
X-7915668Y9341502D01*
X24584332Y27791502D02*
X24584332Y28341502D01*
X-16052430Y42382398D02*
X-16452430Y42382398D01*
X-16452430Y42782398D02*
X-16452430Y42382398D01*
D14*
X20584332Y13041502D02*
X20984332Y13441502D01*
D15*
X24584332Y27791502D02*
X24034332Y27691502D01*
X-13915668Y12841502D02*
X-14815668Y11941502D01*
X-2815668Y9741502D02*
X-2040668Y10041502D01*
X-12217587Y11717398D02*
X-12297459Y11797269D01*
X-19815668Y43187398D02*
X-19015668Y42387398D01*
X-12072430Y14017398D02*
X-13501086Y13937856D01*
X17484332Y11241502D02*
X17984332Y10441502D01*
X-14715668Y13841502D02*
X-13115668Y13841502D01*
X21218682Y44121790D02*
X21332972Y44451215D01*
X-12517587Y12017398D02*
X-12697459Y12197269D01*
X-1055973Y1242401D02*
X-1015668Y1641502D01*
X18084332Y16341502D02*
X18084332Y16741502D01*
X-12323622Y11516178D02*
X-12217587Y11717398D01*
X18484332Y16741502D02*
X18484332Y16341502D01*
X-13115668Y13841502D02*
X-13501086Y13937856D01*
X4817570Y-358498D02*
X4217570Y-958498D01*
X-13015668Y43441502D02*
X-13008888Y42979798D01*
X22984332Y28741502D02*
X23384332Y28341502D01*
X24184332Y26241502D02*
X22584332Y26241502D01*
X18084332Y17441502D02*
X18084332Y17841502D01*
X22134332Y27741502D02*
X22584332Y26241502D01*
X24584332Y28341502D02*
X22584332Y28341502D01*
X-12071836Y13291040D02*
X-12195783Y12393642D01*
X-11784158Y13552781D02*
X-12072430Y14017398D01*
X-14349933Y28349088D02*
X-13950679Y28373508D01*
X17584332Y10741502D02*
X18484332Y11041502D01*
X-2460454Y9972493D02*
X-2615668Y11041502D01*
X-12409458Y12592867D02*
X-12297459Y11797269D01*
X-13015668Y43841502D02*
X-13015668Y43441502D01*
X-11623297Y12270974D02*
X-11515668Y13241502D01*
X-20215668Y43187398D02*
X-20215668Y42387398D01*
X24584332Y27791502D02*
X24184332Y28341502D01*
X-1015668Y1641502D02*
X-665668Y1291502D01*
X17484332Y11241502D02*
X17584332Y10741502D01*
D14*
X19784332Y13041502D02*
X20184332Y13441502D01*
D15*
X-17152430Y42382398D02*
X-17152430Y42782398D01*
X-19015668Y42387398D02*
X-18615668Y42387398D01*
X-19815668Y42387398D02*
X-19815668Y43065398D01*
X-13915668Y12841502D02*
X-12415668Y11341502D01*
X22584332Y27041502D02*
X23384332Y26241502D01*
X-17552430Y42782398D02*
X-17552430Y42382398D01*
X21984332Y28241502D02*
X22584332Y28741502D01*
X-665668Y1991502D02*
X-665668Y2141502D01*
X18484332Y16341502D02*
X18084332Y16341502D01*
D17*
X-7315668Y10267261D02*
X-7515668Y9741502D01*
D15*
X-13790668Y43541502D02*
X-13474993Y43120430D01*
X-12297459Y11797269D02*
X-12517587Y12017398D01*
X-19015668Y43187398D02*
X-18615668Y42787398D01*
D14*
X20584332Y13841502D02*
X20984332Y13441502D01*
D15*
X-15317587Y13117398D02*
X-14872430Y12817398D01*
X-12415668Y11341502D02*
X-12323622Y11516178D01*
X-13353688Y12493642D02*
X-13315668Y12241502D01*
X-13501086Y13937856D02*
X-14715668Y14241502D01*
X-13790668Y43541502D02*
X-13404897Y43619069D01*
X-2615668Y11041502D02*
X-2215668Y11441502D01*
X24034332Y27691502D02*
X23384332Y27691502D01*
X-2815668Y10544371D02*
X-2815668Y9741502D01*
D17*
X-7315668Y11041502D02*
X-7315668Y10641502D01*
D15*
X18084332Y16741502D02*
X18484332Y16341502D01*
X-2615668Y11041502D02*
X-2815668Y10544371D01*
X-13117587Y12617398D02*
X-13015668Y13141502D01*
X-10222308Y9779554D02*
X-9931319Y10054955D01*
X-18615668Y43187398D02*
X-18615668Y42387398D01*
X-1015668Y1641502D02*
X-665668Y1641502D01*
X-16452430Y42782398D02*
X-16052430Y42382398D01*
X-13615668Y12541502D02*
X-13672430Y13617398D01*
X-13115668Y14241502D02*
X-14715668Y14241502D01*
X18084332Y11441502D02*
X17584332Y10741502D01*
X5917570Y-658498D02*
X3317570Y-658498D01*
D17*
X-7515668Y9741502D02*
X-7515668Y9341502D01*
D15*
X-19815668Y42387398D02*
X-19015668Y43187398D01*
X-15304334Y13929143D02*
X-15147572Y14153247D01*
X3317570Y-658498D02*
X3617570Y-358498D01*
X-14872430Y13217398D02*
X-14215668Y12541502D01*
D17*
X-7315668Y10641502D02*
X-7315668Y10267261D01*
D15*
X-14349933Y28349088D02*
X-13926259Y27974254D01*
X18084332Y11441502D02*
X17984332Y10441502D01*
X-12701086Y13617398D02*
X-12472430Y13617398D01*
X-13915668Y12693642D02*
X-13915668Y11041502D01*
X3017570Y-358498D02*
X3617570Y-958498D01*
X3617570Y-958498D02*
X4217570Y-358498D01*
D14*
X19784332Y13441502D02*
X19784332Y13041502D01*
D15*
X-13404897Y43619069D02*
X-13015668Y42141502D01*
X22584332Y28341502D02*
X22734332Y27691502D01*
X-15147572Y14153247D02*
X-15160825Y13795414D01*
X-12872430Y14017398D02*
X-12472430Y13617398D01*
D16*
%TO.N,SDA*%
X7578667Y-1720952D02*
X7267667Y-1720952D01*
X7267667Y-1720952D02*
X5042097Y-3946522D01*
X-12656078Y44909598D02*
X-11956077Y44209598D01*
X-16290780Y45644300D02*
X-15556077Y44909598D01*
X-15982431Y46685798D02*
X-16290780Y46377449D01*
X5042097Y-3946522D02*
X4831016Y-3946522D01*
X-16290780Y46377449D02*
X-16290780Y45644300D01*
X-15556077Y44909598D02*
X-12656078Y44909598D01*
X-11083764Y44209598D02*
X-10915668Y44041502D01*
X-11956077Y44209598D02*
X-11083764Y44209598D01*
X4831016Y-3946522D02*
X4893463Y-3946522D01*
%TO.N,SCL*%
X-11069772Y44387398D02*
X-10915668Y44541502D01*
X7320823Y-1412602D02*
X5229964Y-3503461D01*
X-15482430Y45087398D02*
X-12582430Y45087398D01*
X-15990780Y46238546D02*
X-15990780Y45595748D01*
X-11882430Y44387398D02*
X-11069772Y44387398D01*
X7717570Y-1412602D02*
X7320823Y-1412602D01*
X-15990780Y45595748D02*
X-15482430Y45087398D01*
X5229964Y-3503461D02*
X4900451Y-3503461D01*
X8017570Y-1712602D02*
X7717570Y-1412602D01*
X-12582430Y45087398D02*
X-11882430Y44387398D01*
X-15982430Y46246896D02*
X-15990780Y46238546D01*
D14*
%TO.N,Net-(U7-LX2)*%
X16884332Y14741502D02*
X17684332Y14741502D01*
X18184332Y13841502D02*
X17684332Y14341502D01*
X17284332Y14741502D02*
X17284332Y14341502D01*
X17284332Y14341502D02*
X17684332Y14741502D01*
X16884332Y14741502D02*
X16884332Y14341502D01*
X19384332Y13841502D02*
X18984332Y13841502D01*
X18984332Y13841502D02*
X18184332Y13841502D01*
X17684332Y14741502D02*
X18568032Y13857802D01*
X16884332Y14741502D02*
X17284332Y14341502D01*
X17784332Y13841502D02*
X17284332Y14341502D01*
X16884332Y14341502D02*
X17684332Y14341502D01*
X17684332Y14741502D02*
X17684332Y14341502D01*
X18984332Y13841502D02*
X17784332Y13841502D01*
X18984332Y13841502D02*
X18584332Y13841502D01*
%TO.N,Net-(U7-LX1)*%
X19384332Y13041502D02*
X18984332Y13041502D01*
X18984332Y13041502D02*
X17784332Y13041502D01*
X17684332Y12541502D02*
X17684332Y12141502D01*
X18584332Y13041502D02*
X17684332Y12141502D01*
X17384332Y13041502D02*
X16884332Y12541502D01*
X16884332Y12541502D02*
X17284332Y12141502D01*
X17284332Y12541502D02*
X17284332Y12141502D01*
X18184332Y13041502D02*
X17684332Y12541502D01*
X17784332Y13041502D02*
X17284332Y12541502D01*
X17284332Y12141502D02*
X17684332Y12541502D01*
X18984332Y13041502D02*
X17384332Y13041502D01*
X16884332Y12541502D02*
X17684332Y12541502D01*
X17684332Y12141502D02*
X16884332Y12141502D01*
X16884332Y12541502D02*
X16884332Y12141502D01*
X18984332Y13041502D02*
X18584332Y13041502D01*
X18984332Y13041502D02*
X18184332Y13041502D01*
%TD*%
%TA.AperFunction,Conductor*%
%TO.N,+1V0*%
G36*
X-11899192Y25007117D02*
G01*
X-11886840Y24982194D01*
X-11773495Y24143360D01*
X-11700944Y23606431D01*
X-11691095Y23533547D01*
X-11690836Y23524344D01*
X-11697954Y23433264D01*
X-11703195Y23415719D01*
X-11744921Y23339808D01*
X-11756925Y23325980D01*
X-11774463Y23312824D01*
X-11806677Y23304568D01*
X-11831260Y23316858D01*
X-11841241Y23326839D01*
X-11878179Y23342139D01*
X-11878180Y23342139D01*
X-14813532Y23342139D01*
X-14817790Y23342348D01*
X-14986883Y23359000D01*
X-14995237Y23360662D01*
X-15155771Y23409355D01*
X-15163639Y23412613D01*
X-15311601Y23491690D01*
X-15318683Y23496422D01*
X-15448369Y23602838D01*
X-15454390Y23608857D01*
X-15560839Y23738541D01*
X-15565561Y23745608D01*
X-15644661Y23893557D01*
X-15647921Y23901425D01*
X-15696640Y24061954D01*
X-15698303Y24070307D01*
X-15714958Y24239157D01*
X-15715168Y24243422D01*
X-15715168Y24939505D01*
X-15702442Y24970229D01*
X-15695878Y24975619D01*
X-15668619Y24993847D01*
X-15652970Y25000337D01*
X-15584243Y25014045D01*
X-15570009Y25016883D01*
X-15561541Y25017722D01*
X-12491520Y25019501D01*
X-12460790Y25006793D01*
X-12448046Y24976076D01*
X-12455368Y24951913D01*
X-12464626Y24938058D01*
X-12464627Y24938054D01*
X-12483207Y24844645D01*
X-12464627Y24751237D01*
X-12464626Y24751233D01*
X-12410453Y24670157D01*
X-12403965Y24637541D01*
X-12410452Y24621879D01*
X-12457940Y24550807D01*
X-12476520Y24457398D01*
X-12457940Y24363989D01*
X-12405028Y24284800D01*
X-12325839Y24231888D01*
X-12232430Y24213308D01*
X-12139021Y24231888D01*
X-12059832Y24284800D01*
X-12006920Y24363989D01*
X-11988340Y24457398D01*
X-12006920Y24550807D01*
X-12006922Y24550810D01*
X-12006922Y24550811D01*
X-12061095Y24631887D01*
X-12067583Y24664503D01*
X-12061097Y24680163D01*
X-12013607Y24751236D01*
X-11995027Y24844645D01*
X-12013607Y24938054D01*
X-12023063Y24952205D01*
X-12029550Y24984820D01*
X-12011075Y25012471D01*
X-11986963Y25019793D01*
X-11929923Y25019826D01*
X-11899192Y25007117D01*
G37*
%TD.AperFunction*%
%TD*%
%TA.AperFunction,Conductor*%
%TO.N,+3V3*%
G36*
X24839700Y48160842D02*
G01*
X24852426Y48130118D01*
X24852426Y46918018D01*
X24839700Y46887294D01*
X24808976Y46874568D01*
X24759696Y46874568D01*
X24719714Y46874568D01*
X24701245Y46866918D01*
X24682775Y46859268D01*
X24654505Y46830998D01*
X24639205Y46794059D01*
X24639205Y45784236D01*
X24638996Y45779974D01*
X24622330Y45610868D01*
X24620667Y45602515D01*
X24571959Y45441975D01*
X24568700Y45434107D01*
X24489608Y45286145D01*
X24484876Y45279063D01*
X24476091Y45268359D01*
X24446762Y45252683D01*
X24414939Y45262337D01*
X24411790Y45265191D01*
X23570625Y46105843D01*
X23557889Y46136563D01*
X23570606Y46167290D01*
X23601326Y46180026D01*
X23609805Y46179192D01*
X23689108Y46163418D01*
X23782517Y46181998D01*
X23861706Y46234910D01*
X23914618Y46314099D01*
X23933198Y46407508D01*
X23914618Y46500917D01*
X23861706Y46580106D01*
X23838948Y46595312D01*
X23811298Y46613787D01*
X23782517Y46633018D01*
X23689108Y46651598D01*
X23689107Y46651598D01*
X23658397Y46645490D01*
X23625781Y46651978D01*
X23607306Y46679629D01*
X23607306Y46696579D01*
X23613901Y46729734D01*
X23595321Y46823143D01*
X23542409Y46902332D01*
X23463220Y46955244D01*
X23369811Y46973824D01*
X23276402Y46955244D01*
X23276401Y46955244D01*
X23242832Y46932814D01*
X23210215Y46926327D01*
X23182565Y46944803D01*
X23176078Y46977420D01*
X23187971Y46999666D01*
X24349490Y48160847D01*
X24380209Y48173568D01*
X24808976Y48173568D01*
X24839700Y48160842D01*
G37*
%TD.AperFunction*%
%TD*%
%TA.AperFunction,Conductor*%
%TO.N,+1V15*%
G36*
X7358088Y-2325328D02*
G01*
X7370814Y-2356052D01*
X7370814Y-6016029D01*
X7370813Y-6016039D01*
X7370813Y-6045180D01*
X7370444Y-6050833D01*
X7358025Y-6145472D01*
X7355106Y-6156399D01*
X7319778Y-6241973D01*
X7314138Y-6251777D01*
X7257920Y-6325335D01*
X7249941Y-6333351D01*
X7176641Y-6389908D01*
X7166863Y-6395593D01*
X7081452Y-6431315D01*
X7070538Y-6434284D01*
X6976144Y-6447111D01*
X6970278Y-6447507D01*
X6430573Y-6447317D01*
X6430177Y-6447317D01*
X6430175Y-6447316D01*
X6426940Y-6447316D01*
X6424843Y-6447265D01*
X6148823Y-6433846D01*
X6144655Y-6433441D01*
X5872259Y-6393664D01*
X5868148Y-6392860D01*
X5600837Y-6327039D01*
X5596824Y-6325843D01*
X5337087Y-6234590D01*
X5333207Y-6233012D01*
X5083481Y-6117183D01*
X5079771Y-6115240D01*
X4949839Y-6038985D01*
X4929783Y-6012459D01*
X4934358Y-5979520D01*
X4935363Y-5977892D01*
X4941433Y-5968544D01*
X4955079Y-5934332D01*
X5258011Y-4299295D01*
X5258684Y-4295150D01*
X5259217Y-4291332D01*
X5259703Y-4287183D01*
X5263336Y-4248834D01*
X5263755Y-4240470D01*
X5263799Y-4232766D01*
X5263475Y-4224393D01*
X5260278Y-4186001D01*
X5259838Y-4181837D01*
X5259348Y-4178013D01*
X5258724Y-4173869D01*
X5248091Y-4112602D01*
X5473480Y-4112602D01*
X5492060Y-4206011D01*
X5544972Y-4285200D01*
X5624161Y-4338112D01*
X5717570Y-4356692D01*
X5810979Y-4338112D01*
X5890168Y-4285200D01*
X5943080Y-4206011D01*
X5961660Y-4112602D01*
X5943080Y-4019193D01*
X5890168Y-3940004D01*
X5810979Y-3887092D01*
X5717570Y-3868512D01*
X5624161Y-3887092D01*
X5544972Y-3940003D01*
X5544971Y-3940004D01*
X5502137Y-4004112D01*
X5492060Y-4019193D01*
X5473480Y-4112602D01*
X5248091Y-4112602D01*
X5243750Y-4087588D01*
X5241404Y-4077435D01*
X5241402Y-4077430D01*
X5241269Y-4076852D01*
X5241396Y-4076822D01*
X5240223Y-4063126D01*
X5244517Y-4011907D01*
X5245897Y-4004112D01*
X5266699Y-3927941D01*
X5273565Y-3913712D01*
X5297321Y-3881301D01*
X5301620Y-3876289D01*
X5467622Y-3710287D01*
X5468414Y-3709519D01*
X5614994Y-3571501D01*
X5616176Y-3570380D01*
X5617351Y-3569252D01*
X6841894Y-2385741D01*
X6848401Y-2380562D01*
X6917854Y-2335427D01*
X6933230Y-2329212D01*
X6989133Y-2318339D01*
X7014530Y-2313401D01*
X7022824Y-2312602D01*
X7327364Y-2312602D01*
X7358088Y-2325328D01*
G37*
%TD.AperFunction*%
%TD*%
%TA.AperFunction,Conductor*%
%TO.N,/3.3v_ina*%
G36*
X22909724Y46660064D02*
G01*
X22915117Y46653493D01*
X22959952Y46586429D01*
X22959959Y46586417D01*
X22963724Y46581343D01*
X22963725Y46581343D01*
X22965465Y46578997D01*
X22965467Y46578995D01*
X22970869Y46572415D01*
X22976243Y46566489D01*
X22977099Y46565545D01*
X22977113Y46565531D01*
X23002234Y46540425D01*
X23002254Y46540405D01*
X23006486Y46536573D01*
X23009099Y46534206D01*
X23015668Y46528817D01*
X23057124Y46509214D01*
X23089740Y46502726D01*
X23104449Y46500985D01*
X23104450Y46500986D01*
X23106303Y46500766D01*
X23135319Y46484518D01*
X23144513Y46461039D01*
X23147485Y46423416D01*
X23147486Y46423413D01*
X23160218Y46392700D01*
X23160219Y46392699D01*
X23160221Y46392695D01*
X23180693Y46362075D01*
X23320756Y46222096D01*
X23327610Y46215887D01*
X23327615Y46215883D01*
X23334186Y46210492D01*
X23375645Y46190887D01*
X23408256Y46184400D01*
X23408267Y46184398D01*
X23427219Y46182155D01*
X23427011Y46180399D01*
X23452249Y46172204D01*
X23467353Y46142581D01*
X23470685Y46100415D01*
X23470685Y46100412D01*
X23470686Y46100410D01*
X23483422Y46069690D01*
X23503894Y46039072D01*
X23503895Y46039071D01*
X23503896Y46039070D01*
X24345064Y45198415D01*
X24348395Y45195244D01*
X24352539Y45191488D01*
X24366756Y45161425D01*
X24355550Y45130115D01*
X24350922Y45125709D01*
X24242728Y45036916D01*
X24235647Y45032184D01*
X24087685Y44953091D01*
X24079817Y44949832D01*
X23919272Y44901123D01*
X23910919Y44899461D01*
X23741858Y44882798D01*
X23737596Y44882588D01*
X22565187Y44882588D01*
X22565172Y44882590D01*
X22558749Y44882590D01*
X22531820Y44882588D01*
X22507881Y44882588D01*
X22507570Y44882559D01*
X22435542Y44882552D01*
X22245925Y44849103D01*
X22245920Y44849102D01*
X22103666Y44797317D01*
X22064983Y44783235D01*
X22064981Y44783235D01*
X22064981Y44783234D01*
X22064978Y44783233D01*
X21898233Y44686958D01*
X21884475Y44675414D01*
X21852758Y44665416D01*
X21823261Y44680772D01*
X21813263Y44712489D01*
X21814356Y44719081D01*
X21817413Y44731487D01*
X21801574Y44835472D01*
X21747146Y44925481D01*
X21662418Y44987810D01*
X21560286Y45012971D01*
X21560285Y45012971D01*
X21456299Y44997132D01*
X21366291Y44942704D01*
X21128427Y44619358D01*
X21125904Y44616240D01*
X21100416Y44587564D01*
X21100415Y44587561D01*
X21098443Y44581877D01*
X21092397Y44570378D01*
X21088829Y44565528D01*
X21088826Y44565521D01*
X21079653Y44528287D01*
X21078515Y44524439D01*
X20976799Y44231256D01*
X20974078Y44225035D01*
X20960675Y44199932D01*
X20960674Y44199927D01*
X20959105Y44183936D01*
X20956914Y44173942D01*
X20951650Y44158766D01*
X20951649Y44158765D01*
X20953319Y44130360D01*
X20953187Y44123572D01*
X20926423Y43850573D01*
X20923289Y43838103D01*
X20920782Y43832087D01*
X20920698Y43794211D01*
X20920491Y43790071D01*
X20916797Y43752375D01*
X20918691Y43746139D01*
X20920566Y43733416D01*
X20920055Y43498846D01*
X20919814Y43496394D01*
X20919931Y43441630D01*
X20919931Y43441444D01*
X20919812Y43386615D01*
X20920053Y43384160D01*
X20920779Y43043385D01*
X20920780Y43043382D01*
X20961239Y42946289D01*
X21035774Y42872070D01*
X21133038Y42832025D01*
X21238222Y42832249D01*
X21335315Y42872708D01*
X21335316Y42872709D01*
X21357091Y42894576D01*
X21387787Y42907368D01*
X21418538Y42894707D01*
X21431330Y42864011D01*
X21431330Y29558608D01*
X21418604Y29527884D01*
X21414331Y29524137D01*
X21368548Y29489007D01*
X21368545Y29489004D01*
X21274073Y29365885D01*
X21214685Y29222505D01*
X21214682Y29222497D01*
X21199514Y29107279D01*
X21199514Y29030013D01*
X21199515Y29030007D01*
X21214683Y28914788D01*
X21214684Y28914783D01*
X21214685Y28914778D01*
X21236911Y28861120D01*
X21274073Y28771400D01*
X21368547Y28648279D01*
X21368550Y28648276D01*
X21457904Y28579712D01*
X21491671Y28553802D01*
X21635050Y28494413D01*
X21682153Y28488212D01*
X21710953Y28471585D01*
X21719932Y28445134D01*
X21719932Y28291403D01*
X21717709Y28277682D01*
X21716857Y28275124D01*
X21716856Y28275120D01*
X21717161Y28270853D01*
X21716026Y28257438D01*
X21715009Y28253284D01*
X21715009Y28253279D01*
X21717032Y28240128D01*
X21717315Y28229134D01*
X21715963Y28215819D01*
X21716085Y28214669D01*
X21716131Y28214213D01*
X21716233Y28213136D01*
X21717965Y28207579D01*
X21719932Y28194654D01*
X21719932Y28188910D01*
X21720962Y28186423D01*
X21724159Y28172892D01*
X21724350Y28170207D01*
X21726265Y28166381D01*
X21730351Y28153548D01*
X21731001Y28149320D01*
X21737904Y28137942D01*
X21742373Y28127891D01*
X21864784Y27719857D01*
X21866337Y27712285D01*
X21866477Y27711050D01*
X21872468Y27692317D01*
X21874331Y27683270D01*
X21876226Y27663687D01*
X21877461Y27659594D01*
X21877322Y27659553D01*
X21878470Y27656036D01*
X21878606Y27656083D01*
X21881446Y27648011D01*
X21881057Y27647875D01*
X21881534Y27646593D01*
X21881919Y27646744D01*
X21883485Y27642764D01*
X21888474Y27635004D01*
X21893543Y27623993D01*
X22318099Y26208807D01*
X22319931Y26196322D01*
X22319931Y26188910D01*
X22332958Y26157461D01*
X22334088Y26154734D01*
X22335562Y26150592D01*
X22346194Y26115155D01*
X22346195Y26115152D01*
X22350875Y26109414D01*
X22357346Y26098581D01*
X22360183Y26091732D01*
X22386348Y26065567D01*
X22389296Y26062304D01*
X22407099Y26040474D01*
X22412674Y26033639D01*
X22417934Y26030807D01*
X22419195Y26030128D01*
X22429320Y26022595D01*
X22434561Y26017354D01*
X22468754Y26003192D01*
X22472704Y26001316D01*
X22505286Y25983771D01*
X22512658Y25983023D01*
X22524893Y25979937D01*
X22531740Y25977101D01*
X22568744Y25977101D01*
X22573133Y25976880D01*
X22609933Y25973141D01*
X22609936Y25973142D01*
X22617028Y25975269D01*
X22629511Y25977101D01*
X22641979Y25977101D01*
X22641987Y25977102D01*
X23326677Y25977102D01*
X23326685Y25977101D01*
X23331740Y25977101D01*
X23441980Y25977101D01*
X23441988Y25977102D01*
X24126677Y25977102D01*
X24126685Y25977101D01*
X24131740Y25977101D01*
X24145253Y25977101D01*
X24156109Y25975724D01*
X24169188Y25972348D01*
X24199863Y25976675D01*
X24205932Y25977101D01*
X24236925Y25977101D01*
X24249406Y25982272D01*
X24259964Y25985154D01*
X24273342Y25987040D01*
X24300048Y26002791D01*
X24305469Y26005495D01*
X24334103Y26017354D01*
X24343655Y26026907D01*
X24352302Y26033607D01*
X24363945Y26040472D01*
X24382587Y26065241D01*
X24386559Y26069812D01*
X24408480Y26091731D01*
X24413650Y26104216D01*
X24419078Y26113719D01*
X24427203Y26124511D01*
X24434947Y26154521D01*
X24436866Y26160263D01*
X24448733Y26188909D01*
X24448733Y26202423D01*
X24450111Y26213280D01*
X24822993Y27658202D01*
X24826623Y27672269D01*
X24830246Y27680186D01*
X24829952Y27680313D01*
X24831654Y27684238D01*
X24831654Y27684243D01*
X24831656Y27684244D01*
X24831720Y27684541D01*
X24837135Y27698055D01*
X24837295Y27698316D01*
X24837419Y27699107D01*
X24842003Y27712786D01*
X24842375Y27713483D01*
X24842539Y27715172D01*
X24846198Y27728864D01*
X24846900Y27730413D01*
X24846900Y27730418D01*
X24847870Y27734583D01*
X24848415Y27734457D01*
X24848446Y27734601D01*
X24847896Y27734710D01*
X24848732Y27738912D01*
X24848732Y27752420D01*
X24850110Y27763277D01*
X24853486Y27776358D01*
X24853485Y27776361D01*
X24853486Y27776362D01*
X24853727Y27780634D01*
X24854048Y27780616D01*
X24854126Y27782774D01*
X24853804Y27782779D01*
X24853874Y27787053D01*
X24853875Y27787056D01*
X24853820Y27787354D01*
X24853652Y27801911D01*
X24853700Y27802214D01*
X24853513Y27802988D01*
X24852512Y27817380D01*
X24852590Y27818171D01*
X24852095Y27819796D01*
X24850236Y27833856D01*
X24850291Y27835543D01*
X24850289Y27835546D01*
X24850290Y27835548D01*
X24849593Y27839763D01*
X24850140Y27839854D01*
X24848732Y27847596D01*
X24848732Y28293468D01*
X24850798Y28306707D01*
X24852187Y28311048D01*
X24848882Y28350709D01*
X24848732Y28354317D01*
X24848732Y28394095D01*
X24846988Y28398304D01*
X24843830Y28411330D01*
X24843452Y28415870D01*
X24841269Y28420106D01*
X24825220Y28451247D01*
X24823709Y28454504D01*
X24808480Y28491273D01*
X24805253Y28494500D01*
X24797353Y28505322D01*
X24795266Y28509371D01*
X24764906Y28535060D01*
X24762249Y28537505D01*
X24731627Y28568126D01*
X24731626Y28568126D01*
X24711101Y28588651D01*
X24698375Y28619375D01*
X24708960Y28644933D01*
X24707546Y28646018D01*
X24782587Y28743814D01*
X24811386Y28760441D01*
X24843509Y28751834D01*
X24844598Y28750970D01*
X24883878Y28718734D01*
X24889900Y28712712D01*
X24963377Y28623180D01*
X24996334Y28583023D01*
X25001066Y28575941D01*
X25080157Y28427976D01*
X25083417Y28420106D01*
X25132121Y28259559D01*
X25133783Y28251206D01*
X25150437Y28082143D01*
X25150646Y28077877D01*
X25148784Y14571656D01*
X25136054Y14540934D01*
X25129472Y14535534D01*
X25099689Y14515635D01*
X25084027Y14509148D01*
X24999507Y14492337D01*
X24991031Y14491502D01*
X21153069Y14491502D01*
X21122345Y14504228D01*
X21110454Y14526475D01*
X21109842Y14529552D01*
X21056930Y14608741D01*
X21056929Y14608742D01*
X21030652Y14626300D01*
X20977741Y14661653D01*
X20884332Y14680233D01*
X20790923Y14661653D01*
X20711734Y14608742D01*
X20711733Y14608741D01*
X20658822Y14529552D01*
X20658821Y14529552D01*
X20658210Y14526475D01*
X20639734Y14498824D01*
X20615595Y14491502D01*
X19833248Y14491502D01*
X19817237Y14489975D01*
X19785211Y14486919D01*
X19774883Y14483889D01*
X19771133Y14482968D01*
X19690923Y14467013D01*
X19690919Y14467011D01*
X19611733Y14414101D01*
X19608706Y14411073D01*
X19608555Y14411224D01*
X19599912Y14402667D01*
X19593722Y14398622D01*
X19549779Y14333718D01*
X19549778Y14333717D01*
X19534332Y14256877D01*
X19534332Y14247225D01*
X19532851Y14235979D01*
X19517248Y14177748D01*
X19506003Y14158270D01*
X19467564Y14119831D01*
X19448086Y14108586D01*
X19389855Y14092983D01*
X19378609Y14091502D01*
X18942611Y14091502D01*
X18934134Y14092337D01*
X18930886Y14092983D01*
X18849606Y14109151D01*
X18833943Y14115639D01*
X18827669Y14119831D01*
X18765911Y14161097D01*
X18753925Y14173083D01*
X18750808Y14177748D01*
X18708467Y14241117D01*
X18701981Y14256776D01*
X18691405Y14309941D01*
X18685167Y14341306D01*
X18684332Y14349782D01*
X18684332Y15197172D01*
X18697058Y15227896D01*
X18703636Y15233295D01*
X18756930Y15268904D01*
X18809842Y15348093D01*
X18828422Y15441502D01*
X18809842Y15534911D01*
X18756930Y15614100D01*
X18756928Y15614102D01*
X18703642Y15649707D01*
X18685167Y15677358D01*
X18684332Y15685834D01*
X18684332Y16149585D01*
X18697058Y16180309D01*
X18708480Y16191731D01*
X18748732Y16288910D01*
X18748732Y16794094D01*
X18708480Y16891273D01*
X18697058Y16902695D01*
X18684332Y16933419D01*
X18684332Y17249585D01*
X18697058Y17280309D01*
X18708480Y17291731D01*
X18748732Y17388910D01*
X18748732Y17894094D01*
X18708480Y17991273D01*
X18697058Y18002695D01*
X18684332Y18033419D01*
X18684332Y18784846D01*
X18685167Y18793323D01*
X18701981Y18877853D01*
X18708466Y18893510D01*
X18708554Y18893642D01*
X20002372Y18893642D01*
X20020952Y18800233D01*
X20073864Y18721044D01*
X20153053Y18668132D01*
X20246462Y18649552D01*
X20339871Y18668132D01*
X20419060Y18721044D01*
X20471972Y18800233D01*
X20490552Y18893642D01*
X20471972Y18987051D01*
X20419060Y19066240D01*
X20339871Y19119152D01*
X20246462Y19137732D01*
X20153053Y19119152D01*
X20073864Y19066241D01*
X20073863Y19066240D01*
X20020952Y18987051D01*
X20002372Y18893642D01*
X18708554Y18893642D01*
X18728382Y18923316D01*
X18756032Y18941790D01*
X18764508Y18942625D01*
X19470752Y18942625D01*
X19470753Y18942625D01*
X19507691Y18957925D01*
X19535962Y18986196D01*
X19551262Y19023134D01*
X19551262Y40041502D01*
X20240242Y40041502D01*
X20258822Y39948093D01*
X20311734Y39868904D01*
X20390923Y39815992D01*
X20484332Y39797412D01*
X20577741Y39815992D01*
X20656930Y39868904D01*
X20709842Y39948093D01*
X20728422Y40041502D01*
X20709842Y40134911D01*
X20656930Y40214100D01*
X20577741Y40267012D01*
X20484332Y40285592D01*
X20390923Y40267012D01*
X20311734Y40214101D01*
X20311733Y40214100D01*
X20258822Y40134911D01*
X20240242Y40041502D01*
X19551262Y40041502D01*
X19551262Y41941502D01*
X20240242Y41941502D01*
X20258822Y41848093D01*
X20311734Y41768904D01*
X20390923Y41715992D01*
X20484332Y41697412D01*
X20577741Y41715992D01*
X20656930Y41768904D01*
X20709842Y41848093D01*
X20728422Y41941502D01*
X20709842Y42034911D01*
X20656930Y42114100D01*
X20577741Y42167012D01*
X20484332Y42185592D01*
X20390923Y42167012D01*
X20311734Y42114101D01*
X20311733Y42114100D01*
X20258822Y42034911D01*
X20240242Y41941502D01*
X19551262Y41941502D01*
X19551262Y45279941D01*
X19551472Y45284205D01*
X19568145Y45453299D01*
X19569807Y45461651D01*
X19572714Y45471233D01*
X20059143Y45471233D01*
X20077723Y45377824D01*
X20130635Y45298635D01*
X20209824Y45245723D01*
X20303233Y45227143D01*
X20396642Y45245723D01*
X20475831Y45298635D01*
X20528743Y45377824D01*
X20547323Y45471233D01*
X20528743Y45564642D01*
X20475831Y45643831D01*
X20396642Y45696743D01*
X20303233Y45715323D01*
X20209824Y45696743D01*
X20130635Y45643832D01*
X20130634Y45643831D01*
X20079971Y45568006D01*
X20077723Y45564642D01*
X20059143Y45471233D01*
X19572714Y45471233D01*
X19618524Y45622208D01*
X19621774Y45630054D01*
X19700880Y45778039D01*
X19705604Y45785107D01*
X19812042Y45914803D01*
X19818058Y45920820D01*
X19947757Y46027269D01*
X19954825Y46031992D01*
X20102793Y46111097D01*
X20110650Y46114353D01*
X20271213Y46163079D01*
X20279552Y46164738D01*
X20448244Y46181379D01*
X20452509Y46181588D01*
X22328022Y46181588D01*
X22348008Y46181585D01*
X22348008Y46181586D01*
X22348012Y46181585D01*
X22348015Y46181587D01*
X22348023Y46181588D01*
X22348027Y46181588D01*
X22368376Y46190017D01*
X22383596Y46196319D01*
X22385123Y46196889D01*
X22385167Y46196919D01*
X22386626Y46198550D01*
X22402106Y46214030D01*
X22848279Y46660074D01*
X22879002Y46672795D01*
X22909724Y46660064D01*
G37*
%TD.AperFunction*%
%TD*%
%TA.AperFunction,Conductor*%
%TO.N,VBAT*%
G36*
X-10782584Y48130864D02*
G01*
X-10776162Y48130865D01*
X-10776160Y48130863D01*
X-10751363Y48130865D01*
X-10747109Y48130657D01*
X-10577995Y48114011D01*
X-10569649Y48112352D01*
X-10409077Y48063653D01*
X-10401210Y48060393D01*
X-10253241Y47981311D01*
X-10246158Y47976579D01*
X-10116457Y47870145D01*
X-10110434Y47864123D01*
X-10003989Y47734429D01*
X-9999256Y47727346D01*
X-9920162Y47579379D01*
X-9916902Y47571510D01*
X-9868194Y47410952D01*
X-9866532Y47402597D01*
X-9849947Y47234228D01*
X-9849738Y47229969D01*
X-9849738Y19023134D01*
X-9834438Y18986196D01*
X-9806167Y18957925D01*
X-9769229Y18942625D01*
X-9729247Y18942625D01*
X18565672Y18942625D01*
X18596396Y18929899D01*
X18609122Y18899175D01*
X18608287Y18890704D01*
X18592581Y18811739D01*
X18592580Y18811733D01*
X18592576Y18811714D01*
X18591225Y18802605D01*
X18591223Y18802591D01*
X18591222Y18802577D01*
X18590405Y18794291D01*
X18590386Y18794090D01*
X18589932Y18784864D01*
X18589932Y18148302D01*
X18577206Y18117578D01*
X18546482Y18104852D01*
X18538006Y18105687D01*
X18536925Y18105902D01*
X18536924Y18105902D01*
X18136924Y18105902D01*
X18031740Y18105902D01*
X18021446Y18101638D01*
X17934560Y18065650D01*
X17860184Y17991274D01*
X17819932Y17894094D01*
X17819932Y17497604D01*
X17819931Y17497590D01*
X17819931Y17388909D01*
X17839039Y17342780D01*
X17839039Y17342778D01*
X17839040Y17342778D01*
X17860184Y17291731D01*
X17934561Y17217354D01*
X17975896Y17200233D01*
X18031740Y17177101D01*
X18031741Y17177101D01*
X18141979Y17177101D01*
X18141987Y17177102D01*
X18536921Y17177102D01*
X18536924Y17177102D01*
X18536926Y17177104D01*
X18537996Y17177316D01*
X18539073Y17177102D01*
X18541204Y17177102D01*
X18541204Y17176679D01*
X18570614Y17170835D01*
X18589095Y17143189D01*
X18589932Y17134703D01*
X18589932Y17048302D01*
X18577206Y17017578D01*
X18546482Y17004852D01*
X18538006Y17005687D01*
X18536925Y17005902D01*
X18536924Y17005902D01*
X18141987Y17005902D01*
X18141979Y17005903D01*
X18136924Y17005903D01*
X18031740Y17005903D01*
X17983150Y16985776D01*
X17934561Y16965650D01*
X17934559Y16965649D01*
X17860184Y16891274D01*
X17859092Y16888637D01*
X17849952Y16866570D01*
X17828219Y16814101D01*
X17819931Y16794093D01*
X17819931Y16683856D01*
X17819932Y16683847D01*
X17819932Y16394095D01*
X17819932Y16394094D01*
X17819932Y16288910D01*
X17860184Y16191731D01*
X17934561Y16117354D01*
X18031740Y16077102D01*
X18031741Y16077102D01*
X18536921Y16077102D01*
X18536924Y16077102D01*
X18536926Y16077104D01*
X18537996Y16077316D01*
X18539073Y16077102D01*
X18541204Y16077102D01*
X18541204Y16076679D01*
X18570614Y16070835D01*
X18589095Y16043189D01*
X18589932Y16034703D01*
X18589932Y15722365D01*
X18577206Y15691641D01*
X18554959Y15679750D01*
X18490923Y15667013D01*
X18490923Y15667012D01*
X18411734Y15614101D01*
X18411733Y15614100D01*
X18358822Y15534911D01*
X18340242Y15441502D01*
X18358822Y15348093D01*
X18411734Y15268904D01*
X18490923Y15215992D01*
X18554958Y15203255D01*
X18582609Y15184780D01*
X18589932Y15160640D01*
X18589932Y14973338D01*
X18577206Y14942614D01*
X18546482Y14929888D01*
X18522343Y14937210D01*
X18514255Y14942614D01*
X18477741Y14967012D01*
X18384332Y14985592D01*
X18290923Y14967012D01*
X18211734Y14914101D01*
X18211733Y14914100D01*
X18158822Y14834911D01*
X18140242Y14741503D01*
X18141436Y14735500D01*
X18134946Y14702884D01*
X18107295Y14684409D01*
X18074679Y14690899D01*
X18068096Y14696301D01*
X17873311Y14891086D01*
X17867907Y14897671D01*
X17856929Y14914101D01*
X17840500Y14925078D01*
X17833915Y14930482D01*
X17819940Y14944457D01*
X17801682Y14952020D01*
X17794173Y14956034D01*
X17777742Y14967012D01*
X17758356Y14970869D01*
X17750210Y14973340D01*
X17747417Y14974497D01*
X17731952Y14980902D01*
X17731950Y14980902D01*
X17712189Y14980902D01*
X17703712Y14981737D01*
X17684332Y14985592D01*
X17664952Y14981737D01*
X17656475Y14980902D01*
X17312189Y14980902D01*
X17303712Y14981737D01*
X17284332Y14985592D01*
X17264952Y14981737D01*
X17256475Y14980902D01*
X16912189Y14980902D01*
X16903712Y14981737D01*
X16884332Y14985592D01*
X16864952Y14981737D01*
X16856475Y14980902D01*
X16836708Y14980902D01*
X16818454Y14973341D01*
X16810308Y14970869D01*
X16790921Y14967012D01*
X16774490Y14956033D01*
X16766980Y14952019D01*
X16748725Y14944458D01*
X16748724Y14944457D01*
X16734746Y14930480D01*
X16728165Y14925080D01*
X16711736Y14914102D01*
X16711732Y14914098D01*
X16700754Y14897669D01*
X16695354Y14891088D01*
X16681377Y14877110D01*
X16681376Y14877109D01*
X16673815Y14858854D01*
X16669801Y14851344D01*
X16658822Y14834913D01*
X16654965Y14815526D01*
X16652493Y14807380D01*
X16644932Y14789126D01*
X16644932Y14769360D01*
X16644097Y14760884D01*
X16640242Y14741503D01*
X16640242Y14741502D01*
X16644097Y14722122D01*
X16644932Y14713645D01*
X16644932Y14369360D01*
X16644097Y14360884D01*
X16640242Y14341503D01*
X16640242Y14341502D01*
X16644097Y14322122D01*
X16644932Y14313645D01*
X16644932Y14293882D01*
X16648540Y14285172D01*
X16652494Y14275624D01*
X16654965Y14267478D01*
X16658822Y14248093D01*
X16658822Y14248092D01*
X16669800Y14231661D01*
X16673814Y14224153D01*
X16675265Y14220651D01*
X16681024Y14206747D01*
X16684332Y14190119D01*
X16684332Y12692887D01*
X16681025Y12676260D01*
X16673816Y12658855D01*
X16669801Y12651344D01*
X16658822Y12634913D01*
X16654965Y12615526D01*
X16652493Y12607380D01*
X16644932Y12589126D01*
X16644932Y12569360D01*
X16644097Y12560884D01*
X16640242Y12541503D01*
X16640242Y12541502D01*
X16644097Y12522122D01*
X16644932Y12513645D01*
X16644932Y12169360D01*
X16644097Y12160884D01*
X16640242Y12141503D01*
X16640242Y12141502D01*
X16644097Y12122122D01*
X16644932Y12113645D01*
X16644932Y12093882D01*
X16651337Y12078417D01*
X16652494Y12075624D01*
X16654963Y12067484D01*
X16655950Y12062527D01*
X16649469Y12029909D01*
X16621822Y12011429D01*
X16613337Y12010592D01*
X16609332Y12010592D01*
X16515923Y11992012D01*
X16436734Y11939101D01*
X16436733Y11939100D01*
X16388051Y11866240D01*
X16383822Y11859911D01*
X16365242Y11766502D01*
X16383822Y11673093D01*
X16436734Y11593904D01*
X16515923Y11540992D01*
X16609332Y11522412D01*
X16702741Y11540992D01*
X16781930Y11593904D01*
X16834842Y11673093D01*
X16853422Y11766502D01*
X16837711Y11845487D01*
X16844199Y11878101D01*
X16871849Y11896577D01*
X16880326Y11897412D01*
X16884332Y11897412D01*
X16903712Y11901268D01*
X16912189Y11902102D01*
X16931952Y11902102D01*
X17236712Y11902102D01*
X17256475Y11902102D01*
X17264951Y11901268D01*
X17284332Y11897412D01*
X17303712Y11901268D01*
X17312189Y11902102D01*
X17331952Y11902102D01*
X17636712Y11902102D01*
X17656475Y11902102D01*
X17664951Y11901268D01*
X17684332Y11897412D01*
X17703712Y11901268D01*
X17712189Y11902102D01*
X17731951Y11902102D01*
X17731952Y11902102D01*
X17750212Y11909666D01*
X17758357Y11912137D01*
X17777741Y11915992D01*
X17794176Y11926975D01*
X17801681Y11930986D01*
X17819941Y11938548D01*
X17833920Y11952529D01*
X17840493Y11957923D01*
X17856930Y11968904D01*
X17867914Y11985345D01*
X17873305Y11991914D01*
X18268150Y12386758D01*
X20609035Y12386758D01*
X20627615Y12293349D01*
X20658632Y12246929D01*
X20677583Y12218565D01*
X20680527Y12214160D01*
X20759716Y12161248D01*
X20853125Y12142668D01*
X20946534Y12161248D01*
X21025723Y12214160D01*
X21078635Y12293349D01*
X21097215Y12386758D01*
X21078635Y12480167D01*
X21025723Y12559356D01*
X21023436Y12560884D01*
X20999445Y12576915D01*
X20946534Y12612268D01*
X20853125Y12630848D01*
X20759716Y12612268D01*
X20680527Y12559357D01*
X20680526Y12559356D01*
X20668597Y12541502D01*
X20627615Y12480167D01*
X20609035Y12386758D01*
X18268150Y12386758D01*
X18670769Y12789376D01*
X18701493Y12802102D01*
X18936712Y12802102D01*
X18956475Y12802102D01*
X18964951Y12801268D01*
X18984332Y12797412D01*
X19003712Y12801268D01*
X19012189Y12802102D01*
X19356475Y12802102D01*
X19364951Y12801268D01*
X19384332Y12797412D01*
X19403712Y12801268D01*
X19412189Y12802102D01*
X19431951Y12802102D01*
X19431952Y12802102D01*
X19450212Y12809666D01*
X19458357Y12812137D01*
X19477741Y12815992D01*
X19494178Y12826976D01*
X19501679Y12830986D01*
X19519941Y12838549D01*
X19533917Y12852527D01*
X19540487Y12857919D01*
X19556930Y12868904D01*
X19556931Y12868907D01*
X19560192Y12871085D01*
X19592809Y12877572D01*
X19608470Y12871085D01*
X19628163Y12857927D01*
X19634748Y12852523D01*
X19648723Y12838548D01*
X19666981Y12830986D01*
X19674491Y12826972D01*
X19690923Y12815992D01*
X19710306Y12812137D01*
X19718450Y12809667D01*
X19736712Y12802102D01*
X19756475Y12802102D01*
X19764951Y12801268D01*
X19784332Y12797412D01*
X19803712Y12801268D01*
X19812189Y12802102D01*
X19831952Y12802102D01*
X20136712Y12802102D01*
X20156475Y12802102D01*
X20164951Y12801268D01*
X20184332Y12797412D01*
X20203712Y12801268D01*
X20212189Y12802102D01*
X20231952Y12802102D01*
X20536712Y12802102D01*
X20556475Y12802102D01*
X20564951Y12801268D01*
X20584332Y12797412D01*
X20603712Y12801268D01*
X20612189Y12802102D01*
X20631952Y12802102D01*
X20936712Y12802102D01*
X20956475Y12802102D01*
X20964951Y12801268D01*
X20984332Y12797412D01*
X21003712Y12801268D01*
X21012189Y12802102D01*
X21031951Y12802102D01*
X21031952Y12802102D01*
X21050212Y12809666D01*
X21058357Y12812137D01*
X21077741Y12815992D01*
X21094178Y12826976D01*
X21101679Y12830986D01*
X21119941Y12838549D01*
X21133917Y12852527D01*
X21140486Y12857918D01*
X21156930Y12868904D01*
X21167916Y12885348D01*
X21173307Y12891917D01*
X21187285Y12905893D01*
X21194848Y12924155D01*
X21198858Y12931656D01*
X21209842Y12948093D01*
X21213697Y12967477D01*
X21216168Y12975622D01*
X21223732Y12993882D01*
X21223732Y13013645D01*
X21224567Y13022122D01*
X21228422Y13041502D01*
X21228422Y13041503D01*
X21224567Y13060884D01*
X21223732Y13069360D01*
X21223732Y13393642D01*
X21954824Y13393642D01*
X21973404Y13300233D01*
X22026316Y13221044D01*
X22105505Y13168132D01*
X22198914Y13149552D01*
X22292323Y13168132D01*
X22371512Y13221044D01*
X22424424Y13300233D01*
X22443004Y13393642D01*
X22424424Y13487051D01*
X22371512Y13566240D01*
X22361860Y13572689D01*
X22317840Y13602102D01*
X22292323Y13619152D01*
X22198914Y13637732D01*
X22105505Y13619152D01*
X22026316Y13566241D01*
X22026315Y13566240D01*
X21980499Y13497670D01*
X21973404Y13487051D01*
X21954824Y13393642D01*
X21223732Y13393642D01*
X21223732Y13413645D01*
X21224567Y13422122D01*
X21228422Y13441502D01*
X21228422Y13441503D01*
X21224567Y13460884D01*
X21223732Y13469360D01*
X21223732Y13813645D01*
X21224567Y13822122D01*
X21228422Y13841502D01*
X21228422Y13841503D01*
X21224567Y13860884D01*
X21223732Y13869360D01*
X21223732Y13889122D01*
X21216167Y13907384D01*
X21213697Y13915528D01*
X21209842Y13934911D01*
X21198857Y13951351D01*
X21194848Y13958853D01*
X21187285Y13977111D01*
X21173313Y13991083D01*
X21167909Y13997668D01*
X21156930Y14014100D01*
X21156927Y14014102D01*
X21140497Y14025080D01*
X21133912Y14030484D01*
X21119940Y14044456D01*
X21101684Y14052019D01*
X21094176Y14056032D01*
X21077742Y14067012D01*
X21058356Y14070869D01*
X21050210Y14073340D01*
X21047417Y14074497D01*
X21031952Y14080902D01*
X21031950Y14080902D01*
X21012189Y14080902D01*
X21003712Y14081737D01*
X20984332Y14085592D01*
X20964952Y14081737D01*
X20956475Y14080902D01*
X20612189Y14080902D01*
X20603712Y14081737D01*
X20584332Y14085592D01*
X20564952Y14081737D01*
X20556475Y14080902D01*
X20536708Y14080902D01*
X20518454Y14073341D01*
X20510308Y14070869D01*
X20490921Y14067012D01*
X20474490Y14056033D01*
X20466980Y14052019D01*
X20448725Y14044458D01*
X20448724Y14044457D01*
X20434746Y14030480D01*
X20428165Y14025080D01*
X20411736Y14014102D01*
X20411733Y14014099D01*
X20400754Y13997669D01*
X20395354Y13991089D01*
X20381380Y13977113D01*
X20097895Y13693628D01*
X20067171Y13680902D01*
X20046236Y13680902D01*
X20015512Y13693628D01*
X20002786Y13724352D01*
X20008721Y13743925D01*
X20008204Y13744139D01*
X20009838Y13748088D01*
X20009842Y13748093D01*
X20028422Y13841502D01*
X20009842Y13934911D01*
X19956930Y14014100D01*
X19956929Y14014101D01*
X19954750Y14017362D01*
X19948262Y14049979D01*
X19954750Y14065642D01*
X19959894Y14073340D01*
X20009842Y14148093D01*
X20028422Y14241502D01*
X20009842Y14334911D01*
X20008966Y14337025D01*
X20008967Y14370280D01*
X20032482Y14393795D01*
X20049109Y14397102D01*
X20612349Y14397102D01*
X20643073Y14384376D01*
X20654964Y14362129D01*
X20658822Y14342734D01*
X20675667Y14317524D01*
X20709932Y14266241D01*
X20711734Y14263545D01*
X20790923Y14210633D01*
X20884332Y14192053D01*
X20977741Y14210633D01*
X21056930Y14263545D01*
X21109842Y14342734D01*
X21113699Y14362129D01*
X21132174Y14389779D01*
X21156314Y14397102D01*
X23978930Y14397102D01*
X24009654Y14384376D01*
X24022380Y14353652D01*
X24009654Y14322928D01*
X24003069Y14317524D01*
X23926316Y14266241D01*
X23926315Y14266240D01*
X23884020Y14202939D01*
X23873404Y14187051D01*
X23854824Y14093642D01*
X23873404Y14000233D01*
X23897627Y13963981D01*
X23919595Y13931102D01*
X23926316Y13921044D01*
X24005505Y13868132D01*
X24098914Y13849552D01*
X24192323Y13868132D01*
X24271512Y13921044D01*
X24324424Y14000233D01*
X24343004Y14093642D01*
X24324424Y14187051D01*
X24271512Y14266240D01*
X24269659Y14267478D01*
X24232975Y14291989D01*
X24194758Y14317525D01*
X24176283Y14345175D01*
X24182770Y14377791D01*
X24210421Y14396267D01*
X24218898Y14397102D01*
X24991041Y14397102D01*
X24991046Y14397103D01*
X25000286Y14397557D01*
X25008762Y14398392D01*
X25017922Y14399751D01*
X25096831Y14415446D01*
X25129447Y14408958D01*
X25147922Y14381307D01*
X25148757Y14372825D01*
X25147974Y8685420D01*
X25147974Y8685419D01*
X25147973Y8679580D01*
X25147895Y8676990D01*
X25134593Y8454796D01*
X25133976Y8449653D01*
X25094552Y8231892D01*
X25093327Y8226858D01*
X25028264Y8015331D01*
X25026448Y8010479D01*
X24936677Y7808213D01*
X24934297Y7803611D01*
X24821084Y7613460D01*
X24818173Y7609175D01*
X24682378Y7432870D01*
X24680735Y7430864D01*
X24678707Y7428534D01*
X24678708Y7428533D01*
X17612003Y-694241D01*
X17582236Y-709067D01*
X17550703Y-698503D01*
X17536607Y-674199D01*
X17536403Y-673171D01*
X17524424Y-612949D01*
X17471512Y-533760D01*
X17467242Y-530907D01*
X17433362Y-508269D01*
X17392323Y-480848D01*
X17298914Y-462268D01*
X17205505Y-480848D01*
X17126316Y-533759D01*
X17126315Y-533760D01*
X17093623Y-582689D01*
X17073404Y-612949D01*
X17054824Y-706358D01*
X17073404Y-799767D01*
X17105201Y-847355D01*
X17113123Y-859212D01*
X17126316Y-878956D01*
X17205505Y-931868D01*
X17298914Y-950448D01*
X17298915Y-950447D01*
X17302326Y-951126D01*
X17329977Y-969601D01*
X17336465Y-1002217D01*
X17326631Y-1022260D01*
X16537662Y-1929134D01*
X16537657Y-1929141D01*
X16526363Y-1942123D01*
X16523817Y-1944810D01*
X16417481Y-2047782D01*
X16411730Y-2052469D01*
X16290975Y-2134792D01*
X16284510Y-2138433D01*
X16151505Y-2199014D01*
X16144515Y-2201501D01*
X16003151Y-2238567D01*
X15995840Y-2239829D01*
X15848288Y-2252472D01*
X15844579Y-2252631D01*
X15626402Y-2252631D01*
X15595678Y-2239905D01*
X15582952Y-2209181D01*
X15590274Y-2185042D01*
X15601067Y-2168888D01*
X15643080Y-2106011D01*
X15661660Y-2012602D01*
X15643080Y-1919193D01*
X15590168Y-1840004D01*
X15510979Y-1787092D01*
X15417570Y-1768512D01*
X15324161Y-1787092D01*
X15244972Y-1840003D01*
X15244971Y-1840004D01*
X15214773Y-1885200D01*
X15192060Y-1919193D01*
X15173480Y-2012602D01*
X15192060Y-2106011D01*
X15211291Y-2134792D01*
X15244866Y-2185042D01*
X15251353Y-2217658D01*
X15232877Y-2245309D01*
X15208738Y-2252631D01*
X13558639Y-2252631D01*
X13527915Y-2239905D01*
X13515189Y-2209181D01*
X13522511Y-2185042D01*
X13529386Y-2174752D01*
X13563367Y-2123896D01*
X13581947Y-2030487D01*
X13563367Y-1937078D01*
X13510455Y-1857889D01*
X13431266Y-1804977D01*
X13337857Y-1786397D01*
X13244448Y-1804977D01*
X13165259Y-1857888D01*
X13165258Y-1857889D01*
X13141431Y-1893550D01*
X13112347Y-1937078D01*
X13093767Y-2030487D01*
X13112347Y-2123896D01*
X13125799Y-2144028D01*
X13153203Y-2185042D01*
X13159690Y-2217658D01*
X13141214Y-2245309D01*
X13117075Y-2252631D01*
X11326402Y-2252631D01*
X11295678Y-2239905D01*
X11282952Y-2209181D01*
X11290274Y-2185042D01*
X11301067Y-2168888D01*
X11343080Y-2106011D01*
X11361660Y-2012602D01*
X11343080Y-1919193D01*
X11290168Y-1840004D01*
X11210979Y-1787092D01*
X11117570Y-1768512D01*
X11024161Y-1787092D01*
X10944972Y-1840003D01*
X10944971Y-1840004D01*
X10914773Y-1885200D01*
X10892060Y-1919193D01*
X10873480Y-2012602D01*
X10892060Y-2106011D01*
X10911291Y-2134792D01*
X10944866Y-2185042D01*
X10951353Y-2217658D01*
X10932877Y-2245309D01*
X10908738Y-2252631D01*
X8817205Y-2252631D01*
X8786481Y-2239905D01*
X8773755Y-2209181D01*
X8781077Y-2185042D01*
X8787952Y-2174752D01*
X8821933Y-2123896D01*
X8840513Y-2030487D01*
X8821933Y-1937078D01*
X8769021Y-1857889D01*
X8689832Y-1804977D01*
X8596423Y-1786397D01*
X8503014Y-1804977D01*
X8423825Y-1857888D01*
X8423824Y-1857889D01*
X8399997Y-1893550D01*
X8370913Y-1937078D01*
X8352333Y-2030487D01*
X8370913Y-2123896D01*
X8384365Y-2144028D01*
X8411769Y-2185042D01*
X8418256Y-2217658D01*
X8399780Y-2245309D01*
X8375641Y-2252631D01*
X7491305Y-2252631D01*
X7451323Y-2252631D01*
X7451321Y-2252631D01*
X7451318Y-2252632D01*
X7448904Y-2253632D01*
X7415648Y-2253627D01*
X7404065Y-2246527D01*
X7394215Y-2238114D01*
X7394210Y-2238112D01*
X7363489Y-2225387D01*
X7363487Y-2225386D01*
X7363483Y-2225385D01*
X7327368Y-2218202D01*
X7327364Y-2218202D01*
X7064606Y-2218202D01*
X7033882Y-2205476D01*
X7021156Y-2174752D01*
X7033882Y-2144028D01*
X7147424Y-2030487D01*
X7310383Y-1867528D01*
X7341107Y-1854802D01*
X7356954Y-1854802D01*
X7387678Y-1867528D01*
X7393081Y-1874112D01*
X7406069Y-1893550D01*
X7485258Y-1946462D01*
X7578667Y-1965042D01*
X7672076Y-1946462D01*
X7751265Y-1893550D01*
X7764781Y-1873321D01*
X7792430Y-1854846D01*
X7825047Y-1861333D01*
X7837036Y-1873323D01*
X7844970Y-1885198D01*
X7844971Y-1885199D01*
X7844972Y-1885200D01*
X7924161Y-1938112D01*
X8017570Y-1956692D01*
X8110979Y-1938112D01*
X8190168Y-1885200D01*
X8243080Y-1806011D01*
X8261660Y-1712602D01*
X8243080Y-1619193D01*
X8190168Y-1540004D01*
X8110979Y-1487092D01*
X8040495Y-1473072D01*
X8017571Y-1468512D01*
X8017569Y-1468512D01*
X7994641Y-1473072D01*
X7962025Y-1466584D01*
X7955441Y-1461181D01*
X7793391Y-1299131D01*
X7793390Y-1299130D01*
X7744194Y-1278752D01*
X7347447Y-1278752D01*
X7294199Y-1278752D01*
X7245003Y-1299130D01*
X7245001Y-1299131D01*
X5187248Y-3356885D01*
X5156524Y-3369611D01*
X5122164Y-3369611D01*
X5091440Y-3356885D01*
X5086036Y-3350300D01*
X5073048Y-3330862D01*
X5046771Y-3313304D01*
X4993860Y-3277951D01*
X4993859Y-3277950D01*
X4907327Y-3260738D01*
X4879676Y-3242262D01*
X4873765Y-3229105D01*
X4870672Y-3217261D01*
X4869803Y-3215472D01*
X4854591Y-3184126D01*
X4839805Y-3164602D01*
X4811432Y-3127138D01*
X4799698Y-3114298D01*
X4787904Y-3103570D01*
X4779702Y-3097388D01*
X4774020Y-3093105D01*
X4769156Y-3090099D01*
X4754817Y-3081236D01*
X4709778Y-3053399D01*
X4709772Y-3053395D01*
X4694195Y-3045653D01*
X4694196Y-3045653D01*
X4679324Y-3039901D01*
X4662591Y-3035147D01*
X4584352Y-3020545D01*
X4584336Y-3020542D01*
X4584327Y-3020540D01*
X4584311Y-3020538D01*
X4575713Y-3019341D01*
X4575718Y-3019341D01*
X4567740Y-3018603D01*
X4559055Y-3018202D01*
X4559044Y-3018202D01*
X3209804Y-3018202D01*
X3209793Y-3018202D01*
X3201872Y-3018535D01*
X3194567Y-3019152D01*
X3187539Y-3020046D01*
X3186659Y-3020158D01*
X3186656Y-3020158D01*
X3186652Y-3020159D01*
X3114811Y-3032394D01*
X3099421Y-3036374D01*
X3099413Y-3036377D01*
X3085658Y-3041202D01*
X3071144Y-3047714D01*
X3010662Y-3081236D01*
X3010649Y-3081244D01*
X2997449Y-3090090D01*
X2997432Y-3090103D01*
X2986048Y-3099211D01*
X2986047Y-3099212D01*
X2974530Y-3110141D01*
X2974514Y-3110158D01*
X2926044Y-3164612D01*
X2921028Y-3170748D01*
X2916633Y-3176615D01*
X2912145Y-3183164D01*
X2310468Y-4145851D01*
X2310461Y-4145863D01*
X2306029Y-4153782D01*
X2306019Y-4153801D01*
X2306014Y-4153809D01*
X2306010Y-4153818D01*
X2304089Y-4157677D01*
X2302262Y-4161349D01*
X2298598Y-4169706D01*
X2298596Y-4169711D01*
X2273930Y-4234301D01*
X2251080Y-4258463D01*
X2217838Y-4259391D01*
X2209566Y-4255170D01*
X-599218Y-2419261D01*
X-599706Y-2418842D01*
X-605605Y-2415008D01*
X-626473Y-2401445D01*
X-627029Y-2401077D01*
X-1192749Y-2019434D01*
X-1193971Y-2018578D01*
X-1615543Y-1712602D01*
X-1745890Y-1617996D01*
X-1747055Y-1617120D01*
X-2284935Y-1197787D01*
X-2286094Y-1196851D01*
X-2809224Y-759320D01*
X-2810348Y-758347D01*
X-2878437Y-697306D01*
X-3145616Y-457781D01*
X-3318139Y-303115D01*
X-3319233Y-302100D01*
X-3811590Y170781D01*
X-3812123Y171302D01*
X-3830646Y189714D01*
X-3830739Y189806D01*
X-3830786Y189853D01*
X-3830786Y189854D01*
X-4473201Y828423D01*
X-1384930Y828423D01*
X-1381365Y814158D01*
X-1380069Y803625D01*
X-1380069Y788909D01*
X-1368667Y761384D01*
X-1366655Y755290D01*
X-1359430Y726377D01*
X-1359429Y726375D01*
X-1350676Y714560D01*
X-1345447Y705324D01*
X-1339817Y691732D01*
X-1318748Y670663D01*
X-1314559Y665803D01*
X-1296821Y641859D01*
X-1296819Y641857D01*
X-1296818Y641856D01*
X-1284207Y634288D01*
X-1275842Y627757D01*
X-1265439Y617354D01*
X-1237903Y605949D01*
X-1232185Y603069D01*
X-1206627Y587731D01*
X-1192075Y585565D01*
X-1181858Y582734D01*
X-1168260Y577101D01*
X-1138452Y577101D01*
X-1132053Y576627D01*
X-1102590Y572240D01*
X-1088323Y575805D01*
X-1077790Y577101D01*
X-1058021Y577101D01*
X-1058013Y577102D01*
X-613077Y577102D01*
X-613076Y577102D01*
X-515897Y617354D01*
X-441520Y691731D01*
X-401268Y788910D01*
X-401268Y1233846D01*
X-401267Y1233855D01*
X-401267Y1347590D01*
X-401268Y1347604D01*
X-401268Y1933847D01*
X-401267Y1933856D01*
X-401267Y2047591D01*
X-401268Y2047605D01*
X-401268Y2194094D01*
X-434704Y2274817D01*
X-441520Y2291273D01*
X-515897Y2365650D01*
X-613076Y2405902D01*
X-718260Y2405902D01*
X-766850Y2385776D01*
X-815440Y2365650D01*
X-889816Y2291274D01*
X-930068Y2194094D01*
X-930068Y2119019D01*
X-942794Y2088295D01*
X-1165439Y1865650D01*
X-1165440Y1865650D01*
X-1191661Y1839430D01*
X-1194902Y1836500D01*
X-1223631Y1813041D01*
X-1223636Y1813035D01*
X-1227101Y1806590D01*
X-1234640Y1796450D01*
X-1239815Y1791275D01*
X-1239816Y1791274D01*
X-1239816Y1791273D01*
X-1249723Y1767354D01*
X-1254011Y1757004D01*
X-1255880Y1753065D01*
X-1273447Y1720394D01*
X-1274182Y1713114D01*
X-1277268Y1700859D01*
X-1280069Y1694097D01*
X-1280069Y1657001D01*
X-1280289Y1652635D01*
X-1314486Y1314015D01*
X-1317573Y1301754D01*
X-1320373Y1294994D01*
X-1320373Y1265194D01*
X-1320847Y1258795D01*
X-1371605Y917920D01*
X-1374437Y907695D01*
X-1380069Y894096D01*
X-1380069Y864286D01*
X-1380543Y857887D01*
X-1384930Y828426D01*
X-1384930Y828423D01*
X-4473201Y828423D01*
X-12092461Y8402072D01*
X-11774533Y8402072D01*
X-11755953Y8308663D01*
X-11703041Y8229474D01*
X-11623852Y8176562D01*
X-11530443Y8157982D01*
X-11437034Y8176562D01*
X-11357845Y8229474D01*
X-11304933Y8308663D01*
X-11286353Y8402072D01*
X-11304933Y8495481D01*
X-11357845Y8574670D01*
X-11358206Y8574911D01*
X-11384123Y8592229D01*
X-11437034Y8627582D01*
X-11530443Y8646162D01*
X-11623852Y8627582D01*
X-11703041Y8574671D01*
X-11703042Y8574670D01*
X-11740381Y8518787D01*
X-11755953Y8495481D01*
X-11774533Y8402072D01*
X-12092461Y8402072D01*
X-12920721Y9225374D01*
X-12591645Y9225374D01*
X-12573065Y9131965D01*
X-12520153Y9052776D01*
X-12440964Y8999864D01*
X-12347555Y8981284D01*
X-12254146Y8999864D01*
X-12222370Y9021096D01*
X-10728382Y9021096D01*
X-10709802Y8927687D01*
X-10674449Y8874776D01*
X-10657595Y8849552D01*
X-10656890Y8848498D01*
X-10577701Y8795586D01*
X-10484292Y8777006D01*
X-10390883Y8795586D01*
X-10311694Y8848498D01*
X-10258782Y8927687D01*
X-10240202Y9021096D01*
X-10244261Y9041502D01*
X-5159758Y9041502D01*
X-5141178Y8948093D01*
X-5088266Y8868904D01*
X-5009077Y8815992D01*
X-4915668Y8797412D01*
X-4822259Y8815992D01*
X-4743070Y8868904D01*
X-4690158Y8948093D01*
X-4671578Y9041502D01*
X-1759758Y9041502D01*
X-1741178Y8948093D01*
X-1688266Y8868904D01*
X-1609077Y8815992D01*
X-1515668Y8797412D01*
X-1422259Y8815992D01*
X-1343070Y8868904D01*
X-1290158Y8948093D01*
X-1271578Y9041502D01*
X-1290158Y9134911D01*
X-1343070Y9214100D01*
X-1343076Y9214104D01*
X-1389630Y9245210D01*
X-1422259Y9267012D01*
X-1515668Y9285592D01*
X-1609077Y9267012D01*
X-1688266Y9214101D01*
X-1688267Y9214100D01*
X-1729892Y9151802D01*
X-1741178Y9134911D01*
X-1759758Y9041502D01*
X-4671578Y9041502D01*
X-4690158Y9134911D01*
X-4743070Y9214100D01*
X-4743076Y9214104D01*
X-4789630Y9245210D01*
X-4804843Y9255375D01*
X-4823318Y9283025D01*
X-4816831Y9315641D01*
X-4804844Y9327629D01*
X-4743070Y9368904D01*
X-4690158Y9448093D01*
X-4671578Y9541502D01*
X-4690158Y9634911D01*
X-4743070Y9714100D01*
X-4748660Y9717835D01*
X-4773234Y9734255D01*
X-4822259Y9767012D01*
X-4915668Y9785592D01*
X-5009077Y9767012D01*
X-5088266Y9714101D01*
X-5088267Y9714100D01*
X-5137697Y9640121D01*
X-5141178Y9634911D01*
X-5159758Y9541502D01*
X-5141178Y9448093D01*
X-5120943Y9417809D01*
X-5088267Y9368905D01*
X-5088263Y9368901D01*
X-5026495Y9327629D01*
X-5008019Y9299979D01*
X-5014507Y9267363D01*
X-5026495Y9255375D01*
X-5088263Y9214104D01*
X-5088267Y9214100D01*
X-5129892Y9151802D01*
X-5141178Y9134911D01*
X-5159758Y9041502D01*
X-10244261Y9041502D01*
X-10258782Y9114505D01*
X-10311694Y9193694D01*
X-10390883Y9246606D01*
X-10484292Y9265186D01*
X-10577701Y9246606D01*
X-10656890Y9193695D01*
X-10656891Y9193694D01*
X-10700229Y9128832D01*
X-10709802Y9114505D01*
X-10728382Y9021096D01*
X-12222370Y9021096D01*
X-12174957Y9052776D01*
X-12122045Y9131965D01*
X-12103465Y9225374D01*
X-12122045Y9318783D01*
X-12174957Y9397972D01*
X-12183331Y9403567D01*
X-12204645Y9417809D01*
X-12254146Y9450884D01*
X-12347555Y9469464D01*
X-12440964Y9450884D01*
X-12520153Y9397973D01*
X-12520154Y9397972D01*
X-12567154Y9327630D01*
X-12573065Y9318783D01*
X-12591645Y9225374D01*
X-12920721Y9225374D01*
X-13518564Y9819638D01*
X-11359787Y9819638D01*
X-11341207Y9726229D01*
X-11288295Y9647040D01*
X-11209106Y9594128D01*
X-11115697Y9575548D01*
X-11022288Y9594128D01*
X-10943099Y9647040D01*
X-10890187Y9726229D01*
X-10886740Y9743557D01*
X-10489475Y9743557D01*
X-10488903Y9739314D01*
X-10489371Y9739252D01*
X-10489240Y9738393D01*
X-10488774Y9738472D01*
X-10488055Y9734254D01*
X-10471188Y9690135D01*
X-10470672Y9688711D01*
X-10455362Y9644058D01*
X-10453211Y9640358D01*
X-10453619Y9640121D01*
X-10453167Y9639375D01*
X-10452768Y9639625D01*
X-10450491Y9636006D01*
X-10418015Y9601692D01*
X-10417017Y9600600D01*
X-10224276Y9382160D01*
X-10221629Y9378522D01*
X-10190578Y9343887D01*
X-10189147Y9342207D01*
X-10160993Y9307394D01*
X-10160990Y9307393D01*
X-10157704Y9304655D01*
X-10157846Y9304485D01*
X-10155480Y9302600D01*
X-10155347Y9302774D01*
X-10153477Y9301349D01*
X-10153320Y9301204D01*
X-10151291Y9299682D01*
X-10151031Y9299486D01*
X-10150274Y9298909D01*
X-10150236Y9298891D01*
X-10150234Y9298889D01*
X-10109857Y9279525D01*
X-10107922Y9278535D01*
X-10068590Y9257145D01*
X-10064504Y9255874D01*
X-10064571Y9255662D01*
X-10061663Y9254825D01*
X-10061606Y9255038D01*
X-10059347Y9254441D01*
X-10059133Y9254362D01*
X-10056516Y9253691D01*
X-10056194Y9253607D01*
X-10055430Y9253405D01*
X-10055395Y9253404D01*
X-10055392Y9253402D01*
X-10010673Y9250964D01*
X-10008478Y9250788D01*
X-9963987Y9246081D01*
X-9963984Y9246083D01*
X-9959722Y9246470D01*
X-9959702Y9246248D01*
X-9956714Y9246586D01*
X-9956743Y9246803D01*
X-9954423Y9247117D01*
X-9954211Y9247125D01*
X-9951651Y9247490D01*
X-9951318Y9247537D01*
X-9950398Y9247662D01*
X-9950367Y9247674D01*
X-9950363Y9247673D01*
X-9908086Y9262544D01*
X-9906061Y9263199D01*
X-9863113Y9275888D01*
X-9863112Y9275890D01*
X-9859325Y9277878D01*
X-9859222Y9277682D01*
X-9856585Y9279140D01*
X-9856696Y9279330D01*
X-9854676Y9280506D01*
X-9854481Y9280596D01*
X-9852229Y9281928D01*
X-9851944Y9282095D01*
X-9851165Y9282549D01*
X-9844069Y9288911D01*
X-9817810Y9312455D01*
X-9816174Y9313849D01*
X-9781325Y9342030D01*
X-9781324Y9342033D01*
X-9778589Y9345316D01*
X-9778418Y9345174D01*
X-9776537Y9347534D01*
X-9776712Y9347667D01*
X-9775284Y9349542D01*
X-9769722Y9355568D01*
X-9767792Y9357298D01*
X-9552883Y9549975D01*
X-9551030Y9551338D01*
X-9548823Y9553334D01*
X-9548821Y9553334D01*
X-9521428Y9578094D01*
X-9510280Y9588170D01*
X-9510279Y9588168D01*
X-9510189Y9588253D01*
X-9471438Y9622993D01*
X-9471436Y9622999D01*
X-9471307Y9623169D01*
X-9471205Y9623305D01*
X-9470793Y9623855D01*
X-9470790Y9623863D01*
X-9470788Y9623864D01*
X-9448513Y9670794D01*
X-9425951Y9717835D01*
X-9425952Y9717835D01*
X-9425950Y9717837D01*
X-9425904Y9718019D01*
X-9425867Y9718167D01*
X-9425686Y9718878D01*
X-9425686Y9718885D01*
X-9425684Y9718888D01*
X-9423063Y9770786D01*
X-9423059Y9770786D01*
X-9423055Y9770939D01*
X-9421294Y9803217D01*
X-9420221Y9822871D01*
X-9420267Y9823184D01*
X-9420291Y9823349D01*
X-9420374Y9823928D01*
X-9437759Y9872725D01*
X-9437817Y9872889D01*
X-9451610Y9912101D01*
X-9455123Y9922090D01*
X-9455125Y9922092D01*
X-9455126Y9922096D01*
X-9455318Y9922418D01*
X-9455408Y9922570D01*
X-9455674Y9923019D01*
X-9490406Y9961446D01*
X-9490524Y9961576D01*
X-9527324Y10002622D01*
X-9529035Y10004183D01*
X-9697090Y10190117D01*
X-9701634Y10196116D01*
X-9703136Y10198504D01*
X-9731043Y10227989D01*
X-9733271Y10230534D01*
X-9733632Y10230981D01*
X-9742140Y10241502D01*
X-9159758Y10241502D01*
X-9141178Y10148093D01*
X-9116407Y10111020D01*
X-9101920Y10089338D01*
X-9088266Y10068904D01*
X-9009077Y10015992D01*
X-8915668Y9997412D01*
X-8822259Y10015992D01*
X-8743070Y10068904D01*
X-8690158Y10148093D01*
X-8671578Y10241502D01*
X-8690158Y10334911D01*
X-8743070Y10414100D01*
X-8749549Y10418429D01*
X-8769348Y10431659D01*
X-8822259Y10467012D01*
X-8915668Y10485592D01*
X-9009077Y10467012D01*
X-9088266Y10414101D01*
X-9088267Y10414100D01*
X-9127033Y10356081D01*
X-9141178Y10334911D01*
X-9159758Y10241502D01*
X-9742140Y10241502D01*
X-9758803Y10262106D01*
X-9758804Y10262107D01*
X-9758899Y10262158D01*
X-9770369Y10271191D01*
X-9770431Y10271260D01*
X-9770432Y10271261D01*
X-9770433Y10271262D01*
X-9770435Y10271263D01*
X-9772693Y10272942D01*
X-9772771Y10273012D01*
X-9773052Y10273216D01*
X-9773135Y10273264D01*
X-9775436Y10274895D01*
X-9775438Y10274897D01*
X-9775442Y10274899D01*
X-9812521Y10291468D01*
X-9815551Y10292966D01*
X-9851207Y10312355D01*
X-9851212Y10312357D01*
X-9851309Y10312367D01*
X-9865363Y10316322D01*
X-9865456Y10316366D01*
X-9868186Y10317054D01*
X-9868273Y10317084D01*
X-9868636Y10317171D01*
X-9868721Y10317183D01*
X-9871470Y10317809D01*
X-9912085Y10318928D01*
X-9915457Y10319153D01*
X-9955809Y10323421D01*
X-9955911Y10323390D01*
X-9970395Y10321667D01*
X-9970509Y10321673D01*
X-9973299Y10321263D01*
X-9973391Y10321258D01*
X-9973737Y10321203D01*
X-9973826Y10321179D01*
X-9976620Y10320703D01*
X-10014552Y10306201D01*
X-10017752Y10305118D01*
X-10056686Y10293612D01*
X-10056687Y10293611D01*
X-10056773Y10293541D01*
X-10069493Y10286407D01*
X-10069593Y10286372D01*
X-10072012Y10284926D01*
X-10072101Y10284883D01*
X-10072409Y10284695D01*
X-10072472Y10284646D01*
X-10074867Y10283140D01*
X-10104360Y10255227D01*
X-10106904Y10253001D01*
X-10138468Y10227476D01*
X-10138477Y10227464D01*
X-10138528Y10227369D01*
X-10147545Y10215916D01*
X-10147624Y10215845D01*
X-10149305Y10213585D01*
X-10154298Y10207964D01*
X-10400156Y9975276D01*
X-10401275Y9974253D01*
X-10436675Y9943017D01*
X-10439269Y9939614D01*
X-10439642Y9939899D01*
X-10440158Y9939198D01*
X-10439775Y9938927D01*
X-10442251Y9935435D01*
X-10461526Y9892301D01*
X-10462167Y9890931D01*
X-10482914Y9848536D01*
X-10484008Y9844401D01*
X-10484461Y9844521D01*
X-10484669Y9843674D01*
X-10484213Y9843570D01*
X-10485162Y9839403D01*
X-10486462Y9792169D01*
X-10486531Y9790655D01*
X-10489475Y9743557D01*
X-10886740Y9743557D01*
X-10871607Y9819638D01*
X-10890187Y9913047D01*
X-10943099Y9992236D01*
X-11022288Y10045148D01*
X-11115697Y10063728D01*
X-11209106Y10045148D01*
X-11288295Y9992237D01*
X-11288296Y9992236D01*
X-11323456Y9939614D01*
X-11341207Y9913047D01*
X-11359787Y9819638D01*
X-13518564Y9819638D01*
X-15472974Y11762349D01*
X-15475381Y11764944D01*
X-15563691Y11868327D01*
X-15567699Y11873843D01*
X-15570309Y11878101D01*
X-15637883Y11988358D01*
X-15640979Y11994434D01*
X-15648019Y12011429D01*
X-15692384Y12118521D01*
X-15694490Y12125002D01*
X-15695107Y12127571D01*
X-15725851Y12255606D01*
X-15726916Y12262329D01*
X-15737552Y12397430D01*
X-15737686Y12400840D01*
X-15737686Y13539993D01*
X-15737674Y13540091D01*
X-15737677Y13545759D01*
X-15737675Y13545761D01*
X-15737686Y13570575D01*
X-15737479Y13574801D01*
X-15720883Y13743957D01*
X-15719227Y13752297D01*
X-15670561Y13912903D01*
X-15667306Y13920766D01*
X-15655492Y13942881D01*
X-15629791Y13963981D01*
X-15596695Y13960729D01*
X-15575593Y13935027D01*
X-15574598Y13931102D01*
X-15570618Y13911620D01*
X-15569761Y13901525D01*
X-15580046Y13581975D01*
X-15581699Y13574296D01*
X-15581152Y13574187D01*
X-15581987Y13569988D01*
X-15581987Y13548335D01*
X-15582856Y13539689D01*
X-15587165Y13518467D01*
X-15587181Y13514641D01*
X-15587085Y13510760D01*
X-15584145Y13497670D01*
X-15583111Y13486755D01*
X-15583542Y13473340D01*
X-15582842Y13469116D01*
X-15583397Y13469025D01*
X-15581987Y13461296D01*
X-15581987Y13148335D01*
X-15582856Y13139689D01*
X-15587165Y13118467D01*
X-15587166Y13118464D01*
X-15582789Y13096002D01*
X-15581987Y13087693D01*
X-15581987Y12748335D01*
X-15582856Y12739689D01*
X-15587165Y12718467D01*
X-15587166Y12718464D01*
X-15582789Y12696002D01*
X-15581987Y12687693D01*
X-15581987Y12356100D01*
X-15583339Y12345346D01*
X-15586778Y12331884D01*
X-15586236Y12328105D01*
X-15586434Y12314518D01*
X-15587085Y12310764D01*
X-15587085Y12310762D01*
X-15587085Y12310761D01*
X-15583174Y12293349D01*
X-15583043Y12292769D01*
X-15581987Y12283246D01*
X-15581987Y12264805D01*
X-15576673Y12251977D01*
X-15573806Y12241523D01*
X-15571832Y12227769D01*
X-15571832Y12227768D01*
X-15571831Y12227766D01*
X-15569885Y12224484D01*
X-15564867Y12211851D01*
X-15564031Y12208134D01*
X-15553413Y12193058D01*
X-15548795Y12184670D01*
X-15543176Y12171105D01*
X-15541735Y12167627D01*
X-15531911Y12157803D01*
X-15525263Y12149244D01*
X-15518176Y12137294D01*
X-15515129Y12135012D01*
X-15505653Y12125256D01*
X-15503459Y12122141D01*
X-15503458Y12122140D01*
X-15487881Y12112278D01*
X-15480399Y12106291D01*
X-15467358Y12093250D01*
X-15454521Y12087932D01*
X-15445104Y12082569D01*
X-15019200Y11763602D01*
X-14991761Y11743053D01*
X-14987083Y11738999D01*
X-14739817Y11491733D01*
X-14739816Y11491731D01*
X-14665439Y11417354D01*
X-14665438Y11417354D01*
X-14439817Y11191733D01*
X-14439816Y11191731D01*
X-14365439Y11117354D01*
X-14365438Y11117354D01*
X-14139817Y10891733D01*
X-14139816Y10891731D01*
X-14065439Y10817354D01*
X-14065438Y10817354D01*
X-13839817Y10591733D01*
X-13839816Y10591731D01*
X-13765439Y10517354D01*
X-13765438Y10517354D01*
X-13539817Y10291733D01*
X-13539816Y10291731D01*
X-13465439Y10217354D01*
X-13417294Y10197412D01*
X-13368260Y10177101D01*
X-13368259Y10177101D01*
X-13263077Y10177101D01*
X-13263076Y10177101D01*
X-13214042Y10197412D01*
X-13165897Y10217354D01*
X-13091520Y10291731D01*
X-13091520Y10291733D01*
X-12870308Y10512945D01*
X-11848816Y10512945D01*
X-11830236Y10419536D01*
X-11777324Y10340347D01*
X-11698135Y10287435D01*
X-11604726Y10268855D01*
X-11511317Y10287435D01*
X-11442483Y10333428D01*
X-11006943Y10333428D01*
X-10988363Y10240019D01*
X-10959631Y10197018D01*
X-10937056Y10163231D01*
X-10935451Y10160830D01*
X-10856262Y10107918D01*
X-10762853Y10089338D01*
X-10669444Y10107918D01*
X-10590255Y10160830D01*
X-10537343Y10240019D01*
X-10518763Y10333428D01*
X-10537343Y10426837D01*
X-10590255Y10506026D01*
X-10598066Y10511245D01*
X-10630471Y10532897D01*
X-10669444Y10558938D01*
X-10762853Y10577518D01*
X-10856262Y10558938D01*
X-10935451Y10506027D01*
X-10935452Y10506026D01*
X-10970372Y10453763D01*
X-10988363Y10426837D01*
X-11006943Y10333428D01*
X-11442483Y10333428D01*
X-11432128Y10340347D01*
X-11379216Y10419536D01*
X-11360636Y10512945D01*
X-11379216Y10606354D01*
X-11432128Y10685543D01*
X-11446433Y10695101D01*
X-11465416Y10707785D01*
X-11511317Y10738455D01*
X-11549440Y10746038D01*
X-8360215Y10746038D01*
X-8356416Y10725111D01*
X-8355729Y10716338D01*
X-8356225Y10695103D01*
X-8348124Y10674173D01*
X-8345852Y10666016D01*
X-8341962Y10643895D01*
X-8341734Y10643318D01*
X-8341652Y10643108D01*
X-8341434Y10642546D01*
X-8329916Y10624667D01*
X-8325923Y10616821D01*
X-8318256Y10597013D01*
X-8318255Y10597012D01*
X-8318254Y10597010D01*
X-8302764Y10580778D01*
X-8297541Y10574109D01*
X-8284153Y10553071D01*
X-8282199Y10550593D01*
X-8185336Y10400234D01*
X-8126944Y10309591D01*
X-8120300Y10281142D01*
X-8173472Y9814418D01*
X-8176500Y9802710D01*
X-8180068Y9794097D01*
X-8180068Y9758986D01*
X-8180347Y9754068D01*
X-8184322Y9719179D01*
X-8184322Y9719174D01*
X-8181751Y9710210D01*
X-8180068Y9698235D01*
X-8180068Y9541002D01*
X-8180288Y9536638D01*
X-8184015Y9499730D01*
X-8181909Y9492730D01*
X-8180068Y9480216D01*
X-8180068Y9397604D01*
X-8180069Y9397590D01*
X-8180069Y9288909D01*
X-8162329Y9246083D01*
X-8162329Y9246081D01*
X-8162328Y9246081D01*
X-8139816Y9191731D01*
X-8065439Y9117354D01*
X-8022822Y9099702D01*
X-7968260Y9077101D01*
X-7968259Y9077101D01*
X-7858021Y9077101D01*
X-7858013Y9077102D01*
X-7558004Y9077102D01*
X-7546276Y9075489D01*
X-7543674Y9074760D01*
X-7536402Y9072721D01*
X-7502449Y9076793D01*
X-7497276Y9077102D01*
X-7463077Y9077102D01*
X-7463076Y9077102D01*
X-7453598Y9081029D01*
X-7442150Y9084026D01*
X-7431967Y9085246D01*
X-7402161Y9102000D01*
X-7397499Y9104265D01*
X-7365897Y9117354D01*
X-7358644Y9124609D01*
X-7349209Y9131761D01*
X-7340272Y9136783D01*
X-7319135Y9163683D01*
X-7315711Y9167542D01*
X-7291520Y9191731D01*
X-7287596Y9201207D01*
X-7281619Y9211425D01*
X-7275281Y9219488D01*
X-7266050Y9252418D01*
X-7264362Y9257303D01*
X-7251268Y9288910D01*
X-7251268Y9299166D01*
X-7249655Y9310895D01*
X-7249014Y9313181D01*
X-7246887Y9320768D01*
X-7250959Y9354723D01*
X-7251268Y9359896D01*
X-7251268Y9394093D01*
X-7251268Y9394094D01*
X-7255195Y9403573D01*
X-7258192Y9415024D01*
X-7258526Y9417808D01*
X-7270660Y9518994D01*
X-7273559Y9543168D01*
X-7273868Y9548341D01*
X-7273868Y9625707D01*
X-7270560Y9642335D01*
X-7258706Y9670953D01*
X-7251268Y9688909D01*
X-7251268Y9748492D01*
X-7248430Y9763938D01*
X-7104911Y10141219D01*
X-3085248Y10141219D01*
X-3080912Y10119541D01*
X-3080068Y10111020D01*
X-3080068Y9745099D01*
X-3080080Y9744084D01*
X-3081225Y9695102D01*
X-3080716Y9692193D01*
X-3080709Y9692104D01*
X-3080668Y9691885D01*
X-3080645Y9691807D01*
X-3080070Y9688914D01*
X-3079986Y9688711D01*
X-3061490Y9644057D01*
X-3061308Y9643619D01*
X-3060931Y9642676D01*
X-3043257Y9597013D01*
X-3041678Y9594528D01*
X-3041639Y9594453D01*
X-3041505Y9594248D01*
X-3041456Y9594186D01*
X-3039816Y9591731D01*
X-3005159Y9557074D01*
X-3004450Y9556347D01*
X-2987369Y9538449D01*
X-2970635Y9520914D01*
X-2970632Y9520913D01*
X-2968219Y9519217D01*
X-2968151Y9519160D01*
X-2967974Y9519039D01*
X-2967893Y9518994D01*
X-2965443Y9517358D01*
X-2965439Y9517354D01*
X-2920160Y9498600D01*
X-2919323Y9498241D01*
X-2878529Y9480216D01*
X-2874424Y9478402D01*
X-2871547Y9477760D01*
X-2871473Y9477737D01*
X-2871224Y9477685D01*
X-2871132Y9477674D01*
X-2868261Y9477103D01*
X-2868260Y9477102D01*
X-2819264Y9477102D01*
X-2818249Y9477090D01*
X-2769268Y9475946D01*
X-2769268Y9475947D01*
X-2769267Y9475946D01*
X-2769267Y9475947D01*
X-2766359Y9476454D01*
X-2766275Y9476462D01*
X-2766045Y9476505D01*
X-2765967Y9476527D01*
X-2763081Y9477102D01*
X-2763076Y9477102D01*
X-2717751Y9495877D01*
X-2716892Y9496221D01*
X-1968194Y9786040D01*
X-1961561Y9788015D01*
X-1945480Y9791435D01*
X-1934219Y9793830D01*
X-1934219Y9793831D01*
X-1934216Y9793831D01*
X-1920562Y9803220D01*
X-1911631Y9807935D01*
X-1896175Y9813917D01*
X-1875952Y9833217D01*
X-1870573Y9837587D01*
X-1847540Y9853420D01*
X-1838515Y9867323D01*
X-1832078Y9875087D01*
X-1820080Y9886535D01*
X-1808779Y9912113D01*
X-1805492Y9918190D01*
X-1790264Y9941644D01*
X-1787247Y9957939D01*
X-1784265Y9967590D01*
X-1777569Y9982744D01*
X-1777569Y9982745D01*
X-1777568Y9982747D01*
X-1776916Y10010696D01*
X-1776201Y10017586D01*
X-1771111Y10045070D01*
X-1771111Y10045071D01*
X-1774561Y10061289D01*
X-1775499Y10071332D01*
X-1775111Y10087903D01*
X-1785208Y10113984D01*
X-1787184Y10120624D01*
X-1791565Y10141219D01*
X-1792997Y10147954D01*
X-1802385Y10161610D01*
X-1807099Y10170538D01*
X-1807683Y10172047D01*
X-1813082Y10185995D01*
X-1832386Y10206223D01*
X-1836753Y10211599D01*
X-1839721Y10215916D01*
X-2027381Y10488876D01*
X-2034434Y10520631D01*
X-2029289Y10551502D01*
X-1059758Y10551502D01*
X-1041178Y10458093D01*
X-1011784Y10414101D01*
X-994953Y10388911D01*
X-988266Y10378904D01*
X-909077Y10325992D01*
X-815668Y10307412D01*
X-722259Y10325992D01*
X-643070Y10378904D01*
X-590158Y10458093D01*
X-571578Y10551502D01*
X-590158Y10644911D01*
X-643070Y10724100D01*
X-643889Y10724647D01*
X-676991Y10746765D01*
X-722259Y10777012D01*
X-815668Y10795592D01*
X-909077Y10777012D01*
X-988266Y10724101D01*
X-988267Y10724100D01*
X-1026235Y10667275D01*
X-1041178Y10644911D01*
X-1059758Y10551502D01*
X-2029289Y10551502D01*
X-1960648Y10963342D01*
X-1957933Y10972821D01*
X-1951268Y10988910D01*
X-1951268Y11011344D01*
X-1950442Y11019777D01*
X-1946088Y11041784D01*
X-1946090Y11041790D01*
X-1946093Y11045850D01*
X-1946220Y11049907D01*
X-1946219Y11049911D01*
X-1950148Y11066881D01*
X-1951268Y11076682D01*
X-1951268Y11494094D01*
X-1960339Y11515993D01*
X-1991520Y11591273D01*
X-2065897Y11665650D01*
X-2163076Y11705902D01*
X-2163077Y11705902D01*
X-2558013Y11705902D01*
X-2558021Y11705903D01*
X-2563076Y11705903D01*
X-2668260Y11705903D01*
X-2668262Y11705903D01*
X-2716392Y11685966D01*
X-2716393Y11685965D01*
X-2765440Y11665650D01*
X-2839816Y11591274D01*
X-2856368Y11551311D01*
X-2856369Y11551310D01*
X-2880069Y11494096D01*
X-2880069Y11383856D01*
X-2880068Y11383847D01*
X-2880068Y11101106D01*
X-2883208Y11084889D01*
X-3060361Y10644551D01*
X-3060528Y10644142D01*
X-3080095Y10596898D01*
X-3080298Y10595820D01*
X-3080380Y10595397D01*
X-3080592Y10594335D01*
X-3080070Y10543194D01*
X-3080068Y10542751D01*
X-3080068Y10171662D01*
X-3080894Y10163231D01*
X-3085248Y10141222D01*
X-3085248Y10141219D01*
X-7104911Y10141219D01*
X-7097337Y10161129D01*
X-7092855Y10169816D01*
X-7090158Y10173852D01*
X-7088703Y10181172D01*
X-7086230Y10189321D01*
X-7085900Y10190117D01*
X-7073868Y10219164D01*
X-7073868Y10219170D01*
X-7073166Y10222699D01*
X-7072569Y10226241D01*
X-7072567Y10226244D01*
X-7072706Y10230981D01*
X-7073342Y10252751D01*
X-7072526Y10262501D01*
X-7071578Y10267261D01*
X-7073033Y10274577D01*
X-7073868Y10283053D01*
X-7073868Y10398014D01*
X-5259758Y10398014D01*
X-5241178Y10304605D01*
X-5213389Y10263016D01*
X-5188820Y10226244D01*
X-5188266Y10225416D01*
X-5109077Y10172504D01*
X-5015668Y10153924D01*
X-4922259Y10172504D01*
X-4843070Y10225416D01*
X-4790158Y10304605D01*
X-4771578Y10398014D01*
X-4790158Y10491423D01*
X-4843070Y10570612D01*
X-4848304Y10574109D01*
X-4874680Y10591733D01*
X-4922259Y10623524D01*
X-5015668Y10642104D01*
X-5109077Y10623524D01*
X-5188266Y10570613D01*
X-5188267Y10570612D01*
X-5227935Y10511243D01*
X-5241178Y10491423D01*
X-5259758Y10398014D01*
X-7073868Y10398014D01*
X-7073868Y10521959D01*
X-7068689Y10542532D01*
X-7057887Y10562621D01*
X-7047322Y10667275D01*
X-7064409Y10724101D01*
X-7072028Y10749438D01*
X-7073868Y10761950D01*
X-7073868Y10912553D01*
X-7071351Y10923984D01*
X-7072010Y10924143D01*
X-7066158Y10948377D01*
X-7065147Y10952565D01*
X-7062657Y10959916D01*
X-7052568Y10982747D01*
X-7052225Y10997475D01*
X-7050685Y11007967D01*
X-7046781Y11022174D01*
X-7046782Y11022180D01*
X-7046480Y11026384D01*
X-7046310Y11030549D01*
X-7048210Y11042646D01*
X-7050182Y11055204D01*
X-7050695Y11062958D01*
X-7050374Y11076682D01*
X-7050111Y11087903D01*
X-7055429Y11101639D01*
X-7058022Y11111923D01*
X-7059852Y11126544D01*
X-7059853Y11126546D01*
X-7059853Y11126547D01*
X-7061148Y11130444D01*
X-7062624Y11134463D01*
X-7067083Y11141761D01*
X-7075635Y11155759D01*
X-7079073Y11162721D01*
X-7088082Y11185995D01*
X-7097060Y11195402D01*
X-7098256Y11196656D01*
X-7104584Y11205160D01*
X-7111870Y11217967D01*
X-7111874Y11217970D01*
X-7114611Y11221131D01*
X-7117460Y11224223D01*
X-7128871Y11232537D01*
X-7137627Y11238917D01*
X-7143464Y11244028D01*
X-7155911Y11257071D01*
X-7160701Y11262091D01*
X-7174180Y11268047D01*
X-7183283Y11273484D01*
X-7194912Y11282524D01*
X-7194913Y11282525D01*
X-7198635Y11284389D01*
X-7202476Y11286167D01*
X-7226721Y11292023D01*
X-7234078Y11294514D01*
X-7256911Y11304602D01*
X-7256914Y11304603D01*
X-7271641Y11304947D01*
X-7282132Y11306487D01*
X-7296339Y11310389D01*
X-7300508Y11310689D01*
X-7304720Y11310861D01*
X-7329368Y11306991D01*
X-7337120Y11306477D01*
X-7362066Y11307060D01*
X-7362072Y11307059D01*
X-7375807Y11301742D01*
X-7386087Y11299150D01*
X-7400709Y11297318D01*
X-7404654Y11296007D01*
X-7408629Y11294546D01*
X-7429921Y11281540D01*
X-7436885Y11278100D01*
X-8157999Y10998958D01*
X-8166158Y10996685D01*
X-8188276Y10992796D01*
X-8188810Y10992584D01*
X-8189052Y10992490D01*
X-8189623Y10992269D01*
X-8207509Y10980749D01*
X-8215348Y10976759D01*
X-8235159Y10969089D01*
X-8251396Y10953596D01*
X-8258061Y10948377D01*
X-8277016Y10936313D01*
X-8277365Y10935975D01*
X-8277558Y10935789D01*
X-8278051Y10935319D01*
X-8290167Y10917829D01*
X-8295883Y10911142D01*
X-8311255Y10896471D01*
X-8311258Y10896467D01*
X-8320329Y10875939D01*
X-8324490Y10868565D01*
X-8337381Y10850173D01*
X-8337652Y10849546D01*
X-8337754Y10849312D01*
X-8337961Y10848844D01*
X-8342459Y10828063D01*
X-8345180Y10819698D01*
X-8353768Y10800258D01*
X-8353769Y10800257D01*
X-8354293Y10777823D01*
X-8355315Y10769417D01*
X-8360188Y10747483D01*
X-8360200Y10746715D01*
X-8360205Y10746477D01*
X-8360215Y10746038D01*
X-11549440Y10746038D01*
X-11604726Y10757035D01*
X-11698135Y10738455D01*
X-11777324Y10685544D01*
X-11777325Y10685543D01*
X-11820485Y10620948D01*
X-11830236Y10606354D01*
X-11848816Y10512945D01*
X-12870308Y10512945D01*
X-12865899Y10517354D01*
X-12865897Y10517354D01*
X-12791520Y10591731D01*
X-12791520Y10591733D01*
X-12565899Y10817354D01*
X-12565897Y10817354D01*
X-12491520Y10891731D01*
X-12491520Y10891733D01*
X-12263082Y11120172D01*
X-12252119Y11128143D01*
X-12248578Y11129950D01*
X-12231645Y11149815D01*
X-12226355Y11155038D01*
X-12206275Y11171715D01*
X-12203481Y11177020D01*
X-12195765Y11187489D01*
X-12191521Y11191731D01*
X-12190000Y11195405D01*
X-12182926Y11206964D01*
X-12130761Y11268155D01*
X-11341216Y11268155D01*
X-11322636Y11174746D01*
X-11292908Y11130255D01*
X-11277118Y11106622D01*
X-11269724Y11095557D01*
X-11190535Y11042645D01*
X-11097126Y11024065D01*
X-11003717Y11042645D01*
X-10924528Y11095557D01*
X-10871616Y11174746D01*
X-10858338Y11241502D01*
X-10369758Y11241502D01*
X-10351178Y11148093D01*
X-10298266Y11068904D01*
X-10219077Y11015992D01*
X-10125668Y10997412D01*
X-10032259Y11015992D01*
X-9953070Y11068904D01*
X-9900158Y11148093D01*
X-9881578Y11241502D01*
X-9900158Y11334911D01*
X-9953070Y11414100D01*
X-10032259Y11467012D01*
X-10125668Y11485592D01*
X-10219077Y11467012D01*
X-10298266Y11414101D01*
X-10298267Y11414100D01*
X-10339535Y11352336D01*
X-10351178Y11334911D01*
X-10369758Y11241502D01*
X-10858338Y11241502D01*
X-10853036Y11268155D01*
X-10871616Y11361564D01*
X-10924528Y11440753D01*
X-10926158Y11441842D01*
X-10965504Y11468132D01*
X-11003717Y11493665D01*
X-11097126Y11512245D01*
X-11190535Y11493665D01*
X-11269724Y11440754D01*
X-11269725Y11440753D01*
X-11322636Y11361564D01*
X-11341216Y11268155D01*
X-12130761Y11268155D01*
X-11727235Y11741502D01*
X-8909758Y11741502D01*
X-8891178Y11648093D01*
X-8838266Y11568904D01*
X-8759077Y11515992D01*
X-8665668Y11497412D01*
X-8572259Y11515992D01*
X-8493070Y11568904D01*
X-8440158Y11648093D01*
X-8421578Y11741502D01*
X-5659758Y11741502D01*
X-5641178Y11648093D01*
X-5588266Y11568904D01*
X-5509077Y11515992D01*
X-5415668Y11497412D01*
X-5413359Y11497872D01*
X-5380745Y11491389D01*
X-5362265Y11463741D01*
X-5368748Y11431124D01*
X-5380737Y11419133D01*
X-5388262Y11414105D01*
X-5388267Y11414100D01*
X-5429535Y11352336D01*
X-5441178Y11334911D01*
X-5459758Y11241502D01*
X-5441178Y11148093D01*
X-5388266Y11068904D01*
X-5309077Y11015992D01*
X-5215668Y10997412D01*
X-5122259Y11015992D01*
X-5043070Y11068904D01*
X-4990158Y11148093D01*
X-4971578Y11241502D01*
X-4990158Y11334911D01*
X-5043070Y11414100D01*
X-5122259Y11467012D01*
X-5215668Y11485592D01*
X-5215669Y11485592D01*
X-5217982Y11485132D01*
X-5250598Y11491620D01*
X-5269073Y11519271D01*
X-5262585Y11551887D01*
X-5250599Y11563874D01*
X-5243070Y11568904D01*
X-5190158Y11648093D01*
X-5171578Y11741502D01*
X-5190158Y11834911D01*
X-5243070Y11914100D01*
X-5243690Y11914514D01*
X-5279661Y11938549D01*
X-5322259Y11967012D01*
X-5415668Y11985592D01*
X-5509077Y11967012D01*
X-5588266Y11914101D01*
X-5588267Y11914100D01*
X-5620245Y11866240D01*
X-5641178Y11834911D01*
X-5659758Y11741502D01*
X-8421578Y11741502D01*
X-8440158Y11834911D01*
X-8493070Y11914100D01*
X-8493690Y11914514D01*
X-8529661Y11938549D01*
X-8572259Y11967012D01*
X-8665668Y11985592D01*
X-8759077Y11967012D01*
X-8838266Y11914101D01*
X-8838267Y11914100D01*
X-8870245Y11866240D01*
X-8891178Y11834911D01*
X-8909758Y11741502D01*
X-11727235Y11741502D01*
X-11451306Y12065174D01*
X-11441851Y12073457D01*
X-11435503Y12077564D01*
X-11435501Y12077568D01*
X-11433766Y12079252D01*
X-11427365Y12085799D01*
X-11425709Y12087584D01*
X-11425705Y12087586D01*
X-11425703Y12087590D01*
X-11422792Y12090725D01*
X-11422756Y12090691D01*
X-11419739Y12094104D01*
X-11419778Y12094136D01*
X-11417027Y12097408D01*
X-11417023Y12097410D01*
X-11415446Y12100277D01*
X-11406991Y12111125D01*
X-11405753Y12112278D01*
X-11404600Y12113352D01*
X-11400633Y12122047D01*
X-11394173Y12132191D01*
X-11387969Y12139467D01*
X-11385641Y12146658D01*
X-11380076Y12157932D01*
X-11375784Y12164153D01*
X-11375784Y12164157D01*
X-11374825Y12166377D01*
X-11371415Y12174880D01*
X-11370571Y12177156D01*
X-11370567Y12177160D01*
X-11370567Y12177166D01*
X-11369077Y12181175D01*
X-11369029Y12181158D01*
X-11367549Y12185463D01*
X-11367598Y12185478D01*
X-11366306Y12189558D01*
X-11366306Y12189559D01*
X-11366305Y12189560D01*
X-11365946Y12192809D01*
X-11362284Y12206070D01*
X-11360927Y12209042D01*
X-11360589Y12218600D01*
X-11358502Y12230443D01*
X-11355556Y12239534D01*
X-11356156Y12247063D01*
X-11355329Y12259619D01*
X-11353746Y12267002D01*
X-11353747Y12267004D01*
X-11353746Y12267005D01*
X-11353711Y12269392D01*
X-11353814Y12278591D01*
X-11354063Y12285298D01*
X-11354015Y12285300D01*
X-11354613Y12294998D01*
X-11352864Y12310762D01*
X-11348700Y12348309D01*
X-11135075Y12348309D01*
X-11116495Y12254900D01*
X-11063583Y12175711D01*
X-10984394Y12122799D01*
X-10890985Y12104219D01*
X-10797576Y12122799D01*
X-10718387Y12175711D01*
X-10665475Y12254900D01*
X-10646895Y12348309D01*
X-10665475Y12441718D01*
X-10718387Y12520907D01*
X-10797576Y12573819D01*
X-10890985Y12592399D01*
X-10984394Y12573819D01*
X-11063583Y12520908D01*
X-11063584Y12520907D01*
X-11098330Y12468904D01*
X-11116495Y12441718D01*
X-11135075Y12348309D01*
X-11348700Y12348309D01*
X-11316186Y12641502D01*
X-3259758Y12641502D01*
X-3241178Y12548093D01*
X-3188266Y12468904D01*
X-3109077Y12415992D01*
X-3015668Y12397412D01*
X-2922259Y12415992D01*
X-2843070Y12468904D01*
X-2790158Y12548093D01*
X-2771578Y12641502D01*
X-2790158Y12734911D01*
X-2843070Y12814100D01*
X-2845902Y12815992D01*
X-2879661Y12838549D01*
X-2891305Y12846329D01*
X-1141531Y12846329D01*
X-1122951Y12752920D01*
X-1087598Y12700009D01*
X-1072298Y12677111D01*
X-1070039Y12673731D01*
X-990850Y12620819D01*
X-897441Y12602239D01*
X-874680Y12606767D01*
X-842066Y12600280D01*
X-823589Y12572630D01*
X-823589Y12555676D01*
X-826408Y12541502D01*
X-807828Y12448093D01*
X-754916Y12368904D01*
X-675727Y12315992D01*
X-582318Y12297412D01*
X-488909Y12315992D01*
X-409720Y12368904D01*
X-356808Y12448093D01*
X-338228Y12541502D01*
X-356808Y12634911D01*
X-409720Y12714100D01*
X-416253Y12718465D01*
X-448017Y12739689D01*
X-488909Y12767012D01*
X-582318Y12785592D01*
X-582319Y12785592D01*
X-605080Y12781065D01*
X-637696Y12787553D01*
X-656171Y12815204D01*
X-656171Y12832153D01*
X-653351Y12846329D01*
X-671931Y12939738D01*
X-724843Y13018927D01*
X-729625Y13022122D01*
X-787637Y13060884D01*
X-804032Y13071839D01*
X-897441Y13090419D01*
X-990850Y13071839D01*
X-1070039Y13018928D01*
X-1070040Y13018927D01*
X-1122951Y12939738D01*
X-1141531Y12846329D01*
X-2891305Y12846329D01*
X-2922259Y12867012D01*
X-3015668Y12885592D01*
X-3109077Y12867012D01*
X-3188266Y12814101D01*
X-3188267Y12814100D01*
X-3241178Y12734911D01*
X-3259758Y12641502D01*
X-11316186Y12641502D01*
X-11258983Y13157322D01*
X-11256602Y13165343D01*
X-11257000Y13165453D01*
X-11256697Y13166549D01*
X-11256656Y13166656D01*
X-11255859Y13169577D01*
X-11255814Y13169740D01*
X-11255583Y13170577D01*
X-11255583Y13170590D01*
X-11255581Y13170592D01*
X-11252346Y13216853D01*
X-11252189Y13218589D01*
X-11251916Y13221044D01*
X-11247082Y13264631D01*
X-11247449Y13268896D01*
X-11247036Y13268932D01*
X-11247175Y13270262D01*
X-11247586Y13270210D01*
X-11247725Y13271331D01*
X-11247728Y13271473D01*
X-11248158Y13274855D01*
X-11248179Y13275025D01*
X-11248239Y13275509D01*
X-11248243Y13275519D01*
X-11248242Y13275521D01*
X-11262953Y13319486D01*
X-11263478Y13321169D01*
X-11276378Y13365655D01*
X-11276380Y13365657D01*
X-11278349Y13369454D01*
X-11277982Y13369645D01*
X-11278642Y13370862D01*
X-11279003Y13370657D01*
X-11279557Y13371636D01*
X-11279612Y13371759D01*
X-11281330Y13374766D01*
X-11281413Y13374910D01*
X-11281616Y13375269D01*
X-11297588Y13393642D01*
X-11312024Y13410248D01*
X-11313146Y13411594D01*
X-11342105Y13447779D01*
X-11345380Y13450534D01*
X-11345116Y13450849D01*
X-11351624Y13456126D01*
X-11546814Y13682424D01*
X-11551135Y13688390D01*
X-11554994Y13694798D01*
X-11556811Y13697650D01*
X-11564552Y13705734D01*
X-11570928Y13712393D01*
X-11576457Y13719523D01*
X-11714184Y13941502D01*
X-1559758Y13941502D01*
X-1541178Y13848093D01*
X-1488266Y13768904D01*
X-1409077Y13715992D01*
X-1315668Y13697412D01*
X-1222259Y13715992D01*
X-1143070Y13768904D01*
X-1090158Y13848093D01*
X-1071578Y13941502D01*
X-1090158Y14034911D01*
X-1143070Y14114100D01*
X-1150058Y14118769D01*
X-1193946Y14148094D01*
X-1222259Y14167012D01*
X-1315668Y14185592D01*
X-1409077Y14167012D01*
X-1488266Y14114101D01*
X-1488267Y14114100D01*
X-1528653Y14053656D01*
X-1541178Y14034911D01*
X-1559758Y13941502D01*
X-11714184Y13941502D01*
X-11777197Y14043063D01*
X-11782580Y14075876D01*
X-11766727Y14100437D01*
X-11732065Y14127033D01*
X-11637590Y14250155D01*
X-11578201Y14393534D01*
X-11578201Y14393542D01*
X-11578199Y14393544D01*
X-11563031Y14508762D01*
X-11563030Y14508767D01*
X-11563031Y14586028D01*
X-11570334Y14641502D01*
X-3859758Y14641502D01*
X-3841178Y14548093D01*
X-3819729Y14515992D01*
X-3794210Y14477799D01*
X-3788266Y14468904D01*
X-3709077Y14415992D01*
X-3615668Y14397412D01*
X-3522259Y14415992D01*
X-3443070Y14468904D01*
X-3390158Y14548093D01*
X-3371578Y14641502D01*
X-3390158Y14734911D01*
X-3443070Y14814100D01*
X-3522259Y14867012D01*
X-3615668Y14885592D01*
X-3709077Y14867012D01*
X-3788266Y14814101D01*
X-3788267Y14814100D01*
X-3823824Y14760884D01*
X-3841178Y14734911D01*
X-3859758Y14641502D01*
X-11570334Y14641502D01*
X-11578201Y14701262D01*
X-11637590Y14844641D01*
X-11654756Y14867012D01*
X-11732062Y14967760D01*
X-11732065Y14967763D01*
X-11780671Y15005060D01*
X-11797298Y15033860D01*
X-11797670Y15039531D01*
X-11797670Y15419962D01*
X-100506Y15419962D01*
X-100500Y15399971D01*
X-100500Y19991D01*
X-100500Y-19991D01*
X-85200Y-56929D01*
X-56929Y-85200D01*
X-19991Y-100500D01*
X2796751Y-100500D01*
X2827475Y-113226D01*
X2840201Y-143950D01*
X2827475Y-174674D01*
X2793423Y-208725D01*
X2793422Y-208726D01*
X2793422Y-208727D01*
X2773296Y-257316D01*
X2754533Y-302615D01*
X2753169Y-305907D01*
X2753169Y-411091D01*
X2772510Y-457782D01*
X2772510Y-457784D01*
X2772511Y-457784D01*
X2793422Y-508269D01*
X2867799Y-582646D01*
X2867800Y-582646D01*
X3093421Y-808267D01*
X3093422Y-808269D01*
X3167799Y-882646D01*
X3167800Y-882646D01*
X3393421Y-1108267D01*
X3393422Y-1108269D01*
X3467799Y-1182646D01*
X3503265Y-1197336D01*
X3564977Y-1222899D01*
X3564978Y-1222899D01*
X3675217Y-1222899D01*
X3675225Y-1222898D01*
X4159914Y-1222898D01*
X4159922Y-1222899D01*
X4164977Y-1222899D01*
X4275217Y-1222899D01*
X4275225Y-1222898D01*
X5495688Y-1222898D01*
X5501833Y-1223335D01*
X5532238Y-1227679D01*
X5532239Y-1227678D01*
X5532242Y-1227679D01*
X5545599Y-1224256D01*
X5556382Y-1222898D01*
X5570160Y-1222898D01*
X5570162Y-1222898D01*
X5598548Y-1211139D01*
X5604383Y-1209196D01*
X5620256Y-1205128D01*
X5634136Y-1201573D01*
X5645161Y-1193303D01*
X5654594Y-1187925D01*
X5667341Y-1182646D01*
X5689074Y-1160911D01*
X5693706Y-1156894D01*
X6045164Y-893301D01*
X6054600Y-887922D01*
X6067341Y-882646D01*
X6077091Y-872894D01*
X6085677Y-866233D01*
X6097532Y-859214D01*
X6097532Y-859213D01*
X6097535Y-859212D01*
X6102705Y-852317D01*
X6111389Y-843633D01*
X6118284Y-838463D01*
X6125305Y-826605D01*
X6131966Y-818019D01*
X6141718Y-808269D01*
X6146997Y-795522D01*
X6152375Y-786089D01*
X6160645Y-775064D01*
X6162781Y-766725D01*
X6167483Y-755371D01*
X6171876Y-747954D01*
X6173826Y-734303D01*
X6176695Y-723822D01*
X6181970Y-711090D01*
X6181970Y-697306D01*
X6183329Y-686523D01*
X6186751Y-673170D01*
X6185533Y-664644D01*
X6185533Y-652351D01*
X6186751Y-643827D01*
X6186751Y-643826D01*
X6183329Y-630468D01*
X6181970Y-619685D01*
X6181970Y-605907D01*
X6181969Y-605904D01*
X6176696Y-593174D01*
X6173826Y-582697D01*
X6171876Y-569042D01*
X6167485Y-561627D01*
X6162781Y-550270D01*
X6160645Y-541932D01*
X6152376Y-530907D01*
X6146993Y-521463D01*
X6141718Y-508727D01*
X6131969Y-498978D01*
X6125308Y-490396D01*
X6118284Y-478533D01*
X6118282Y-478531D01*
X6111392Y-473364D01*
X6102706Y-464679D01*
X6097535Y-457784D01*
X6097532Y-457782D01*
X6097531Y-457781D01*
X6085675Y-450761D01*
X6077089Y-444098D01*
X6067340Y-434349D01*
X6054606Y-429075D01*
X6045164Y-423693D01*
X5718518Y-178709D01*
X5701576Y-150095D01*
X5709829Y-117880D01*
X5738444Y-100937D01*
X5744589Y-100500D01*
X15517235Y-100500D01*
X15517236Y-100500D01*
X15554174Y-85200D01*
X15582445Y-56929D01*
X15597745Y-19991D01*
X15597745Y841502D01*
X16140242Y841502D01*
X16158822Y748093D01*
X16187399Y705324D01*
X16210558Y670663D01*
X16211734Y668904D01*
X16290923Y615992D01*
X16384332Y597412D01*
X16477741Y615992D01*
X16556930Y668904D01*
X16609842Y748093D01*
X16628422Y841502D01*
X16609842Y934911D01*
X16556930Y1014100D01*
X16477741Y1067012D01*
X16384332Y1085592D01*
X16290923Y1067012D01*
X16211734Y1014101D01*
X16211733Y1014100D01*
X16158822Y934911D01*
X16140242Y841502D01*
X15597745Y841502D01*
X15597745Y2312398D01*
X16283480Y2312398D01*
X16302060Y2218989D01*
X16354972Y2139800D01*
X16434161Y2086888D01*
X16527570Y2068308D01*
X16620979Y2086888D01*
X16643924Y2102219D01*
X19184472Y2102219D01*
X19203052Y2008810D01*
X19238405Y1955899D01*
X19249758Y1938908D01*
X19255964Y1929621D01*
X19335153Y1876709D01*
X19428562Y1858129D01*
X19521971Y1876709D01*
X19601160Y1929621D01*
X19654072Y2008810D01*
X19672652Y2102219D01*
X19654072Y2195628D01*
X19601160Y2274817D01*
X19521971Y2327729D01*
X19428562Y2346309D01*
X19335153Y2327729D01*
X19255964Y2274818D01*
X19255963Y2274817D01*
X19218662Y2218990D01*
X19203052Y2195628D01*
X19184472Y2102219D01*
X16643924Y2102219D01*
X16700168Y2139800D01*
X16753080Y2218989D01*
X16771660Y2312398D01*
X16753080Y2405807D01*
X16700168Y2484996D01*
X16620979Y2537908D01*
X16527570Y2556488D01*
X16434161Y2537908D01*
X16354972Y2484997D01*
X16354971Y2484996D01*
X16302123Y2405902D01*
X16302060Y2405807D01*
X16283480Y2312398D01*
X15597745Y2312398D01*
X15597745Y2797052D01*
X17598288Y2797052D01*
X17616868Y2703643D01*
X17669780Y2624454D01*
X17748969Y2571542D01*
X17842378Y2552962D01*
X17935787Y2571542D01*
X18014976Y2624454D01*
X18067888Y2703643D01*
X18086468Y2797052D01*
X18067888Y2890461D01*
X18014976Y2969650D01*
X17935787Y3022562D01*
X17842378Y3041142D01*
X17748969Y3022562D01*
X17669780Y2969651D01*
X17669779Y2969650D01*
X17616868Y2890461D01*
X17598288Y2797052D01*
X15597745Y2797052D01*
X15597745Y4207773D01*
X18819509Y4207773D01*
X18838089Y4114364D01*
X18891001Y4035175D01*
X18970190Y3982263D01*
X19063599Y3963683D01*
X19157008Y3982263D01*
X19236197Y4035175D01*
X19289109Y4114364D01*
X19307689Y4207773D01*
X19289109Y4301182D01*
X19236197Y4380371D01*
X19157008Y4433283D01*
X19063599Y4451863D01*
X18970190Y4433283D01*
X18891001Y4380372D01*
X18891000Y4380371D01*
X18838089Y4301182D01*
X18819509Y4207773D01*
X15597745Y4207773D01*
X15597745Y4593642D01*
X17354824Y4593642D01*
X17373404Y4500233D01*
X17426316Y4421044D01*
X17505505Y4368132D01*
X17598914Y4349552D01*
X17692323Y4368132D01*
X17771512Y4421044D01*
X17824424Y4500233D01*
X17843004Y4593642D01*
X17824424Y4687051D01*
X17771512Y4766240D01*
X17692323Y4819152D01*
X17598914Y4837732D01*
X17505505Y4819152D01*
X17426316Y4766241D01*
X17426315Y4766240D01*
X17373404Y4687051D01*
X17354824Y4593642D01*
X15597745Y4593642D01*
X15597745Y5161502D01*
X16133935Y5161502D01*
X16152515Y5068093D01*
X16205427Y4988904D01*
X16284616Y4935992D01*
X16378025Y4917412D01*
X16471434Y4935992D01*
X16550623Y4988904D01*
X16603535Y5068093D01*
X16622115Y5161502D01*
X16603535Y5254911D01*
X16550623Y5334100D01*
X16471434Y5387012D01*
X16378025Y5405592D01*
X16284616Y5387012D01*
X16205427Y5334101D01*
X16205426Y5334100D01*
X16152515Y5254911D01*
X16133935Y5161502D01*
X15597745Y5161502D01*
X15597745Y5691502D01*
X18690242Y5691502D01*
X18708822Y5598093D01*
X18761734Y5518904D01*
X18840923Y5465992D01*
X18934332Y5447412D01*
X19027741Y5465992D01*
X19106930Y5518904D01*
X19123205Y5543262D01*
X19150854Y5561737D01*
X19183471Y5555250D01*
X19195458Y5543263D01*
X19211734Y5518904D01*
X19290923Y5465992D01*
X19384332Y5447412D01*
X19477741Y5465992D01*
X19556930Y5518904D01*
X19573205Y5543262D01*
X19600854Y5561737D01*
X19633471Y5555250D01*
X19645458Y5543263D01*
X19661734Y5518904D01*
X19740923Y5465992D01*
X19834332Y5447412D01*
X19927741Y5465992D01*
X20006930Y5518904D01*
X20059842Y5598093D01*
X20078422Y5691502D01*
X20059842Y5784911D01*
X20059840Y5784914D01*
X20059840Y5784915D01*
X20017931Y5847637D01*
X20013467Y5870074D01*
X20006128Y5868614D01*
X19990466Y5875101D01*
X19961181Y5894668D01*
X19927741Y5917012D01*
X19834332Y5935592D01*
X19740923Y5917012D01*
X19661734Y5864101D01*
X19661732Y5864099D01*
X19645459Y5839744D01*
X19617808Y5821269D01*
X19585192Y5827757D01*
X19573205Y5839744D01*
X19556931Y5864099D01*
X19556929Y5864101D01*
X19511181Y5894668D01*
X19477741Y5917012D01*
X19384332Y5935592D01*
X19290923Y5917012D01*
X19211734Y5864101D01*
X19211732Y5864099D01*
X19195459Y5839744D01*
X19167808Y5821269D01*
X19135192Y5827757D01*
X19123205Y5839744D01*
X19106931Y5864099D01*
X19106929Y5864101D01*
X19061181Y5894668D01*
X19027741Y5917012D01*
X18934332Y5935592D01*
X18840923Y5917012D01*
X18761734Y5864101D01*
X18761733Y5864100D01*
X18733115Y5821269D01*
X18708822Y5784911D01*
X18690242Y5691502D01*
X15597745Y5691502D01*
X15597745Y6120177D01*
X15710284Y6120177D01*
X15728864Y6026768D01*
X15781776Y5947579D01*
X15860965Y5894667D01*
X15954374Y5876087D01*
X16047783Y5894667D01*
X16126972Y5947579D01*
X16179884Y6026768D01*
X16192760Y6091502D01*
X19990242Y6091502D01*
X20008822Y5998093D01*
X20041465Y5949238D01*
X20050733Y5935368D01*
X20055195Y5912932D01*
X20062535Y5914391D01*
X20078197Y5907903D01*
X20140919Y5865994D01*
X20140920Y5865994D01*
X20140923Y5865992D01*
X20234332Y5847412D01*
X20327741Y5865992D01*
X20406930Y5918904D01*
X20459842Y5998093D01*
X20478422Y6091502D01*
X20459842Y6184911D01*
X20406930Y6264100D01*
X20327741Y6317012D01*
X20234332Y6335592D01*
X20140923Y6317012D01*
X20061734Y6264101D01*
X20061733Y6264100D01*
X20027982Y6213586D01*
X20008822Y6184911D01*
X19990242Y6091502D01*
X16192760Y6091502D01*
X16198464Y6120177D01*
X16179884Y6213586D01*
X16126972Y6292775D01*
X16047783Y6345687D01*
X15954374Y6364267D01*
X15860965Y6345687D01*
X15781776Y6292776D01*
X15781775Y6292775D01*
X15728864Y6213586D01*
X15710284Y6120177D01*
X15597745Y6120177D01*
X15597745Y6791502D01*
X18190242Y6791502D01*
X18208822Y6698093D01*
X18261734Y6618904D01*
X18340923Y6565992D01*
X18434332Y6547412D01*
X18527741Y6565992D01*
X18606930Y6618904D01*
X18618320Y6635950D01*
X22161213Y6635950D01*
X22179793Y6542541D01*
X22232705Y6463352D01*
X22311894Y6410440D01*
X22405303Y6391860D01*
X22498712Y6410440D01*
X22577901Y6463352D01*
X22630813Y6542541D01*
X22649393Y6635950D01*
X22630813Y6729359D01*
X22577901Y6808548D01*
X22498712Y6861460D01*
X22405303Y6880040D01*
X22311894Y6861460D01*
X22232705Y6808549D01*
X22232704Y6808548D01*
X22179793Y6729359D01*
X22161213Y6635950D01*
X18618320Y6635950D01*
X18659842Y6698093D01*
X18678422Y6791502D01*
X18659842Y6884911D01*
X18622029Y6941502D01*
X23240242Y6941502D01*
X23258822Y6848093D01*
X23311734Y6768904D01*
X23390923Y6715992D01*
X23484332Y6697412D01*
X23577741Y6715992D01*
X23656930Y6768904D01*
X23709842Y6848093D01*
X23728422Y6941502D01*
X23709842Y7034911D01*
X23656930Y7114100D01*
X23577741Y7167012D01*
X23484332Y7185592D01*
X23390923Y7167012D01*
X23311734Y7114101D01*
X23311733Y7114100D01*
X23264775Y7043821D01*
X23258822Y7034911D01*
X23240242Y6941502D01*
X18622029Y6941502D01*
X18606930Y6964100D01*
X18594614Y6972329D01*
X18580652Y6981659D01*
X18527741Y7017012D01*
X18434332Y7035592D01*
X18340923Y7017012D01*
X18261734Y6964101D01*
X18261733Y6964100D01*
X18208822Y6884911D01*
X18190242Y6791502D01*
X15597745Y6791502D01*
X15597745Y7216418D01*
X15972254Y7216418D01*
X15990834Y7123009D01*
X16043746Y7043820D01*
X16122935Y6990908D01*
X16216344Y6972328D01*
X16309753Y6990908D01*
X16388942Y7043820D01*
X16441854Y7123009D01*
X16460434Y7216418D01*
X16441854Y7309827D01*
X16388942Y7389016D01*
X16380673Y7394541D01*
X16329800Y7428533D01*
X16309753Y7441928D01*
X16216344Y7460508D01*
X16122935Y7441928D01*
X16043746Y7389017D01*
X16043745Y7389016D01*
X15998329Y7321044D01*
X15990834Y7309827D01*
X15972254Y7216418D01*
X15597745Y7216418D01*
X15597745Y7493642D01*
X21754824Y7493642D01*
X21773404Y7400233D01*
X21826316Y7321044D01*
X21905505Y7268132D01*
X21998914Y7249552D01*
X22092323Y7268132D01*
X22171512Y7321044D01*
X22224424Y7400233D01*
X22243004Y7493642D01*
X22224424Y7587051D01*
X22171512Y7666240D01*
X22092323Y7719152D01*
X21998914Y7737732D01*
X21905505Y7719152D01*
X21826316Y7666241D01*
X21826315Y7666240D01*
X21773404Y7587051D01*
X21754824Y7493642D01*
X15597745Y7493642D01*
X15597745Y7730371D01*
X15610471Y7761095D01*
X15641195Y7773821D01*
X15665334Y7766498D01*
X15740919Y7715994D01*
X15740920Y7715994D01*
X15740923Y7715992D01*
X15834332Y7697412D01*
X15927741Y7715992D01*
X16006930Y7768904D01*
X16059842Y7848093D01*
X16068476Y7891502D01*
X16754242Y7891502D01*
X16772822Y7798093D01*
X16825734Y7718904D01*
X16904923Y7665992D01*
X16998332Y7647412D01*
X17091741Y7665992D01*
X17170930Y7718904D01*
X17207612Y7773804D01*
X17235260Y7792278D01*
X17267877Y7785791D01*
X17279865Y7773803D01*
X17286412Y7764005D01*
X17286413Y7764004D01*
X17286414Y7764003D01*
X17365603Y7711091D01*
X17459012Y7692511D01*
X17552421Y7711091D01*
X17631610Y7764003D01*
X17684522Y7843192D01*
X17703102Y7936601D01*
X17684522Y8030010D01*
X17631610Y8109199D01*
X17620674Y8116506D01*
X17566604Y8152634D01*
X17552421Y8162111D01*
X17459012Y8180691D01*
X17365603Y8162111D01*
X17286414Y8109200D01*
X17286412Y8109198D01*
X17249732Y8054301D01*
X17222082Y8035826D01*
X17189465Y8042314D01*
X17177478Y8054301D01*
X17170931Y8064099D01*
X17170929Y8064101D01*
X17144652Y8081659D01*
X17091741Y8117012D01*
X16998332Y8135592D01*
X16904923Y8117012D01*
X16825734Y8064101D01*
X16825733Y8064100D01*
X16789906Y8010479D01*
X16772822Y7984911D01*
X16754242Y7891502D01*
X16068476Y7891502D01*
X16078422Y7941502D01*
X16059842Y8034911D01*
X16006930Y8114100D01*
X16003329Y8116506D01*
X15941255Y8157982D01*
X15927741Y8167012D01*
X15834332Y8185592D01*
X15740923Y8167012D01*
X15665334Y8116506D01*
X15632718Y8110019D01*
X15605067Y8128495D01*
X15597745Y8152634D01*
X15597745Y8274697D01*
X17939969Y8274697D01*
X17958549Y8181288D01*
X17977695Y8152634D01*
X18006717Y8109198D01*
X18011461Y8102099D01*
X18090650Y8049187D01*
X18184059Y8030607D01*
X18277468Y8049187D01*
X18356657Y8102099D01*
X18374861Y8129344D01*
X19166293Y8129344D01*
X19184873Y8035935D01*
X19237785Y7956746D01*
X19316974Y7903834D01*
X19410383Y7885254D01*
X19503792Y7903834D01*
X19582981Y7956746D01*
X19635893Y8035935D01*
X19654473Y8129344D01*
X19635893Y8222753D01*
X19582981Y8301942D01*
X19572922Y8308663D01*
X19556703Y8319501D01*
X19503792Y8354854D01*
X19410383Y8373434D01*
X19316974Y8354854D01*
X19237785Y8301943D01*
X19237784Y8301942D01*
X19207083Y8255993D01*
X19184873Y8222753D01*
X19166293Y8129344D01*
X18374861Y8129344D01*
X18409569Y8181288D01*
X18428149Y8274697D01*
X18409569Y8368106D01*
X18356657Y8447295D01*
X18277468Y8500207D01*
X18184059Y8518787D01*
X18090650Y8500207D01*
X18011461Y8447296D01*
X18011460Y8447295D01*
X17981244Y8402072D01*
X17958549Y8368106D01*
X17939969Y8274697D01*
X15597745Y8274697D01*
X15597745Y8685420D01*
X19347262Y8685420D01*
X19365842Y8592011D01*
X19418754Y8512822D01*
X19497943Y8459910D01*
X19591352Y8441330D01*
X19684761Y8459910D01*
X19717076Y8481502D01*
X20820242Y8481502D01*
X20838822Y8388093D01*
X20891734Y8308904D01*
X20970923Y8255992D01*
X21064332Y8237412D01*
X21157741Y8255992D01*
X21236930Y8308904D01*
X21289842Y8388093D01*
X21308422Y8481502D01*
X21289842Y8574911D01*
X21236930Y8654100D01*
X21157741Y8707012D01*
X21064332Y8725592D01*
X20970923Y8707012D01*
X20891734Y8654101D01*
X20891733Y8654100D01*
X20874015Y8627582D01*
X20838822Y8574911D01*
X20820242Y8481502D01*
X19717076Y8481502D01*
X19763950Y8512822D01*
X19816862Y8592011D01*
X19835442Y8685420D01*
X19816862Y8778829D01*
X19763950Y8858018D01*
X19755332Y8863776D01*
X19725312Y8883835D01*
X19684761Y8910930D01*
X19591352Y8929510D01*
X19497943Y8910930D01*
X19418754Y8858019D01*
X19418753Y8858018D01*
X19365842Y8778829D01*
X19347262Y8685420D01*
X15597745Y8685420D01*
X15597745Y9245210D01*
X16150071Y9245210D01*
X16168651Y9151801D01*
X16188723Y9121761D01*
X16221489Y9072722D01*
X16221563Y9072612D01*
X16300752Y9019700D01*
X16394161Y9001120D01*
X16487570Y9019700D01*
X16566759Y9072612D01*
X16577900Y9089286D01*
X16851558Y9089286D01*
X16870138Y8995877D01*
X16879888Y8981285D01*
X16920138Y8921045D01*
X16923050Y8916688D01*
X17002239Y8863776D01*
X17095648Y8845196D01*
X17189057Y8863776D01*
X17268246Y8916688D01*
X17321158Y8995877D01*
X17339738Y9089286D01*
X17321158Y9182695D01*
X17268246Y9261884D01*
X17266267Y9263206D01*
X17219643Y9294359D01*
X17675269Y9294359D01*
X17693849Y9200950D01*
X17717394Y9165712D01*
X17740078Y9131762D01*
X17746761Y9121761D01*
X17825950Y9068849D01*
X17919359Y9050269D01*
X17950343Y9056432D01*
X19961880Y9056432D01*
X19980460Y8963023D01*
X20033372Y8883834D01*
X20112561Y8830922D01*
X20205970Y8812342D01*
X20299379Y8830922D01*
X20378568Y8883834D01*
X20431480Y8963023D01*
X20450060Y9056432D01*
X20442659Y9093642D01*
X24054824Y9093642D01*
X24073404Y9000233D01*
X24098266Y8963024D01*
X24121876Y8927688D01*
X24126316Y8921044D01*
X24205505Y8868132D01*
X24298914Y8849552D01*
X24392323Y8868132D01*
X24471512Y8921044D01*
X24524424Y9000233D01*
X24543004Y9093642D01*
X24524424Y9187051D01*
X24471512Y9266240D01*
X24469831Y9267363D01*
X24437582Y9288911D01*
X24392323Y9319152D01*
X24298914Y9337732D01*
X24205505Y9319152D01*
X24126316Y9266241D01*
X24126315Y9266240D01*
X24082691Y9200950D01*
X24073404Y9187051D01*
X24054824Y9093642D01*
X20442659Y9093642D01*
X20431480Y9149841D01*
X20378568Y9229030D01*
X20299379Y9281942D01*
X20205970Y9300522D01*
X20112561Y9281942D01*
X20033372Y9229031D01*
X20033371Y9229030D01*
X19989701Y9163671D01*
X19980460Y9149841D01*
X19961880Y9056432D01*
X17950343Y9056432D01*
X18012768Y9068849D01*
X18091957Y9121761D01*
X18144869Y9200950D01*
X18163449Y9294359D01*
X18144869Y9387768D01*
X18091957Y9466957D01*
X18086325Y9470720D01*
X18058518Y9489300D01*
X18012768Y9519869D01*
X17919359Y9538449D01*
X17825950Y9519869D01*
X17746761Y9466958D01*
X17746760Y9466957D01*
X17708096Y9409090D01*
X17693849Y9387768D01*
X17675269Y9294359D01*
X17219643Y9294359D01*
X17215074Y9297412D01*
X17189057Y9314796D01*
X17095648Y9333376D01*
X17002239Y9314796D01*
X16923050Y9261885D01*
X16923049Y9261884D01*
X16877488Y9193695D01*
X16870138Y9182695D01*
X16851558Y9089286D01*
X16577900Y9089286D01*
X16619671Y9151801D01*
X16638251Y9245210D01*
X16619671Y9338619D01*
X16566759Y9417808D01*
X16487570Y9470720D01*
X16394161Y9489300D01*
X16300752Y9470720D01*
X16221563Y9417809D01*
X16221562Y9417808D01*
X16176980Y9351085D01*
X16168651Y9338619D01*
X16150071Y9245210D01*
X15597745Y9245210D01*
X15597745Y11245472D01*
X17214747Y11245472D01*
X17214752Y11241218D01*
X17216916Y11230398D01*
X17217651Y11218800D01*
X17216868Y11207785D01*
X17223185Y11188838D01*
X17225149Y11179894D01*
X17227355Y11160035D01*
X17227356Y11160030D01*
X17227432Y11159893D01*
X17232222Y11146120D01*
X17232246Y11145973D01*
X17233765Y11141967D01*
X17233219Y11141761D01*
X17236090Y11134530D01*
X17316916Y10730400D01*
X17317651Y10718802D01*
X17316868Y10707785D01*
X17321096Y10695103D01*
X17324282Y10685544D01*
X17324720Y10684232D01*
X17326513Y10676636D01*
X17330025Y10652048D01*
X17330993Y10649298D01*
X17331014Y10649213D01*
X17331106Y10648962D01*
X17331144Y10648883D01*
X17333688Y10642156D01*
X17333169Y10641961D01*
X17333227Y10641816D01*
X17333740Y10642028D01*
X17335380Y10638078D01*
X17341522Y10628907D01*
X17346639Y10618472D01*
X17350130Y10608000D01*
X17350130Y10607999D01*
X17366398Y10589242D01*
X17370961Y10582911D01*
X17383617Y10561537D01*
X17385562Y10559368D01*
X17385610Y10559304D01*
X17385802Y10559095D01*
X17385858Y10559045D01*
X17390788Y10553798D01*
X17390378Y10553414D01*
X17390482Y10553306D01*
X17390880Y10553703D01*
X17393910Y10550679D01*
X17403092Y10544558D01*
X17411817Y10536873D01*
X17419048Y10528535D01*
X17441259Y10517430D01*
X17447895Y10513330D01*
X17724067Y10306201D01*
X17780250Y10264064D01*
X17785823Y10259080D01*
X17787991Y10256776D01*
X17787993Y10256775D01*
X17787995Y10256772D01*
X17797337Y10250110D01*
X17805732Y10242254D01*
X17811448Y10235267D01*
X17813001Y10233369D01*
X17819310Y10229985D01*
X17829495Y10222420D01*
X17834561Y10217354D01*
X17847299Y10212077D01*
X17856739Y10206696D01*
X17861891Y10202833D01*
X17867766Y10198427D01*
X17867773Y10198426D01*
X17870597Y10197071D01*
X17870670Y10197028D01*
X17870692Y10197018D01*
X17870754Y10196996D01*
X17873629Y10195701D01*
X17873633Y10195698D01*
X17884816Y10193118D01*
X17895582Y10189070D01*
X17904053Y10184526D01*
X17905692Y10183647D01*
X17912819Y10182935D01*
X17925124Y10179842D01*
X17931737Y10177103D01*
X17931739Y10177102D01*
X17931740Y10177102D01*
X17945520Y10177102D01*
X17956303Y10175743D01*
X17959590Y10174901D01*
X17969660Y10172321D01*
X17969664Y10172322D01*
X17972804Y10172151D01*
X17972882Y10172140D01*
X17972889Y10172140D01*
X17972967Y10172144D01*
X17976119Y10172049D01*
X17976125Y10172047D01*
X17987438Y10173943D01*
X17998940Y10174323D01*
X18010354Y10173181D01*
X18017212Y10175250D01*
X18029762Y10177102D01*
X18431740Y10177102D01*
X18440628Y10177102D01*
X18452721Y10175385D01*
X18461259Y10172911D01*
X18496587Y10176836D01*
X18501385Y10177102D01*
X18536922Y10177102D01*
X18536924Y10177102D01*
X18545137Y10180505D01*
X18556957Y10183544D01*
X18565801Y10184526D01*
X18596941Y10201675D01*
X18601256Y10203750D01*
X18634103Y10217354D01*
X18640392Y10223645D01*
X18650150Y10230976D01*
X18657940Y10235265D01*
X18680147Y10263025D01*
X18683336Y10266588D01*
X18708480Y10291731D01*
X18711881Y10299943D01*
X18718099Y10310465D01*
X18720244Y10313146D01*
X18723648Y10317400D01*
X18733549Y10351571D01*
X18735123Y10356058D01*
X18748732Y10388910D01*
X18748732Y10397795D01*
X18750449Y10409888D01*
X18750723Y10410834D01*
X18752924Y10418429D01*
X18748998Y10453763D01*
X18748732Y10458562D01*
X18748732Y10493642D01*
X22054824Y10493642D01*
X22073404Y10400233D01*
X22102905Y10356081D01*
X22126225Y10321179D01*
X22126316Y10321044D01*
X22205505Y10268132D01*
X22298914Y10249552D01*
X22392323Y10268132D01*
X22471512Y10321044D01*
X22524424Y10400233D01*
X22543004Y10493642D01*
X22524424Y10587051D01*
X22471512Y10666240D01*
X22465573Y10670208D01*
X22428315Y10695103D01*
X22392323Y10719152D01*
X22298914Y10737732D01*
X22205505Y10719152D01*
X22126316Y10666241D01*
X22126315Y10666240D01*
X22078271Y10594335D01*
X22073404Y10587051D01*
X22054824Y10493642D01*
X18748732Y10493642D01*
X18748732Y11030571D01*
X18748841Y11033651D01*
X18749708Y11045850D01*
X18751795Y11075219D01*
X18750961Y11077722D01*
X18748732Y11091460D01*
X18748732Y11494094D01*
X18739661Y11515993D01*
X18708480Y11591273D01*
X18634103Y11665650D01*
X18566523Y11693642D01*
X23954824Y11693642D01*
X23973404Y11600233D01*
X24026316Y11521044D01*
X24105505Y11468132D01*
X24198914Y11449552D01*
X24292323Y11468132D01*
X24371512Y11521044D01*
X24424424Y11600233D01*
X24443004Y11693642D01*
X24424424Y11787051D01*
X24371512Y11866240D01*
X24360133Y11873843D01*
X24317840Y11902102D01*
X24292323Y11919152D01*
X24198914Y11937732D01*
X24105505Y11919152D01*
X24026316Y11866241D01*
X24026315Y11866240D01*
X23997317Y11822840D01*
X23973404Y11787051D01*
X23954824Y11693642D01*
X18566523Y11693642D01*
X18536924Y11705902D01*
X18536923Y11705902D01*
X18119515Y11705902D01*
X18109713Y11707022D01*
X18105079Y11708095D01*
X18092742Y11710952D01*
X18092741Y11710952D01*
X18081300Y11709046D01*
X18069843Y11708671D01*
X18058310Y11709824D01*
X18054453Y11709450D01*
X18050617Y11708966D01*
X18049778Y11708686D01*
X18048115Y11708132D01*
X18034375Y11705902D01*
X18031740Y11705902D01*
X18031738Y11705902D01*
X18031736Y11705901D01*
X18015651Y11699239D01*
X18006171Y11696524D01*
X18000027Y11695499D01*
X17988987Y11693659D01*
X17979155Y11687524D01*
X17968708Y11682790D01*
X17957604Y11679440D01*
X17953833Y11677431D01*
X17953524Y11678010D01*
X17946975Y11674420D01*
X17431664Y11502649D01*
X17422722Y11500685D01*
X17402864Y11498479D01*
X17402858Y11498477D01*
X17402715Y11498398D01*
X17388953Y11493613D01*
X17388801Y11493588D01*
X17384817Y11492079D01*
X17380910Y11490455D01*
X17371737Y11484312D01*
X17361305Y11479197D01*
X17350833Y11475706D01*
X17350829Y11475704D01*
X17335731Y11462611D01*
X17328226Y11457378D01*
X17310723Y11447739D01*
X17310721Y11447737D01*
X17310623Y11447614D01*
X17299738Y11437925D01*
X17299604Y11437842D01*
X17296490Y11434911D01*
X17293509Y11431924D01*
X17287382Y11422735D01*
X17279704Y11414020D01*
X17271364Y11406786D01*
X17271363Y11406784D01*
X17262428Y11388915D01*
X17257497Y11381208D01*
X17245016Y11365605D01*
X17245015Y11365603D01*
X17244971Y11365450D01*
X17238624Y11352336D01*
X17238527Y11352201D01*
X17236786Y11348336D01*
X17235162Y11344403D01*
X17233019Y11333571D01*
X17229260Y11322577D01*
X17224324Y11312706D01*
X17224324Y11312705D01*
X17222907Y11292776D01*
X17221301Y11283769D01*
X17215740Y11264575D01*
X17215740Y11264573D01*
X17215758Y11264414D01*
X17214912Y11249872D01*
X17214876Y11249717D01*
X17214747Y11245472D01*
X15597745Y11245472D01*
X15597745Y15380111D01*
X15597751Y15380180D01*
X15597749Y15384547D01*
X15597751Y15384549D01*
X15597745Y15406358D01*
X15597745Y15424502D01*
X15597745Y15424514D01*
X15597742Y15424526D01*
X15592359Y15437510D01*
X15589257Y15444993D01*
X15582445Y15461440D01*
X15582442Y15461443D01*
X15582439Y15461451D01*
X15582434Y15461459D01*
X15582430Y15461465D01*
X15566531Y15477354D01*
X15566525Y15477367D01*
X15566522Y15477363D01*
X15554168Y15489717D01*
X15554155Y15489725D01*
X15554151Y15489727D01*
X15554150Y15489728D01*
X15533986Y15498073D01*
X15533979Y15498080D01*
X15533978Y15498077D01*
X15517230Y15505014D01*
X15517213Y15505017D01*
X15517207Y15505017D01*
X15499540Y15505012D01*
X15496595Y15505011D01*
X15473568Y15505011D01*
X15473496Y15505005D01*
X591Y15500500D01*
X-20004Y15500500D01*
X-20019Y15500495D01*
X-20020Y15500494D01*
X-37564Y15493222D01*
X-56944Y15485195D01*
X-71080Y15471051D01*
X-71086Y15471044D01*
X-85211Y15456919D01*
X-93240Y15437519D01*
X-93244Y15437510D01*
X-100503Y15419985D01*
X-100506Y15419967D01*
X-100506Y15419963D01*
X-100506Y15419962D01*
X-11797670Y15419962D01*
X-11797670Y15615502D01*
X16660242Y15615502D01*
X16678822Y15522093D01*
X16712927Y15471051D01*
X16722379Y15456904D01*
X16731734Y15442904D01*
X16810923Y15389992D01*
X16904332Y15371412D01*
X16997741Y15389992D01*
X17076930Y15442904D01*
X17129842Y15522093D01*
X17148422Y15615502D01*
X17129842Y15708911D01*
X17076930Y15788100D01*
X16997741Y15841012D01*
X16904332Y15859592D01*
X16810923Y15841012D01*
X16731734Y15788101D01*
X16731733Y15788100D01*
X16681830Y15713413D01*
X16678822Y15708911D01*
X16660242Y15615502D01*
X-11797670Y15615502D01*
X-11797670Y16196228D01*
X1614213Y16196228D01*
X1632793Y16102819D01*
X1685705Y16023630D01*
X1764894Y15970718D01*
X1858303Y15952138D01*
X1951712Y15970718D01*
X2030901Y16023630D01*
X2083813Y16102819D01*
X2095380Y16160971D01*
X7751748Y16160971D01*
X7770328Y16067562D01*
X7823240Y15988373D01*
X7902429Y15935461D01*
X7995838Y15916881D01*
X8089247Y15935461D01*
X8122234Y15957502D01*
X16022242Y15957502D01*
X16040822Y15864093D01*
X16056244Y15841012D01*
X16091598Y15788100D01*
X16093734Y15784904D01*
X16172923Y15731992D01*
X16266332Y15713412D01*
X16359741Y15731992D01*
X16438930Y15784904D01*
X16491842Y15864093D01*
X16510422Y15957502D01*
X16491842Y16050911D01*
X16438930Y16130100D01*
X16359741Y16183012D01*
X16266332Y16201592D01*
X16172923Y16183012D01*
X16093734Y16130101D01*
X16093733Y16130100D01*
X16051948Y16067563D01*
X16040822Y16050911D01*
X16022242Y15957502D01*
X8122234Y15957502D01*
X8168436Y15988373D01*
X8221348Y16067562D01*
X8239928Y16160971D01*
X8221348Y16254380D01*
X8168436Y16333569D01*
X8089247Y16386481D01*
X8064004Y16391502D01*
X10290242Y16391502D01*
X10308822Y16298093D01*
X10314958Y16288910D01*
X10355051Y16228905D01*
X10361734Y16218904D01*
X10440923Y16165992D01*
X10534332Y16147412D01*
X10627741Y16165992D01*
X10706930Y16218904D01*
X10759842Y16298093D01*
X10778422Y16391502D01*
X10759842Y16484911D01*
X10706930Y16564100D01*
X10700894Y16568133D01*
X10680652Y16581659D01*
X10627741Y16617012D01*
X10534332Y16635592D01*
X10440923Y16617012D01*
X10361734Y16564101D01*
X10361733Y16564100D01*
X10315504Y16494911D01*
X10308822Y16484911D01*
X10290242Y16391502D01*
X8064004Y16391502D01*
X7995838Y16405061D01*
X7902429Y16386481D01*
X7823240Y16333570D01*
X7823239Y16333569D01*
X7793400Y16288910D01*
X7770328Y16254380D01*
X7751748Y16160971D01*
X2095380Y16160971D01*
X2102393Y16196228D01*
X2083813Y16289637D01*
X2030901Y16368826D01*
X1951712Y16421738D01*
X1858303Y16440318D01*
X1764894Y16421738D01*
X1685705Y16368827D01*
X1685704Y16368826D01*
X1662147Y16333569D01*
X1632793Y16289637D01*
X1614213Y16196228D01*
X-11797670Y16196228D01*
X-11797670Y16716039D01*
X5990242Y16716039D01*
X6008822Y16622630D01*
X6044175Y16569719D01*
X6058625Y16548093D01*
X6061734Y16543441D01*
X6140923Y16490529D01*
X6234332Y16471949D01*
X6327741Y16490529D01*
X6406930Y16543441D01*
X6459842Y16622630D01*
X6463596Y16641502D01*
X7340242Y16641502D01*
X7358822Y16548093D01*
X7394175Y16495182D01*
X7409698Y16471950D01*
X7411734Y16468904D01*
X7490923Y16415992D01*
X7584332Y16397412D01*
X7677741Y16415992D01*
X7756930Y16468904D01*
X7809842Y16548093D01*
X7828422Y16641502D01*
X9590242Y16641502D01*
X9608822Y16548093D01*
X9644175Y16495182D01*
X9659698Y16471950D01*
X9661734Y16468904D01*
X9740923Y16415992D01*
X9834332Y16397412D01*
X9927741Y16415992D01*
X10006930Y16468904D01*
X10059842Y16548093D01*
X10078422Y16641502D01*
X11290242Y16641502D01*
X11308822Y16548093D01*
X11344175Y16495182D01*
X11359698Y16471950D01*
X11361734Y16468904D01*
X11440923Y16415992D01*
X11534332Y16397412D01*
X11627741Y16415992D01*
X11706930Y16468904D01*
X11759842Y16548093D01*
X11778422Y16641502D01*
X12590242Y16641502D01*
X12608822Y16548093D01*
X12644175Y16495182D01*
X12659698Y16471950D01*
X12661734Y16468904D01*
X12740923Y16415992D01*
X12834332Y16397412D01*
X12854894Y16401502D01*
X13690242Y16401502D01*
X13708822Y16308093D01*
X13761734Y16228904D01*
X13840923Y16175992D01*
X13934332Y16157412D01*
X14027741Y16175992D01*
X14106930Y16228904D01*
X14159842Y16308093D01*
X14178422Y16401502D01*
X14159842Y16494911D01*
X14106930Y16574100D01*
X14027741Y16627012D01*
X13934332Y16645592D01*
X13840923Y16627012D01*
X13761734Y16574101D01*
X13761733Y16574100D01*
X13741249Y16543442D01*
X13708822Y16494911D01*
X13690242Y16401502D01*
X12854894Y16401502D01*
X12927741Y16415992D01*
X13006930Y16468904D01*
X13059842Y16548093D01*
X13078422Y16641502D01*
X13059842Y16734911D01*
X13020599Y16793642D01*
X14840242Y16793642D01*
X14858822Y16700233D01*
X14869765Y16683856D01*
X14910673Y16622631D01*
X14911734Y16621044D01*
X14990923Y16568132D01*
X15084332Y16549552D01*
X15177741Y16568132D01*
X15256930Y16621044D01*
X15309842Y16700233D01*
X15328422Y16793642D01*
X15840242Y16793642D01*
X15858822Y16700233D01*
X15869765Y16683856D01*
X15910673Y16622631D01*
X15911734Y16621044D01*
X15990923Y16568132D01*
X16084332Y16549552D01*
X16177741Y16568132D01*
X16256930Y16621044D01*
X16309842Y16700233D01*
X16328422Y16793642D01*
X16309842Y16887051D01*
X16256930Y16966240D01*
X16177741Y17019152D01*
X16084332Y17037732D01*
X15990923Y17019152D01*
X15911734Y16966241D01*
X15911733Y16966240D01*
X15861644Y16891274D01*
X15858822Y16887051D01*
X15840242Y16793642D01*
X15328422Y16793642D01*
X15309842Y16887051D01*
X15256930Y16966240D01*
X15177741Y17019152D01*
X15084332Y17037732D01*
X14990923Y17019152D01*
X14911734Y16966241D01*
X14911733Y16966240D01*
X14861644Y16891274D01*
X14858822Y16887051D01*
X14840242Y16793642D01*
X13020599Y16793642D01*
X13006930Y16814100D01*
X12927741Y16867012D01*
X12834332Y16885592D01*
X12740923Y16867012D01*
X12661734Y16814101D01*
X12661733Y16814100D01*
X12608822Y16734911D01*
X12590242Y16641502D01*
X11778422Y16641502D01*
X11759842Y16734911D01*
X11706930Y16814100D01*
X11627741Y16867012D01*
X11534332Y16885592D01*
X11440923Y16867012D01*
X11361734Y16814101D01*
X11361733Y16814100D01*
X11308822Y16734911D01*
X11290242Y16641502D01*
X10078422Y16641502D01*
X10059842Y16734911D01*
X10006930Y16814100D01*
X9927741Y16867012D01*
X9834332Y16885592D01*
X9740923Y16867012D01*
X9661734Y16814101D01*
X9661733Y16814100D01*
X9608822Y16734911D01*
X9590242Y16641502D01*
X7828422Y16641502D01*
X7809842Y16734911D01*
X7756930Y16814100D01*
X7677741Y16867012D01*
X7584332Y16885592D01*
X7490923Y16867012D01*
X7411734Y16814101D01*
X7411733Y16814100D01*
X7358822Y16734911D01*
X7340242Y16641502D01*
X6463596Y16641502D01*
X6478422Y16716039D01*
X6459842Y16809448D01*
X6406930Y16888637D01*
X6402983Y16891274D01*
X6380652Y16906196D01*
X6327741Y16941549D01*
X6234332Y16960129D01*
X6140923Y16941549D01*
X6061734Y16888638D01*
X6061733Y16888637D01*
X6011931Y16814101D01*
X6008822Y16809448D01*
X5990242Y16716039D01*
X-11797670Y16716039D01*
X-11797670Y17241502D01*
X340242Y17241502D01*
X358822Y17148093D01*
X411734Y17068904D01*
X490923Y17015992D01*
X584332Y16997412D01*
X677741Y17015992D01*
X756930Y17068904D01*
X809842Y17148093D01*
X828422Y17241502D01*
X816774Y17300060D01*
X2955110Y17300060D01*
X2973690Y17206651D01*
X3026602Y17127462D01*
X3105791Y17074550D01*
X3199200Y17055970D01*
X3292609Y17074550D01*
X3371798Y17127462D01*
X3424710Y17206651D01*
X3441588Y17291502D01*
X10440242Y17291502D01*
X10458822Y17198093D01*
X10477035Y17170835D01*
X10501177Y17134703D01*
X10511734Y17118904D01*
X10590923Y17065992D01*
X10684332Y17047412D01*
X10777741Y17065992D01*
X10856930Y17118904D01*
X10909842Y17198093D01*
X10928422Y17291502D01*
X13690242Y17291502D01*
X13708822Y17198093D01*
X13727035Y17170835D01*
X13751177Y17134703D01*
X13761734Y17118904D01*
X13840923Y17065992D01*
X13934332Y17047412D01*
X14027741Y17065992D01*
X14106930Y17118904D01*
X14159842Y17198093D01*
X14178422Y17291502D01*
X14177996Y17293642D01*
X16954824Y17293642D01*
X16973404Y17200233D01*
X16993047Y17170835D01*
X17022027Y17127462D01*
X17026316Y17121044D01*
X17105505Y17068132D01*
X17198914Y17049552D01*
X17292323Y17068132D01*
X17371512Y17121044D01*
X17424424Y17200233D01*
X17443004Y17293642D01*
X17424424Y17387051D01*
X17371512Y17466240D01*
X17361905Y17472659D01*
X17329825Y17494094D01*
X17292323Y17519152D01*
X17198914Y17537732D01*
X17105505Y17519152D01*
X17026316Y17466241D01*
X17026315Y17466240D01*
X16980327Y17397412D01*
X16973404Y17387051D01*
X16954824Y17293642D01*
X14177996Y17293642D01*
X14159842Y17384911D01*
X14106930Y17464100D01*
X14103727Y17466240D01*
X14056787Y17497604D01*
X14027741Y17517012D01*
X13934332Y17535592D01*
X13840923Y17517012D01*
X13761734Y17464101D01*
X13761733Y17464100D01*
X13717175Y17397412D01*
X13708822Y17384911D01*
X13690242Y17291502D01*
X10928422Y17291502D01*
X10909842Y17384911D01*
X10856930Y17464100D01*
X10853727Y17466240D01*
X10806787Y17497604D01*
X10777741Y17517012D01*
X10684332Y17535592D01*
X10590923Y17517012D01*
X10511734Y17464101D01*
X10511733Y17464100D01*
X10467175Y17397412D01*
X10458822Y17384911D01*
X10440242Y17291502D01*
X3441588Y17291502D01*
X3443290Y17300060D01*
X3424710Y17393469D01*
X3371798Y17472658D01*
X3292609Y17525570D01*
X3199200Y17544150D01*
X3105791Y17525570D01*
X3026602Y17472659D01*
X3026601Y17472658D01*
X2987475Y17414100D01*
X2973690Y17393469D01*
X2955110Y17300060D01*
X816774Y17300060D01*
X809842Y17334911D01*
X756930Y17414100D01*
X754098Y17415992D01*
X730652Y17431659D01*
X677741Y17467012D01*
X584332Y17485592D01*
X490923Y17467012D01*
X411734Y17414101D01*
X411733Y17414100D01*
X358822Y17334911D01*
X340242Y17241502D01*
X-11797670Y17241502D01*
X-11797670Y17841502D01*
X-3759758Y17841502D01*
X-3741178Y17748093D01*
X-3688266Y17668904D01*
X-3609077Y17615992D01*
X-3515668Y17597412D01*
X-3422259Y17615992D01*
X-3384080Y17641502D01*
X7340242Y17641502D01*
X7358822Y17548093D01*
X7379590Y17517012D01*
X7409225Y17472658D01*
X7411734Y17468904D01*
X7490923Y17415992D01*
X7584332Y17397412D01*
X7677741Y17415992D01*
X7756930Y17468904D01*
X7809842Y17548093D01*
X7828422Y17641502D01*
X7809842Y17734911D01*
X7804519Y17742877D01*
X14700620Y17742877D01*
X14719200Y17649468D01*
X14772112Y17570279D01*
X14851301Y17517367D01*
X14944710Y17498787D01*
X15038119Y17517367D01*
X15117308Y17570279D01*
X15170220Y17649468D01*
X15188800Y17742877D01*
X15170220Y17836286D01*
X15117308Y17915475D01*
X15038119Y17968387D01*
X14944710Y17986967D01*
X14851301Y17968387D01*
X14772112Y17915476D01*
X14772111Y17915475D01*
X14739730Y17867012D01*
X14719200Y17836286D01*
X14700620Y17742877D01*
X7804519Y17742877D01*
X7756930Y17814100D01*
X7677741Y17867012D01*
X7584332Y17885592D01*
X7490923Y17867012D01*
X7411734Y17814101D01*
X7411733Y17814100D01*
X7367630Y17748093D01*
X7358822Y17734911D01*
X7340242Y17641502D01*
X-3384080Y17641502D01*
X-3343070Y17668904D01*
X-3290158Y17748093D01*
X-3271578Y17841502D01*
X-3290158Y17934911D01*
X-3294562Y17941502D01*
X4540242Y17941502D01*
X4558822Y17848093D01*
X4567149Y17835631D01*
X4602502Y17782720D01*
X4611734Y17768904D01*
X4690923Y17715992D01*
X4784332Y17697412D01*
X4877741Y17715992D01*
X4956930Y17768904D01*
X5009842Y17848093D01*
X5028422Y17941502D01*
X5015149Y18008229D01*
X12899345Y18008229D01*
X12917925Y17914820D01*
X12949869Y17867012D01*
X12962509Y17848094D01*
X12970837Y17835631D01*
X13050026Y17782719D01*
X13143435Y17764139D01*
X13236844Y17782719D01*
X13316033Y17835631D01*
X13368945Y17914820D01*
X13387525Y18008229D01*
X13368945Y18101638D01*
X13316033Y18180827D01*
X13236844Y18233739D01*
X13143435Y18252319D01*
X13050026Y18233739D01*
X12970837Y18180828D01*
X12970836Y18180827D01*
X12917925Y18101638D01*
X12899345Y18008229D01*
X5015149Y18008229D01*
X5009842Y18034911D01*
X4956930Y18114100D01*
X4956442Y18114426D01*
X4930652Y18131659D01*
X4877741Y18167012D01*
X4784332Y18185592D01*
X4690923Y18167012D01*
X4611734Y18114101D01*
X4611733Y18114100D01*
X4580271Y18067012D01*
X4558822Y18034911D01*
X4540242Y17941502D01*
X-3294562Y17941502D01*
X-3343070Y18014100D01*
X-3422259Y18067012D01*
X-3515668Y18085592D01*
X-3609077Y18067012D01*
X-3688266Y18014101D01*
X-3688267Y18014100D01*
X-3736774Y17941502D01*
X-3741178Y17934911D01*
X-3759758Y17841502D01*
X-11797670Y17841502D01*
X-11797670Y18287024D01*
X15609601Y18287024D01*
X15628181Y18193615D01*
X15658458Y18148302D01*
X15669662Y18131533D01*
X15681093Y18114426D01*
X15760282Y18061514D01*
X15853691Y18042934D01*
X15947100Y18061514D01*
X16026289Y18114426D01*
X16079201Y18193615D01*
X16085432Y18224942D01*
X17354824Y18224942D01*
X17373404Y18131533D01*
X17426316Y18052344D01*
X17505505Y17999432D01*
X17598914Y17980852D01*
X17692323Y17999432D01*
X17771512Y18052344D01*
X17824424Y18131533D01*
X17843004Y18224942D01*
X17824424Y18318351D01*
X17771512Y18397540D01*
X17692323Y18450452D01*
X17598914Y18469032D01*
X17505505Y18450452D01*
X17426316Y18397541D01*
X17426315Y18397540D01*
X17373404Y18318351D01*
X17354824Y18224942D01*
X16085432Y18224942D01*
X16097781Y18287024D01*
X16079201Y18380433D01*
X16026289Y18459622D01*
X15947100Y18512534D01*
X15853691Y18531114D01*
X15760282Y18512534D01*
X15681093Y18459623D01*
X15681092Y18459622D01*
X15639612Y18397541D01*
X15628181Y18380433D01*
X15609601Y18287024D01*
X-11797670Y18287024D01*
X-11797670Y22755266D01*
X-11784944Y22785990D01*
X-11780676Y22789734D01*
X-11732065Y22827033D01*
X-11637590Y22950155D01*
X-11578201Y23093534D01*
X-11578201Y23093542D01*
X-11578199Y23093544D01*
X-11563031Y23208762D01*
X-11563030Y23208767D01*
X-11563031Y23286028D01*
X-11578201Y23401262D01*
X-11597407Y23447628D01*
X-11600581Y23467635D01*
X-11596723Y23516989D01*
X-11596623Y23520994D01*
X-11596473Y23526979D01*
X-11596474Y23526986D01*
X-11596473Y23527000D01*
X-11596732Y23536203D01*
X-11597545Y23546188D01*
X-11772685Y24842344D01*
X-10924108Y24842344D01*
X-10905528Y24748935D01*
X-10852616Y24669746D01*
X-10773427Y24616834D01*
X-10680018Y24598254D01*
X-10586609Y24616834D01*
X-10507420Y24669746D01*
X-10454508Y24748935D01*
X-10435928Y24842344D01*
X-10454508Y24935753D01*
X-10507420Y25014942D01*
X-10586609Y25067854D01*
X-10680018Y25086434D01*
X-10773427Y25067854D01*
X-10852616Y25014943D01*
X-10852617Y25014942D01*
X-10866054Y24994831D01*
X-10905528Y24935753D01*
X-10924108Y24842344D01*
X-11772685Y24842344D01*
X-11793290Y24994835D01*
X-11802258Y25024113D01*
X-11814610Y25049036D01*
X-11815751Y25051099D01*
X-11818730Y25056487D01*
X-11841338Y25075773D01*
X-11856453Y25105395D01*
X-11850982Y25130178D01*
X-11850105Y25131732D01*
X-11846626Y25137900D01*
X-11840039Y25170497D01*
X-11839927Y25207329D01*
X-11884962Y25437398D01*
X-10626520Y25437398D01*
X-10607940Y25343989D01*
X-10555028Y25264800D01*
X-10475839Y25211888D01*
X-10382430Y25193308D01*
X-10289021Y25211888D01*
X-10209832Y25264800D01*
X-10156920Y25343989D01*
X-10138340Y25437398D01*
X-10156920Y25530807D01*
X-10209832Y25609996D01*
X-10226165Y25620909D01*
X-10249807Y25636706D01*
X-10289021Y25662908D01*
X-10382430Y25681488D01*
X-10475839Y25662908D01*
X-10555028Y25609997D01*
X-10555029Y25609996D01*
X-10607940Y25530807D01*
X-10626520Y25437398D01*
X-11884962Y25437398D01*
X-11917387Y25603048D01*
X-11922761Y25620909D01*
X-11929275Y25636702D01*
X-11938881Y25648425D01*
X-11964095Y25679196D01*
X-11964101Y25679201D01*
X-11991742Y25697670D01*
X-11991772Y25697688D01*
X-12004667Y25704910D01*
X-12062608Y25711770D01*
X-12095221Y25705284D01*
X-12129260Y25691184D01*
X-12129262Y25691183D01*
X-12169225Y25664480D01*
X-12184888Y25657992D01*
X-12224510Y25650111D01*
X-12241461Y25650111D01*
X-12281085Y25657993D01*
X-12296745Y25664479D01*
X-12330341Y25686926D01*
X-12342328Y25698914D01*
X-12346583Y25705282D01*
X-12350917Y25711770D01*
X-12364773Y25732508D01*
X-12371259Y25748166D01*
X-12379141Y25787794D01*
X-12379141Y25804737D01*
X-12371259Y25844370D01*
X-12364774Y25860025D01*
X-12342327Y25893621D01*
X-12330342Y25905606D01*
X-12296744Y25928055D01*
X-12281088Y25934539D01*
X-12241463Y25942420D01*
X-12224510Y25942420D01*
X-12175744Y25932720D01*
X-12157474Y25930906D01*
X-12140650Y25930880D01*
X-12088298Y25946629D01*
X-12060591Y25965020D01*
X-12048929Y25974157D01*
X-12020267Y26024973D01*
X-12013680Y26057570D01*
X-12013568Y26094402D01*
X-12249291Y27298643D01*
X-12251978Y27309135D01*
X-12254996Y27318619D01*
X-12258867Y27328734D01*
X-12299341Y27418669D01*
X-12310419Y27437246D01*
X-12322425Y27452957D01*
X-12322429Y27452961D01*
X-12322431Y27452964D01*
X-12337426Y27468513D01*
X-12337441Y27468527D01*
X-12409593Y27527924D01*
X-12409602Y27527930D01*
X-12409601Y27527930D01*
X-12409603Y27527931D01*
X-12427760Y27539671D01*
X-12436526Y27544006D01*
X-12445488Y27548437D01*
X-12465840Y27555737D01*
X-12561877Y27578182D01*
X-12568700Y27579368D01*
X-12572548Y27580037D01*
X-12572558Y27580039D01*
X-12572567Y27580040D01*
X-12582424Y27581177D01*
X-12588078Y27581501D01*
X-12593248Y27581798D01*
X-12609523Y27581798D01*
X-12640247Y27594524D01*
X-12652138Y27616771D01*
X-12661221Y27662441D01*
X-12661223Y27662443D01*
X-12661224Y27662447D01*
X-12716195Y27744717D01*
X-12722683Y27777333D01*
X-12704207Y27804983D01*
X-12682722Y27812225D01*
X-12648482Y27814319D01*
X-12553942Y27860430D01*
X-12484245Y27939208D01*
X-12449999Y28038663D01*
X-12456421Y28143652D01*
X-12456422Y28143653D01*
X-12456689Y28148031D01*
X-12456690Y28148035D01*
X-12480842Y28542906D01*
X-12526952Y28637446D01*
X-12526953Y28637448D01*
X-12605730Y28707143D01*
X-12605732Y28707144D01*
X-12705186Y28741388D01*
X-13104439Y28716968D01*
X-13104440Y28716968D01*
X-13110491Y28716598D01*
X-13209429Y28710548D01*
X-13303969Y28664436D01*
X-13303970Y28664435D01*
X-13373665Y28585659D01*
X-13373666Y28585657D01*
X-13407910Y28486204D01*
X-13407910Y28486203D01*
X-13401489Y28381214D01*
X-13401489Y28381213D01*
X-13387091Y28145824D01*
X-13383490Y28086950D01*
X-13377069Y27981961D01*
X-13330959Y27887421D01*
X-13330958Y27887419D01*
X-13252181Y27817724D01*
X-13252179Y27817723D01*
X-13152724Y27783478D01*
X-13113658Y27785868D01*
X-13082215Y27775041D01*
X-13067637Y27745152D01*
X-13074878Y27718360D01*
X-13112241Y27662441D01*
X-13112242Y27662441D01*
X-13121326Y27616771D01*
X-13139802Y27589120D01*
X-13163941Y27581798D01*
X-13819529Y27581798D01*
X-13847932Y27577585D01*
X-13880190Y27585666D01*
X-13890433Y27596425D01*
X-13922315Y27644139D01*
X-13928803Y27676755D01*
X-13910328Y27704406D01*
X-13888842Y27711648D01*
X-13857623Y27713557D01*
X-13763083Y27759668D01*
X-13693386Y27838446D01*
X-13659140Y27937901D01*
X-13665562Y28042890D01*
X-13665563Y28042891D01*
X-13665830Y28047269D01*
X-13665831Y28047273D01*
X-13689983Y28442144D01*
X-13736093Y28536684D01*
X-13736094Y28536686D01*
X-13814871Y28606381D01*
X-13814873Y28606382D01*
X-13914327Y28640626D01*
X-14313580Y28616206D01*
X-14313581Y28616206D01*
X-14319632Y28615836D01*
X-14418570Y28609786D01*
X-14513110Y28563674D01*
X-14513111Y28563673D01*
X-14582806Y28484897D01*
X-14582807Y28484895D01*
X-14614071Y28394095D01*
X-14617052Y28385441D01*
X-14616793Y28381215D01*
X-14616771Y28380861D01*
X-14610630Y28280452D01*
X-14610630Y28280451D01*
X-14592631Y27986188D01*
X-14592631Y27986186D01*
X-14591891Y27974085D01*
X-14586210Y27881199D01*
X-14540100Y27786659D01*
X-14540099Y27786657D01*
X-14461322Y27716962D01*
X-14461320Y27716961D01*
X-14361865Y27682716D01*
X-14336149Y27684290D01*
X-14304707Y27673464D01*
X-14290128Y27643575D01*
X-14297369Y27616782D01*
X-14311786Y27595205D01*
X-14339437Y27576729D01*
X-14356389Y27576729D01*
X-14381876Y27581798D01*
X-14381881Y27581798D01*
X-14890025Y27581798D01*
X-14890027Y27581798D01*
X-14917438Y27577732D01*
X-14917440Y27577732D01*
X-14919528Y27577098D01*
X-14952622Y27580363D01*
X-14968259Y27594538D01*
X-15000575Y27642903D01*
X-15001581Y27643575D01*
X-15046313Y27673464D01*
X-15079764Y27695815D01*
X-15173173Y27714395D01*
X-15266582Y27695815D01*
X-15266583Y27695815D01*
X-15323063Y27658077D01*
X-15355680Y27651590D01*
X-15383330Y27670066D01*
X-15389817Y27702683D01*
X-15388060Y27708986D01*
X-15355220Y27799682D01*
X-15353977Y27802740D01*
X-15199546Y28144321D01*
X-15198066Y28147284D01*
X-15017584Y28476244D01*
X-15016775Y28477655D01*
X-14691981Y29018980D01*
X-14665261Y29038777D01*
X-14632368Y29033882D01*
X-14612570Y29007162D01*
X-14611273Y28996624D01*
X-14611273Y28995202D01*
X-14611273Y28995201D01*
X-14592693Y28901792D01*
X-14539781Y28822603D01*
X-14460592Y28769691D01*
X-14367183Y28751111D01*
X-14273774Y28769691D01*
X-14194585Y28822603D01*
X-14141673Y28901792D01*
X-14123093Y28995201D01*
X-14141673Y29088610D01*
X-14194585Y29167799D01*
X-14273774Y29220711D01*
X-14367183Y29239291D01*
X-14460592Y29220711D01*
X-14460595Y29220710D01*
X-14483669Y29205293D01*
X-14516285Y29198806D01*
X-14543935Y29217283D01*
X-14550422Y29249899D01*
X-14545059Y29263786D01*
X-14540780Y29270914D01*
X-14364712Y29623442D01*
X-14330455Y29707743D01*
X-14307100Y29731413D01*
X-14273845Y29731636D01*
X-14250173Y29708280D01*
X-14247588Y29699860D01*
X-14229399Y29608417D01*
X-14176487Y29529228D01*
X-14097298Y29476316D01*
X-14003889Y29457736D01*
X-13910480Y29476316D01*
X-13831291Y29529228D01*
X-13778379Y29608417D01*
X-13759799Y29701826D01*
X-13778379Y29795235D01*
X-13831291Y29874424D01*
X-13842115Y29881656D01*
X-13897346Y29918560D01*
X-13910480Y29927336D01*
X-14003889Y29945916D01*
X-14097298Y29927336D01*
X-14097299Y29927336D01*
X-14177191Y29873955D01*
X-14209807Y29867468D01*
X-14237458Y29885944D01*
X-14243945Y29918560D01*
X-14241586Y29926434D01*
X-14216362Y29988503D01*
X-14096617Y30363919D01*
X-14006189Y30747454D01*
X-13945617Y31136822D01*
X-13928158Y31362810D01*
X-13913103Y31392460D01*
X-13881490Y31402782D01*
X-13851838Y31387727D01*
X-13848710Y31383601D01*
X-13825606Y31349023D01*
X-13825605Y31349022D01*
X-13825604Y31349021D01*
X-13746415Y31296109D01*
X-13653006Y31277529D01*
X-13559597Y31296109D01*
X-13480408Y31349021D01*
X-13427496Y31428210D01*
X-13408916Y31521619D01*
X-13427496Y31615028D01*
X-13480408Y31694217D01*
X-13493827Y31703183D01*
X-13529068Y31726730D01*
X-13559597Y31747129D01*
X-13653006Y31765709D01*
X-13746415Y31747129D01*
X-13825604Y31694218D01*
X-13825607Y31694215D01*
X-13835738Y31679053D01*
X-13863389Y31660579D01*
X-13896005Y31667068D01*
X-13914479Y31694719D01*
X-13915314Y31703175D01*
X-13915320Y31726728D01*
X-13915323Y31753657D01*
X-13915324Y31753658D01*
X-13915324Y31762295D01*
X-13915325Y31762301D01*
X-13915522Y33560400D01*
X-13902799Y33591125D01*
X-13872077Y33603855D01*
X-13841352Y33591132D01*
X-13835945Y33584544D01*
X-13821621Y33563106D01*
X-13821618Y33563103D01*
X-13821617Y33563102D01*
X-13742428Y33510190D01*
X-13649019Y33491610D01*
X-13555610Y33510190D01*
X-13476421Y33563102D01*
X-13423509Y33642291D01*
X-13404929Y33735700D01*
X-13423509Y33829109D01*
X-13476421Y33908298D01*
X-13555610Y33961210D01*
X-13649019Y33979790D01*
X-13742428Y33961210D01*
X-13821617Y33908299D01*
X-13821619Y33908297D01*
X-13835983Y33886799D01*
X-13863634Y33868324D01*
X-13896250Y33874812D01*
X-13914725Y33902463D01*
X-13915560Y33910934D01*
X-13915856Y36614176D01*
X-13903133Y36644899D01*
X-13872411Y36657629D01*
X-13841686Y36644906D01*
X-13836279Y36638320D01*
X-13831325Y36630905D01*
X-13752136Y36577993D01*
X-13658727Y36559413D01*
X-13565318Y36577993D01*
X-13486129Y36630905D01*
X-13433217Y36710094D01*
X-13414637Y36803503D01*
X-13433217Y36896912D01*
X-13486129Y36976101D01*
X-13565318Y37029013D01*
X-13658727Y37047593D01*
X-13752136Y37029013D01*
X-13831325Y36976102D01*
X-13831329Y36976098D01*
X-13836320Y36968627D01*
X-13863970Y36950151D01*
X-13896586Y36956639D01*
X-13915062Y36984289D01*
X-13915897Y36992761D01*
X-13916225Y39988304D01*
X-13903502Y40019029D01*
X-13872780Y40031759D01*
X-13842055Y40019036D01*
X-13836648Y40012448D01*
X-13821621Y39989958D01*
X-13821618Y39989955D01*
X-13821617Y39989954D01*
X-13742428Y39937042D01*
X-13649019Y39918462D01*
X-13555610Y39937042D01*
X-13476421Y39989954D01*
X-13423509Y40069143D01*
X-13404929Y40162552D01*
X-13423509Y40255961D01*
X-13476421Y40335150D01*
X-13478792Y40336734D01*
X-13502699Y40352709D01*
X-13555610Y40388062D01*
X-13649019Y40406642D01*
X-13742428Y40388062D01*
X-13821617Y40335151D01*
X-13821619Y40335149D01*
X-13836686Y40312599D01*
X-13864337Y40294124D01*
X-13896953Y40300612D01*
X-13915428Y40328263D01*
X-13916263Y40336734D01*
X-13916269Y40388062D01*
X-13916422Y41793662D01*
X-13916422Y41811006D01*
X-13916422Y41811018D01*
X-13916424Y41811027D01*
X-13916424Y41811030D01*
X-13931728Y41847966D01*
X-13960002Y41876234D01*
X-13960005Y41876236D01*
X-13960006Y41876236D01*
X-13996937Y41891529D01*
X-13996942Y41891530D01*
X-13996943Y41891530D01*
X-14041086Y41891527D01*
X-14041199Y41891515D01*
X-20675817Y41891515D01*
X-20680075Y41891724D01*
X-20849165Y41908375D01*
X-20857518Y41910037D01*
X-21018047Y41958727D01*
X-21025917Y41961986D01*
X-21173867Y42041060D01*
X-21180949Y42045791D01*
X-21275779Y42123608D01*
X-21310637Y42152212D01*
X-21316659Y42158234D01*
X-21320777Y42163251D01*
X-21423090Y42287906D01*
X-21427820Y42294986D01*
X-21449107Y42334805D01*
X-20880069Y42334805D01*
X-20862012Y42291213D01*
X-20862012Y42291212D01*
X-20862011Y42291212D01*
X-20862011Y42291211D01*
X-20839816Y42237627D01*
X-20765439Y42163250D01*
X-20717294Y42143308D01*
X-20668260Y42122997D01*
X-20668259Y42122997D01*
X-20558021Y42122997D01*
X-20558013Y42122998D01*
X-20268260Y42122998D01*
X-20163076Y42122998D01*
X-19873323Y42122998D01*
X-19873315Y42122997D01*
X-19868260Y42122997D01*
X-19758020Y42122997D01*
X-19758012Y42122998D01*
X-19468260Y42122998D01*
X-19363076Y42122998D01*
X-19073323Y42122998D01*
X-19073315Y42122997D01*
X-19068260Y42122997D01*
X-18958020Y42122997D01*
X-18958012Y42122998D01*
X-18563077Y42122998D01*
X-18563076Y42122998D01*
X-18465897Y42163250D01*
X-18391520Y42237627D01*
X-18351268Y42334806D01*
X-18351268Y42724752D01*
X-17816831Y42724752D01*
X-17816830Y42724743D01*
X-17816830Y42329806D01*
X-17776578Y42232627D01*
X-17702201Y42158250D01*
X-17605022Y42117998D01*
X-17605021Y42117998D01*
X-17099839Y42117998D01*
X-17099838Y42117998D01*
X-17002659Y42158250D01*
X-16928282Y42232627D01*
X-16888030Y42329806D01*
X-16888030Y42724752D01*
X-16716831Y42724752D01*
X-16716830Y42724743D01*
X-16716830Y42329806D01*
X-16676578Y42232627D01*
X-16602201Y42158250D01*
X-16505022Y42117998D01*
X-16505021Y42117998D01*
X-15999839Y42117998D01*
X-15999838Y42117998D01*
X-15902659Y42158250D01*
X-15828282Y42232627D01*
X-15788030Y42329806D01*
X-15788030Y42576795D01*
X-15153837Y42576795D01*
X-15135257Y42483386D01*
X-15082345Y42404197D01*
X-15003156Y42351285D01*
X-14909747Y42332705D01*
X-14816338Y42351285D01*
X-14737149Y42404197D01*
X-14684237Y42483386D01*
X-14665657Y42576795D01*
X-14684237Y42670204D01*
X-14737149Y42749393D01*
X-14816338Y42802305D01*
X-14909747Y42820885D01*
X-15003156Y42802305D01*
X-15082345Y42749394D01*
X-15082346Y42749393D01*
X-15135257Y42670204D01*
X-15153837Y42576795D01*
X-15788030Y42576795D01*
X-15788030Y42834990D01*
X-15828282Y42932169D01*
X-15902659Y43006546D01*
X-15999838Y43046798D01*
X-15999839Y43046798D01*
X-16394775Y43046798D01*
X-16394783Y43046799D01*
X-16399838Y43046799D01*
X-16505022Y43046799D01*
X-16549696Y43028294D01*
X-16602201Y43006546D01*
X-16602203Y43006545D01*
X-16676578Y42932170D01*
X-16695540Y42886389D01*
X-16695541Y42886388D01*
X-16716831Y42834992D01*
X-16716831Y42724752D01*
X-16888030Y42724752D01*
X-16888030Y42834990D01*
X-16928282Y42932169D01*
X-17002659Y43006546D01*
X-17099838Y43046798D01*
X-17099839Y43046798D01*
X-17494775Y43046798D01*
X-17494783Y43046799D01*
X-17499838Y43046799D01*
X-17605022Y43046799D01*
X-17649696Y43028294D01*
X-17702201Y43006546D01*
X-17702203Y43006545D01*
X-17776578Y42932170D01*
X-17795540Y42886389D01*
X-17795541Y42886388D01*
X-17816831Y42834992D01*
X-17816831Y42724752D01*
X-18351268Y42724752D01*
X-18351268Y43239990D01*
X-18362621Y43267398D01*
X-15156520Y43267398D01*
X-15137940Y43173989D01*
X-15085028Y43094800D01*
X-15005839Y43041888D01*
X-14912430Y43023308D01*
X-14819021Y43041888D01*
X-14739832Y43094800D01*
X-14686920Y43173989D01*
X-14668340Y43267398D01*
X-14686920Y43360807D01*
X-14739832Y43439996D01*
X-14751952Y43448094D01*
X-14766110Y43457555D01*
X-14819021Y43492908D01*
X-14912430Y43511488D01*
X-15005839Y43492908D01*
X-15085028Y43439997D01*
X-15085029Y43439996D01*
X-15119487Y43388424D01*
X-15137940Y43360807D01*
X-15156520Y43267398D01*
X-18362621Y43267398D01*
X-18391520Y43337169D01*
X-18465897Y43411546D01*
X-18563076Y43451798D01*
X-18563077Y43451798D01*
X-18958012Y43451798D01*
X-18958020Y43451799D01*
X-18963075Y43451799D01*
X-19068260Y43451799D01*
X-19073315Y43451799D01*
X-19073323Y43451798D01*
X-19758013Y43451798D01*
X-19758021Y43451799D01*
X-19763076Y43451799D01*
X-19868260Y43451799D01*
X-19873315Y43451799D01*
X-19873323Y43451798D01*
X-20558013Y43451798D01*
X-20558021Y43451799D01*
X-20563076Y43451799D01*
X-20668260Y43451799D01*
X-20668262Y43451799D01*
X-20716544Y43431799D01*
X-20716545Y43431798D01*
X-20765440Y43411546D01*
X-20839816Y43337170D01*
X-20858099Y43293028D01*
X-20858100Y43293027D01*
X-20880069Y43239992D01*
X-20880069Y43129752D01*
X-20880068Y43129743D01*
X-20880068Y42443500D01*
X-20880069Y42443486D01*
X-20880069Y42334805D01*
X-21449107Y42334805D01*
X-21506909Y42442930D01*
X-21510169Y42450798D01*
X-21558877Y42611329D01*
X-21560539Y42619682D01*
X-21567924Y42694597D01*
X-21577245Y42789160D01*
X-21577454Y42793389D01*
X-21577455Y42817815D01*
X-21577455Y42824235D01*
X-21577458Y42824255D01*
X-21577459Y42834992D01*
X-21577642Y44163655D01*
X-15122868Y44163655D01*
X-15104288Y44070246D01*
X-15084277Y44040297D01*
X-15051521Y43991273D01*
X-15051376Y43991057D01*
X-14972187Y43938145D01*
X-14878778Y43919565D01*
X-14785369Y43938145D01*
X-14706180Y43991057D01*
X-14653268Y44070246D01*
X-14634688Y44163655D01*
X-14653268Y44257064D01*
X-14706180Y44336253D01*
X-14785369Y44389165D01*
X-14878778Y44407745D01*
X-14972187Y44389165D01*
X-15051376Y44336254D01*
X-15051377Y44336253D01*
X-15091202Y44276649D01*
X-15104288Y44257064D01*
X-15122868Y44163655D01*
X-21577642Y44163655D01*
X-21577821Y45467928D01*
X-21565099Y45498652D01*
X-21534377Y45511382D01*
X-21525898Y45510548D01*
X-21450983Y45495647D01*
X-21441823Y45494288D01*
X-21433347Y45493453D01*
X-21424109Y45492999D01*
X-21424102Y45492998D01*
X-21424092Y45492998D01*
X-17694266Y45492998D01*
X-17663542Y45480272D01*
X-17650816Y45449548D01*
X-17658138Y45425410D01*
X-17687940Y45380807D01*
X-17706520Y45287398D01*
X-17687940Y45193989D01*
X-17635028Y45114800D01*
X-17555839Y45061888D01*
X-17462430Y45043308D01*
X-17369021Y45061888D01*
X-17289832Y45114800D01*
X-17236920Y45193989D01*
X-17218340Y45287398D01*
X-17236920Y45380807D01*
X-17266723Y45425410D01*
X-17273209Y45458025D01*
X-17254733Y45485676D01*
X-17230594Y45492998D01*
X-16541077Y45492998D01*
X-16541072Y45492998D01*
X-16522651Y45494813D01*
X-16506025Y45498121D01*
X-16488319Y45503493D01*
X-16477574Y45507944D01*
X-16446950Y45528406D01*
X-16436287Y45539070D01*
X-16405564Y45551795D01*
X-16374842Y45539070D01*
X-15669549Y44833778D01*
X-15631897Y44796126D01*
X-15582701Y44775748D01*
X-14004596Y44775748D01*
X-13973872Y44763022D01*
X-13961146Y44732298D01*
X-13968469Y44708159D01*
X-14016167Y44636775D01*
X-14016168Y44636771D01*
X-14034748Y44543362D01*
X-14016168Y44449953D01*
X-13963256Y44370764D01*
X-13912598Y44336916D01*
X-13894122Y44309265D01*
X-13900609Y44276649D01*
X-13912597Y44264661D01*
X-13988265Y44214102D01*
X-13988267Y44214100D01*
X-14021972Y44163655D01*
X-14041178Y44134911D01*
X-14059758Y44041502D01*
X-14041178Y43948093D01*
X-13988266Y43868904D01*
X-13936955Y43834619D01*
X-13918479Y43806969D01*
X-13924966Y43774353D01*
X-13935033Y43763726D01*
X-13942833Y43757879D01*
X-13944678Y43756569D01*
X-13981686Y43731728D01*
X-13983173Y43730235D01*
X-13989920Y43723097D01*
X-13991348Y43721505D01*
X-14014058Y43683170D01*
X-14015262Y43681252D01*
X-14039941Y43644149D01*
X-14040745Y43642199D01*
X-14044260Y43632987D01*
X-14044957Y43631007D01*
X-14051270Y43586883D01*
X-14051649Y43584651D01*
X-14060247Y43540944D01*
X-14060243Y43538806D01*
X-14059965Y43528944D01*
X-14059853Y43526883D01*
X-14048798Y43483699D01*
X-14048294Y43481489D01*
X-14039515Y43437825D01*
X-14038678Y43435818D01*
X-14034693Y43426917D01*
X-14033766Y43424983D01*
X-14007036Y43389329D01*
X-14005749Y43387517D01*
X-13980894Y43350485D01*
X-13980893Y43350484D01*
X-13980891Y43350482D01*
X-13979370Y43348966D01*
X-13970472Y43340556D01*
X-13737770Y43030160D01*
X-13729311Y43008526D01*
X-13680294Y42530200D01*
X-13680068Y42525771D01*
X-13680068Y42194094D01*
X-13680068Y42088910D01*
X-13639816Y41991731D01*
X-13565439Y41917354D01*
X-13468260Y41877102D01*
X-13068260Y41877102D01*
X-13036502Y41877102D01*
X-13030650Y41876706D01*
X-13027192Y41876236D01*
X-12999173Y41872427D01*
X-12986866Y41875670D01*
X-12975798Y41877102D01*
X-12963076Y41877102D01*
X-12933734Y41889257D01*
X-12928181Y41891129D01*
X-12897459Y41899221D01*
X-12887329Y41906927D01*
X-12877655Y41912484D01*
X-12865897Y41917354D01*
X-12843428Y41939825D01*
X-12839032Y41943663D01*
X-12813739Y41962900D01*
X-12807328Y41973899D01*
X-12800515Y41982737D01*
X-12791522Y41991729D01*
X-12791522Y41991730D01*
X-12791520Y41991731D01*
X-12779366Y42021077D01*
X-12776768Y42026317D01*
X-12760762Y42053770D01*
X-12759047Y42066390D01*
X-12756138Y42077155D01*
X-12751268Y42088910D01*
X-12751268Y42120669D01*
X-12750872Y42126522D01*
X-12746593Y42157997D01*
X-12749835Y42170305D01*
X-12751268Y42181373D01*
X-12751268Y42539104D01*
X-12751263Y42539776D01*
X-12745394Y42919291D01*
X-12743895Y42926766D01*
X-12744518Y42926880D01*
X-12743744Y42931093D01*
X-12743760Y42932170D01*
X-12744449Y42979085D01*
X-12744449Y42980279D01*
X-12743706Y43028294D01*
X-12743708Y43028297D01*
X-12744476Y43032506D01*
X-12743861Y43032619D01*
X-12745345Y43040100D01*
X-12749903Y43350482D01*
X-12751184Y43437676D01*
X-12751162Y43439845D01*
X-12751157Y43439997D01*
X-12749576Y43484730D01*
X-12749577Y43484733D01*
X-12750262Y43488956D01*
X-12749810Y43489030D01*
X-12751268Y43497111D01*
X-12751268Y43541502D01*
X-10759758Y43541502D01*
X-10741178Y43448093D01*
X-10716758Y43411546D01*
X-10701914Y43389329D01*
X-10688266Y43368904D01*
X-10609077Y43315992D01*
X-10515668Y43297412D01*
X-10422259Y43315992D01*
X-10343070Y43368904D01*
X-10290158Y43448093D01*
X-10271578Y43541502D01*
X-10290158Y43634911D01*
X-10343070Y43714100D01*
X-10422259Y43767012D01*
X-10515668Y43785592D01*
X-10609077Y43767012D01*
X-10688266Y43714101D01*
X-10688267Y43714100D01*
X-10736308Y43642199D01*
X-10741178Y43634911D01*
X-10759758Y43541502D01*
X-12751268Y43541502D01*
X-12751268Y43800278D01*
X-12749737Y43811710D01*
X-12746745Y43822681D01*
X-12750921Y43855522D01*
X-12751268Y43861003D01*
X-12751268Y43894093D01*
X-12751269Y43894096D01*
X-12755619Y43904598D01*
X-12758580Y43915746D01*
X-12760014Y43927027D01*
X-12766368Y43938145D01*
X-12776433Y43955758D01*
X-12778851Y43960689D01*
X-12791520Y43991273D01*
X-12799564Y43999317D01*
X-12806562Y44008480D01*
X-12812203Y44018350D01*
X-12812205Y44018352D01*
X-12838368Y44038612D01*
X-12842489Y44042242D01*
X-12865897Y44065650D01*
X-12876405Y44070003D01*
X-12886377Y44075791D01*
X-12895364Y44082750D01*
X-12895368Y44082752D01*
X-12927302Y44091461D01*
X-12932496Y44093237D01*
X-12963075Y44105902D01*
X-12963076Y44105902D01*
X-12974445Y44105902D01*
X-12985876Y44107433D01*
X-12996848Y44110425D01*
X-12996850Y44110425D01*
X-13029687Y44106249D01*
X-13035168Y44105902D01*
X-13068262Y44105902D01*
X-13078767Y44101551D01*
X-13089907Y44098593D01*
X-13101189Y44097158D01*
X-13101197Y44097155D01*
X-13129936Y44080732D01*
X-13134865Y44078315D01*
X-13165439Y44065651D01*
X-13165442Y44065649D01*
X-13173485Y44057606D01*
X-13182649Y44050607D01*
X-13492847Y43873338D01*
X-13505840Y43868465D01*
X-13561567Y43857260D01*
X-13594197Y43863680D01*
X-13612729Y43891292D01*
X-13606310Y43923921D01*
X-13590158Y43948093D01*
X-13571578Y44041502D01*
X-13590158Y44134911D01*
X-13643070Y44214100D01*
X-13643071Y44214101D01*
X-13643074Y44214104D01*
X-13693729Y44247950D01*
X-13712205Y44275600D01*
X-13705717Y44308216D01*
X-13693733Y44320202D01*
X-13618060Y44370764D01*
X-13565148Y44449953D01*
X-13546568Y44543362D01*
X-13565148Y44636771D01*
X-13565150Y44636774D01*
X-13565150Y44636775D01*
X-13612847Y44708159D01*
X-13619335Y44740775D01*
X-13600859Y44768425D01*
X-13576720Y44775748D01*
X-12729518Y44775748D01*
X-12698794Y44763022D01*
X-12383865Y44448094D01*
X-12069549Y44133778D01*
X-12031897Y44096126D01*
X-11982701Y44075748D01*
X-11202228Y44075748D01*
X-11171504Y44063022D01*
X-11159613Y44040774D01*
X-11141179Y43948095D01*
X-11141178Y43948093D01*
X-11088266Y43868904D01*
X-11009077Y43815992D01*
X-10915668Y43797412D01*
X-10822259Y43815992D01*
X-10743070Y43868904D01*
X-10690158Y43948093D01*
X-10671578Y44041502D01*
X-10690158Y44134911D01*
X-10743070Y44214100D01*
X-10743073Y44214102D01*
X-10770326Y44232312D01*
X-10804843Y44255375D01*
X-10823318Y44283025D01*
X-10816831Y44315641D01*
X-10804844Y44327629D01*
X-10743070Y44368904D01*
X-10690158Y44448093D01*
X-10671578Y44541502D01*
X-10690158Y44634911D01*
X-10743070Y44714100D01*
X-10744477Y44715040D01*
X-10770305Y44732298D01*
X-10822259Y44767012D01*
X-10915668Y44785592D01*
X-11009077Y44767012D01*
X-11088266Y44714101D01*
X-11088267Y44714100D01*
X-11141178Y44634911D01*
X-11156830Y44556221D01*
X-11175305Y44528571D01*
X-11199445Y44521248D01*
X-11808989Y44521248D01*
X-11839713Y44533974D01*
X-12506609Y45200869D01*
X-12506610Y45200870D01*
X-12555806Y45221248D01*
X-12555808Y45221248D01*
X-15408989Y45221248D01*
X-15439713Y45233974D01*
X-15524563Y45318824D01*
X-15537289Y45349548D01*
X-15524563Y45380272D01*
X-15493839Y45392998D01*
X-13569937Y45392998D01*
X-13569932Y45392999D01*
X-13560693Y45393453D01*
X-13552216Y45394288D01*
X-13543053Y45395647D01*
X-13460055Y45412157D01*
X-13442346Y45417529D01*
X-13426683Y45424017D01*
X-13410363Y45432740D01*
X-13410358Y45432744D01*
X-13410353Y45432746D01*
X-13343640Y45477322D01*
X-13343639Y45477323D01*
X-13343635Y45477327D01*
X-13343631Y45477329D01*
X-13329326Y45489069D01*
X-13317339Y45501056D01*
X-13305599Y45515361D01*
X-13305597Y45515365D01*
X-13305593Y45515369D01*
X-13305592Y45515370D01*
X-13261016Y45582083D01*
X-13261013Y45582089D01*
X-13261010Y45582093D01*
X-13252287Y45598413D01*
X-13245799Y45614076D01*
X-13240427Y45631785D01*
X-13223917Y45714784D01*
X-13222558Y45723947D01*
X-13221723Y45732424D01*
X-13221268Y45741678D01*
X-13221268Y47977086D01*
X-13221723Y47986340D01*
X-13222558Y47994817D01*
X-13223917Y48003980D01*
X-13233050Y48049892D01*
X-13238827Y48078938D01*
X-13232339Y48111555D01*
X-13204689Y48130030D01*
X-13196212Y48130865D01*
X-10782598Y48130865D01*
X-10782584Y48130864D01*
G37*
%TD.AperFunction*%
%TA.AperFunction,Conductor*%
G36*
X20351332Y45609507D02*
G01*
X20366990Y45603021D01*
X20400584Y45580576D01*
X20412572Y45568589D01*
X20423793Y45551795D01*
X20435019Y45534994D01*
X20441505Y45519333D01*
X20448200Y45485676D01*
X20449387Y45479711D01*
X20449387Y45462757D01*
X20441506Y45423137D01*
X20435019Y45407476D01*
X20412574Y45373882D01*
X20400584Y45361892D01*
X20366990Y45339447D01*
X20351329Y45332960D01*
X20311709Y45325079D01*
X20294757Y45325079D01*
X20255133Y45332961D01*
X20239473Y45339447D01*
X20205877Y45361894D01*
X20193890Y45373882D01*
X20190885Y45378379D01*
X20179348Y45395647D01*
X20171445Y45407476D01*
X20164959Y45423134D01*
X20157077Y45462762D01*
X20157077Y45479705D01*
X20164959Y45519338D01*
X20171445Y45534994D01*
X20193891Y45568589D01*
X20205876Y45580574D01*
X20239474Y45603023D01*
X20255130Y45609507D01*
X20294761Y45617389D01*
X20311704Y45617389D01*
X20351332Y45609507D01*
G37*
%TD.AperFunction*%
%TA.AperFunction,Conductor*%
G36*
X23417912Y46868008D02*
G01*
X23433567Y46861524D01*
X23467165Y46839075D01*
X23479152Y46827087D01*
X23501597Y46793493D01*
X23508084Y46777832D01*
X23515965Y46738212D01*
X23515966Y46721264D01*
X23514720Y46715000D01*
X23514720Y46714996D01*
X23512906Y46696579D01*
X23512906Y46696573D01*
X23512906Y46679627D01*
X23529347Y46625425D01*
X23526087Y46592330D01*
X23518492Y46582089D01*
X23515003Y46578600D01*
X23484279Y46565874D01*
X23463051Y46571413D01*
X23451551Y46577852D01*
X23451552Y46577852D01*
X23418938Y46584339D01*
X23418936Y46584339D01*
X23382103Y46584339D01*
X23382095Y46584339D01*
X23378279Y46583580D01*
X23361333Y46583581D01*
X23305022Y46594781D01*
X23295863Y46596139D01*
X23295837Y46596142D01*
X23287365Y46596976D01*
X23287354Y46596975D01*
X23284716Y46596583D01*
X23252456Y46604657D01*
X23235354Y46633177D01*
X23234882Y46639561D01*
X23234882Y46664822D01*
X23228566Y46696573D01*
X23223655Y46721264D01*
X23223655Y46738206D01*
X23231537Y46777837D01*
X23238024Y46793497D01*
X23245274Y46804345D01*
X23255322Y46825591D01*
X23277973Y46847156D01*
X23295278Y46854323D01*
X23306051Y46861522D01*
X23321707Y46868008D01*
X23361339Y46875890D01*
X23378281Y46875890D01*
X23417912Y46868008D01*
G37*
%TD.AperFunction*%
%TD*%
%TA.AperFunction,Conductor*%
%TO.N,/1v_ina*%
G36*
X-14351157Y27474672D02*
G01*
X-14339267Y27452426D01*
X-14326212Y27386796D01*
X-14319597Y27376896D01*
X-14280982Y27319103D01*
X-14273300Y27307607D01*
X-14194111Y27254695D01*
X-14100702Y27236115D01*
X-14007293Y27254695D01*
X-13928104Y27307607D01*
X-13875192Y27386796D01*
X-13862138Y27452426D01*
X-13843663Y27480075D01*
X-13819523Y27487398D01*
X-13143333Y27487398D01*
X-13112609Y27474672D01*
X-13107209Y27468092D01*
X-13059329Y27396434D01*
X-12980140Y27343522D01*
X-12886731Y27324942D01*
X-12793322Y27343522D01*
X-12714133Y27396434D01*
X-12666256Y27468088D01*
X-12638606Y27486563D01*
X-12630129Y27487398D01*
X-12593248Y27487398D01*
X-12583360Y27486258D01*
X-12487327Y27463815D01*
X-12469600Y27455050D01*
X-12397431Y27395639D01*
X-12385425Y27379928D01*
X-12369041Y27343523D01*
X-12344951Y27289993D01*
X-12341933Y27280509D01*
X-12106210Y26076268D01*
X-12112797Y26043671D01*
X-12140504Y26025280D01*
X-12157328Y26025306D01*
X-12232985Y26040355D01*
X-12326394Y26021775D01*
X-12405583Y25968864D01*
X-12405584Y25968863D01*
X-12458495Y25889674D01*
X-12477075Y25796265D01*
X-12458495Y25702856D01*
X-12405583Y25623667D01*
X-12326394Y25570755D01*
X-12232985Y25552175D01*
X-12139576Y25570755D01*
X-12076810Y25612695D01*
X-12044193Y25619182D01*
X-12016543Y25600707D01*
X-12010029Y25584914D01*
X-11937333Y25213533D01*
X-11932569Y25189195D01*
X-11939156Y25156598D01*
X-11966863Y25138207D01*
X-11975210Y25137398D01*
X-13107268Y25137398D01*
X-13137992Y25150124D01*
X-13150718Y25180848D01*
X-13137992Y25211572D01*
X-13131411Y25216974D01*
X-13059832Y25264800D01*
X-13006920Y25343989D01*
X-12988340Y25437398D01*
X-13006920Y25530807D01*
X-13059832Y25609996D01*
X-13063870Y25612694D01*
X-13086110Y25627555D01*
X-13139021Y25662908D01*
X-13232430Y25681488D01*
X-13325839Y25662908D01*
X-13405028Y25609997D01*
X-13405030Y25609995D01*
X-13421303Y25585640D01*
X-13448954Y25567165D01*
X-13481570Y25573653D01*
X-13493557Y25585640D01*
X-13509831Y25609995D01*
X-13509833Y25609997D01*
X-13536110Y25627555D01*
X-13589021Y25662908D01*
X-13682430Y25681488D01*
X-13775839Y25662908D01*
X-13855028Y25609997D01*
X-13855029Y25609996D01*
X-13907430Y25531571D01*
X-13907940Y25530807D01*
X-13926520Y25437398D01*
X-13907940Y25343989D01*
X-13855028Y25264800D01*
X-13783453Y25216976D01*
X-13764977Y25189325D01*
X-13771464Y25156709D01*
X-13799115Y25138233D01*
X-13807592Y25137398D01*
X-15561389Y25137398D01*
X-15569866Y25138233D01*
X-15624172Y25149035D01*
X-15652864Y25154743D01*
X-15668524Y25161229D01*
X-15689830Y25175465D01*
X-15695859Y25179494D01*
X-15714333Y25207146D01*
X-15715168Y25215621D01*
X-15715168Y25955734D01*
X-15715136Y25957411D01*
X-15712514Y26025306D01*
X-15700638Y26332803D01*
X-15700379Y26336134D01*
X-15675923Y26546366D01*
X-15657071Y26708439D01*
X-15656556Y26711741D01*
X-15612796Y26935650D01*
X-15584662Y27079605D01*
X-15583901Y27082834D01*
X-15490868Y27418718D01*
X-15470404Y27444928D01*
X-15437398Y27448991D01*
X-15411186Y27428526D01*
X-15406381Y27415595D01*
X-15398683Y27376896D01*
X-15345771Y27297707D01*
X-15266582Y27244795D01*
X-15173173Y27226215D01*
X-15079764Y27244795D01*
X-15000575Y27297707D01*
X-14947663Y27376896D01*
X-14932640Y27452425D01*
X-14914165Y27480075D01*
X-14890025Y27487398D01*
X-14381881Y27487398D01*
X-14351157Y27474672D01*
G37*
%TD.AperFunction*%
%TD*%
%TA.AperFunction,Conductor*%
%TO.N,/1.8v_ina*%
G36*
X-13363165Y48118139D02*
G01*
X-13357767Y48111561D01*
X-13339499Y48084221D01*
X-13333013Y48068562D01*
X-13316503Y47985563D01*
X-13315668Y47977086D01*
X-13315668Y45741678D01*
X-13316503Y45733201D01*
X-13333013Y45650202D01*
X-13339501Y45634539D01*
X-13384090Y45567807D01*
X-13396077Y45555820D01*
X-13462809Y45511231D01*
X-13478472Y45504743D01*
X-13561470Y45488233D01*
X-13569947Y45487398D01*
X-15675139Y45487398D01*
X-15705863Y45500124D01*
X-15844204Y45638465D01*
X-15856930Y45669189D01*
X-15856930Y46019605D01*
X-15844204Y46050329D01*
X-15837627Y46055727D01*
X-15809832Y46074298D01*
X-15756920Y46153487D01*
X-15738340Y46246896D01*
X-15756920Y46340305D01*
X-15809832Y46419494D01*
X-15825886Y46430221D01*
X-15844361Y46457871D01*
X-15837874Y46490487D01*
X-15825886Y46502475D01*
X-15809833Y46513200D01*
X-15756921Y46592389D01*
X-15738341Y46685798D01*
X-15756921Y46779207D01*
X-15809833Y46858396D01*
X-15889022Y46911308D01*
X-15982431Y46929888D01*
X-16075840Y46911308D01*
X-16155029Y46858397D01*
X-16155030Y46858396D01*
X-16207941Y46779207D01*
X-16226521Y46685798D01*
X-16226521Y46685797D01*
X-16221961Y46662871D01*
X-16228449Y46630255D01*
X-16233852Y46623671D01*
X-16308256Y46549266D01*
X-16338980Y46536540D01*
X-16369704Y46549266D01*
X-16382430Y46579990D01*
X-16382430Y47977086D01*
X-16381595Y47985562D01*
X-16365086Y48068561D01*
X-16358601Y48084220D01*
X-16340335Y48111556D01*
X-16312685Y48130030D01*
X-16304209Y48130865D01*
X-13393889Y48130865D01*
X-13363165Y48118139D01*
G37*
%TD.AperFunction*%
%TD*%
%TA.AperFunction,Conductor*%
%TO.N,/1.15v_ina*%
G36*
X4567016Y-3113340D02*
G01*
X4645273Y-3127946D01*
X4660142Y-3133697D01*
X4724384Y-3173402D01*
X4736178Y-3184130D01*
X4779336Y-3241117D01*
X4787740Y-3273293D01*
X4770930Y-3301987D01*
X4768838Y-3303476D01*
X4727854Y-3330861D01*
X4727852Y-3330863D01*
X4674941Y-3410052D01*
X4656361Y-3503461D01*
X4674941Y-3596869D01*
X4674942Y-3596873D01*
X4727489Y-3675515D01*
X4733977Y-3708131D01*
X4715502Y-3735781D01*
X4658419Y-3773922D01*
X4658417Y-3773924D01*
X4605506Y-3853113D01*
X4586926Y-3946522D01*
X4605506Y-4039931D01*
X4658418Y-4119120D01*
X4737607Y-4172032D01*
X4831016Y-4190612D01*
X4924425Y-4172032D01*
X5003614Y-4119120D01*
X5016601Y-4099682D01*
X5044252Y-4081207D01*
X5052729Y-4080372D01*
X5068720Y-4080372D01*
X5068721Y-4080372D01*
X5091303Y-4071017D01*
X5124557Y-4071017D01*
X5148072Y-4094531D01*
X5150740Y-4103730D01*
X5165714Y-4190011D01*
X5166204Y-4193835D01*
X5169401Y-4232227D01*
X5169357Y-4239931D01*
X5165724Y-4278280D01*
X5165191Y-4282098D01*
X4862259Y-5917135D01*
X4844149Y-5945026D01*
X4811620Y-5951942D01*
X4795763Y-5945589D01*
X2374469Y-4362955D01*
X2355715Y-4335493D01*
X2354803Y-4327577D01*
X2354126Y-4297937D01*
X2356973Y-4281452D01*
X2386780Y-4203399D01*
X2390525Y-4195873D01*
X2438496Y-4119120D01*
X2567570Y-3912602D01*
X2992190Y-3233207D01*
X2996567Y-3227365D01*
X3045028Y-3172920D01*
X3056416Y-3163808D01*
X3116903Y-3130282D01*
X3130666Y-3125454D01*
X3202509Y-3113218D01*
X3209804Y-3112602D01*
X4559044Y-3112602D01*
X4567016Y-3113340D01*
G37*
%TD.AperFunction*%
%TD*%
%TA.AperFunction,Conductor*%
%TO.N,+1V8*%
G36*
X-16529927Y48118139D02*
G01*
X-16524529Y48111561D01*
X-16506261Y48084221D01*
X-16499775Y48068562D01*
X-16483265Y47985563D01*
X-16482430Y47977086D01*
X-16482430Y46812561D01*
X-16495156Y46781837D01*
X-16525880Y46769111D01*
X-16556604Y46781837D01*
X-16562007Y46788422D01*
X-16609829Y46859993D01*
X-16609833Y46859997D01*
X-16636110Y46877555D01*
X-16689021Y46912908D01*
X-16782430Y46931488D01*
X-16875839Y46912908D01*
X-16955028Y46859997D01*
X-16955029Y46859996D01*
X-16986723Y46812561D01*
X-17007940Y46780807D01*
X-17026520Y46687398D01*
X-17007940Y46593989D01*
X-16955028Y46514800D01*
X-16875839Y46461888D01*
X-16782430Y46443308D01*
X-16689021Y46461888D01*
X-16609832Y46514800D01*
X-16562008Y46586376D01*
X-16534357Y46604851D01*
X-16501741Y46598364D01*
X-16483265Y46570713D01*
X-16482430Y46562236D01*
X-16482430Y45646041D01*
X-16485738Y45629413D01*
X-16490188Y45618670D01*
X-16513701Y45595157D01*
X-16524446Y45590706D01*
X-16541072Y45587398D01*
X-21424092Y45587398D01*
X-21432568Y45588233D01*
X-21515556Y45604739D01*
X-21531217Y45611225D01*
X-21558535Y45629476D01*
X-21577013Y45657126D01*
X-21577847Y45665585D01*
X-21578061Y47229100D01*
X-21577852Y47233357D01*
X-21576094Y47251211D01*
X-21561202Y47402473D01*
X-21559544Y47410815D01*
X-21510840Y47571394D01*
X-21507583Y47579254D01*
X-21428497Y47727231D01*
X-21423766Y47734313D01*
X-21317330Y47864021D01*
X-21311313Y47870040D01*
X-21181608Y47976500D01*
X-21174542Y47981222D01*
X-21026562Y48060333D01*
X-21018701Y48063589D01*
X-20858137Y48112310D01*
X-20849788Y48113971D01*
X-20756624Y48123155D01*
X-20680539Y48130655D01*
X-20676276Y48130865D01*
X-16560651Y48130865D01*
X-16529927Y48118139D01*
G37*
%TD.AperFunction*%
%TD*%
M02*
