%TF.GenerationSoftware,KiCad,Pcbnew,8.99.0-417-ga763d613e5*%
%TF.CreationDate,2024-05-16T16:31:54-04:00*%
%TF.ProjectId,thundervolt,7468756e-6465-4727-966f-6c742e6b6963,rev?*%
%TF.SameCoordinates,PX85b368ePY7384544*%
%TF.FileFunction,Copper,L3,Inr*%
%TF.FilePolarity,Positive*%
%FSLAX46Y46*%
G04 Gerber Fmt 4.6, Leading zero omitted, Abs format (unit mm)*
G04 Created by KiCad (PCBNEW 8.99.0-417-ga763d613e5) date 2024-05-16 16:31:54*
%MOMM*%
%LPD*%
G01*
G04 APERTURE LIST*
G04 Aperture macros list*
%AMRoundRect*
0 Rectangle with rounded corners*
0 $1 Rounding radius*
0 $2 $3 $4 $5 $6 $7 $8 $9 X,Y pos of 4 corners*
0 Add a 4 corners polygon primitive as box body*
4,1,4,$2,$3,$4,$5,$6,$7,$8,$9,$2,$3,0*
0 Add four circle primitives for the rounded corners*
1,1,$1+$1,$2,$3*
1,1,$1+$1,$4,$5*
1,1,$1+$1,$6,$7*
1,1,$1+$1,$8,$9*
0 Add four rect primitives between the rounded corners*
20,1,$1+$1,$2,$3,$4,$5,0*
20,1,$1+$1,$4,$5,$6,$7,0*
20,1,$1+$1,$6,$7,$8,$9,0*
20,1,$1+$1,$8,$9,$2,$3,0*%
G04 Aperture macros list end*
%TA.AperFunction,ComponentPad*%
%ADD10RoundRect,0.500000X-1.250000X-0.000010X1.250000X-0.000010X1.250000X0.000010X-1.250000X0.000010X0*%
%TD*%
%TA.AperFunction,ComponentPad*%
%ADD11RoundRect,0.500000X0.000010X-1.250000X0.000010X1.250000X-0.000010X1.250000X-0.000010X-1.250000X0*%
%TD*%
%TA.AperFunction,ComponentPad*%
%ADD12RoundRect,0.500000X0.000010X-0.250000X0.000010X0.250000X-0.000010X0.250000X-0.000010X-0.250000X0*%
%TD*%
%TA.AperFunction,ViaPad*%
%ADD13C,0.300000*%
%TD*%
%TA.AperFunction,Conductor*%
%ADD14C,0.250000*%
%TD*%
%TA.AperFunction,Conductor*%
%ADD15C,0.300000*%
%TD*%
%TA.AperFunction,Conductor*%
%ADD16C,0.350000*%
%TD*%
%TA.AperFunction,Conductor*%
%ADD17C,0.088900*%
%TD*%
G04 APERTURE END LIST*
D10*
%TO.N,GND*%
%TO.C,TP5*%
X23038914Y29068642D03*
%TD*%
D11*
%TO.N,+1V15*%
%TO.C,TP3*%
X7517570Y-4372602D03*
%TD*%
D10*
%TO.N,GND*%
%TO.C,TP7*%
X-13402430Y14547398D03*
%TD*%
D12*
%TO.N,+3V3*%
%TO.C,TP1*%
X24977570Y47527398D03*
%TD*%
D10*
%TO.N,+1V0*%
%TO.C,TP4*%
X-13402430Y23247398D03*
%TD*%
%TO.N,+1V8*%
%TO.C,TP2*%
X-19552430Y48237398D03*
%TD*%
D13*
%TO.N,GND*%
X-14100702Y27480205D03*
X-9687095Y9784750D03*
X5717570Y-4112602D03*
X-14349933Y28349088D03*
X-13415668Y42541502D03*
X20984332Y13841502D03*
X23384332Y28341502D03*
X-665668Y1641502D03*
X-13315668Y11041502D03*
X-17142430Y42787398D03*
X-1015668Y1641502D03*
X13934332Y17291502D03*
X18484332Y17841502D03*
X-13116372Y28050596D03*
X-13140792Y28449850D03*
X22134332Y27741502D03*
X18084332Y17841502D03*
X-2615668Y11041502D03*
X-11115697Y9819638D03*
X21185067Y43778918D03*
X-13015668Y13141502D03*
X24198914Y11693642D03*
X6234332Y16716039D03*
X18084332Y16741502D03*
X-13015668Y43441502D03*
X-14003889Y29701826D03*
X-13015668Y42141502D03*
X-10890985Y12348309D03*
X16216344Y7216418D03*
X-3515668Y17841502D03*
X18084332Y16341502D03*
X-14872430Y13217398D03*
X-13915668Y12241502D03*
X4817570Y-358498D03*
X-2815668Y10544371D03*
X-13615668Y11341502D03*
X-19015668Y43187398D03*
X-12872430Y13617398D03*
X24184332Y26241502D03*
X-12715668Y11041502D03*
X-13649019Y40162552D03*
X-15317587Y13517398D03*
X-14683731Y13921723D03*
X-18615668Y42387398D03*
X18484332Y16341502D03*
X-18615668Y42787398D03*
X-12517587Y12017398D03*
X11117570Y-2012602D03*
X4784332Y17941502D03*
X17842378Y2797052D03*
X-13950679Y28373508D03*
X-1315668Y13941502D03*
X-15173173Y27470305D03*
X-19415668Y43187398D03*
X18484332Y16741502D03*
X-17462430Y45287398D03*
X-815668Y10551502D03*
X-8090668Y10741502D03*
X18084332Y11041502D03*
X21998914Y7493642D03*
X18484332Y17441502D03*
X23384332Y26641502D03*
X23784332Y28341502D03*
X-11515668Y13241502D03*
X20184332Y13041502D03*
X21218682Y44121790D03*
X-9988477Y9514546D03*
X-19015668Y42787398D03*
X-20615668Y43187398D03*
X21184332Y43441502D03*
X-16042430Y42387398D03*
X-14515668Y11641502D03*
X24184332Y28341502D03*
X19784332Y13041502D03*
X-14878778Y44163655D03*
X17598914Y4593642D03*
X-13615668Y10741502D03*
X4817570Y-958498D03*
X-15317587Y12317398D03*
X-19815668Y42787398D03*
X-13658727Y36803503D03*
X-13790668Y43541502D03*
X3317570Y-658498D03*
X-7915668Y9341502D03*
X1858303Y16196228D03*
X-13415668Y42141502D03*
X15417570Y-2012602D03*
X18384332Y14741502D03*
X13337857Y-2030487D03*
X584332Y17241502D03*
X17584332Y10741502D03*
X22298914Y10493642D03*
X-13015668Y10741502D03*
X-17542430Y42387398D03*
X-2215668Y11041502D03*
X16527570Y2312398D03*
X-14872430Y12417398D03*
X22984332Y26241502D03*
X23689108Y46407508D03*
X-13615668Y12541502D03*
X-14072430Y13617398D03*
X-11604726Y10512945D03*
X19384332Y13441502D03*
X-14912430Y43267398D03*
X-12717118Y28075016D03*
X11534332Y16641502D03*
X24184332Y27041502D03*
X-11784158Y13552781D03*
X18484332Y10441502D03*
X20984332Y13041502D03*
X-13483731Y13921723D03*
X18984332Y13441502D03*
X4217570Y-958498D03*
X21064332Y8481502D03*
X-20215668Y43187398D03*
X22584332Y26641502D03*
X22198914Y13393642D03*
X-14215668Y11941502D03*
X-14325513Y27949834D03*
X-2815668Y10141502D03*
X17984332Y10441502D03*
X23384332Y26241502D03*
X-2615668Y11441502D03*
X-19415668Y42787398D03*
X23784332Y26241502D03*
X-13315668Y12241502D03*
X-11623297Y12270974D03*
X23784332Y26641502D03*
X23484332Y6941502D03*
X-11796211Y12997633D03*
X-2215668Y11441502D03*
X15834332Y7941502D03*
X10534332Y16391502D03*
X-13015668Y11941502D03*
X-13649019Y33735700D03*
X-13015668Y43841502D03*
X-13615668Y11941502D03*
X-12232430Y24457398D03*
X-13474993Y43120430D03*
X-2315668Y10441502D03*
X-14515668Y12241502D03*
X16384332Y841502D03*
X-7315668Y10267261D03*
X19428562Y2102219D03*
X20184332Y13441502D03*
X-2040668Y10041502D03*
X-13653006Y31521619D03*
X-12239117Y24844645D03*
X-13672430Y13617398D03*
X-13404897Y43619069D03*
X-2460454Y9972493D03*
X-12817587Y12317398D03*
X-20215668Y42387398D03*
X-14472430Y13617398D03*
X-13117587Y12617398D03*
X-2815668Y9741502D03*
X19784332Y13441502D03*
X23384332Y27691502D03*
X23384332Y27041502D03*
X24184332Y26641502D03*
X-7915668Y9741502D03*
X19063599Y4207773D03*
X-18615668Y43187398D03*
X-7845159Y10360397D03*
X-19415668Y42387398D03*
X-13083731Y13921723D03*
X3617570Y-358498D03*
X-10762853Y10333428D03*
X15954374Y6120177D03*
X-13015668Y11341502D03*
X16394161Y9245210D03*
X-14872430Y12817398D03*
X-14072430Y13217398D03*
X16904332Y15615502D03*
X22984332Y26641502D03*
X-13015668Y42541502D03*
X-14472430Y13217398D03*
X-15304334Y13929143D03*
X-9931319Y10054955D03*
X-12741538Y28474270D03*
X4217570Y-358498D03*
X24298914Y9093642D03*
X-19815668Y43187398D03*
X-13926259Y27974254D03*
X21185067Y43096537D03*
X-13315668Y10441502D03*
X-20615668Y42787398D03*
X-17142430Y42387398D03*
X16609332Y11766502D03*
X-1055973Y1242401D03*
X17484332Y11241502D03*
X-665668Y2141502D03*
X-14367183Y28995201D03*
X22405303Y6635950D03*
X-15317587Y12717398D03*
X15853691Y18287024D03*
X-12415668Y11341502D03*
X22584332Y28341502D03*
X-7691976Y10811606D03*
X-20615668Y42387398D03*
X20234332Y6091502D03*
X-16042430Y42787398D03*
X-7315668Y10641502D03*
X17198914Y17293642D03*
X-14464996Y12844424D03*
X3917570Y-658498D03*
X-11097126Y11268155D03*
X-13272430Y13617398D03*
X18084332Y17441502D03*
X-12217587Y11717398D03*
X17919359Y9294359D03*
X-13915668Y11641502D03*
X-11530443Y8402072D03*
X23784332Y27041502D03*
X-13672430Y13217398D03*
X-16782430Y46687398D03*
X18584332Y15441502D03*
X-12347555Y9225374D03*
X21548107Y44743665D03*
X-12071836Y13291040D03*
X-7315668Y11041502D03*
X24034332Y27691502D03*
X18484332Y11041502D03*
X24584332Y27791502D03*
X-10222308Y9779554D03*
X18434332Y6791502D03*
X-12409458Y12592867D03*
X-17542430Y42787398D03*
X-3615668Y14641502D03*
X-20215668Y42787398D03*
X5117570Y-658498D03*
X24098914Y14093642D03*
X-13315668Y11641502D03*
X-14872430Y13617398D03*
X-15317587Y13117398D03*
X-12886731Y27569032D03*
X3617570Y-958498D03*
X22984332Y27041502D03*
X21332972Y44451215D03*
X3199200Y17300060D03*
X-19015668Y42387398D03*
X-16442430Y42387398D03*
X20205970Y9056432D03*
X18084332Y11441502D03*
X-13883731Y13921723D03*
X-665668Y1241502D03*
X-13008888Y42979798D03*
X18584332Y13441502D03*
X5917570Y-658498D03*
X-12715668Y11641502D03*
X5517570Y-358498D03*
X20584332Y13441502D03*
X-12683731Y13921723D03*
X-13417587Y12917398D03*
X22984332Y28341502D03*
X20584332Y13841502D03*
X-14215668Y12541502D03*
X13143435Y18008229D03*
X10684332Y17291502D03*
X-665668Y841502D03*
X18484332Y11441502D03*
X8596423Y-2030487D03*
X-3015668Y12641502D03*
X-7515668Y9741502D03*
X-13915668Y12841502D03*
X20584332Y13041502D03*
X-19815668Y42387398D03*
X24584332Y28341502D03*
X-7515668Y9341502D03*
X4517570Y-658498D03*
X21984332Y28241502D03*
X22584332Y27041502D03*
X-8915668Y10241502D03*
X-16442430Y42787398D03*
X20853125Y12386758D03*
X17298914Y-706358D03*
X13934332Y16401502D03*
X22584332Y26241502D03*
X22734332Y27691502D03*
X5517570Y-958498D03*
X-13915668Y11041502D03*
X18184332Y13441502D03*
X-1115668Y841502D03*
X3017570Y-358498D03*
X20984332Y13441502D03*
X-10125668Y11241502D03*
X-14815668Y11941502D03*
X-10484292Y9021096D03*
X-12472430Y13617398D03*
X-14283731Y13921723D03*
X-14215668Y11341502D03*
X-12283731Y13921723D03*
%TO.N,+3V3*%
X24379944Y45676387D03*
X24227570Y47307398D03*
X24227570Y46907398D03*
X23827570Y47307398D03*
X23992732Y46037828D03*
X24227570Y46507398D03*
X24401858Y46148154D03*
X24227570Y47707398D03*
X23827570Y46907398D03*
%TO.N,+1V8*%
X-17982430Y46287398D03*
X-18382430Y46287398D03*
X-17982430Y45887398D03*
X-17234264Y47647059D03*
X-17182430Y47187398D03*
X-18682430Y46587398D03*
X-17882430Y46687398D03*
X-13790658Y44543362D03*
X-16782429Y47187397D03*
X-18782430Y46987398D03*
X-18282430Y46787398D03*
X-18382430Y47187398D03*
X-17582430Y46987398D03*
X-17682430Y47787398D03*
X-17982430Y47487398D03*
X-17982430Y47087398D03*
X-17582430Y47387398D03*
X-18382430Y45887398D03*
X-16782430Y47587398D03*
%TO.N,+1V0*%
X-14876166Y23985814D03*
X-15290847Y23985814D03*
X-15082393Y24332994D03*
X-15297355Y24676937D03*
X-14282393Y24332994D03*
X-14440296Y23967653D03*
X-14682393Y24332994D03*
X-12764017Y23969907D03*
X-14097355Y24676937D03*
X-13564017Y23969907D03*
X-13164017Y23969907D03*
X-8665668Y11741502D03*
X-14497355Y24676937D03*
X-14897355Y24676937D03*
X-13982393Y24032994D03*
X-15482393Y24332994D03*
%TO.N,+1V15*%
X5317570Y-5312602D03*
X6717570Y-5112602D03*
X6717570Y-3912602D03*
X6817570Y-5912602D03*
X5911790Y-4808866D03*
X6327343Y-4870960D03*
X6332119Y-3629078D03*
X-1515668Y9041502D03*
X6422872Y-5802371D03*
X5542034Y-4575983D03*
X6717570Y-5512602D03*
X5797155Y-5219642D03*
X5617570Y-5612602D03*
X6050307Y-5702066D03*
X6717570Y-3512602D03*
X5217570Y-5712602D03*
X6145837Y-4441078D03*
X6717570Y-4712602D03*
X6227037Y-4035078D03*
X5517570Y-6012602D03*
X5456208Y-4942905D03*
X5917570Y-6112602D03*
X6417570Y-6212602D03*
X6222260Y-5286513D03*
X6717570Y-4312602D03*
%TO.N,SDA*%
X-10382430Y25437398D03*
X-897441Y12846329D03*
X-10915668Y44041502D03*
X20884332Y14436143D03*
X-5215668Y11241502D03*
X4831016Y-3946522D03*
X-4915668Y9541502D03*
X19784332Y14241502D03*
X-15982431Y46685798D03*
X-13682430Y25437398D03*
X20484332Y41941502D03*
X7578667Y-1720952D03*
X-10680018Y24842344D03*
X15084332Y16793642D03*
X18934332Y5691502D03*
%TO.N,SCL*%
X17598914Y18224942D03*
X-10915668Y44541502D03*
X20484332Y40041502D03*
X-582318Y12541502D03*
X-15982430Y46246896D03*
X-13232430Y25437398D03*
X19384332Y5691502D03*
X7995838Y16160971D03*
X7584332Y17641502D03*
X-5415668Y11741502D03*
X8017570Y-1712602D03*
X-4915668Y9041502D03*
X4900451Y-3503461D03*
X16084332Y16793642D03*
X20246462Y18893642D03*
X19784332Y13841502D03*
%TO.N,EN*%
X19410383Y8129344D03*
X-10515668Y43541502D03*
X-5015668Y10398014D03*
%TO.N,VBAT*%
X-7615668Y5941502D03*
X19584332Y11941502D03*
X-6109635Y8996864D03*
X-6515668Y10241502D03*
X-3615668Y10541502D03*
X-11415668Y42541502D03*
X-8515668Y5641502D03*
X-3815668Y11441502D03*
X-12232985Y25796265D03*
X-5915668Y9341502D03*
X-7315668Y5041502D03*
X-6041307Y10239779D03*
X19684332Y11041502D03*
X20084332Y11041502D03*
X-7615668Y4741502D03*
X-12215668Y43041502D03*
X20084332Y11441502D03*
X-8215668Y7141502D03*
X-6315668Y9341502D03*
X-8515668Y6841502D03*
X-4521148Y10746356D03*
X-12215668Y43841502D03*
X-3615668Y9741502D03*
X-3615668Y10141502D03*
X23369811Y46729734D03*
X-8215668Y5341502D03*
X-8855138Y8968317D03*
X15298914Y18593642D03*
X-8215668Y6541502D03*
X-6515668Y10641502D03*
X-7915668Y6241502D03*
X19684332Y11441502D03*
X-7915668Y6841502D03*
X-6653004Y9042416D03*
X-11815668Y42541502D03*
X-11815668Y42141502D03*
X-12329478Y42615810D03*
X19184332Y11941502D03*
X-6315668Y9741502D03*
X-8815668Y6541502D03*
X-8815668Y5941502D03*
X-9115668Y6241502D03*
X-4501231Y11748826D03*
X-7015668Y5341502D03*
X6177897Y-1997614D03*
X-12215668Y43441502D03*
X-8215668Y5941502D03*
X-8633297Y8714784D03*
X-4215668Y11441502D03*
X-7315668Y5641502D03*
X-6715668Y5641502D03*
X19384332Y12641502D03*
X-11748792Y43044551D03*
X-6695302Y9540233D03*
X-4026552Y11805256D03*
X16784332Y10691502D03*
X20303233Y45471233D03*
X-11260245Y42981737D03*
X-4215668Y11041502D03*
X-5637848Y9029401D03*
X-8515668Y6241502D03*
X-7915668Y5641502D03*
X-3409137Y11257549D03*
X-3498762Y11742187D03*
X-7915668Y5041502D03*
X-3815668Y11041502D03*
X-7015668Y5941502D03*
X-4099579Y10540551D03*
X-16502430Y45287398D03*
X-8931198Y8429560D03*
X-7615668Y5341502D03*
X-4538774Y11239878D03*
X-12282593Y42202373D03*
X-9165716Y8695769D03*
X19984332Y11941502D03*
X-5915668Y9741502D03*
X-6515668Y11041502D03*
X18984332Y12641502D03*
X-7315668Y6241502D03*
X-7615668Y6541502D03*
X-11415668Y42141502D03*
%TO.N,+1V8_ALW*%
X16266332Y15957502D03*
X17095648Y9089286D03*
X9834332Y16641502D03*
X17459012Y7936601D03*
X14944710Y17742877D03*
X19591352Y8685420D03*
%TO.N,ALERT*%
X7584332Y16641502D03*
X16998332Y7891502D03*
%TO.N,SAFEMODE*%
X18184059Y8274697D03*
X12834332Y16641502D03*
%TO.N,/1v_ina*%
X-13382430Y26637398D03*
X-12582430Y26637398D03*
X-14182430Y26637398D03*
X-13782430Y26637398D03*
X-14182430Y25437398D03*
X-14982430Y26637398D03*
X-14182430Y25837398D03*
X-13782430Y26237398D03*
X-14982430Y25437398D03*
X-12829500Y25826155D03*
X-14582430Y25437398D03*
X-14582430Y26637398D03*
X-14582430Y25837398D03*
X-14582430Y26237398D03*
X-14982430Y26237398D03*
X-13382430Y26237398D03*
X-12982430Y26637398D03*
X-14976469Y25842711D03*
X-14182430Y26237398D03*
X-12582430Y26237398D03*
X-12982430Y26237398D03*
%TO.N,/1.15v_ina*%
X3943809Y-4110037D03*
X4160453Y-3726744D03*
X3620510Y-4390007D03*
X4817570Y-4812602D03*
X3352665Y-4060717D03*
X3317570Y-3412602D03*
X3617570Y-4812602D03*
X4390429Y-3386780D03*
X4917570Y-4412602D03*
X2817570Y-4212602D03*
X3992546Y-5020231D03*
X3217570Y-4512602D03*
X3673787Y-3740190D03*
X4517570Y-4512602D03*
X4383763Y-4116703D03*
X4319754Y-5287080D03*
X4389643Y-4883630D03*
X2983442Y-3771019D03*
X4097379Y-4604073D03*
X4717570Y-5212602D03*
X3927591Y-3357591D03*
%TO.N,/3.3v_ina*%
X22498914Y45493642D03*
X20084332Y16341502D03*
X23384332Y23541502D03*
X22898914Y45093642D03*
X23784332Y23941502D03*
X22984332Y23541502D03*
X24184332Y23941502D03*
X18984332Y14241502D03*
X20084332Y17441502D03*
X23784332Y23541502D03*
X19684332Y17841502D03*
X19484332Y14841502D03*
X22098914Y45493642D03*
X23298914Y45093642D03*
X23698914Y45093642D03*
X22098914Y45093642D03*
X23752406Y45500391D03*
X22498914Y45093642D03*
X20084332Y15741502D03*
X19684332Y16741502D03*
X19084332Y14841502D03*
X24078605Y45205687D03*
X19684332Y17441502D03*
X23384332Y23941502D03*
X24184332Y23541502D03*
X23384332Y23141502D03*
X19384332Y14241502D03*
X22984332Y23141502D03*
X19884332Y14941502D03*
X20084332Y16741502D03*
X22584332Y23141502D03*
X20084332Y17841502D03*
X22898914Y45493642D03*
X22584332Y23541502D03*
X22984332Y23941502D03*
X23354218Y45491392D03*
X24184332Y23141502D03*
X23784332Y23141502D03*
X22584332Y23941502D03*
X20084332Y15341502D03*
X19684332Y16341502D03*
X19584332Y15441502D03*
%TO.N,/1.8v_ina*%
X-15082430Y47387398D03*
X-15082430Y46587398D03*
X-15482430Y47387398D03*
X-15682430Y47787398D03*
X-15482430Y46187398D03*
X-15682430Y45787398D03*
X-15982431Y47187397D03*
X-15082430Y46187398D03*
X-15482430Y46587398D03*
X-14882430Y47787398D03*
X-15282430Y45787398D03*
X-15482430Y46987398D03*
X-16088879Y47613195D03*
X-15282430Y47787398D03*
X-14882430Y45787398D03*
X-15082430Y46987398D03*
%TO.N,Net-(U7-LX2)*%
X17684332Y14341502D03*
X17284332Y14341502D03*
X18984332Y13841502D03*
X17284332Y14741502D03*
X16884332Y14741502D03*
X16884332Y14341502D03*
X19384332Y13841502D03*
X17684332Y14741502D03*
%TO.N,Net-(U7-LX1)*%
X17684332Y12141502D03*
X17684332Y12541502D03*
X17284332Y12541502D03*
X16884332Y12541502D03*
X16884332Y12141502D03*
X17284332Y12141502D03*
X18984332Y13041502D03*
X19384332Y13041502D03*
%TO.N,Net-(U5-VSET)*%
X-13815668Y44041502D03*
X-14909747Y42576795D03*
%TO.N,Net-(U9-PC0)*%
X16378025Y5161502D03*
X19834332Y5691502D03*
%TD*%
D14*
%TO.N,Net-(U7-LX2)*%
X17684332Y14741502D02*
X17284332Y14341502D01*
X16884332Y14341502D02*
X17284332Y14741502D01*
%TO.N,Net-(U7-LX1)*%
X16884332Y12141502D02*
X17284332Y12541502D01*
X17684332Y12541502D02*
X17284332Y12141502D01*
%TO.N,VBAT*%
X19684332Y11441502D02*
X20084332Y11441502D01*
D15*
%TO.N,+3V3*%
X23827570Y46907398D02*
X23827570Y47307398D01*
X24401858Y46148154D02*
X24401858Y47251330D01*
X24227570Y46907398D02*
X24357570Y46907398D01*
X24310631Y46336193D02*
X24171974Y46086163D01*
X23992732Y46037828D02*
X24171974Y46086163D01*
X24171974Y46086163D02*
X24401858Y46148154D01*
X24227570Y47578742D02*
X24498914Y47307398D01*
X24677926Y47707398D02*
X24227570Y47707398D01*
X24677926Y47307398D02*
X24677926Y47707398D01*
X24227570Y47307398D02*
X24498914Y47307398D01*
X23827570Y47307398D02*
X24227570Y47707398D01*
X24379944Y45676387D02*
X24401858Y46148154D01*
X24171974Y46851802D02*
X24227570Y46907398D01*
X23992732Y46037828D02*
X24379944Y45676387D01*
X24677926Y47227754D02*
X24677926Y47527398D01*
X24227570Y47707398D02*
X24227570Y46507398D01*
X23827570Y47307398D02*
X24227570Y46907398D01*
X24357570Y46907398D02*
X24677926Y47227754D01*
X24171974Y46086163D02*
X24171974Y46851802D01*
X24227570Y46907398D02*
X24227570Y47707398D01*
X24498914Y47307398D02*
X24677926Y47307398D01*
X24401858Y47251330D02*
X24677926Y47527398D01*
X24310631Y46336193D02*
X24401858Y46148154D01*
X23992732Y46037828D02*
X24227570Y46272666D01*
X24227570Y47707398D02*
X24227570Y47578742D01*
X24227570Y46507398D02*
X24310631Y46336193D01*
X23827570Y46907398D02*
X24227570Y46507398D01*
X24227570Y46272666D02*
X24227570Y46507398D01*
D16*
%TO.N,+1V8*%
X-16782430Y47587398D02*
X-16782429Y47187397D01*
X-18382430Y47187398D02*
X-18382430Y47351494D01*
X-18082430Y45887398D02*
X-17982430Y45887398D01*
X-17982430Y47487398D02*
X-17982430Y47087398D01*
X-17982430Y46287398D02*
X-17982430Y45887398D01*
X-17682430Y47787398D02*
X-17234264Y47647059D01*
X-18282430Y46787398D02*
X-18382430Y46087398D01*
X-18382430Y46087398D02*
X-18382430Y45887398D01*
X-17882430Y46687398D02*
X-17982430Y46287398D01*
X-18451397Y47956365D02*
X-18950475Y47956365D01*
X-18782430Y46987398D02*
X-18682430Y46587398D01*
X-18382430Y46287398D02*
X-17982430Y46287398D01*
X-18382430Y47187398D02*
X-18782430Y46987398D01*
X-17851397Y47956365D02*
X-17682430Y47787398D01*
X-18382430Y47187398D02*
X-17882430Y46687398D01*
X-17682430Y47787398D02*
X-18264939Y47787398D01*
X-18382430Y47351494D02*
X-18114478Y47619446D01*
X-18682430Y46587398D02*
X-18382430Y46287398D01*
X-17234264Y47647059D02*
X-17582430Y46987398D01*
X-18950475Y47956365D02*
X-18382430Y47388320D01*
X-17982430Y47487398D02*
X-17182430Y47187398D01*
X-17182430Y47187398D02*
X-17582430Y46987398D01*
X-18264939Y47787398D02*
X-18782430Y47269907D01*
X-17234264Y47647059D02*
X-16982430Y47187398D01*
X-18782430Y46987398D02*
X-18282430Y46787398D01*
X-19271397Y47956365D02*
X-17851397Y47956365D01*
X-17982430Y47487398D02*
X-18114478Y47619446D01*
X-16982430Y47187398D02*
X-17182430Y47187398D01*
X-17582430Y46987398D02*
X-17882430Y46687398D01*
X-17682430Y47787398D02*
X-17982430Y47487398D01*
X-18114478Y47619446D02*
X-18451397Y47956365D01*
X-18782430Y46987398D02*
X-18782430Y47269907D01*
X-18382430Y47388320D02*
X-18382430Y47187398D01*
X-17982430Y47487398D02*
X-18382430Y47187398D01*
X-18682430Y46587398D02*
X-18282430Y46787398D01*
X-17682430Y47787398D02*
X-17582430Y47387398D01*
X-18782430Y47269907D02*
X-18782430Y47467398D01*
X-18382430Y45887398D02*
X-18082430Y45887398D01*
X-17882430Y46687398D02*
X-17682430Y47787398D01*
X-18282430Y46787398D02*
X-18082430Y45887398D01*
X-18382430Y46287398D02*
X-18382430Y46087398D01*
X-16782429Y47187397D02*
X-16982430Y47187398D01*
X-18782430Y47467398D02*
X-19271397Y47956365D01*
X-16782430Y47587398D02*
X-17234264Y47647059D01*
%TO.N,+1V0*%
X-14282393Y24332994D02*
X-14182430Y24004449D01*
X-14876166Y23985814D02*
X-14440296Y23967653D01*
X-15297355Y24676937D02*
X-15482393Y24332994D01*
X-13564017Y23969907D02*
X-13164017Y23969907D01*
X-15290847Y23985814D02*
X-14876166Y23985814D01*
X-12797355Y23516639D02*
X-12757653Y23516639D01*
X-14821672Y23516639D02*
X-15290847Y23985814D01*
X-13997355Y23676937D02*
X-14097355Y23676937D01*
X-12764017Y23969907D02*
X-12290325Y23969907D01*
X-14440296Y23967653D02*
X-14182430Y24004449D01*
X-12197355Y23876937D02*
X-12197355Y23516639D01*
X-12764017Y23869907D02*
X-13117285Y23516639D01*
X-13397355Y23876937D02*
X-13597355Y23676937D01*
X-13797355Y23776937D02*
X-13797355Y23876937D01*
X-13097355Y23876937D02*
X-13097355Y23576937D01*
X-15297355Y24676937D02*
X-15082393Y24332994D01*
X-14682393Y24332994D02*
X-14440296Y23967653D01*
X-12197355Y23516639D02*
X-14821672Y23516639D01*
X-13597355Y23576937D02*
X-13797355Y23776937D01*
X-13982393Y24032994D02*
X-13564017Y23969907D01*
X-14097355Y24676937D02*
X-14018885Y24237398D01*
X-14497355Y23676937D02*
X-14497355Y23576937D01*
X-13097355Y23576937D02*
X-13397355Y23876937D01*
X-15297355Y24676937D02*
X-14097355Y24676937D01*
X-12757653Y23516639D02*
X-12397355Y23876937D01*
X-14097355Y23676937D02*
X-14297355Y23876937D01*
X-13164017Y23969907D02*
X-12764017Y23969907D01*
X-14018885Y24237398D02*
X-13564017Y23969907D01*
X-15082393Y24332994D02*
X-15290847Y23985814D01*
X-14497355Y23576937D02*
X-14897355Y23976937D01*
X-14018885Y24237398D02*
X-13982393Y24032994D01*
X-14897355Y24676937D02*
X-14876166Y23985814D01*
X-13797355Y23876937D02*
X-13997355Y23676937D01*
X-13117285Y23516639D02*
X-13402430Y23516639D01*
X-14497355Y24676937D02*
X-14440296Y23967653D01*
X-15482393Y24332994D02*
X-15290847Y23985814D01*
X-12290325Y23969907D02*
X-12197355Y23876937D01*
X-14297355Y23876937D02*
X-14497355Y23676937D01*
X-14182430Y24004449D02*
X-13982393Y24032994D01*
X-12764017Y23969907D02*
X-12764017Y23869907D01*
X-12397355Y23876937D02*
X-12497355Y23876937D01*
X-13597355Y23676937D02*
X-13597355Y23576937D01*
%TO.N,+1V15*%
X5797155Y-5219642D02*
X6050307Y-5702066D01*
X6417570Y-6212602D02*
X6646668Y-6040778D01*
X7135983Y-5594189D02*
X6817570Y-5912602D01*
X6646668Y-6040778D02*
X6817570Y-5912602D01*
X5617570Y-5612602D02*
X6817570Y-5912602D01*
X5917570Y-6112602D02*
X6417570Y-6212602D01*
X6918492Y-5512602D02*
X6935983Y-5530093D01*
X6717570Y-5512602D02*
X6918492Y-5512602D01*
X6717570Y-3912602D02*
X6145837Y-4441078D01*
X5542034Y-4575983D02*
X5217570Y-5712602D01*
X5317570Y-5312602D02*
X5797155Y-5219642D01*
X5542034Y-4575983D02*
X5911790Y-4808866D01*
X6332119Y-3629078D02*
X6717570Y-4312602D01*
X5217570Y-5712602D02*
X5435522Y-5930554D01*
X6717570Y-5512602D02*
X6327343Y-4870960D01*
X6422872Y-5802371D02*
X6717570Y-5512602D01*
X6935983Y-5530093D02*
X6935983Y-3730093D01*
X5797155Y-5219642D02*
X6222260Y-5286513D01*
X5217570Y-5712602D02*
X6646668Y-6040778D01*
X6145837Y-4441078D02*
X5911790Y-4808866D01*
X6817570Y-5912602D02*
X6717570Y-5512602D01*
X5456208Y-4942905D02*
X5911790Y-4808866D01*
X7118492Y-3512602D02*
X7135983Y-3530093D01*
X5734710Y-4697012D02*
X6030402Y-4624684D01*
X5911790Y-4808866D02*
X5435522Y-5930554D01*
X6717570Y-3512602D02*
X6332119Y-3629078D01*
X6717570Y-5512602D02*
X6717570Y-3512602D01*
X6717570Y-3512602D02*
X7118492Y-3512602D01*
X5517570Y-6012602D02*
X5917570Y-6112602D01*
X7135983Y-3530093D02*
X7135983Y-5594189D01*
X6145837Y-4441078D02*
X6422872Y-5802371D01*
X6332119Y-3629078D02*
X6145837Y-4441078D01*
X5435522Y-5930554D02*
X5517570Y-6012602D01*
X5911790Y-4808866D02*
X6222260Y-5286513D01*
X6050307Y-5702066D02*
X6717570Y-3912602D01*
D17*
%TO.N,SDA*%
X-10680018Y24842344D02*
X-10382430Y25437398D01*
D16*
%TO.N,VBAT*%
X-6109635Y8996864D02*
X-5637848Y9029401D01*
X-11415668Y42541502D02*
X-11415668Y42141502D01*
X-7615668Y6541502D02*
X-7615668Y4741502D01*
X-3409137Y11257549D02*
X-4215668Y11041502D01*
X-3615668Y10141502D02*
X-3615668Y10541502D01*
X-6715668Y5641502D02*
X-8215668Y7141502D01*
X-4026552Y11805256D02*
X-4521148Y10746356D01*
X-7615668Y6541502D02*
X-8515668Y5641502D01*
X-5915668Y9341502D02*
X-5637848Y9029401D01*
X-8215668Y7141502D02*
X-9115668Y6241502D01*
X-12215668Y43841502D02*
X-12215668Y43441502D01*
X-8855138Y8968317D02*
X-9165716Y8695769D01*
X-6515668Y10241502D02*
X-6695302Y9540233D01*
X-11815668Y42541502D02*
X-11815668Y42141502D01*
X-6041307Y10239779D02*
X-5915668Y9741502D01*
X-12215668Y43041502D02*
X-11815668Y42541502D01*
X-7015668Y5941502D02*
X-7915668Y5041502D01*
X-6041307Y10239779D02*
X-6315668Y9341502D01*
X-6695302Y9540233D02*
X-5915668Y9341502D01*
X-4501231Y11748826D02*
X-3815668Y11041502D01*
X-8633297Y8714784D02*
X-8855138Y8968317D01*
X-11260245Y42981737D02*
X-11815668Y42541502D01*
X-6515668Y11041502D02*
X-6515668Y10641502D01*
X-11815668Y42141502D02*
X-11415668Y42141502D01*
X-12329478Y42615810D02*
X-12282593Y42202373D01*
X-12282593Y42202373D02*
X-11815668Y42541502D01*
X-4538774Y11239878D02*
X-4521148Y10746356D01*
X-9115668Y6241502D02*
X-7615668Y4741502D01*
X-6653004Y9042416D02*
X-6109635Y8996864D01*
X-4215668Y11041502D02*
X-3498762Y11742187D01*
D15*
X20084332Y11441502D02*
X19684332Y11041502D01*
D16*
X-3409137Y11257549D02*
X-3498762Y11742187D01*
X-5915668Y9341502D02*
X-5915668Y9741502D01*
X-9165716Y8695769D02*
X-8931198Y8429560D01*
D15*
X19984332Y11941502D02*
X20084332Y11441502D01*
X18984332Y12641502D02*
X19384332Y12641502D01*
D16*
X-8815668Y6541502D02*
X-7315668Y5041502D01*
X-12329478Y42615810D02*
X-11815668Y42541502D01*
D15*
X19184332Y11941502D02*
X19984332Y11941502D01*
D16*
X-3815668Y11441502D02*
X-4099579Y10540551D01*
X-4521148Y10746356D02*
X-4099579Y10540551D01*
X-4215668Y11041502D02*
X-3615668Y10541502D01*
X-4026552Y11805256D02*
X-3815668Y11041502D01*
X-8515668Y6841502D02*
X-7015668Y5341502D01*
X-6515668Y10241502D02*
X-6515668Y10641502D01*
X-4521148Y10746356D02*
X-3815668Y11041502D01*
X-11815668Y42141502D02*
X-12282593Y42202373D01*
X-6695302Y9540233D02*
X-6653004Y9042416D01*
X-12215668Y43041502D02*
X-12329478Y42615810D01*
X-3615668Y10141502D02*
X-3615668Y9741502D01*
X-11748792Y43044551D02*
X-11260245Y42981737D01*
X-4099579Y10540551D02*
X-3615668Y10141502D01*
D15*
X20084332Y11441502D02*
X20084332Y11041502D01*
D16*
X-5915668Y9741502D02*
X-6653004Y9042416D01*
X-3815668Y11441502D02*
X-3615668Y10541502D01*
X-7615668Y4741502D02*
X-6715668Y5641502D01*
X-6041307Y10239779D02*
X-6515668Y10641502D01*
X-8215668Y5341502D02*
X-7315668Y6241502D01*
D15*
X20084332Y11041502D02*
X19684332Y11041502D01*
D16*
X-3498762Y11742187D02*
X-4026552Y11805256D01*
X-6109635Y8996864D02*
X-6515668Y10241502D01*
X-4501231Y11748826D02*
X-4026552Y11805256D01*
X-12215668Y43441502D02*
X-12215668Y43041502D01*
X-4501231Y11748826D02*
X-4538774Y11239878D01*
X-12215668Y43441502D02*
X-11748792Y43044551D01*
X-11415668Y42141502D02*
X-11815668Y42541502D01*
X-8931198Y8429560D02*
X-8633297Y8714784D01*
X-8215668Y7141502D02*
X-8215668Y5341502D01*
X-11260245Y42981737D02*
X-11415668Y42541502D01*
X-6515668Y10241502D02*
X-6041307Y10239779D01*
X-8515668Y5641502D02*
X-8515668Y6841502D01*
X-3615668Y10541502D02*
X-3409137Y11257549D01*
X-11748792Y43044551D02*
X-11815668Y42541502D01*
X-8815668Y5941502D02*
X-7915668Y6841502D01*
X-12215668Y43041502D02*
X-11748792Y43044551D01*
X-7315668Y5041502D02*
X-7315668Y6241502D01*
D15*
X19584332Y11941502D02*
X20084332Y11441502D01*
D16*
X-7015668Y5941502D02*
X-7015668Y5341502D01*
X-8815668Y6541502D02*
X-8815668Y5941502D01*
X-7915668Y5041502D02*
X-7915668Y6841502D01*
D15*
X19684332Y11041502D02*
X19684332Y11441502D01*
X19684332Y11441502D02*
X19184332Y11941502D01*
D16*
%TO.N,/1v_ina*%
X-14582430Y26637398D02*
X-14582430Y25437398D01*
X-14982430Y26637398D02*
X-14582430Y26237398D01*
X-13782430Y26637398D02*
X-13382430Y26237398D01*
X-14982430Y25637398D02*
X-14982430Y26637398D01*
X-14982430Y25637398D02*
X-14582430Y25837398D01*
X-14982430Y25437398D02*
X-14182430Y25437398D01*
X-13382430Y26637398D02*
X-12982430Y26237398D01*
X-14182430Y26237398D02*
X-14582430Y25837398D01*
X-12982430Y26237398D02*
X-12829500Y25826155D01*
X-14982430Y26637398D02*
X-12582430Y26637398D01*
X-12582430Y26237398D02*
X-12829500Y25826155D01*
X-12982430Y26237398D02*
X-13982430Y26237398D01*
X-12582430Y26237398D02*
X-12582430Y26637398D01*
X-13982430Y26237398D02*
X-14982430Y26237398D01*
X-14582430Y25837398D02*
X-14182430Y25437398D01*
X-14182430Y26637398D02*
X-13782430Y26237398D01*
X-12982430Y26637398D02*
X-12582430Y26237398D01*
X-12829500Y25826155D02*
X-13382430Y26237398D01*
X-14982430Y26237398D02*
X-14582430Y25837398D01*
X-14182430Y25837398D02*
X-13782430Y26237398D01*
X-14182430Y25437398D02*
X-14182430Y26237398D01*
X-14982430Y25437398D02*
X-14982430Y25637398D01*
X-14582430Y26637398D02*
X-13982430Y26237398D01*
X-14182430Y25837398D02*
X-14976469Y25842711D01*
%TO.N,/1.15v_ina*%
X3497915Y-4512602D02*
X3620510Y-4390007D01*
X2817570Y-4212602D02*
X3217570Y-4512602D01*
X4517570Y-4512602D02*
X4717570Y-4462602D01*
X3620510Y-4390007D02*
X4389643Y-4883630D01*
X3617570Y-4812602D02*
X3943809Y-4110037D01*
X3352665Y-4060717D02*
X3620510Y-4390007D01*
X3317570Y-3412602D02*
X3943809Y-4110037D01*
X4319754Y-5287080D02*
X4717570Y-5212602D01*
X4817570Y-4812602D02*
X4917570Y-4412602D01*
X3217570Y-4512602D02*
X3673787Y-3740190D01*
X4389643Y-4883630D02*
X4717570Y-5212602D01*
X3992546Y-5020231D02*
X4319754Y-5287080D01*
X2983442Y-3771019D02*
X3352665Y-4060717D01*
X4433074Y-4262602D02*
X4717570Y-4462602D01*
X4817570Y-4812602D02*
X4517570Y-4512602D01*
X2817570Y-4212602D02*
X3352665Y-4060717D01*
X4160453Y-3726744D02*
X4383763Y-4116703D01*
X4433074Y-4262602D02*
X4517570Y-4512602D01*
X3927591Y-3357591D02*
X3352665Y-4060717D01*
X3673787Y-3740190D02*
X3620510Y-4390007D01*
X3317570Y-3412602D02*
X3352665Y-4060717D01*
X3317570Y-3412602D02*
X3927591Y-3357591D01*
X4717570Y-5212602D02*
X4817570Y-4812602D01*
X3317570Y-3412602D02*
X2983442Y-3771019D01*
X2983442Y-3771019D02*
X2817570Y-4212602D01*
X4383763Y-4116703D02*
X4433074Y-4262602D01*
X4817570Y-4812602D02*
X4389643Y-4883630D01*
X4160453Y-3726744D02*
X4389643Y-4883630D01*
X4390429Y-3386780D02*
X4383763Y-4116703D01*
X3617570Y-4812602D02*
X3992546Y-5020231D01*
X4390429Y-3386780D02*
X4160453Y-3726744D01*
X3217570Y-4512602D02*
X3497915Y-4512602D01*
X3927591Y-3357591D02*
X3943809Y-4110037D01*
X4717570Y-4462602D02*
X4917570Y-4412602D01*
X3352665Y-4060717D02*
X3673787Y-3740190D01*
X3217570Y-4512602D02*
X3617570Y-4812602D01*
X3927591Y-3357591D02*
X4390429Y-3386780D01*
X3943809Y-4110037D02*
X4097379Y-4604073D01*
X4319754Y-5287080D02*
X4517570Y-4512602D01*
D15*
%TO.N,/3.3v_ina*%
X19684332Y16741502D02*
X20084332Y16741502D01*
D16*
X22584332Y23941502D02*
X24184332Y23941502D01*
D15*
X19084332Y14841502D02*
X19484332Y14841502D01*
X18984332Y14241502D02*
X19384332Y14241502D01*
X19684332Y16341502D02*
X20084332Y16341502D01*
X19584332Y15441502D02*
X20084332Y15741502D01*
D16*
X22584332Y23141502D02*
X23384332Y23941502D01*
D15*
X20084332Y15741502D02*
X20084332Y15341502D01*
X23298914Y45093642D02*
X22898914Y45493642D01*
X24078605Y45205687D02*
X23698914Y45093642D01*
X19484332Y14841502D02*
X20084332Y15741502D01*
D16*
X22584332Y23141502D02*
X24184332Y23141502D01*
D15*
X23698914Y45093642D02*
X22098914Y45093642D01*
X23354218Y45491392D02*
X23298914Y45093642D01*
X20084332Y17841502D02*
X20084332Y17441502D01*
X19684332Y17841502D02*
X20084332Y17841502D01*
X19684332Y16741502D02*
X19684332Y16341502D01*
X19884332Y14941502D02*
X19484332Y14841502D01*
X19584332Y15441502D02*
X19884332Y14941502D01*
X22098914Y45493642D02*
X22498914Y45093642D01*
X19684332Y16741502D02*
X20084332Y16341502D01*
X20084332Y17441502D02*
X19684332Y17441502D01*
X19684332Y17841502D02*
X19684332Y17441502D01*
X20084332Y15341502D02*
X19884332Y14941502D01*
X19684332Y17841502D02*
X20084332Y17441502D01*
D16*
X23384332Y23141502D02*
X24184332Y23941502D01*
D15*
X22898914Y45093642D02*
X22898914Y45493642D01*
D16*
X22584332Y23941502D02*
X22584332Y23141502D01*
D15*
X23752406Y45500391D02*
X24078605Y45205687D01*
D16*
X24184332Y23541502D02*
X22584332Y23541502D01*
D15*
X22098914Y45493642D02*
X23752406Y45500391D01*
X22098914Y45093642D02*
X22098914Y45493642D01*
X22498914Y45493642D02*
X22498914Y45093642D01*
X19084332Y14841502D02*
X19584332Y15441502D01*
X20084332Y16741502D02*
X20084332Y16341502D01*
X23698914Y45093642D02*
X23752406Y45500391D01*
D16*
X23384332Y23941502D02*
X24184332Y23141502D01*
D15*
X22498914Y45493642D02*
X22898914Y45093642D01*
D16*
X22584332Y23941502D02*
X23384332Y23141502D01*
X24184332Y23941502D02*
X24184332Y23141502D01*
D15*
X23354218Y45491392D02*
X23698914Y45093642D01*
D16*
%TO.N,/1.8v_ina*%
X-15082430Y46587398D02*
X-15082430Y46187398D01*
X-15082430Y47387398D02*
X-15082430Y46987398D01*
X-15282430Y47787398D02*
X-15482430Y47387398D01*
X-15282430Y47787398D02*
X-14882430Y47787398D01*
X-15082430Y46187398D02*
X-14882430Y45787398D01*
X-15682430Y45787398D02*
X-15482430Y46187398D01*
X-15282430Y47787398D02*
X-15682430Y47787398D01*
X-15682430Y45787398D02*
X-15282430Y45787398D01*
X-15982431Y47187397D02*
X-15482430Y47387398D01*
X-14882430Y45787398D02*
X-15282430Y45787398D01*
X-16088879Y47613195D02*
X-15482430Y47387398D01*
X-15682430Y47787398D02*
X-15082430Y47387398D01*
X-15482430Y46987398D02*
X-15082430Y47387398D01*
X-15982431Y47187397D02*
X-15482430Y46987398D01*
X-15482430Y46987398D02*
X-15082430Y46587398D01*
X-16088879Y47613195D02*
X-15682430Y47787398D01*
X-15682430Y45787398D02*
X-15082430Y46187398D01*
X-16088879Y47613195D02*
X-15982431Y47187397D01*
X-15482430Y46187398D02*
X-15082430Y46187398D01*
X-15082430Y46587398D02*
X-15482430Y46187398D01*
X-14882430Y47787398D02*
X-15082430Y47387398D01*
X-15482430Y46587398D02*
X-15082430Y46587398D01*
X-15082430Y46987398D02*
X-15082430Y46587398D01*
X-15482430Y46187398D02*
X-15482430Y47387398D01*
D15*
%TO.N,Net-(U7-LX2)*%
X17684332Y14341502D02*
X17684332Y14741502D01*
X16884332Y14741502D02*
X16884332Y14341502D01*
X16884332Y14741502D02*
X17684332Y14741502D01*
X19384332Y13841502D02*
X18984332Y13841502D01*
X16884332Y14341502D02*
X17684332Y14341502D01*
X16884332Y14741502D02*
X17684332Y14341502D01*
%TO.N,Net-(U7-LX1)*%
X16884332Y12541502D02*
X17684332Y12541502D01*
X17284332Y12141502D02*
X17284332Y12541502D01*
X18984332Y13041502D02*
X19384332Y13041502D01*
X16884332Y12541502D02*
X17684332Y12141502D01*
X16884332Y12141502D02*
X16884332Y12541502D01*
X17684332Y12541502D02*
X17684332Y12141502D01*
X16884332Y12141502D02*
X17684332Y12141502D01*
%TD*%
%TA.AperFunction,Conductor*%
%TO.N,GND*%
G36*
X-15733175Y48118139D02*
G01*
X-15720449Y48087415D01*
X-15733175Y48056691D01*
X-15746785Y48047478D01*
X-15757125Y48043047D01*
X-15765717Y48040378D01*
X-15785851Y48036351D01*
X-15785854Y48036350D01*
X-15804226Y48024047D01*
X-15811773Y48020008D01*
X-15832693Y48011343D01*
X-15838714Y48008078D01*
X-16140829Y47878592D01*
X-16147925Y47876249D01*
X-16151029Y47875514D01*
X-16173028Y47865453D01*
X-16180558Y47862815D01*
X-16204023Y47856948D01*
X-16204029Y47856946D01*
X-16217368Y47847062D01*
X-16226116Y47842038D01*
X-16241380Y47835496D01*
X-16244013Y47833690D01*
X-16244051Y47833669D01*
X-16244085Y47833639D01*
X-16246680Y47831765D01*
X-16263160Y47814045D01*
X-16269109Y47808725D01*
X-16288539Y47794329D01*
X-16288541Y47794327D01*
X-16297084Y47780090D01*
X-16303243Y47772102D01*
X-16314843Y47760215D01*
X-16316582Y47757542D01*
X-16316611Y47757506D01*
X-16316634Y47757459D01*
X-16318312Y47754739D01*
X-16326752Y47732070D01*
X-16330212Y47724877D01*
X-16342660Y47704130D01*
X-16342661Y47704128D01*
X-16345105Y47687708D01*
X-16347737Y47677974D01*
X-16353904Y47662553D01*
X-16354489Y47659410D01*
X-16354501Y47659369D01*
X-16354505Y47659310D01*
X-16355013Y47656165D01*
X-16354136Y47631992D01*
X-16354580Y47624025D01*
X-16358141Y47600094D01*
X-16354114Y47583986D01*
X-16352820Y47573981D01*
X-16352617Y47557379D01*
X-16351958Y47554267D01*
X-16351950Y47554202D01*
X-16351934Y47554153D01*
X-16351199Y47551049D01*
X-16341137Y47529048D01*
X-16338498Y47521515D01*
X-16248591Y47161885D01*
X-16247297Y47150820D01*
X-16247453Y47138033D01*
X-16246850Y47134799D01*
X-16246849Y47134780D01*
X-16246172Y47131587D01*
X-16235170Y47105914D01*
X-16232954Y47099337D01*
X-16226183Y47072252D01*
X-16226182Y47072250D01*
X-16218569Y47061976D01*
X-16213138Y47052246D01*
X-16208388Y47040371D01*
X-16208387Y47040370D01*
X-16206589Y47037605D01*
X-16206584Y47037595D01*
X-16204739Y47034906D01*
X-16184750Y47015400D01*
X-16180185Y47010170D01*
X-16163562Y46987735D01*
X-16152600Y46981158D01*
X-16143857Y46974246D01*
X-16134924Y46965092D01*
X-16132218Y46963236D01*
X-16132217Y46963235D01*
X-16129463Y46961444D01*
X-16129460Y46961443D01*
X-16129457Y46961440D01*
X-16125581Y46959890D01*
X-16101782Y46936665D01*
X-16101375Y46903412D01*
X-16117578Y46883421D01*
X-16155028Y46858398D01*
X-16155030Y46858396D01*
X-16184701Y46813989D01*
X-16207941Y46779207D01*
X-16226521Y46685798D01*
X-16207941Y46592389D01*
X-16184386Y46557136D01*
X-16155030Y46513201D01*
X-16155028Y46513199D01*
X-16138977Y46502474D01*
X-16120502Y46474824D01*
X-16126990Y46442207D01*
X-16138977Y46430220D01*
X-16155027Y46419496D01*
X-16155029Y46419494D01*
X-16185668Y46373638D01*
X-16207940Y46340305D01*
X-16226520Y46246896D01*
X-16207940Y46153487D01*
X-16183511Y46116926D01*
X-16156957Y46077184D01*
X-16155028Y46074298D01*
X-16075839Y46021386D01*
X-15982430Y46002806D01*
X-15946292Y46009995D01*
X-15913677Y46003508D01*
X-15895201Y45975858D01*
X-15901688Y45943241D01*
X-15906177Y45937770D01*
X-15906580Y45937166D01*
X-15915040Y45916742D01*
X-15919079Y45909194D01*
X-15931382Y45890822D01*
X-15931383Y45890820D01*
X-15933613Y45879671D01*
X-15937355Y45868766D01*
X-15942436Y45858603D01*
X-15942437Y45858600D01*
X-15942624Y45855970D01*
X-15945819Y45842433D01*
X-15946830Y45839994D01*
X-15946830Y45817882D01*
X-15947674Y45809361D01*
X-15952010Y45787682D01*
X-15952010Y45787680D01*
X-15949805Y45776531D01*
X-15949089Y45765027D01*
X-15949720Y45756134D01*
X-15949894Y45753681D01*
X-15949060Y45751178D01*
X-15946830Y45737439D01*
X-15946830Y45734807D01*
X-15946831Y45734807D01*
X-15938369Y45714379D01*
X-15935889Y45706187D01*
X-15931597Y45684494D01*
X-15931597Y45684493D01*
X-15931596Y45684492D01*
X-15931596Y45684490D01*
X-15925295Y45675040D01*
X-15920227Y45664680D01*
X-15916632Y45653895D01*
X-15914905Y45651904D01*
X-15907589Y45640068D01*
X-15906578Y45637627D01*
X-15890940Y45621989D01*
X-15885512Y45615367D01*
X-15873253Y45596978D01*
X-15873249Y45596974D01*
X-15863810Y45590653D01*
X-15855164Y45583021D01*
X-15847714Y45574432D01*
X-15847714Y45574431D01*
X-15845361Y45573255D01*
X-15834066Y45565115D01*
X-15832201Y45563250D01*
X-15823195Y45559520D01*
X-15811776Y45554790D01*
X-15804226Y45550749D01*
X-15785856Y45538447D01*
X-15785854Y45538446D01*
X-15774705Y45536217D01*
X-15763801Y45532476D01*
X-15753634Y45527392D01*
X-15751011Y45527206D01*
X-15737456Y45524007D01*
X-15735022Y45522998D01*
X-15712914Y45522998D01*
X-15704394Y45522155D01*
X-15682712Y45517818D01*
X-15671561Y45520025D01*
X-15660058Y45520741D01*
X-15648713Y45519934D01*
X-15646211Y45520769D01*
X-15632470Y45522998D01*
X-15335022Y45522998D01*
X-14932390Y45522998D01*
X-14918650Y45520769D01*
X-14916147Y45519934D01*
X-14874570Y45522890D01*
X-14871490Y45522998D01*
X-14829839Y45522998D01*
X-14829838Y45522998D01*
X-14827409Y45524005D01*
X-14813852Y45527205D01*
X-14811226Y45527391D01*
X-14773944Y45546034D01*
X-14771163Y45547303D01*
X-14732659Y45563250D01*
X-14730797Y45565113D01*
X-14719501Y45573254D01*
X-14718999Y45573506D01*
X-14717147Y45574431D01*
X-14689833Y45605926D01*
X-14687758Y45608153D01*
X-14658282Y45637627D01*
X-14657275Y45640060D01*
X-14649952Y45651908D01*
X-14648229Y45653893D01*
X-14635039Y45693466D01*
X-14633986Y45696287D01*
X-14618030Y45734806D01*
X-14618030Y45737439D01*
X-14615800Y45751178D01*
X-14615731Y45751386D01*
X-14614966Y45753680D01*
X-14617921Y45795258D01*
X-14618030Y45798338D01*
X-14618030Y45839990D01*
X-14618032Y45839994D01*
X-14619038Y45842422D01*
X-14622237Y45855978D01*
X-14622423Y45858600D01*
X-14622423Y45858601D01*
X-14641068Y45895890D01*
X-14642331Y45898659D01*
X-14658282Y45937169D01*
X-14660147Y45939034D01*
X-14668286Y45950327D01*
X-14813443Y46240641D01*
X-14818030Y46260072D01*
X-14818030Y47314724D01*
X-14813443Y47334155D01*
X-14812630Y47335780D01*
X-14810579Y47339882D01*
X-14801580Y47357880D01*
X-14795217Y47370606D01*
X-14777092Y47406856D01*
X-14717819Y47525402D01*
X-14715996Y47529048D01*
X-14703419Y47554202D01*
X-14695512Y47570016D01*
X-14694765Y47571510D01*
X-14692780Y47575480D01*
X-14690893Y47579254D01*
X-14668286Y47624469D01*
X-14660147Y47635762D01*
X-14658282Y47637627D01*
X-14642334Y47676133D01*
X-14641058Y47678926D01*
X-14628456Y47704130D01*
X-14622423Y47716195D01*
X-14622237Y47718821D01*
X-14619036Y47732379D01*
X-14618234Y47734313D01*
X-14618030Y47734806D01*
X-14618030Y47776460D01*
X-14617921Y47779540D01*
X-14617177Y47790012D01*
X-14614966Y47821116D01*
X-14614967Y47821119D01*
X-14615800Y47823620D01*
X-14618030Y47837360D01*
X-14618030Y47839990D01*
X-14625247Y47857413D01*
X-14633980Y47878496D01*
X-14635043Y47881344D01*
X-14648229Y47920903D01*
X-14649957Y47922895D01*
X-14657274Y47934735D01*
X-14658282Y47937169D01*
X-14672601Y47951488D01*
X-14687752Y47966640D01*
X-14689852Y47968894D01*
X-14717146Y48000364D01*
X-14717147Y48000365D01*
X-14719507Y48001546D01*
X-14730794Y48009681D01*
X-14732658Y48011545D01*
X-14732659Y48011546D01*
X-14771150Y48027489D01*
X-14773953Y48028769D01*
X-14813519Y48048552D01*
X-14835308Y48073675D01*
X-14832951Y48106846D01*
X-14807828Y48128635D01*
X-14794088Y48130865D01*
X-10782598Y48130865D01*
X-10782584Y48130864D01*
X-10776162Y48130865D01*
X-10776160Y48130863D01*
X-10751363Y48130865D01*
X-10747109Y48130657D01*
X-10577995Y48114011D01*
X-10569649Y48112352D01*
X-10409077Y48063653D01*
X-10401212Y48060394D01*
X-10356224Y48036350D01*
X-10253241Y47981311D01*
X-10246158Y47976579D01*
X-10116457Y47870145D01*
X-10110434Y47864123D01*
X-10003989Y47734429D01*
X-9999256Y47727346D01*
X-9920162Y47579379D01*
X-9916902Y47571510D01*
X-9868194Y47410952D01*
X-9866532Y47402597D01*
X-9849947Y47234228D01*
X-9849738Y47229969D01*
X-9849738Y19023134D01*
X-9834438Y18986196D01*
X-9806167Y18957925D01*
X-9769229Y18942625D01*
X-9769228Y18942625D01*
X19470752Y18942625D01*
X19470753Y18942625D01*
X19507691Y18957925D01*
X19535962Y18986196D01*
X19551262Y19023134D01*
X19551262Y23088909D01*
X22319931Y23088909D01*
X22340057Y23040323D01*
X22340057Y23040321D01*
X22340058Y23040321D01*
X22360184Y22991731D01*
X22434561Y22917354D01*
X22482706Y22897412D01*
X22531740Y22877101D01*
X22531741Y22877101D01*
X22641979Y22877101D01*
X22641987Y22877102D01*
X23326677Y22877102D01*
X23326685Y22877101D01*
X23331740Y22877101D01*
X23441980Y22877101D01*
X23441988Y22877102D01*
X24126677Y22877102D01*
X24126685Y22877101D01*
X24131740Y22877101D01*
X24236925Y22877101D01*
X24293850Y22900682D01*
X24334103Y22917354D01*
X24408480Y22991731D01*
X24425152Y23031984D01*
X24448733Y23088909D01*
X24448733Y23194094D01*
X24448733Y23197590D01*
X24448732Y23197604D01*
X24448732Y23883847D01*
X24448733Y23883856D01*
X24448733Y23994094D01*
X24448732Y23994096D01*
X24421856Y24058979D01*
X24408480Y24091273D01*
X24334103Y24165650D01*
X24285958Y24185592D01*
X24285957Y24185593D01*
X24285956Y24185593D01*
X24236926Y24205903D01*
X24236925Y24205903D01*
X24131740Y24205903D01*
X24126685Y24205903D01*
X24126677Y24205902D01*
X23441988Y24205902D01*
X23441980Y24205903D01*
X23436925Y24205903D01*
X23331740Y24205903D01*
X23326685Y24205903D01*
X23326677Y24205902D01*
X22641987Y24205902D01*
X22641979Y24205903D01*
X22636924Y24205903D01*
X22531740Y24205903D01*
X22483150Y24185776D01*
X22434561Y24165650D01*
X22434559Y24165649D01*
X22360184Y24091274D01*
X22346808Y24058979D01*
X22346807Y24058978D01*
X22319931Y23994096D01*
X22319931Y23883856D01*
X22319932Y23883847D01*
X22319932Y23197604D01*
X22319931Y23197590D01*
X22319931Y23088909D01*
X19551262Y23088909D01*
X19551262Y40041502D01*
X20240242Y40041502D01*
X20258822Y39948093D01*
X20311734Y39868904D01*
X20390923Y39815992D01*
X20484332Y39797412D01*
X20577741Y39815992D01*
X20656930Y39868904D01*
X20709842Y39948093D01*
X20728422Y40041502D01*
X20709842Y40134911D01*
X20656930Y40214100D01*
X20577741Y40267012D01*
X20484332Y40285592D01*
X20390923Y40267012D01*
X20311734Y40214101D01*
X20311733Y40214100D01*
X20258822Y40134911D01*
X20240242Y40041502D01*
X19551262Y40041502D01*
X19551262Y41941502D01*
X20240242Y41941502D01*
X20258822Y41848093D01*
X20311734Y41768904D01*
X20390923Y41715992D01*
X20484332Y41697412D01*
X20577741Y41715992D01*
X20656930Y41768904D01*
X20709842Y41848093D01*
X20728422Y41941502D01*
X20709842Y42034911D01*
X20656930Y42114100D01*
X20577741Y42167012D01*
X20484332Y42185592D01*
X20390923Y42167012D01*
X20311734Y42114101D01*
X20311733Y42114100D01*
X20266092Y42045791D01*
X20258822Y42034911D01*
X20240242Y41941502D01*
X19551262Y41941502D01*
X19551262Y45279941D01*
X19551472Y45284205D01*
X19553235Y45302085D01*
X19568145Y45453301D01*
X19569807Y45461651D01*
X19572714Y45471233D01*
X20059143Y45471233D01*
X20077723Y45377824D01*
X20095378Y45351401D01*
X20130327Y45299095D01*
X20130635Y45298635D01*
X20209824Y45245723D01*
X20303233Y45227143D01*
X20396642Y45245723D01*
X20475831Y45298635D01*
X20528743Y45377824D01*
X20547323Y45471233D01*
X20528743Y45564642D01*
X20475831Y45643831D01*
X20472209Y45646251D01*
X20436371Y45670197D01*
X20396642Y45696743D01*
X20303233Y45715323D01*
X20209824Y45696743D01*
X20130635Y45643832D01*
X20130634Y45643831D01*
X20081370Y45570100D01*
X20077723Y45564642D01*
X20059143Y45471233D01*
X19572714Y45471233D01*
X19618524Y45622208D01*
X19621774Y45630054D01*
X19700880Y45778039D01*
X19705604Y45785107D01*
X19812042Y45914803D01*
X19818058Y45920820D01*
X19947757Y46027269D01*
X19954825Y46031992D01*
X20102793Y46111097D01*
X20110650Y46114353D01*
X20271213Y46163079D01*
X20279552Y46164738D01*
X20448244Y46181379D01*
X20452509Y46181588D01*
X22328022Y46181588D01*
X22348008Y46181585D01*
X22348008Y46181586D01*
X22348012Y46181585D01*
X22348015Y46181587D01*
X22348023Y46181588D01*
X22348027Y46181588D01*
X22368376Y46190017D01*
X22383596Y46196319D01*
X22385123Y46196889D01*
X22385166Y46196919D01*
X22386625Y46198549D01*
X22402310Y46214233D01*
X23099937Y46911658D01*
X23130659Y46924378D01*
X23161381Y46911647D01*
X23174103Y46880922D01*
X23166781Y46856790D01*
X23144302Y46823147D01*
X23144301Y46823143D01*
X23125721Y46729734D01*
X23144301Y46636325D01*
X23197213Y46557136D01*
X23276402Y46504224D01*
X23369811Y46485644D01*
X23463220Y46504224D01*
X23542409Y46557136D01*
X23595321Y46636325D01*
X23606797Y46694022D01*
X23625272Y46721672D01*
X23657888Y46728160D01*
X23680136Y46716269D01*
X23919848Y46476558D01*
X23932574Y46445834D01*
X23932574Y46334232D01*
X23919848Y46303508D01*
X23859664Y46243324D01*
X23853361Y46238954D01*
X23853693Y46238493D01*
X23850218Y46235994D01*
X23840092Y46225148D01*
X23832476Y46218675D01*
X23820136Y46210429D01*
X23820132Y46210425D01*
X23819487Y46209459D01*
X23809877Y46199182D01*
X23808960Y46198476D01*
X23808959Y46198475D01*
X23803895Y46189673D01*
X23796961Y46180621D01*
X23789778Y46173438D01*
X23787448Y46169951D01*
X23785231Y46166371D01*
X23780028Y46152477D01*
X23775467Y46143579D01*
X23767222Y46131238D01*
X23767221Y46131236D01*
X23766995Y46130099D01*
X23762049Y46116926D01*
X23761471Y46115922D01*
X23760161Y46105847D01*
X23757217Y46094826D01*
X23753333Y46085450D01*
X23752509Y46081304D01*
X23751836Y46077184D01*
X23752346Y46062354D01*
X23751537Y46052386D01*
X23748642Y46037830D01*
X23748642Y46037826D01*
X23748867Y46036694D01*
X23749339Y46022625D01*
X23749190Y46021479D01*
X23749190Y46021474D01*
X23751834Y46011672D01*
X23753333Y46000357D01*
X23753333Y45990210D01*
X23754157Y45986066D01*
X23755112Y45981999D01*
X23761258Y45968496D01*
X23764326Y45958976D01*
X23767222Y45944418D01*
X23767864Y45943457D01*
X23773683Y45930642D01*
X23773984Y45929526D01*
X23773986Y45929522D01*
X23773987Y45929519D01*
X23773988Y45929518D01*
X23780179Y45921476D01*
X23785892Y45911599D01*
X23789777Y45902219D01*
X23792098Y45898745D01*
X23794562Y45895320D01*
X23794563Y45895319D01*
X23794564Y45895317D01*
X23805413Y45885190D01*
X23811887Y45877571D01*
X23820130Y45865234D01*
X23820135Y45865229D01*
X23821097Y45864586D01*
X23831379Y45854972D01*
X23832082Y45854059D01*
X23832084Y45854058D01*
X23832086Y45854055D01*
X23840883Y45848995D01*
X23849936Y45842061D01*
X23857123Y45834874D01*
X23857125Y45834873D01*
X23860685Y45832494D01*
X23860369Y45832022D01*
X23866816Y45827872D01*
X23911244Y45786402D01*
X23925020Y45756134D01*
X23913359Y45724991D01*
X23883091Y45711215D01*
X23867039Y45713700D01*
X23865796Y45714142D01*
X23856215Y45718953D01*
X23845816Y45725901D01*
X23845813Y45725902D01*
X23844883Y45726087D01*
X23831652Y45731066D01*
X23830834Y45731538D01*
X23819978Y45732966D01*
X23809182Y45735834D01*
X23799047Y45739984D01*
X23794848Y45740801D01*
X23794888Y45741008D01*
X23792096Y45741485D01*
X23792066Y45741274D01*
X23787830Y45741896D01*
X23775347Y45741263D01*
X23764674Y45742042D01*
X23752410Y45744481D01*
X23752400Y45744481D01*
X23751469Y45744296D01*
X23737345Y45743833D01*
X23736410Y45743956D01*
X23736404Y45743956D01*
X23725830Y45741121D01*
X23714758Y45739640D01*
X22910288Y45736356D01*
X22901634Y45737191D01*
X22898914Y45737732D01*
X22898912Y45737732D01*
X22895718Y45737097D01*
X22887424Y45736263D01*
X22518328Y45734757D01*
X22509676Y45735592D01*
X22498916Y45737732D01*
X22498913Y45737732D01*
X22487344Y45735431D01*
X22479045Y45734596D01*
X22126371Y45733157D01*
X22117718Y45733992D01*
X22098915Y45737732D01*
X22098913Y45737732D01*
X22079534Y45733877D01*
X22071057Y45733042D01*
X22051275Y45733042D01*
X22050883Y45732962D01*
X22050640Y45732914D01*
X22050331Y45732854D01*
X22032623Y45725434D01*
X22024313Y45722894D01*
X22005504Y45719152D01*
X22005502Y45719151D01*
X21989072Y45708173D01*
X21981561Y45704158D01*
X21963300Y45696595D01*
X21963208Y45696532D01*
X21963019Y45696405D01*
X21962490Y45696053D01*
X21948972Y45682425D01*
X21942267Y45676899D01*
X21926317Y45666241D01*
X21926315Y45666239D01*
X21915336Y45649809D01*
X21909936Y45643229D01*
X21895953Y45629245D01*
X21895906Y45629173D01*
X21895780Y45628983D01*
X21895418Y45628443D01*
X21895409Y45628421D01*
X21888139Y45610669D01*
X21884065Y45603009D01*
X21880035Y45596976D01*
X21873403Y45587050D01*
X21869547Y45567666D01*
X21867075Y45559520D01*
X21859510Y45541256D01*
X21859458Y45540986D01*
X21859427Y45540829D01*
X21859322Y45540301D01*
X21859399Y45521105D01*
X21858565Y45512458D01*
X21854824Y45493642D01*
X21858679Y45474262D01*
X21859514Y45465785D01*
X21859514Y45121500D01*
X21858679Y45113024D01*
X21854824Y45093643D01*
X21854824Y45093642D01*
X21858679Y45074262D01*
X21859514Y45065785D01*
X21859514Y45046022D01*
X21865919Y45030557D01*
X21867076Y45027764D01*
X21869547Y45019618D01*
X21873404Y45000233D01*
X21873404Y45000232D01*
X21884384Y44983798D01*
X21888397Y44976290D01*
X21895960Y44958035D01*
X21895960Y44958034D01*
X21909932Y44944062D01*
X21915336Y44937477D01*
X21926315Y44921045D01*
X21942748Y44910065D01*
X21949333Y44904661D01*
X21963305Y44890689D01*
X21981563Y44883126D01*
X21989065Y44879117D01*
X22005505Y44868132D01*
X22024888Y44864277D01*
X22033026Y44861809D01*
X22049475Y44854996D01*
X22072989Y44831482D01*
X22072990Y44798227D01*
X22054573Y44777226D01*
X21898233Y44686958D01*
X21750725Y44563183D01*
X21750722Y44563181D01*
X21626952Y44415686D01*
X21576108Y44327630D01*
X21539749Y44264661D01*
X21530667Y44248933D01*
X21464795Y44067995D01*
X21464794Y44067992D01*
X21431340Y43878379D01*
X21431332Y43805592D01*
X21431330Y43805562D01*
X21431330Y43782101D01*
X21431326Y43749284D01*
X21431330Y43749255D01*
X21431330Y29099972D01*
X21431330Y29059990D01*
X21446630Y29023052D01*
X21474901Y28994781D01*
X21511839Y28979481D01*
X24249008Y28979481D01*
X24253266Y28979273D01*
X24422374Y28962615D01*
X24430721Y28960954D01*
X24591278Y28912247D01*
X24599141Y28908990D01*
X24747104Y28829901D01*
X24754186Y28825169D01*
X24883877Y28718734D01*
X24889900Y28712712D01*
X24996334Y28583023D01*
X25001066Y28575941D01*
X25080157Y28427976D01*
X25083417Y28420106D01*
X25132121Y28259559D01*
X25133783Y28251206D01*
X25150437Y28082143D01*
X25150646Y28077877D01*
X25147974Y8685420D01*
X25147974Y8685419D01*
X25147973Y8679580D01*
X25147895Y8676990D01*
X25134593Y8454796D01*
X25133976Y8449653D01*
X25094552Y8231892D01*
X25093327Y8226858D01*
X25028264Y8015331D01*
X25026448Y8010479D01*
X24936677Y7808213D01*
X24934297Y7803611D01*
X24821084Y7613460D01*
X24818173Y7609175D01*
X24682378Y7432870D01*
X24680735Y7430864D01*
X24678707Y7428534D01*
X24678708Y7428533D01*
X16537662Y-1929134D01*
X16537657Y-1929141D01*
X16526363Y-1942123D01*
X16523817Y-1944810D01*
X16417481Y-2047782D01*
X16411730Y-2052469D01*
X16290975Y-2134792D01*
X16284510Y-2138433D01*
X16151505Y-2199014D01*
X16144515Y-2201501D01*
X16003151Y-2238567D01*
X15995840Y-2239829D01*
X15848288Y-2252472D01*
X15844579Y-2252631D01*
X7491305Y-2252631D01*
X7451323Y-2252631D01*
X7432854Y-2260281D01*
X7414384Y-2267931D01*
X7386114Y-2296201D01*
X7370814Y-2333140D01*
X7370814Y-2516396D01*
X7358088Y-2547120D01*
X7343991Y-2556539D01*
X7220327Y-2607761D01*
X7097206Y-2702235D01*
X7097203Y-2702238D01*
X7002729Y-2825359D01*
X6943341Y-2968739D01*
X6943338Y-2968747D01*
X6928170Y-3083965D01*
X6928170Y-3204752D01*
X6915444Y-3235476D01*
X6884720Y-3248202D01*
X6732861Y-3248202D01*
X6728556Y-3247988D01*
X6691433Y-3244292D01*
X6691432Y-3244292D01*
X6684643Y-3246344D01*
X6672074Y-3248202D01*
X6664976Y-3248202D01*
X6630513Y-3262476D01*
X6626455Y-3263926D01*
X6281140Y-3368273D01*
X6273809Y-3369813D01*
X6248054Y-3372939D01*
X6243991Y-3374273D01*
X6243955Y-3374165D01*
X6240219Y-3375487D01*
X6240260Y-3375594D01*
X6236261Y-3377115D01*
X6226648Y-3383140D01*
X6216145Y-3387914D01*
X6205294Y-3391193D01*
X6205293Y-3391193D01*
X6185217Y-3407633D01*
X6179034Y-3411861D01*
X6156437Y-3424604D01*
X6153191Y-3427394D01*
X6153117Y-3427308D01*
X6150170Y-3429961D01*
X6150248Y-3430044D01*
X6147134Y-3432980D01*
X6140562Y-3442221D01*
X6132687Y-3450650D01*
X6123913Y-3457835D01*
X6123912Y-3457836D01*
X6111657Y-3480705D01*
X6107562Y-3486979D01*
X6091560Y-3507401D01*
X6089630Y-3511218D01*
X6089529Y-3511167D01*
X6087821Y-3514747D01*
X6087924Y-3514793D01*
X6086172Y-3518695D01*
X6083637Y-3529747D01*
X6079587Y-3540550D01*
X6074229Y-3550548D01*
X6071658Y-3576364D01*
X6070276Y-3583725D01*
X6063308Y-3608720D01*
X6062985Y-3612987D01*
X6062869Y-3612978D01*
X6062374Y-3622433D01*
X5900625Y-4327495D01*
X5897466Y-4334866D01*
X5897942Y-4335061D01*
X5895878Y-4340106D01*
X5892320Y-4346980D01*
X5872087Y-4378775D01*
X5845754Y-4397654D01*
X5798292Y-4409264D01*
X5765424Y-4404202D01*
X5764812Y-4403823D01*
X5697121Y-4361189D01*
X5693270Y-4358461D01*
X5665183Y-4336175D01*
X5665184Y-4336175D01*
X5656928Y-4333818D01*
X5645703Y-4328804D01*
X5638441Y-4324230D01*
X5603114Y-4318189D01*
X5598517Y-4317143D01*
X5583837Y-4312953D01*
X5564039Y-4307301D01*
X5555506Y-4308283D01*
X5543219Y-4307947D01*
X5534758Y-4306500D01*
X5499810Y-4314437D01*
X5495160Y-4315231D01*
X5459544Y-4319333D01*
X5459542Y-4319334D01*
X5452042Y-4323503D01*
X5440561Y-4327894D01*
X5432188Y-4329796D01*
X5432187Y-4329796D01*
X5402936Y-4350504D01*
X5398942Y-4353018D01*
X5367609Y-4370435D01*
X5367604Y-4370440D01*
X5362267Y-4377165D01*
X5353343Y-4385614D01*
X5346337Y-4390574D01*
X5327235Y-4420902D01*
X5324508Y-4424751D01*
X5302226Y-4452833D01*
X5299870Y-4461086D01*
X5294857Y-4472311D01*
X5290281Y-4479575D01*
X5284239Y-4514907D01*
X5283192Y-4519509D01*
X5101359Y-5156483D01*
X5095587Y-5168871D01*
X5083403Y-5186915D01*
X5055663Y-5205256D01*
X5023079Y-5198609D01*
X5004738Y-5170869D01*
X5005241Y-5152062D01*
X5028177Y-5060320D01*
X5060316Y-4931758D01*
X5062882Y-4924388D01*
X5063213Y-4923653D01*
X5063217Y-4923649D01*
X5069374Y-4897134D01*
X5071551Y-4890346D01*
X5081971Y-4865194D01*
X5081971Y-4850496D01*
X5083268Y-4839958D01*
X5086831Y-4825706D01*
X5126813Y-4665776D01*
X5162964Y-4521167D01*
X5167857Y-4509357D01*
X5171350Y-4503537D01*
X5176887Y-4466322D01*
X5177710Y-4462189D01*
X5186830Y-4425710D01*
X5186831Y-4425704D01*
X5185833Y-4418999D01*
X5185833Y-4406203D01*
X5186831Y-4399498D01*
X5186830Y-4399492D01*
X5177710Y-4363013D01*
X5176885Y-4358868D01*
X5171350Y-4321666D01*
X5167858Y-4315847D01*
X5162963Y-4304027D01*
X5162471Y-4302058D01*
X5161320Y-4297454D01*
X5138932Y-4267239D01*
X5136589Y-4263731D01*
X5117234Y-4231472D01*
X5117233Y-4231471D01*
X5111779Y-4227430D01*
X5102736Y-4218387D01*
X5098700Y-4212939D01*
X5083392Y-4203754D01*
X5066456Y-4193592D01*
X5062945Y-4191246D01*
X5032718Y-4168850D01*
X5030903Y-4167993D01*
X5029555Y-4166507D01*
X5029281Y-4166304D01*
X5029321Y-4166249D01*
X5008560Y-4143362D01*
X5010178Y-4110146D01*
X5013331Y-4104576D01*
X5056526Y-4039931D01*
X5075106Y-3946522D01*
X5056526Y-3853113D01*
X5003976Y-3774466D01*
X4997489Y-3741851D01*
X5015963Y-3714202D01*
X5073049Y-3676059D01*
X5125961Y-3596870D01*
X5144541Y-3503461D01*
X5125961Y-3410052D01*
X5073049Y-3330863D01*
X4993860Y-3277951D01*
X4900451Y-3259371D01*
X4807042Y-3277951D01*
X4727853Y-3330862D01*
X4727850Y-3330865D01*
X4726833Y-3332388D01*
X4725311Y-3333404D01*
X4724827Y-3333889D01*
X4724730Y-3333792D01*
X4699181Y-3350861D01*
X4666565Y-3344370D01*
X4650416Y-3324507D01*
X4646765Y-3315461D01*
X4644394Y-3307430D01*
X4640074Y-3285040D01*
X4635396Y-3277951D01*
X4632723Y-3273900D01*
X4627879Y-3264036D01*
X4623561Y-3251418D01*
X4623333Y-3251025D01*
X4616200Y-3239467D01*
X4615935Y-3239063D01*
X4599959Y-3222792D01*
X4594698Y-3216284D01*
X4582136Y-3197250D01*
X4577098Y-3193842D01*
X4571082Y-3189772D01*
X4562833Y-3182514D01*
X4554009Y-3172502D01*
X4553643Y-3172223D01*
X4542612Y-3164262D01*
X4542243Y-3164011D01*
X4521251Y-3155090D01*
X4513903Y-3151091D01*
X4495014Y-3138314D01*
X4495013Y-3138313D01*
X4495012Y-3138313D01*
X4481939Y-3135634D01*
X4471543Y-3132086D01*
X4459563Y-3126215D01*
X4459170Y-3126111D01*
X4445879Y-3122965D01*
X4445432Y-3122871D01*
X4422635Y-3122663D01*
X4414314Y-3121781D01*
X4391967Y-3117203D01*
X4378864Y-3119732D01*
X4367897Y-3120433D01*
X3991947Y-3096723D01*
X3978927Y-3093852D01*
X3974473Y-3092119D01*
X3974470Y-3092118D01*
X3972240Y-3092167D01*
X3958350Y-3090200D01*
X3956159Y-3089515D01*
X3955130Y-3089416D01*
X3954694Y-3089372D01*
X3953598Y-3089254D01*
X3926214Y-3092001D01*
X3919145Y-3092132D01*
X3893560Y-3090519D01*
X3891745Y-3090405D01*
X3891744Y-3090405D01*
X3891740Y-3090405D01*
X3887217Y-3091953D01*
X3874099Y-3094282D01*
X3869312Y-3094386D01*
X3869309Y-3094386D01*
X3867266Y-3095285D01*
X3853685Y-3098782D01*
X3315890Y-3147280D01*
X3309654Y-3147393D01*
X3279255Y-3145757D01*
X3279250Y-3145758D01*
X3274104Y-3147572D01*
X3261192Y-3150015D01*
X3255741Y-3150206D01*
X3254215Y-3150566D01*
X3254046Y-3150590D01*
X3253681Y-3150684D01*
X3252891Y-3150878D01*
X3252445Y-3150982D01*
X3252271Y-3151044D01*
X3246626Y-3152490D01*
X3246516Y-3152062D01*
X3245425Y-3152362D01*
X3245550Y-3152785D01*
X3241441Y-3153994D01*
X3214476Y-3168121D01*
X3208764Y-3170610D01*
X3180053Y-3180734D01*
X3175994Y-3184379D01*
X3164995Y-3191579D01*
X3160032Y-3193841D01*
X3158778Y-3194745D01*
X3158625Y-3194836D01*
X3158257Y-3195112D01*
X3157640Y-3195565D01*
X3157271Y-3195830D01*
X3157136Y-3195952D01*
X3152478Y-3199443D01*
X3152216Y-3199093D01*
X3151325Y-3199786D01*
X3151600Y-3200126D01*
X3148273Y-3202810D01*
X3128763Y-3226188D01*
X3124434Y-3230676D01*
X3101790Y-3251008D01*
X3099435Y-3255927D01*
X3092028Y-3266789D01*
X2822591Y-3555814D01*
X2812133Y-3564043D01*
X2807895Y-3566429D01*
X2807892Y-3566432D01*
X2783676Y-3597295D01*
X2781227Y-3600152D01*
X2754416Y-3628818D01*
X2754182Y-3629197D01*
X2752477Y-3633758D01*
X2745969Y-3645354D01*
X2742963Y-3649186D01*
X2742962Y-3649188D01*
X2732397Y-3686978D01*
X2731227Y-3690558D01*
X2585539Y-4078405D01*
X2579625Y-4089194D01*
X2574494Y-4096034D01*
X2574494Y-4096035D01*
X2571352Y-4108296D01*
X2567211Y-4118671D01*
X2561043Y-4129729D01*
X2561042Y-4129731D01*
X2559309Y-4144598D01*
X2556827Y-4154842D01*
X2551563Y-4168855D01*
X2551562Y-4168861D01*
X2551847Y-4177413D01*
X2550512Y-4189640D01*
X2548389Y-4197926D01*
X2548389Y-4197928D01*
X2550179Y-4210460D01*
X2550323Y-4221635D01*
X2548857Y-4234207D01*
X2552945Y-4248610D01*
X2554572Y-4259022D01*
X2555072Y-4273988D01*
X2558606Y-4281776D01*
X2562052Y-4293582D01*
X2563263Y-4302058D01*
X2563264Y-4302059D01*
X2569714Y-4312953D01*
X2574123Y-4323221D01*
X2575060Y-4326520D01*
X2577429Y-4334866D01*
X2577579Y-4335392D01*
X2586746Y-4346980D01*
X2586868Y-4347134D01*
X2592356Y-4356133D01*
X2598544Y-4369768D01*
X2604790Y-4375610D01*
X2612496Y-4385205D01*
X2616853Y-4392564D01*
X2616856Y-4392567D01*
X2626980Y-4400160D01*
X2634987Y-4407964D01*
X2639478Y-4413641D01*
X2642837Y-4417887D01*
X2655913Y-4425181D01*
X2664427Y-4431394D01*
X2675363Y-4441623D01*
X2683370Y-4444630D01*
X2694160Y-4450545D01*
X2877438Y-4588003D01*
X2894381Y-4616618D01*
X2886128Y-4648833D01*
X2857513Y-4665776D01*
X2827595Y-4659133D01*
X-599218Y-2419261D01*
X-599706Y-2418842D01*
X-605605Y-2415008D01*
X-626473Y-2401445D01*
X-627029Y-2401077D01*
X-1192749Y-2019434D01*
X-1193971Y-2018578D01*
X-1222855Y-1997614D01*
X5933807Y-1997614D01*
X5952387Y-2091023D01*
X6005299Y-2170212D01*
X6084488Y-2223124D01*
X6177897Y-2241704D01*
X6271306Y-2223124D01*
X6350495Y-2170212D01*
X6403407Y-2091023D01*
X6421987Y-1997614D01*
X6403407Y-1904205D01*
X6350495Y-1825016D01*
X6271306Y-1772104D01*
X6177897Y-1753524D01*
X6084488Y-1772104D01*
X6005299Y-1825015D01*
X6005298Y-1825016D01*
X5959507Y-1893549D01*
X5952387Y-1904205D01*
X5933807Y-1997614D01*
X-1222855Y-1997614D01*
X-1604039Y-1720952D01*
X7334577Y-1720952D01*
X7353157Y-1814361D01*
X7406069Y-1893550D01*
X7485258Y-1946462D01*
X7578667Y-1965042D01*
X7672076Y-1946462D01*
X7751265Y-1893550D01*
X7764781Y-1873321D01*
X7792430Y-1854846D01*
X7825047Y-1861333D01*
X7837036Y-1873323D01*
X7844970Y-1885198D01*
X7844971Y-1885199D01*
X7844972Y-1885200D01*
X7924161Y-1938112D01*
X8017570Y-1956692D01*
X8110979Y-1938112D01*
X8190168Y-1885200D01*
X8243080Y-1806011D01*
X8261660Y-1712602D01*
X8243080Y-1619193D01*
X8190168Y-1540004D01*
X8110979Y-1487092D01*
X8017570Y-1468512D01*
X7924161Y-1487092D01*
X7844972Y-1540003D01*
X7844969Y-1540006D01*
X7831454Y-1560232D01*
X7803803Y-1578706D01*
X7771187Y-1572217D01*
X7759200Y-1560230D01*
X7751264Y-1548353D01*
X7724987Y-1530795D01*
X7672076Y-1495442D01*
X7578667Y-1476862D01*
X7485258Y-1495442D01*
X7406069Y-1548353D01*
X7406068Y-1548354D01*
X7360128Y-1617110D01*
X7353157Y-1627543D01*
X7334577Y-1720952D01*
X-1604039Y-1720952D01*
X-1732737Y-1627543D01*
X-1745890Y-1617996D01*
X-1747055Y-1617120D01*
X-2284935Y-1197787D01*
X-2286094Y-1196851D01*
X-2809220Y-759324D01*
X-2810348Y-758347D01*
X-3318139Y-303115D01*
X-3319233Y-302100D01*
X-3811590Y170781D01*
X-3812123Y171302D01*
X-3830646Y189714D01*
X-3830739Y189806D01*
X-3830786Y189853D01*
X-3830786Y189854D01*
X-9865969Y6188909D01*
X-9380069Y6188909D01*
X-9339817Y6091733D01*
X-9339815Y6091731D01*
X-9039817Y5791733D01*
X-9039816Y5791731D01*
X-8965439Y5717354D01*
X-8965438Y5717354D01*
X-8739817Y5491733D01*
X-8739816Y5491731D01*
X-8665439Y5417354D01*
X-8665438Y5417354D01*
X-8439817Y5191733D01*
X-8439816Y5191731D01*
X-8365439Y5117354D01*
X-8365438Y5117354D01*
X-8139817Y4891733D01*
X-8139816Y4891731D01*
X-8065439Y4817354D01*
X-8065438Y4817354D01*
X-7839817Y4591733D01*
X-7839816Y4591731D01*
X-7765439Y4517354D01*
X-7717294Y4497412D01*
X-7668260Y4477101D01*
X-7668259Y4477101D01*
X-7563077Y4477101D01*
X-7563076Y4477101D01*
X-7514042Y4497412D01*
X-7465897Y4517354D01*
X-7391520Y4591731D01*
X-7391520Y4591733D01*
X-7165899Y4817354D01*
X-7165897Y4817354D01*
X-7091520Y4891731D01*
X-7091520Y4891733D01*
X-6865899Y5117354D01*
X-6865897Y5117354D01*
X-6791520Y5191731D01*
X-6791520Y5191733D01*
X-6491521Y5491731D01*
X-6451267Y5588909D01*
X-6451267Y5694094D01*
X-6460902Y5717354D01*
X-6491520Y5791272D01*
X-6791520Y6091272D01*
X-6791520Y6091273D01*
X-6865897Y6165650D01*
X-6865899Y6165651D01*
X-7091520Y6391272D01*
X-7091520Y6391273D01*
X-7165897Y6465650D01*
X-7165899Y6465651D01*
X-7391520Y6691272D01*
X-7391520Y6691273D01*
X-7465897Y6765650D01*
X-7465899Y6765651D01*
X-7691520Y6991272D01*
X-7691520Y6991273D01*
X-7765897Y7065650D01*
X-7765899Y7065651D01*
X-7991520Y7291272D01*
X-7991520Y7291273D01*
X-8065897Y7365650D01*
X-8114487Y7385776D01*
X-8114487Y7385777D01*
X-8114489Y7385777D01*
X-8163075Y7405903D01*
X-8163076Y7405903D01*
X-8268261Y7405903D01*
X-8268263Y7405903D01*
X-8317293Y7385593D01*
X-8317294Y7385592D01*
X-8365439Y7365650D01*
X-8365441Y7365649D01*
X-9039817Y6691272D01*
X-9265439Y6465649D01*
X-9339817Y6391272D01*
X-9380069Y6294096D01*
X-9380069Y6188909D01*
X-9865969Y6188909D01*
X-12352434Y8660489D01*
X-9432980Y8660489D01*
X-9432948Y8660255D01*
X-9432923Y8660066D01*
X-9432913Y8659987D01*
X-9415928Y8610319D01*
X-9415947Y8610313D01*
X-9415902Y8610241D01*
X-9399135Y8560900D01*
X-9398952Y8560586D01*
X-9398906Y8560507D01*
X-9398877Y8560456D01*
X-9398876Y8560455D01*
X-9364188Y8521080D01*
X-9356942Y8512823D01*
X-9327343Y8479093D01*
X-9326538Y8478342D01*
X-9171139Y8301942D01*
X-9165700Y8295769D01*
X-9161070Y8288160D01*
X-9160845Y8288302D01*
X-9158548Y8284696D01*
X-9126605Y8251335D01*
X-9125385Y8250007D01*
X-9094829Y8215321D01*
X-9091428Y8212723D01*
X-9091590Y8212512D01*
X-9089462Y8210955D01*
X-9089308Y8211173D01*
X-9085807Y8208722D01*
X-9043514Y8190116D01*
X-9041880Y8189356D01*
X-9000387Y8169009D01*
X-8996248Y8167910D01*
X-8996317Y8167651D01*
X-8993761Y8167028D01*
X-8993702Y8167291D01*
X-8989529Y8166367D01*
X-8989525Y8166365D01*
X-8943302Y8165361D01*
X-8941561Y8165287D01*
X-8908080Y8163167D01*
X-8895415Y8162365D01*
X-8895414Y8162366D01*
X-8895411Y8162365D01*
X-8895409Y8162366D01*
X-8891170Y8162934D01*
X-8891135Y8162668D01*
X-8888535Y8163072D01*
X-8888581Y8163336D01*
X-8884369Y8164080D01*
X-8884365Y8164079D01*
X-8841310Y8180828D01*
X-8839633Y8181440D01*
X-8795884Y8196400D01*
X-8795881Y8196404D01*
X-8792182Y8198549D01*
X-8792047Y8198316D01*
X-8789804Y8199681D01*
X-8789948Y8199908D01*
X-8786340Y8202210D01*
X-8786334Y8202211D01*
X-8752969Y8234158D01*
X-8751645Y8235374D01*
X-8716958Y8265930D01*
X-8716956Y8265936D01*
X-8714359Y8269333D01*
X-8714147Y8269171D01*
X-8708892Y8276359D01*
X-8455400Y8519064D01*
X-8454043Y8520307D01*
X-8419609Y8550435D01*
X-8419608Y8550438D01*
X-8419607Y8550438D01*
X-8416999Y8553829D01*
X-8416868Y8553728D01*
X-8414778Y8556574D01*
X-8414914Y8556669D01*
X-8412461Y8560175D01*
X-8412458Y8560177D01*
X-8394052Y8602018D01*
X-8393243Y8603751D01*
X-8372981Y8644720D01*
X-8372981Y8644728D01*
X-8371869Y8648854D01*
X-8371710Y8648812D01*
X-8370867Y8652246D01*
X-8371028Y8652281D01*
X-8370105Y8656452D01*
X-8370102Y8656457D01*
X-8369109Y8702179D01*
X-8369026Y8704054D01*
X-8365984Y8749672D01*
X-8365984Y8749673D01*
X-8366538Y8753914D01*
X-8366375Y8753936D01*
X-8366911Y8757430D01*
X-8367073Y8757401D01*
X-8367817Y8761610D01*
X-8367816Y8761617D01*
X-8384383Y8804205D01*
X-8385046Y8806031D01*
X-8386725Y8810996D01*
X-8399684Y8849313D01*
X-8399685Y8849314D01*
X-8399685Y8849315D01*
X-8401819Y8853021D01*
X-8401678Y8853103D01*
X-8403513Y8856129D01*
X-8403650Y8856041D01*
X-8405949Y8859650D01*
X-8437542Y8892646D01*
X-8438858Y8894083D01*
X-8542119Y9012096D01*
X-8618734Y9099657D01*
X-8619219Y9100334D01*
X-8656279Y9142565D01*
X-8690789Y9182005D01*
X-8690790Y9182006D01*
X-8690791Y9182007D01*
X-8690875Y9182071D01*
X-8690960Y9182137D01*
X-8691095Y9182241D01*
X-8737784Y9205247D01*
X-8737778Y9205260D01*
X-8737840Y9205275D01*
X-8785074Y9228634D01*
X-8785076Y9228635D01*
X-8785440Y9228734D01*
X-8837594Y9232135D01*
X-8837625Y9232151D01*
X-8837655Y9232139D01*
X-8890033Y9235631D01*
X-8890409Y9235582D01*
X-8927514Y9222973D01*
X-8940373Y9218603D01*
X-8940393Y9218597D01*
X-8940431Y9218584D01*
X-8989678Y9201928D01*
X-8989814Y9201848D01*
X-8989995Y9201745D01*
X-9029491Y9167085D01*
X-9029537Y9167045D01*
X-9071674Y9130175D01*
X-9072241Y9129570D01*
X-9297410Y8931974D01*
X-9298307Y8931328D01*
X-9340335Y8894305D01*
X-9340396Y8894252D01*
X-9379650Y8859804D01*
X-9379737Y8859688D01*
X-9379885Y8859494D01*
X-9379951Y8859409D01*
X-9379956Y8859400D01*
X-9379956Y8859399D01*
X-9401156Y8816166D01*
X-9403087Y8812229D01*
X-9403123Y8812156D01*
X-9426138Y8765447D01*
X-9426207Y8765184D01*
X-9426268Y8764961D01*
X-9429583Y8712572D01*
X-9429588Y8712489D01*
X-9432980Y8660489D01*
X-12352434Y8660489D01*
X-13251914Y9554585D01*
X-6964502Y9554585D01*
X-6958280Y9511405D01*
X-6957992Y9508888D01*
X-6918655Y9045921D01*
X-6918651Y9038613D01*
X-6920874Y9012099D01*
X-6920874Y9012096D01*
X-6920742Y9011685D01*
X-6918699Y8997321D01*
X-6918711Y8996878D01*
X-6915488Y8988471D01*
X-6912765Y8976599D01*
X-6912003Y8967631D01*
X-6912003Y8967630D01*
X-6912002Y8967628D01*
X-6901896Y8948094D01*
X-6899774Y8943993D01*
X-6896975Y8937244D01*
X-6888882Y8911898D01*
X-6888879Y8911892D01*
X-6888600Y8911562D01*
X-6881216Y8899073D01*
X-6881059Y8898665D01*
X-6874864Y8892131D01*
X-6867806Y8882205D01*
X-6863667Y8874206D01*
X-6843327Y8857052D01*
X-6838160Y8851891D01*
X-6820977Y8831563D01*
X-6820590Y8831363D01*
X-6808986Y8822650D01*
X-6808688Y8822335D01*
X-6800467Y8818671D01*
X-6790144Y8812199D01*
X-6783262Y8806394D01*
X-6783261Y8806394D01*
X-6783260Y8806393D01*
X-6757894Y8798326D01*
X-6751148Y8795536D01*
X-6727500Y8783334D01*
X-6727078Y8783299D01*
X-6713012Y8779686D01*
X-6712616Y8779509D01*
X-6703615Y8779270D01*
X-6691605Y8777242D01*
X-6683023Y8774512D01*
X-6656499Y8776767D01*
X-6649201Y8776770D01*
X-6188295Y8738132D01*
X-6184770Y8737495D01*
X-6182505Y8737320D01*
X-6182504Y8737319D01*
X-6170561Y8736394D01*
X-6168091Y8736202D01*
X-6157621Y8734074D01*
X-6143911Y8729472D01*
X-6114900Y8731473D01*
X-6108290Y8731425D01*
X-6079315Y8728995D01*
X-6079314Y8728996D01*
X-6079294Y8728994D01*
X-6078717Y8729062D01*
X-6078464Y8729091D01*
X-6077659Y8729183D01*
X-6077635Y8729192D01*
X-6077633Y8729191D01*
X-6063889Y8733676D01*
X-6053410Y8735714D01*
X-5639179Y8764283D01*
X-5633672Y8764312D01*
X-5600683Y8762394D01*
X-5589878Y8766152D01*
X-5578595Y8768460D01*
X-5567189Y8769246D01*
X-5537610Y8783960D01*
X-5532545Y8786091D01*
X-5501333Y8796943D01*
X-5492792Y8804546D01*
X-5483250Y8810996D01*
X-5480457Y8812386D01*
X-5473010Y8816089D01*
X-5451299Y8841018D01*
X-5447449Y8844910D01*
X-5422767Y8866879D01*
X-5417788Y8877169D01*
X-5411444Y8886778D01*
X-5403926Y8895407D01*
X-5393415Y8926728D01*
X-5391339Y8931819D01*
X-5376944Y8961558D01*
X-5376281Y8972977D01*
X-5374095Y8984286D01*
X-5372690Y8988471D01*
X-5370456Y8995125D01*
X-5372730Y9028074D01*
X-5372759Y9033583D01*
X-5372299Y9041502D01*
X-5159758Y9041502D01*
X-5141178Y8948093D01*
X-5105976Y8895409D01*
X-5097154Y8882205D01*
X-5088266Y8868904D01*
X-5009077Y8815992D01*
X-4915668Y8797412D01*
X-4822259Y8815992D01*
X-4743070Y8868904D01*
X-4690158Y8948093D01*
X-4671578Y9041502D01*
X-1759758Y9041502D01*
X-1741178Y8948093D01*
X-1705976Y8895409D01*
X-1697154Y8882205D01*
X-1688266Y8868904D01*
X-1609077Y8815992D01*
X-1515668Y8797412D01*
X-1422259Y8815992D01*
X-1343070Y8868904D01*
X-1290158Y8948093D01*
X-1271578Y9041502D01*
X-1290158Y9134911D01*
X-1343070Y9214100D01*
X-1343076Y9214104D01*
X-1369348Y9231659D01*
X-1422259Y9267012D01*
X-1515668Y9285592D01*
X-1609077Y9267012D01*
X-1688266Y9214101D01*
X-1688267Y9214100D01*
X-1736032Y9142612D01*
X-1741178Y9134911D01*
X-1759758Y9041502D01*
X-4671578Y9041502D01*
X-4690158Y9134911D01*
X-4743070Y9214100D01*
X-4743076Y9214104D01*
X-4775294Y9235631D01*
X-4804843Y9255375D01*
X-4823318Y9283025D01*
X-4816831Y9315641D01*
X-4804844Y9327629D01*
X-4743070Y9368904D01*
X-4690158Y9448093D01*
X-4671578Y9541502D01*
X-4690158Y9634911D01*
X-4743070Y9714100D01*
X-4750453Y9719033D01*
X-4769348Y9731659D01*
X-4822259Y9767012D01*
X-4915668Y9785592D01*
X-5009077Y9767012D01*
X-5088266Y9714101D01*
X-5088267Y9714100D01*
X-5126664Y9656633D01*
X-5141178Y9634911D01*
X-5159758Y9541502D01*
X-5141178Y9448093D01*
X-5137196Y9442134D01*
X-5088267Y9368905D01*
X-5088263Y9368901D01*
X-5026495Y9327629D01*
X-5008019Y9299979D01*
X-5014507Y9267363D01*
X-5026495Y9255375D01*
X-5088263Y9214104D01*
X-5088267Y9214100D01*
X-5136032Y9142612D01*
X-5141178Y9134911D01*
X-5159758Y9041502D01*
X-5372299Y9041502D01*
X-5370841Y9066566D01*
X-5374601Y9077376D01*
X-5376907Y9088656D01*
X-5377693Y9100059D01*
X-5377830Y9100334D01*
X-5385359Y9115472D01*
X-5392409Y9129648D01*
X-5394542Y9134718D01*
X-5405390Y9165916D01*
X-5406494Y9167156D01*
X-5412991Y9174456D01*
X-5419438Y9183993D01*
X-5424533Y9194236D01*
X-5424536Y9194240D01*
X-5449455Y9215944D01*
X-5453371Y9219818D01*
X-5640272Y9429782D01*
X-5651268Y9458672D01*
X-5651268Y9719033D01*
X-5650808Y9725341D01*
X-5646434Y9755150D01*
X-5648931Y9765049D01*
X-5650234Y9776826D01*
X-5649961Y9787038D01*
X-5649963Y9787041D01*
X-5649962Y9787043D01*
X-5650559Y9790525D01*
X-5651268Y9794093D01*
X-5651268Y9794094D01*
X-5662803Y9821941D01*
X-5664786Y9827930D01*
X-5775452Y10266825D01*
X-5776769Y10277592D01*
X-5776718Y10291410D01*
X-5778641Y10296100D01*
X-5781738Y10308987D01*
X-5782156Y10314038D01*
X-5782157Y10314040D01*
X-5782166Y10314151D01*
X-5782571Y10315496D01*
X-5782740Y10316071D01*
X-5783132Y10317438D01*
X-5783186Y10317539D01*
X-5783186Y10317542D01*
X-5790316Y10330942D01*
X-5794082Y10340712D01*
X-5797790Y10355419D01*
X-5806037Y10366502D01*
X-5811377Y10375951D01*
X-5816617Y10388735D01*
X-5820189Y10392333D01*
X-5824319Y10398014D01*
X-5259758Y10398014D01*
X-5241178Y10304605D01*
X-5188266Y10225416D01*
X-5109077Y10172504D01*
X-5015668Y10153924D01*
X-4922259Y10172504D01*
X-4843070Y10225416D01*
X-4790158Y10304605D01*
X-4771578Y10398014D01*
X-4790158Y10491423D01*
X-4843070Y10570612D01*
X-4922259Y10623524D01*
X-5015668Y10642104D01*
X-5109077Y10623524D01*
X-5188266Y10570613D01*
X-5188267Y10570612D01*
X-5232869Y10503859D01*
X-5241178Y10491423D01*
X-5259758Y10398014D01*
X-5824319Y10398014D01*
X-5827983Y10403055D01*
X-5830301Y10407558D01*
X-5830303Y10407560D01*
X-5830358Y10407667D01*
X-5831257Y10408767D01*
X-5831637Y10409237D01*
X-5832504Y10410327D01*
X-5832593Y10410400D01*
X-5832593Y10410401D01*
X-5844299Y10420045D01*
X-5851529Y10427642D01*
X-5860580Y10439807D01*
X-5872438Y10446890D01*
X-5880992Y10453580D01*
X-5890725Y10463384D01*
X-5895404Y10465342D01*
X-5906709Y10472266D01*
X-6235898Y10751048D01*
X-6251119Y10780615D01*
X-6251268Y10784205D01*
X-6251268Y11094094D01*
X-6273635Y11148094D01*
X-6291520Y11191273D01*
X-6365897Y11265650D01*
X-6463076Y11305902D01*
X-6568260Y11305902D01*
X-6589894Y11296941D01*
X-6665440Y11265650D01*
X-6739816Y11191274D01*
X-6780068Y11094094D01*
X-6780068Y10689603D01*
X-6782139Y10676348D01*
X-6783511Y10672068D01*
X-6780217Y10632350D01*
X-6780068Y10628760D01*
X-6780068Y10280306D01*
X-6781427Y10269524D01*
X-6937345Y9660845D01*
X-6937576Y9660205D01*
X-6949289Y9614257D01*
X-6949985Y9611824D01*
X-6963205Y9570254D01*
X-6963205Y9570250D01*
X-6963166Y9569792D01*
X-6964367Y9555350D01*
X-6964486Y9554889D01*
X-6964488Y9554832D01*
X-6964502Y9554585D01*
X-13251914Y9554585D01*
X-15452001Y11741502D01*
X-8909758Y11741502D01*
X-8891178Y11648093D01*
X-8838266Y11568904D01*
X-8759077Y11515992D01*
X-8665668Y11497412D01*
X-8572259Y11515992D01*
X-8493070Y11568904D01*
X-8440158Y11648093D01*
X-8421578Y11741502D01*
X-5659758Y11741502D01*
X-5641178Y11648093D01*
X-5588266Y11568904D01*
X-5509077Y11515992D01*
X-5415668Y11497412D01*
X-5413359Y11497872D01*
X-5380745Y11491389D01*
X-5362265Y11463741D01*
X-5368748Y11431124D01*
X-5380737Y11419133D01*
X-5388262Y11414105D01*
X-5388267Y11414100D01*
X-5432553Y11347819D01*
X-5441178Y11334911D01*
X-5459758Y11241502D01*
X-5441178Y11148093D01*
X-5388266Y11068904D01*
X-5309077Y11015992D01*
X-5215668Y10997412D01*
X-5122259Y11015992D01*
X-5043070Y11068904D01*
X-4990158Y11148093D01*
X-4978464Y11206882D01*
X-4806328Y11206882D01*
X-4806327Y11206877D01*
X-4803604Y11198635D01*
X-4801439Y11186558D01*
X-4785915Y10751891D01*
X-4785969Y10747672D01*
X-4788281Y10710104D01*
X-4788151Y10709151D01*
X-4788141Y10708934D01*
X-4788029Y10708202D01*
X-4787929Y10707508D01*
X-4787817Y10706680D01*
X-4787761Y10706455D01*
X-4786969Y10701289D01*
X-4787040Y10701279D01*
X-4786280Y10697005D01*
X-4786209Y10697019D01*
X-4784511Y10688636D01*
X-4785059Y10688526D01*
X-4785030Y10688395D01*
X-4784486Y10688523D01*
X-4783502Y10684359D01*
X-4767875Y10650139D01*
X-4766311Y10646221D01*
X-4754072Y10610634D01*
X-4753591Y10609809D01*
X-4753492Y10609598D01*
X-4753067Y10608897D01*
X-4752703Y10608285D01*
X-4752333Y10607651D01*
X-4752206Y10607478D01*
X-4749489Y10602996D01*
X-4749553Y10602958D01*
X-4747216Y10599301D01*
X-4747154Y10599342D01*
X-4742374Y10592242D01*
X-4742839Y10591930D01*
X-4742766Y10591825D01*
X-4742312Y10592152D01*
X-4739810Y10588683D01*
X-4739808Y10588680D01*
X-4720402Y10570613D01*
X-4712269Y10563041D01*
X-4709324Y10560019D01*
X-4684407Y10531835D01*
X-4684406Y10531834D01*
X-4684402Y10531830D01*
X-4684398Y10531828D01*
X-4683655Y10531263D01*
X-4683490Y10531112D01*
X-4682850Y10530642D01*
X-4682257Y10530198D01*
X-4681642Y10529730D01*
X-4681452Y10529615D01*
X-4677240Y10526522D01*
X-4677284Y10526463D01*
X-4673730Y10523983D01*
X-4673689Y10524044D01*
X-4670127Y10521682D01*
X-4670125Y10521680D01*
X-4670123Y10521679D01*
X-4666556Y10519314D01*
X-4666867Y10518846D01*
X-4666760Y10518777D01*
X-4666465Y10519254D01*
X-4662828Y10517008D01*
X-4662826Y10517007D01*
X-4662823Y10517005D01*
X-4627562Y10503854D01*
X-4623697Y10502194D01*
X-4548209Y10465342D01*
X-4249461Y10319498D01*
X-4240609Y10313747D01*
X-4229206Y10304182D01*
X-4229203Y10304182D01*
X-4227944Y10303125D01*
X-4224023Y10300468D01*
X-3895874Y10029866D01*
X-3880267Y10000502D01*
X-3880068Y9996345D01*
X-3880068Y9688910D01*
X-3839816Y9591731D01*
X-3765439Y9517354D01*
X-3668260Y9477102D01*
X-3668259Y9477102D01*
X-3563077Y9477102D01*
X-3563076Y9477102D01*
X-3465897Y9517354D01*
X-3391520Y9591731D01*
X-3351268Y9688910D01*
X-3351268Y10095466D01*
X-3349367Y10108178D01*
X-3347449Y10114446D01*
X-3351069Y10152113D01*
X-3351268Y10156269D01*
X-3351268Y10494654D01*
X-3349301Y10507580D01*
X-3347592Y10513063D01*
X-3347593Y10513069D01*
X-3347355Y10515304D01*
X-3345895Y10522764D01*
X-3345525Y10524044D01*
X-3168939Y11136277D01*
X-3162985Y11148865D01*
X-3161491Y11151036D01*
X-3160682Y11154836D01*
X-3155812Y11167516D01*
X-3153870Y11170877D01*
X-3150020Y11200113D01*
X-3148690Y11206478D01*
X-3148573Y11206882D01*
X-3140518Y11234807D01*
X-3140813Y11237431D01*
X-3140131Y11251339D01*
X-3139582Y11253914D01*
X-3140288Y11257731D01*
X-3140640Y11271315D01*
X-3140133Y11275161D01*
X-3142233Y11283000D01*
X-3147766Y11303651D01*
X-3148969Y11310018D01*
X-3152262Y11339334D01*
X-3153542Y11341651D01*
X-3158230Y11354751D01*
X-3169121Y11413645D01*
X-3230260Y11744241D01*
X-3230675Y11757299D01*
X-3229989Y11763035D01*
X-3230525Y11764944D01*
X-3232259Y11771117D01*
X-3233874Y11783360D01*
X-3233777Y11791751D01*
X-3241949Y11812135D01*
X-3244342Y11820392D01*
X-3248334Y11841983D01*
X-3251484Y11846838D01*
X-3256865Y11858741D01*
X-3258427Y11864304D01*
X-3258428Y11864305D01*
X-3263617Y11870903D01*
X-3269794Y11881596D01*
X-3271313Y11885385D01*
X-3272916Y11889384D01*
X-3272918Y11889386D01*
X-3272918Y11889387D01*
X-3288258Y11905081D01*
X-3293636Y11911803D01*
X-3305585Y11930220D01*
X-3305588Y11930223D01*
X-3310353Y11933501D01*
X-3319881Y11942439D01*
X-3323453Y11946981D01*
X-3330771Y11951090D01*
X-3340571Y11958606D01*
X-3346432Y11964603D01*
X-3346436Y11964606D01*
X-3347841Y11965207D01*
X-3366626Y11973242D01*
X-3374159Y11977390D01*
X-3382302Y11982991D01*
X-3392249Y11989833D01*
X-3392250Y11989834D01*
X-3392251Y11989834D01*
X-3397906Y11991038D01*
X-3410130Y11995649D01*
X-3415170Y11998479D01*
X-3423502Y11999475D01*
X-3435427Y12002667D01*
X-3443148Y12005969D01*
X-3443151Y12005970D01*
X-3465109Y12006221D01*
X-3473660Y12007171D01*
X-3495128Y12011742D01*
X-3495131Y12011743D01*
X-3500816Y12010691D01*
X-3513869Y12010274D01*
X-3946158Y12061931D01*
X-3959385Y12065704D01*
X-3962310Y12067070D01*
X-3979309Y12067823D01*
X-3989156Y12069405D01*
X-4005538Y12074016D01*
X-4005544Y12074016D01*
X-4020655Y12072220D01*
X-4031125Y12072246D01*
X-4046242Y12074120D01*
X-4046550Y12074095D01*
X-4046773Y12074079D01*
X-4047377Y12074036D01*
X-4050504Y12073157D01*
X-4064171Y12071583D01*
X-4067390Y12071726D01*
X-4067392Y12071726D01*
X-4083393Y12065914D01*
X-4093096Y12063608D01*
X-4503012Y12014877D01*
X-4511337Y12014691D01*
X-4534231Y12016380D01*
X-4534232Y12016380D01*
X-4534796Y12016193D01*
X-4549087Y12014007D01*
X-4549688Y12014017D01*
X-4561350Y12009398D01*
X-4572216Y12006650D01*
X-4584666Y12005170D01*
X-4584668Y12005169D01*
X-4604689Y11993944D01*
X-4612307Y11990587D01*
X-4634108Y11983385D01*
X-4634110Y11983384D01*
X-4634565Y11982991D01*
X-4646930Y11975505D01*
X-4647480Y11975288D01*
X-4647483Y11975286D01*
X-4656489Y11966557D01*
X-4665475Y11959861D01*
X-4676414Y11953728D01*
X-4690616Y11935694D01*
X-4696369Y11929678D01*
X-4713755Y11914681D01*
X-4713757Y11914678D01*
X-4714025Y11914144D01*
X-4722584Y11902496D01*
X-4723010Y11902084D01*
X-4727993Y11890568D01*
X-4733731Y11880945D01*
X-4741493Y11871089D01*
X-4741493Y11871087D01*
X-4747712Y11848995D01*
X-4750725Y11841235D01*
X-4761046Y11820730D01*
X-4761047Y11820728D01*
X-4761090Y11820134D01*
X-4764542Y11806090D01*
X-4764778Y11805547D01*
X-4764779Y11805543D01*
X-4764975Y11792996D01*
X-4766594Y11781909D01*
X-4769991Y11769839D01*
X-4769991Y11769835D01*
X-4767282Y11747045D01*
X-4767096Y11738720D01*
X-4799229Y11303121D01*
X-4801849Y11291139D01*
X-4804884Y11283001D01*
X-4804884Y11283000D01*
X-4803608Y11247278D01*
X-4803698Y11242532D01*
X-4806328Y11206882D01*
X-4978464Y11206882D01*
X-4971578Y11241502D01*
X-4990158Y11334911D01*
X-5043070Y11414100D01*
X-5122259Y11467012D01*
X-5215668Y11485592D01*
X-5215669Y11485592D01*
X-5217982Y11485132D01*
X-5250598Y11491620D01*
X-5269073Y11519271D01*
X-5262585Y11551887D01*
X-5250599Y11563874D01*
X-5243070Y11568904D01*
X-5190158Y11648093D01*
X-5171578Y11741502D01*
X-5190158Y11834911D01*
X-5243070Y11914100D01*
X-5243136Y11914144D01*
X-5279662Y11938550D01*
X-5322259Y11967012D01*
X-5415668Y11985592D01*
X-5509077Y11967012D01*
X-5588266Y11914101D01*
X-5588267Y11914100D01*
X-5641178Y11834911D01*
X-5659758Y11741502D01*
X-8421578Y11741502D01*
X-8440158Y11834911D01*
X-8493070Y11914100D01*
X-8493136Y11914144D01*
X-8529662Y11938550D01*
X-8572259Y11967012D01*
X-8665668Y11985592D01*
X-8759077Y11967012D01*
X-8838266Y11914101D01*
X-8838267Y11914100D01*
X-8891178Y11834911D01*
X-8909758Y11741502D01*
X-15452001Y11741502D01*
X-15472974Y11762349D01*
X-15475381Y11764944D01*
X-15555503Y11858741D01*
X-15563692Y11868328D01*
X-15567699Y11873843D01*
X-15568791Y11875624D01*
X-15625961Y11968905D01*
X-15637883Y11988358D01*
X-15640979Y11994434D01*
X-15645426Y12005169D01*
X-15692384Y12118521D01*
X-15694490Y12125002D01*
X-15725851Y12255606D01*
X-15726916Y12262329D01*
X-15737552Y12397430D01*
X-15737686Y12400840D01*
X-15737686Y12846329D01*
X-1141531Y12846329D01*
X-1122951Y12752920D01*
X-1097012Y12714099D01*
X-1072298Y12677111D01*
X-1070039Y12673731D01*
X-990850Y12620819D01*
X-897441Y12602239D01*
X-874680Y12606767D01*
X-842066Y12600280D01*
X-823589Y12572630D01*
X-823589Y12555676D01*
X-825097Y12548092D01*
X-826408Y12541502D01*
X-807828Y12448093D01*
X-754916Y12368904D01*
X-675727Y12315992D01*
X-582318Y12297412D01*
X-488909Y12315992D01*
X-409720Y12368904D01*
X-356808Y12448093D01*
X-338228Y12541502D01*
X-356808Y12634911D01*
X-409720Y12714100D01*
X-409723Y12714102D01*
X-455150Y12744455D01*
X-488909Y12767012D01*
X-582318Y12785592D01*
X-582319Y12785592D01*
X-605080Y12781065D01*
X-637696Y12787553D01*
X-656171Y12815204D01*
X-656171Y12832153D01*
X-653351Y12846329D01*
X-671931Y12939738D01*
X-724843Y13018927D01*
X-729625Y13022122D01*
X-787637Y13060884D01*
X-804032Y13071839D01*
X-897441Y13090419D01*
X-990850Y13071839D01*
X-1070039Y13018928D01*
X-1070040Y13018927D01*
X-1117369Y12948092D01*
X-1122951Y12939738D01*
X-1141531Y12846329D01*
X-15737686Y12846329D01*
X-15737686Y13539993D01*
X-15737674Y13540091D01*
X-15737677Y13545759D01*
X-15737675Y13545761D01*
X-15737686Y13570575D01*
X-15737479Y13574801D01*
X-15720883Y13743957D01*
X-15719227Y13752297D01*
X-15670561Y13912903D01*
X-15667306Y13920766D01*
X-15588233Y14068782D01*
X-15583508Y14075856D01*
X-15477065Y14205598D01*
X-15471052Y14211612D01*
X-15341333Y14318086D01*
X-15334265Y14322809D01*
X-15186266Y14401917D01*
X-15178408Y14405172D01*
X-15017808Y14453876D01*
X-15009466Y14455534D01*
X-14845047Y14471703D01*
X-14840308Y14472169D01*
X-14836056Y14472378D01*
X-14811276Y14472373D01*
X-14811275Y14472374D01*
X-14805768Y14472373D01*
X-14805721Y14472378D01*
X-11878180Y14472378D01*
X-11878179Y14472378D01*
X-11841241Y14487678D01*
X-11812970Y14515949D01*
X-11797670Y14552887D01*
X-11797670Y15419962D01*
X-100506Y15419962D01*
X-100500Y15399971D01*
X-100500Y19991D01*
X-100500Y-19991D01*
X-85200Y-56929D01*
X-56929Y-85200D01*
X-19991Y-100500D01*
X-19990Y-100500D01*
X15517235Y-100500D01*
X15517236Y-100500D01*
X15554174Y-85200D01*
X15582445Y-56929D01*
X15597745Y-19991D01*
X15597745Y5161502D01*
X16133935Y5161502D01*
X16152515Y5068093D01*
X16205427Y4988904D01*
X16284616Y4935992D01*
X16378025Y4917412D01*
X16471434Y4935992D01*
X16550623Y4988904D01*
X16603535Y5068093D01*
X16622115Y5161502D01*
X16603535Y5254911D01*
X16550623Y5334100D01*
X16471434Y5387012D01*
X16378025Y5405592D01*
X16284616Y5387012D01*
X16205427Y5334101D01*
X16205426Y5334100D01*
X16152515Y5254911D01*
X16133935Y5161502D01*
X15597745Y5161502D01*
X15597745Y5691502D01*
X18690242Y5691502D01*
X18708822Y5598093D01*
X18761734Y5518904D01*
X18840923Y5465992D01*
X18934332Y5447412D01*
X19027741Y5465992D01*
X19106930Y5518904D01*
X19123205Y5543262D01*
X19150854Y5561737D01*
X19183471Y5555250D01*
X19195458Y5543263D01*
X19211734Y5518904D01*
X19290923Y5465992D01*
X19384332Y5447412D01*
X19477741Y5465992D01*
X19556930Y5518904D01*
X19573205Y5543262D01*
X19600854Y5561737D01*
X19633471Y5555250D01*
X19645458Y5543263D01*
X19661734Y5518904D01*
X19740923Y5465992D01*
X19834332Y5447412D01*
X19927741Y5465992D01*
X20006930Y5518904D01*
X20059842Y5598093D01*
X20078422Y5691502D01*
X20059842Y5784911D01*
X20006930Y5864100D01*
X19927741Y5917012D01*
X19834332Y5935592D01*
X19740923Y5917012D01*
X19661734Y5864101D01*
X19661732Y5864099D01*
X19645459Y5839744D01*
X19617808Y5821269D01*
X19585192Y5827757D01*
X19573205Y5839744D01*
X19556931Y5864099D01*
X19556929Y5864101D01*
X19530652Y5881659D01*
X19477741Y5917012D01*
X19384332Y5935592D01*
X19290923Y5917012D01*
X19211734Y5864101D01*
X19211732Y5864099D01*
X19195459Y5839744D01*
X19167808Y5821269D01*
X19135192Y5827757D01*
X19123205Y5839744D01*
X19106931Y5864099D01*
X19106929Y5864101D01*
X19080652Y5881659D01*
X19027741Y5917012D01*
X18934332Y5935592D01*
X18840923Y5917012D01*
X18761734Y5864101D01*
X18761733Y5864100D01*
X18733115Y5821269D01*
X18708822Y5784911D01*
X18690242Y5691502D01*
X15597745Y5691502D01*
X15597745Y7891502D01*
X16754242Y7891502D01*
X16772822Y7798093D01*
X16825734Y7718904D01*
X16904923Y7665992D01*
X16998332Y7647412D01*
X17091741Y7665992D01*
X17170930Y7718904D01*
X17207612Y7773804D01*
X17235260Y7792278D01*
X17267877Y7785791D01*
X17279865Y7773803D01*
X17286412Y7764005D01*
X17286413Y7764004D01*
X17286414Y7764003D01*
X17365603Y7711091D01*
X17459012Y7692511D01*
X17552421Y7711091D01*
X17631610Y7764003D01*
X17684522Y7843192D01*
X17703102Y7936601D01*
X17684522Y8030010D01*
X17631610Y8109199D01*
X17552421Y8162111D01*
X17459012Y8180691D01*
X17365603Y8162111D01*
X17286414Y8109200D01*
X17286412Y8109198D01*
X17249732Y8054301D01*
X17222082Y8035826D01*
X17189465Y8042314D01*
X17177478Y8054301D01*
X17170931Y8064099D01*
X17170929Y8064101D01*
X17144652Y8081659D01*
X17091741Y8117012D01*
X16998332Y8135592D01*
X16904923Y8117012D01*
X16825734Y8064101D01*
X16825733Y8064100D01*
X16789906Y8010479D01*
X16772822Y7984911D01*
X16754242Y7891502D01*
X15597745Y7891502D01*
X15597745Y8274697D01*
X17939969Y8274697D01*
X17958549Y8181288D01*
X17971193Y8162365D01*
X18006717Y8109198D01*
X18011461Y8102099D01*
X18090650Y8049187D01*
X18184059Y8030607D01*
X18277468Y8049187D01*
X18356657Y8102099D01*
X18374861Y8129344D01*
X19166293Y8129344D01*
X19184873Y8035935D01*
X19237785Y7956746D01*
X19316974Y7903834D01*
X19410383Y7885254D01*
X19503792Y7903834D01*
X19582981Y7956746D01*
X19635893Y8035935D01*
X19654473Y8129344D01*
X19635893Y8222753D01*
X19582981Y8301942D01*
X19503792Y8354854D01*
X19410383Y8373434D01*
X19316974Y8354854D01*
X19237785Y8301943D01*
X19237784Y8301942D01*
X19203083Y8250007D01*
X19184873Y8222753D01*
X19166293Y8129344D01*
X18374861Y8129344D01*
X18409569Y8181288D01*
X18428149Y8274697D01*
X18409569Y8368106D01*
X18356657Y8447295D01*
X18277468Y8500207D01*
X18184059Y8518787D01*
X18090650Y8500207D01*
X18011461Y8447296D01*
X18011460Y8447295D01*
X17962109Y8373434D01*
X17958549Y8368106D01*
X17939969Y8274697D01*
X15597745Y8274697D01*
X15597745Y8685420D01*
X19347262Y8685420D01*
X19365842Y8592011D01*
X19386892Y8560507D01*
X19414600Y8519038D01*
X19418754Y8512822D01*
X19497943Y8459910D01*
X19591352Y8441330D01*
X19684761Y8459910D01*
X19763950Y8512822D01*
X19816862Y8592011D01*
X19835442Y8685420D01*
X19816862Y8778829D01*
X19763950Y8858018D01*
X19761883Y8859399D01*
X19719575Y8887668D01*
X19684761Y8910930D01*
X19591352Y8929510D01*
X19497943Y8910930D01*
X19418754Y8858019D01*
X19418753Y8858018D01*
X19370696Y8786093D01*
X19365842Y8778829D01*
X19347262Y8685420D01*
X15597745Y8685420D01*
X15597745Y9089286D01*
X16851558Y9089286D01*
X16870138Y8995877D01*
X16893067Y8961561D01*
X16914593Y8929344D01*
X16923050Y8916688D01*
X17002239Y8863776D01*
X17095648Y8845196D01*
X17189057Y8863776D01*
X17268246Y8916688D01*
X17321158Y8995877D01*
X17339738Y9089286D01*
X17321158Y9182695D01*
X17268246Y9261884D01*
X17260571Y9267012D01*
X17211232Y9299979D01*
X17189057Y9314796D01*
X17095648Y9333376D01*
X17002239Y9314796D01*
X16923050Y9261885D01*
X16923049Y9261884D01*
X16877852Y9194240D01*
X16870138Y9182695D01*
X16851558Y9089286D01*
X15597745Y9089286D01*
X15597745Y10691502D01*
X16540242Y10691502D01*
X16558822Y10598093D01*
X16577184Y10570612D01*
X16610995Y10520009D01*
X16611734Y10518904D01*
X16690923Y10465992D01*
X16784332Y10447412D01*
X16877741Y10465992D01*
X16956930Y10518904D01*
X17009842Y10598093D01*
X17028422Y10691502D01*
X17009842Y10784911D01*
X16956930Y10864100D01*
X16949740Y10868904D01*
X16919818Y10888897D01*
X16877741Y10917012D01*
X16784332Y10935592D01*
X16690923Y10917012D01*
X16611734Y10864101D01*
X16611733Y10864100D01*
X16567175Y10797412D01*
X16558822Y10784911D01*
X16540242Y10691502D01*
X15597745Y10691502D01*
X15597745Y12141502D01*
X16640242Y12141502D01*
X16644097Y12122122D01*
X16644932Y12113645D01*
X16644932Y12093882D01*
X16648288Y12085780D01*
X16652494Y12075624D01*
X16654965Y12067478D01*
X16658822Y12048093D01*
X16658822Y12048092D01*
X16669802Y12031658D01*
X16673815Y12024150D01*
X16681378Y12005895D01*
X16681378Y12005894D01*
X16695350Y11991922D01*
X16700752Y11985339D01*
X16711734Y11968904D01*
X16728163Y11957927D01*
X16728166Y11957925D01*
X16734751Y11952521D01*
X16748723Y11938549D01*
X16766981Y11930986D01*
X16774483Y11926977D01*
X16790923Y11915992D01*
X16810306Y11912137D01*
X16818450Y11909667D01*
X16836712Y11902102D01*
X16856475Y11902102D01*
X16864951Y11901268D01*
X16884332Y11897412D01*
X16903712Y11901268D01*
X16912189Y11902102D01*
X17236712Y11902102D01*
X17256475Y11902102D01*
X17264951Y11901268D01*
X17284332Y11897412D01*
X17303712Y11901268D01*
X17312189Y11902102D01*
X17331952Y11902102D01*
X17636712Y11902102D01*
X17656475Y11902102D01*
X17664951Y11901268D01*
X17684332Y11897412D01*
X17693739Y11899284D01*
X17705287Y11900010D01*
X17714861Y11899329D01*
X17716490Y11899873D01*
X17730231Y11902102D01*
X17731951Y11902102D01*
X17731952Y11902102D01*
X17750212Y11909666D01*
X17758357Y11912137D01*
X17777741Y11915992D01*
X17785719Y11921324D01*
X17796115Y11926415D01*
X17805212Y11929446D01*
X17806507Y11930569D01*
X17818357Y11937893D01*
X17818494Y11937951D01*
X17819941Y11938549D01*
X17822894Y11941502D01*
X18940242Y11941502D01*
X18944097Y11922122D01*
X18944932Y11913645D01*
X18944932Y11893882D01*
X18950021Y11881596D01*
X18952494Y11875624D01*
X18954965Y11867478D01*
X18958822Y11848093D01*
X18958822Y11848092D01*
X18969800Y11831661D01*
X18973814Y11824152D01*
X18981377Y11805894D01*
X18995352Y11791919D01*
X19000756Y11785334D01*
X19010258Y11771112D01*
X19011734Y11768904D01*
X19028163Y11757927D01*
X19034748Y11752523D01*
X19432206Y11355065D01*
X19444932Y11324341D01*
X19444932Y11069360D01*
X19444097Y11060884D01*
X19440242Y11041503D01*
X19440242Y11041502D01*
X19444097Y11022122D01*
X19444932Y11013645D01*
X19444932Y10993882D01*
X19451337Y10978417D01*
X19452494Y10975624D01*
X19454965Y10967478D01*
X19458822Y10948093D01*
X19458822Y10948092D01*
X19469800Y10931661D01*
X19473814Y10924152D01*
X19481377Y10905894D01*
X19495352Y10891919D01*
X19500754Y10885336D01*
X19511734Y10868904D01*
X19518924Y10864100D01*
X19528163Y10857927D01*
X19534748Y10852523D01*
X19548723Y10838548D01*
X19566981Y10830986D01*
X19574491Y10826972D01*
X19590923Y10815992D01*
X19610306Y10812137D01*
X19618450Y10809667D01*
X19636712Y10802102D01*
X19656475Y10802102D01*
X19664951Y10801268D01*
X19684332Y10797412D01*
X19703712Y10801268D01*
X19712189Y10802102D01*
X19731952Y10802102D01*
X20036712Y10802102D01*
X20056475Y10802102D01*
X20064951Y10801268D01*
X20084332Y10797412D01*
X20103712Y10801268D01*
X20112189Y10802102D01*
X20131951Y10802102D01*
X20131952Y10802102D01*
X20150212Y10809666D01*
X20158357Y10812137D01*
X20177741Y10815992D01*
X20194178Y10826976D01*
X20201679Y10830986D01*
X20219941Y10838549D01*
X20233917Y10852527D01*
X20240486Y10857918D01*
X20256930Y10868904D01*
X20267916Y10885348D01*
X20273310Y10891919D01*
X20287285Y10905893D01*
X20294848Y10924155D01*
X20298858Y10931656D01*
X20309842Y10948093D01*
X20313698Y10967478D01*
X20316169Y10975624D01*
X20323732Y10993882D01*
X20323732Y11013645D01*
X20324567Y11022122D01*
X20328422Y11041502D01*
X20328422Y11041503D01*
X20324567Y11060884D01*
X20323732Y11069360D01*
X20323732Y11413645D01*
X20324567Y11422123D01*
X20328422Y11441502D01*
X20328422Y11441504D01*
X20328422Y11441759D01*
X20324576Y11460987D01*
X20323732Y11469509D01*
X20323732Y11489122D01*
X20316169Y11507381D01*
X20313697Y11515531D01*
X20312953Y11519271D01*
X20309842Y11534911D01*
X20309841Y11534913D01*
X20309067Y11538803D01*
X20308907Y11539329D01*
X20224576Y11960987D01*
X20223732Y11969508D01*
X20223732Y11989122D01*
X20216169Y12007381D01*
X20213697Y12015531D01*
X20209843Y12034906D01*
X20209842Y12034907D01*
X20209842Y12034911D01*
X20209839Y12034916D01*
X20209744Y12035145D01*
X20209744Y12035147D01*
X20209742Y12035150D01*
X20209741Y12035153D01*
X20198830Y12051444D01*
X20194790Y12058991D01*
X20187285Y12077111D01*
X20173313Y12091083D01*
X20167909Y12097668D01*
X20156930Y12114100D01*
X20156928Y12114101D01*
X20156928Y12114102D01*
X20156754Y12114276D01*
X20156749Y12114279D01*
X20156749Y12114280D01*
X20140549Y12125080D01*
X20140428Y12125161D01*
X20133807Y12130589D01*
X20119940Y12144456D01*
X20101684Y12152019D01*
X20094176Y12156032D01*
X20077743Y12167012D01*
X20077739Y12167013D01*
X20077511Y12167108D01*
X20058268Y12170915D01*
X20050075Y12173396D01*
X20031953Y12180902D01*
X20031952Y12180902D01*
X20012190Y12180902D01*
X20003713Y12181737D01*
X19984329Y12185593D01*
X19984312Y12185593D01*
X19984084Y12185594D01*
X19964847Y12181746D01*
X19956326Y12180902D01*
X19612189Y12180902D01*
X19603712Y12181737D01*
X19584332Y12185592D01*
X19564952Y12181737D01*
X19556475Y12180902D01*
X19212189Y12180902D01*
X19203712Y12181737D01*
X19184332Y12185592D01*
X19164952Y12181737D01*
X19156475Y12180902D01*
X19136708Y12180902D01*
X19118454Y12173341D01*
X19110308Y12170869D01*
X19090921Y12167012D01*
X19074490Y12156033D01*
X19066980Y12152019D01*
X19048725Y12144458D01*
X19048724Y12144457D01*
X19034746Y12130480D01*
X19028165Y12125080D01*
X19011736Y12114102D01*
X19011733Y12114099D01*
X19000754Y12097669D01*
X18995354Y12091089D01*
X18981377Y12077111D01*
X18977220Y12067073D01*
X18977217Y12067066D01*
X18973812Y12058849D01*
X18969801Y12051346D01*
X18958822Y12034913D01*
X18954965Y12015526D01*
X18952493Y12007380D01*
X18944932Y11989126D01*
X18944932Y11969360D01*
X18944097Y11960884D01*
X18940242Y11941503D01*
X18940242Y11941502D01*
X17822894Y11941502D01*
X17833916Y11952526D01*
X17840491Y11957922D01*
X17856930Y11968904D01*
X17862259Y11976881D01*
X17869915Y11985565D01*
X17877161Y11991847D01*
X17877927Y11993382D01*
X17886070Y12004679D01*
X17887285Y12005893D01*
X17894847Y12024151D01*
X17898863Y12031663D01*
X17901030Y12034906D01*
X17909842Y12048093D01*
X17911712Y12057500D01*
X17915466Y12068457D01*
X17916303Y12070131D01*
X17919754Y12077032D01*
X17919875Y12078741D01*
X17923074Y12092296D01*
X17923732Y12093882D01*
X17923732Y12113645D01*
X17924567Y12122122D01*
X17925155Y12125080D01*
X17928422Y12141502D01*
X17926549Y12150917D01*
X17925825Y12162469D01*
X17926505Y12172032D01*
X17925961Y12173664D01*
X17923732Y12187402D01*
X17923732Y12513645D01*
X17924567Y12522122D01*
X17928422Y12541502D01*
X17928422Y12541503D01*
X17924567Y12560884D01*
X17923732Y12569360D01*
X17923732Y12589122D01*
X17916167Y12607384D01*
X17913697Y12615528D01*
X17909842Y12634911D01*
X17905438Y12641502D01*
X18740242Y12641502D01*
X18744097Y12622122D01*
X18744932Y12613645D01*
X18744932Y12593882D01*
X18746904Y12589122D01*
X18752494Y12575624D01*
X18754965Y12567478D01*
X18758822Y12548093D01*
X18758822Y12548092D01*
X18769802Y12531658D01*
X18773815Y12524150D01*
X18781378Y12505895D01*
X18781378Y12505894D01*
X18795350Y12491922D01*
X18800752Y12485339D01*
X18805633Y12478035D01*
X18811733Y12468905D01*
X18828166Y12457925D01*
X18834751Y12452521D01*
X18848723Y12438549D01*
X18866981Y12430986D01*
X18874483Y12426977D01*
X18890923Y12415992D01*
X18910306Y12412137D01*
X18918450Y12409667D01*
X18936712Y12402102D01*
X18956475Y12402102D01*
X18964951Y12401268D01*
X18984332Y12397412D01*
X19003712Y12401268D01*
X19012189Y12402102D01*
X19356475Y12402102D01*
X19364951Y12401268D01*
X19384332Y12397412D01*
X19403712Y12401268D01*
X19412189Y12402102D01*
X19431951Y12402102D01*
X19431952Y12402102D01*
X19450212Y12409666D01*
X19458357Y12412137D01*
X19477741Y12415992D01*
X19494178Y12426976D01*
X19501679Y12430986D01*
X19519941Y12438549D01*
X19533917Y12452527D01*
X19540486Y12457918D01*
X19556930Y12468904D01*
X19567916Y12485348D01*
X19573307Y12491917D01*
X19587285Y12505893D01*
X19594848Y12524155D01*
X19598860Y12531658D01*
X19609842Y12548093D01*
X19613698Y12567478D01*
X19616169Y12575624D01*
X19623732Y12593882D01*
X19623732Y12613645D01*
X19624567Y12622122D01*
X19628422Y12641502D01*
X19628422Y12641503D01*
X19624567Y12660884D01*
X19623732Y12669360D01*
X19623732Y12689122D01*
X19616167Y12707384D01*
X19613697Y12715528D01*
X19609842Y12734911D01*
X19598857Y12751351D01*
X19594848Y12758853D01*
X19587285Y12777111D01*
X19573311Y12791085D01*
X19567909Y12797668D01*
X19554749Y12817364D01*
X19548262Y12849980D01*
X19554749Y12865642D01*
X19556927Y12868903D01*
X19556930Y12868904D01*
X19567915Y12885347D01*
X19573307Y12891917D01*
X19587285Y12905893D01*
X19594848Y12924155D01*
X19598860Y12931658D01*
X19609842Y12948093D01*
X19613698Y12967478D01*
X19616169Y12975624D01*
X19623732Y12993882D01*
X19623732Y13013645D01*
X19624567Y13022122D01*
X19628422Y13041502D01*
X19628422Y13041503D01*
X19624567Y13060884D01*
X19623732Y13069360D01*
X19623732Y13089122D01*
X19616167Y13107384D01*
X19613697Y13115528D01*
X19609842Y13134911D01*
X19598857Y13151351D01*
X19594848Y13158853D01*
X19587285Y13177111D01*
X19573311Y13191085D01*
X19567909Y13197668D01*
X19556929Y13214101D01*
X19540497Y13225080D01*
X19533912Y13230484D01*
X19519940Y13244456D01*
X19501684Y13252019D01*
X19494176Y13256032D01*
X19477742Y13267012D01*
X19458356Y13270869D01*
X19450210Y13273340D01*
X19447417Y13274497D01*
X19431952Y13280902D01*
X19431950Y13280902D01*
X19412189Y13280902D01*
X19403712Y13281737D01*
X19384332Y13285592D01*
X19364952Y13281737D01*
X19356475Y13280902D01*
X19012189Y13280902D01*
X19003712Y13281737D01*
X18984332Y13285592D01*
X18964952Y13281737D01*
X18956475Y13280902D01*
X18936708Y13280902D01*
X18918454Y13273341D01*
X18910308Y13270869D01*
X18890923Y13267012D01*
X18874488Y13256032D01*
X18866982Y13252020D01*
X18848725Y13244457D01*
X18848722Y13244455D01*
X18834749Y13230482D01*
X18828168Y13225082D01*
X18811736Y13214102D01*
X18811732Y13214098D01*
X18800752Y13197666D01*
X18795352Y13191085D01*
X18781379Y13177112D01*
X18781377Y13177109D01*
X18773814Y13158852D01*
X18769802Y13151346D01*
X18758822Y13134911D01*
X18754965Y13115526D01*
X18752493Y13107380D01*
X18744932Y13089126D01*
X18744932Y13069360D01*
X18744097Y13060884D01*
X18740242Y13041503D01*
X18740242Y13041502D01*
X18744097Y13022122D01*
X18744932Y13013645D01*
X18744932Y12993882D01*
X18751337Y12978417D01*
X18752494Y12975624D01*
X18754965Y12967478D01*
X18758822Y12948093D01*
X18758822Y12948092D01*
X18769802Y12931658D01*
X18773815Y12924150D01*
X18781378Y12905895D01*
X18781378Y12905894D01*
X18795350Y12891922D01*
X18800754Y12885337D01*
X18813914Y12865641D01*
X18820401Y12833025D01*
X18813913Y12817362D01*
X18800753Y12797667D01*
X18795352Y12791085D01*
X18781379Y12777112D01*
X18781377Y12777109D01*
X18773814Y12758852D01*
X18769802Y12751346D01*
X18758822Y12734911D01*
X18754965Y12715526D01*
X18752493Y12707380D01*
X18744932Y12689126D01*
X18744932Y12669360D01*
X18744097Y12660884D01*
X18740242Y12641503D01*
X18740242Y12641502D01*
X17905438Y12641502D01*
X17898857Y12651351D01*
X17894848Y12658853D01*
X17887285Y12677111D01*
X17873313Y12691083D01*
X17867909Y12697668D01*
X17856930Y12714100D01*
X17856927Y12714102D01*
X17840497Y12725080D01*
X17833912Y12730484D01*
X17819940Y12744456D01*
X17801684Y12752019D01*
X17794176Y12756032D01*
X17777742Y12767012D01*
X17758356Y12770869D01*
X17750210Y12773340D01*
X17747417Y12774497D01*
X17731952Y12780902D01*
X17731950Y12780902D01*
X17712189Y12780902D01*
X17703712Y12781737D01*
X17684332Y12785592D01*
X17664952Y12781737D01*
X17656475Y12780902D01*
X17312189Y12780902D01*
X17303712Y12781737D01*
X17284332Y12785592D01*
X17264952Y12781737D01*
X17256475Y12780902D01*
X16912189Y12780902D01*
X16903712Y12781737D01*
X16884333Y12785592D01*
X16884330Y12785592D01*
X16874918Y12783721D01*
X16863370Y12782996D01*
X16853803Y12783676D01*
X16852174Y12783132D01*
X16838434Y12780902D01*
X16836708Y12780902D01*
X16818454Y12773341D01*
X16810308Y12770869D01*
X16790921Y12767012D01*
X16782946Y12761683D01*
X16772553Y12756593D01*
X16763453Y12753559D01*
X16763449Y12753557D01*
X16762148Y12752428D01*
X16750320Y12745117D01*
X16749904Y12744945D01*
X16748721Y12744455D01*
X16734750Y12730483D01*
X16728167Y12725081D01*
X16711735Y12714102D01*
X16711732Y12714099D01*
X16706401Y12706122D01*
X16698750Y12697446D01*
X16691501Y12691159D01*
X16690728Y12689611D01*
X16682595Y12678328D01*
X16681380Y12677114D01*
X16681378Y12677111D01*
X16673815Y12658853D01*
X16669802Y12651346D01*
X16658822Y12634912D01*
X16658822Y12634911D01*
X16656950Y12625501D01*
X16653198Y12614550D01*
X16648910Y12605975D01*
X16648909Y12605970D01*
X16648787Y12604253D01*
X16645591Y12590714D01*
X16644932Y12589124D01*
X16644932Y12569360D01*
X16644097Y12560883D01*
X16640242Y12541503D01*
X16640242Y12541502D01*
X16642113Y12532090D01*
X16642838Y12520542D01*
X16642158Y12510974D01*
X16642702Y12509344D01*
X16644932Y12495604D01*
X16644932Y12169360D01*
X16644097Y12160884D01*
X16640242Y12141503D01*
X16640242Y12141502D01*
X15597745Y12141502D01*
X15597745Y13841502D01*
X18740242Y13841502D01*
X18744097Y13822122D01*
X18744932Y13813645D01*
X18744932Y13793882D01*
X18751337Y13778417D01*
X18752494Y13775624D01*
X18754965Y13767478D01*
X18758822Y13748093D01*
X18758822Y13748092D01*
X18769802Y13731658D01*
X18773815Y13724150D01*
X18781378Y13705895D01*
X18781378Y13705894D01*
X18795350Y13691922D01*
X18800754Y13685337D01*
X18810276Y13671085D01*
X18811734Y13668904D01*
X18828166Y13657925D01*
X18834751Y13652521D01*
X18848723Y13638549D01*
X18866981Y13630986D01*
X18874483Y13626977D01*
X18890923Y13615992D01*
X18910306Y13612137D01*
X18918450Y13609667D01*
X18936712Y13602102D01*
X18956475Y13602102D01*
X18964951Y13601268D01*
X18984332Y13597412D01*
X19003712Y13601268D01*
X19012189Y13602102D01*
X19356475Y13602102D01*
X19364951Y13601268D01*
X19384332Y13597412D01*
X19403712Y13601268D01*
X19412189Y13602102D01*
X19431951Y13602102D01*
X19431952Y13602102D01*
X19450212Y13609666D01*
X19458357Y13612137D01*
X19477741Y13615992D01*
X19494178Y13626976D01*
X19501679Y13630986D01*
X19519941Y13638549D01*
X19533917Y13652527D01*
X19540487Y13657919D01*
X19556930Y13668904D01*
X19556931Y13668907D01*
X19560192Y13671085D01*
X19592809Y13677572D01*
X19608470Y13671084D01*
X19690919Y13615994D01*
X19690920Y13615994D01*
X19690923Y13615992D01*
X19784332Y13597412D01*
X19877741Y13615992D01*
X19956930Y13668904D01*
X20009842Y13748093D01*
X20028422Y13841502D01*
X20009842Y13934911D01*
X19956930Y14014100D01*
X19956929Y14014101D01*
X19954750Y14017362D01*
X19948262Y14049979D01*
X19954750Y14065642D01*
X19967910Y14085337D01*
X20009842Y14148093D01*
X20028422Y14241502D01*
X20009842Y14334911D01*
X19956930Y14414100D01*
X19956927Y14414102D01*
X19923940Y14436143D01*
X20640242Y14436143D01*
X20658822Y14342734D01*
X20682445Y14307380D01*
X20710707Y14265081D01*
X20711734Y14263545D01*
X20790923Y14210633D01*
X20884332Y14192053D01*
X20977741Y14210633D01*
X21056930Y14263545D01*
X21109842Y14342734D01*
X21128422Y14436143D01*
X21109842Y14529552D01*
X21056930Y14608741D01*
X21055547Y14609665D01*
X21014935Y14636801D01*
X20977741Y14661653D01*
X20884332Y14680233D01*
X20790923Y14661653D01*
X20711734Y14608742D01*
X20711733Y14608741D01*
X20674414Y14552888D01*
X20658822Y14529552D01*
X20640242Y14436143D01*
X19923940Y14436143D01*
X19911500Y14444455D01*
X19877741Y14467012D01*
X19784332Y14485592D01*
X19690923Y14467012D01*
X19608470Y14411920D01*
X19575854Y14405433D01*
X19560191Y14411921D01*
X19556928Y14414101D01*
X19540496Y14425081D01*
X19533912Y14430484D01*
X19519940Y14444456D01*
X19501684Y14452019D01*
X19494176Y14456032D01*
X19477742Y14467012D01*
X19458356Y14470869D01*
X19450210Y14473340D01*
X19447417Y14474497D01*
X19431952Y14480902D01*
X19431950Y14480902D01*
X19412189Y14480902D01*
X19403712Y14481737D01*
X19384332Y14485592D01*
X19364952Y14481737D01*
X19356475Y14480902D01*
X19012189Y14480902D01*
X19003712Y14481737D01*
X18984332Y14485592D01*
X18964952Y14481737D01*
X18956475Y14480902D01*
X18936708Y14480902D01*
X18918454Y14473341D01*
X18910308Y14470869D01*
X18890923Y14467012D01*
X18874488Y14456032D01*
X18866982Y14452020D01*
X18848725Y14444457D01*
X18848722Y14444455D01*
X18834749Y14430482D01*
X18828168Y14425082D01*
X18811736Y14414102D01*
X18811732Y14414098D01*
X18800752Y14397666D01*
X18795352Y14391085D01*
X18781379Y14377112D01*
X18781377Y14377109D01*
X18773814Y14358852D01*
X18769802Y14351346D01*
X18758822Y14334911D01*
X18754965Y14315526D01*
X18752493Y14307380D01*
X18744932Y14289126D01*
X18744932Y14269360D01*
X18744097Y14260884D01*
X18740242Y14241503D01*
X18740242Y14241502D01*
X18744097Y14222122D01*
X18744932Y14213645D01*
X18744932Y14193882D01*
X18751337Y14178417D01*
X18752494Y14175624D01*
X18754965Y14167478D01*
X18758822Y14148093D01*
X18758822Y14148092D01*
X18769802Y14131658D01*
X18773815Y14124150D01*
X18781378Y14105895D01*
X18781378Y14105894D01*
X18795350Y14091922D01*
X18800754Y14085337D01*
X18813914Y14065641D01*
X18820401Y14033025D01*
X18813913Y14017362D01*
X18800753Y13997667D01*
X18795352Y13991085D01*
X18781379Y13977112D01*
X18781377Y13977109D01*
X18773814Y13958852D01*
X18769802Y13951346D01*
X18758822Y13934911D01*
X18754965Y13915526D01*
X18752493Y13907380D01*
X18744932Y13889126D01*
X18744932Y13869360D01*
X18744097Y13860884D01*
X18740242Y13841503D01*
X18740242Y13841502D01*
X15597745Y13841502D01*
X15597745Y14341502D01*
X16640242Y14341502D01*
X16644097Y14322122D01*
X16644932Y14313645D01*
X16644932Y14293882D01*
X16646902Y14289126D01*
X16652494Y14275624D01*
X16654965Y14267478D01*
X16658822Y14248093D01*
X16658822Y14248092D01*
X16669802Y14231658D01*
X16673815Y14224150D01*
X16681378Y14205895D01*
X16681378Y14205894D01*
X16695350Y14191922D01*
X16700752Y14185339D01*
X16711734Y14168904D01*
X16728163Y14157927D01*
X16728166Y14157925D01*
X16734751Y14152521D01*
X16748723Y14138549D01*
X16766981Y14130986D01*
X16774483Y14126977D01*
X16790923Y14115992D01*
X16810306Y14112137D01*
X16818450Y14109667D01*
X16836712Y14102102D01*
X16856475Y14102102D01*
X16864951Y14101268D01*
X16884332Y14097412D01*
X16903712Y14101268D01*
X16912189Y14102102D01*
X17256475Y14102102D01*
X17264951Y14101268D01*
X17284332Y14097412D01*
X17303712Y14101268D01*
X17312189Y14102102D01*
X17636712Y14102102D01*
X17656475Y14102102D01*
X17664951Y14101268D01*
X17684332Y14097412D01*
X17693739Y14099284D01*
X17705287Y14100010D01*
X17714861Y14099329D01*
X17716490Y14099873D01*
X17730231Y14102102D01*
X17731951Y14102102D01*
X17731952Y14102102D01*
X17750212Y14109666D01*
X17758357Y14112137D01*
X17777741Y14115992D01*
X17785719Y14121324D01*
X17796115Y14126415D01*
X17805212Y14129446D01*
X17806507Y14130569D01*
X17818357Y14137893D01*
X17818494Y14137951D01*
X17819941Y14138549D01*
X17833916Y14152526D01*
X17840491Y14157922D01*
X17856930Y14168904D01*
X17862259Y14176881D01*
X17869915Y14185565D01*
X17877161Y14191847D01*
X17877927Y14193382D01*
X17886070Y14204679D01*
X17887285Y14205893D01*
X17894847Y14224151D01*
X17898863Y14231663D01*
X17909842Y14248093D01*
X17911712Y14257500D01*
X17915466Y14268457D01*
X17919754Y14277033D01*
X17919875Y14278739D01*
X17923074Y14292296D01*
X17923732Y14293882D01*
X17923732Y14313645D01*
X17924567Y14322122D01*
X17924705Y14322814D01*
X17928422Y14341502D01*
X17926549Y14350917D01*
X17925825Y14362469D01*
X17926505Y14372032D01*
X17925961Y14373664D01*
X17923732Y14387402D01*
X17923732Y14713645D01*
X17924567Y14722122D01*
X17928422Y14741502D01*
X17928422Y14741503D01*
X17924567Y14760884D01*
X17923732Y14769360D01*
X17923732Y14789122D01*
X17916167Y14807384D01*
X17913697Y14815528D01*
X17909842Y14834911D01*
X17905438Y14841502D01*
X18840242Y14841502D01*
X18844097Y14822122D01*
X18844932Y14813645D01*
X18844932Y14793882D01*
X18846684Y14789652D01*
X18849812Y14776961D01*
X18850226Y14772409D01*
X18850228Y14772401D01*
X18853362Y14766430D01*
X18857503Y14754718D01*
X18858820Y14748098D01*
X18858823Y14748090D01*
X18869802Y14731658D01*
X18873815Y14724150D01*
X18881378Y14705895D01*
X18881378Y14705894D01*
X18884613Y14702659D01*
X18892362Y14692128D01*
X18894489Y14688075D01*
X18899676Y14683753D01*
X18907981Y14674520D01*
X18911734Y14668904D01*
X18922586Y14661653D01*
X18928167Y14657924D01*
X18934751Y14652521D01*
X18948723Y14638549D01*
X18952946Y14636800D01*
X18964136Y14630037D01*
X18967655Y14627104D01*
X18974095Y14625098D01*
X18985313Y14619740D01*
X18990918Y14615994D01*
X18990922Y14615993D01*
X18990923Y14615992D01*
X19010306Y14612137D01*
X19018450Y14609667D01*
X19036712Y14602102D01*
X19041289Y14602102D01*
X19054213Y14600136D01*
X19058582Y14598774D01*
X19065298Y14599385D01*
X19077712Y14598729D01*
X19084332Y14597412D01*
X19103712Y14601268D01*
X19112189Y14602102D01*
X19456475Y14602102D01*
X19464951Y14601267D01*
X19467274Y14600805D01*
X19484332Y14597412D01*
X19484336Y14597414D01*
X19484585Y14597414D01*
X19484587Y14597413D01*
X19484588Y14597414D01*
X19487758Y14597416D01*
X19487770Y14597416D01*
X19488871Y14597417D01*
X19488871Y14597229D01*
X19491928Y14597304D01*
X19491919Y14597492D01*
X19496191Y14597701D01*
X19496197Y14597700D01*
X19508617Y14600805D01*
X19519155Y14602102D01*
X19531951Y14602102D01*
X19531952Y14602102D01*
X19550212Y14609666D01*
X19558360Y14612137D01*
X19577737Y14615991D01*
X19577737Y14615992D01*
X19577741Y14615992D01*
X19577743Y14615994D01*
X19577853Y14616039D01*
X19577973Y14616090D01*
X19577977Y14616090D01*
X19577980Y14616093D01*
X19578011Y14616105D01*
X19581981Y14617744D01*
X19582048Y14617580D01*
X19590215Y14621206D01*
X19898689Y14698325D01*
X19912304Y14699511D01*
X19914861Y14699329D01*
X19936627Y14706586D01*
X19943970Y14708342D01*
X19966668Y14711718D01*
X19966670Y14711720D01*
X19970697Y14713162D01*
X19970750Y14713012D01*
X19973842Y14714206D01*
X19973782Y14714351D01*
X19981693Y14717629D01*
X19981753Y14717483D01*
X19984789Y14718828D01*
X19984722Y14718971D01*
X19988590Y14720799D01*
X19988590Y14720800D01*
X19988594Y14720800D01*
X19990651Y14722325D01*
X20002783Y14728637D01*
X20005212Y14729446D01*
X20022552Y14744487D01*
X20028658Y14748914D01*
X20048336Y14760719D01*
X20048337Y14760722D01*
X20051506Y14763595D01*
X20051612Y14763478D01*
X20054015Y14765765D01*
X20053903Y14765877D01*
X20059957Y14771931D01*
X20060068Y14771820D01*
X20062358Y14774224D01*
X20062241Y14774330D01*
X20065113Y14777497D01*
X20065112Y14777497D01*
X20065116Y14777499D01*
X20066432Y14779694D01*
X20075225Y14790167D01*
X20077162Y14791846D01*
X20087427Y14812378D01*
X20091374Y14818807D01*
X20105034Y14837242D01*
X20105035Y14837249D01*
X20106861Y14841111D01*
X20107005Y14841043D01*
X20108349Y14844077D01*
X20108204Y14844137D01*
X20111481Y14852049D01*
X20111628Y14851988D01*
X20112823Y14855083D01*
X20112672Y14855137D01*
X20114114Y14859163D01*
X20114116Y14859165D01*
X20114493Y14861700D01*
X20118605Y14874734D01*
X20277932Y15193390D01*
X20286070Y15204679D01*
X20287285Y15205893D01*
X20294847Y15224151D01*
X20298863Y15231663D01*
X20309842Y15248093D01*
X20311712Y15257500D01*
X20315466Y15268457D01*
X20319754Y15277033D01*
X20319875Y15278739D01*
X20323074Y15292296D01*
X20323732Y15293882D01*
X20323732Y15313645D01*
X20324567Y15322122D01*
X20328422Y15341502D01*
X20326549Y15350917D01*
X20325825Y15362469D01*
X20326505Y15372032D01*
X20325961Y15373664D01*
X20323732Y15387402D01*
X20323732Y15706684D01*
X20325029Y15717222D01*
X20328133Y15729637D01*
X20328132Y15729643D01*
X20328341Y15733914D01*
X20328501Y15733907D01*
X20328582Y15737210D01*
X20328424Y15737209D01*
X20328421Y15741498D01*
X20328422Y15741502D01*
X20328421Y15741507D01*
X20328421Y15741754D01*
X20328420Y15741756D01*
X20328421Y15741757D01*
X20324576Y15760983D01*
X20323732Y15769504D01*
X20323732Y15789121D01*
X20323732Y15789122D01*
X20318831Y15800952D01*
X20315998Y15811183D01*
X20314116Y15823838D01*
X20314112Y15823844D01*
X20312671Y15827870D01*
X20312819Y15827924D01*
X20311629Y15831007D01*
X20311486Y15830947D01*
X20309842Y15834909D01*
X20309842Y15834911D01*
X20309840Y15834914D01*
X20309746Y15835141D01*
X20298831Y15851440D01*
X20294792Y15858986D01*
X20287285Y15877111D01*
X20278232Y15886164D01*
X20271697Y15894535D01*
X20265115Y15905506D01*
X20262242Y15908673D01*
X20262358Y15908779D01*
X20260016Y15911239D01*
X20259899Y15911121D01*
X20259697Y15911324D01*
X20259628Y15911407D01*
X20257089Y15913942D01*
X20257015Y15914015D01*
X20256754Y15914276D01*
X20256749Y15914279D01*
X20256749Y15914280D01*
X20245870Y15921533D01*
X20240428Y15925161D01*
X20233807Y15930589D01*
X20219940Y15944456D01*
X20208110Y15949356D01*
X20198875Y15954585D01*
X20188592Y15962204D01*
X20188591Y15962205D01*
X20188590Y15962205D01*
X20184725Y15964031D01*
X20184792Y15964173D01*
X20181684Y15965550D01*
X20181622Y15965399D01*
X20181315Y15965527D01*
X20181207Y15965585D01*
X20177965Y15966920D01*
X20177840Y15966972D01*
X20177515Y15967107D01*
X20158266Y15970916D01*
X20150075Y15973396D01*
X20143780Y15976003D01*
X20131952Y15980902D01*
X20131950Y15980902D01*
X20119150Y15980902D01*
X20108613Y15982199D01*
X20096193Y15985304D01*
X20091920Y15985512D01*
X20091927Y15985668D01*
X20088482Y15985751D01*
X20088482Y15985576D01*
X20088073Y15985578D01*
X20087791Y15985606D01*
X20084493Y15985593D01*
X20084171Y15985593D01*
X20084088Y15985594D01*
X20064851Y15981746D01*
X20056330Y15980902D01*
X20036709Y15980902D01*
X20024881Y15976003D01*
X20014654Y15973171D01*
X20010182Y15972505D01*
X20001992Y15971286D01*
X19997969Y15969844D01*
X19997916Y15969990D01*
X19994708Y15968752D01*
X19994775Y15968590D01*
X19994352Y15968417D01*
X19994045Y15968324D01*
X19991079Y15967078D01*
X19990747Y15966940D01*
X19990698Y15966921D01*
X19974390Y15956000D01*
X19966846Y15951963D01*
X19961830Y15949886D01*
X19948722Y15944455D01*
X19948721Y15944454D01*
X19939670Y15935404D01*
X19931305Y15928874D01*
X19503302Y15672072D01*
X19494817Y15668795D01*
X19494877Y15668650D01*
X19490921Y15667012D01*
X19463763Y15648866D01*
X19459819Y15646522D01*
X19430907Y15631347D01*
X19429583Y15630277D01*
X19421594Y15623435D01*
X19417159Y15619411D01*
X19417054Y15619527D01*
X19414650Y15617237D01*
X19414760Y15617127D01*
X19411737Y15614104D01*
X19393589Y15586945D01*
X19390841Y15583270D01*
X18926585Y15026162D01*
X18917348Y15017852D01*
X18911735Y15014102D01*
X18900752Y14997666D01*
X18895352Y14991086D01*
X18881378Y14977112D01*
X18881378Y14977111D01*
X18879625Y14972879D01*
X18872867Y14961700D01*
X18869934Y14958181D01*
X18869933Y14958179D01*
X18867925Y14951733D01*
X18862573Y14940525D01*
X18858822Y14934911D01*
X18854965Y14915526D01*
X18852493Y14907380D01*
X18844932Y14889126D01*
X18844932Y14884545D01*
X18842965Y14871621D01*
X18841604Y14867252D01*
X18842215Y14860527D01*
X18841558Y14848121D01*
X18840242Y14841504D01*
X18840242Y14841502D01*
X17905438Y14841502D01*
X17898857Y14851351D01*
X17894848Y14858853D01*
X17887285Y14877111D01*
X17873313Y14891083D01*
X17867909Y14897668D01*
X17856930Y14914100D01*
X17856927Y14914102D01*
X17840497Y14925080D01*
X17833912Y14930484D01*
X17819940Y14944456D01*
X17801684Y14952019D01*
X17794176Y14956032D01*
X17777742Y14967012D01*
X17758356Y14970869D01*
X17750210Y14973340D01*
X17747417Y14974497D01*
X17731952Y14980902D01*
X17731950Y14980902D01*
X17712189Y14980902D01*
X17703712Y14981737D01*
X17684332Y14985592D01*
X17664952Y14981737D01*
X17656475Y14980902D01*
X17312189Y14980902D01*
X17303712Y14981737D01*
X17284332Y14985592D01*
X17264952Y14981737D01*
X17256475Y14980902D01*
X16912189Y14980902D01*
X16903712Y14981737D01*
X16884333Y14985592D01*
X16884330Y14985592D01*
X16874918Y14983721D01*
X16863370Y14982996D01*
X16853803Y14983676D01*
X16852174Y14983132D01*
X16838434Y14980902D01*
X16836708Y14980902D01*
X16818454Y14973341D01*
X16810308Y14970869D01*
X16790921Y14967012D01*
X16782946Y14961683D01*
X16772553Y14956593D01*
X16763453Y14953559D01*
X16763449Y14953557D01*
X16762148Y14952428D01*
X16750320Y14945117D01*
X16749904Y14944945D01*
X16748721Y14944455D01*
X16734750Y14930483D01*
X16728167Y14925081D01*
X16711735Y14914102D01*
X16711732Y14914099D01*
X16706401Y14906122D01*
X16698750Y14897446D01*
X16691501Y14891159D01*
X16690728Y14889611D01*
X16682595Y14878328D01*
X16681380Y14877114D01*
X16681378Y14877111D01*
X16673815Y14858853D01*
X16669802Y14851346D01*
X16658822Y14834912D01*
X16658822Y14834911D01*
X16656950Y14825501D01*
X16653198Y14814550D01*
X16648910Y14805975D01*
X16648909Y14805970D01*
X16648787Y14804253D01*
X16645591Y14790714D01*
X16644932Y14789124D01*
X16644932Y14769360D01*
X16644097Y14760883D01*
X16640242Y14741503D01*
X16640242Y14741502D01*
X16642113Y14732090D01*
X16642838Y14720542D01*
X16642158Y14710974D01*
X16642702Y14709344D01*
X16644932Y14695604D01*
X16644932Y14369360D01*
X16644097Y14360884D01*
X16640242Y14341503D01*
X16640242Y14341502D01*
X15597745Y14341502D01*
X15597745Y15380111D01*
X15597751Y15380180D01*
X15597749Y15384547D01*
X15597751Y15384549D01*
X15597745Y15406358D01*
X15597745Y15424502D01*
X15597745Y15424514D01*
X15597742Y15424526D01*
X15592359Y15437510D01*
X15589257Y15444993D01*
X15582445Y15461440D01*
X15582442Y15461443D01*
X15582439Y15461451D01*
X15582434Y15461459D01*
X15582430Y15461465D01*
X15566531Y15477354D01*
X15566525Y15477367D01*
X15566522Y15477363D01*
X15554168Y15489717D01*
X15554156Y15489725D01*
X15554150Y15489728D01*
X15534198Y15497985D01*
X15534197Y15497986D01*
X15534198Y15497988D01*
X15534183Y15497991D01*
X15528141Y15500494D01*
X15517233Y15505013D01*
X15517210Y15505017D01*
X15517207Y15505017D01*
X15501748Y15505013D01*
X15496595Y15505011D01*
X15473568Y15505011D01*
X15473496Y15505005D01*
X591Y15500500D01*
X-20004Y15500500D01*
X-20019Y15500495D01*
X-20020Y15500494D01*
X-37564Y15493222D01*
X-56944Y15485195D01*
X-71080Y15471051D01*
X-71086Y15471044D01*
X-85211Y15456919D01*
X-93240Y15437519D01*
X-93244Y15437510D01*
X-100503Y15419985D01*
X-100506Y15419967D01*
X-100506Y15419963D01*
X-100506Y15419962D01*
X-11797670Y15419962D01*
X-11797670Y16160971D01*
X7751748Y16160971D01*
X7770328Y16067562D01*
X7823240Y15988373D01*
X7902429Y15935461D01*
X7995838Y15916881D01*
X8089247Y15935461D01*
X8122234Y15957502D01*
X16022242Y15957502D01*
X16040822Y15864093D01*
X16064268Y15829003D01*
X16090915Y15789122D01*
X16093734Y15784904D01*
X16172923Y15731992D01*
X16266332Y15713412D01*
X16359741Y15731992D01*
X16438930Y15784904D01*
X16491842Y15864093D01*
X16510422Y15957502D01*
X16491842Y16050911D01*
X16438930Y16130100D01*
X16359741Y16183012D01*
X16266332Y16201592D01*
X16172923Y16183012D01*
X16093734Y16130101D01*
X16093733Y16130100D01*
X16051948Y16067563D01*
X16040822Y16050911D01*
X16022242Y15957502D01*
X8122234Y15957502D01*
X8168436Y15988373D01*
X8221348Y16067562D01*
X8239928Y16160971D01*
X8221348Y16254380D01*
X8168436Y16333569D01*
X8156563Y16341502D01*
X19440242Y16341502D01*
X19444097Y16322122D01*
X19444932Y16313645D01*
X19444932Y16293882D01*
X19451337Y16278417D01*
X19452494Y16275624D01*
X19454965Y16267478D01*
X19458822Y16248093D01*
X19458822Y16248092D01*
X19469802Y16231658D01*
X19473815Y16224150D01*
X19481378Y16205895D01*
X19481378Y16205894D01*
X19495350Y16191922D01*
X19500752Y16185339D01*
X19502307Y16183012D01*
X19511733Y16168905D01*
X19528166Y16157925D01*
X19534751Y16152521D01*
X19548723Y16138549D01*
X19566981Y16130986D01*
X19574483Y16126977D01*
X19590923Y16115992D01*
X19610306Y16112137D01*
X19618450Y16109667D01*
X19636712Y16102102D01*
X19656475Y16102102D01*
X19664951Y16101268D01*
X19684332Y16097412D01*
X19703712Y16101268D01*
X19712189Y16102102D01*
X19731952Y16102102D01*
X20036712Y16102102D01*
X20056475Y16102102D01*
X20064951Y16101268D01*
X20084332Y16097412D01*
X20103712Y16101268D01*
X20112189Y16102102D01*
X20131951Y16102102D01*
X20131952Y16102102D01*
X20150212Y16109666D01*
X20158357Y16112137D01*
X20177741Y16115992D01*
X20194178Y16126976D01*
X20201679Y16130986D01*
X20219941Y16138549D01*
X20233917Y16152527D01*
X20240486Y16157918D01*
X20256930Y16168904D01*
X20267916Y16185348D01*
X20273307Y16191917D01*
X20287285Y16205893D01*
X20294848Y16224155D01*
X20298860Y16231658D01*
X20309842Y16248093D01*
X20313698Y16267478D01*
X20316169Y16275624D01*
X20323732Y16293882D01*
X20323732Y16313645D01*
X20324567Y16322122D01*
X20328422Y16341502D01*
X20328422Y16341503D01*
X20324567Y16360884D01*
X20323732Y16369360D01*
X20323732Y16713645D01*
X20324567Y16722122D01*
X20328422Y16741502D01*
X20328422Y16741503D01*
X20324567Y16760884D01*
X20323732Y16769360D01*
X20323732Y16789122D01*
X20316167Y16807384D01*
X20313697Y16815528D01*
X20309842Y16834911D01*
X20298857Y16851351D01*
X20294847Y16858854D01*
X20287285Y16877111D01*
X20273313Y16891083D01*
X20267909Y16897668D01*
X20256930Y16914100D01*
X20256927Y16914102D01*
X20240497Y16925080D01*
X20233912Y16930484D01*
X20219940Y16944456D01*
X20201684Y16952019D01*
X20194176Y16956032D01*
X20177742Y16967012D01*
X20158356Y16970869D01*
X20150210Y16973340D01*
X20147417Y16974497D01*
X20131952Y16980902D01*
X20131950Y16980902D01*
X20112189Y16980902D01*
X20103712Y16981737D01*
X20084332Y16985592D01*
X20064952Y16981737D01*
X20056475Y16980902D01*
X19712189Y16980902D01*
X19703712Y16981737D01*
X19684332Y16985592D01*
X19664952Y16981737D01*
X19656475Y16980902D01*
X19636708Y16980902D01*
X19618454Y16973341D01*
X19610308Y16970869D01*
X19590921Y16967012D01*
X19574490Y16956033D01*
X19566980Y16952019D01*
X19548725Y16944458D01*
X19548724Y16944457D01*
X19534746Y16930480D01*
X19528165Y16925080D01*
X19511736Y16914102D01*
X19511732Y16914098D01*
X19500754Y16897669D01*
X19495354Y16891088D01*
X19481377Y16877110D01*
X19481376Y16877109D01*
X19473815Y16858854D01*
X19469801Y16851344D01*
X19458822Y16834913D01*
X19454965Y16815526D01*
X19452493Y16807380D01*
X19444932Y16789126D01*
X19444932Y16769360D01*
X19444097Y16760884D01*
X19440242Y16741503D01*
X19440242Y16741502D01*
X19444097Y16722122D01*
X19444932Y16713645D01*
X19444932Y16369360D01*
X19444097Y16360884D01*
X19440242Y16341503D01*
X19440242Y16341502D01*
X8156563Y16341502D01*
X8127556Y16360884D01*
X8089247Y16386481D01*
X7995838Y16405061D01*
X7902429Y16386481D01*
X7823240Y16333570D01*
X7823239Y16333569D01*
X7781882Y16271672D01*
X7770328Y16254380D01*
X7751748Y16160971D01*
X-11797670Y16160971D01*
X-11797670Y16641502D01*
X7340242Y16641502D01*
X7358822Y16548093D01*
X7411734Y16468904D01*
X7490923Y16415992D01*
X7584332Y16397412D01*
X7677741Y16415992D01*
X7756930Y16468904D01*
X7809842Y16548093D01*
X7828422Y16641502D01*
X9590242Y16641502D01*
X9608822Y16548093D01*
X9661734Y16468904D01*
X9740923Y16415992D01*
X9834332Y16397412D01*
X9927741Y16415992D01*
X10006930Y16468904D01*
X10059842Y16548093D01*
X10078422Y16641502D01*
X12590242Y16641502D01*
X12608822Y16548093D01*
X12661734Y16468904D01*
X12740923Y16415992D01*
X12834332Y16397412D01*
X12927741Y16415992D01*
X13006930Y16468904D01*
X13059842Y16548093D01*
X13078422Y16641502D01*
X13059842Y16734911D01*
X13020599Y16793642D01*
X14840242Y16793642D01*
X14858822Y16700233D01*
X14894175Y16647322D01*
X14898064Y16641502D01*
X14911734Y16621044D01*
X14990923Y16568132D01*
X15084332Y16549552D01*
X15177741Y16568132D01*
X15256930Y16621044D01*
X15309842Y16700233D01*
X15328422Y16793642D01*
X15840242Y16793642D01*
X15858822Y16700233D01*
X15894175Y16647322D01*
X15898064Y16641502D01*
X15911734Y16621044D01*
X15990923Y16568132D01*
X16084332Y16549552D01*
X16177741Y16568132D01*
X16256930Y16621044D01*
X16309842Y16700233D01*
X16328422Y16793642D01*
X16309842Y16887051D01*
X16256930Y16966240D01*
X16250002Y16970869D01*
X16227967Y16985592D01*
X16177741Y17019152D01*
X16084332Y17037732D01*
X15990923Y17019152D01*
X15911734Y16966241D01*
X15911733Y16966240D01*
X15876896Y16914101D01*
X15858822Y16887051D01*
X15840242Y16793642D01*
X15328422Y16793642D01*
X15309842Y16887051D01*
X15256930Y16966240D01*
X15250002Y16970869D01*
X15227967Y16985592D01*
X15177741Y17019152D01*
X15084332Y17037732D01*
X14990923Y17019152D01*
X14911734Y16966241D01*
X14911733Y16966240D01*
X14876896Y16914101D01*
X14858822Y16887051D01*
X14840242Y16793642D01*
X13020599Y16793642D01*
X13006930Y16814100D01*
X13004785Y16815533D01*
X12975781Y16834913D01*
X12927741Y16867012D01*
X12834332Y16885592D01*
X12740923Y16867012D01*
X12661734Y16814101D01*
X12661733Y16814100D01*
X12626176Y16760884D01*
X12608822Y16734911D01*
X12590242Y16641502D01*
X10078422Y16641502D01*
X10059842Y16734911D01*
X10006930Y16814100D01*
X10004785Y16815533D01*
X9975781Y16834913D01*
X9927741Y16867012D01*
X9834332Y16885592D01*
X9740923Y16867012D01*
X9661734Y16814101D01*
X9661733Y16814100D01*
X9626176Y16760884D01*
X9608822Y16734911D01*
X9590242Y16641502D01*
X7828422Y16641502D01*
X7809842Y16734911D01*
X7756930Y16814100D01*
X7754785Y16815533D01*
X7725781Y16834913D01*
X7677741Y16867012D01*
X7584332Y16885592D01*
X7490923Y16867012D01*
X7411734Y16814101D01*
X7411733Y16814100D01*
X7376176Y16760884D01*
X7358822Y16734911D01*
X7340242Y16641502D01*
X-11797670Y16641502D01*
X-11797670Y17641502D01*
X7340242Y17641502D01*
X7358822Y17548093D01*
X7411734Y17468904D01*
X7490923Y17415992D01*
X7584332Y17397412D01*
X7677741Y17415992D01*
X7715920Y17441502D01*
X19440242Y17441502D01*
X19444097Y17422122D01*
X19444932Y17413645D01*
X19444932Y17393882D01*
X19451337Y17378417D01*
X19452494Y17375624D01*
X19454965Y17367478D01*
X19458822Y17348093D01*
X19458822Y17348092D01*
X19469802Y17331658D01*
X19473815Y17324150D01*
X19481378Y17305895D01*
X19481378Y17305894D01*
X19495350Y17291922D01*
X19500752Y17285339D01*
X19505633Y17278035D01*
X19511733Y17268905D01*
X19528166Y17257925D01*
X19534751Y17252521D01*
X19548723Y17238549D01*
X19566981Y17230986D01*
X19574483Y17226977D01*
X19590923Y17215992D01*
X19610306Y17212137D01*
X19618450Y17209667D01*
X19636712Y17202102D01*
X19656475Y17202102D01*
X19664951Y17201268D01*
X19684332Y17197412D01*
X19703712Y17201268D01*
X19712189Y17202102D01*
X19731952Y17202102D01*
X20036712Y17202102D01*
X20056475Y17202102D01*
X20064951Y17201268D01*
X20084332Y17197412D01*
X20103712Y17201268D01*
X20112189Y17202102D01*
X20131951Y17202102D01*
X20131952Y17202102D01*
X20150212Y17209666D01*
X20158357Y17212137D01*
X20177741Y17215992D01*
X20194178Y17226976D01*
X20201679Y17230986D01*
X20219941Y17238549D01*
X20233917Y17252527D01*
X20240486Y17257918D01*
X20256930Y17268904D01*
X20267916Y17285348D01*
X20273307Y17291917D01*
X20287285Y17305893D01*
X20294848Y17324155D01*
X20298860Y17331658D01*
X20309842Y17348093D01*
X20313698Y17367478D01*
X20316169Y17375624D01*
X20323732Y17393882D01*
X20323732Y17413645D01*
X20324567Y17422122D01*
X20328422Y17441502D01*
X20328422Y17441503D01*
X20324567Y17460884D01*
X20323732Y17469360D01*
X20323732Y17813645D01*
X20324567Y17822122D01*
X20328422Y17841502D01*
X20328422Y17841503D01*
X20324567Y17860884D01*
X20323732Y17869360D01*
X20323732Y17889122D01*
X20316167Y17907384D01*
X20313697Y17915528D01*
X20309842Y17934911D01*
X20298857Y17951351D01*
X20294848Y17958853D01*
X20287285Y17977111D01*
X20273313Y17991083D01*
X20267909Y17997668D01*
X20256930Y18014100D01*
X20256927Y18014102D01*
X20240497Y18025080D01*
X20233912Y18030484D01*
X20219940Y18044456D01*
X20201684Y18052019D01*
X20194176Y18056032D01*
X20177742Y18067012D01*
X20158356Y18070869D01*
X20150210Y18073340D01*
X20147417Y18074497D01*
X20131952Y18080902D01*
X20131950Y18080902D01*
X20112189Y18080902D01*
X20103712Y18081737D01*
X20084332Y18085592D01*
X20064952Y18081737D01*
X20056475Y18080902D01*
X19712189Y18080902D01*
X19703712Y18081737D01*
X19684332Y18085592D01*
X19664952Y18081737D01*
X19656475Y18080902D01*
X19636708Y18080902D01*
X19618454Y18073341D01*
X19610308Y18070869D01*
X19590921Y18067012D01*
X19574490Y18056033D01*
X19566980Y18052019D01*
X19548725Y18044458D01*
X19548724Y18044457D01*
X19534746Y18030480D01*
X19528165Y18025080D01*
X19511736Y18014102D01*
X19511733Y18014099D01*
X19500754Y17997669D01*
X19495354Y17991089D01*
X19481379Y17977113D01*
X19481377Y17977110D01*
X19477766Y17968390D01*
X19477764Y17968384D01*
X19473814Y17958851D01*
X19469802Y17951346D01*
X19458822Y17934911D01*
X19454965Y17915526D01*
X19452493Y17907380D01*
X19444932Y17889126D01*
X19444932Y17869360D01*
X19444097Y17860884D01*
X19440242Y17841503D01*
X19440242Y17841502D01*
X19444097Y17822122D01*
X19444932Y17813645D01*
X19444932Y17469360D01*
X19444097Y17460884D01*
X19440242Y17441503D01*
X19440242Y17441502D01*
X7715920Y17441502D01*
X7756930Y17468904D01*
X7809842Y17548093D01*
X7828422Y17641502D01*
X7809842Y17734911D01*
X7804519Y17742877D01*
X14700620Y17742877D01*
X14719200Y17649468D01*
X14772112Y17570279D01*
X14851301Y17517367D01*
X14944710Y17498787D01*
X15038119Y17517367D01*
X15117308Y17570279D01*
X15170220Y17649468D01*
X15188800Y17742877D01*
X15170220Y17836286D01*
X15117308Y17915475D01*
X15117221Y17915533D01*
X15088220Y17934911D01*
X15038119Y17968387D01*
X14944710Y17986967D01*
X14851301Y17968387D01*
X14772112Y17915476D01*
X14772111Y17915475D01*
X14722686Y17841503D01*
X14719200Y17836286D01*
X14700620Y17742877D01*
X7804519Y17742877D01*
X7756930Y17814100D01*
X7677741Y17867012D01*
X7584332Y17885592D01*
X7490923Y17867012D01*
X7411734Y17814101D01*
X7411733Y17814100D01*
X7364145Y17742877D01*
X7358822Y17734911D01*
X7340242Y17641502D01*
X-11797670Y17641502D01*
X-11797670Y18224942D01*
X17354824Y18224942D01*
X17373404Y18131533D01*
X17404101Y18085592D01*
X17423851Y18056032D01*
X17426316Y18052344D01*
X17505505Y17999432D01*
X17598914Y17980852D01*
X17692323Y17999432D01*
X17771512Y18052344D01*
X17824424Y18131533D01*
X17843004Y18224942D01*
X17824424Y18318351D01*
X17771512Y18397540D01*
X17692323Y18450452D01*
X17598914Y18469032D01*
X17505505Y18450452D01*
X17426316Y18397541D01*
X17426315Y18397540D01*
X17373404Y18318351D01*
X17354824Y18224942D01*
X-11797670Y18224942D01*
X-11797670Y18593642D01*
X15054824Y18593642D01*
X15073404Y18500233D01*
X15126316Y18421044D01*
X15205505Y18368132D01*
X15298914Y18349552D01*
X15392323Y18368132D01*
X15471512Y18421044D01*
X15524424Y18500233D01*
X15543004Y18593642D01*
X15524424Y18687051D01*
X15471512Y18766240D01*
X15392323Y18819152D01*
X15298914Y18837732D01*
X15205505Y18819152D01*
X15126316Y18766241D01*
X15126315Y18766240D01*
X15096117Y18721044D01*
X15073404Y18687051D01*
X15054824Y18593642D01*
X-11797670Y18593642D01*
X-11797670Y18893642D01*
X20002372Y18893642D01*
X20020952Y18800233D01*
X20073864Y18721044D01*
X20153053Y18668132D01*
X20246462Y18649552D01*
X20339871Y18668132D01*
X20419060Y18721044D01*
X20471972Y18800233D01*
X20490552Y18893642D01*
X20471972Y18987051D01*
X20419060Y19066240D01*
X20339871Y19119152D01*
X20246462Y19137732D01*
X20153053Y19119152D01*
X20073864Y19066241D01*
X20073863Y19066240D01*
X20020952Y18987051D01*
X20002372Y18893642D01*
X-11797670Y18893642D01*
X-11797670Y22755266D01*
X-11784944Y22785990D01*
X-11780676Y22789734D01*
X-11732065Y22827033D01*
X-11637590Y22950155D01*
X-11578201Y23093534D01*
X-11578201Y23093542D01*
X-11578199Y23093544D01*
X-11564962Y23194094D01*
X-11563030Y23208767D01*
X-11563031Y23286028D01*
X-11578201Y23401262D01*
X-11637590Y23544641D01*
X-11732065Y23667763D01*
X-11732067Y23667765D01*
X-11806735Y23725059D01*
X-11855187Y23762238D01*
X-11855188Y23762239D01*
X-11855190Y23762240D01*
X-11855191Y23762241D01*
X-11906133Y23783342D01*
X-11929648Y23806857D01*
X-11932955Y23823484D01*
X-11932955Y23929530D01*
X-11934482Y23933214D01*
X-11934483Y23933224D01*
X-11934485Y23933222D01*
X-11950875Y23972793D01*
X-11973207Y24026708D01*
X-12047584Y24101085D01*
X-12047586Y24101086D01*
X-12066177Y24119677D01*
X-12066177Y24119678D01*
X-12140554Y24194055D01*
X-12193542Y24216003D01*
X-12193543Y24216004D01*
X-12193544Y24216004D01*
X-12237732Y24234308D01*
X-12237733Y24234308D01*
X-12342917Y24234308D01*
X-12347972Y24234308D01*
X-12347980Y24234307D01*
X-13480207Y24234307D01*
X-13502232Y24240303D01*
X-13762748Y24393503D01*
X-13782781Y24420047D01*
X-13783497Y24423321D01*
X-13832279Y24696569D01*
X-13832955Y24704205D01*
X-13832955Y24729529D01*
X-13840306Y24747276D01*
X-13842937Y24756267D01*
X-13846313Y24775179D01*
X-13859969Y24796514D01*
X-13863516Y24803310D01*
X-13866497Y24810508D01*
X-13873207Y24826708D01*
X-13886792Y24840293D01*
X-13888442Y24842344D01*
X-10924108Y24842344D01*
X-10905528Y24748935D01*
X-10852616Y24669746D01*
X-10773427Y24616834D01*
X-10680018Y24598254D01*
X-10586609Y24616834D01*
X-10507420Y24669746D01*
X-10454508Y24748935D01*
X-10435928Y24842344D01*
X-10454508Y24935753D01*
X-10454510Y24935756D01*
X-10454510Y24935757D01*
X-10457148Y24939705D01*
X-10463636Y24972321D01*
X-10459882Y24983279D01*
X-10444047Y25014942D01*
X-10361315Y25180374D01*
X-10336191Y25202159D01*
X-10330938Y25203552D01*
X-10289021Y25211888D01*
X-10209832Y25264800D01*
X-10156920Y25343989D01*
X-10138340Y25437398D01*
X-10156920Y25530807D01*
X-10209832Y25609996D01*
X-10210389Y25610368D01*
X-10242404Y25631760D01*
X-10289021Y25662908D01*
X-10382430Y25681488D01*
X-10475839Y25662908D01*
X-10555028Y25609997D01*
X-10555029Y25609996D01*
X-10607940Y25530807D01*
X-10626520Y25437398D01*
X-10607940Y25343990D01*
X-10607939Y25343987D01*
X-10605300Y25340037D01*
X-10598814Y25307421D01*
X-10602568Y25296465D01*
X-10701135Y25099371D01*
X-10726259Y25077585D01*
X-10731518Y25076191D01*
X-10773427Y25067854D01*
X-10852616Y25014943D01*
X-10852617Y25014942D01*
X-10900803Y24942824D01*
X-10905528Y24935753D01*
X-10924108Y24842344D01*
X-13888442Y24842344D01*
X-13892664Y24847594D01*
X-13903018Y24863771D01*
X-13903019Y24863772D01*
X-13923796Y24878254D01*
X-13929674Y24883175D01*
X-13947585Y24901086D01*
X-13965334Y24908438D01*
X-13973552Y24912935D01*
X-13989305Y24923916D01*
X-13989309Y24923918D01*
X-14014054Y24929349D01*
X-14021362Y24931645D01*
X-14044763Y24941337D01*
X-14063972Y24941337D01*
X-14073285Y24942347D01*
X-14092050Y24946465D01*
X-14115116Y24942347D01*
X-14116987Y24942013D01*
X-14124623Y24941337D01*
X-14448869Y24941337D01*
X-14462223Y24943440D01*
X-14466134Y24944703D01*
X-14506233Y24941477D01*
X-14509717Y24941337D01*
X-14841011Y24941337D01*
X-14848570Y24942721D01*
X-14848670Y24942118D01*
X-14852890Y24942824D01*
X-14852891Y24942824D01*
X-14900744Y24941357D01*
X-14902075Y24941337D01*
X-15262290Y24941337D01*
X-15272060Y24942450D01*
X-15289144Y24946393D01*
X-15289152Y24946393D01*
X-15300284Y24944530D01*
X-15311826Y24944155D01*
X-15323051Y24945291D01*
X-15323055Y24945290D01*
X-15330098Y24943174D01*
X-15342598Y24941337D01*
X-15349950Y24941337D01*
X-15366147Y24934628D01*
X-15375597Y24931918D01*
X-15392887Y24929023D01*
X-15402464Y24923039D01*
X-15412983Y24918276D01*
X-15423794Y24915028D01*
X-15429492Y24910377D01*
X-15440333Y24903899D01*
X-15447126Y24901085D01*
X-15459527Y24888686D01*
X-15467216Y24882569D01*
X-15482085Y24873275D01*
X-15488640Y24864084D01*
X-15496538Y24855655D01*
X-15505281Y24848519D01*
X-15505285Y24848515D01*
X-15508765Y24842045D01*
X-15516301Y24831911D01*
X-15521503Y24826709D01*
X-15528214Y24810508D01*
X-15532979Y24801912D01*
X-15543158Y24787638D01*
X-15543159Y24787637D01*
X-15545698Y24776637D01*
X-15549770Y24765827D01*
X-15633454Y24610276D01*
X-15659217Y24589248D01*
X-15692303Y24592597D01*
X-15713331Y24618360D01*
X-15715168Y24630861D01*
X-15715168Y25671115D01*
X-15249894Y25671115D01*
X-15248335Y25649189D01*
X-15246939Y25629543D01*
X-15246830Y25626463D01*
X-15246830Y25384806D01*
X-15206578Y25287627D01*
X-15132201Y25213250D01*
X-15035022Y25172998D01*
X-15035021Y25172998D01*
X-14129839Y25172998D01*
X-14129838Y25172998D01*
X-14032659Y25213250D01*
X-13958282Y25287627D01*
X-13955714Y25293828D01*
X-13932200Y25317343D01*
X-13898945Y25317344D01*
X-13879444Y25301340D01*
X-13855032Y25264804D01*
X-13855029Y25264801D01*
X-13855028Y25264800D01*
X-13775839Y25211888D01*
X-13682430Y25193308D01*
X-13589021Y25211888D01*
X-13509832Y25264800D01*
X-13493557Y25289158D01*
X-13465908Y25307633D01*
X-13433291Y25301146D01*
X-13421304Y25289159D01*
X-13405028Y25264800D01*
X-13325839Y25211888D01*
X-13232430Y25193308D01*
X-13139021Y25211888D01*
X-13059832Y25264800D01*
X-13006920Y25343989D01*
X-12988340Y25437398D01*
X-13006920Y25530807D01*
X-13006921Y25530808D01*
X-13007755Y25535004D01*
X-13005562Y25535441D01*
X-13005581Y25560767D01*
X-12982084Y25584300D01*
X-12948829Y25584325D01*
X-12946796Y25583423D01*
X-12945095Y25582616D01*
X-12945094Y25582616D01*
X-12945091Y25582614D01*
X-12938323Y25580910D01*
X-12926563Y25576021D01*
X-12923055Y25573914D01*
X-12920582Y25572428D01*
X-12911640Y25571093D01*
X-12899981Y25567629D01*
X-12891751Y25563860D01*
X-12871632Y25563122D01*
X-12862612Y25561836D01*
X-12843093Y25556918D01*
X-12836189Y25557933D01*
X-12823458Y25557919D01*
X-12816552Y25556886D01*
X-12807778Y25559075D01*
X-12795676Y25560336D01*
X-12786637Y25560004D01*
X-12767775Y25567020D01*
X-12758950Y25569284D01*
X-12739025Y25572210D01*
X-12733040Y25575788D01*
X-12721260Y25580651D01*
X-12714492Y25582338D01*
X-12714491Y25582339D01*
X-12714490Y25582339D01*
X-12707223Y25587717D01*
X-12696520Y25593518D01*
X-12688049Y25596667D01*
X-12673304Y25610370D01*
X-12666018Y25615837D01*
X-12648732Y25626165D01*
X-12644571Y25631761D01*
X-12635555Y25640756D01*
X-12629942Y25644909D01*
X-12625284Y25652664D01*
X-12617623Y25662108D01*
X-12610994Y25668266D01*
X-12602607Y25686585D01*
X-12597971Y25694418D01*
X-12585960Y25710565D01*
X-12584256Y25717332D01*
X-12579371Y25729086D01*
X-12550399Y25777310D01*
X-12523669Y25797091D01*
X-12490779Y25792177D01*
X-12470996Y25765446D01*
X-12470540Y25763409D01*
X-12458495Y25702856D01*
X-12428475Y25657927D01*
X-12407254Y25626167D01*
X-12405583Y25623667D01*
X-12326394Y25570755D01*
X-12232985Y25552175D01*
X-12139576Y25570755D01*
X-12060387Y25623667D01*
X-12007475Y25702856D01*
X-11988895Y25796265D01*
X-12007475Y25889674D01*
X-12060387Y25968863D01*
X-12066576Y25972998D01*
X-12086665Y25986422D01*
X-12139576Y26021775D01*
X-12232985Y26040355D01*
X-12232986Y26040355D01*
X-12311145Y26024809D01*
X-12343761Y26031297D01*
X-12362236Y26058948D01*
X-12359764Y26084051D01*
X-12358284Y26087626D01*
X-12358282Y26087627D01*
X-12346906Y26115096D01*
X-12344010Y26120839D01*
X-12328703Y26146316D01*
X-12326519Y26160938D01*
X-12323691Y26171143D01*
X-12318030Y26184806D01*
X-12318030Y26214524D01*
X-12317553Y26220944D01*
X-12317154Y26223620D01*
X-12313160Y26250347D01*
X-12316739Y26264700D01*
X-12318030Y26275212D01*
X-12318030Y26689990D01*
X-12338156Y26738580D01*
X-12358282Y26787169D01*
X-12432659Y26861546D01*
X-12529838Y26901798D01*
X-12529839Y26901798D01*
X-12924775Y26901798D01*
X-12924783Y26901799D01*
X-12929838Y26901799D01*
X-13035022Y26901799D01*
X-13040077Y26901799D01*
X-13040085Y26901798D01*
X-13324775Y26901798D01*
X-13324783Y26901799D01*
X-13329838Y26901799D01*
X-13435022Y26901799D01*
X-13440077Y26901799D01*
X-13440085Y26901798D01*
X-13724775Y26901798D01*
X-13724783Y26901799D01*
X-13729838Y26901799D01*
X-13835022Y26901799D01*
X-13840077Y26901799D01*
X-13840085Y26901798D01*
X-14124775Y26901798D01*
X-14124783Y26901799D01*
X-14129838Y26901799D01*
X-14235022Y26901799D01*
X-14240077Y26901799D01*
X-14240085Y26901798D01*
X-14552272Y26901798D01*
X-14560703Y26902624D01*
X-14566378Y26903747D01*
X-14582715Y26906979D01*
X-14602339Y26903053D01*
X-14604394Y26902642D01*
X-14612914Y26901798D01*
X-14924775Y26901798D01*
X-14924783Y26901799D01*
X-14929838Y26901799D01*
X-15035022Y26901799D01*
X-15071799Y26886565D01*
X-15132201Y26861546D01*
X-15132203Y26861545D01*
X-15206577Y26787171D01*
X-15246831Y26689989D01*
X-15246831Y26579752D01*
X-15246830Y26579743D01*
X-15246830Y26293500D01*
X-15246831Y26293486D01*
X-15246831Y26179752D01*
X-15246830Y26179743D01*
X-15246830Y25687359D01*
X-15249060Y25673619D01*
X-15249894Y25671118D01*
X-15249894Y25671116D01*
X-15249894Y25671115D01*
X-15715168Y25671115D01*
X-15715168Y25955734D01*
X-15715136Y25957411D01*
X-15715113Y25957994D01*
X-15700638Y26332803D01*
X-15700379Y26336134D01*
X-15675923Y26546366D01*
X-15657071Y26708439D01*
X-15656556Y26711741D01*
X-15584662Y27079605D01*
X-15583901Y27082834D01*
X-15483847Y27444067D01*
X-15482837Y27447233D01*
X-15355228Y27799660D01*
X-15353966Y27802764D01*
X-15240811Y28053048D01*
X-15199546Y28144321D01*
X-15198066Y28147284D01*
X-15017584Y28476244D01*
X-15016775Y28477655D01*
X-14633962Y29115677D01*
X-14540780Y29270914D01*
X-14364712Y29623442D01*
X-14216362Y29988503D01*
X-14096617Y30363919D01*
X-14006189Y30747454D01*
X-13945617Y31136822D01*
X-13915263Y31529703D01*
X-13915320Y31726728D01*
X-13915323Y31753657D01*
X-13915324Y31753658D01*
X-13915324Y31762295D01*
X-13915325Y31762301D01*
X-13916422Y41792759D01*
X-13916422Y41811018D01*
X-13916424Y41811027D01*
X-13916424Y41811030D01*
X-13931728Y41847966D01*
X-13960002Y41876234D01*
X-13960005Y41876236D01*
X-13960006Y41876236D01*
X-13996937Y41891529D01*
X-13996942Y41891530D01*
X-13996943Y41891530D01*
X-14041086Y41891527D01*
X-14041199Y41891515D01*
X-20675817Y41891515D01*
X-20680075Y41891724D01*
X-20849165Y41908375D01*
X-20857518Y41910037D01*
X-21018047Y41958727D01*
X-21025917Y41961986D01*
X-21173867Y42041060D01*
X-21180949Y42045791D01*
X-21271779Y42120325D01*
X-21310637Y42152212D01*
X-21316659Y42158234D01*
X-21423090Y42287906D01*
X-21427820Y42294986D01*
X-21506909Y42442930D01*
X-21510169Y42450798D01*
X-21521686Y42488754D01*
X-21545762Y42568105D01*
X-21548399Y42576795D01*
X-15153837Y42576795D01*
X-15135257Y42483386D01*
X-15082345Y42404197D01*
X-15003156Y42351285D01*
X-14909747Y42332705D01*
X-14816338Y42351285D01*
X-14737149Y42404197D01*
X-14684237Y42483386D01*
X-14665657Y42576795D01*
X-14670591Y42601601D01*
X-12598683Y42601601D01*
X-12590894Y42570977D01*
X-12589830Y42565163D01*
X-12550025Y42214154D01*
X-12550283Y42202458D01*
X-12551967Y42191832D01*
X-12551822Y42188120D01*
X-12551573Y42184404D01*
X-12551573Y42184402D01*
X-12546890Y42167012D01*
X-12543919Y42155978D01*
X-12542702Y42149579D01*
X-12539384Y42120325D01*
X-12539383Y42120323D01*
X-12534175Y42110915D01*
X-12529938Y42100009D01*
X-12527430Y42089553D01*
X-12525860Y42086146D01*
X-12524221Y42082835D01*
X-12506270Y42059502D01*
X-12502694Y42054052D01*
X-12488439Y42028301D01*
X-12488438Y42028300D01*
X-12488437Y42028299D01*
X-12480025Y42021601D01*
X-12471937Y42013146D01*
X-12465615Y42004442D01*
X-12462897Y42001929D01*
X-12460086Y41999471D01*
X-12460083Y41999467D01*
X-12446644Y41991731D01*
X-12434570Y41984780D01*
X-12429182Y41981114D01*
X-12406153Y41962776D01*
X-12395821Y41959808D01*
X-12385110Y41955091D01*
X-12375940Y41949469D01*
X-12372492Y41948197D01*
X-12368926Y41946992D01*
X-12368923Y41946990D01*
X-12351049Y41944660D01*
X-12339737Y41943185D01*
X-12333356Y41941861D01*
X-12324715Y41939379D01*
X-12305057Y41933731D01*
X-12294373Y41934943D01*
X-12282681Y41934685D01*
X-12272052Y41932999D01*
X-12272048Y41933001D01*
X-12267774Y41933167D01*
X-12267745Y41932423D01*
X-12260418Y41932845D01*
X-11890230Y41884586D01*
X-11879230Y41881646D01*
X-11868260Y41877102D01*
X-11835647Y41877102D01*
X-11830029Y41876737D01*
X-11797698Y41872522D01*
X-11797698Y41872523D01*
X-11797697Y41872522D01*
X-11792947Y41873802D01*
X-11786240Y41875607D01*
X-11774942Y41877102D01*
X-11363077Y41877102D01*
X-11363076Y41877102D01*
X-11265897Y41917354D01*
X-11191520Y41991731D01*
X-11151268Y42088910D01*
X-11151268Y42488754D01*
X-11148790Y42503219D01*
X-11125882Y42568105D01*
X-11020235Y42867355D01*
X-11016958Y42874496D01*
X-11004710Y42895857D01*
X-11004710Y42895859D01*
X-11004662Y42895942D01*
X-11004270Y42897159D01*
X-11004088Y42897711D01*
X-11003653Y42899005D01*
X-11003641Y42899107D01*
X-11001580Y42916929D01*
X-10999394Y42926385D01*
X-10993418Y42943308D01*
X-10994731Y42967906D01*
X-10994439Y42975754D01*
X-10991297Y43000182D01*
X-10991298Y43000185D01*
X-10991284Y43000291D01*
X-10991399Y43001715D01*
X-10991440Y43002255D01*
X-10991526Y43003503D01*
X-10996467Y43020845D01*
X-10998068Y43030437D01*
X-10999023Y43048343D01*
X-10999023Y43048344D01*
X-11009650Y43070567D01*
X-11012379Y43077921D01*
X-11018827Y43101701D01*
X-11018829Y43101704D01*
X-11018852Y43101789D01*
X-11019383Y43102826D01*
X-11019627Y43103309D01*
X-11020302Y43104667D01*
X-11020371Y43104754D01*
X-11020371Y43104755D01*
X-11031516Y43118817D01*
X-11036657Y43127052D01*
X-11044397Y43143239D01*
X-11044400Y43143242D01*
X-11062710Y43159697D01*
X-11068058Y43165460D01*
X-11083169Y43185031D01*
X-11084110Y43185830D01*
X-11084524Y43186187D01*
X-11085608Y43187132D01*
X-11101383Y43195912D01*
X-11109295Y43201561D01*
X-11122632Y43213547D01*
X-11122634Y43213549D01*
X-11145852Y43221746D01*
X-11152995Y43225021D01*
X-11159529Y43228767D01*
X-11174365Y43237272D01*
X-11174367Y43237273D01*
X-11174460Y43237326D01*
X-11175690Y43237722D01*
X-11176199Y43237890D01*
X-11177501Y43238328D01*
X-11190251Y43239804D01*
X-11195436Y43240404D01*
X-11204902Y43242593D01*
X-11211342Y43244867D01*
X-11221818Y43248565D01*
X-11246409Y43247253D01*
X-11254263Y43247546D01*
X-11624497Y43295148D01*
X-11647101Y43305140D01*
X-11925099Y43541502D01*
X-10759758Y43541502D01*
X-10741178Y43448093D01*
X-10688266Y43368904D01*
X-10609077Y43315992D01*
X-10515668Y43297412D01*
X-10422259Y43315992D01*
X-10343070Y43368904D01*
X-10290158Y43448093D01*
X-10271578Y43541502D01*
X-10290158Y43634911D01*
X-10343070Y43714100D01*
X-10422259Y43767012D01*
X-10515668Y43785592D01*
X-10609077Y43767012D01*
X-10688266Y43714101D01*
X-10688267Y43714100D01*
X-10741178Y43634911D01*
X-10759758Y43541502D01*
X-11925099Y43541502D01*
X-11935963Y43550739D01*
X-11951126Y43580336D01*
X-11951268Y43583842D01*
X-11951268Y43894094D01*
X-11973635Y43948094D01*
X-11991520Y43991273D01*
X-12041749Y44041502D01*
X-11159758Y44041502D01*
X-11141178Y43948093D01*
X-11088266Y43868904D01*
X-11009077Y43815992D01*
X-10915668Y43797412D01*
X-10822259Y43815992D01*
X-10743070Y43868904D01*
X-10690158Y43948093D01*
X-10671578Y44041502D01*
X-10690158Y44134911D01*
X-10743070Y44214100D01*
X-10743073Y44214102D01*
X-10770326Y44232312D01*
X-10804843Y44255375D01*
X-10823318Y44283025D01*
X-10816831Y44315641D01*
X-10804844Y44327629D01*
X-10743070Y44368904D01*
X-10690158Y44448093D01*
X-10671578Y44541502D01*
X-10690158Y44634911D01*
X-10743070Y44714100D01*
X-10744477Y44715040D01*
X-10769348Y44731659D01*
X-10822259Y44767012D01*
X-10915668Y44785592D01*
X-11009077Y44767012D01*
X-11088266Y44714101D01*
X-11088267Y44714100D01*
X-11139935Y44636771D01*
X-11141178Y44634911D01*
X-11159758Y44541502D01*
X-11141178Y44448093D01*
X-11121125Y44418082D01*
X-11088267Y44368905D01*
X-11088263Y44368901D01*
X-11026495Y44327629D01*
X-11008019Y44299979D01*
X-11014507Y44267363D01*
X-11026495Y44255375D01*
X-11088263Y44214104D01*
X-11088267Y44214100D01*
X-11141178Y44134911D01*
X-11159758Y44041502D01*
X-12041749Y44041502D01*
X-12065897Y44065650D01*
X-12163076Y44105902D01*
X-12268260Y44105902D01*
X-12316850Y44085776D01*
X-12365440Y44065650D01*
X-12439816Y43991274D01*
X-12480068Y43894094D01*
X-12480068Y43489913D01*
X-12482164Y43476581D01*
X-12483451Y43472591D01*
X-12483451Y43472590D01*
X-12480210Y43432567D01*
X-12480068Y43429060D01*
X-12480068Y43098261D01*
X-12480421Y43094555D01*
X-12480334Y43081239D01*
X-12481807Y43069735D01*
X-12573902Y42725265D01*
X-12578526Y42714289D01*
X-12583629Y42705704D01*
X-12583630Y42705702D01*
X-12588152Y42674432D01*
X-12589393Y42668656D01*
X-12598121Y42638273D01*
X-12598237Y42636887D01*
X-12598270Y42636696D01*
X-12598304Y42636169D01*
X-12598363Y42635373D01*
X-12598405Y42634875D01*
X-12598400Y42634681D01*
X-12598491Y42633289D01*
X-12597183Y42623396D01*
X-12597255Y42611488D01*
X-12598683Y42601609D01*
X-12598683Y42601601D01*
X-14670591Y42601601D01*
X-14684237Y42670204D01*
X-14737149Y42749393D01*
X-14816338Y42802305D01*
X-14909747Y42820885D01*
X-15003156Y42802305D01*
X-15082345Y42749394D01*
X-15082346Y42749393D01*
X-15132432Y42674432D01*
X-15135257Y42670204D01*
X-15153837Y42576795D01*
X-21548399Y42576795D01*
X-21558877Y42611329D01*
X-21560539Y42619682D01*
X-21561880Y42633289D01*
X-21577245Y42789160D01*
X-21577454Y42793389D01*
X-21577455Y42817815D01*
X-21577455Y42824235D01*
X-21577458Y42824255D01*
X-21577482Y43002255D01*
X-21577624Y44041502D01*
X-14059758Y44041502D01*
X-14041178Y43948093D01*
X-13988266Y43868904D01*
X-13909077Y43815992D01*
X-13815668Y43797412D01*
X-13722259Y43815992D01*
X-13643070Y43868904D01*
X-13590158Y43948093D01*
X-13571578Y44041502D01*
X-13590158Y44134911D01*
X-13643070Y44214100D01*
X-13643071Y44214101D01*
X-13643074Y44214104D01*
X-13693729Y44247950D01*
X-13712205Y44275600D01*
X-13705717Y44308216D01*
X-13693733Y44320202D01*
X-13618060Y44370764D01*
X-13565148Y44449953D01*
X-13546568Y44543362D01*
X-13565148Y44636771D01*
X-13618060Y44715960D01*
X-13697249Y44768872D01*
X-13790658Y44787452D01*
X-13884067Y44768872D01*
X-13963256Y44715961D01*
X-13963257Y44715960D01*
X-14016168Y44636771D01*
X-14034748Y44543362D01*
X-14016168Y44449953D01*
X-13963256Y44370764D01*
X-13912598Y44336916D01*
X-13894122Y44309265D01*
X-13900609Y44276649D01*
X-13912597Y44264661D01*
X-13988265Y44214102D01*
X-13988267Y44214100D01*
X-14041178Y44134911D01*
X-14059758Y44041502D01*
X-21577624Y44041502D01*
X-21577795Y45287398D01*
X-16746520Y45287398D01*
X-16727940Y45193989D01*
X-16704988Y45159639D01*
X-16680672Y45123246D01*
X-16675028Y45114800D01*
X-16595839Y45061888D01*
X-16502430Y45043308D01*
X-16409021Y45061888D01*
X-16329832Y45114800D01*
X-16276920Y45193989D01*
X-16258340Y45287398D01*
X-16276920Y45380807D01*
X-16329832Y45459996D01*
X-16332309Y45461651D01*
X-16378848Y45492747D01*
X-16409021Y45512908D01*
X-16502430Y45531488D01*
X-16595839Y45512908D01*
X-16675028Y45459997D01*
X-16675029Y45459996D01*
X-16713529Y45402375D01*
X-16727940Y45380807D01*
X-16746520Y45287398D01*
X-21577795Y45287398D01*
X-21578061Y47229100D01*
X-21577852Y47233357D01*
X-21577199Y47239989D01*
X-21561202Y47402473D01*
X-21559544Y47410815D01*
X-21510840Y47571394D01*
X-21507583Y47579254D01*
X-21428497Y47727231D01*
X-21423766Y47734313D01*
X-21356712Y47816028D01*
X-21321840Y47858526D01*
X-21292512Y47874204D01*
X-21260689Y47864552D01*
X-21253782Y47857416D01*
X-21245837Y47847062D01*
X-21222798Y47817036D01*
X-21222796Y47817034D01*
X-21222795Y47817033D01*
X-21099673Y47722558D01*
X-20956294Y47663169D01*
X-20956289Y47663169D01*
X-20956285Y47663167D01*
X-20890153Y47654462D01*
X-20841061Y47647998D01*
X-19354947Y47647999D01*
X-19324223Y47635273D01*
X-19059556Y47370606D01*
X-19046830Y47339882D01*
X-19046830Y47326009D01*
X-19046831Y47325995D01*
X-19046831Y47212261D01*
X-19046830Y47212252D01*
X-19046830Y47044111D01*
X-19047459Y47037310D01*
X-19047443Y47036052D01*
X-19049666Y47021799D01*
X-19049894Y47021116D01*
X-19049894Y47021115D01*
X-19048561Y47002360D01*
X-19048925Y46992886D01*
X-19051692Y46974294D01*
X-19048127Y46960038D01*
X-19046830Y46949499D01*
X-19046830Y46934704D01*
X-19046552Y46933390D01*
X-19046444Y46932861D01*
X-19046209Y46931677D01*
X-19045890Y46930933D01*
X-19042487Y46916901D01*
X-19042437Y46916198D01*
X-19042437Y46916197D01*
X-19042436Y46916194D01*
X-19038038Y46907398D01*
X-19034030Y46899382D01*
X-19030741Y46890490D01*
X-18948128Y46560041D01*
X-18946831Y46549503D01*
X-18946831Y46534805D01*
X-18945821Y46532367D01*
X-18942624Y46518826D01*
X-18942437Y46516195D01*
X-18942437Y46516194D01*
X-18934030Y46499380D01*
X-18930740Y46490488D01*
X-18926180Y46472248D01*
X-18917434Y46460445D01*
X-18912202Y46451205D01*
X-18906578Y46437628D01*
X-18904714Y46435764D01*
X-18896575Y46424471D01*
X-18895398Y46422116D01*
X-18895397Y46422115D01*
X-18881199Y46409801D01*
X-18874757Y46402844D01*
X-18863561Y46387734D01*
X-18850959Y46380173D01*
X-18842588Y46373638D01*
X-18659556Y46190606D01*
X-18646830Y46159882D01*
X-18646830Y46109274D01*
X-18647267Y46103129D01*
X-18651611Y46072730D01*
X-18651610Y46072727D01*
X-18651610Y46072726D01*
X-18648953Y46062354D01*
X-18648189Y46059374D01*
X-18646830Y46048590D01*
X-18646830Y45939990D01*
X-18646830Y45834806D01*
X-18606578Y45737627D01*
X-18532201Y45663250D01*
X-18435022Y45622998D01*
X-18135022Y45622998D01*
X-18109283Y45622998D01*
X-18101761Y45622343D01*
X-18076413Y45617886D01*
X-18076413Y45617887D01*
X-18076412Y45617886D01*
X-18058066Y45621963D01*
X-18048640Y45622998D01*
X-17929839Y45622998D01*
X-17929838Y45622998D01*
X-17832659Y45663250D01*
X-17758282Y45737627D01*
X-17718030Y45834806D01*
X-17718030Y46249501D01*
X-17716733Y46260039D01*
X-17705866Y46303508D01*
X-17646606Y46540550D01*
X-17635179Y46560733D01*
X-17430794Y46765118D01*
X-17419507Y46773253D01*
X-17129187Y46918411D01*
X-17109756Y46922998D01*
X-17035023Y46922998D01*
X-17026476Y46922998D01*
X-17014293Y46921255D01*
X-17006080Y46918856D01*
X-16970413Y46922743D01*
X-16965706Y46922998D01*
X-16843665Y46922998D01*
X-16843661Y46922997D01*
X-16835020Y46922997D01*
X-16729837Y46922997D01*
X-16729836Y46922997D01*
X-16641539Y46959570D01*
X-16632659Y46963248D01*
X-16632659Y46963249D01*
X-16632658Y46963249D01*
X-16632657Y46963249D01*
X-16632657Y46963250D01*
X-16631837Y46963589D01*
X-16629636Y46966270D01*
X-16617640Y46978266D01*
X-16581107Y47014800D01*
X-16558282Y47037625D01*
X-16557837Y47038698D01*
X-16551375Y47054300D01*
X-16518029Y47134804D01*
X-16518029Y47239988D01*
X-16518029Y47248628D01*
X-16518030Y47248634D01*
X-16518030Y47567161D01*
X-16517656Y47572849D01*
X-16513420Y47604926D01*
X-16516554Y47616641D01*
X-16518030Y47627870D01*
X-16518030Y47639990D01*
X-16518031Y47639993D01*
X-16526009Y47659254D01*
X-16530413Y47669885D01*
X-16532243Y47675279D01*
X-16533219Y47678926D01*
X-16540605Y47706538D01*
X-16540607Y47706541D01*
X-16547981Y47716159D01*
X-16553641Y47725967D01*
X-16558282Y47737170D01*
X-16581163Y47760051D01*
X-16584920Y47764337D01*
X-16594215Y47776460D01*
X-16604605Y47790011D01*
X-16615106Y47796080D01*
X-16624086Y47802972D01*
X-16632660Y47811546D01*
X-16632661Y47811547D01*
X-16662549Y47823927D01*
X-16667659Y47826448D01*
X-16695678Y47842638D01*
X-16707700Y47844226D01*
X-16718634Y47847158D01*
X-16729838Y47851798D01*
X-16729839Y47851798D01*
X-16762195Y47851798D01*
X-16767883Y47852172D01*
X-17145003Y47901968D01*
X-17153155Y47904565D01*
X-17153258Y47904216D01*
X-17157362Y47905438D01*
X-17177341Y47907300D01*
X-17186292Y47909097D01*
X-17531226Y48017111D01*
X-17548966Y48027852D01*
X-17577805Y48056691D01*
X-17590531Y48087415D01*
X-17577805Y48118139D01*
X-17547081Y48130865D01*
X-15763899Y48130865D01*
X-15733175Y48118139D01*
G37*
%TD.AperFunction*%
%TD*%
M02*
