M48
; DRILL file {KiCad 8.99.0-417-ga763d613e5} date 2024-05-16T16:31:53-0400
; FORMAT={-:-/ absolute / inch / decimal}
; #@! TF.CreationDate,2024-05-16T16:31:53-04:00
; #@! TF.GenerationSoftware,Kicad,Pcbnew,8.99.0-417-ga763d613e5
; #@! TF.FileFunction,Plated,1,4,PTH
FMAT,2
INCH
; #@! TA.AperFunction,Plated,PTH,ViaDrill
T1C0.0059
; #@! TA.AperFunction,Plated,PTH,ComponentDrill
T2C0.0197
%
G90
G05
T1
X-0.8116Y1.7003
X-0.8116Y1.6845
X-0.8116Y1.6688
X-0.7959Y1.7003
X-0.7959Y1.6845
X-0.7959Y1.6688
X-0.7801Y1.7003
X-0.7801Y1.6845
X-0.7801Y1.6688
X-0.7644Y1.7003
X-0.7644Y1.6845
X-0.7644Y1.6688
X-0.7486Y1.7003
X-0.7486Y1.6845
X-0.7486Y1.6688
X-0.7395Y1.8499
X-0.7355Y1.8341
X-0.7329Y1.7003
X-0.7329Y1.6845
X-0.7329Y1.6688
X-0.7237Y1.8578
X-0.7237Y1.8223
X-0.7237Y1.8066
X-0.7198Y1.842
X-0.708Y1.8696
X-0.708Y1.8538
X-0.708Y1.8223
X-0.708Y1.8066
X-0.704Y1.8381
X-0.6962Y1.8814
X-0.6922Y1.8656
X-0.6922Y1.8499
X-0.6906Y1.6845
X-0.6906Y1.6688
X-0.6875Y1.783
X-0.6785Y1.8759
X-0.6765Y1.8578
X-0.6749Y1.6845
X-0.6749Y1.6688
X-0.6607Y1.8735
X-0.6607Y1.8381
X-0.6607Y1.8578
X-0.6497Y1.783
X-0.6473Y1.6845
X-0.6473Y1.6688
X-0.6334Y1.8745
X-0.6316Y1.6845
X-0.6316Y1.6688
X-0.6292Y1.8578
X-0.6292Y1.838
X-0.6292Y1.8207
X-0.6174Y1.8814
X-0.6174Y1.8027
X-0.6095Y1.8656
X-0.6095Y1.8499
X-0.6095Y1.8341
X-0.6095Y1.8184
X-0.6095Y0.958
X-0.6031Y0.5322
X-0.6031Y0.5164
X-0.6031Y0.5007
X-0.6031Y0.4849
X-0.6025Y0.5484
X-0.6023Y0.9715
X-0.602Y0.9443
X-0.6017Y1.8814
X-0.6017Y1.8027
X-0.5974Y1.0815
X-0.5938Y1.8656
X-0.5938Y1.8499
X-0.5938Y1.8341
X-0.5938Y1.8184
X-0.5938Y0.958
X-0.5899Y1.0487
X-0.5899Y1.033
X-0.5899Y1.0015
X-0.5896Y1.0174
X-0.5871Y1.7034
X-0.587Y1.6763
X-0.5865Y0.9715
X-0.5859Y1.8814
X-0.5859Y1.8027
X-0.5858Y1.7387
X-0.5857Y0.9443
X-0.5855Y0.5361
X-0.5855Y0.5204
X-0.5855Y0.5046
X-0.5855Y0.4889
X-0.5833Y0.4701
X-0.5781Y0.5481
X-0.578Y0.958
X-0.5741Y1.0487
X-0.5741Y1.033
X-0.5741Y1.0172
X-0.5741Y1.0015
X-0.5715Y0.4819
X-0.5715Y0.4583
X-0.5708Y0.9715
X-0.5698Y0.5361
X-0.5698Y0.5204
X-0.5695Y0.5057
X-0.5685Y0.9436
X-0.5656Y1.1415
X-0.565Y1.1161
X-0.564Y1.1004
X-0.5624Y0.5481
X-0.5623Y0.958
X-0.5597Y0.4938
X-0.5597Y0.4701
X-0.5597Y0.4465
X-0.5584Y1.0487
X-0.5584Y1.033
X-0.5584Y1.0172
X-0.5584Y1.0015
X-0.5551Y1.0819
X-0.555Y0.9715
X-0.554Y0.5361
X-0.554Y0.5204
X-0.5513Y1.1694
X-0.5505Y0.9462
X-0.5492Y1.1171
X-0.5483Y1.1013
X-0.5479Y0.5056
X-0.5479Y0.4819
X-0.5479Y0.4583
X-0.5479Y0.4347
X-0.5466Y0.5481
X-0.5439Y1.7339
X-0.5429Y1.7142
X-0.5429Y1.7537
X-0.5426Y1.0487
X-0.5426Y1.033
X-0.5387Y1.0015
X-0.5383Y0.5361
X-0.5383Y0.5204
X-0.5377Y1.449
X-0.5375Y1.241
X-0.5374Y1.5812
X-0.5374Y1.3282
X-0.536Y0.4938
X-0.536Y0.4701
X-0.536Y0.4465
X-0.536Y0.4229
X-0.534Y0.9437
X-0.5309Y0.5481
X-0.5305Y1.6977
X-0.5283Y0.5086
X-0.5282Y1.6749
X-0.5282Y1.6591
X-0.5278Y1.7173
X-0.5269Y1.0487
X-0.5269Y1.033
X-0.5242Y0.4819
X-0.5242Y0.4583
X-0.5242Y0.4347
X-0.5242Y0.4111
X-0.5225Y0.5361
X-0.521Y1.0015
X-0.5183Y0.9437
X-0.5174Y1.1201
X-0.5164Y0.4967
X-0.5164Y1.1044
X-0.5151Y0.5481
X-0.5124Y1.726
X-0.5124Y1.7103
X-0.5124Y1.6749
X-0.5124Y1.6591
X-0.5124Y0.5174
X-0.5124Y0.4701
X-0.5124Y0.4465
X-0.5124Y0.4229
X-0.5122Y1.6921
X-0.5111Y1.0487
X-0.5111Y1.033
X-0.5074Y1.0854
X-0.5068Y0.5361
X-0.5051Y1.0168
X-0.5046Y0.4849
X-0.5025Y0.9437
X-0.5016Y1.121
X-0.5007Y1.1053
X-0.5006Y0.4583
X-0.5006Y0.4347
X-0.4994Y0.5481
X-0.4954Y1.0487
X-0.4954Y1.033
X-0.4928Y0.4731
X-0.491Y0.5361
X-0.4888Y0.4465
X-0.4886Y0.4958
X-0.4861Y0.3632
X-0.4854Y1.6778
X-0.4836Y0.5481
X-0.4836Y1.6615
X-0.4819Y0.9781
X-0.4816Y1.0156
X-0.4816Y0.9629
X-0.481Y0.4613
X-0.4809Y1.726
X-0.4809Y1.7103
X-0.4809Y1.6945
X-0.4753Y0.5233
X-0.4652Y1.6749
X-0.4652Y1.6591
X-0.4644Y0.5117
X-0.4639Y0.5336
X-0.4626Y1.6947
X-0.4576Y0.4831
X-0.4569Y0.4139
X-0.454Y0.3308
X-0.4534Y0.5213
X-0.4494Y1.6749
X-0.4494Y1.6591
X-0.4433Y1.6922
X-0.4376Y0.3866
X-0.4369Y0.4436
X-0.4298Y1.7536
X-0.4298Y1.7339
X-0.4288Y0.4862
X-0.4237Y0.4068
X-0.4205Y0.978
X-0.414Y1.7142
X-0.4128Y0.3552
X-0.4088Y1.0015
X-0.4025Y0.385
X-0.3986Y0.4426
X-0.3932Y0.3746
X-0.391Y0.3959
X-0.3814Y0.3852
X-0.3609Y0.3424
X-0.3589Y0.2457
X-0.3516Y0.3319
X-0.351Y0.4032
X-0.3486Y0.3531
X-0.3471Y0.2575
X-0.3471Y0.2339
X-0.3412Y0.4623
X-0.3399Y0.3431
X-0.3353Y0.2694
X-0.3353Y0.2457
X-0.3353Y0.2221
X-0.3235Y0.2812
X-0.3235Y0.2575
X-0.3235Y0.2339
X-0.3235Y0.2103
X-0.3185Y0.4229
X-0.3116Y0.3835
X-0.3116Y0.3678
X-0.3116Y0.2694
X-0.3116Y0.2457
X-0.3116Y0.2221
X-0.3116Y0.1985
X-0.3089Y0.4079
X-0.3028Y0.4257
X-0.2998Y0.2575
X-0.2998Y0.2339
X-0.2998Y0.2103
X-0.2998Y0.1867
X-0.2959Y0.3835
X-0.2959Y0.3678
X-0.288Y0.4347
X-0.288Y0.419
X-0.288Y0.4042
X-0.288Y0.2457
X-0.288Y0.2221
X-0.288Y0.1985
X-0.2762Y0.2339
X-0.2762Y0.2103
X-0.2644Y0.2221
X-0.2636Y0.3756
X-0.2619Y0.356
X-0.2565Y0.4347
X-0.2565Y0.419
X-0.2565Y0.4032
X-0.2486Y0.3835
X-0.2486Y0.3678
X-0.2405Y0.3542
X-0.2378Y0.4031
X-0.2329Y0.3835
X-0.2329Y0.3678
X-0.222Y0.3555
X-0.2132Y0.4623
X-0.2053Y0.4426
X-0.1975Y0.4094
X-0.1935Y0.3756
X-0.1935Y0.356
X-0.1787Y0.4425
X-0.178Y0.4231
X-0.1772Y0.4626
X-0.166Y0.4505
X-0.166Y0.4347
X-0.1614Y0.415
X-0.1585Y0.4648
X-0.1502Y0.4505
X-0.1502Y0.4347
X-0.1423Y0.5764
X-0.1423Y0.415
X-0.1423Y0.3993
X-0.1423Y0.3835
X-0.1384Y0.7024
X-0.1377Y0.4623
X-0.1342Y0.4432
X-0.1187Y0.4977
X-0.1109Y0.4151
X-0.1109Y0.3993
X-0.1109Y0.3835
X-0.103Y0.4505
X-0.103Y0.4347
X-0.0969Y0.3926
X-0.0912Y0.4111
X-0.0872Y0.4505
X-0.0872Y0.4347
X-0.0803Y0.3953
X-0.0597Y0.356
X-0.0518Y0.5489
X-0.0439Y0.0331
X-0.0416Y0.0489
X-0.04Y0.0646
X-0.0353Y0.5058
X-0.0321Y0.4154
X-0.0262Y0.0843
X-0.0262Y0.0646
X-0.0262Y0.0489
X-0.0262Y0.0331
X-0.0229Y0.4938
X0.023Y0.6788
X0.0732Y0.6376
X0.1109Y-0.1659
X0.1175Y-0.1485
X0.1188Y-0.0141
X0.126Y0.6811
X0.1267Y-0.1777
X0.1306Y-0.0259
X0.1306Y-0.1344
X0.132Y-0.1599
X0.1424Y-0.0141
X0.1424Y-0.0377
X0.1424Y-0.1895
X0.1425Y-0.1728
X0.1446Y-0.1473
X0.1542Y-0.0259
X0.1546Y-0.1322
X0.1553Y-0.1618
X0.1572Y-0.1976
X0.1613Y-0.1813
X0.1638Y-0.1467
X0.166Y-0.0141
X0.166Y-0.0377
X0.1701Y-0.2082
X0.1726Y-0.1621
X0.1728Y-0.1923
X0.1729Y-0.1333
X0.1779Y-0.0259
X0.1779Y-0.1777
X0.1857Y-0.2052
X0.1884Y0.7064
X0.1897Y-0.0141
X0.1897Y-0.0377
X0.1897Y-0.1895
X0.1902Y-0.1554
X0.1929Y-0.1379
X0.1936Y-0.1737
X0.2015Y-0.0259
X0.2054Y-0.2249
X0.2094Y-0.2092
X0.2148Y-0.1946
X0.2172Y-0.0141
X0.2172Y-0.0377
X0.2172Y-0.2367
X0.2182Y-0.1802
X0.2212Y-0.221
X0.2251Y-0.1619
X0.2282Y-0.2055
X0.2327Y-0.1893
X0.233Y-0.0259
X0.233Y-0.2407
X0.2382Y-0.2245
X0.242Y-0.1748
X0.2432Y-0.0786
X0.245Y-0.2081
X0.2452Y-0.1589
X0.2454Y0.6581
X0.2491Y-0.1918
X0.2493Y-0.1429
X0.2527Y-0.2446
X0.2529Y-0.2284
X0.2645Y-0.1383
X0.2645Y-0.154
X0.2645Y-0.1698
X0.2645Y-0.1855
X0.2645Y-0.2013
X0.2645Y-0.217
X0.2684Y-0.2328
X0.2984Y-0.0678
X0.2986Y0.6945
X0.2986Y0.6552
X0.3148Y0.6363
X0.3157Y-0.0674
X0.3384Y-0.0799
X0.3872Y0.6552
X0.4147Y0.6453
X0.4206Y0.6808
X0.4377Y-0.0792
X0.4541Y0.6552
X0.5053Y0.6552
X0.5175Y0.709
X0.5251Y-0.0799
X0.5486Y0.6808
X0.5486Y0.6457
X0.5884Y0.6985
X0.5939Y0.6612
X0.6023Y0.732
X0.607Y-0.0792
X0.6234Y0.3127
X0.6242Y0.72
X0.6281Y0.241
X0.6332Y0.6612
X0.6384Y0.2841
X0.6404Y0.6282
X0.6448Y0.2032
X0.6451Y0.0331
X0.6454Y0.364
X0.6507Y0.091
X0.6539Y0.4632
X0.6608Y0.4209
X0.6647Y0.5804
X0.6647Y0.5646
X0.6647Y0.4938
X0.6647Y0.478
X0.6655Y0.6148
X0.6692Y0.3107
X0.6731Y0.3578
X0.6771Y0.6809
X0.6805Y0.5804
X0.6805Y0.5646
X0.6805Y0.4938
X0.6805Y0.478
X0.6811Y-0.0278
X0.6874Y0.3125
X0.6884Y0.4426
X0.6923Y0.4229
X0.6929Y0.7175
X0.6929Y0.1809
X0.6962Y0.5804
X0.6962Y0.5646
X0.6962Y0.4938
X0.6962Y0.478
X0.7025Y0.1101
X0.7055Y0.3659
X0.708Y0.4111
X0.712Y0.7024
X0.712Y0.6867
X0.712Y0.6591
X0.712Y0.6434
X0.712Y0.4505
X0.712Y0.4347
X0.7159Y0.3258
X0.7159Y0.5292
X0.7238Y0.5804
X0.7258Y0.2674
X0.7277Y0.7024
X0.7277Y0.6867
X0.7277Y0.6591
X0.7277Y0.6434
X0.7277Y0.4505
X0.7277Y0.4347
X0.7277Y0.4111
X0.7317Y0.6079
X0.7317Y0.5292
X0.7454Y0.2241
X0.7474Y0.5607
X0.7474Y0.5449
X0.7474Y0.5292
X0.7474Y0.5134
X0.7474Y0.4977
X0.7505Y0.1657
X0.7514Y0.5843
X0.7553Y0.4701
X0.7632Y0.5607
X0.7632Y0.5449
X0.7632Y0.5292
X0.7632Y0.5134
X0.7632Y0.4977
X0.7632Y0.2241
X0.7642Y0.3201
X0.7649Y0.0828
X0.7671Y0.5843
X0.771Y0.6079
X0.771Y0.4701
X0.7713Y0.3419
X0.775Y0.7024
X0.775Y0.6867
X0.775Y0.6591
X0.775Y0.6434
X0.775Y0.4505
X0.775Y0.4347
X0.7789Y0.5607
X0.7789Y0.5449
X0.7789Y0.5292
X0.7789Y0.5134
X0.7809Y0.2241
X0.7828Y0.5882
X0.7868Y0.4701
X0.7907Y0.7024
X0.7907Y0.6867
X0.7907Y0.6591
X0.7907Y0.6434
X0.7907Y0.6197
X0.7907Y0.604
X0.7907Y0.4505
X0.7907Y0.4347
X0.7947Y0.5292
X0.7947Y0.5134
X0.7955Y0.3566
X0.7966Y0.2398
X0.7971Y0.7438
X0.7993Y1.7902
X0.8065Y1.6512
X0.8065Y1.5764
X0.8104Y0.5449
X0.8104Y0.5292
X0.8104Y0.5134
X0.821Y0.4877
X0.8222Y0.5684
X0.8262Y0.5449
X0.8262Y0.5292
X0.8262Y0.5134
X0.8293Y0.3339
X0.834Y1.7103
X0.8341Y1.7236
X0.8341Y1.6967
X0.8354Y1.7371
X0.8399Y1.75
X0.8484Y1.7616
X0.8655Y1.1119
X0.8661Y0.295
X0.87Y1.7911
X0.87Y1.7753
X0.8714Y1.0922
X0.874Y0.5273
X0.8779Y0.4131
X0.8821Y0.2613
X0.8858Y1.7911
X0.8858Y1.7753
X0.8891Y1.1158
X0.8891Y1.0646
X0.8891Y1.0489
X0.8891Y1.0331
X0.8891Y0.9426
X0.8891Y0.9268
X0.8891Y0.9111
X0.8951Y1.0902
X0.9015Y1.7911
X0.9015Y1.7753
X0.9049Y1.1158
X0.9049Y1.0646
X0.9049Y1.0489
X0.9049Y1.0331
X0.9049Y0.9426
X0.9049Y0.9268
X0.9049Y0.9111
X0.9173Y1.7753
X0.9195Y1.791
X0.9201Y1.8398
X0.9206Y1.1158
X0.9206Y1.0902
X0.9206Y1.0646
X0.9206Y1.0489
X0.9206Y1.0331
X0.9206Y0.9426
X0.9206Y0.9268
X0.9206Y0.9111
X0.9246Y0.2733
X0.9326Y1.8271
X0.933Y1.7753
X0.9351Y1.7914
X0.9364Y1.1158
X0.9364Y1.0646
X0.9364Y1.0489
X0.9364Y1.0331
X0.9364Y0.9426
X0.9364Y0.9268
X0.9364Y0.9111
X0.9381Y1.8625
X0.9381Y1.8467
X0.9446Y1.8125
X0.9462Y1.0902
X0.948Y1.7798
X0.9488Y0.5549
X0.9521Y1.1158
X0.9521Y1.0646
X0.9521Y1.0489
X0.9521Y1.0331
X0.9521Y0.9426
X0.9521Y0.9268
X0.9521Y0.9111
X0.9527Y0.4604
X0.9538Y1.8782
X0.9538Y1.8625
X0.9538Y1.8467
X0.9538Y1.831
X0.9567Y0.358
X0.9598Y1.7983
X0.9607Y1.8169
X0.9679Y1.1158
X0.9679Y1.0942
T2
X-0.819Y1.8991G85X-0.7206Y1.8991
G05
X-0.5769Y0.9153G85X-0.4784Y0.9153
G05
X-0.5769Y0.5727G85X-0.4784Y0.5727
G05
X0.296Y-0.2214G85X0.296Y-0.1229
G05
X0.8578Y1.1444G85X0.9563Y1.1444
G05
X0.9834Y1.8613G85X0.9834Y1.881
G05
M30
