%TF.GenerationSoftware,KiCad,Pcbnew,8.99.0-417-ga763d613e5*%
%TF.CreationDate,2024-05-16T16:31:54-04:00*%
%TF.ProjectId,thundervolt,7468756e-6465-4727-966f-6c742e6b6963,rev?*%
%TF.SameCoordinates,PX85b368ePY7384544*%
%TF.FileFunction,Copper,L4,Bot*%
%TF.FilePolarity,Positive*%
%FSLAX46Y46*%
G04 Gerber Fmt 4.6, Leading zero omitted, Abs format (unit mm)*
G04 Created by KiCad (PCBNEW 8.99.0-417-ga763d613e5) date 2024-05-16 16:31:54*
%MOMM*%
%LPD*%
G01*
G04 APERTURE LIST*
G04 Aperture macros list*
%AMRoundRect*
0 Rectangle with rounded corners*
0 $1 Rounding radius*
0 $2 $3 $4 $5 $6 $7 $8 $9 X,Y pos of 4 corners*
0 Add a 4 corners polygon primitive as box body*
4,1,4,$2,$3,$4,$5,$6,$7,$8,$9,$2,$3,0*
0 Add four circle primitives for the rounded corners*
1,1,$1+$1,$2,$3*
1,1,$1+$1,$4,$5*
1,1,$1+$1,$6,$7*
1,1,$1+$1,$8,$9*
0 Add four rect primitives between the rounded corners*
20,1,$1+$1,$2,$3,$4,$5,0*
20,1,$1+$1,$4,$5,$6,$7,0*
20,1,$1+$1,$6,$7,$8,$9,0*
20,1,$1+$1,$8,$9,$2,$3,0*%
G04 Aperture macros list end*
%ADD10C,0.100000*%
%TA.AperFunction,NonConductor*%
%ADD11C,0.100000*%
%TD*%
%TA.AperFunction,ComponentPad*%
%ADD12RoundRect,0.500000X-1.250000X-0.000010X1.250000X-0.000010X1.250000X0.000010X-1.250000X0.000010X0*%
%TD*%
%TA.AperFunction,ComponentPad*%
%ADD13RoundRect,0.500000X0.000010X-1.250000X0.000010X1.250000X-0.000010X1.250000X-0.000010X-1.250000X0*%
%TD*%
%TA.AperFunction,ComponentPad*%
%ADD14RoundRect,0.500000X0.000010X-0.250000X0.000010X0.250000X-0.000010X0.250000X-0.000010X-0.250000X0*%
%TD*%
%TA.AperFunction,ViaPad*%
%ADD15C,0.300000*%
%TD*%
%TA.AperFunction,Conductor*%
%ADD16C,0.088900*%
%TD*%
%TA.AperFunction,Conductor*%
%ADD17C,0.250000*%
%TD*%
%TA.AperFunction,Conductor*%
%ADD18C,0.300000*%
%TD*%
%TA.AperFunction,Conductor*%
%ADD19C,0.254000*%
%TD*%
%TA.AperFunction,Conductor*%
%ADD20C,0.350000*%
%TD*%
%TA.AperFunction,Conductor*%
%ADD21C,0.304800*%
%TD*%
%TA.AperFunction,Conductor*%
%ADD22C,0.101600*%
%TD*%
%TA.AperFunction,Conductor*%
%ADD23C,0.127000*%
%TD*%
%TA.AperFunction,Conductor*%
%ADD24C,0.152400*%
%TD*%
G04 APERTURE END LIST*
D10*
D11*
G36*
X-4577614Y3170478D02*
G01*
X-4574678Y3185503D01*
X-4577614Y3200183D01*
X-4586594Y3213309D01*
X-4624417Y3246987D01*
X-4639270Y3249750D01*
X-4654640Y3246469D01*
X-4668802Y3238179D01*
X-4905409Y3001572D01*
X-5158078Y3254240D01*
X-4919571Y3492747D01*
X-4911281Y3506909D01*
X-4908000Y3522280D01*
X-4910763Y3537478D01*
X-4920780Y3547495D01*
X-4946513Y3573228D01*
X-4959639Y3582209D01*
X-4974492Y3585317D01*
X-4989344Y3582209D01*
X-5002297Y3573401D01*
X-5543557Y3032141D01*
X-5552365Y3019188D01*
X-5555301Y3004162D01*
X-5552365Y2989482D01*
X-5543384Y2976357D01*
X-5517651Y2950624D01*
X-5507634Y2940607D01*
X-5492954Y2937671D01*
X-5477929Y2940607D01*
X-5463940Y2948378D01*
X-5235450Y3176868D01*
X-4982781Y2924200D01*
X-5211271Y2695710D01*
X-5219216Y2681893D01*
X-5222152Y2666868D01*
X-5219043Y2652015D01*
X-5209199Y2642171D01*
X-5183293Y2616265D01*
X-5170340Y2607457D01*
X-5155487Y2604348D01*
X-5140635Y2607457D01*
X-5127682Y2616265D01*
X-4586422Y3157525D01*
X-4577614Y3170478D01*
G37*
G36*
X-5086750Y3697576D02*
G01*
X-5089686Y3712601D01*
X-5098840Y3725554D01*
X-5139426Y3760268D01*
X-5155487Y3762168D01*
X-5172412Y3757332D01*
X-5640790Y3491711D01*
X-5375342Y3962334D01*
X-5370333Y3977014D01*
X-5375342Y4002056D01*
X-5384150Y4012937D01*
X-5399175Y4025890D01*
X-5424390Y4020709D01*
X-5899504Y3750424D01*
X-5630946Y4221738D01*
X-5626110Y4238663D01*
X-5628010Y4254725D01*
X-5638891Y4267678D01*
X-5673777Y4300492D01*
X-5692602Y4305500D01*
X-5707455Y4302392D01*
X-5727316Y4284603D01*
X-6112277Y3589462D01*
X-6118840Y3564938D01*
X-6111414Y3544386D01*
X-6100533Y3533506D01*
X-6090516Y3523489D01*
X-6059429Y3536614D01*
X-5591224Y3799991D01*
X-5854600Y3331785D01*
X-5861681Y3316760D01*
X-5857709Y3290681D01*
X-5842856Y3275829D01*
X-5817296Y3273411D01*
X-5801925Y3279110D01*
X-5096595Y3671843D01*
X-5086750Y3697576D01*
G37*
G36*
X-6324533Y3831768D02*
G01*
X-6320560Y3847830D01*
X-6293618Y4336242D01*
X-6267022Y4460245D01*
X-6245951Y4527255D01*
X-6206747Y4566459D01*
X-6150618Y4584593D01*
X-6093798Y4565768D01*
X-6004336Y4476306D01*
X-5985511Y4419486D01*
X-6003473Y4363875D01*
X-6031278Y4331924D01*
X-6034214Y4316899D01*
X-6031278Y4302219D01*
X-6023161Y4288230D01*
X-5984475Y4255416D01*
X-5969622Y4252307D01*
X-5954770Y4255416D01*
X-5916774Y4289266D01*
X-5906757Y4305155D01*
X-5880161Y4381491D01*
X-5881715Y4457654D01*
X-5907966Y4534681D01*
X-5920056Y4546770D01*
X-6023506Y4650221D01*
X-6038359Y4659202D01*
X-6116249Y4684935D01*
X-6193104Y4685453D01*
X-6270130Y4658166D01*
X-6286192Y4647976D01*
X-6337313Y4596855D01*
X-6347330Y4580966D01*
X-6375654Y4498758D01*
X-6401214Y4369920D01*
X-6422630Y4010346D01*
X-6671153Y4258870D01*
X-6684106Y4268023D01*
X-6698959Y4271132D01*
X-6713466Y4268369D01*
X-6751289Y4234691D01*
X-6759924Y4221911D01*
X-6762687Y4207403D01*
X-6759578Y4192551D01*
X-6748525Y4181498D01*
X-6388606Y3821579D01*
X-6375481Y3812598D01*
X-6360628Y3809489D01*
X-6345603Y3812771D01*
X-6333513Y3820715D01*
X-6324533Y3831768D01*
G37*
D12*
%TO.P,TP5,1,1*%
%TO.N,GND*%
X23038914Y29068642D03*
%TD*%
D13*
%TO.P,TP3,1,1*%
%TO.N,+1V15*%
X7517570Y-4372602D03*
%TD*%
D12*
%TO.P,TP7,1,1*%
%TO.N,GND*%
X-13402430Y14547398D03*
%TD*%
D14*
%TO.P,TP1,1,1*%
%TO.N,+3V3*%
X24977570Y47527398D03*
%TD*%
D12*
%TO.P,TP4,1,1*%
%TO.N,+1V0*%
X-13402430Y23247398D03*
%TD*%
%TO.P,TP2,1,1*%
%TO.N,+1V8*%
X-19552430Y48237398D03*
%TD*%
D15*
%TO.N,GND*%
X-14100702Y27480205D03*
X-9687095Y9784750D03*
X5717570Y-4112602D03*
X-14349933Y28349088D03*
X-13415668Y42541502D03*
X20984332Y13841502D03*
X23384332Y28341502D03*
X-665668Y1641502D03*
X-13315668Y11041502D03*
X-17142430Y42787398D03*
X-1015668Y1641502D03*
X13934332Y17291502D03*
X18484332Y17841502D03*
X-13116372Y28050596D03*
X-13140792Y28449850D03*
X22134332Y27741502D03*
X18084332Y17841502D03*
X-2615668Y11041502D03*
X-11115697Y9819638D03*
X21185067Y43778918D03*
X-13015668Y13141502D03*
X24198914Y11693642D03*
X6234332Y16716039D03*
X18084332Y16741502D03*
X-13015668Y43441502D03*
X-14003889Y29701826D03*
X-13015668Y42141502D03*
X-10890985Y12348309D03*
X16216344Y7216418D03*
X-3515668Y17841502D03*
X18084332Y16341502D03*
X-14872430Y13217398D03*
X-13915668Y12241502D03*
X4817570Y-358498D03*
X-2815668Y10544371D03*
X-13615668Y11341502D03*
X-19015668Y43187398D03*
X-12872430Y13617398D03*
X24184332Y26241502D03*
X-12715668Y11041502D03*
X-13649019Y40162552D03*
X-15317587Y13517398D03*
X-14683731Y13921723D03*
X-18615668Y42387398D03*
X18484332Y16341502D03*
X-18615668Y42787398D03*
X-12517587Y12017398D03*
X11117570Y-2012602D03*
X4784332Y17941502D03*
X17842378Y2797052D03*
X-13950679Y28373508D03*
X-1315668Y13941502D03*
X-15173173Y27470305D03*
X-19415668Y43187398D03*
X18484332Y16741502D03*
X-17462430Y45287398D03*
X-815668Y10551502D03*
X-8090668Y10741502D03*
X18084332Y11041502D03*
X21998914Y7493642D03*
X18484332Y17441502D03*
X23384332Y26641502D03*
X23784332Y28341502D03*
X-11515668Y13241502D03*
X20184332Y13041502D03*
X21218682Y44121790D03*
X-9988477Y9514546D03*
X-19015668Y42787398D03*
X-20615668Y43187398D03*
X21184332Y43441502D03*
X-16042430Y42387398D03*
X-14515668Y11641502D03*
X24184332Y28341502D03*
X19784332Y13041502D03*
X-14878778Y44163655D03*
X17598914Y4593642D03*
X-13615668Y10741502D03*
X4817570Y-958498D03*
X-15317587Y12317398D03*
X-19815668Y42787398D03*
X-13658727Y36803503D03*
X-13790668Y43541502D03*
X3317570Y-658498D03*
X-7915668Y9341502D03*
X1858303Y16196228D03*
X-13415668Y42141502D03*
X15417570Y-2012602D03*
X18384332Y14741502D03*
X13337857Y-2030487D03*
X584332Y17241502D03*
X17584332Y10741502D03*
X22298914Y10493642D03*
X-13015668Y10741502D03*
X-17542430Y42387398D03*
X-2215668Y11041502D03*
X16527570Y2312398D03*
X-14872430Y12417398D03*
X22984332Y26241502D03*
X23689108Y46407508D03*
X-13615668Y12541502D03*
X-14072430Y13617398D03*
X-11604726Y10512945D03*
X19384332Y13441502D03*
X-14912430Y43267398D03*
X-12717118Y28075016D03*
X11534332Y16641502D03*
X24184332Y27041502D03*
X-11784158Y13552781D03*
X18484332Y10441502D03*
X20984332Y13041502D03*
X-13483731Y13921723D03*
X18984332Y13441502D03*
X4217570Y-958498D03*
X21064332Y8481502D03*
X-20215668Y43187398D03*
X22584332Y26641502D03*
X22198914Y13393642D03*
X-14215668Y11941502D03*
X-14325513Y27949834D03*
X-2815668Y10141502D03*
X17984332Y10441502D03*
X23384332Y26241502D03*
X-2615668Y11441502D03*
X-19415668Y42787398D03*
X23784332Y26241502D03*
X-13315668Y12241502D03*
X-11623297Y12270974D03*
X23784332Y26641502D03*
X23484332Y6941502D03*
X-11796211Y12997633D03*
X-2215668Y11441502D03*
X15834332Y7941502D03*
X10534332Y16391502D03*
X-13015668Y11941502D03*
X-13649019Y33735700D03*
X-13015668Y43841502D03*
X-13615668Y11941502D03*
X-12232430Y24457398D03*
X-13474993Y43120430D03*
X-2315668Y10441502D03*
X-14515668Y12241502D03*
X16384332Y841502D03*
X-7315668Y10267261D03*
X19428562Y2102219D03*
X20184332Y13441502D03*
X-2040668Y10041502D03*
X-13653006Y31521619D03*
X-12239117Y24844645D03*
X-13672430Y13617398D03*
X-13404897Y43619069D03*
X-2460454Y9972493D03*
X-12817587Y12317398D03*
X-20215668Y42387398D03*
X-14472430Y13617398D03*
X-13117587Y12617398D03*
X-2815668Y9741502D03*
X19784332Y13441502D03*
X23384332Y27691502D03*
X23384332Y27041502D03*
X24184332Y26641502D03*
X-7915668Y9741502D03*
X19063599Y4207773D03*
X-18615668Y43187398D03*
X-7845159Y10360397D03*
X-19415668Y42387398D03*
X-13083731Y13921723D03*
X3617570Y-358498D03*
X-10762853Y10333428D03*
X15954374Y6120177D03*
X-13015668Y11341502D03*
X16394161Y9245210D03*
X-14872430Y12817398D03*
X-14072430Y13217398D03*
X16904332Y15615502D03*
X22984332Y26641502D03*
X-13015668Y42541502D03*
X-14472430Y13217398D03*
X-15304334Y13929143D03*
X-9931319Y10054955D03*
X-12741538Y28474270D03*
X4217570Y-358498D03*
X24298914Y9093642D03*
X-19815668Y43187398D03*
X-13926259Y27974254D03*
X21185067Y43096537D03*
X-13315668Y10441502D03*
X-20615668Y42787398D03*
X-17142430Y42387398D03*
X16609332Y11766502D03*
X-1055973Y1242401D03*
X17484332Y11241502D03*
X-665668Y2141502D03*
X-14367183Y28995201D03*
X22405303Y6635950D03*
X-15317587Y12717398D03*
X15853691Y18287024D03*
X-12415668Y11341502D03*
X22584332Y28341502D03*
X-7691976Y10811606D03*
X-20615668Y42387398D03*
X20234332Y6091502D03*
X-16042430Y42787398D03*
X-7315668Y10641502D03*
X17198914Y17293642D03*
X-14464996Y12844424D03*
X3917570Y-658498D03*
X-11097126Y11268155D03*
X-13272430Y13617398D03*
X18084332Y17441502D03*
X-12217587Y11717398D03*
X17919359Y9294359D03*
X-13915668Y11641502D03*
X-11530443Y8402072D03*
X23784332Y27041502D03*
X-13672430Y13217398D03*
X-16782430Y46687398D03*
X18584332Y15441502D03*
X-12347555Y9225374D03*
X21548107Y44743665D03*
X-12071836Y13291040D03*
X-7315668Y11041502D03*
X24034332Y27691502D03*
X18484332Y11041502D03*
X24584332Y27791502D03*
X-10222308Y9779554D03*
X18434332Y6791502D03*
X-12409458Y12592867D03*
X-17542430Y42787398D03*
X-3615668Y14641502D03*
X-20215668Y42787398D03*
X5117570Y-658498D03*
X24098914Y14093642D03*
X-13315668Y11641502D03*
X-14872430Y13617398D03*
X-15317587Y13117398D03*
X-12886731Y27569032D03*
X3617570Y-958498D03*
X22984332Y27041502D03*
X21332972Y44451215D03*
X3199200Y17300060D03*
X-19015668Y42387398D03*
X-16442430Y42387398D03*
X20205970Y9056432D03*
X18084332Y11441502D03*
X-13883731Y13921723D03*
X-665668Y1241502D03*
X-13008888Y42979798D03*
X18584332Y13441502D03*
X5917570Y-658498D03*
X-12715668Y11641502D03*
X5517570Y-358498D03*
X20584332Y13441502D03*
X-12683731Y13921723D03*
X-13417587Y12917398D03*
X22984332Y28341502D03*
X20584332Y13841502D03*
X-14215668Y12541502D03*
X13143435Y18008229D03*
X10684332Y17291502D03*
X-665668Y841502D03*
X18484332Y11441502D03*
X8596423Y-2030487D03*
X-3015668Y12641502D03*
X-7515668Y9741502D03*
X-13915668Y12841502D03*
X20584332Y13041502D03*
X-19815668Y42387398D03*
X24584332Y28341502D03*
X-7515668Y9341502D03*
X4517570Y-658498D03*
X21984332Y28241502D03*
X22584332Y27041502D03*
X-8915668Y10241502D03*
X-16442430Y42787398D03*
X20853125Y12386758D03*
X17298914Y-706358D03*
X13934332Y16401502D03*
X22584332Y26241502D03*
X22734332Y27691502D03*
X5517570Y-958498D03*
X-13915668Y11041502D03*
X18184332Y13441502D03*
X-1115668Y841502D03*
X3017570Y-358498D03*
X20984332Y13441502D03*
X-10125668Y11241502D03*
X-14815668Y11941502D03*
X-10484292Y9021096D03*
X-12472430Y13617398D03*
X-14283731Y13921723D03*
X-14215668Y11341502D03*
X-12283731Y13921723D03*
%TO.N,+3V3*%
X24379944Y45676387D03*
X24227570Y47307398D03*
X24227570Y46907398D03*
X23827570Y47307398D03*
X23992732Y46037828D03*
X24227570Y46507398D03*
X24401858Y46148154D03*
X24227570Y47707398D03*
X23827570Y46907398D03*
%TO.N,+1V8*%
X-17982430Y46287398D03*
X-18382430Y46287398D03*
X-17982430Y45887398D03*
X-17234264Y47647059D03*
X-17182430Y47187398D03*
X-18682430Y46587398D03*
X-17882430Y46687398D03*
X-13790658Y44543362D03*
X-16782429Y47187397D03*
X-18782430Y46987398D03*
X-18282430Y46787398D03*
X-18382430Y47187398D03*
X-17582430Y46987398D03*
X-17682430Y47787398D03*
X-17982430Y47487398D03*
X-17982430Y47087398D03*
X-17582430Y47387398D03*
X-18382430Y45887398D03*
X-16782430Y47587398D03*
%TO.N,+1V0*%
X-14876166Y23985814D03*
X-15290847Y23985814D03*
X-15082393Y24332994D03*
X-15297355Y24676937D03*
X-14282393Y24332994D03*
X-14440296Y23967653D03*
X-14682393Y24332994D03*
X-12764017Y23969907D03*
X-14097355Y24676937D03*
X-13564017Y23969907D03*
X-13164017Y23969907D03*
X-8665668Y11741502D03*
X-14497355Y24676937D03*
X-14897355Y24676937D03*
X-13982393Y24032994D03*
X-15482393Y24332994D03*
%TO.N,+1V15*%
X5317570Y-5312602D03*
X6717570Y-5112602D03*
X6717570Y-3912602D03*
X6817570Y-5912602D03*
X5911790Y-4808866D03*
X6327343Y-4870960D03*
X6332119Y-3629078D03*
X-1515668Y9041502D03*
X6422872Y-5802371D03*
X5542034Y-4575983D03*
X6717570Y-5512602D03*
X5797155Y-5219642D03*
X5617570Y-5612602D03*
X6050307Y-5702066D03*
X6717570Y-3512602D03*
X5217570Y-5712602D03*
X6145837Y-4441078D03*
X6717570Y-4712602D03*
X6227037Y-4035078D03*
X5517570Y-6012602D03*
X5456208Y-4942905D03*
X5917570Y-6112602D03*
X6417570Y-6212602D03*
X6222260Y-5286513D03*
X6717570Y-4312602D03*
%TO.N,SDA*%
X-10382430Y25437398D03*
X-897441Y12846329D03*
X-10915668Y44041502D03*
X20884332Y14436143D03*
X-5215668Y11241502D03*
X4831016Y-3946522D03*
X-4915668Y9541502D03*
X19784332Y14241502D03*
X-15982431Y46685798D03*
X-13682430Y25437398D03*
X20484332Y41941502D03*
X7578667Y-1720952D03*
X-10680018Y24842344D03*
X15084332Y16793642D03*
X18934332Y5691502D03*
%TO.N,SCL*%
X17598914Y18224942D03*
X-10915668Y44541502D03*
X20484332Y40041502D03*
X-582318Y12541502D03*
X-15982430Y46246896D03*
X-13232430Y25437398D03*
X19384332Y5691502D03*
X7995838Y16160971D03*
X7584332Y17641502D03*
X-5415668Y11741502D03*
X8017570Y-1712602D03*
X-4915668Y9041502D03*
X4900451Y-3503461D03*
X16084332Y16793642D03*
X20246462Y18893642D03*
X19784332Y13841502D03*
%TO.N,EN*%
X19410383Y8129344D03*
X-10515668Y43541502D03*
X-5015668Y10398014D03*
%TO.N,VBAT*%
X-7615668Y5941502D03*
X19584332Y11941502D03*
X-6109635Y8996864D03*
X-6515668Y10241502D03*
X-3615668Y10541502D03*
X-11415668Y42541502D03*
X-8515668Y5641502D03*
X-3815668Y11441502D03*
X-12232985Y25796265D03*
X-5915668Y9341502D03*
X-7315668Y5041502D03*
X-6041307Y10239779D03*
X19684332Y11041502D03*
X20084332Y11041502D03*
X-7615668Y4741502D03*
X-12215668Y43041502D03*
X20084332Y11441502D03*
X-8215668Y7141502D03*
X-6315668Y9341502D03*
X-8515668Y6841502D03*
X-4521148Y10746356D03*
X-12215668Y43841502D03*
X-3615668Y9741502D03*
X-3615668Y10141502D03*
X23369811Y46729734D03*
X-8215668Y5341502D03*
X-8855138Y8968317D03*
X15298914Y18593642D03*
X-8215668Y6541502D03*
X-6515668Y10641502D03*
X-7915668Y6241502D03*
X19684332Y11441502D03*
X-7915668Y6841502D03*
X-6653004Y9042416D03*
X-11815668Y42541502D03*
X-11815668Y42141502D03*
X-12329478Y42615810D03*
X19184332Y11941502D03*
X-6315668Y9741502D03*
X-8815668Y6541502D03*
X-8815668Y5941502D03*
X-9115668Y6241502D03*
X-4501231Y11748826D03*
X-7015668Y5341502D03*
X6177897Y-1997614D03*
X-12215668Y43441502D03*
X-8215668Y5941502D03*
X-8633297Y8714784D03*
X-4215668Y11441502D03*
X-7315668Y5641502D03*
X-6715668Y5641502D03*
X19384332Y12641502D03*
X-11748792Y43044551D03*
X-6695302Y9540233D03*
X-4026552Y11805256D03*
X16784332Y10691502D03*
X20303233Y45471233D03*
X-11260245Y42981737D03*
X-4215668Y11041502D03*
X-5637848Y9029401D03*
X-8515668Y6241502D03*
X-7915668Y5641502D03*
X-3409137Y11257549D03*
X-3498762Y11742187D03*
X-7915668Y5041502D03*
X-3815668Y11041502D03*
X-7015668Y5941502D03*
X-4099579Y10540551D03*
X-16502430Y45287398D03*
X-8931198Y8429560D03*
X-7615668Y5341502D03*
X-4538774Y11239878D03*
X-12282593Y42202373D03*
X-9165716Y8695769D03*
X19984332Y11941502D03*
X-5915668Y9741502D03*
X-6515668Y11041502D03*
X18984332Y12641502D03*
X-7315668Y6241502D03*
X-7615668Y6541502D03*
X-11415668Y42141502D03*
%TO.N,+1V8_ALW*%
X16266332Y15957502D03*
X17095648Y9089286D03*
X9834332Y16641502D03*
X17459012Y7936601D03*
X14944710Y17742877D03*
X19591352Y8685420D03*
%TO.N,ALERT*%
X7584332Y16641502D03*
X16998332Y7891502D03*
%TO.N,SAFEMODE*%
X18184059Y8274697D03*
X12834332Y16641502D03*
%TO.N,/1v_ina*%
X-13382430Y26637398D03*
X-12582430Y26637398D03*
X-14182430Y26637398D03*
X-13782430Y26637398D03*
X-14182430Y25437398D03*
X-14982430Y26637398D03*
X-14182430Y25837398D03*
X-13782430Y26237398D03*
X-14982430Y25437398D03*
X-12829500Y25826155D03*
X-14582430Y25437398D03*
X-14582430Y26637398D03*
X-14582430Y25837398D03*
X-14582430Y26237398D03*
X-14982430Y26237398D03*
X-13382430Y26237398D03*
X-12982430Y26637398D03*
X-14976469Y25842711D03*
X-14182430Y26237398D03*
X-12582430Y26237398D03*
X-12982430Y26237398D03*
%TO.N,/1.15v_ina*%
X3943809Y-4110037D03*
X4160453Y-3726744D03*
X3620510Y-4390007D03*
X4817570Y-4812602D03*
X3352665Y-4060717D03*
X3317570Y-3412602D03*
X3617570Y-4812602D03*
X4390429Y-3386780D03*
X4917570Y-4412602D03*
X2817570Y-4212602D03*
X3992546Y-5020231D03*
X3217570Y-4512602D03*
X3673787Y-3740190D03*
X4517570Y-4512602D03*
X4383763Y-4116703D03*
X4319754Y-5287080D03*
X4389643Y-4883630D03*
X2983442Y-3771019D03*
X4097379Y-4604073D03*
X4717570Y-5212602D03*
X3927591Y-3357591D03*
%TO.N,/3.3v_ina*%
X22498914Y45493642D03*
X20084332Y16341502D03*
X23384332Y23541502D03*
X22898914Y45093642D03*
X23784332Y23941502D03*
X22984332Y23541502D03*
X24184332Y23941502D03*
X18984332Y14241502D03*
X20084332Y17441502D03*
X23784332Y23541502D03*
X19684332Y17841502D03*
X19484332Y14841502D03*
X22098914Y45493642D03*
X23298914Y45093642D03*
X23698914Y45093642D03*
X22098914Y45093642D03*
X23752406Y45500391D03*
X22498914Y45093642D03*
X20084332Y15741502D03*
X19684332Y16741502D03*
X19084332Y14841502D03*
X24078605Y45205687D03*
X19684332Y17441502D03*
X23384332Y23941502D03*
X24184332Y23541502D03*
X23384332Y23141502D03*
X19384332Y14241502D03*
X22984332Y23141502D03*
X19884332Y14941502D03*
X20084332Y16741502D03*
X22584332Y23141502D03*
X20084332Y17841502D03*
X22898914Y45493642D03*
X22584332Y23541502D03*
X22984332Y23941502D03*
X23354218Y45491392D03*
X24184332Y23141502D03*
X23784332Y23141502D03*
X22584332Y23941502D03*
X20084332Y15341502D03*
X19684332Y16341502D03*
X19584332Y15441502D03*
%TO.N,/1.8v_ina*%
X-15082430Y47387398D03*
X-15082430Y46587398D03*
X-15482430Y47387398D03*
X-15682430Y47787398D03*
X-15482430Y46187398D03*
X-15682430Y45787398D03*
X-15982431Y47187397D03*
X-15082430Y46187398D03*
X-15482430Y46587398D03*
X-14882430Y47787398D03*
X-15282430Y45787398D03*
X-15482430Y46987398D03*
X-16088879Y47613195D03*
X-15282430Y47787398D03*
X-14882430Y45787398D03*
X-15082430Y46987398D03*
%TO.N,Net-(U7-LX2)*%
X17684332Y14341502D03*
X17284332Y14341502D03*
X18984332Y13841502D03*
X17284332Y14741502D03*
X16884332Y14741502D03*
X16884332Y14341502D03*
X19384332Y13841502D03*
X17684332Y14741502D03*
%TO.N,Net-(U7-LX1)*%
X17684332Y12141502D03*
X17684332Y12541502D03*
X17284332Y12541502D03*
X16884332Y12541502D03*
X16884332Y12141502D03*
X17284332Y12141502D03*
X18984332Y13041502D03*
X19384332Y13041502D03*
%TO.N,Net-(U5-VSET)*%
X-13815668Y44041502D03*
X-14909747Y42576795D03*
%TO.N,Net-(U9-PC0)*%
X16378025Y5161502D03*
X19834332Y5691502D03*
%TD*%
D16*
%TO.N,SCL*%
X20701127Y14791502D02*
X20684332Y14791502D01*
X20742330Y14750299D02*
X20701127Y14791502D01*
D17*
%TO.N,+3V3*%
X24227570Y47307398D02*
X24498914Y47707398D01*
D18*
X24498914Y47707398D02*
X24227570Y47707398D01*
X24677926Y47707398D02*
X24498914Y47707398D01*
D17*
X24227570Y46907398D02*
X23956364Y47436192D01*
D18*
X23956364Y47436192D02*
X24227570Y47707398D01*
X23827570Y47307398D02*
X23956364Y47436192D01*
D16*
%TO.N,SDA*%
X19910029Y18533292D02*
X16938564Y18533292D01*
X16938564Y18533292D02*
X15198914Y16793642D01*
X15198914Y16793642D02*
X15084332Y16793642D01*
D19*
%TO.N,VBAT*%
X19898914Y45493642D02*
X20280824Y45493642D01*
X15298914Y18593642D02*
X15498914Y18793642D01*
X15498914Y18793642D02*
X19522305Y18793642D01*
X19522305Y18793642D02*
X19677762Y18949099D01*
X19677762Y18949099D02*
X19677762Y45272490D01*
X19677762Y45272490D02*
G75*
G02*
X19898914Y45493628I221168J-30D01*
G01*
X20280824Y45493642D02*
G75*
G02*
X20303212Y45471233I6J-22382D01*
G01*
D18*
%TO.N,+3V3*%
X23827570Y46907398D02*
X23827570Y47307398D01*
X24677926Y47307398D02*
X24677926Y47707398D01*
X24677926Y47227754D02*
X24677926Y47527398D01*
X23992732Y46037828D02*
X24227570Y46272666D01*
X23992732Y46037828D02*
X24379944Y45676387D01*
X23827570Y46907398D02*
X24227570Y46507398D01*
X24379944Y45676387D02*
X24401858Y46148154D01*
X24227570Y47578742D02*
X24498914Y47307398D01*
X24227570Y47707398D02*
X24227570Y47578742D01*
X24171974Y46086163D02*
X24401858Y46148154D01*
X23827570Y46907398D02*
X23827570Y47307398D01*
X24401858Y46148154D02*
X24401858Y47251330D01*
X24227570Y46272666D02*
X24227570Y46507398D01*
X24677926Y47227754D02*
X24677926Y47527398D01*
X24227570Y47307398D02*
X24498914Y47307398D01*
X24171974Y46851802D02*
X24227570Y46907398D01*
X24498914Y47307398D02*
X24677926Y47307398D01*
X24401858Y46148154D02*
X24401858Y47251330D01*
X24227570Y46907398D02*
X24227570Y47707398D01*
X24227570Y47707398D02*
X24227570Y47578742D01*
X24227570Y47307398D02*
X24498914Y47307398D01*
X23992732Y46037828D02*
X24379944Y45676387D01*
X24227570Y47707398D02*
X24227570Y46507398D01*
X24677926Y47707398D02*
X24227570Y47707398D01*
X24227570Y46907398D02*
X24357570Y46907398D01*
X24171974Y46086163D02*
X24401858Y46148154D01*
X24357570Y46907398D02*
X24677926Y47227754D01*
X23992732Y46037828D02*
X24227570Y46272666D01*
X24379944Y45676387D02*
X24401858Y46148154D01*
X24227570Y46907398D02*
X24357570Y46907398D01*
X24310631Y46336193D02*
X24401858Y46148154D01*
X24310631Y46336193D02*
X24171974Y46086163D01*
X24171974Y46851802D02*
X24227570Y46907398D01*
X24171974Y46086163D02*
X24171974Y46851802D01*
X24227570Y46907398D02*
X24227570Y47707398D01*
X24227570Y46507398D02*
X24310631Y46336193D01*
X23827570Y47307398D02*
X24227570Y47707398D01*
X24227570Y47578742D02*
X24498914Y47307398D01*
X24227570Y46272666D02*
X24227570Y46507398D01*
X23992732Y46037828D02*
X24171974Y46086163D01*
X24401858Y47251330D02*
X24677926Y47527398D01*
X24171974Y46086163D02*
X24171974Y46851802D01*
X23827570Y46907398D02*
X24227570Y46507398D01*
X23827570Y47307398D02*
X24227570Y46907398D01*
X24310631Y46336193D02*
X24171974Y46086163D01*
X24677926Y47307398D02*
X24677926Y47707398D01*
X23992732Y46037828D02*
X24171974Y46086163D01*
X24401858Y47251330D02*
X24677926Y47527398D01*
X24227570Y46507398D02*
X24310631Y46336193D01*
X24310631Y46336193D02*
X24401858Y46148154D01*
X24227570Y47707398D02*
X24227570Y46507398D01*
X23827570Y47307398D02*
X24227570Y46907398D01*
X24498914Y47307398D02*
X24677926Y47307398D01*
X24357570Y46907398D02*
X24677926Y47227754D01*
D20*
%TO.N,+1V8*%
X-17682430Y47787398D02*
X-17582430Y47387398D01*
X-16782429Y47187397D02*
X-16982430Y47187398D01*
X-18782430Y46987398D02*
X-18282430Y46787398D01*
X-18782430Y46987398D02*
X-18682430Y46587398D01*
D21*
X-18374987Y44579955D02*
X-19552430Y45757398D01*
X-13827251Y44579955D02*
X-18374987Y44579955D01*
D20*
X-18682430Y46587398D02*
X-18382430Y46287398D01*
X-18382430Y46087398D02*
X-18382430Y45887398D01*
D21*
X-13790658Y44543362D02*
X-13827251Y44579955D01*
D20*
X-18082430Y45887398D02*
X-17982430Y45887398D01*
X-17882430Y46687398D02*
X-17682430Y47787398D01*
X-18382430Y47187398D02*
X-18782430Y46987398D01*
X-17982430Y47487398D02*
X-18382430Y47187398D01*
X-16982430Y47187398D02*
X-17182430Y47187398D01*
X-18282430Y46787398D02*
X-18082430Y45887398D01*
X-18282430Y46787398D02*
X-18382430Y46087398D01*
X-18382430Y46287398D02*
X-18382430Y46087398D01*
X-18382430Y46287398D02*
X-17982430Y46287398D01*
X-17582430Y46987398D02*
X-17882430Y46687398D01*
X-17182430Y47187398D02*
X-17582430Y46987398D01*
X-17234264Y47647059D02*
X-16982430Y47187398D01*
X-16782430Y47587398D02*
X-16782429Y47187397D01*
X-17982430Y47487398D02*
X-17182430Y47187398D01*
D21*
X-19552430Y45757398D02*
X-19552430Y47978965D01*
D20*
X-17982430Y46287398D02*
X-17982430Y45887398D01*
X-17234264Y47647059D02*
X-17582430Y46987398D01*
X-17882430Y46687398D02*
X-17982430Y46287398D01*
X-16782430Y47587398D02*
X-17234264Y47647059D01*
X-18382430Y45887398D02*
X-18082430Y45887398D01*
X-17682430Y47787398D02*
X-17982430Y47487398D01*
X-17682430Y47787398D02*
X-17234264Y47647059D01*
X-18682430Y46587398D02*
X-18282430Y46787398D01*
X-17982430Y47487398D02*
X-17982430Y47087398D01*
X-18382430Y47187398D02*
X-17882430Y46687398D01*
%TO.N,+1V0*%
X-14497355Y24676937D02*
X-14440296Y23967653D01*
X-13197355Y23516639D02*
X-13197355Y23676937D01*
X-15297355Y24676937D02*
X-15482393Y24332994D01*
X-13197355Y23676937D02*
X-12997355Y23876937D01*
X-14440296Y23967653D02*
X-14182430Y24004449D01*
X-14197355Y23676937D02*
X-14197355Y23516639D01*
X-12197355Y23876937D02*
X-12197355Y23516639D01*
X-13982393Y24032994D02*
X-13564017Y23969907D01*
X-14018885Y24237398D02*
X-13982393Y24032994D01*
X-12557653Y23516639D02*
X-14821672Y23516639D01*
X-14497355Y23516639D02*
X-14497355Y23876937D01*
X-14197355Y23516639D02*
X-14197355Y23776937D01*
X-14018885Y24237398D02*
X-13564017Y23969907D01*
X-13297355Y23876937D02*
X-13197355Y23776937D01*
X-14182430Y24004449D02*
X-13982393Y24032994D01*
X-12597355Y23876937D02*
X-12597355Y23776937D01*
X-14497355Y23876937D02*
X-14597355Y23876937D01*
X-14497355Y23976937D02*
X-14197355Y23676937D01*
X-12290325Y23969907D02*
X-12197355Y23876937D01*
X-15482393Y24332994D02*
X-15290847Y23985814D01*
X-12897355Y23576937D02*
X-12597355Y23876937D01*
D19*
X-13402430Y23247398D02*
X-11592430Y23247398D01*
D20*
X-14897355Y24676937D02*
X-14876166Y23985814D01*
X-14737057Y23516639D02*
X-14497355Y23516639D01*
X-15082393Y24332994D02*
X-15290847Y23985814D01*
X-13564017Y23969907D02*
X-13164017Y23969907D01*
X-13997355Y23976937D02*
X-13897355Y23876937D01*
X-14497355Y23876937D02*
X-14497355Y23976937D01*
X-14876166Y23985814D02*
X-14876166Y23655748D01*
X-14197355Y23776937D02*
X-13997355Y23976937D01*
X-13497355Y23676937D02*
X-13297355Y23876937D01*
X-12897355Y23516639D02*
X-12897355Y23576937D01*
X-15297355Y24676937D02*
X-15082393Y24332994D01*
X-15290847Y23985814D02*
X-14876166Y23985814D01*
X-13497355Y23676937D02*
X-13497355Y23516639D01*
X-14597355Y23876937D02*
X-14697355Y23776937D01*
D19*
X-11592430Y23247398D02*
X-11422430Y23077398D01*
D20*
X-14097355Y24676937D02*
X-14018885Y24237398D01*
X-12997355Y23876937D02*
X-12897355Y23776937D01*
X-15297355Y24676937D02*
X-14097355Y24676937D01*
X-12764017Y23969907D02*
X-12290325Y23969907D01*
X-12197355Y23876937D02*
X-12557653Y23516639D01*
D19*
X-11422430Y23077398D02*
X-11422430Y14498264D01*
D20*
X-12897355Y23776937D02*
X-12897355Y23516639D01*
X-13897355Y23516639D02*
X-13897355Y23576937D01*
X-13197355Y23776937D02*
X-13197355Y23516639D01*
X-14682393Y24332994D02*
X-14440296Y23967653D01*
D19*
X-11422430Y14498264D02*
X-8665668Y11741502D01*
D20*
X-14876166Y23655748D02*
X-14737057Y23516639D01*
X-14821672Y23516639D02*
X-15290847Y23985814D01*
X-14282393Y24332994D02*
X-14182430Y24004449D01*
X-13597355Y23876937D02*
X-13597355Y23776937D01*
X-12597355Y23776937D02*
X-12597355Y23516639D01*
X-13897355Y23576937D02*
X-13597355Y23876937D01*
X-14876166Y23985814D02*
X-14440296Y23967653D01*
X-13164017Y23969907D02*
X-12764017Y23969907D01*
X-13597355Y23776937D02*
X-13497355Y23676937D01*
X-13897355Y23876937D02*
X-13897355Y23516639D01*
%TO.N,+1V15*%
X5217570Y-5712602D02*
X5617570Y-5612602D01*
X6717570Y-5112602D02*
X7196314Y-5112602D01*
X6417570Y-6212602D02*
X5917570Y-6112602D01*
X6717570Y-5512602D02*
X6817570Y-5912602D01*
D17*
X-68032Y-227000D02*
X2317570Y-2612602D01*
D20*
X5317570Y-5312602D02*
X5456208Y-4942905D01*
X6327343Y-4870960D02*
X6717570Y-5512602D01*
X6717570Y-4312602D02*
X6717570Y-4712602D01*
D17*
X-94026Y-227000D02*
X-68032Y-227000D01*
X7246314Y-2841346D02*
X7246314Y-4372602D01*
D19*
X-1515668Y9041502D02*
X-915668Y9041502D01*
D20*
X5517570Y-6012602D02*
X5917570Y-6112602D01*
D19*
X-915668Y9041502D02*
X-227000Y8352834D01*
D20*
X6817570Y-5912602D02*
X6417570Y-6212602D01*
X5917570Y-6112602D02*
X5456208Y-4942905D01*
X7100079Y-5630093D02*
X7196314Y-5630093D01*
X6227037Y-4035078D02*
X6332119Y-3629078D01*
X5911790Y-4808866D02*
X6222260Y-5286513D01*
X7196314Y-4712602D02*
X7196314Y-4730093D01*
D17*
X2317570Y-2612602D02*
X7017570Y-2612602D01*
D20*
X5797155Y-5219642D02*
X5517570Y-6012602D01*
X6935983Y-5230093D02*
X6935983Y-3730093D01*
X6817570Y-5912602D02*
X7100079Y-5630093D01*
X6717570Y-3512602D02*
X7118492Y-3512602D01*
X6717570Y-4712602D02*
X6717570Y-5112602D01*
X6717570Y-3912602D02*
X7118492Y-3912602D01*
X5917570Y-6112602D02*
X6717570Y-3512602D01*
D19*
X-227000Y-94026D02*
X-94026Y-227000D01*
D20*
X6717570Y-5112602D02*
X6717570Y-5512602D01*
X5733560Y-4696612D02*
X6029252Y-4624284D01*
X5456208Y-4942905D02*
X5542034Y-4575983D01*
X6717570Y-4312602D02*
X7196314Y-4312602D01*
X6050307Y-5702066D02*
X6417570Y-6212602D01*
X5542034Y-4575983D02*
X6050307Y-5702066D01*
X6029252Y-4624284D02*
X6145837Y-4441078D01*
X6717570Y-3912602D02*
X6717570Y-4312602D01*
X5317570Y-5312602D02*
X5617570Y-5612602D01*
X5733560Y-4696612D02*
X5911790Y-4808866D01*
X6145837Y-4441078D02*
X6227037Y-4035078D01*
X7196314Y-5512602D02*
X7196314Y-5530093D01*
X7196314Y-5590424D02*
X6935983Y-5330093D01*
D17*
X7017570Y-2612602D02*
X7246314Y-2841346D01*
D20*
X6935983Y-5330093D02*
X6935983Y-5230093D01*
X5542034Y-4575983D02*
X5733560Y-4696612D01*
X7196314Y-4312602D02*
X7196314Y-4330093D01*
X6332119Y-3629078D02*
X6717570Y-3512602D01*
X6417570Y-6212602D02*
X6717570Y-5512602D01*
X7118492Y-3512602D02*
X7135983Y-3530093D01*
X7196314Y-5630093D02*
X7196314Y-5590424D01*
X5217570Y-5712602D02*
X5317570Y-5312602D01*
X5217570Y-5712602D02*
X5517570Y-6012602D01*
X7196314Y-5112602D02*
X7196314Y-5130093D01*
D19*
X-227000Y8352834D02*
X-227000Y-94026D01*
D20*
X6145837Y-4441078D02*
X6422872Y-5802371D01*
X6717570Y-4712602D02*
X6327343Y-4870960D01*
X5911790Y-4808866D02*
X6029252Y-4624284D01*
X7118492Y-3912602D02*
X7135983Y-3930093D01*
X6717570Y-5512602D02*
X7196314Y-5512602D01*
X6717570Y-4712602D02*
X7196314Y-4712602D01*
X6717570Y-3512602D02*
X6717570Y-3912602D01*
D16*
%TO.N,SDA*%
X21576532Y8333702D02*
X21576532Y13977854D01*
X-1499818Y11884430D02*
X-1499818Y9867780D01*
X-2141946Y9225652D02*
X-4599818Y9225652D01*
X7578667Y-1151505D02*
X8585722Y-144450D01*
X21118243Y14436143D02*
X20884332Y14436143D01*
X21576532Y13977854D02*
X21118243Y14436143D01*
X-1065668Y12318580D02*
X-1499818Y11884430D01*
X19784332Y14242220D02*
X20484332Y14942220D01*
D22*
X-5088994Y13754400D02*
X-10174818Y18840224D01*
D16*
X15585722Y-144450D02*
X15681975Y-48197D01*
X-1499818Y9867780D02*
X-2141946Y9225652D01*
D22*
X-10174818Y42670060D02*
X-10915668Y43410910D01*
X-10680018Y24964124D02*
X-10962792Y25246898D01*
X-10374818Y25437398D02*
X-10174818Y25637398D01*
X-5365668Y9991502D02*
X-4915668Y9541502D01*
D16*
X19938112Y18561375D02*
X19938112Y18841259D01*
D22*
X-5365668Y11091502D02*
X-5365668Y9991502D01*
X-10915668Y43410910D02*
X-10915668Y44041502D01*
X-5215668Y11241502D02*
X-5088994Y11368176D01*
X-10382430Y25437398D02*
X-10374818Y25437398D01*
D16*
X-4599818Y9225652D02*
X-4915668Y9541502D01*
X-897441Y12846329D02*
X-1065668Y12678102D01*
D22*
X-10374818Y25437398D02*
X-10174818Y25237398D01*
X-10174818Y18840224D02*
X-10174818Y25237398D01*
X-10174818Y25437398D02*
X-10174818Y25637398D01*
X-5215668Y11241502D02*
X-5365668Y11091502D01*
D16*
X15681975Y5351803D02*
X16021674Y5691502D01*
X19938112Y41395282D02*
X19938112Y18841259D01*
X19938112Y18561375D02*
X19910029Y18533292D01*
X20484332Y14942220D02*
X20484332Y18379480D01*
X20330520Y18533292D02*
X19910029Y18533292D01*
X7578667Y-1720952D02*
X7578667Y-1151505D01*
X16021674Y5691502D02*
X18934332Y5691502D01*
D22*
X-5088994Y11368176D02*
X-5088994Y13754400D01*
D16*
X18934332Y5691502D02*
X21576532Y8333702D01*
X15681975Y-48197D02*
X15681975Y5351803D01*
X20484332Y18379480D02*
X20330520Y18533292D01*
D22*
X-10174818Y25437398D02*
X-10382430Y25437398D01*
X-10962792Y25246898D02*
X-12977876Y25246898D01*
D16*
X8585722Y-144450D02*
X15585722Y-144450D01*
D22*
X-10174818Y25637398D02*
X-10174818Y42670060D01*
X-13102076Y25122698D02*
X-13367730Y25122698D01*
D16*
X20484332Y41941502D02*
X19938112Y41395282D01*
D22*
X-10174818Y25237398D02*
X-10174818Y25437398D01*
X-13367730Y25122698D02*
X-13682430Y25437398D01*
X-10680018Y24842344D02*
X-10680018Y24964124D01*
D16*
X-1065668Y12678102D02*
X-1065668Y12318580D01*
D22*
X-12977876Y25246898D02*
X-13102076Y25122698D01*
D16*
%TO.N,SCL*%
X21055535Y14750299D02*
X20742330Y14750299D01*
D22*
X-1315668Y11808152D02*
X-582318Y12541502D01*
D16*
X19803758Y13841502D02*
X19834332Y13841502D01*
X20246462Y18893642D02*
X20684332Y18455772D01*
D22*
X-10827484Y25437398D02*
X-13232430Y25437398D01*
D16*
X20246462Y18893642D02*
X20115912Y19024192D01*
X19384332Y5835022D02*
X21754332Y8205022D01*
D22*
X-11025366Y43241502D02*
X-11025366Y43241200D01*
X-5315668Y11841502D02*
X-5315668Y13711666D01*
X-2065668Y9041502D02*
X-1315668Y9791502D01*
X-5565668Y9691502D02*
X-4915668Y9041502D01*
X-4915668Y9041502D02*
X-2065668Y9041502D01*
D16*
X20115912Y39673082D02*
X20484332Y40041502D01*
D22*
X-10365318Y24975232D02*
X-10827484Y25437398D01*
D16*
X21754332Y14051502D02*
X21055535Y14750299D01*
X20684332Y14692301D02*
X20684332Y14691502D01*
X19834332Y13841502D02*
X20684332Y14691502D01*
X17598914Y18224942D02*
X16929222Y18224942D01*
D22*
X-10915668Y44541502D02*
X-11265668Y44191502D01*
D16*
X20742330Y14750299D02*
X20684332Y14692301D01*
X8017570Y-1712602D02*
X8017570Y-964050D01*
X7984332Y16701502D02*
X7584332Y17101502D01*
X20115912Y19024192D02*
X20115912Y39673082D01*
X7995838Y16160971D02*
X7995838Y16688996D01*
D22*
X-5415668Y11741502D02*
X-5315668Y11841502D01*
D16*
X20684332Y18455772D02*
X20684332Y14691502D01*
X8659370Y-322250D02*
X15659369Y-322250D01*
D22*
X-5415668Y11741502D02*
X-5565668Y11591502D01*
X-10365318Y18761316D02*
X-10365318Y24975232D01*
D16*
X18676059Y5513702D02*
X18806609Y5383152D01*
X7584332Y17101502D02*
X7584332Y17641502D01*
D22*
X-11265668Y44191502D02*
X-11265668Y43481804D01*
D16*
X19384332Y5691502D02*
X19384332Y5835022D01*
X18806609Y5383152D02*
X19075982Y5383152D01*
D22*
X-10365318Y42581152D02*
X-10365318Y25899564D01*
D16*
X16084332Y17380052D02*
X16084332Y16793642D01*
X7995838Y16688996D02*
X7984332Y16700502D01*
D22*
X-11025366Y43241200D02*
X-10365318Y42581152D01*
X-5565668Y11591502D02*
X-5565668Y9691502D01*
D16*
X16929222Y18224942D02*
X16084332Y17380052D01*
D22*
X-11265668Y43481804D02*
X-11025366Y43241502D01*
D16*
X15859775Y5278155D02*
X16095322Y5513702D01*
D22*
X-10365318Y25899564D02*
X-10827484Y25437398D01*
D16*
X19075982Y5383152D02*
X19384332Y5691502D01*
D22*
X-5315668Y13711666D02*
X-10365318Y18761316D01*
D16*
X16095322Y5513702D02*
X18676059Y5513702D01*
X15859775Y-121845D02*
X15859775Y5278155D01*
D22*
X-1315668Y9791502D02*
X-1315668Y11808152D01*
D16*
X15659369Y-322250D02*
X15859775Y-121845D01*
X8017570Y-964050D02*
X8659370Y-322250D01*
X7984332Y16700502D02*
X7984332Y16701502D01*
X21754332Y8205022D02*
X21754332Y14051502D01*
%TO.N,EN*%
X-9990668Y18916502D02*
X-9990668Y42746338D01*
X15714332Y15511502D02*
X15714332Y8621502D01*
X-2215594Y9403452D02*
X-1677618Y9941428D01*
X-1677618Y9941428D02*
X-1677618Y11958078D01*
X16756332Y7579502D02*
X18622332Y7579502D01*
X-9990668Y42746338D02*
X-10515668Y43271338D01*
X-4326894Y9403452D02*
X-2215594Y9403452D01*
X15562854Y15662980D02*
X15714332Y15511502D01*
X15714332Y8621502D02*
X16756332Y7579502D01*
X-587935Y13191502D02*
X-237681Y13541756D01*
X-237681Y13541756D02*
X-237681Y15467725D01*
X-10515668Y43271338D02*
X-10515668Y43541502D01*
X-1265668Y12941013D02*
X-1015179Y13191502D01*
X-42426Y15662980D02*
X15562854Y15662980D01*
X-1265668Y12370028D02*
X-1265668Y12941013D01*
X-4865668Y11091502D02*
X-4865668Y13791502D01*
X-1015179Y13191502D02*
X-587935Y13191502D01*
X18622332Y7579502D02*
X19172174Y8129344D01*
X-5015668Y10398014D02*
X-5015668Y10092226D01*
X19172174Y8129344D02*
X19410383Y8129344D01*
X-237681Y15467725D02*
X-42426Y15662980D01*
X-1677618Y11958078D02*
X-1265668Y12370028D01*
X-5015668Y10092226D02*
X-4326894Y9403452D01*
X-5015668Y10941502D02*
X-4865668Y11091502D01*
X-4865668Y13791502D02*
X-9990668Y18916502D01*
X-5015668Y10398014D02*
X-5015668Y10941502D01*
D20*
%TO.N,VBAT*%
X-6041307Y10239779D02*
X-6109635Y8996864D01*
X-6515668Y11041502D02*
X-6041307Y10239779D01*
X-12215668Y43441502D02*
X-11748792Y43044551D01*
X-6515668Y11041502D02*
X-6515668Y10641502D01*
X-7015668Y5341502D02*
X-8515668Y6841502D01*
X-9115668Y6241502D02*
X-7615668Y4741502D01*
X-4501231Y11748826D02*
X-4538774Y11239878D01*
X-11415668Y42141502D02*
X-11415668Y42541502D01*
X-6515668Y10241502D02*
X-6695302Y9540233D01*
X-12215668Y43041502D02*
X-11815668Y42541502D01*
X-8855138Y8968317D02*
X-8633297Y8714784D01*
X-8815668Y6541502D02*
X-7315668Y5041502D01*
X-6515668Y10641502D02*
X-6041307Y10239779D01*
X-8633297Y8714784D02*
X-8931198Y8429560D01*
X-3498762Y11742187D02*
X-3409137Y11257549D01*
D23*
X23369811Y46729734D02*
X23007026Y46729734D01*
D20*
X-6653004Y9042416D02*
X-6109635Y8996864D01*
X-3498762Y11742187D02*
X-3815668Y11041502D01*
X-5915668Y9341502D02*
X-5637848Y9029401D01*
X-5915668Y9741502D02*
X-5915668Y9341502D01*
X-3615668Y10541502D02*
X-3615668Y9741502D01*
X20084332Y11041502D02*
X19684332Y11041502D01*
X-6515668Y10641502D02*
X-6515668Y10241502D01*
X-6653004Y9042416D02*
X-6041307Y10239779D01*
D23*
X20523860Y46118588D02*
X20303233Y45897961D01*
D20*
X-8515668Y6841502D02*
X-8515668Y5641502D01*
D23*
X23007026Y46729734D02*
X22395880Y46118588D01*
D20*
X-4521148Y10746356D02*
X-4099579Y10540551D01*
X-7615668Y6541502D02*
X-7615668Y4741502D01*
X-12215668Y43041502D02*
X-11415668Y42141502D01*
X-12215668Y43041502D02*
X-12329478Y42615810D01*
X19584332Y11941502D02*
X20084332Y11441502D01*
X19684332Y11441502D02*
X20084332Y11441502D01*
X20084332Y11441502D02*
X20084332Y11041502D01*
X-8215668Y7141502D02*
X-8215668Y5341502D01*
X-4099579Y10540551D02*
X-3615668Y10541502D01*
X-4501231Y11748826D02*
X-4215668Y11441502D01*
X-6715668Y5641502D02*
X-7615668Y4741502D01*
X-4501231Y11748826D02*
X-4099579Y10540551D01*
X-8215668Y7141502D02*
X-9115668Y6241502D01*
X19184332Y11941502D02*
X19984332Y11941502D01*
X-6695302Y9540233D02*
X-6653004Y9042416D01*
X-4538774Y11239878D02*
X-4521148Y10746356D01*
X19184332Y11941502D02*
X19684332Y11441502D01*
X-12282593Y42202373D02*
X-11748792Y43044551D01*
X-9165716Y8695769D02*
X-8931198Y8429560D01*
D18*
X18984332Y12641502D02*
X19384332Y12641502D01*
D20*
X-3409137Y11257549D02*
X-3615668Y10541502D01*
X-11415668Y42541502D02*
X-11260245Y42981737D01*
X-4501231Y11748826D02*
X-4026552Y11805256D01*
X-11815668Y42141502D02*
X-12282593Y42202373D01*
X-6515668Y10241502D02*
X-5915668Y9741502D01*
X-6109635Y8996864D02*
X-5637848Y9029401D01*
X19684332Y11041502D02*
X19684332Y11441502D01*
D23*
X23369811Y46729734D02*
X23007026Y46729734D01*
D20*
X-8215668Y7141502D02*
X-6715668Y5641502D01*
X-6515668Y10241502D02*
X-6109635Y8996864D01*
X-7315668Y6241502D02*
X-7315668Y5041502D01*
X19984332Y11941502D02*
X20084332Y11441502D01*
X-4099579Y10540551D02*
X-3615668Y10141502D01*
X-12215668Y43841502D02*
X-12215668Y43441502D01*
X-12282593Y42202373D02*
X-11260245Y42981737D01*
D23*
X20303233Y45897961D02*
X20303233Y45471233D01*
D20*
X-7015668Y5941502D02*
X-7015668Y5341502D01*
X-4026552Y11805256D02*
X-3615668Y10541502D01*
X-12329478Y42615810D02*
X-12282593Y42202373D01*
X-11815668Y42141502D02*
X-11415668Y42141502D01*
X-9165716Y8695769D02*
X-8855138Y8968317D01*
X-4026552Y11805256D02*
X-3498762Y11742187D01*
X-5915668Y9741502D02*
X-6041307Y10239779D01*
X-8815668Y6541502D02*
X-8815668Y5941502D01*
X-4099579Y10540551D02*
X-3815668Y11441502D01*
X-4521148Y10746356D02*
X-3815668Y11441502D01*
X-7915668Y6841502D02*
X-7915668Y5041502D01*
X-11260245Y42981737D02*
X-11748792Y43044551D01*
X19684332Y11041502D02*
X20084332Y11441502D01*
X-12215668Y43441502D02*
X-12215668Y43041502D01*
X-4521148Y10746356D02*
X-3615668Y9741502D01*
X-11748792Y43044551D02*
X-11815668Y42141502D01*
D23*
X22395880Y46118588D02*
X20523860Y46118588D01*
%TO.N,+1V8_ALW*%
X9834332Y18291502D02*
X9834332Y16641502D01*
X19134332Y8392752D02*
X19134332Y8391502D01*
X16266782Y10359052D02*
X17095648Y9530186D01*
X16266782Y15957052D02*
X16266782Y10359052D01*
X17095648Y9530186D02*
X17095648Y9089286D01*
X19427000Y8685420D02*
X19134332Y8392752D01*
X10334332Y18791502D02*
X9834332Y18291502D01*
X13896085Y18791502D02*
X10334332Y18791502D01*
X14944710Y17742877D02*
X13896085Y18791502D01*
X18679431Y7936601D02*
X17459012Y7936601D01*
X16266332Y15957502D02*
X16266782Y15957052D01*
X19134332Y8391502D02*
X18679431Y7936601D01*
X19591352Y8685420D02*
X19427000Y8685420D01*
D16*
%TO.N,ALERT*%
X15892132Y15585149D02*
X15892132Y8707254D01*
X7791332Y15841502D02*
X15635780Y15841502D01*
X15635780Y15841502D02*
X15892132Y15585149D01*
X16707884Y7891502D02*
X17041164Y7891502D01*
X15892132Y8707254D02*
X16707884Y7891502D01*
X7584332Y16641502D02*
X7584332Y16048502D01*
X7584332Y16048502D02*
X7791332Y15841502D01*
%TO.N,SAFEMODE*%
X16069932Y15658795D02*
X16069932Y8780902D01*
X15705138Y16023589D02*
X16069932Y15658795D01*
X16069932Y8780902D02*
X16576332Y8274502D01*
X13452245Y16023589D02*
X15705138Y16023589D01*
X12834332Y16641502D02*
X13452245Y16023589D01*
X18183864Y8274502D02*
X18184059Y8274697D01*
X16576332Y8274502D02*
X18183864Y8274502D01*
D20*
%TO.N,/1v_ina*%
X-13782430Y26637398D02*
X-13382430Y26237398D01*
X-14182430Y25437398D02*
X-14182430Y26237398D01*
X-14182430Y26237398D02*
X-14582430Y25837398D01*
X-14582430Y26637398D02*
X-14582430Y25437398D01*
X-12982430Y26237398D02*
X-13982430Y26237398D01*
X-14182430Y25837398D02*
X-13782430Y26237398D01*
X-13382430Y26637398D02*
X-12982430Y26237398D01*
X-14582430Y26637398D02*
X-13982430Y26237398D01*
X-14982430Y25437398D02*
X-14982430Y25637398D01*
X-14982430Y25637398D02*
X-14982430Y26637398D01*
X-14982430Y25637398D02*
X-14582430Y25837398D01*
X-13982430Y26237398D02*
X-14982430Y26237398D01*
X-12829500Y25826155D02*
X-13382430Y26237398D01*
X-14982430Y25437398D02*
X-14182430Y25437398D01*
X-14582430Y25837398D02*
X-14182430Y25437398D01*
X-12982430Y26237398D02*
X-12829500Y25826155D01*
X-12582430Y26237398D02*
X-12829500Y25826155D01*
X-14982430Y26637398D02*
X-14582430Y26237398D01*
X-14182430Y25837398D02*
X-14976469Y25842711D01*
X-12982430Y26637398D02*
X-12582430Y26237398D01*
X-12582430Y26237398D02*
X-12582430Y26637398D01*
X-14982430Y26237398D02*
X-14582430Y25837398D01*
X-14982430Y26637398D02*
X-12582430Y26637398D01*
X-14182430Y26637398D02*
X-13782430Y26237398D01*
%TO.N,/1.15v_ina*%
X3943809Y-4110037D02*
X4097379Y-4604073D01*
X4319754Y-5287080D02*
X4717570Y-5212602D01*
X3927591Y-3357591D02*
X4390429Y-3386780D01*
X3217570Y-4512602D02*
X3673787Y-3740190D01*
X4817570Y-4812602D02*
X4517570Y-4512602D01*
X4433074Y-4262602D02*
X4717570Y-4462602D01*
X2817570Y-4212602D02*
X3352665Y-4060717D01*
X4389643Y-4883630D02*
X4717570Y-5212602D01*
X3217570Y-4512602D02*
X3497915Y-4512602D01*
X4517570Y-4512602D02*
X4717570Y-4462602D01*
X3317570Y-3412602D02*
X3352665Y-4060717D01*
X3352665Y-4060717D02*
X3673787Y-3740190D01*
X3317570Y-3412602D02*
X3927591Y-3357591D01*
X4383763Y-4116703D02*
X4433074Y-4262602D01*
X4717570Y-4462602D02*
X4917570Y-4412602D01*
X4817570Y-4812602D02*
X4917570Y-4412602D01*
X2817570Y-4212602D02*
X3217570Y-4512602D01*
X2983442Y-3771019D02*
X2817570Y-4212602D01*
X3217570Y-4512602D02*
X3617570Y-4812602D01*
X3497915Y-4512602D02*
X3620510Y-4390007D01*
X3317570Y-3412602D02*
X2983442Y-3771019D01*
X3617570Y-4812602D02*
X3992546Y-5020231D01*
X3927591Y-3357591D02*
X3352665Y-4060717D01*
X2983442Y-3771019D02*
X3352665Y-4060717D01*
X3352665Y-4060717D02*
X3620510Y-4390007D01*
X4160453Y-3726744D02*
X4383763Y-4116703D01*
X4717570Y-5212602D02*
X4817570Y-4812602D01*
X4319754Y-5287080D02*
X4517570Y-4512602D01*
X3673787Y-3740190D02*
X3620510Y-4390007D01*
X4160453Y-3726744D02*
X4389643Y-4883630D01*
X3620510Y-4390007D02*
X4389643Y-4883630D01*
X3617570Y-4812602D02*
X3943809Y-4110037D01*
X4817570Y-4812602D02*
X4389643Y-4883630D01*
X4433074Y-4262602D02*
X4517570Y-4512602D01*
X4390429Y-3386780D02*
X4383763Y-4116703D01*
X3992546Y-5020231D02*
X4319754Y-5287080D01*
X3927591Y-3357591D02*
X3943809Y-4110037D01*
X4390429Y-3386780D02*
X4160453Y-3726744D01*
X3317570Y-3412602D02*
X3943809Y-4110037D01*
D18*
%TO.N,/3.3v_ina*%
X23698914Y45093642D02*
X23752406Y45500391D01*
D20*
X20084332Y15741502D02*
X19484332Y14841502D01*
X24184332Y23141502D02*
X22584332Y23141502D01*
D18*
X23752406Y45500391D02*
X24078605Y45205687D01*
D20*
X19484332Y14841502D02*
X19884332Y14941502D01*
D18*
X23698914Y45093642D02*
X22098914Y45093642D01*
D20*
X22984332Y23941502D02*
X23384332Y23141502D01*
X19684332Y16741502D02*
X20084332Y16741502D01*
D18*
X22098914Y45093642D02*
X22098914Y45493642D01*
X22098914Y45493642D02*
X23752406Y45500391D01*
X23298914Y45093642D02*
X22898914Y45493642D01*
D20*
X19484332Y14841502D02*
X19584332Y15441502D01*
D18*
X24078605Y45205687D02*
X23698914Y45093642D01*
D20*
X19884332Y14941502D02*
X20084332Y15341502D01*
X23384332Y23941502D02*
X23784332Y23141502D01*
D18*
X22098914Y45493642D02*
X23752406Y45500391D01*
D20*
X19084332Y14841502D02*
X19484332Y14841502D01*
D18*
X22098914Y45493642D02*
X22498914Y45093642D01*
X18984332Y14241502D02*
X19384332Y14241502D01*
D20*
X23384332Y23941502D02*
X23384332Y23141502D01*
X19684332Y17441502D02*
X20084332Y17441502D01*
X20084332Y17841502D02*
X20084332Y17441502D01*
D18*
X23354218Y45491392D02*
X23698914Y45093642D01*
D20*
X20084332Y16741502D02*
X20084332Y16341502D01*
D18*
X22898914Y45093642D02*
X22898914Y45493642D01*
D20*
X23784332Y23941502D02*
X24184332Y23141502D01*
D18*
X24078605Y45205687D02*
X23698914Y45093642D01*
D20*
X19684332Y16741502D02*
X19684332Y16341502D01*
D18*
X22498914Y45493642D02*
X22498914Y45093642D01*
D20*
X22584332Y23941502D02*
X22984332Y23141502D01*
X19684332Y17841502D02*
X20084332Y17441502D01*
X19684332Y16741502D02*
X20084332Y16341502D01*
X22584332Y23941502D02*
X22584332Y23141502D01*
X24184332Y23941502D02*
X24184332Y23141502D01*
D18*
X23752406Y45500391D02*
X24078605Y45205687D01*
X23354218Y45491392D02*
X23298914Y45093642D01*
D20*
X22984332Y23941502D02*
X22984332Y23141502D01*
X20084332Y15741502D02*
X20084332Y15341502D01*
D18*
X23698914Y45093642D02*
X22098914Y45093642D01*
X22498914Y45493642D02*
X22898914Y45093642D01*
D20*
X20084332Y15741502D02*
X19584332Y15441502D01*
D18*
X22098914Y45093642D02*
X22098914Y45493642D01*
D20*
X22584332Y23941502D02*
X24184332Y23941502D01*
D18*
X23354218Y45491392D02*
X23698914Y45093642D01*
D20*
X19684332Y16341502D02*
X20084332Y16341502D01*
X23784332Y23941502D02*
X23784332Y23141502D01*
D18*
X22498914Y45493642D02*
X22498914Y45093642D01*
X22898914Y45093642D02*
X22898914Y45493642D01*
D20*
X19684332Y17841502D02*
X19684332Y17441502D01*
D18*
X23354218Y45491392D02*
X23298914Y45093642D01*
X23298914Y45093642D02*
X22898914Y45493642D01*
D20*
X19584332Y15441502D02*
X19884332Y14941502D01*
D18*
X22098914Y45493642D02*
X22498914Y45093642D01*
D20*
X19584332Y15441502D02*
X19084332Y14841502D01*
D18*
X23698914Y45093642D02*
X23752406Y45500391D01*
X22498914Y45493642D02*
X22898914Y45093642D01*
D20*
X20084332Y17841502D02*
X19684332Y17841502D01*
%TO.N,/1.8v_ina*%
X-15082430Y46987398D02*
X-15082430Y46587398D01*
X-15482430Y46987398D02*
X-15082430Y46587398D01*
X-15482430Y46987398D02*
X-15082430Y47387398D01*
X-15482430Y46787398D02*
X-15482430Y47387398D01*
X-15982431Y47187397D02*
X-15482430Y47387398D01*
X-14882430Y47787398D02*
X-15082430Y47387398D01*
X-16088879Y47613195D02*
X-15982431Y47187397D01*
X-16088879Y47613195D02*
X-15682430Y47787398D01*
X-15982431Y47187397D02*
X-15682430Y47067397D01*
X-15082430Y47387398D02*
X-15082430Y46987398D01*
X-15082430Y46587398D02*
X-15082430Y46187398D01*
X-15682430Y45787398D02*
X-15082430Y46187398D01*
X-15282430Y47787398D02*
X-15482430Y47387398D01*
X-15282430Y47787398D02*
X-15682430Y47787398D01*
X-15682430Y45787398D02*
X-15282430Y45787398D01*
X-15482430Y46187398D02*
X-15482430Y46787398D01*
X-15682430Y45787398D02*
X-15482430Y46187398D01*
X-15482430Y46587398D02*
X-15082430Y46587398D01*
X-14882430Y45787398D02*
X-15282430Y45787398D01*
X-15082430Y46187398D02*
X-14882430Y45787398D01*
X-15682430Y47067397D02*
X-15482430Y46787398D01*
X-15682430Y47067397D02*
X-15482430Y46987398D01*
X-15082430Y46587398D02*
X-15482430Y46187398D01*
X-16088879Y47613195D02*
X-15482430Y47387398D01*
X-15482430Y46187398D02*
X-15082430Y46187398D01*
X-15282430Y47787398D02*
X-14882430Y47787398D01*
X-15682430Y47787398D02*
X-15082430Y47387398D01*
%TO.N,Net-(U7-LX2)*%
X17284332Y14741502D02*
X17284332Y14341502D01*
D18*
X18984332Y13841502D02*
X19384332Y13841502D01*
D20*
X17684332Y14741502D02*
X17684332Y14341502D01*
X16884332Y14741502D02*
X17684332Y14741502D01*
X16884332Y14741502D02*
X17284332Y14341502D01*
X16884332Y14341502D02*
X17684332Y14341502D01*
X16884332Y14741502D02*
X16884332Y14341502D01*
X17284332Y14341502D02*
X17684332Y14741502D01*
D18*
%TO.N,Net-(U7-LX1)*%
X18984332Y13041502D02*
X19384332Y13041502D01*
D20*
X16884332Y12541502D02*
X17284332Y12141502D01*
X16884332Y12541502D02*
X16884332Y12141502D01*
X17284332Y12141502D02*
X17684332Y12541502D01*
X16884332Y12141502D02*
X17684332Y12141502D01*
X17684332Y12541502D02*
X17684332Y12141502D01*
X17684332Y12541502D02*
X16884332Y12541502D01*
D24*
%TO.N,Net-(U5-VSET)*%
X-14382430Y43474740D02*
X-13815668Y44041502D01*
X-14909747Y42576795D02*
X-14901390Y42576795D01*
X-14901390Y42576795D02*
X-14382430Y43095755D01*
X-14382430Y43095755D02*
X-14382430Y43474740D01*
%TO.N,Net-(U9-PC0)*%
X16384756Y5168233D02*
X16378025Y5161502D01*
X19834332Y5691502D02*
X19834332Y5633124D01*
X19369441Y5168233D02*
X16384756Y5168233D01*
X19834332Y5633124D02*
X19369441Y5168233D01*
%TD*%
%TA.AperFunction,Conductor*%
%TO.N,GND*%
G36*
X-15733175Y48118139D02*
G01*
X-15720449Y48087415D01*
X-15733175Y48056691D01*
X-15746785Y48047478D01*
X-15757125Y48043047D01*
X-15765717Y48040378D01*
X-15785851Y48036351D01*
X-15785854Y48036350D01*
X-15804226Y48024047D01*
X-15811773Y48020008D01*
X-15832693Y48011343D01*
X-15838714Y48008078D01*
X-16140829Y47878592D01*
X-16147925Y47876249D01*
X-16151029Y47875514D01*
X-16173028Y47865453D01*
X-16180558Y47862815D01*
X-16204023Y47856948D01*
X-16204029Y47856946D01*
X-16217368Y47847062D01*
X-16226116Y47842038D01*
X-16241380Y47835496D01*
X-16244013Y47833690D01*
X-16244051Y47833669D01*
X-16244085Y47833639D01*
X-16246680Y47831765D01*
X-16263160Y47814045D01*
X-16269109Y47808725D01*
X-16288539Y47794329D01*
X-16288541Y47794327D01*
X-16297084Y47780090D01*
X-16303243Y47772102D01*
X-16314843Y47760215D01*
X-16316582Y47757542D01*
X-16316611Y47757506D01*
X-16316634Y47757459D01*
X-16318312Y47754739D01*
X-16326752Y47732070D01*
X-16330212Y47724877D01*
X-16342660Y47704130D01*
X-16342661Y47704128D01*
X-16345105Y47687708D01*
X-16347737Y47677974D01*
X-16353904Y47662553D01*
X-16354489Y47659410D01*
X-16354501Y47659369D01*
X-16354505Y47659310D01*
X-16355013Y47656165D01*
X-16354136Y47631992D01*
X-16354580Y47624025D01*
X-16358141Y47600094D01*
X-16354114Y47583986D01*
X-16352820Y47573981D01*
X-16352617Y47557379D01*
X-16351958Y47554267D01*
X-16351950Y47554202D01*
X-16351934Y47554153D01*
X-16351199Y47551049D01*
X-16341137Y47529048D01*
X-16338498Y47521515D01*
X-16248591Y47161885D01*
X-16247297Y47150820D01*
X-16247453Y47138033D01*
X-16246850Y47134799D01*
X-16246849Y47134780D01*
X-16246172Y47131587D01*
X-16246172Y47131585D01*
X-16246171Y47131584D01*
X-16242721Y47123534D01*
X-16235170Y47105914D01*
X-16232954Y47099337D01*
X-16226183Y47072252D01*
X-16226182Y47072250D01*
X-16218569Y47061976D01*
X-16213138Y47052246D01*
X-16208388Y47040371D01*
X-16208387Y47040370D01*
X-16206589Y47037605D01*
X-16206584Y47037595D01*
X-16204739Y47034906D01*
X-16184750Y47015400D01*
X-16180185Y47010170D01*
X-16163562Y46987735D01*
X-16152600Y46981158D01*
X-16143857Y46974246D01*
X-16134924Y46965092D01*
X-16132218Y46963236D01*
X-16132217Y46963235D01*
X-16129463Y46961444D01*
X-16129460Y46961443D01*
X-16129457Y46961440D01*
X-16125581Y46959890D01*
X-16101782Y46936665D01*
X-16101375Y46903412D01*
X-16117578Y46883421D01*
X-16155028Y46858398D01*
X-16155030Y46858396D01*
X-16184701Y46813989D01*
X-16207941Y46779207D01*
X-16226521Y46685798D01*
X-16207941Y46592389D01*
X-16184386Y46557136D01*
X-16155030Y46513201D01*
X-16155028Y46513199D01*
X-16138977Y46502474D01*
X-16120502Y46474824D01*
X-16126990Y46442207D01*
X-16138977Y46430220D01*
X-16155027Y46419496D01*
X-16155029Y46419494D01*
X-16185668Y46373638D01*
X-16207940Y46340305D01*
X-16226520Y46246896D01*
X-16207940Y46153487D01*
X-16184885Y46118983D01*
X-16155926Y46075641D01*
X-16155028Y46074298D01*
X-16075839Y46021386D01*
X-15982430Y46002806D01*
X-15946292Y46009995D01*
X-15913677Y46003508D01*
X-15895201Y45975858D01*
X-15901688Y45943241D01*
X-15906177Y45937770D01*
X-15906580Y45937166D01*
X-15915040Y45916742D01*
X-15919079Y45909194D01*
X-15931382Y45890822D01*
X-15931383Y45890820D01*
X-15933613Y45879671D01*
X-15937355Y45868766D01*
X-15942436Y45858603D01*
X-15942437Y45858600D01*
X-15942624Y45855970D01*
X-15945819Y45842433D01*
X-15946830Y45839994D01*
X-15946830Y45817882D01*
X-15947674Y45809361D01*
X-15952010Y45787682D01*
X-15952010Y45787680D01*
X-15949805Y45776531D01*
X-15949089Y45765027D01*
X-15949720Y45756134D01*
X-15949894Y45753681D01*
X-15949060Y45751178D01*
X-15946830Y45737439D01*
X-15946830Y45734807D01*
X-15946831Y45734807D01*
X-15938369Y45714379D01*
X-15935889Y45706187D01*
X-15931597Y45684494D01*
X-15931597Y45684493D01*
X-15931596Y45684492D01*
X-15931596Y45684490D01*
X-15925295Y45675040D01*
X-15920227Y45664680D01*
X-15916632Y45653895D01*
X-15914905Y45651904D01*
X-15907589Y45640068D01*
X-15906578Y45637627D01*
X-15890940Y45621989D01*
X-15885512Y45615367D01*
X-15873253Y45596978D01*
X-15873249Y45596974D01*
X-15863810Y45590653D01*
X-15855164Y45583021D01*
X-15847714Y45574432D01*
X-15847714Y45574431D01*
X-15845361Y45573255D01*
X-15834066Y45565115D01*
X-15832201Y45563250D01*
X-15823195Y45559520D01*
X-15811776Y45554790D01*
X-15804226Y45550749D01*
X-15785856Y45538447D01*
X-15785854Y45538446D01*
X-15774705Y45536217D01*
X-15763801Y45532476D01*
X-15753634Y45527392D01*
X-15751011Y45527206D01*
X-15737456Y45524007D01*
X-15735022Y45522998D01*
X-15712914Y45522998D01*
X-15704394Y45522155D01*
X-15682712Y45517818D01*
X-15671561Y45520025D01*
X-15660058Y45520741D01*
X-15648713Y45519934D01*
X-15646211Y45520769D01*
X-15632470Y45522998D01*
X-15335022Y45522998D01*
X-14932390Y45522998D01*
X-14918650Y45520769D01*
X-14916147Y45519934D01*
X-14874570Y45522890D01*
X-14871490Y45522998D01*
X-14829839Y45522998D01*
X-14829838Y45522998D01*
X-14827409Y45524005D01*
X-14813852Y45527205D01*
X-14811226Y45527391D01*
X-14773944Y45546034D01*
X-14771163Y45547303D01*
X-14732659Y45563250D01*
X-14730797Y45565113D01*
X-14719501Y45573254D01*
X-14718999Y45573506D01*
X-14717147Y45574431D01*
X-14689833Y45605926D01*
X-14687758Y45608153D01*
X-14658282Y45637627D01*
X-14657275Y45640060D01*
X-14649952Y45651908D01*
X-14648229Y45653893D01*
X-14635039Y45693466D01*
X-14633986Y45696287D01*
X-14618030Y45734806D01*
X-14618030Y45737439D01*
X-14615800Y45751178D01*
X-14615731Y45751386D01*
X-14614966Y45753680D01*
X-14617921Y45795258D01*
X-14618030Y45798338D01*
X-14618030Y45839990D01*
X-14618032Y45839994D01*
X-14619038Y45842422D01*
X-14622237Y45855978D01*
X-14622423Y45858600D01*
X-14622423Y45858601D01*
X-14641068Y45895890D01*
X-14642331Y45898659D01*
X-14658282Y45937169D01*
X-14660147Y45939034D01*
X-14668286Y45950327D01*
X-14813443Y46240641D01*
X-14818030Y46260072D01*
X-14818030Y47314724D01*
X-14813443Y47334155D01*
X-14812630Y47335780D01*
X-14803011Y47355018D01*
X-14779748Y47401544D01*
X-14717819Y47525402D01*
X-14715996Y47529048D01*
X-14703419Y47554202D01*
X-14695512Y47570016D01*
X-14694765Y47571510D01*
X-14692780Y47575480D01*
X-14690893Y47579254D01*
X-14668286Y47624469D01*
X-14660147Y47635762D01*
X-14658282Y47637627D01*
X-14642334Y47676133D01*
X-14641058Y47678926D01*
X-14628456Y47704130D01*
X-14622423Y47716195D01*
X-14622237Y47718821D01*
X-14619036Y47732379D01*
X-14618234Y47734313D01*
X-14618030Y47734806D01*
X-14618030Y47776460D01*
X-14617921Y47779540D01*
X-14617177Y47790012D01*
X-14614966Y47821116D01*
X-14614967Y47821119D01*
X-14615800Y47823620D01*
X-14618030Y47837360D01*
X-14618030Y47839990D01*
X-14625247Y47857413D01*
X-14633980Y47878496D01*
X-14635043Y47881344D01*
X-14648229Y47920903D01*
X-14649957Y47922895D01*
X-14657274Y47934735D01*
X-14658282Y47937169D01*
X-14672601Y47951488D01*
X-14687752Y47966640D01*
X-14689852Y47968894D01*
X-14717146Y48000364D01*
X-14717147Y48000365D01*
X-14719507Y48001546D01*
X-14730794Y48009681D01*
X-14732658Y48011545D01*
X-14732659Y48011546D01*
X-14771150Y48027489D01*
X-14773953Y48028769D01*
X-14813519Y48048552D01*
X-14835308Y48073675D01*
X-14832951Y48106846D01*
X-14807828Y48128635D01*
X-14794088Y48130865D01*
X-10782598Y48130865D01*
X-10782584Y48130864D01*
X-10776162Y48130865D01*
X-10776160Y48130863D01*
X-10751363Y48130865D01*
X-10747109Y48130657D01*
X-10577995Y48114011D01*
X-10569649Y48112352D01*
X-10409077Y48063653D01*
X-10401212Y48060394D01*
X-10333204Y48024047D01*
X-10253241Y47981311D01*
X-10246158Y47976579D01*
X-10116457Y47870145D01*
X-10110434Y47864123D01*
X-10003989Y47734429D01*
X-9999256Y47727346D01*
X-9920162Y47579379D01*
X-9916902Y47571510D01*
X-9868194Y47410952D01*
X-9866532Y47402597D01*
X-9849947Y47234228D01*
X-9849738Y47229969D01*
X-9849738Y42899598D01*
X-9862464Y42868874D01*
X-9893188Y42856148D01*
X-9923912Y42868874D01*
X-10354113Y43299075D01*
X-10366839Y43329799D01*
X-10354113Y43360523D01*
X-10347532Y43365923D01*
X-10343070Y43368904D01*
X-10290158Y43448093D01*
X-10271578Y43541502D01*
X-10290158Y43634911D01*
X-10343070Y43714100D01*
X-10349434Y43718352D01*
X-10404532Y43755167D01*
X-10422259Y43767012D01*
X-10515668Y43785592D01*
X-10609077Y43767012D01*
X-10688266Y43714101D01*
X-10688268Y43714099D01*
X-10695891Y43702689D01*
X-10723541Y43684214D01*
X-10756158Y43690702D01*
X-10774633Y43718352D01*
X-10775468Y43726829D01*
X-10775468Y43824033D01*
X-10762742Y43854757D01*
X-10756160Y43860159D01*
X-10743070Y43868904D01*
X-10690158Y43948093D01*
X-10671578Y44041502D01*
X-10690158Y44134911D01*
X-10743070Y44214100D01*
X-10743076Y44214104D01*
X-10770326Y44232312D01*
X-10804843Y44255375D01*
X-10823318Y44283025D01*
X-10816831Y44315641D01*
X-10804844Y44327629D01*
X-10743070Y44368904D01*
X-10690158Y44448093D01*
X-10671578Y44541502D01*
X-10690158Y44634911D01*
X-10743070Y44714100D01*
X-10744477Y44715040D01*
X-10769348Y44731659D01*
X-10822259Y44767012D01*
X-10915668Y44785592D01*
X-11009077Y44767012D01*
X-11088266Y44714101D01*
X-11088267Y44714100D01*
X-11141178Y44634911D01*
X-11159758Y44541503D01*
X-11159758Y44541501D01*
X-11156688Y44526065D01*
X-11163176Y44493449D01*
X-11168579Y44486865D01*
X-11351197Y44304247D01*
X-11351198Y44304248D01*
X-11384523Y44270922D01*
X-11405868Y44219390D01*
X-11405868Y43453917D01*
X-11384524Y43402387D01*
X-11316117Y43333980D01*
X-11303391Y43303256D01*
X-11316117Y43272532D01*
X-11346841Y43259806D01*
X-11352382Y43260161D01*
X-11624497Y43295148D01*
X-11647101Y43305140D01*
X-11935963Y43550739D01*
X-11951126Y43580336D01*
X-11951268Y43583842D01*
X-11951268Y43894094D01*
X-11973635Y43948094D01*
X-11991520Y43991273D01*
X-12065897Y44065650D01*
X-12163076Y44105902D01*
X-12268260Y44105902D01*
X-12316850Y44085776D01*
X-12365440Y44065650D01*
X-12439816Y43991274D01*
X-12480068Y43894094D01*
X-12480068Y43489913D01*
X-12482164Y43476581D01*
X-12483451Y43472591D01*
X-12483451Y43472590D01*
X-12480210Y43432567D01*
X-12480068Y43429060D01*
X-12480068Y43081944D01*
X-12481542Y43070722D01*
X-12584164Y42686881D01*
X-12584379Y42686106D01*
X-12598122Y42638271D01*
X-12598237Y42636888D01*
X-12598270Y42636698D01*
X-12598304Y42636168D01*
X-12598363Y42635376D01*
X-12598405Y42634877D01*
X-12598400Y42634681D01*
X-12598491Y42633291D01*
X-12591968Y42583958D01*
X-12591870Y42583159D01*
X-12550289Y42216493D01*
X-12550655Y42204152D01*
X-12552095Y42195875D01*
X-12551992Y42191590D01*
X-12552360Y42191582D01*
X-12552284Y42189822D01*
X-12551918Y42189844D01*
X-12551837Y42188541D01*
X-12551842Y42188405D01*
X-12551637Y42185341D01*
X-12551627Y42185179D01*
X-12551580Y42184429D01*
X-12551573Y42184403D01*
X-12551573Y42184402D01*
X-12549978Y42178480D01*
X-12543919Y42155979D01*
X-12542702Y42149579D01*
X-12539384Y42120325D01*
X-12539384Y42120324D01*
X-12539383Y42120323D01*
X-12535314Y42112973D01*
X-12530930Y42101433D01*
X-12529092Y42093232D01*
X-12527360Y42089320D01*
X-12527694Y42089173D01*
X-12526955Y42087586D01*
X-12526626Y42087746D01*
X-12526053Y42086575D01*
X-12525992Y42086411D01*
X-12524417Y42083231D01*
X-12524331Y42083056D01*
X-12524226Y42082842D01*
X-12524222Y42082836D01*
X-12524221Y42082835D01*
X-12517559Y42074176D01*
X-12506270Y42059502D01*
X-12502694Y42054052D01*
X-12488438Y42028300D01*
X-12481864Y42023065D01*
X-12473399Y42014084D01*
X-12468561Y42007209D01*
X-12468559Y42007208D01*
X-12465460Y42004254D01*
X-12465717Y42003986D01*
X-12464445Y42002819D01*
X-12464200Y42003096D01*
X-12463219Y42002231D01*
X-12463105Y42002109D01*
X-12460475Y41999810D01*
X-12460326Y41999678D01*
X-12460095Y41999475D01*
X-12460085Y41999469D01*
X-12460083Y41999467D01*
X-12446644Y41991731D01*
X-12434570Y41984780D01*
X-12429182Y41981114D01*
X-12406153Y41962776D01*
X-12398078Y41960457D01*
X-12386815Y41955396D01*
X-12379720Y41950898D01*
X-12375725Y41949355D01*
X-12375859Y41949009D01*
X-12374232Y41948416D01*
X-12374112Y41948765D01*
X-12372883Y41948344D01*
X-12372757Y41948287D01*
X-12369692Y41947250D01*
X-12369526Y41947193D01*
X-12368943Y41946993D01*
X-12368924Y41946991D01*
X-12368923Y41946990D01*
X-12339727Y41943184D01*
X-12333355Y41941861D01*
X-12305057Y41933731D01*
X-12296713Y41934678D01*
X-12284367Y41934312D01*
X-12276091Y41932871D01*
X-12271815Y41932974D01*
X-12271806Y41932601D01*
X-12270070Y41932677D01*
X-12270093Y41933047D01*
X-12268785Y41933129D01*
X-12263617Y41932956D01*
X-12263256Y41932971D01*
X-12262984Y41932935D01*
X-12260451Y41932850D01*
X-11901778Y41886091D01*
X-11887848Y41881811D01*
X-11887777Y41881776D01*
X-11887643Y41881708D01*
X-11884549Y41881479D01*
X-11871134Y41878292D01*
X-11868260Y41877102D01*
X-11835647Y41877102D01*
X-11830029Y41876737D01*
X-11797700Y41872522D01*
X-11797700Y41872523D01*
X-11797697Y41872522D01*
X-11797492Y41872578D01*
X-11782962Y41873956D01*
X-11782747Y41873940D01*
X-11780394Y41874717D01*
X-11779798Y41874913D01*
X-11766182Y41877102D01*
X-11468260Y41877102D01*
X-11424718Y41877102D01*
X-11422167Y41877027D01*
X-11378693Y41874470D01*
X-11378026Y41874702D01*
X-11363785Y41877102D01*
X-11363077Y41877102D01*
X-11363076Y41877102D01*
X-11322802Y41893785D01*
X-11320479Y41894668D01*
X-11279318Y41908947D01*
X-11278792Y41909415D01*
X-11266552Y41917083D01*
X-11265897Y41917354D01*
X-11235074Y41948179D01*
X-11233270Y41949881D01*
X-11200703Y41978828D01*
X-11200398Y41979458D01*
X-11192018Y41991234D01*
X-11191520Y41991731D01*
X-11174849Y42031981D01*
X-11173819Y42034276D01*
X-11154812Y42073474D01*
X-11154771Y42074178D01*
X-11151537Y42088262D01*
X-11151268Y42088910D01*
X-11151268Y42132454D01*
X-11151193Y42135005D01*
X-11150145Y42152822D01*
X-11148636Y42178478D01*
X-11148868Y42179148D01*
X-11151268Y42193389D01*
X-11151268Y42488754D01*
X-11148790Y42503219D01*
X-11122361Y42578079D01*
X-11020554Y42866447D01*
X-11017143Y42873822D01*
X-11005238Y42894292D01*
X-11005035Y42894894D01*
X-11004957Y42895124D01*
X-11004714Y42895834D01*
X-11004712Y42895855D01*
X-11004710Y42895857D01*
X-11002170Y42915619D01*
X-11000049Y42924530D01*
X-10998710Y42928322D01*
X-10976480Y42953054D01*
X-10943272Y42954823D01*
X-10927016Y42944577D01*
X-10518244Y42535806D01*
X-10505518Y42505082D01*
X-10505518Y25975635D01*
X-10518244Y25944911D01*
X-10872831Y25590324D01*
X-10903555Y25577598D01*
X-12009880Y25577598D01*
X-12040604Y25590324D01*
X-12053330Y25621048D01*
X-12046008Y25645187D01*
X-12041022Y25652649D01*
X-12007475Y25702856D01*
X-11988895Y25796265D01*
X-12007475Y25889674D01*
X-12060387Y25968863D01*
X-12066576Y25972998D01*
X-12086665Y25986422D01*
X-12139576Y26021775D01*
X-12232985Y26040355D01*
X-12232986Y26040355D01*
X-12311145Y26024809D01*
X-12343761Y26031297D01*
X-12362236Y26058948D01*
X-12359764Y26084051D01*
X-12358284Y26087626D01*
X-12358282Y26087627D01*
X-12346906Y26115096D01*
X-12344010Y26120839D01*
X-12328703Y26146316D01*
X-12326519Y26160938D01*
X-12323691Y26171143D01*
X-12318030Y26184806D01*
X-12318030Y26214524D01*
X-12317553Y26220944D01*
X-12317154Y26223620D01*
X-12313160Y26250347D01*
X-12316739Y26264700D01*
X-12318030Y26275212D01*
X-12318030Y26689990D01*
X-12338156Y26738580D01*
X-12358282Y26787169D01*
X-12432659Y26861546D01*
X-12529838Y26901798D01*
X-12529839Y26901798D01*
X-12924775Y26901798D01*
X-12924783Y26901799D01*
X-12929838Y26901799D01*
X-13035022Y26901799D01*
X-13040077Y26901799D01*
X-13040085Y26901798D01*
X-13324775Y26901798D01*
X-13324783Y26901799D01*
X-13329838Y26901799D01*
X-13435022Y26901799D01*
X-13440077Y26901799D01*
X-13440085Y26901798D01*
X-13724775Y26901798D01*
X-13724783Y26901799D01*
X-13729838Y26901799D01*
X-13835022Y26901799D01*
X-13840077Y26901799D01*
X-13840085Y26901798D01*
X-14124775Y26901798D01*
X-14124783Y26901799D01*
X-14129838Y26901799D01*
X-14235022Y26901799D01*
X-14240077Y26901799D01*
X-14240085Y26901798D01*
X-14552272Y26901798D01*
X-14560703Y26902624D01*
X-14566378Y26903747D01*
X-14582715Y26906979D01*
X-14602339Y26903053D01*
X-14604394Y26902642D01*
X-14612914Y26901798D01*
X-14924775Y26901798D01*
X-14924783Y26901799D01*
X-14929838Y26901799D01*
X-15035022Y26901799D01*
X-15071799Y26886565D01*
X-15132201Y26861546D01*
X-15132203Y26861545D01*
X-15206577Y26787171D01*
X-15246831Y26689989D01*
X-15246831Y26579752D01*
X-15246830Y26579743D01*
X-15246830Y26293500D01*
X-15246831Y26293486D01*
X-15246831Y26179752D01*
X-15246830Y26179743D01*
X-15246830Y25687359D01*
X-15249060Y25673619D01*
X-15249894Y25671118D01*
X-15249894Y25671116D01*
X-15249894Y25671115D01*
X-15248581Y25652649D01*
X-15246939Y25629543D01*
X-15246830Y25626463D01*
X-15246830Y25489991D01*
X-15246830Y25489990D01*
X-15246830Y25384806D01*
X-15206578Y25287627D01*
X-15132201Y25213250D01*
X-15035022Y25172998D01*
X-15035021Y25172998D01*
X-14129839Y25172998D01*
X-14129838Y25172998D01*
X-14032659Y25213250D01*
X-13958282Y25287627D01*
X-13955714Y25293828D01*
X-13932200Y25317343D01*
X-13898945Y25317344D01*
X-13879444Y25301340D01*
X-13855032Y25264804D01*
X-13855028Y25264800D01*
X-13775839Y25211888D01*
X-13682430Y25193308D01*
X-13666994Y25196379D01*
X-13634379Y25189892D01*
X-13627793Y25184488D01*
X-13447147Y25003842D01*
X-13395618Y24982498D01*
X-13395617Y24982498D01*
X-13074189Y24982498D01*
X-13074188Y24982498D01*
X-13022659Y25003842D01*
X-12932529Y25093972D01*
X-12901805Y25106698D01*
X-11038863Y25106698D01*
X-11008139Y25093972D01*
X-10908469Y24994303D01*
X-10895743Y24963579D01*
X-10903062Y24939445D01*
X-10905527Y24935755D01*
X-10905528Y24935753D01*
X-10924108Y24842344D01*
X-10905528Y24748935D01*
X-10873068Y24700355D01*
X-10854519Y24672593D01*
X-10852616Y24669746D01*
X-10773427Y24616834D01*
X-10680018Y24598254D01*
X-10586609Y24616834D01*
X-10573106Y24625857D01*
X-10540493Y24632344D01*
X-10512841Y24613870D01*
X-10505518Y24589729D01*
X-10505518Y18789204D01*
X-10505518Y18733428D01*
X-10500388Y18721044D01*
X-10484174Y18681899D01*
X-5468594Y13666319D01*
X-5455868Y13635595D01*
X-5455868Y12013255D01*
X-5468594Y11982531D01*
X-5490840Y11970640D01*
X-5509077Y11967012D01*
X-5588266Y11914101D01*
X-5588267Y11914100D01*
X-5641178Y11834911D01*
X-5659758Y11741502D01*
X-5659758Y11741501D01*
X-5656688Y11726065D01*
X-5663176Y11693449D01*
X-5668578Y11686867D01*
X-5684523Y11670921D01*
X-5684524Y11670920D01*
X-5705868Y11619390D01*
X-5705868Y10350838D01*
X-5718594Y10320114D01*
X-5749318Y10307388D01*
X-5780042Y10320114D01*
X-5786711Y10328710D01*
X-5791080Y10336093D01*
X-5795818Y10347598D01*
X-5797790Y10355418D01*
X-5797790Y10355419D01*
X-5798905Y10356917D01*
X-5805381Y10369469D01*
X-5805439Y10369646D01*
X-5805958Y10371251D01*
X-5805960Y10371253D01*
X-5807556Y10374112D01*
X-5809275Y10377018D01*
X-5809276Y10377021D01*
X-5818033Y10386797D01*
X-5824298Y10395897D01*
X-5830301Y10407558D01*
X-5830302Y10407559D01*
X-5830301Y10407559D01*
X-5830851Y10408024D01*
X-5840168Y10419057D01*
X-5842138Y10422386D01*
X-6277004Y11157359D01*
X-6279751Y11162857D01*
X-6291520Y11191273D01*
X-6301234Y11200987D01*
X-6307905Y11209586D01*
X-6314896Y11221402D01*
X-6332757Y11234807D01*
X-6339500Y11239868D01*
X-6344141Y11243894D01*
X-6365899Y11265652D01*
X-6378586Y11270907D01*
X-6388037Y11276296D01*
X-6399024Y11284541D01*
X-6399028Y11284543D01*
X-6428824Y11292186D01*
X-6434653Y11294130D01*
X-6463075Y11305902D01*
X-6463076Y11305902D01*
X-6476809Y11305902D01*
X-6487604Y11307265D01*
X-6492521Y11308526D01*
X-6500911Y11310679D01*
X-6524855Y11307265D01*
X-6531367Y11306337D01*
X-6537496Y11305902D01*
X-6568262Y11305902D01*
X-6580954Y11300645D01*
X-6591444Y11297774D01*
X-6605044Y11295835D01*
X-6605047Y11295834D01*
X-6631515Y11280174D01*
X-6637010Y11277427D01*
X-6665440Y11265650D01*
X-6665443Y11265649D01*
X-6675156Y11255936D01*
X-6683748Y11249269D01*
X-6695568Y11242274D01*
X-6714037Y11217668D01*
X-6718062Y11213028D01*
X-6739816Y11191273D01*
X-6739817Y11191271D01*
X-6745074Y11178582D01*
X-6750462Y11169133D01*
X-6758707Y11158147D01*
X-6758708Y11158146D01*
X-6766353Y11128344D01*
X-6768297Y11122516D01*
X-6780068Y11094096D01*
X-6780068Y11080362D01*
X-6781431Y11069565D01*
X-6784845Y11056262D01*
X-6784845Y11056261D01*
X-6780503Y11025807D01*
X-6780068Y11019675D01*
X-6780068Y10689603D01*
X-6782139Y10676348D01*
X-6783511Y10672068D01*
X-6780217Y10632350D01*
X-6780068Y10628760D01*
X-6780068Y10288352D01*
X-6782035Y10275426D01*
X-6783745Y10269939D01*
X-6784074Y10266845D01*
X-6784969Y10255704D01*
X-6949252Y9614362D01*
X-6949936Y9611976D01*
X-6963205Y9570252D01*
X-6963205Y9570250D01*
X-6963166Y9569792D01*
X-6964367Y9555350D01*
X-6964483Y9554900D01*
X-6964483Y9554893D01*
X-6958289Y9511538D01*
X-6958008Y9509072D01*
X-6918655Y9045920D01*
X-6918651Y9038612D01*
X-6920876Y9012073D01*
X-6920779Y9011255D01*
X-6920757Y9011066D01*
X-6920752Y9011021D01*
X-6915423Y8994558D01*
X-6913467Y8984857D01*
X-6912003Y8967631D01*
X-6912003Y8967630D01*
X-6912002Y8967628D01*
X-6901896Y8948094D01*
X-6899774Y8943993D01*
X-6896975Y8937245D01*
X-6888876Y8911880D01*
X-6888623Y8911428D01*
X-6888541Y8911282D01*
X-6888358Y8910950D01*
X-6877135Y8897782D01*
X-6871615Y8889567D01*
X-6863667Y8874205D01*
X-6843327Y8857052D01*
X-6838156Y8851886D01*
X-6820972Y8831556D01*
X-6820664Y8831313D01*
X-6820533Y8831210D01*
X-6820134Y8830893D01*
X-6820126Y8830889D01*
X-6820125Y8830888D01*
X-6813900Y8827708D01*
X-6804726Y8823021D01*
X-6796481Y8817543D01*
X-6790354Y8812376D01*
X-6783260Y8806393D01*
X-6757901Y8798328D01*
X-6751148Y8795536D01*
X-6728706Y8783956D01*
X-6727494Y8783331D01*
X-6726976Y8783184D01*
X-6726809Y8783136D01*
X-6726467Y8783038D01*
X-6726459Y8783038D01*
X-6726456Y8783036D01*
X-6709213Y8781661D01*
X-6699515Y8779758D01*
X-6683023Y8774512D01*
X-6656499Y8776767D01*
X-6649201Y8776770D01*
X-6188288Y8738132D01*
X-6180828Y8736778D01*
X-6180818Y8736816D01*
X-6180282Y8736679D01*
X-6180114Y8736648D01*
X-6179891Y8736585D01*
X-6179809Y8736554D01*
X-6179323Y8736424D01*
X-6179216Y8736406D01*
X-6176668Y8735753D01*
X-6176661Y8735749D01*
X-6165728Y8735149D01*
X-6154290Y8732956D01*
X-6143911Y8729472D01*
X-6114900Y8731473D01*
X-6108290Y8731425D01*
X-6079315Y8728995D01*
X-6079314Y8728996D01*
X-6079294Y8728994D01*
X-6078717Y8729062D01*
X-6078464Y8729091D01*
X-6075456Y8729433D01*
X-6075331Y8729451D01*
X-6075168Y8729486D01*
X-6074957Y8729511D01*
X-6074862Y8729514D01*
X-6074346Y8729582D01*
X-6074247Y8729605D01*
X-6071641Y8729977D01*
X-6071636Y8729976D01*
X-6061309Y8733604D01*
X-6049902Y8735957D01*
X-5639179Y8764283D01*
X-5633672Y8764312D01*
X-5600683Y8762394D01*
X-5589878Y8766152D01*
X-5578595Y8768460D01*
X-5567189Y8769246D01*
X-5537610Y8783960D01*
X-5532545Y8786091D01*
X-5501333Y8796943D01*
X-5492792Y8804546D01*
X-5483250Y8810996D01*
X-5480457Y8812386D01*
X-5473010Y8816089D01*
X-5451299Y8841018D01*
X-5447449Y8844910D01*
X-5422767Y8866879D01*
X-5417788Y8877169D01*
X-5411444Y8886778D01*
X-5403926Y8895407D01*
X-5393415Y8926728D01*
X-5391339Y8931819D01*
X-5376944Y8961558D01*
X-5376281Y8972977D01*
X-5374095Y8984286D01*
X-5373903Y8984857D01*
X-5370456Y8995125D01*
X-5372730Y9028074D01*
X-5372759Y9033583D01*
X-5370841Y9066566D01*
X-5374601Y9077376D01*
X-5376907Y9088656D01*
X-5377693Y9100059D01*
X-5377830Y9100334D01*
X-5385359Y9115472D01*
X-5392409Y9129648D01*
X-5394542Y9134718D01*
X-5405390Y9165916D01*
X-5406494Y9167156D01*
X-5412991Y9174456D01*
X-5419438Y9183993D01*
X-5424533Y9194236D01*
X-5424536Y9194240D01*
X-5449455Y9215944D01*
X-5453371Y9219818D01*
X-5640272Y9429782D01*
X-5651268Y9458672D01*
X-5651268Y9473932D01*
X-5638542Y9504656D01*
X-5607818Y9517382D01*
X-5577094Y9504656D01*
X-5168579Y9096141D01*
X-5155853Y9065417D01*
X-5156688Y9056942D01*
X-5159758Y9041505D01*
X-5159758Y9041503D01*
X-5159758Y9041502D01*
X-5141178Y8948093D01*
X-5105976Y8895409D01*
X-5102073Y8889567D01*
X-5088266Y8868904D01*
X-5009077Y8815992D01*
X-4915668Y8797412D01*
X-4822259Y8815992D01*
X-4743070Y8868904D01*
X-4734325Y8881992D01*
X-4706674Y8900467D01*
X-4698198Y8901302D01*
X-2037781Y8901302D01*
X-2037780Y8901302D01*
X-1986251Y8922646D01*
X-1833932Y9074965D01*
X-1803208Y9087691D01*
X-1772484Y9074965D01*
X-1759758Y9044241D01*
X-1759758Y9041503D01*
X-1759758Y9041502D01*
X-1741178Y8948093D01*
X-1705976Y8895409D01*
X-1702073Y8889567D01*
X-1688266Y8868904D01*
X-1609077Y8815992D01*
X-1515668Y8797412D01*
X-1422259Y8815992D01*
X-1419585Y8817780D01*
X-1395445Y8825102D01*
X-1023301Y8825102D01*
X-992577Y8812376D01*
X-456126Y8275925D01*
X-443400Y8245201D01*
X-443400Y-137071D01*
X-410455Y-216607D01*
X-349581Y-277481D01*
X-349580Y-277481D01*
X-216606Y-410456D01*
X-175391Y-427527D01*
X-161294Y-436946D01*
X2196122Y-2794362D01*
X2251843Y-2817441D01*
X2274923Y-2827002D01*
X2274924Y-2827002D01*
X2360217Y-2827002D01*
X6910764Y-2827002D01*
X6941488Y-2839728D01*
X6960055Y-2858295D01*
X6972781Y-2889019D01*
X6969474Y-2905646D01*
X6943341Y-2968739D01*
X6943338Y-2968747D01*
X6928170Y-3083965D01*
X6928170Y-3204752D01*
X6915444Y-3235476D01*
X6884720Y-3248202D01*
X6763860Y-3248202D01*
X6751083Y-3246281D01*
X6745058Y-3244427D01*
X6722439Y-3246564D01*
X6714049Y-3246543D01*
X6691434Y-3244291D01*
X6691432Y-3244292D01*
X6684643Y-3246344D01*
X6672074Y-3248202D01*
X6664976Y-3248202D01*
X6659148Y-3250615D01*
X6646621Y-3253727D01*
X6640339Y-3254321D01*
X6620255Y-3264953D01*
X6612497Y-3268143D01*
X6278378Y-3369108D01*
X6271848Y-3370544D01*
X6243295Y-3374551D01*
X6243292Y-3374552D01*
X6229775Y-3382510D01*
X6220301Y-3386658D01*
X6205298Y-3391191D01*
X6205294Y-3391193D01*
X6182984Y-3409462D01*
X6177504Y-3413285D01*
X6152653Y-3427918D01*
X6152645Y-3427924D01*
X6143210Y-3440440D01*
X6136047Y-3447898D01*
X6123912Y-3457835D01*
X6110289Y-3483256D01*
X6106689Y-3488884D01*
X6089332Y-3511911D01*
X6089330Y-3511914D01*
X6085402Y-3527090D01*
X6081638Y-3536722D01*
X6074230Y-3550546D01*
X6074229Y-3550550D01*
X6071372Y-3579244D01*
X6070200Y-3585825D01*
X5984185Y-3918158D01*
X5978229Y-3931439D01*
X5978089Y-3931648D01*
X5978085Y-3931656D01*
X5969459Y-3974785D01*
X5968917Y-3977149D01*
X5957894Y-4019740D01*
X5957894Y-4019747D01*
X5957929Y-4019995D01*
X5957506Y-4034549D01*
X5897848Y-4332837D01*
X5891898Y-4347644D01*
X5872599Y-4377969D01*
X5846267Y-4396847D01*
X5797514Y-4408773D01*
X5764647Y-4403711D01*
X5764034Y-4403333D01*
X5757945Y-4399498D01*
X5708028Y-4368058D01*
X5701443Y-4362968D01*
X5684719Y-4347259D01*
X5684717Y-4347258D01*
X5673325Y-4342952D01*
X5663354Y-4337609D01*
X5660262Y-4335390D01*
X5653464Y-4330511D01*
X5652515Y-4330289D01*
X5639263Y-4324749D01*
X5638441Y-4324231D01*
X5638439Y-4324230D01*
X5638438Y-4324230D01*
X5615826Y-4320363D01*
X5607789Y-4318178D01*
X5586330Y-4310067D01*
X5586326Y-4310066D01*
X5574151Y-4310447D01*
X5562898Y-4309326D01*
X5551046Y-4306554D01*
X5551042Y-4306553D01*
X5550086Y-4306711D01*
X5535722Y-4306665D01*
X5534759Y-4306500D01*
X5512387Y-4311581D01*
X5504127Y-4312639D01*
X5481196Y-4313357D01*
X5475678Y-4315848D01*
X5470095Y-4318367D01*
X5459273Y-4321637D01*
X5447255Y-4323612D01*
X5447247Y-4323615D01*
X5446421Y-4324129D01*
X5433137Y-4329581D01*
X5432188Y-4329796D01*
X5413463Y-4343052D01*
X5406237Y-4347189D01*
X5385328Y-4356628D01*
X5385324Y-4356631D01*
X5376983Y-4365509D01*
X5368239Y-4372669D01*
X5357888Y-4379096D01*
X5357318Y-4379891D01*
X5347132Y-4390010D01*
X5346344Y-4390567D01*
X5346335Y-4390577D01*
X5334111Y-4409984D01*
X5329019Y-4416571D01*
X5313310Y-4433296D01*
X5313309Y-4433298D01*
X5309002Y-4444693D01*
X5303660Y-4454661D01*
X5296563Y-4464550D01*
X5296561Y-4464553D01*
X5296340Y-4465501D01*
X5290802Y-4478749D01*
X5290282Y-4479574D01*
X5290281Y-4479576D01*
X5286414Y-4502187D01*
X5284230Y-4510221D01*
X5276118Y-4531684D01*
X5276117Y-4531690D01*
X5276498Y-4543863D01*
X5275377Y-4555116D01*
X5205082Y-4855638D01*
X5202629Y-4863047D01*
X5192739Y-4885824D01*
X5191995Y-4889257D01*
X5189987Y-4899810D01*
X5092792Y-5158995D01*
X5070089Y-5183294D01*
X5036853Y-5184422D01*
X5012554Y-5161719D01*
X5009956Y-5133202D01*
X5060316Y-4931758D01*
X5062882Y-4924388D01*
X5063213Y-4923653D01*
X5063217Y-4923649D01*
X5069374Y-4897134D01*
X5071551Y-4890346D01*
X5081971Y-4865194D01*
X5081971Y-4850496D01*
X5083268Y-4839958D01*
X5086831Y-4825706D01*
X5126813Y-4665776D01*
X5162964Y-4521167D01*
X5167857Y-4509357D01*
X5171350Y-4503537D01*
X5176887Y-4466322D01*
X5177710Y-4462189D01*
X5186830Y-4425710D01*
X5186831Y-4425704D01*
X5185833Y-4418999D01*
X5185833Y-4406203D01*
X5186831Y-4399498D01*
X5186830Y-4399492D01*
X5177710Y-4363013D01*
X5176885Y-4358868D01*
X5171350Y-4321666D01*
X5167858Y-4315847D01*
X5162963Y-4304027D01*
X5162471Y-4302058D01*
X5161320Y-4297454D01*
X5138932Y-4267239D01*
X5136589Y-4263731D01*
X5117234Y-4231472D01*
X5117233Y-4231471D01*
X5111779Y-4227430D01*
X5102736Y-4218387D01*
X5098700Y-4212939D01*
X5083392Y-4203754D01*
X5066456Y-4193592D01*
X5062945Y-4191246D01*
X5032718Y-4168850D01*
X5030903Y-4167993D01*
X5029555Y-4166507D01*
X5029281Y-4166304D01*
X5029321Y-4166249D01*
X5008560Y-4143362D01*
X5010178Y-4110146D01*
X5013331Y-4104576D01*
X5056526Y-4039931D01*
X5075106Y-3946522D01*
X5056526Y-3853113D01*
X5003976Y-3774466D01*
X4997489Y-3741851D01*
X5015963Y-3714202D01*
X5073049Y-3676059D01*
X5125961Y-3596870D01*
X5144541Y-3503461D01*
X5125961Y-3410052D01*
X5073049Y-3330863D01*
X4993860Y-3277951D01*
X4900451Y-3259371D01*
X4807042Y-3277951D01*
X4727853Y-3330862D01*
X4727850Y-3330865D01*
X4726833Y-3332388D01*
X4725311Y-3333404D01*
X4724827Y-3333889D01*
X4724730Y-3333792D01*
X4699181Y-3350861D01*
X4666565Y-3344370D01*
X4650416Y-3324507D01*
X4646765Y-3315461D01*
X4644394Y-3307430D01*
X4640074Y-3285040D01*
X4635396Y-3277951D01*
X4632723Y-3273900D01*
X4627879Y-3264036D01*
X4623561Y-3251418D01*
X4623333Y-3251025D01*
X4616200Y-3239467D01*
X4615935Y-3239063D01*
X4599959Y-3222792D01*
X4594698Y-3216284D01*
X4582136Y-3197250D01*
X4577098Y-3193842D01*
X4571082Y-3189772D01*
X4562833Y-3182514D01*
X4554009Y-3172502D01*
X4553643Y-3172223D01*
X4542612Y-3164262D01*
X4542243Y-3164011D01*
X4521251Y-3155090D01*
X4513903Y-3151091D01*
X4495014Y-3138314D01*
X4495013Y-3138313D01*
X4495012Y-3138313D01*
X4481939Y-3135634D01*
X4471543Y-3132086D01*
X4459563Y-3126215D01*
X4459170Y-3126111D01*
X4445879Y-3122965D01*
X4445432Y-3122871D01*
X4422635Y-3122663D01*
X4414314Y-3121781D01*
X4391967Y-3117203D01*
X4378864Y-3119732D01*
X4367897Y-3120433D01*
X3991947Y-3096723D01*
X3978927Y-3093852D01*
X3974473Y-3092119D01*
X3974470Y-3092118D01*
X3972240Y-3092167D01*
X3958350Y-3090200D01*
X3956159Y-3089515D01*
X3955130Y-3089416D01*
X3954694Y-3089372D01*
X3953598Y-3089254D01*
X3926214Y-3092001D01*
X3919145Y-3092132D01*
X3893560Y-3090519D01*
X3891745Y-3090405D01*
X3891744Y-3090405D01*
X3891740Y-3090405D01*
X3887217Y-3091953D01*
X3874099Y-3094282D01*
X3869312Y-3094386D01*
X3869309Y-3094386D01*
X3867266Y-3095285D01*
X3853685Y-3098782D01*
X3315890Y-3147280D01*
X3309654Y-3147393D01*
X3279255Y-3145757D01*
X3279250Y-3145758D01*
X3274104Y-3147572D01*
X3261192Y-3150015D01*
X3255741Y-3150206D01*
X3254215Y-3150566D01*
X3254046Y-3150590D01*
X3253681Y-3150684D01*
X3252891Y-3150878D01*
X3252445Y-3150982D01*
X3252271Y-3151044D01*
X3246626Y-3152490D01*
X3246516Y-3152062D01*
X3245425Y-3152362D01*
X3245550Y-3152785D01*
X3241441Y-3153994D01*
X3214476Y-3168121D01*
X3208764Y-3170610D01*
X3180053Y-3180734D01*
X3175994Y-3184379D01*
X3164995Y-3191579D01*
X3160032Y-3193841D01*
X3158778Y-3194745D01*
X3158625Y-3194836D01*
X3158257Y-3195112D01*
X3157640Y-3195565D01*
X3157271Y-3195830D01*
X3157136Y-3195952D01*
X3152478Y-3199443D01*
X3152216Y-3199093D01*
X3151325Y-3199786D01*
X3151600Y-3200126D01*
X3148273Y-3202810D01*
X3128763Y-3226188D01*
X3124434Y-3230676D01*
X3101790Y-3251008D01*
X3099435Y-3255927D01*
X3092028Y-3266789D01*
X2822591Y-3555814D01*
X2812133Y-3564043D01*
X2807895Y-3566429D01*
X2807892Y-3566432D01*
X2783676Y-3597295D01*
X2781227Y-3600152D01*
X2754416Y-3628818D01*
X2754182Y-3629197D01*
X2752477Y-3633758D01*
X2745969Y-3645354D01*
X2742963Y-3649186D01*
X2742962Y-3649188D01*
X2732397Y-3686978D01*
X2731227Y-3690558D01*
X2585539Y-4078405D01*
X2579625Y-4089194D01*
X2574494Y-4096034D01*
X2574494Y-4096035D01*
X2571352Y-4108296D01*
X2567211Y-4118671D01*
X2561043Y-4129729D01*
X2561042Y-4129731D01*
X2559309Y-4144598D01*
X2556827Y-4154842D01*
X2551563Y-4168855D01*
X2551562Y-4168861D01*
X2551847Y-4177413D01*
X2550512Y-4189640D01*
X2548389Y-4197926D01*
X2548389Y-4197928D01*
X2550179Y-4210460D01*
X2550323Y-4221635D01*
X2548857Y-4234207D01*
X2552945Y-4248610D01*
X2554572Y-4259022D01*
X2555072Y-4273988D01*
X2558606Y-4281776D01*
X2562052Y-4293582D01*
X2563263Y-4302058D01*
X2563264Y-4302059D01*
X2569714Y-4312953D01*
X2574123Y-4323221D01*
X2575472Y-4327969D01*
X2576853Y-4332837D01*
X2577579Y-4335392D01*
X2581964Y-4340935D01*
X2586868Y-4347134D01*
X2592356Y-4356133D01*
X2598544Y-4369768D01*
X2598545Y-4369769D01*
X2601645Y-4372669D01*
X2604790Y-4375610D01*
X2612496Y-4385205D01*
X2616853Y-4392564D01*
X2616856Y-4392567D01*
X2626980Y-4400160D01*
X2634987Y-4407964D01*
X2641796Y-4416571D01*
X2642837Y-4417887D01*
X2655913Y-4425181D01*
X2664427Y-4431394D01*
X2666463Y-4433298D01*
X2675363Y-4441623D01*
X2683370Y-4444630D01*
X2694160Y-4450545D01*
X2877438Y-4588003D01*
X2894381Y-4616618D01*
X2886128Y-4648833D01*
X2857513Y-4665776D01*
X2827595Y-4659133D01*
X2632613Y-4531687D01*
X2409426Y-4385805D01*
X-599218Y-2419261D01*
X-599706Y-2418842D01*
X-605605Y-2415008D01*
X-626473Y-2401445D01*
X-627029Y-2401077D01*
X-1192749Y-2019434D01*
X-1193971Y-2018578D01*
X-1732737Y-1627543D01*
X-1745890Y-1617996D01*
X-1747055Y-1617120D01*
X-2284935Y-1197787D01*
X-2286094Y-1196851D01*
X-2809224Y-759320D01*
X-2810348Y-758347D01*
X-3318139Y-303115D01*
X-3319233Y-302100D01*
X-3811590Y170781D01*
X-3812123Y171302D01*
X-3830646Y189714D01*
X-3830739Y189806D01*
X-3830786Y189853D01*
X-3830786Y189854D01*
X-7874609Y4209470D01*
X-6910000Y4209470D01*
X-5155488Y2454957D01*
X-4424079Y3186365D01*
X-6178592Y4940878D01*
X-6910000Y4209470D01*
X-7874609Y4209470D01*
X-9865969Y6188909D01*
X-9380069Y6188909D01*
X-9339817Y6091733D01*
X-9339815Y6091731D01*
X-9039817Y5791733D01*
X-9039816Y5791731D01*
X-8965439Y5717354D01*
X-8965438Y5717354D01*
X-8739817Y5491733D01*
X-8739816Y5491731D01*
X-8665439Y5417354D01*
X-8665438Y5417354D01*
X-8439817Y5191733D01*
X-8439816Y5191731D01*
X-8365439Y5117354D01*
X-8365438Y5117354D01*
X-8139817Y4891733D01*
X-8139816Y4891731D01*
X-8065439Y4817354D01*
X-8065438Y4817354D01*
X-7839817Y4591733D01*
X-7839816Y4591731D01*
X-7765439Y4517354D01*
X-7717294Y4497412D01*
X-7668260Y4477101D01*
X-7668259Y4477101D01*
X-7563077Y4477101D01*
X-7563076Y4477101D01*
X-7514042Y4497412D01*
X-7465897Y4517354D01*
X-7391520Y4591731D01*
X-7391520Y4591733D01*
X-7165899Y4817354D01*
X-7165897Y4817354D01*
X-7091520Y4891731D01*
X-7091520Y4891733D01*
X-6865899Y5117354D01*
X-6865897Y5117354D01*
X-6791520Y5191731D01*
X-6791520Y5191733D01*
X-6491521Y5491731D01*
X-6451267Y5588909D01*
X-6451267Y5694094D01*
X-6460902Y5717354D01*
X-6491520Y5791272D01*
X-6791520Y6091272D01*
X-6791520Y6091273D01*
X-6865897Y6165650D01*
X-6865899Y6165651D01*
X-7091520Y6391272D01*
X-7091520Y6391273D01*
X-7165897Y6465650D01*
X-7165899Y6465651D01*
X-7391520Y6691272D01*
X-7391520Y6691273D01*
X-7465897Y6765650D01*
X-7465899Y6765651D01*
X-7691520Y6991272D01*
X-7691520Y6991273D01*
X-7765897Y7065650D01*
X-7765899Y7065651D01*
X-7991520Y7291272D01*
X-7991520Y7291273D01*
X-8065897Y7365650D01*
X-8114487Y7385776D01*
X-8114487Y7385777D01*
X-8114489Y7385777D01*
X-8163075Y7405903D01*
X-8163076Y7405903D01*
X-8268261Y7405903D01*
X-8268263Y7405903D01*
X-8317293Y7385593D01*
X-8317294Y7385592D01*
X-8365439Y7365650D01*
X-8365441Y7365649D01*
X-9039817Y6691272D01*
X-9265439Y6465649D01*
X-9339817Y6391272D01*
X-9380069Y6294096D01*
X-9380069Y6188909D01*
X-9865969Y6188909D01*
X-12352434Y8660489D01*
X-9432980Y8660489D01*
X-9432948Y8660255D01*
X-9432923Y8660066D01*
X-9432913Y8659987D01*
X-9415928Y8610319D01*
X-9415947Y8610313D01*
X-9415902Y8610241D01*
X-9399134Y8560898D01*
X-9398877Y8560456D01*
X-9364227Y8521124D01*
X-9364172Y8521061D01*
X-9327346Y8479096D01*
X-9326539Y8478343D01*
X-9171139Y8301942D01*
X-9165700Y8295769D01*
X-9161070Y8288160D01*
X-9160845Y8288302D01*
X-9158548Y8284696D01*
X-9126605Y8251335D01*
X-9125385Y8250007D01*
X-9094829Y8215321D01*
X-9091428Y8212723D01*
X-9091590Y8212512D01*
X-9089462Y8210955D01*
X-9089308Y8211173D01*
X-9085807Y8208722D01*
X-9043514Y8190116D01*
X-9041880Y8189356D01*
X-9000387Y8169009D01*
X-8996248Y8167910D01*
X-8996317Y8167651D01*
X-8993761Y8167028D01*
X-8993702Y8167291D01*
X-8989529Y8166367D01*
X-8989525Y8166365D01*
X-8943302Y8165361D01*
X-8941561Y8165287D01*
X-8908080Y8163167D01*
X-8895415Y8162365D01*
X-8895414Y8162366D01*
X-8895411Y8162365D01*
X-8895409Y8162366D01*
X-8891170Y8162934D01*
X-8891135Y8162668D01*
X-8888535Y8163072D01*
X-8888581Y8163336D01*
X-8884369Y8164080D01*
X-8884365Y8164079D01*
X-8841310Y8180828D01*
X-8839633Y8181440D01*
X-8795884Y8196400D01*
X-8795881Y8196404D01*
X-8792182Y8198549D01*
X-8792047Y8198316D01*
X-8789804Y8199681D01*
X-8789948Y8199908D01*
X-8786340Y8202210D01*
X-8786334Y8202211D01*
X-8752969Y8234158D01*
X-8751645Y8235374D01*
X-8716958Y8265930D01*
X-8716956Y8265936D01*
X-8714359Y8269333D01*
X-8714147Y8269171D01*
X-8708892Y8276359D01*
X-8455400Y8519064D01*
X-8454043Y8520307D01*
X-8419609Y8550435D01*
X-8419608Y8550438D01*
X-8419607Y8550438D01*
X-8416999Y8553829D01*
X-8416868Y8553728D01*
X-8414778Y8556574D01*
X-8414914Y8556669D01*
X-8412461Y8560175D01*
X-8412458Y8560177D01*
X-8394052Y8602018D01*
X-8393243Y8603751D01*
X-8372981Y8644720D01*
X-8372981Y8644728D01*
X-8371869Y8648854D01*
X-8371710Y8648812D01*
X-8370867Y8652246D01*
X-8371028Y8652281D01*
X-8370105Y8656452D01*
X-8370102Y8656457D01*
X-8369109Y8702179D01*
X-8369026Y8704054D01*
X-8365984Y8749672D01*
X-8365984Y8749673D01*
X-8366538Y8753914D01*
X-8366375Y8753936D01*
X-8366911Y8757430D01*
X-8367073Y8757401D01*
X-8367817Y8761610D01*
X-8367816Y8761617D01*
X-8384383Y8804205D01*
X-8385046Y8806031D01*
X-8386725Y8810996D01*
X-8399684Y8849313D01*
X-8399685Y8849314D01*
X-8399685Y8849315D01*
X-8401819Y8853021D01*
X-8401678Y8853103D01*
X-8403513Y8856129D01*
X-8403650Y8856041D01*
X-8405949Y8859650D01*
X-8437542Y8892646D01*
X-8438858Y8894083D01*
X-8541383Y9011255D01*
X-8618734Y9099657D01*
X-8619219Y9100334D01*
X-8656279Y9142565D01*
X-8690789Y9182005D01*
X-8690790Y9182006D01*
X-8690791Y9182007D01*
X-8690875Y9182071D01*
X-8690960Y9182137D01*
X-8691095Y9182241D01*
X-8737784Y9205247D01*
X-8737778Y9205260D01*
X-8737840Y9205275D01*
X-8785074Y9228634D01*
X-8785076Y9228635D01*
X-8785440Y9228734D01*
X-8837594Y9232135D01*
X-8837625Y9232151D01*
X-8837655Y9232139D01*
X-8890033Y9235631D01*
X-8890409Y9235582D01*
X-8921674Y9224957D01*
X-8940373Y9218603D01*
X-8940393Y9218597D01*
X-8940431Y9218584D01*
X-8989678Y9201928D01*
X-8989814Y9201848D01*
X-8989995Y9201745D01*
X-9029491Y9167085D01*
X-9029537Y9167045D01*
X-9071674Y9130175D01*
X-9072241Y9129570D01*
X-9297410Y8931974D01*
X-9298307Y8931328D01*
X-9340335Y8894305D01*
X-9340396Y8894252D01*
X-9379646Y8859807D01*
X-9379712Y8859719D01*
X-9379873Y8859509D01*
X-9379952Y8859407D01*
X-9379956Y8859400D01*
X-9379956Y8859399D01*
X-9400365Y8817779D01*
X-9403087Y8812229D01*
X-9403123Y8812156D01*
X-9426138Y8765447D01*
X-9426207Y8765184D01*
X-9426268Y8764961D01*
X-9429583Y8712572D01*
X-9429588Y8712489D01*
X-9432980Y8660489D01*
X-12352434Y8660489D01*
X-15472974Y11762349D01*
X-15475381Y11764944D01*
X-15560254Y11864303D01*
X-15563692Y11868328D01*
X-15567699Y11873843D01*
X-15571403Y11879886D01*
X-15637883Y11988358D01*
X-15640979Y11994434D01*
X-15645426Y12005169D01*
X-15692384Y12118521D01*
X-15694490Y12125002D01*
X-15696248Y12132325D01*
X-15725851Y12255606D01*
X-15726916Y12262329D01*
X-15737552Y12397430D01*
X-15737686Y12400840D01*
X-15737686Y13539993D01*
X-15737674Y13540091D01*
X-15737677Y13545759D01*
X-15737675Y13545761D01*
X-15737686Y13570575D01*
X-15737479Y13574801D01*
X-15720883Y13743957D01*
X-15719227Y13752297D01*
X-15670561Y13912903D01*
X-15667306Y13920766D01*
X-15588233Y14068782D01*
X-15583508Y14075856D01*
X-15477065Y14205598D01*
X-15471052Y14211612D01*
X-15341333Y14318086D01*
X-15334265Y14322809D01*
X-15186266Y14401917D01*
X-15178408Y14405172D01*
X-15017808Y14453876D01*
X-15009466Y14455534D01*
X-14845047Y14471703D01*
X-14840308Y14472169D01*
X-14836056Y14472378D01*
X-14811276Y14472373D01*
X-14811275Y14472374D01*
X-14805768Y14472373D01*
X-14805721Y14472378D01*
X-11878180Y14472378D01*
X-11878179Y14472378D01*
X-11841241Y14487678D01*
X-11812970Y14515949D01*
X-11797670Y14552887D01*
X-11797670Y22755266D01*
X-11784944Y22785990D01*
X-11780676Y22789734D01*
X-11732065Y22827033D01*
X-11716752Y22846991D01*
X-11687952Y22863618D01*
X-11655830Y22855012D01*
X-11639202Y22826212D01*
X-11638830Y22820540D01*
X-11638830Y14455219D01*
X-11605885Y14375683D01*
X-11545011Y14314809D01*
X-11545010Y14314809D01*
X-8903697Y11673495D01*
X-8891807Y11651251D01*
X-8891180Y11648098D01*
X-8891179Y11648095D01*
X-8891178Y11648093D01*
X-8838266Y11568904D01*
X-8759077Y11515992D01*
X-8665668Y11497412D01*
X-8572259Y11515992D01*
X-8493070Y11568904D01*
X-8440158Y11648093D01*
X-8421578Y11741502D01*
X-8440158Y11834911D01*
X-8493070Y11914100D01*
X-8493347Y11914285D01*
X-8535480Y11942437D01*
X-8572259Y11967012D01*
X-8572261Y11967013D01*
X-8572264Y11967014D01*
X-8575417Y11967641D01*
X-8597661Y11979531D01*
X-11193304Y14575174D01*
X-11206030Y14605898D01*
X-11206030Y23120442D01*
X-11206030Y23120443D01*
X-11238975Y23199979D01*
X-11299849Y23260853D01*
X-11299850Y23260854D01*
X-11408975Y23369978D01*
X-11408975Y23369979D01*
X-11469849Y23430853D01*
X-11549385Y23463798D01*
X-11549387Y23463798D01*
X-11575071Y23463798D01*
X-11605795Y23476524D01*
X-11615214Y23490620D01*
X-11621682Y23506236D01*
X-11637590Y23544641D01*
X-11732065Y23667763D01*
X-11732067Y23667765D01*
X-11806735Y23725059D01*
X-11855187Y23762238D01*
X-11855188Y23762239D01*
X-11855190Y23762240D01*
X-11855191Y23762241D01*
X-11906133Y23783342D01*
X-11929648Y23806857D01*
X-11932955Y23823484D01*
X-11932955Y23929530D01*
X-11934482Y23933214D01*
X-11934483Y23933224D01*
X-11934485Y23933222D01*
X-11951880Y23975219D01*
X-11955687Y23984411D01*
X-11973207Y24026708D01*
X-12047584Y24101085D01*
X-12047586Y24101086D01*
X-12066177Y24119677D01*
X-12066177Y24119678D01*
X-12140554Y24194055D01*
X-12193542Y24216003D01*
X-12193543Y24216004D01*
X-12193544Y24216004D01*
X-12237732Y24234308D01*
X-12237733Y24234308D01*
X-12342917Y24234308D01*
X-12347972Y24234308D01*
X-12347980Y24234307D01*
X-13480207Y24234307D01*
X-13502232Y24240303D01*
X-13762748Y24393503D01*
X-13782781Y24420047D01*
X-13783497Y24423321D01*
X-13832279Y24696569D01*
X-13832955Y24704205D01*
X-13832955Y24729529D01*
X-13840306Y24747276D01*
X-13842937Y24756267D01*
X-13846313Y24775179D01*
X-13859969Y24796514D01*
X-13863516Y24803310D01*
X-13866497Y24810508D01*
X-13873207Y24826708D01*
X-13886792Y24840293D01*
X-13892664Y24847594D01*
X-13903018Y24863771D01*
X-13903019Y24863772D01*
X-13923796Y24878254D01*
X-13929674Y24883175D01*
X-13947585Y24901086D01*
X-13965334Y24908438D01*
X-13973552Y24912935D01*
X-13989305Y24923916D01*
X-13989309Y24923918D01*
X-14014054Y24929349D01*
X-14021362Y24931645D01*
X-14044763Y24941337D01*
X-14063972Y24941337D01*
X-14073285Y24942347D01*
X-14092050Y24946465D01*
X-14115116Y24942347D01*
X-14116987Y24942013D01*
X-14124623Y24941337D01*
X-14448869Y24941337D01*
X-14462223Y24943440D01*
X-14466134Y24944703D01*
X-14506233Y24941477D01*
X-14509717Y24941337D01*
X-14841011Y24941337D01*
X-14848570Y24942721D01*
X-14848670Y24942118D01*
X-14852890Y24942824D01*
X-14852891Y24942824D01*
X-14900744Y24941357D01*
X-14902075Y24941337D01*
X-15262290Y24941337D01*
X-15272060Y24942450D01*
X-15289144Y24946393D01*
X-15289152Y24946393D01*
X-15300284Y24944530D01*
X-15311826Y24944155D01*
X-15323051Y24945291D01*
X-15323055Y24945290D01*
X-15330098Y24943174D01*
X-15342598Y24941337D01*
X-15349950Y24941337D01*
X-15366147Y24934628D01*
X-15375597Y24931918D01*
X-15392887Y24929023D01*
X-15402464Y24923039D01*
X-15412983Y24918276D01*
X-15423794Y24915028D01*
X-15429492Y24910377D01*
X-15440333Y24903899D01*
X-15447126Y24901085D01*
X-15459527Y24888686D01*
X-15467216Y24882569D01*
X-15482085Y24873275D01*
X-15488640Y24864084D01*
X-15496538Y24855655D01*
X-15505281Y24848519D01*
X-15505285Y24848515D01*
X-15508765Y24842045D01*
X-15516301Y24831911D01*
X-15521503Y24826709D01*
X-15528214Y24810508D01*
X-15532979Y24801912D01*
X-15543158Y24787638D01*
X-15543159Y24787637D01*
X-15545698Y24776637D01*
X-15549770Y24765827D01*
X-15633454Y24610276D01*
X-15659217Y24589248D01*
X-15692303Y24592597D01*
X-15713331Y24618360D01*
X-15715168Y24630861D01*
X-15715168Y25955734D01*
X-15715136Y25957411D01*
X-15715113Y25957994D01*
X-15700638Y26332803D01*
X-15700379Y26336134D01*
X-15675923Y26546366D01*
X-15657071Y26708439D01*
X-15656556Y26711741D01*
X-15584662Y27079605D01*
X-15583901Y27082834D01*
X-15483847Y27444067D01*
X-15482837Y27447233D01*
X-15355228Y27799660D01*
X-15353966Y27802764D01*
X-15240811Y28053048D01*
X-15199546Y28144321D01*
X-15198066Y28147284D01*
X-15017584Y28476244D01*
X-15016775Y28477655D01*
X-14633962Y29115677D01*
X-14540780Y29270914D01*
X-14364712Y29623442D01*
X-14216362Y29988503D01*
X-14096617Y30363919D01*
X-14006189Y30747454D01*
X-13945617Y31136822D01*
X-13915263Y31529703D01*
X-13915320Y31726728D01*
X-13915323Y31753657D01*
X-13915324Y31753658D01*
X-13915324Y31762295D01*
X-13915325Y31762301D01*
X-13916186Y39630367D01*
X-13916422Y41792759D01*
X-13916422Y41811006D01*
X-13916422Y41811018D01*
X-13916424Y41811027D01*
X-13916424Y41811030D01*
X-13931728Y41847966D01*
X-13960002Y41876234D01*
X-13960005Y41876236D01*
X-13960006Y41876236D01*
X-13996937Y41891529D01*
X-13996942Y41891530D01*
X-13996943Y41891530D01*
X-14041086Y41891527D01*
X-14041199Y41891515D01*
X-20675817Y41891515D01*
X-20680075Y41891724D01*
X-20849165Y41908375D01*
X-20857518Y41910037D01*
X-21018047Y41958727D01*
X-21025917Y41961986D01*
X-21173867Y42041060D01*
X-21180949Y42045791D01*
X-21289668Y42135005D01*
X-21310637Y42152212D01*
X-21316659Y42158234D01*
X-21423090Y42287906D01*
X-21427820Y42294986D01*
X-21506909Y42442930D01*
X-21510169Y42450798D01*
X-21521686Y42488754D01*
X-21558877Y42611329D01*
X-21560539Y42619682D01*
X-21577245Y42789160D01*
X-21577454Y42793389D01*
X-21577455Y42817815D01*
X-21577455Y42824235D01*
X-21577458Y42824255D01*
X-21577465Y42873822D01*
X-21578061Y47229100D01*
X-21577852Y47233357D01*
X-21577766Y47234228D01*
X-21561202Y47402473D01*
X-21559544Y47410815D01*
X-21510840Y47571394D01*
X-21507583Y47579254D01*
X-21428497Y47727231D01*
X-21423766Y47734313D01*
X-21356712Y47816028D01*
X-21321840Y47858526D01*
X-21292512Y47874204D01*
X-21260689Y47864552D01*
X-21253782Y47857416D01*
X-21245837Y47847062D01*
X-21222798Y47817036D01*
X-21222796Y47817034D01*
X-21222795Y47817033D01*
X-21099673Y47722558D01*
X-20956294Y47663169D01*
X-20956289Y47663169D01*
X-20956285Y47663167D01*
X-20890153Y47654462D01*
X-20841061Y47647998D01*
X-19837680Y47647999D01*
X-19806956Y47635273D01*
X-19794230Y47604549D01*
X-19794230Y45805495D01*
X-19794230Y45709301D01*
X-19757418Y45620429D01*
X-18579975Y44442986D01*
X-18511956Y44374967D01*
X-18423084Y44338155D01*
X-13945840Y44338155D01*
X-13915116Y44325429D01*
X-13902390Y44294705D01*
X-13915116Y44263981D01*
X-13921701Y44258578D01*
X-13988263Y44214104D01*
X-13988267Y44214100D01*
X-14041178Y44134911D01*
X-14059644Y44042078D01*
X-14071535Y44019831D01*
X-14197271Y43894094D01*
X-14476235Y43615130D01*
X-14476235Y43615129D01*
X-14522819Y43568546D01*
X-14548030Y43507680D01*
X-14548030Y43182348D01*
X-14560756Y43151624D01*
X-14878769Y42833611D01*
X-14905697Y42822458D01*
X-14905550Y42821720D01*
X-14909258Y42820983D01*
X-14909493Y42820885D01*
X-14909748Y42820885D01*
X-15003156Y42802305D01*
X-15082345Y42749394D01*
X-15082346Y42749393D01*
X-15124632Y42686106D01*
X-15135257Y42670204D01*
X-15153837Y42576795D01*
X-15135257Y42483386D01*
X-15082345Y42404197D01*
X-15003156Y42351285D01*
X-14909747Y42332705D01*
X-14816338Y42351285D01*
X-14737149Y42404197D01*
X-14684237Y42483386D01*
X-14667846Y42565792D01*
X-14655957Y42588036D01*
X-14242041Y43001950D01*
X-14216830Y43062815D01*
X-14216830Y43128695D01*
X-14216830Y43388149D01*
X-14204104Y43418873D01*
X-14039135Y43583842D01*
X-13837340Y43785638D01*
X-13815097Y43797526D01*
X-13722259Y43815992D01*
X-13643070Y43868904D01*
X-13590158Y43948093D01*
X-13571578Y44041502D01*
X-13590158Y44134911D01*
X-13643070Y44214100D01*
X-13643071Y44214101D01*
X-13643074Y44214104D01*
X-13693729Y44247950D01*
X-13712205Y44275600D01*
X-13705717Y44308216D01*
X-13693735Y44320201D01*
X-13691041Y44322001D01*
X-13683540Y44326011D01*
X-13653690Y44338374D01*
X-13630846Y44361220D01*
X-13624272Y44366614D01*
X-13618060Y44370764D01*
X-13613910Y44376976D01*
X-13608516Y44383550D01*
X-13585670Y44406394D01*
X-13573307Y44436244D01*
X-13569297Y44443745D01*
X-13565148Y44449953D01*
X-13563692Y44457276D01*
X-13561223Y44465417D01*
X-13548858Y44495266D01*
X-13548858Y44527571D01*
X-13548023Y44536049D01*
X-13546568Y44543363D01*
X-13548023Y44550678D01*
X-13548858Y44559154D01*
X-13548858Y44591459D01*
X-13561222Y44621309D01*
X-13563694Y44629460D01*
X-13565148Y44636770D01*
X-13565150Y44636774D01*
X-13569292Y44642974D01*
X-13573306Y44650484D01*
X-13585670Y44680331D01*
X-13608513Y44703174D01*
X-13613916Y44709758D01*
X-13616818Y44714101D01*
X-13618060Y44715960D01*
X-13624267Y44720108D01*
X-13630847Y44725508D01*
X-13690281Y44784942D01*
X-13690282Y44784943D01*
X-13779154Y44821755D01*
X-13779156Y44821755D01*
X-18256832Y44821755D01*
X-18287556Y44834481D01*
X-18740473Y45287398D01*
X-16746520Y45287398D01*
X-16727940Y45193989D01*
X-16704988Y45159639D01*
X-16680672Y45123246D01*
X-16675028Y45114800D01*
X-16595839Y45061888D01*
X-16502430Y45043308D01*
X-16409021Y45061888D01*
X-16329832Y45114800D01*
X-16276920Y45193989D01*
X-16258340Y45287398D01*
X-16276920Y45380807D01*
X-16329832Y45459996D01*
X-16334192Y45462909D01*
X-16378848Y45492747D01*
X-16409021Y45512908D01*
X-16502430Y45531488D01*
X-16595839Y45512908D01*
X-16675028Y45459997D01*
X-16675029Y45459996D01*
X-16713529Y45402375D01*
X-16727940Y45380807D01*
X-16746520Y45287398D01*
X-18740473Y45287398D01*
X-19297904Y45844829D01*
X-19310630Y45875553D01*
X-19310630Y47604549D01*
X-19297904Y47635273D01*
X-19267180Y47647999D01*
X-18339313Y47647999D01*
X-18308589Y47635273D01*
X-18295863Y47604549D01*
X-18308589Y47573825D01*
X-18313243Y47569789D01*
X-18510026Y47422203D01*
X-18519466Y47416821D01*
X-18532202Y47411545D01*
X-18534067Y47409680D01*
X-18545357Y47401544D01*
X-18870452Y47238997D01*
X-18879343Y47235708D01*
X-18897576Y47231150D01*
X-18897580Y47231148D01*
X-18910914Y47221269D01*
X-18919659Y47216247D01*
X-18934919Y47209706D01*
X-18934926Y47209702D01*
X-18935421Y47209193D01*
X-18947075Y47200685D01*
X-18947712Y47200367D01*
X-18947713Y47200366D01*
X-18960032Y47186163D01*
X-18966987Y47179723D01*
X-18982092Y47168531D01*
X-18982095Y47168528D01*
X-18990636Y47154293D01*
X-18996794Y47146305D01*
X-19008388Y47134423D01*
X-19008389Y47134421D01*
X-19008653Y47133761D01*
X-19016164Y47121441D01*
X-19016630Y47120904D01*
X-19016631Y47120902D01*
X-19022578Y47103064D01*
X-19026539Y47094453D01*
X-19036210Y47078334D01*
X-19038654Y47061912D01*
X-19041287Y47052175D01*
X-19047452Y47036761D01*
X-19047443Y47036052D01*
X-19049666Y47021799D01*
X-19049894Y47021116D01*
X-19049894Y47021115D01*
X-19048561Y47002360D01*
X-19048925Y46992886D01*
X-19051692Y46974295D01*
X-19051691Y46974292D01*
X-19047667Y46958194D01*
X-19046373Y46948190D01*
X-19046170Y46931586D01*
X-19045889Y46930931D01*
X-19042487Y46916901D01*
X-19042437Y46916198D01*
X-19042437Y46916197D01*
X-19042436Y46916194D01*
X-19038038Y46907398D01*
X-19034030Y46899382D01*
X-19030741Y46890490D01*
X-18948128Y46560041D01*
X-18946831Y46549503D01*
X-18946831Y46534805D01*
X-18945821Y46532367D01*
X-18942624Y46518826D01*
X-18942437Y46516195D01*
X-18942437Y46516194D01*
X-18934030Y46499380D01*
X-18930740Y46490488D01*
X-18926180Y46472248D01*
X-18917434Y46460445D01*
X-18912202Y46451205D01*
X-18906578Y46437628D01*
X-18904714Y46435764D01*
X-18896575Y46424471D01*
X-18895398Y46422116D01*
X-18895397Y46422115D01*
X-18881199Y46409801D01*
X-18874757Y46402844D01*
X-18863561Y46387734D01*
X-18850959Y46380173D01*
X-18842588Y46373638D01*
X-18659556Y46190606D01*
X-18646830Y46159882D01*
X-18646830Y46109274D01*
X-18647267Y46103129D01*
X-18651611Y46072730D01*
X-18651610Y46072727D01*
X-18651610Y46072726D01*
X-18648953Y46062354D01*
X-18648189Y46059374D01*
X-18646830Y46048590D01*
X-18646830Y45939990D01*
X-18646830Y45834806D01*
X-18606578Y45737627D01*
X-18532201Y45663250D01*
X-18435022Y45622998D01*
X-18135022Y45622998D01*
X-18109283Y45622998D01*
X-18101761Y45622343D01*
X-18076413Y45617886D01*
X-18076413Y45617887D01*
X-18076412Y45617886D01*
X-18058066Y45621963D01*
X-18048640Y45622998D01*
X-17929839Y45622998D01*
X-17929838Y45622998D01*
X-17832659Y45663250D01*
X-17758282Y45737627D01*
X-17718030Y45834806D01*
X-17718030Y46249501D01*
X-17716733Y46260039D01*
X-17705866Y46303508D01*
X-17646606Y46540550D01*
X-17635179Y46560733D01*
X-17430794Y46765118D01*
X-17419507Y46773253D01*
X-17129187Y46918411D01*
X-17109756Y46922998D01*
X-17035023Y46922998D01*
X-17026476Y46922998D01*
X-17014293Y46921255D01*
X-17006080Y46918856D01*
X-16970413Y46922743D01*
X-16965706Y46922998D01*
X-16843665Y46922998D01*
X-16843661Y46922997D01*
X-16835020Y46922997D01*
X-16729837Y46922997D01*
X-16729836Y46922997D01*
X-16641539Y46959570D01*
X-16632659Y46963248D01*
X-16632659Y46963249D01*
X-16632657Y46963249D01*
X-16632656Y46963251D01*
X-16631838Y46963589D01*
X-16629642Y46966265D01*
X-16577875Y47018032D01*
X-16558282Y47037625D01*
X-16557837Y47038698D01*
X-16551375Y47054300D01*
X-16518029Y47134804D01*
X-16518029Y47239988D01*
X-16518029Y47248628D01*
X-16518030Y47248634D01*
X-16518030Y47567161D01*
X-16517656Y47572849D01*
X-16517527Y47573825D01*
X-16513420Y47604926D01*
X-16516554Y47616641D01*
X-16518030Y47627870D01*
X-16518030Y47639990D01*
X-16518031Y47639993D01*
X-16524730Y47656165D01*
X-16530413Y47669885D01*
X-16532243Y47675279D01*
X-16533219Y47678926D01*
X-16540605Y47706538D01*
X-16540607Y47706541D01*
X-16547981Y47716159D01*
X-16553641Y47725967D01*
X-16558282Y47737170D01*
X-16581163Y47760051D01*
X-16584920Y47764337D01*
X-16594215Y47776460D01*
X-16604605Y47790011D01*
X-16615106Y47796080D01*
X-16624086Y47802972D01*
X-16632660Y47811546D01*
X-16632661Y47811547D01*
X-16662549Y47823927D01*
X-16667659Y47826448D01*
X-16695678Y47842638D01*
X-16707700Y47844226D01*
X-16718634Y47847158D01*
X-16729838Y47851798D01*
X-16729839Y47851798D01*
X-16762195Y47851798D01*
X-16767883Y47852172D01*
X-17145003Y47901968D01*
X-17153155Y47904565D01*
X-17153258Y47904216D01*
X-17157362Y47905438D01*
X-17177341Y47907300D01*
X-17186292Y47909097D01*
X-17563657Y48027267D01*
X-17574212Y48032211D01*
X-17583387Y48038125D01*
X-17587365Y48039696D01*
X-17587162Y48040212D01*
X-17587282Y48040257D01*
X-17587468Y48039735D01*
X-17591495Y48041178D01*
X-17604055Y48043047D01*
X-17606032Y48043342D01*
X-17616260Y48046175D01*
X-17618915Y48047275D01*
X-17642426Y48070790D01*
X-17642425Y48104045D01*
X-17618908Y48127558D01*
X-17602283Y48130865D01*
X-15763899Y48130865D01*
X-15733175Y48118139D01*
G37*
%TD.AperFunction*%
%TA.AperFunction,Conductor*%
G36*
X23680136Y46716269D02*
G01*
X23919848Y46476558D01*
X23932574Y46445834D01*
X23932574Y46334232D01*
X23919848Y46303508D01*
X23859664Y46243324D01*
X23853361Y46238954D01*
X23853693Y46238493D01*
X23850218Y46235994D01*
X23840092Y46225148D01*
X23832476Y46218675D01*
X23820136Y46210429D01*
X23820132Y46210425D01*
X23819487Y46209459D01*
X23809877Y46199182D01*
X23808960Y46198476D01*
X23808959Y46198475D01*
X23803895Y46189673D01*
X23796961Y46180621D01*
X23789778Y46173438D01*
X23787448Y46169951D01*
X23785231Y46166371D01*
X23780028Y46152477D01*
X23775467Y46143579D01*
X23767222Y46131238D01*
X23767221Y46131236D01*
X23766995Y46130099D01*
X23762049Y46116926D01*
X23761471Y46115922D01*
X23760161Y46105847D01*
X23757217Y46094826D01*
X23753333Y46085450D01*
X23752509Y46081304D01*
X23751836Y46077184D01*
X23752346Y46062354D01*
X23751537Y46052386D01*
X23748642Y46037830D01*
X23748642Y46037826D01*
X23748867Y46036694D01*
X23749339Y46022625D01*
X23749190Y46021479D01*
X23749190Y46021474D01*
X23751834Y46011672D01*
X23753333Y46000357D01*
X23753333Y45990210D01*
X23754157Y45986066D01*
X23755112Y45981999D01*
X23761258Y45968496D01*
X23764326Y45958976D01*
X23767222Y45944418D01*
X23767864Y45943457D01*
X23773683Y45930642D01*
X23773984Y45929526D01*
X23773986Y45929522D01*
X23773987Y45929519D01*
X23773988Y45929518D01*
X23780179Y45921476D01*
X23785892Y45911599D01*
X23789777Y45902219D01*
X23792098Y45898745D01*
X23794562Y45895320D01*
X23794563Y45895319D01*
X23794564Y45895317D01*
X23805413Y45885190D01*
X23811887Y45877571D01*
X23820130Y45865234D01*
X23820135Y45865229D01*
X23821097Y45864586D01*
X23831379Y45854972D01*
X23832082Y45854059D01*
X23832084Y45854058D01*
X23832086Y45854055D01*
X23840883Y45848995D01*
X23849936Y45842061D01*
X23857123Y45834874D01*
X23857125Y45834873D01*
X23860685Y45832494D01*
X23860369Y45832022D01*
X23866816Y45827872D01*
X23911244Y45786402D01*
X23925020Y45756134D01*
X23913359Y45724991D01*
X23883091Y45711215D01*
X23867039Y45713700D01*
X23865796Y45714142D01*
X23856215Y45718953D01*
X23845816Y45725901D01*
X23845813Y45725902D01*
X23844883Y45726087D01*
X23831652Y45731066D01*
X23830834Y45731538D01*
X23819978Y45732966D01*
X23809182Y45735834D01*
X23799047Y45739984D01*
X23794848Y45740801D01*
X23794888Y45741008D01*
X23792096Y45741485D01*
X23792066Y45741274D01*
X23787830Y45741896D01*
X23775347Y45741263D01*
X23764674Y45742042D01*
X23752410Y45744481D01*
X23752400Y45744481D01*
X23751469Y45744296D01*
X23737345Y45743833D01*
X23736410Y45743956D01*
X23736404Y45743956D01*
X23725830Y45741121D01*
X23714758Y45739640D01*
X22910288Y45736356D01*
X22901634Y45737191D01*
X22898914Y45737732D01*
X22898912Y45737732D01*
X22895718Y45737097D01*
X22887424Y45736263D01*
X22518328Y45734757D01*
X22509676Y45735592D01*
X22498916Y45737732D01*
X22498913Y45737732D01*
X22487344Y45735431D01*
X22479045Y45734596D01*
X22126371Y45733157D01*
X22117718Y45733992D01*
X22098915Y45737732D01*
X22098913Y45737732D01*
X22079534Y45733877D01*
X22071057Y45733042D01*
X22051275Y45733042D01*
X22050883Y45732962D01*
X22050640Y45732914D01*
X22050331Y45732854D01*
X22032623Y45725434D01*
X22024313Y45722894D01*
X22005504Y45719152D01*
X22005502Y45719151D01*
X21989072Y45708173D01*
X21981561Y45704158D01*
X21963300Y45696595D01*
X21963208Y45696532D01*
X21963019Y45696405D01*
X21962490Y45696053D01*
X21948972Y45682425D01*
X21942267Y45676899D01*
X21926317Y45666241D01*
X21926315Y45666239D01*
X21915336Y45649809D01*
X21909936Y45643229D01*
X21895953Y45629245D01*
X21895906Y45629173D01*
X21895780Y45628983D01*
X21895418Y45628443D01*
X21895409Y45628421D01*
X21888139Y45610669D01*
X21884065Y45603009D01*
X21880035Y45596976D01*
X21873403Y45587050D01*
X21869547Y45567666D01*
X21867075Y45559520D01*
X21859510Y45541256D01*
X21859458Y45540986D01*
X21859427Y45540829D01*
X21859322Y45540301D01*
X21859399Y45521105D01*
X21858565Y45512458D01*
X21854824Y45493642D01*
X21858679Y45474262D01*
X21859514Y45465785D01*
X21859514Y45121500D01*
X21858679Y45113024D01*
X21854824Y45093643D01*
X21854824Y45093642D01*
X21858679Y45074262D01*
X21859514Y45065785D01*
X21859514Y45046022D01*
X21865919Y45030557D01*
X21867076Y45027764D01*
X21869547Y45019618D01*
X21873404Y45000233D01*
X21873404Y45000232D01*
X21884384Y44983798D01*
X21888397Y44976290D01*
X21895960Y44958035D01*
X21895960Y44958034D01*
X21909932Y44944062D01*
X21915336Y44937477D01*
X21926315Y44921045D01*
X21942748Y44910065D01*
X21949333Y44904661D01*
X21963305Y44890689D01*
X21981563Y44883126D01*
X21989065Y44879117D01*
X22005505Y44868132D01*
X22024888Y44864277D01*
X22033026Y44861809D01*
X22049475Y44854996D01*
X22072989Y44831482D01*
X22072990Y44798227D01*
X22054573Y44777226D01*
X21898233Y44686958D01*
X21750725Y44563183D01*
X21750722Y44563181D01*
X21626952Y44415686D01*
X21530667Y44248933D01*
X21464795Y44067995D01*
X21464794Y44067992D01*
X21431340Y43878379D01*
X21431332Y43805592D01*
X21431330Y43805562D01*
X21431330Y43782101D01*
X21431326Y43749284D01*
X21431330Y43749255D01*
X21431330Y29099972D01*
X21431330Y29059990D01*
X21446630Y29023052D01*
X21474901Y28994781D01*
X21511839Y28979481D01*
X24249008Y28979481D01*
X24253266Y28979273D01*
X24422374Y28962615D01*
X24430721Y28960954D01*
X24591278Y28912247D01*
X24599141Y28908990D01*
X24747104Y28829901D01*
X24754186Y28825169D01*
X24883877Y28718734D01*
X24889900Y28712712D01*
X24996334Y28583023D01*
X25001066Y28575941D01*
X25080157Y28427976D01*
X25083417Y28420106D01*
X25132121Y28259559D01*
X25133783Y28251206D01*
X25150437Y28082143D01*
X25150646Y28077877D01*
X25147974Y8685420D01*
X25147974Y8685419D01*
X25147973Y8679580D01*
X25147895Y8676990D01*
X25134593Y8454796D01*
X25133976Y8449653D01*
X25094552Y8231892D01*
X25093327Y8226858D01*
X25028264Y8015331D01*
X25026448Y8010479D01*
X24936677Y7808213D01*
X24934297Y7803611D01*
X24821084Y7613460D01*
X24818173Y7609175D01*
X24682378Y7432870D01*
X24680735Y7430864D01*
X24678707Y7428534D01*
X24678708Y7428533D01*
X16537662Y-1929134D01*
X16537657Y-1929141D01*
X16526363Y-1942123D01*
X16523817Y-1944810D01*
X16417481Y-2047782D01*
X16411730Y-2052469D01*
X16290975Y-2134792D01*
X16284510Y-2138433D01*
X16151505Y-2199014D01*
X16144515Y-2201501D01*
X16003151Y-2238567D01*
X15995840Y-2239829D01*
X15848288Y-2252472D01*
X15844579Y-2252631D01*
X7491305Y-2252631D01*
X7451323Y-2252631D01*
X7432854Y-2260281D01*
X7414384Y-2267931D01*
X7386114Y-2296201D01*
X7370814Y-2333140D01*
X7370814Y-2516396D01*
X7358088Y-2547120D01*
X7343991Y-2556539D01*
X7314756Y-2568648D01*
X7281501Y-2568647D01*
X7267405Y-2559229D01*
X7139018Y-2430842D01*
X7067604Y-2401262D01*
X7067603Y-2401261D01*
X7060219Y-2398202D01*
X7060217Y-2398202D01*
X2424376Y-2398202D01*
X2393652Y-2385476D01*
X2005790Y-1997614D01*
X5933807Y-1997614D01*
X5952387Y-2091023D01*
X6005299Y-2170212D01*
X6084488Y-2223124D01*
X6177897Y-2241704D01*
X6271306Y-2223124D01*
X6350495Y-2170212D01*
X6403407Y-2091023D01*
X6421987Y-1997614D01*
X6403407Y-1904205D01*
X6350495Y-1825016D01*
X6271306Y-1772104D01*
X6177897Y-1753524D01*
X6084488Y-1772104D01*
X6005299Y-1825015D01*
X6005298Y-1825016D01*
X5959507Y-1893549D01*
X5952387Y-1904205D01*
X5933807Y-1997614D01*
X2005790Y-1997614D01*
X182850Y-174674D01*
X170124Y-143950D01*
X182850Y-113226D01*
X213574Y-100500D01*
X8335482Y-100500D01*
X8366206Y-113226D01*
X8378932Y-143950D01*
X8366206Y-174674D01*
X7465196Y-1075683D01*
X7465195Y-1075684D01*
X7465195Y-1075685D01*
X7456287Y-1097192D01*
X7444817Y-1124882D01*
X7444817Y-1499238D01*
X7432091Y-1529962D01*
X7425507Y-1535365D01*
X7406070Y-1548352D01*
X7406068Y-1548354D01*
X7360128Y-1617110D01*
X7353157Y-1627543D01*
X7334577Y-1720952D01*
X7353157Y-1814361D01*
X7406069Y-1893550D01*
X7485258Y-1946462D01*
X7578667Y-1965042D01*
X7672076Y-1946462D01*
X7751265Y-1893550D01*
X7764781Y-1873321D01*
X7792430Y-1854846D01*
X7825047Y-1861333D01*
X7837036Y-1873323D01*
X7844970Y-1885198D01*
X7844971Y-1885199D01*
X7844972Y-1885200D01*
X7924161Y-1938112D01*
X8017570Y-1956692D01*
X8110979Y-1938112D01*
X8190168Y-1885200D01*
X8243080Y-1806011D01*
X8261660Y-1712602D01*
X8243080Y-1619193D01*
X8190168Y-1540004D01*
X8190166Y-1540002D01*
X8170730Y-1527015D01*
X8152255Y-1499364D01*
X8151420Y-1490888D01*
X8151420Y-1037490D01*
X8164146Y-1006766D01*
X8702086Y-468826D01*
X8732810Y-456100D01*
X15685991Y-456100D01*
X15685993Y-456100D01*
X15735189Y-435722D01*
X15973247Y-197666D01*
X15979716Y-182047D01*
X15993625Y-148469D01*
X15993625Y5204715D01*
X16006351Y5235439D01*
X16040824Y5269912D01*
X16095686Y5324775D01*
X16126409Y5337500D01*
X16157133Y5324774D01*
X16169859Y5294050D01*
X16162537Y5269912D01*
X16152516Y5254915D01*
X16152515Y5254911D01*
X16133935Y5161502D01*
X16152515Y5068093D01*
X16179408Y5027845D01*
X16204396Y4990446D01*
X16205427Y4988904D01*
X16284616Y4935992D01*
X16378025Y4917412D01*
X16471434Y4935992D01*
X16550623Y4988904D01*
X16550627Y4988911D01*
X16551621Y4989903D01*
X16552929Y4990446D01*
X16554182Y4991282D01*
X16554348Y4991034D01*
X16582344Y5002633D01*
X19402380Y5002633D01*
X19402381Y5002633D01*
X19463246Y5027844D01*
X19885534Y5450134D01*
X19907779Y5462022D01*
X19927741Y5465992D01*
X20006930Y5518904D01*
X20059842Y5598093D01*
X20078422Y5691502D01*
X20059842Y5784911D01*
X20006930Y5864100D01*
X19927741Y5917012D01*
X19834332Y5935592D01*
X19834331Y5935592D01*
X19774913Y5923774D01*
X19742297Y5930262D01*
X19723822Y5957913D01*
X19730310Y5990529D01*
X19735708Y5997108D01*
X21867804Y8129202D01*
X21888182Y8178398D01*
X21888182Y8231646D01*
X21888182Y14078126D01*
X21867804Y14127322D01*
X21830152Y14164974D01*
X21131355Y14863771D01*
X21082159Y14884149D01*
X21082157Y14884149D01*
X20861632Y14884149D01*
X20830908Y14896875D01*
X20818182Y14927599D01*
X20818182Y18482395D01*
X20818182Y18482396D01*
X20797804Y18531592D01*
X20760152Y18569244D01*
X20497882Y18831514D01*
X20485156Y18862238D01*
X20485991Y18870716D01*
X20490552Y18893642D01*
X20471972Y18987051D01*
X20419060Y19066240D01*
X20339871Y19119152D01*
X20339870Y19119153D01*
X20284735Y19130120D01*
X20257084Y19148596D01*
X20249762Y19172735D01*
X20249762Y23975222D01*
X22316868Y23975222D01*
X22319823Y23933647D01*
X22319932Y23930567D01*
X22319932Y23088910D01*
X22360184Y22991731D01*
X22434561Y22917354D01*
X22531740Y22877102D01*
X22636924Y22877102D01*
X22931740Y22877102D01*
X22934372Y22877102D01*
X22948112Y22874873D01*
X22950615Y22874038D01*
X22992187Y22876993D01*
X22995267Y22877102D01*
X23036924Y22877102D01*
X23331740Y22877102D01*
X23334372Y22877102D01*
X23348112Y22874873D01*
X23350615Y22874038D01*
X23392187Y22876993D01*
X23395267Y22877102D01*
X23436924Y22877102D01*
X23731740Y22877102D01*
X23734372Y22877102D01*
X23748112Y22874873D01*
X23750615Y22874038D01*
X23792187Y22876993D01*
X23795267Y22877102D01*
X23836924Y22877102D01*
X24131740Y22877102D01*
X24134372Y22877102D01*
X24148112Y22874873D01*
X24150615Y22874038D01*
X24192187Y22876993D01*
X24195267Y22877102D01*
X24236925Y22877102D01*
X24239352Y22878108D01*
X24252911Y22881310D01*
X24255535Y22881496D01*
X24292813Y22900136D01*
X24295585Y22901401D01*
X24334103Y22917354D01*
X24335965Y22919217D01*
X24347264Y22927359D01*
X24349610Y22928532D01*
X24349611Y22928534D01*
X24349615Y22928535D01*
X24376927Y22960028D01*
X24379001Y22962254D01*
X24408480Y22991731D01*
X24409488Y22994164D01*
X24416810Y23006012D01*
X24418533Y23007998D01*
X24431720Y23047563D01*
X24432779Y23050398D01*
X24448732Y23088910D01*
X24448732Y23091543D01*
X24450962Y23105283D01*
X24451031Y23105491D01*
X24451796Y23107785D01*
X24448841Y23149359D01*
X24448732Y23152439D01*
X24448732Y23994094D01*
X24432787Y24032589D01*
X24408480Y24091273D01*
X24334103Y24165650D01*
X24236924Y24205902D01*
X24236923Y24205902D01*
X23834292Y24205902D01*
X23820551Y24208132D01*
X23818049Y24208966D01*
X23776477Y24206011D01*
X23773397Y24205902D01*
X23434292Y24205902D01*
X23420551Y24208132D01*
X23418049Y24208966D01*
X23376477Y24206011D01*
X23373397Y24205902D01*
X23034292Y24205902D01*
X23020551Y24208132D01*
X23018049Y24208966D01*
X22976477Y24206011D01*
X22973397Y24205902D01*
X22634292Y24205902D01*
X22620551Y24208132D01*
X22618049Y24208966D01*
X22576477Y24206011D01*
X22573397Y24205902D01*
X22531736Y24205902D01*
X22529297Y24204891D01*
X22515760Y24201696D01*
X22513128Y24201509D01*
X22513127Y24201509D01*
X22475871Y24182881D01*
X22473069Y24181602D01*
X22434562Y24165651D01*
X22432693Y24163782D01*
X22421408Y24155650D01*
X22419049Y24154469D01*
X22419047Y24154468D01*
X22419047Y24154467D01*
X22391748Y24122993D01*
X22389649Y24120740D01*
X22360186Y24091277D01*
X22360182Y24091272D01*
X22359172Y24088832D01*
X22351861Y24077003D01*
X22350132Y24075009D01*
X22336952Y24035473D01*
X22335875Y24032589D01*
X22319932Y23994096D01*
X22319932Y23991463D01*
X22317702Y23977723D01*
X22316868Y23975222D01*
X20249762Y23975222D01*
X20249762Y39599643D01*
X20262487Y39630366D01*
X20422203Y39790083D01*
X20452926Y39802808D01*
X20461403Y39801973D01*
X20484331Y39797412D01*
X20484332Y39797412D01*
X20577741Y39815992D01*
X20656930Y39868904D01*
X20709842Y39948093D01*
X20728422Y40041502D01*
X20709842Y40134911D01*
X20656930Y40214100D01*
X20577741Y40267012D01*
X20484332Y40285592D01*
X20390923Y40267012D01*
X20311734Y40214101D01*
X20311733Y40214100D01*
X20258822Y40134911D01*
X20240242Y40041502D01*
X20240242Y40041501D01*
X20244802Y40018575D01*
X20238314Y39985959D01*
X20232911Y39979375D01*
X20146136Y39892599D01*
X20115412Y39879873D01*
X20084688Y39892599D01*
X20071962Y39923323D01*
X20071962Y41321843D01*
X20084687Y41352566D01*
X20422203Y41690083D01*
X20452926Y41702808D01*
X20461403Y41701973D01*
X20484331Y41697412D01*
X20484332Y41697412D01*
X20577741Y41715992D01*
X20656930Y41768904D01*
X20709842Y41848093D01*
X20728422Y41941502D01*
X20709842Y42034911D01*
X20656930Y42114100D01*
X20577741Y42167012D01*
X20484332Y42185592D01*
X20390923Y42167012D01*
X20311734Y42114101D01*
X20311733Y42114100D01*
X20258822Y42034911D01*
X20240242Y41941502D01*
X20240242Y41941501D01*
X20244802Y41918575D01*
X20238314Y41885959D01*
X20232911Y41879375D01*
X19968336Y41614799D01*
X19937612Y41602073D01*
X19906888Y41614799D01*
X19894162Y41645523D01*
X19894162Y45233792D01*
X19906888Y45264516D01*
X19937612Y45277242D01*
X20149473Y45277242D01*
X20173610Y45269920D01*
X20209824Y45245723D01*
X20303233Y45227143D01*
X20396642Y45245723D01*
X20475831Y45298635D01*
X20528743Y45377824D01*
X20547323Y45471233D01*
X20528743Y45564642D01*
X20475831Y45643831D01*
X20475829Y45643833D01*
X20475441Y45644092D01*
X20475181Y45644481D01*
X20472805Y45646857D01*
X20473277Y45647330D01*
X20456967Y45671744D01*
X20456133Y45680218D01*
X20456133Y45816630D01*
X20468859Y45847354D01*
X20574467Y45952962D01*
X20605191Y45965688D01*
X22426293Y45965688D01*
X22426294Y45965688D01*
X22450117Y45975556D01*
X22482491Y45988965D01*
X23057634Y46564108D01*
X23088358Y46576834D01*
X23160826Y46576834D01*
X23191550Y46564108D01*
X23196952Y46557526D01*
X23197211Y46557138D01*
X23197212Y46557137D01*
X23197213Y46557136D01*
X23276402Y46504224D01*
X23369811Y46485644D01*
X23463220Y46504224D01*
X23542409Y46557136D01*
X23595321Y46636325D01*
X23606797Y46694022D01*
X23625272Y46721672D01*
X23657888Y46728160D01*
X23680136Y46716269D01*
G37*
%TD.AperFunction*%
%TA.AperFunction,Conductor*%
G36*
X10195047Y18929899D02*
G01*
X10207773Y18899175D01*
X10195047Y18868451D01*
X9704709Y18378114D01*
X9694248Y18352856D01*
X9681432Y18321916D01*
X9681432Y16850487D01*
X9668706Y16819763D01*
X9662124Y16814361D01*
X9661735Y16814102D01*
X9661733Y16814100D01*
X9608822Y16734911D01*
X9590242Y16641502D01*
X9608822Y16548093D01*
X9661734Y16468904D01*
X9740923Y16415992D01*
X9834332Y16397412D01*
X9927741Y16415992D01*
X10006930Y16468904D01*
X10059842Y16548093D01*
X10078422Y16641502D01*
X10059842Y16734911D01*
X10006930Y16814100D01*
X10006929Y16814101D01*
X10006928Y16814102D01*
X10006540Y16814361D01*
X10006280Y16814750D01*
X10003904Y16817126D01*
X10004376Y16817599D01*
X9988066Y16842013D01*
X9987232Y16850487D01*
X9987232Y18210170D01*
X9999958Y18240894D01*
X10384940Y18625876D01*
X10415664Y18638602D01*
X13814753Y18638602D01*
X13845477Y18625876D01*
X14688819Y17782535D01*
X14701545Y17751811D01*
X14700712Y17743344D01*
X14700620Y17742881D01*
X14700620Y17742877D01*
X14719200Y17649468D01*
X14772112Y17570279D01*
X14851301Y17517367D01*
X14944710Y17498787D01*
X15038119Y17517367D01*
X15117308Y17570279D01*
X15170220Y17649468D01*
X15188800Y17742877D01*
X15170220Y17836286D01*
X15117308Y17915475D01*
X15038119Y17968387D01*
X14975453Y17980852D01*
X14944711Y17986967D01*
X14944706Y17986967D01*
X14944243Y17986875D01*
X14943781Y17986967D01*
X14940432Y17986967D01*
X14940432Y17987634D01*
X14911628Y17993370D01*
X14905052Y17998768D01*
X14035370Y18868451D01*
X14022644Y18899175D01*
X14035370Y18929899D01*
X14066094Y18942625D01*
X15236963Y18942625D01*
X15267687Y18929899D01*
X15280413Y18899175D01*
X15267687Y18868451D01*
X15267686Y18868451D01*
X15230905Y18831671D01*
X15208663Y18819781D01*
X15205508Y18819154D01*
X15205505Y18819152D01*
X15126316Y18766241D01*
X15126315Y18766240D01*
X15096117Y18721044D01*
X15073404Y18687051D01*
X15054824Y18593642D01*
X15073404Y18500233D01*
X15126316Y18421044D01*
X15205505Y18368132D01*
X15298914Y18349552D01*
X15392323Y18368132D01*
X15471512Y18421044D01*
X15524424Y18500233D01*
X15525051Y18503388D01*
X15536942Y18525637D01*
X15575824Y18564518D01*
X15606547Y18577242D01*
X16688323Y18577242D01*
X16719047Y18564516D01*
X16731773Y18533792D01*
X16719047Y18503068D01*
X15237358Y17021380D01*
X15206634Y17008654D01*
X15182497Y17015975D01*
X15177743Y17019151D01*
X15177741Y17019152D01*
X15084332Y17037732D01*
X14990923Y17019152D01*
X14911734Y16966241D01*
X14911733Y16966240D01*
X14878676Y16916765D01*
X14858822Y16887051D01*
X14840242Y16793642D01*
X14858822Y16700233D01*
X14869765Y16683856D01*
X14898064Y16641502D01*
X14911734Y16621044D01*
X14990923Y16568132D01*
X15084332Y16549552D01*
X15177741Y16568132D01*
X15256930Y16621044D01*
X15309842Y16700233D01*
X15311005Y16706085D01*
X15322895Y16728333D01*
X15876309Y17281746D01*
X15907032Y17294471D01*
X15937756Y17281745D01*
X15950482Y17251021D01*
X15950482Y17015356D01*
X15937756Y16984632D01*
X15931172Y16979229D01*
X15911735Y16966242D01*
X15911733Y16966240D01*
X15878676Y16916765D01*
X15858822Y16887051D01*
X15840242Y16793642D01*
X15858822Y16700233D01*
X15869765Y16683856D01*
X15898064Y16641502D01*
X15911734Y16621044D01*
X15990923Y16568132D01*
X16084332Y16549552D01*
X16177741Y16568132D01*
X16256930Y16621044D01*
X16309842Y16700233D01*
X16328422Y16793642D01*
X16309842Y16887051D01*
X16256930Y16966240D01*
X16256929Y16966241D01*
X16256928Y16966242D01*
X16237492Y16979229D01*
X16219017Y17006880D01*
X16218182Y17015356D01*
X16218182Y17306612D01*
X16230908Y17337336D01*
X16971938Y18078366D01*
X17002662Y18091092D01*
X17377201Y18091092D01*
X17407925Y18078366D01*
X17413328Y18071782D01*
X17426316Y18052344D01*
X17505505Y17999432D01*
X17598914Y17980852D01*
X17692323Y17999432D01*
X17771512Y18052344D01*
X17824424Y18131533D01*
X17843004Y18224942D01*
X17824424Y18318351D01*
X17824422Y18318354D01*
X17824422Y18318355D01*
X17815403Y18331853D01*
X17808915Y18364469D01*
X17827391Y18392119D01*
X17851530Y18399442D01*
X19883405Y18399442D01*
X20257080Y18399442D01*
X20287804Y18386716D01*
X20337756Y18336764D01*
X20350482Y18306040D01*
X20350482Y18054169D01*
X20337756Y18023445D01*
X20307032Y18010719D01*
X20276308Y18023445D01*
X20234103Y18065650D01*
X20172679Y18091092D01*
X20136924Y18105902D01*
X20136923Y18105902D01*
X19741987Y18105902D01*
X19741979Y18105903D01*
X19736924Y18105903D01*
X19631740Y18105903D01*
X19583150Y18085776D01*
X19549363Y18071781D01*
X19534559Y18065649D01*
X19460184Y17991274D01*
X19450705Y17968387D01*
X19450704Y17968386D01*
X19419931Y17894096D01*
X19419931Y17783856D01*
X19419932Y17783847D01*
X19419932Y17388910D01*
X19460184Y17291731D01*
X19534561Y17217354D01*
X19631740Y17177102D01*
X19631741Y17177102D01*
X20136923Y17177102D01*
X20136924Y17177102D01*
X20234103Y17217354D01*
X20276308Y17259559D01*
X20307032Y17272285D01*
X20337756Y17259559D01*
X20350482Y17228835D01*
X20350482Y16954169D01*
X20337756Y16923445D01*
X20307032Y16910719D01*
X20276308Y16923445D01*
X20234103Y16965650D01*
X20232674Y16966242D01*
X20136924Y17005902D01*
X20136923Y17005902D01*
X19741987Y17005902D01*
X19741979Y17005903D01*
X19736924Y17005903D01*
X19631740Y17005903D01*
X19588592Y16988030D01*
X19534560Y16965650D01*
X19460185Y16891275D01*
X19460184Y16891274D01*
X19460184Y16891273D01*
X19440058Y16842684D01*
X19428219Y16814101D01*
X19419931Y16794093D01*
X19419931Y16683856D01*
X19419932Y16683847D01*
X19419932Y16394095D01*
X19419932Y16394094D01*
X19419932Y16288910D01*
X19460184Y16191731D01*
X19534561Y16117354D01*
X19631740Y16077102D01*
X19631741Y16077102D01*
X19972897Y16077102D01*
X20003621Y16064376D01*
X20016347Y16033652D01*
X20003621Y16002928D01*
X19995238Y15996386D01*
X19994012Y15995651D01*
X19984848Y15992110D01*
X19984855Y15992094D01*
X19980902Y15990453D01*
X19962531Y15978150D01*
X19954985Y15974111D01*
X19934562Y15965652D01*
X19934559Y15965650D01*
X19924164Y15955256D01*
X19915799Y15948725D01*
X19489933Y15693205D01*
X19477385Y15688134D01*
X19473448Y15687222D01*
X19473447Y15687222D01*
X19473445Y15687221D01*
X19447821Y15668919D01*
X19442764Y15665806D01*
X19414886Y15651172D01*
X19414878Y15651166D01*
X19414596Y15650826D01*
X19403586Y15641396D01*
X19403203Y15641167D01*
X19403198Y15641162D01*
X19400796Y15637920D01*
X19391147Y15628437D01*
X19387859Y15626089D01*
X19387855Y15626085D01*
X19371182Y15599364D01*
X19367699Y15594550D01*
X18890159Y15021502D01*
X18887505Y15018595D01*
X18860182Y14991272D01*
X18860182Y14991271D01*
X18857984Y14985963D01*
X18851223Y14974777D01*
X18847545Y14970364D01*
X18847544Y14970362D01*
X18836052Y14933483D01*
X18834713Y14929784D01*
X18819932Y14894098D01*
X18819932Y14888351D01*
X18817965Y14875426D01*
X18816256Y14869942D01*
X18819754Y14831463D01*
X18819932Y14827530D01*
X18819932Y14788912D01*
X18819933Y14788907D01*
X18822130Y14783601D01*
X18825257Y14770917D01*
X18825778Y14765193D01*
X18825780Y14765184D01*
X18843726Y14730994D01*
X18845396Y14727429D01*
X18860183Y14691732D01*
X18864248Y14687667D01*
X18871995Y14677139D01*
X18874507Y14672353D01*
X18874665Y14672053D01*
X18883022Y14665089D01*
X18904327Y14647335D01*
X18907234Y14644680D01*
X18934558Y14617357D01*
X18934561Y14617354D01*
X18936696Y14616470D01*
X18939870Y14615155D01*
X18951060Y14608391D01*
X18955470Y14604716D01*
X18992355Y14593224D01*
X18996032Y14591893D01*
X19031740Y14577102D01*
X19037483Y14577102D01*
X19050408Y14575135D01*
X19055893Y14573426D01*
X19091412Y14576655D01*
X19094372Y14576924D01*
X19098305Y14577102D01*
X19454173Y14577102D01*
X19462605Y14576276D01*
X19484614Y14571922D01*
X19484619Y14571924D01*
X19488672Y14571927D01*
X19492735Y14572054D01*
X19492741Y14572053D01*
X19492746Y14572055D01*
X19493764Y14572086D01*
X19493982Y14572073D01*
X19494722Y14572109D01*
X19495481Y14572139D01*
X19496203Y14572162D01*
X19496418Y14572192D01*
X19497432Y14572242D01*
X19497437Y14572241D01*
X19511693Y14575805D01*
X19522231Y14577102D01*
X19536923Y14577102D01*
X19536924Y14577102D01*
X19557654Y14585690D01*
X19565748Y14588150D01*
X19587756Y14592550D01*
X19587759Y14592553D01*
X19591523Y14594116D01*
X19595210Y14595781D01*
X19595216Y14595782D01*
X19595220Y14595786D01*
X19596146Y14596203D01*
X19603479Y14598753D01*
X19900885Y14673104D01*
X19914495Y14674291D01*
X19918049Y14674038D01*
X19918050Y14674039D01*
X19922320Y14673735D01*
X19922221Y14672353D01*
X19948762Y14665089D01*
X19965237Y14636202D01*
X19956459Y14604126D01*
X19952853Y14600035D01*
X19845860Y14493042D01*
X19815136Y14480316D01*
X19806660Y14481151D01*
X19784333Y14485592D01*
X19784332Y14485592D01*
X19690923Y14467012D01*
X19608470Y14411920D01*
X19575854Y14405433D01*
X19560191Y14411921D01*
X19540496Y14425081D01*
X19533912Y14430484D01*
X19519940Y14444456D01*
X19501684Y14452019D01*
X19494176Y14456032D01*
X19477742Y14467012D01*
X19458356Y14470869D01*
X19450210Y14473340D01*
X19442290Y14476620D01*
X19431952Y14480902D01*
X19431950Y14480902D01*
X19412189Y14480902D01*
X19403712Y14481737D01*
X19384332Y14485592D01*
X19364952Y14481737D01*
X19356475Y14480902D01*
X19012189Y14480902D01*
X19003712Y14481737D01*
X18984332Y14485592D01*
X18964952Y14481737D01*
X18956475Y14480902D01*
X18936708Y14480902D01*
X18918454Y14473341D01*
X18910308Y14470869D01*
X18890923Y14467012D01*
X18874488Y14456032D01*
X18866982Y14452020D01*
X18848725Y14444457D01*
X18848722Y14444455D01*
X18834749Y14430482D01*
X18828168Y14425082D01*
X18811736Y14414102D01*
X18811732Y14414098D01*
X18800752Y14397666D01*
X18795352Y14391085D01*
X18781379Y14377112D01*
X18781377Y14377109D01*
X18773814Y14358852D01*
X18769802Y14351346D01*
X18758822Y14334911D01*
X18754965Y14315526D01*
X18752493Y14307380D01*
X18744932Y14289126D01*
X18744932Y14269360D01*
X18744097Y14260884D01*
X18740242Y14241503D01*
X18740242Y14241502D01*
X18744097Y14222122D01*
X18744932Y14213645D01*
X18744932Y14193882D01*
X18751337Y14178417D01*
X18752494Y14175624D01*
X18754965Y14167478D01*
X18758822Y14148093D01*
X18758822Y14148092D01*
X18769802Y14131658D01*
X18773815Y14124150D01*
X18781378Y14105895D01*
X18781378Y14105894D01*
X18795350Y14091922D01*
X18800754Y14085337D01*
X18813914Y14065641D01*
X18820401Y14033025D01*
X18813913Y14017362D01*
X18800753Y13997667D01*
X18795352Y13991085D01*
X18781379Y13977112D01*
X18781377Y13977109D01*
X18773814Y13958852D01*
X18769802Y13951346D01*
X18758822Y13934911D01*
X18754965Y13915526D01*
X18752493Y13907380D01*
X18744932Y13889126D01*
X18744932Y13869360D01*
X18744097Y13860884D01*
X18740242Y13841503D01*
X18740242Y13841502D01*
X18744097Y13822122D01*
X18744932Y13813645D01*
X18744932Y13793882D01*
X18751337Y13778417D01*
X18752494Y13775624D01*
X18754965Y13767478D01*
X18758822Y13748093D01*
X18758822Y13748092D01*
X18769802Y13731658D01*
X18773815Y13724150D01*
X18781378Y13705895D01*
X18781378Y13705894D01*
X18795350Y13691922D01*
X18800754Y13685337D01*
X18810276Y13671085D01*
X18811734Y13668904D01*
X18828166Y13657925D01*
X18834751Y13652521D01*
X18848723Y13638549D01*
X18866981Y13630986D01*
X18874483Y13626977D01*
X18890923Y13615992D01*
X18910306Y13612137D01*
X18918450Y13609667D01*
X18936712Y13602102D01*
X18956475Y13602102D01*
X18964951Y13601268D01*
X18984332Y13597412D01*
X19003712Y13601268D01*
X19012189Y13602102D01*
X19356475Y13602102D01*
X19364951Y13601268D01*
X19384332Y13597412D01*
X19403712Y13601268D01*
X19412189Y13602102D01*
X19431951Y13602102D01*
X19431952Y13602102D01*
X19450212Y13609666D01*
X19458357Y13612137D01*
X19477741Y13615992D01*
X19494178Y13626976D01*
X19501679Y13630986D01*
X19519941Y13638549D01*
X19533917Y13652527D01*
X19540487Y13657919D01*
X19556930Y13668904D01*
X19556931Y13668907D01*
X19560192Y13671085D01*
X19592809Y13677572D01*
X19608470Y13671084D01*
X19690919Y13615994D01*
X19690920Y13615994D01*
X19690923Y13615992D01*
X19784332Y13597412D01*
X19877741Y13615992D01*
X19956930Y13668904D01*
X20009842Y13748093D01*
X20027042Y13834567D01*
X20038930Y13856810D01*
X20579116Y14396995D01*
X20609839Y14409720D01*
X20640563Y14396994D01*
X20652454Y14374747D01*
X20658822Y14342734D01*
X20682445Y14307380D01*
X20710707Y14265081D01*
X20711734Y14263545D01*
X20790923Y14210633D01*
X20884332Y14192053D01*
X20977741Y14210633D01*
X21054028Y14261607D01*
X21086644Y14268094D01*
X21108891Y14256203D01*
X21429956Y13935138D01*
X21442682Y13904414D01*
X21442682Y8407143D01*
X21429956Y8376419D01*
X18996459Y5942923D01*
X18965735Y5930197D01*
X18957259Y5931032D01*
X18934333Y5935592D01*
X18934332Y5935592D01*
X18840923Y5917012D01*
X18761734Y5864101D01*
X18748747Y5844663D01*
X18721096Y5826187D01*
X18712619Y5825352D01*
X16048298Y5825352D01*
X15995050Y5825352D01*
X15945854Y5804974D01*
X15945852Y5804973D01*
X15671919Y5531039D01*
X15641195Y5518313D01*
X15610471Y5531039D01*
X15597745Y5561763D01*
X15597745Y8443900D01*
X15610471Y8474624D01*
X15641195Y8487350D01*
X15671917Y8474625D01*
X16680512Y7466029D01*
X16729708Y7445652D01*
X16729709Y7445652D01*
X18648954Y7445652D01*
X18648956Y7445652D01*
X18698152Y7466030D01*
X19183247Y7951127D01*
X19213970Y7963852D01*
X19238109Y7956529D01*
X19316970Y7903836D01*
X19316971Y7903836D01*
X19316974Y7903834D01*
X19410383Y7885254D01*
X19503792Y7903834D01*
X19582981Y7956746D01*
X19635893Y8035935D01*
X19654473Y8129344D01*
X19635893Y8222753D01*
X19582981Y8301942D01*
X19503792Y8354854D01*
X19424103Y8370705D01*
X19396453Y8389180D01*
X19389965Y8421797D01*
X19401854Y8444042D01*
X19424641Y8466829D01*
X19455364Y8479554D01*
X19479502Y8472232D01*
X19497943Y8459910D01*
X19591352Y8441330D01*
X19684761Y8459910D01*
X19763950Y8512822D01*
X19816862Y8592011D01*
X19835442Y8685420D01*
X19816862Y8778829D01*
X19763950Y8858018D01*
X19761883Y8859399D01*
X19712125Y8892646D01*
X19684761Y8910930D01*
X19591352Y8929510D01*
X19497943Y8910930D01*
X19418754Y8858019D01*
X19418751Y8858016D01*
X19416358Y8854434D01*
X19396862Y8838435D01*
X19385647Y8833789D01*
X19385645Y8833788D01*
X19340388Y8815043D01*
X19004704Y8479359D01*
X19004561Y8479144D01*
X18999165Y8472570D01*
X18628823Y8102227D01*
X18598099Y8089501D01*
X18429528Y8089501D01*
X18398804Y8102227D01*
X18386078Y8132951D01*
X18393401Y8157091D01*
X18396925Y8162365D01*
X18409569Y8181288D01*
X18428149Y8274697D01*
X18409569Y8368106D01*
X18356657Y8447295D01*
X18277468Y8500207D01*
X18184059Y8518787D01*
X18090650Y8500207D01*
X18011461Y8447296D01*
X18011459Y8447294D01*
X17998342Y8427662D01*
X17970691Y8409187D01*
X17962215Y8408352D01*
X16649772Y8408352D01*
X16619048Y8421078D01*
X16216508Y8823618D01*
X16203782Y8854342D01*
X16203782Y10100921D01*
X16216508Y10131645D01*
X16247232Y10144371D01*
X16277956Y10131645D01*
X16930022Y9479579D01*
X16942748Y9448855D01*
X16942748Y9298271D01*
X16930022Y9267547D01*
X16923440Y9262145D01*
X16923051Y9261886D01*
X16923049Y9261884D01*
X16877852Y9194240D01*
X16870138Y9182695D01*
X16851558Y9089286D01*
X16870138Y8995877D01*
X16893067Y8961561D01*
X16914593Y8929344D01*
X16923050Y8916688D01*
X17002239Y8863776D01*
X17095648Y8845196D01*
X17189057Y8863776D01*
X17268246Y8916688D01*
X17321158Y8995877D01*
X17339738Y9089286D01*
X17321158Y9182695D01*
X17268246Y9261884D01*
X17268244Y9261886D01*
X17267856Y9262145D01*
X17267596Y9262534D01*
X17265220Y9264910D01*
X17265692Y9265383D01*
X17249382Y9289797D01*
X17248548Y9298271D01*
X17248548Y9560599D01*
X17248547Y9560602D01*
X17247774Y9562467D01*
X17231231Y9602406D01*
X17225271Y9616796D01*
X16432408Y10409660D01*
X16419682Y10440384D01*
X16419682Y10691502D01*
X16540242Y10691502D01*
X16558822Y10598093D01*
X16611734Y10518904D01*
X16690923Y10465992D01*
X16784332Y10447412D01*
X16877741Y10465992D01*
X16956930Y10518904D01*
X17009842Y10598093D01*
X17028422Y10691502D01*
X17009842Y10784911D01*
X16956930Y10864100D01*
X16941703Y10874274D01*
X16915577Y10891731D01*
X16877741Y10917012D01*
X16784332Y10935592D01*
X16690923Y10917012D01*
X16611734Y10864101D01*
X16611733Y10864100D01*
X16568041Y10798708D01*
X16558822Y10784911D01*
X16540242Y10691502D01*
X16419682Y10691502D01*
X16419682Y12483856D01*
X16619931Y12483856D01*
X16619932Y12483847D01*
X16619932Y12194095D01*
X16619932Y12194094D01*
X16619932Y12088910D01*
X16660184Y11991731D01*
X16734561Y11917354D01*
X16831740Y11877102D01*
X17226677Y11877102D01*
X17226685Y11877101D01*
X17231740Y11877101D01*
X17341979Y11877101D01*
X17341987Y11877102D01*
X17736923Y11877102D01*
X17736924Y11877102D01*
X17765429Y11888909D01*
X18919931Y11888909D01*
X18938282Y11844608D01*
X18938282Y11844606D01*
X18938283Y11844606D01*
X18960184Y11791731D01*
X19034561Y11717354D01*
X19034562Y11717354D01*
X19407206Y11344710D01*
X19419932Y11313986D01*
X19419932Y11097604D01*
X19419931Y11097590D01*
X19419931Y10988909D01*
X19440057Y10940323D01*
X19440057Y10940321D01*
X19440058Y10940321D01*
X19460184Y10891731D01*
X19534561Y10817354D01*
X19579580Y10798707D01*
X19631740Y10777101D01*
X19631741Y10777101D01*
X19741979Y10777101D01*
X19741987Y10777102D01*
X20136923Y10777102D01*
X20136924Y10777102D01*
X20234103Y10817354D01*
X20308480Y10891731D01*
X20348732Y10988910D01*
X20348732Y11383846D01*
X20348733Y11383855D01*
X20348733Y11411348D01*
X20349559Y11419779D01*
X20349997Y11421998D01*
X20353912Y11441784D01*
X20349577Y11463459D01*
X20348733Y11471980D01*
X20348733Y11494095D01*
X20340145Y11514825D01*
X20337682Y11522928D01*
X20249576Y11963462D01*
X20248732Y11971983D01*
X20248732Y11994094D01*
X20248731Y11994096D01*
X20245191Y12002643D01*
X20240144Y12014827D01*
X20237684Y12022918D01*
X20233283Y12044926D01*
X20220983Y12063294D01*
X20216943Y12070843D01*
X20208480Y12091273D01*
X20192614Y12107139D01*
X20187236Y12113686D01*
X20181885Y12121676D01*
X20174755Y12132324D01*
X20156356Y12144590D01*
X20149734Y12150019D01*
X20134103Y12165650D01*
X20113372Y12174237D01*
X20105914Y12178218D01*
X20087236Y12190670D01*
X20087233Y12190671D01*
X20065538Y12194964D01*
X20057348Y12197443D01*
X20050453Y12200299D01*
X20036924Y12205902D01*
X20036922Y12205902D01*
X20014492Y12205902D01*
X20006061Y12206728D01*
X19984051Y12211082D01*
X19984048Y12211082D01*
X19962370Y12206746D01*
X19953849Y12205902D01*
X19641987Y12205902D01*
X19641979Y12205903D01*
X19636924Y12205903D01*
X19531740Y12205903D01*
X19526685Y12205903D01*
X19526677Y12205902D01*
X19241987Y12205902D01*
X19241979Y12205903D01*
X19236924Y12205903D01*
X19131740Y12205903D01*
X19083150Y12185776D01*
X19034561Y12165650D01*
X19034559Y12165649D01*
X18960185Y12091275D01*
X18960184Y12091274D01*
X18960184Y12091273D01*
X18940058Y12042684D01*
X18920576Y11995649D01*
X18919931Y11994093D01*
X18919931Y11888909D01*
X17765429Y11888909D01*
X17834103Y11917354D01*
X17908480Y11991731D01*
X17948732Y12088910D01*
X17948732Y12594094D01*
X17929095Y12641502D01*
X18740242Y12641502D01*
X18744097Y12622122D01*
X18744932Y12613645D01*
X18744932Y12593882D01*
X18751337Y12578417D01*
X18752494Y12575624D01*
X18754965Y12567478D01*
X18758822Y12548093D01*
X18758822Y12548092D01*
X18769802Y12531658D01*
X18773815Y12524150D01*
X18781378Y12505895D01*
X18781378Y12505894D01*
X18795350Y12491922D01*
X18800752Y12485339D01*
X18805633Y12478035D01*
X18811733Y12468905D01*
X18828166Y12457925D01*
X18834751Y12452521D01*
X18848723Y12438549D01*
X18866981Y12430986D01*
X18874483Y12426977D01*
X18890923Y12415992D01*
X18910306Y12412137D01*
X18918450Y12409667D01*
X18936712Y12402102D01*
X18956475Y12402102D01*
X18964951Y12401268D01*
X18984332Y12397412D01*
X19003712Y12401268D01*
X19012189Y12402102D01*
X19356475Y12402102D01*
X19364951Y12401268D01*
X19384332Y12397412D01*
X19403712Y12401268D01*
X19412189Y12402102D01*
X19431951Y12402102D01*
X19431952Y12402102D01*
X19450212Y12409666D01*
X19458357Y12412137D01*
X19477741Y12415992D01*
X19494178Y12426976D01*
X19501679Y12430986D01*
X19519941Y12438549D01*
X19533917Y12452527D01*
X19540486Y12457918D01*
X19556930Y12468904D01*
X19567916Y12485348D01*
X19573307Y12491917D01*
X19587285Y12505893D01*
X19594848Y12524155D01*
X19598860Y12531658D01*
X19609842Y12548093D01*
X19613698Y12567478D01*
X19616169Y12575624D01*
X19623732Y12593882D01*
X19623732Y12613645D01*
X19624567Y12622122D01*
X19628422Y12641502D01*
X19628422Y12641503D01*
X19624567Y12660884D01*
X19623732Y12669360D01*
X19623732Y12689122D01*
X19616167Y12707384D01*
X19613697Y12715528D01*
X19609842Y12734911D01*
X19598857Y12751351D01*
X19594848Y12758853D01*
X19587285Y12777111D01*
X19573311Y12791085D01*
X19567909Y12797668D01*
X19562407Y12805902D01*
X19556930Y12814100D01*
X19556929Y12814101D01*
X19554749Y12817364D01*
X19548262Y12849980D01*
X19554749Y12865642D01*
X19556927Y12868903D01*
X19556930Y12868904D01*
X19567915Y12885347D01*
X19573307Y12891917D01*
X19587285Y12905893D01*
X19594848Y12924155D01*
X19598860Y12931658D01*
X19609842Y12948093D01*
X19613698Y12967478D01*
X19616169Y12975624D01*
X19623732Y12993882D01*
X19623732Y13013645D01*
X19624567Y13022122D01*
X19628422Y13041502D01*
X19628422Y13041503D01*
X19624567Y13060884D01*
X19623732Y13069360D01*
X19623732Y13089122D01*
X19616167Y13107384D01*
X19613697Y13115528D01*
X19609842Y13134911D01*
X19598857Y13151351D01*
X19594848Y13158853D01*
X19587285Y13177111D01*
X19573311Y13191085D01*
X19567909Y13197668D01*
X19556929Y13214101D01*
X19540497Y13225080D01*
X19533912Y13230484D01*
X19519940Y13244456D01*
X19501684Y13252019D01*
X19494176Y13256032D01*
X19477742Y13267012D01*
X19458356Y13270869D01*
X19450210Y13273340D01*
X19447417Y13274497D01*
X19431952Y13280902D01*
X19431950Y13280902D01*
X19412189Y13280902D01*
X19403712Y13281737D01*
X19384332Y13285592D01*
X19364952Y13281737D01*
X19356475Y13280902D01*
X19012189Y13280902D01*
X19003712Y13281737D01*
X18984332Y13285592D01*
X18964952Y13281737D01*
X18956475Y13280902D01*
X18936708Y13280902D01*
X18918454Y13273341D01*
X18910308Y13270869D01*
X18890923Y13267012D01*
X18874488Y13256032D01*
X18866982Y13252020D01*
X18848725Y13244457D01*
X18848722Y13244455D01*
X18834749Y13230482D01*
X18828168Y13225082D01*
X18811736Y13214102D01*
X18811732Y13214098D01*
X18800752Y13197666D01*
X18795352Y13191085D01*
X18781379Y13177112D01*
X18781377Y13177109D01*
X18773814Y13158852D01*
X18769802Y13151346D01*
X18758822Y13134911D01*
X18754965Y13115526D01*
X18752493Y13107380D01*
X18744932Y13089126D01*
X18744932Y13069360D01*
X18744097Y13060884D01*
X18740242Y13041503D01*
X18740242Y13041502D01*
X18744097Y13022122D01*
X18744932Y13013645D01*
X18744932Y12993882D01*
X18746514Y12990063D01*
X18752494Y12975624D01*
X18754965Y12967478D01*
X18758822Y12948093D01*
X18758822Y12948092D01*
X18769802Y12931658D01*
X18773815Y12924150D01*
X18781378Y12905895D01*
X18781378Y12905894D01*
X18795350Y12891922D01*
X18800754Y12885337D01*
X18813914Y12865641D01*
X18820401Y12833025D01*
X18813913Y12817362D01*
X18800753Y12797667D01*
X18795352Y12791085D01*
X18781379Y12777112D01*
X18781377Y12777109D01*
X18773814Y12758852D01*
X18769802Y12751346D01*
X18758822Y12734911D01*
X18754965Y12715526D01*
X18752493Y12707380D01*
X18744932Y12689126D01*
X18744932Y12669360D01*
X18744097Y12660884D01*
X18740242Y12641503D01*
X18740242Y12641502D01*
X17929095Y12641502D01*
X17908480Y12691273D01*
X17834103Y12765650D01*
X17736924Y12805902D01*
X17736923Y12805902D01*
X16941987Y12805902D01*
X16941979Y12805903D01*
X16936924Y12805903D01*
X16831740Y12805903D01*
X16797148Y12791574D01*
X16734561Y12765650D01*
X16734559Y12765649D01*
X16660184Y12691274D01*
X16643701Y12651478D01*
X16643700Y12651477D01*
X16619931Y12594096D01*
X16619931Y12483856D01*
X16419682Y12483856D01*
X16419682Y14683856D01*
X16619931Y14683856D01*
X16619932Y14683847D01*
X16619932Y14288910D01*
X16660184Y14191731D01*
X16734561Y14117354D01*
X16831740Y14077102D01*
X16936924Y14077102D01*
X17226677Y14077102D01*
X17226685Y14077101D01*
X17231740Y14077101D01*
X17341979Y14077101D01*
X17341987Y14077102D01*
X17736923Y14077102D01*
X17736924Y14077102D01*
X17834103Y14117354D01*
X17908480Y14191731D01*
X17948732Y14288910D01*
X17948732Y14794094D01*
X17908480Y14891273D01*
X17834103Y14965650D01*
X17736924Y15005902D01*
X17736923Y15005902D01*
X16941987Y15005902D01*
X16941979Y15005903D01*
X16936924Y15005903D01*
X16831740Y15005903D01*
X16783150Y14985776D01*
X16768853Y14979854D01*
X16734559Y14965649D01*
X16660184Y14891274D01*
X16642299Y14848093D01*
X16642298Y14848092D01*
X16619931Y14794096D01*
X16619931Y14683856D01*
X16419682Y14683856D01*
X16419682Y15748819D01*
X16432408Y15779543D01*
X16438876Y15784851D01*
X16438926Y15784902D01*
X16438930Y15784904D01*
X16491842Y15864093D01*
X16510422Y15957502D01*
X16491842Y16050911D01*
X16438930Y16130100D01*
X16359741Y16183012D01*
X16266332Y16201592D01*
X16172923Y16183012D01*
X16093734Y16130101D01*
X16093733Y16130100D01*
X16040822Y16050911D01*
X16027860Y15985746D01*
X16009385Y15958096D01*
X15976768Y15951608D01*
X15954521Y15963499D01*
X15780959Y16137060D01*
X15780958Y16137061D01*
X15731762Y16157439D01*
X15731760Y16157439D01*
X13525685Y16157439D01*
X13494961Y16170165D01*
X13085752Y16579374D01*
X13073026Y16610098D01*
X13073861Y16618576D01*
X13074352Y16621044D01*
X13078422Y16641502D01*
X13059842Y16734911D01*
X13006930Y16814100D01*
X13006927Y16814102D01*
X12965155Y16842013D01*
X12927741Y16867012D01*
X12834332Y16885592D01*
X12740923Y16867012D01*
X12661734Y16814101D01*
X12661733Y16814100D01*
X12608822Y16734911D01*
X12590242Y16641502D01*
X12608822Y16548093D01*
X12661734Y16468904D01*
X12740923Y16415992D01*
X12834332Y16397412D01*
X12857259Y16401973D01*
X12889875Y16395486D01*
X12896460Y16390082D01*
X13237016Y16049526D01*
X13249742Y16018802D01*
X13237016Y15988078D01*
X13206292Y15975352D01*
X8241025Y15975352D01*
X8210301Y15988078D01*
X8197575Y16018802D01*
X8204897Y16042941D01*
X8205848Y16044366D01*
X8221348Y16067562D01*
X8239928Y16160971D01*
X8221348Y16254380D01*
X8168436Y16333569D01*
X8168434Y16333571D01*
X8148998Y16346558D01*
X8130523Y16374209D01*
X8129688Y16382685D01*
X8129688Y16715619D01*
X8121697Y16734911D01*
X8109310Y16764816D01*
X8102846Y16771280D01*
X8098271Y16776856D01*
X7730908Y17144219D01*
X7718182Y17174943D01*
X7718182Y17419789D01*
X7730908Y17450513D01*
X7737493Y17455917D01*
X7756930Y17468904D01*
X7809842Y17548093D01*
X7828422Y17641502D01*
X7809842Y17734911D01*
X7756930Y17814100D01*
X7677741Y17867012D01*
X7584332Y17885592D01*
X7490923Y17867012D01*
X7411734Y17814101D01*
X7411733Y17814100D01*
X7379670Y17766113D01*
X7358822Y17734911D01*
X7340242Y17641502D01*
X7358822Y17548093D01*
X7391766Y17498788D01*
X7411733Y17468905D01*
X7431171Y17455917D01*
X7449647Y17428266D01*
X7450482Y17419789D01*
X7450482Y17128126D01*
X7450482Y17074878D01*
X7470860Y17025682D01*
X7549053Y16947489D01*
X7561779Y16916765D01*
X7549053Y16886041D01*
X7526806Y16874150D01*
X7490923Y16867013D01*
X7490923Y16867012D01*
X7411734Y16814101D01*
X7411733Y16814100D01*
X7358822Y16734911D01*
X7340242Y16641502D01*
X7358822Y16548093D01*
X7386253Y16507039D01*
X7411733Y16468905D01*
X7431171Y16455917D01*
X7449647Y16428266D01*
X7450482Y16419789D01*
X7450482Y16075126D01*
X7450482Y16021878D01*
X7470860Y15972682D01*
X7470861Y15972681D01*
X7572538Y15871004D01*
X7585264Y15840280D01*
X7572538Y15809556D01*
X7541814Y15796830D01*
X-69050Y15796830D01*
X-118246Y15776452D01*
X-118248Y15776451D01*
X-351152Y15543547D01*
X-351153Y15543546D01*
X-351153Y15543545D01*
X-370024Y15497985D01*
X-371531Y15494348D01*
X-371531Y13615196D01*
X-384257Y13584472D01*
X-630651Y13338078D01*
X-661375Y13325352D01*
X-988555Y13325352D01*
X-1041803Y13325352D01*
X-1090999Y13304974D01*
X-1091001Y13304973D01*
X-1379139Y13016835D01*
X-1379140Y13016834D01*
X-1379140Y13016833D01*
X-1397846Y12971672D01*
X-1399518Y12967636D01*
X-1399518Y12443468D01*
X-1412244Y12412744D01*
X-1791089Y12033900D01*
X-1791090Y12033899D01*
X-1791090Y12033898D01*
X-1809953Y11988358D01*
X-1811468Y11984701D01*
X-1811468Y10014868D01*
X-1824194Y9984144D01*
X-2258310Y9550028D01*
X-2289034Y9537302D01*
X-3349038Y9537302D01*
X-3379762Y9550028D01*
X-3392488Y9580752D01*
X-3389181Y9597378D01*
X-3388659Y9598639D01*
X-3374444Y9632960D01*
X-3373555Y9634957D01*
X-3354356Y9675245D01*
X-3353763Y9677585D01*
X-3351748Y9686496D01*
X-3351268Y9688908D01*
X-3351268Y9733488D01*
X-3351209Y9735746D01*
X-3348892Y9780287D01*
X-3349231Y9782616D01*
X-3351268Y9794464D01*
X-3351268Y10095466D01*
X-3349367Y10108178D01*
X-3347449Y10114446D01*
X-3351069Y10152113D01*
X-3351268Y10156269D01*
X-3351268Y10484672D01*
X-3351159Y10485798D01*
X-3351167Y10489428D01*
X-3351165Y10489430D01*
X-3351183Y10498207D01*
X-3349481Y10510332D01*
X-3347008Y10518904D01*
X-3168939Y11136277D01*
X-3162985Y11148865D01*
X-3161491Y11151036D01*
X-3152812Y11191796D01*
X-3152065Y11194776D01*
X-3140518Y11234807D01*
X-3140813Y11237430D01*
X-3140132Y11251337D01*
X-3139582Y11253914D01*
X-3147162Y11294893D01*
X-3147607Y11297886D01*
X-3152262Y11339334D01*
X-3153542Y11341651D01*
X-3158230Y11354751D01*
X-3163612Y11383855D01*
X-3230260Y11744241D01*
X-3230675Y11757299D01*
X-3229989Y11763035D01*
X-3229989Y11763036D01*
X-3231381Y11767991D01*
X-3232978Y11781131D01*
X-3232812Y11786280D01*
X-3241693Y11809826D01*
X-3243759Y11817242D01*
X-3248334Y11841983D01*
X-3251484Y11846838D01*
X-3256865Y11858741D01*
X-3258427Y11864303D01*
X-3258428Y11864305D01*
X-3261610Y11868350D01*
X-3268116Y11879886D01*
X-3269930Y11884698D01*
X-3287139Y11903047D01*
X-3291891Y11909113D01*
X-3305587Y11930222D01*
X-3308766Y11932409D01*
X-3310353Y11933501D01*
X-3319879Y11942437D01*
X-3323454Y11946982D01*
X-3327949Y11949506D01*
X-3338366Y11957667D01*
X-3341887Y11961421D01*
X-3364804Y11971786D01*
X-3371522Y11975576D01*
X-3377942Y11979992D01*
X-3392249Y11989833D01*
X-3392251Y11989834D01*
X-3392254Y11989835D01*
X-3397905Y11991038D01*
X-3410129Y11995649D01*
X-3415171Y11998480D01*
X-3420288Y11999092D01*
X-3433029Y12002643D01*
X-3437723Y12004766D01*
X-3462875Y12005573D01*
X-3470529Y12006504D01*
X-3495128Y12011742D01*
X-3495131Y12011743D01*
X-3500816Y12010691D01*
X-3513869Y12010274D01*
X-3940799Y12061290D01*
X-3949231Y12063853D01*
X-3949310Y12063569D01*
X-3953425Y12064729D01*
X-3975685Y12066477D01*
X-3984054Y12067969D01*
X-4005539Y12074016D01*
X-4005540Y12074016D01*
X-4012747Y12073160D01*
X-4021335Y12072139D01*
X-4031615Y12072143D01*
X-4047400Y12074029D01*
X-4051664Y12073698D01*
X-4051687Y12073987D01*
X-4054080Y12073753D01*
X-4054045Y12073464D01*
X-4058292Y12072961D01*
X-4079517Y12066060D01*
X-4087822Y12064235D01*
X-4503013Y12014877D01*
X-4511337Y12014691D01*
X-4534234Y12016380D01*
X-4534444Y12016353D01*
X-4534582Y12016336D01*
X-4538189Y12015895D01*
X-4538312Y12015868D01*
X-4538902Y12015793D01*
X-4538961Y12016258D01*
X-4539937Y12016118D01*
X-4539863Y12015659D01*
X-4544088Y12014979D01*
X-4558937Y12009458D01*
X-4568946Y12007039D01*
X-4584666Y12005170D01*
X-4584668Y12005169D01*
X-4604689Y11993944D01*
X-4612307Y11990587D01*
X-4634118Y11983382D01*
X-4634153Y11983361D01*
X-4634325Y11983263D01*
X-4637479Y11981483D01*
X-4637644Y11981367D01*
X-4638182Y11981059D01*
X-4638415Y11981465D01*
X-4639280Y11980952D01*
X-4639038Y11980561D01*
X-4642683Y11978315D01*
X-4654287Y11967534D01*
X-4662604Y11961472D01*
X-4667113Y11958943D01*
X-4700135Y11955013D01*
X-4726264Y11975584D01*
X-4731818Y11996839D01*
X-4731818Y13818126D01*
X-4738627Y13834564D01*
X-4752195Y13867322D01*
X-9753324Y18868451D01*
X-9766050Y18899175D01*
X-9753324Y18929899D01*
X-9722600Y18942625D01*
X10164323Y18942625D01*
X10195047Y18929899D01*
G37*
%TD.AperFunction*%
%TA.AperFunction,Conductor*%
G36*
X-113226Y13415471D02*
G01*
X-100500Y13384747D01*
X-100500Y8637268D01*
X-113226Y8606544D01*
X-143950Y8593818D01*
X-174674Y8606544D01*
X-732213Y9164082D01*
X-732213Y9164083D01*
X-793087Y9224957D01*
X-872623Y9257902D01*
X-872625Y9257902D01*
X-1395445Y9257902D01*
X-1419585Y9265225D01*
X-1422259Y9267012D01*
X-1515668Y9285592D01*
X-1518407Y9285592D01*
X-1549131Y9298318D01*
X-1561857Y9329042D01*
X-1549131Y9359766D01*
X-1391515Y9517382D01*
X-1196812Y9712085D01*
X-1175468Y9763614D01*
X-1175468Y9819389D01*
X-1175468Y11732082D01*
X-1162743Y11762805D01*
X-636956Y12288593D01*
X-606233Y12301318D01*
X-597756Y12300483D01*
X-582319Y12297412D01*
X-582319Y12297413D01*
X-582318Y12297412D01*
X-488909Y12315992D01*
X-409720Y12368904D01*
X-356808Y12448093D01*
X-338228Y12541502D01*
X-356808Y12634911D01*
X-409720Y12714100D01*
X-411865Y12715533D01*
X-440866Y12734911D01*
X-488909Y12767012D01*
X-582318Y12785592D01*
X-582319Y12785592D01*
X-605080Y12781065D01*
X-637696Y12787553D01*
X-656171Y12815204D01*
X-656171Y12832153D01*
X-653351Y12846329D01*
X-671931Y12939738D01*
X-705558Y12990064D01*
X-712044Y13022679D01*
X-693568Y13050330D01*
X-669429Y13057652D01*
X-561313Y13057652D01*
X-561311Y13057652D01*
X-512115Y13078030D01*
X-174674Y13415471D01*
X-143950Y13428197D01*
X-113226Y13415471D01*
G37*
%TD.AperFunction*%
%TD*%
M02*
