%TF.GenerationSoftware,KiCad,Pcbnew,8.99.0-2194-gb3b7cbcab2*%
%TF.CreationDate,2024-09-04T20:38:51-04:00*%
%TF.ProjectId,thundervolt_hw1,7468756e-6465-4727-966f-6c745f687731,rev?*%
%TF.SameCoordinates,PX85b368ePY7384544*%
%TF.FileFunction,Copper,L4,Bot*%
%TF.FilePolarity,Positive*%
%FSLAX46Y46*%
G04 Gerber Fmt 4.6, Leading zero omitted, Abs format (unit mm)*
G04 Created by KiCad (PCBNEW 8.99.0-2194-gb3b7cbcab2) date 2024-09-04 20:38:51*
%MOMM*%
%LPD*%
G01*
G04 APERTURE LIST*
%ADD10C,0.100000*%
%TA.AperFunction,NonConductor*%
%ADD11C,0.100000*%
%TD*%
%TA.AperFunction,ViaPad*%
%ADD12C,0.250000*%
%TD*%
%TA.AperFunction,ViaPad*%
%ADD13C,0.300000*%
%TD*%
%TA.AperFunction,Conductor*%
%ADD14C,0.152400*%
%TD*%
%TA.AperFunction,Conductor*%
%ADD15C,0.350000*%
%TD*%
%TA.AperFunction,Conductor*%
%ADD16C,0.300000*%
%TD*%
%TA.AperFunction,Conductor*%
%ADD17C,0.254000*%
%TD*%
%TA.AperFunction,Conductor*%
%ADD18C,0.088900*%
%TD*%
%TA.AperFunction,Conductor*%
%ADD19C,0.101600*%
%TD*%
%TA.AperFunction,Conductor*%
%ADD20C,0.127000*%
%TD*%
G04 APERTURE END LIST*
D10*
D11*
G36*
X-4594355Y3215143D02*
G01*
X-4591332Y3229996D01*
X-4594355Y3244848D01*
X-4603249Y3257715D01*
X-4640812Y3291306D01*
X-4655708Y3294285D01*
X-4670561Y3291263D01*
X-4684421Y3283362D01*
X-4913644Y3054138D01*
X-5164931Y3305425D01*
X-4936442Y3533915D01*
X-4928540Y3547774D01*
X-4925518Y3562627D01*
X-4928497Y3577436D01*
X-4935664Y3590130D01*
X-4961354Y3615820D01*
X-4974221Y3624715D01*
X-4989074Y3627737D01*
X-5003926Y3624715D01*
X-5016793Y3615820D01*
X-5555462Y3077151D01*
X-5564357Y3064284D01*
X-5567379Y3049432D01*
X-5564357Y3034579D01*
X-5555462Y3021712D01*
X-5529772Y2996022D01*
X-5517121Y2988898D01*
X-5502269Y2985876D01*
X-5487416Y2988898D01*
X-5473556Y2996800D01*
X-5245067Y3225289D01*
X-4993780Y2974003D01*
X-5222270Y2745513D01*
X-5230171Y2731653D01*
X-5233193Y2716800D01*
X-5230214Y2701991D01*
X-5223047Y2689297D01*
X-5197357Y2663607D01*
X-5184490Y2654713D01*
X-5169637Y2651690D01*
X-5154785Y2654713D01*
X-5141918Y2663607D01*
X-4603249Y3202276D01*
X-4594355Y3215143D01*
G37*
G36*
X-5103966Y3742543D02*
G01*
X-5106902Y3757396D01*
X-5115796Y3770262D01*
X-5156382Y3804890D01*
X-5172185Y3806876D01*
X-5189067Y3801911D01*
X-5655329Y3537455D01*
X-5393551Y4003027D01*
X-5388585Y4017836D01*
X-5393594Y4042533D01*
X-5402488Y4053414D01*
X-5420104Y4063517D01*
X-5444844Y4058552D01*
X-5912531Y3794657D01*
X-5647860Y4261135D01*
X-5642894Y4277931D01*
X-5644881Y4293820D01*
X-5655761Y4306687D01*
X-5690389Y4339328D01*
X-5709170Y4344293D01*
X-5723980Y4341314D01*
X-5743755Y4323525D01*
X-6126859Y3631796D01*
X-6131479Y3609301D01*
X-6123448Y3589699D01*
X-6111661Y3579725D01*
X-6097111Y3574414D01*
X-6071637Y3582100D01*
X-5605676Y3844267D01*
X-5867844Y3378307D01*
X-5874968Y3363325D01*
X-5871168Y3337419D01*
X-5856316Y3322566D01*
X-5832310Y3318939D01*
X-5818191Y3323127D01*
X-5113897Y3716810D01*
X-5103966Y3742543D01*
G37*
G36*
X-5981830Y4392694D02*
G01*
X-5977814Y4410526D01*
X-6003504Y4493641D01*
X-6005447Y4655941D01*
X-6014341Y4668807D01*
X-6027208Y4677702D01*
X-6042018Y4680681D01*
X-6056870Y4677659D01*
X-6069737Y4668764D01*
X-6608406Y4130095D01*
X-6617300Y4117228D01*
X-6620323Y4102376D01*
X-6617344Y4087566D01*
X-6582716Y4048966D01*
X-6569850Y4040072D01*
X-6555040Y4037093D01*
X-6540187Y4040115D01*
X-6527321Y4049010D01*
X-6106480Y4469850D01*
X-6105487Y4449083D01*
X-6070859Y4359016D01*
X-6058986Y4349129D01*
X-6043140Y4345200D01*
X-6028331Y4348179D01*
X-6014471Y4356080D01*
X-5981830Y4392694D01*
G37*
D12*
%TO.N,Net-(D1-A)*%
X16484332Y5161502D03*
D13*
%TO.N,GND*%
X-9687095Y9784750D03*
X-13415668Y42541502D03*
X-17515668Y47741502D03*
X20984332Y13841502D03*
X23384332Y28341502D03*
X-665668Y1641502D03*
X-13315668Y11041502D03*
X-17115668Y43441502D03*
X-13015668Y26441502D03*
X-1015668Y1641502D03*
X13934332Y17291502D03*
X18484332Y17841502D03*
X22244824Y10373253D03*
X22134332Y27741502D03*
X18084332Y17841502D03*
X-2615668Y11041502D03*
X-11115697Y9819638D03*
X-13915668Y26441502D03*
X21185067Y43778918D03*
X-13015668Y13141502D03*
X6234332Y16716039D03*
X18084332Y16741502D03*
X-13015668Y43441502D03*
X-13015668Y42141502D03*
X-10890985Y12348309D03*
X16216344Y7216418D03*
X-3515668Y17841502D03*
X18084332Y16341502D03*
X-13915668Y12241502D03*
X5184332Y-358498D03*
X-2815668Y10544371D03*
X-13615668Y11341502D03*
X-19015668Y43541502D03*
X-15311552Y26348714D03*
X24184332Y26241502D03*
X-12715668Y11041502D03*
X-13649019Y40162552D03*
X-15160825Y13795414D03*
X-14715668Y14241502D03*
X-18615668Y42741502D03*
X18484332Y16341502D03*
X-18615668Y43141502D03*
X11084332Y-1858498D03*
X4784332Y17941502D03*
X17842378Y2797052D03*
X-1315668Y13941502D03*
X-16415668Y47741502D03*
X22584332Y28741502D03*
X-12368504Y27728276D03*
X-19415668Y43541502D03*
X18484332Y16741502D03*
X-14904824Y27578745D03*
X-815668Y10551502D03*
X-8090668Y10741502D03*
X18084332Y11041502D03*
X18484332Y17441502D03*
X23384332Y26641502D03*
X23784332Y28341502D03*
X-11515668Y13241502D03*
X20184332Y13041502D03*
X21218682Y44121790D03*
X-9988477Y9514546D03*
X-19015668Y43141502D03*
X-20615668Y43541502D03*
X-17115668Y47341502D03*
X21184332Y43441502D03*
X-16015668Y43041502D03*
X-16015668Y47741502D03*
X-14515668Y11641502D03*
X24184332Y28341502D03*
X19784332Y13041502D03*
X17824332Y4771502D03*
X-14315668Y26841502D03*
X-14857846Y44486707D03*
X-13615668Y10741502D03*
X5184332Y-958498D03*
X-19815668Y43141502D03*
X-13658727Y36803503D03*
X24184332Y28741502D03*
X-13790668Y43541502D03*
X3684332Y-658498D03*
X-7915668Y9341502D03*
X1858303Y16196228D03*
X-13415668Y42141502D03*
X15384332Y-1558498D03*
X18384332Y14741502D03*
X584332Y17241502D03*
X17584332Y10741502D03*
X-13015668Y10741502D03*
X-17515668Y43041502D03*
X-2215668Y11041502D03*
X11584332Y-458498D03*
X-16415668Y47341502D03*
X22984332Y26241502D03*
X-13615668Y12541502D03*
X-13915668Y13841502D03*
X-11604726Y10512945D03*
X19384332Y13441502D03*
X-14915668Y43441502D03*
X11534332Y16641502D03*
X-17115668Y47741502D03*
X24184332Y27041502D03*
X-11784158Y13552781D03*
X18484332Y10441502D03*
X20984332Y13041502D03*
X-13515668Y14241502D03*
X18984332Y13441502D03*
X4584332Y-958498D03*
X21064332Y8481502D03*
X-20215668Y43541502D03*
X22584332Y26641502D03*
X-12615668Y26841502D03*
X-14215668Y11941502D03*
X-2815668Y10141502D03*
X17984332Y10441502D03*
X23384332Y26241502D03*
X-2615668Y11441502D03*
X-19415668Y43141502D03*
X-14315668Y26441502D03*
X23784332Y26241502D03*
X-13315668Y12241502D03*
X-12372316Y14004243D03*
X-11623297Y12270974D03*
X23784332Y26641502D03*
X9284332Y-458498D03*
X23484332Y6941502D03*
X-11796211Y12997633D03*
X-2215668Y11441502D03*
X15834332Y7941502D03*
X10534332Y16391502D03*
X-13015668Y11941502D03*
X-13649019Y33735700D03*
X-13015668Y43841502D03*
X-13615668Y11941502D03*
X-13474993Y43120430D03*
X-2315668Y10441502D03*
X13784332Y-458498D03*
X-14515668Y12241502D03*
X16384332Y841502D03*
X-7315668Y10267261D03*
X19428562Y2102219D03*
X20184332Y13441502D03*
X-2040668Y10041502D03*
X-13653006Y31521619D03*
X21984332Y28741502D03*
X-13515668Y13841502D03*
X-13404897Y43619069D03*
X-2460454Y9972493D03*
X-13015668Y26841502D03*
X-20215668Y42741502D03*
X-13915668Y26841502D03*
X-14315668Y13841502D03*
X-2815668Y9741502D03*
X19784332Y13441502D03*
X23384332Y27691502D03*
X23384332Y27041502D03*
X24184332Y26641502D03*
X-7915668Y9741502D03*
X19063599Y4207773D03*
X-18615668Y43541502D03*
X-7845159Y10360397D03*
X-19415668Y42741502D03*
X23784332Y28741502D03*
X-13115668Y14241502D03*
X-12615668Y26441502D03*
X3984332Y-358498D03*
X22984332Y28741502D03*
X-10762853Y10333428D03*
X15954374Y6120177D03*
X-13015668Y11341502D03*
X16394161Y9245210D03*
X16904332Y15615502D03*
X22984332Y26641502D03*
X-13015668Y42541502D03*
X-15147572Y14153247D03*
X-9931319Y10054955D03*
X4584332Y-358498D03*
X-19815668Y43541502D03*
X21185067Y43096537D03*
X-13315668Y10441502D03*
X-20615668Y43141502D03*
X-17115668Y43041502D03*
X16609332Y11766502D03*
X-1055973Y1242401D03*
X22634332Y45591502D03*
X17484332Y11241502D03*
X-665668Y2141502D03*
X22405303Y6635950D03*
X7484332Y-1858498D03*
X-12415668Y11341502D03*
X22584332Y28341502D03*
X-17515668Y47341502D03*
X-7691976Y10811606D03*
X-20615668Y42741502D03*
X20234332Y6091502D03*
X-16015668Y43441502D03*
X-7315668Y10641502D03*
X16894332Y17721502D03*
X4284332Y-658498D03*
X-11097126Y11268155D03*
X-13115668Y13841502D03*
X18084332Y17441502D03*
X17919359Y9294359D03*
X-13915668Y11641502D03*
X-11530443Y8402072D03*
X23784332Y27041502D03*
X18584332Y15441502D03*
X-12347555Y9225374D03*
X-16015668Y47341502D03*
X21548107Y44743665D03*
X-12071836Y13291040D03*
X-7315668Y11041502D03*
X24034332Y27691502D03*
X18484332Y11041502D03*
X24584332Y27791502D03*
X-10222308Y9779554D03*
X18434332Y6791502D03*
X-12409458Y12592867D03*
X-17515668Y43441502D03*
X-3615668Y14641502D03*
X-20215668Y43141502D03*
X5484332Y-658498D03*
X-13315668Y11641502D03*
X23384332Y28741502D03*
X-14715668Y13841502D03*
X3984332Y-958498D03*
X22984332Y27041502D03*
X21332972Y44451215D03*
X3199200Y17300060D03*
X-19015668Y42741502D03*
X22144824Y13273253D03*
X-16415668Y43041502D03*
X20205970Y9056432D03*
X-14280748Y28670626D03*
X18084332Y11441502D03*
X-13915668Y14241502D03*
X-665668Y1241502D03*
X-13008888Y42979798D03*
X18584332Y13441502D03*
X6284332Y-658498D03*
X-12715668Y11641502D03*
X5884332Y-358498D03*
X20584332Y13441502D03*
X22984332Y28341502D03*
X20584332Y13841502D03*
X-14215668Y12541502D03*
X13143435Y18008229D03*
X10684332Y17291502D03*
X-665668Y841502D03*
X18484332Y11441502D03*
X-3015668Y12641502D03*
X-7515668Y9741502D03*
X-13915668Y12841502D03*
X20584332Y13041502D03*
X-19815668Y42741502D03*
X24584332Y28341502D03*
X-7515668Y9341502D03*
X4884332Y-658498D03*
X21984332Y28241502D03*
X22584332Y27041502D03*
X-8915668Y10241502D03*
X-16415668Y43441502D03*
X20853125Y12386758D03*
X14184332Y16541502D03*
X22584332Y26241502D03*
X22734332Y27691502D03*
X5884332Y-958498D03*
X-13915668Y11041502D03*
X18184332Y13441502D03*
X-1115668Y841502D03*
X3384332Y-358498D03*
X20984332Y13441502D03*
X-10125668Y11241502D03*
X-14815668Y11941502D03*
X-10484292Y9021096D03*
X-14315668Y14241502D03*
X-14215668Y11341502D03*
%TO.N,+3V3*%
X20084332Y16341502D03*
X23955502Y46379002D03*
X18984332Y14241502D03*
X23384332Y23541502D03*
X24234332Y45691502D03*
X23784332Y23941502D03*
X22984332Y23541502D03*
X24184332Y23941502D03*
X20084332Y17441502D03*
X23784332Y23541502D03*
X19684332Y17841502D03*
X19484332Y14841502D03*
X24584332Y47141502D03*
X23184332Y46591502D03*
X20084332Y15741502D03*
X19684332Y16741502D03*
X19084332Y14841502D03*
X19684332Y17441502D03*
X23384332Y23941502D03*
X24184332Y23541502D03*
X23586974Y46755603D03*
X23384332Y23141502D03*
X22984332Y23141502D03*
X23784332Y47141502D03*
X24584332Y47541502D03*
X19884332Y14941502D03*
X20084332Y16741502D03*
X22584332Y23141502D03*
X24350023Y46697893D03*
X24184332Y47541502D03*
X20084332Y17841502D03*
X23934332Y45291502D03*
X22584332Y23541502D03*
X22984332Y23941502D03*
X24184332Y47141502D03*
X24184332Y23141502D03*
X23784332Y23141502D03*
X24584332Y47941502D03*
X22584332Y23941502D03*
X20084332Y15341502D03*
X19684332Y16341502D03*
X23701256Y45721429D03*
X23434332Y46141502D03*
X24334332Y46141502D03*
X19384332Y14241502D03*
X19584332Y15441502D03*
%TO.N,+1V8*%
X-15115668Y47841502D03*
X15084332Y17651502D03*
X-13790658Y44543362D03*
X-19897251Y47459919D03*
%TO.N,+1V0*%
X-14341747Y23541502D03*
X-8665668Y11741502D03*
%TO.N,+1V15*%
X6784332Y-4473101D03*
X-1515668Y9041502D03*
%TO.N,SDA*%
X-897441Y12846329D03*
X-10915668Y44041502D03*
X20884332Y14436143D03*
X-5215668Y11241502D03*
X-4915668Y9541502D03*
X19784332Y14241502D03*
X20484332Y41941502D03*
X15084332Y17041502D03*
X18934332Y5691502D03*
%TO.N,SCL*%
X18814332Y18466502D03*
X-10915668Y44541502D03*
X20484332Y40041502D03*
X-582318Y12541502D03*
X19384332Y5691502D03*
X7995838Y16160971D03*
X7584332Y17641502D03*
X-5415668Y11741502D03*
X-4915668Y9041502D03*
X16084332Y17041502D03*
X20037332Y18969502D03*
X19784332Y13841502D03*
%TO.N,EN*%
X19410383Y8129344D03*
X-10515668Y43541502D03*
X-5015668Y10398014D03*
%TO.N,VBAT*%
X-7615668Y5941502D03*
X19584332Y11941502D03*
X-6109635Y8996864D03*
X-6515668Y10241502D03*
X-3615668Y10541502D03*
X-11415668Y42541502D03*
X-8515668Y5641502D03*
X-3815668Y11441502D03*
X-5915668Y9341502D03*
X-7315668Y5041502D03*
X-6041307Y10239779D03*
X19684332Y11041502D03*
X20084332Y11041502D03*
X-7615668Y4741502D03*
X-12215668Y43041502D03*
X20084332Y11441502D03*
X-8215668Y7141502D03*
X-6315668Y9341502D03*
X-8515668Y6841502D03*
X-4521148Y10746356D03*
X-12215668Y43841502D03*
X-3615668Y9741502D03*
X-3615668Y10141502D03*
X-8215668Y5341502D03*
X-8855138Y8968317D03*
X-8215668Y6541502D03*
X-6515668Y10641502D03*
X-7915668Y6241502D03*
X19684332Y11441502D03*
X-7915668Y6841502D03*
X-6653004Y9042416D03*
X-11815668Y42541502D03*
X-11815668Y42141502D03*
X-12329478Y42615810D03*
X19184332Y11941502D03*
X-6315668Y9741502D03*
X-8815668Y6541502D03*
X-8815668Y5941502D03*
X-9115668Y6241502D03*
X-4501231Y11748826D03*
X-7015668Y5341502D03*
X-12215668Y43441502D03*
X-8215668Y5941502D03*
X-8633297Y8714784D03*
X-4215668Y11441502D03*
X-7315668Y5641502D03*
X-6715668Y5641502D03*
X19384332Y12641502D03*
X-11748792Y43044551D03*
X-6695302Y9540233D03*
X-4026552Y11805256D03*
X16784332Y10691502D03*
X-11260245Y42981737D03*
X-4215668Y11041502D03*
X-5637848Y9029401D03*
X-8515668Y6241502D03*
X-7915668Y5641502D03*
X-3409137Y11257549D03*
X-3498762Y11742187D03*
X-7915668Y5041502D03*
X-3815668Y11041502D03*
X-7015668Y5941502D03*
X-4099579Y10540551D03*
X-8931198Y8429560D03*
X-7615668Y5341502D03*
X-4538774Y11239878D03*
X-12282593Y42202373D03*
X-9165716Y8695769D03*
X19984332Y11941502D03*
X-5915668Y9741502D03*
X-6515668Y11041502D03*
X18984332Y12641502D03*
X-7315668Y6241502D03*
X-7615668Y6541502D03*
X-11415668Y42141502D03*
%TO.N,Net-(U4-LX2)*%
X17684332Y14341502D03*
X17284332Y14341502D03*
X18984332Y13841502D03*
X17284332Y14741502D03*
X16884332Y14741502D03*
X16884332Y14341502D03*
X19384332Y13841502D03*
X17684332Y14741502D03*
%TO.N,Net-(U4-LX1)*%
X17684332Y12141502D03*
X17684332Y12541502D03*
X17284332Y12541502D03*
X16884332Y12541502D03*
X16884332Y12141502D03*
X17284332Y12141502D03*
X18984332Y13041502D03*
X19384332Y13041502D03*
%TO.N,Net-(D1-A)*%
X19834332Y5691502D03*
%TO.N,Net-(U3-VSET)*%
X-13815668Y44041502D03*
X-14915668Y42441502D03*
%TO.N,+1V8_ALW*%
X17095648Y9089286D03*
X9834332Y16641502D03*
X17459012Y7936601D03*
X19591352Y8685420D03*
%TO.N,ALERT*%
X7584332Y16641502D03*
X16998332Y7891502D03*
%TO.N,SAFEMODE*%
X18184059Y8274697D03*
X12484332Y16141502D03*
%TD*%
D14*
%TO.N,Net-(D1-A)*%
X19834332Y5633124D02*
X19834332Y5691502D01*
X18325476Y5162646D02*
X19363854Y5162646D01*
X19363854Y5162646D02*
X19834332Y5633124D01*
X16484332Y5161502D02*
X18324332Y5161502D01*
X18324332Y5161502D02*
X18325476Y5162646D01*
D15*
%TO.N,+3V3*%
X24184332Y47541502D02*
X23784332Y47141502D01*
D16*
X20084332Y15741502D02*
X19484332Y14841502D01*
D15*
X24184332Y23141502D02*
X22584332Y23141502D01*
D16*
X19484332Y14841502D02*
X19884332Y14941502D01*
D15*
X23586974Y46755603D02*
X23701256Y45721429D01*
X22984332Y23941502D02*
X23384332Y23141502D01*
D16*
X19684332Y16741502D02*
X20084332Y16741502D01*
D15*
X24350023Y46697893D02*
X24584332Y47141502D01*
D16*
X19484332Y14841502D02*
X19584332Y15441502D01*
X19884332Y14941502D02*
X20084332Y15341502D01*
D15*
X23384332Y23941502D02*
X23784332Y23141502D01*
X23784332Y47141502D02*
X23955502Y46379002D01*
D16*
X19084332Y14841502D02*
X19484332Y14841502D01*
X18984332Y14241502D02*
X19384332Y14241502D01*
D15*
X23384332Y23941502D02*
X23384332Y23141502D01*
D16*
X19684332Y17441502D02*
X20084332Y17441502D01*
X20084332Y17841502D02*
X20084332Y17441502D01*
X20084332Y16741502D02*
X20084332Y16341502D01*
D15*
X23184332Y46591502D02*
X23934332Y45291502D01*
X23784332Y23941502D02*
X24184332Y23141502D01*
X24184332Y47541502D02*
X24350023Y46697893D01*
D16*
X19684332Y16741502D02*
X19684332Y16341502D01*
D15*
X22584332Y23941502D02*
X22984332Y23141502D01*
D16*
X19684332Y17841502D02*
X20084332Y17441502D01*
X19684332Y16741502D02*
X20084332Y16341502D01*
D15*
X22584332Y23941502D02*
X22584332Y23141502D01*
X24584332Y47941502D02*
X24584332Y47141502D01*
X23955502Y46379002D02*
X23701256Y45721429D01*
X24334332Y46141502D02*
X24350023Y46697893D01*
X24184332Y23941502D02*
X24184332Y23141502D01*
X22984332Y23941502D02*
X22984332Y23141502D01*
X24184332Y47541502D02*
X23934332Y45291502D01*
D16*
X20084332Y15741502D02*
X20084332Y15341502D01*
X20084332Y15741502D02*
X19584332Y15441502D01*
D15*
X22584332Y23941502D02*
X24184332Y23941502D01*
X24334332Y46141502D02*
X24234332Y45691502D01*
D16*
X19684332Y16341502D02*
X20084332Y16341502D01*
D15*
X23784332Y23941502D02*
X23784332Y23141502D01*
X24584332Y47941502D02*
X24184332Y47541502D01*
X23784332Y47141502D02*
X23184332Y46591502D01*
X23586974Y46755603D02*
X23434332Y46141502D01*
D16*
X19684332Y17841502D02*
X19684332Y17441502D01*
D15*
X24584332Y47541502D02*
X24184332Y47141502D01*
D16*
X19584332Y15441502D02*
X19884332Y14941502D01*
X19584332Y15441502D02*
X19084332Y14841502D01*
D15*
X23586974Y46755603D02*
X23955502Y46379002D01*
X23934332Y45291502D02*
X24234332Y45691502D01*
D16*
X20084332Y17841502D02*
X19684332Y17841502D01*
D17*
%TO.N,+1V8*%
X-19897251Y47459919D02*
X-18616334Y46179002D01*
X-18616334Y46179002D02*
X-15426298Y46179002D01*
X-15426298Y46179002D02*
X-13790658Y44543362D01*
%TO.N,+1V0*%
X-14341747Y23541502D02*
X-11815668Y23541502D01*
X-11615668Y13941502D02*
X-9415668Y11741502D01*
X-11815668Y23541502D02*
X-11615668Y23341502D01*
X-9415668Y11741502D02*
X-8665668Y11741502D01*
X-11615668Y23341502D02*
X-11615668Y13941502D01*
%TO.N,+1V15*%
X6784332Y-4473101D02*
X6498935Y-4473101D01*
X-227000Y-94026D02*
X-227000Y8352834D01*
X-94026Y-227000D02*
X-227000Y-94026D01*
X-915668Y9041502D02*
X-1515668Y9041502D01*
X2252834Y-227000D02*
X-94026Y-227000D01*
X-227000Y8352834D02*
X-915668Y9041502D01*
X6498935Y-4473101D02*
X2252834Y-227000D01*
D18*
%TO.N,SDA*%
X21576532Y8333702D02*
X21576532Y13977854D01*
X-1499818Y11884430D02*
X-1499818Y9867780D01*
X-2141946Y9225652D02*
X-4599818Y9225652D01*
X21118243Y14436143D02*
X20884332Y14436143D01*
X21576532Y13977854D02*
X21118243Y14436143D01*
X-1065668Y12318580D02*
X-1499818Y11884430D01*
D19*
X-5088994Y13754400D02*
X-10174818Y18840224D01*
D18*
X-1499818Y9867780D02*
X-2141946Y9225652D01*
D19*
X-10174818Y42670060D02*
X-10915668Y43410910D01*
D18*
X15484332Y18241502D02*
X16033224Y18790393D01*
D19*
X-5365668Y9991502D02*
X-4915668Y9541502D01*
X-5365668Y11091502D02*
X-5365668Y9991502D01*
X-10915668Y43410910D02*
X-10915668Y44041502D01*
X-5215668Y11241502D02*
X-5088994Y11368176D01*
X-10174818Y18840224D02*
X-10174818Y42670060D01*
D18*
X-4599818Y9225652D02*
X-4915668Y9541502D01*
X19702073Y18790393D02*
X19702073Y41159243D01*
X-897441Y12846329D02*
X-1065668Y12678102D01*
D19*
X-5215668Y11241502D02*
X-5365668Y11091502D01*
D18*
X19702073Y18790393D02*
X20483608Y18008858D01*
X20484332Y14942220D02*
X20484332Y18008858D01*
X19784332Y14242220D02*
X20484332Y14942220D01*
X15084332Y17041502D02*
X15484332Y17441502D01*
D19*
X-5088994Y11368176D02*
X-5088994Y13754400D01*
D18*
X18934332Y5691502D02*
X21576532Y8333702D01*
X19702073Y41159243D02*
X20484332Y41941502D01*
X15484332Y17441502D02*
X15484332Y18241502D01*
X20483608Y18008858D02*
X20484332Y18008858D01*
X16033224Y18790393D02*
X19702073Y18790393D01*
X-1065668Y12678102D02*
X-1065668Y12318580D01*
%TO.N,SCL*%
X21055535Y14750299D02*
X20742330Y14750299D01*
X20037332Y19138502D02*
X19884332Y19291502D01*
D19*
X-1315668Y11808152D02*
X-582318Y12541502D01*
D18*
X19803758Y13841502D02*
X19834332Y13841502D01*
X16084332Y17041502D02*
X15662132Y17463702D01*
X18609332Y18466502D02*
X18814332Y18466502D01*
X19884332Y39441502D02*
X20484332Y40041502D01*
X19384332Y5835022D02*
X21754332Y8205022D01*
D19*
X-2065668Y9041502D02*
X-1315668Y9791502D01*
X-5565668Y9691502D02*
X-4915668Y9041502D01*
X-4915668Y9041502D02*
X-2065668Y9041502D01*
D18*
X21754332Y14051502D02*
X21055535Y14750299D01*
X20684332Y14692301D02*
X20684332Y14691502D01*
X19834332Y13841502D02*
X20684332Y14691502D01*
X20701127Y14791502D02*
X20684332Y14791502D01*
X20742330Y14750299D02*
X20684332Y14692301D01*
D19*
X-11025366Y43241200D02*
X-11025366Y43241502D01*
X-11025366Y43241502D02*
X-11265668Y43481804D01*
D18*
X7984332Y16701502D02*
X7584332Y17101502D01*
D19*
X-5315668Y13711666D02*
X-10365318Y18761316D01*
D18*
X7995838Y16160971D02*
X7995838Y16688996D01*
X20037332Y18839950D02*
X20684332Y18192950D01*
X20684332Y18192950D02*
X20684332Y14691502D01*
X20037332Y18969502D02*
X20037332Y19138502D01*
D19*
X-5415668Y11741502D02*
X-5565668Y11591502D01*
X-5415668Y11741502D02*
X-5315668Y11841502D01*
D18*
X19884332Y19291502D02*
X19884332Y39441502D01*
X7584332Y17101502D02*
X7584332Y17641502D01*
X19384332Y5691502D02*
X19384332Y5835022D01*
X16100045Y18605767D02*
X18470067Y18605767D01*
D19*
X-10365318Y42581152D02*
X-11025366Y43241200D01*
D18*
X7995838Y16688996D02*
X7984332Y16700502D01*
X15662132Y17463702D02*
X15662132Y18167854D01*
X15662132Y18167854D02*
X16100045Y18605767D01*
X18470067Y18605767D02*
X18609332Y18466502D01*
D19*
X-5565668Y11591502D02*
X-5565668Y9691502D01*
X-5315668Y11841502D02*
X-5315668Y13711666D01*
X-10365318Y18761316D02*
X-10365318Y42581152D01*
X-11265668Y44191502D02*
X-10915668Y44541502D01*
D18*
X20742330Y14750299D02*
X20701127Y14791502D01*
D19*
X-1315668Y9791502D02*
X-1315668Y11808152D01*
D18*
X20037332Y18969502D02*
X20037332Y18839950D01*
X7984332Y16700502D02*
X7984332Y16701502D01*
D19*
X-11265668Y43481804D02*
X-11265668Y44191502D01*
D18*
X21754332Y8205022D02*
X21754332Y14051502D01*
%TO.N,EN*%
X-9990668Y18916502D02*
X-9990668Y42746338D01*
X15714332Y15511502D02*
X15714332Y8621502D01*
X-2215594Y9403452D02*
X-1677618Y9941428D01*
X-1677618Y9941428D02*
X-1677618Y11958078D01*
X16756332Y7579502D02*
X18622332Y7579502D01*
X-9990668Y42746338D02*
X-10515668Y43271338D01*
X-4326894Y9403452D02*
X-2215594Y9403452D01*
X15562854Y15662980D02*
X15714332Y15511502D01*
X15714332Y8621502D02*
X16756332Y7579502D01*
X-587935Y13191502D02*
X-237681Y13541756D01*
X-237681Y13541756D02*
X-237681Y15467725D01*
X-10515668Y43271338D02*
X-10515668Y43541502D01*
X-1265668Y12941013D02*
X-1015179Y13191502D01*
X-42426Y15662980D02*
X15562854Y15662980D01*
X-1265668Y12370028D02*
X-1265668Y12941013D01*
X-4865668Y11091502D02*
X-4865668Y13791502D01*
X-1015179Y13191502D02*
X-587935Y13191502D01*
X18622332Y7579502D02*
X19172174Y8129344D01*
X-5015668Y10398014D02*
X-5015668Y10092226D01*
X19172174Y8129344D02*
X19410383Y8129344D01*
X-237681Y15467725D02*
X-42426Y15662980D01*
X-1677618Y11958078D02*
X-1265668Y12370028D01*
X-5015668Y10092226D02*
X-4326894Y9403452D01*
X-5015668Y10941502D02*
X-4865668Y11091502D01*
X-4865668Y13791502D02*
X-9990668Y18916502D01*
X-5015668Y10398014D02*
X-5015668Y10941502D01*
D15*
%TO.N,VBAT*%
X-6041307Y10239779D02*
X-6109635Y8996864D01*
X-6515668Y11041502D02*
X-6041307Y10239779D01*
X-12215668Y43441502D02*
X-11748792Y43044551D01*
X-6515668Y11041502D02*
X-6515668Y10641502D01*
X-7015668Y5341502D02*
X-8515668Y6841502D01*
X-9115668Y6241502D02*
X-7615668Y4741502D01*
X-4501231Y11748826D02*
X-4538774Y11239878D01*
X-11415668Y42141502D02*
X-11415668Y42541502D01*
X-6515668Y10241502D02*
X-6695302Y9540233D01*
X-12215668Y43041502D02*
X-11815668Y42541502D01*
X-8855138Y8968317D02*
X-8633297Y8714784D01*
X-8815668Y6541502D02*
X-7315668Y5041502D01*
X-6515668Y10641502D02*
X-6041307Y10239779D01*
X-8633297Y8714784D02*
X-8931198Y8429560D01*
X-3498762Y11742187D02*
X-3409137Y11257549D01*
X-6653004Y9042416D02*
X-6109635Y8996864D01*
X-3498762Y11742187D02*
X-3815668Y11041502D01*
X-5915668Y9341502D02*
X-5637848Y9029401D01*
X-5915668Y9741502D02*
X-5915668Y9341502D01*
X-3615668Y10541502D02*
X-3615668Y9741502D01*
D16*
X20084332Y11041502D02*
X19684332Y11041502D01*
D15*
X-6515668Y10641502D02*
X-6515668Y10241502D01*
X-6653004Y9042416D02*
X-6041307Y10239779D01*
X-8515668Y6841502D02*
X-8515668Y5641502D01*
X-4521148Y10746356D02*
X-4099579Y10540551D01*
X-7615668Y6541502D02*
X-7615668Y4741502D01*
X-12215668Y43041502D02*
X-11415668Y42141502D01*
X-12215668Y43041502D02*
X-12329478Y42615810D01*
D16*
X19584332Y11941502D02*
X20084332Y11441502D01*
X19684332Y11441502D02*
X20084332Y11441502D01*
X20084332Y11441502D02*
X20084332Y11041502D01*
D15*
X-8215668Y7141502D02*
X-8215668Y5341502D01*
X-4099579Y10540551D02*
X-3615668Y10541502D01*
X-4501231Y11748826D02*
X-4215668Y11441502D01*
X-6715668Y5641502D02*
X-7615668Y4741502D01*
X-4501231Y11748826D02*
X-4099579Y10540551D01*
X-8215668Y7141502D02*
X-9115668Y6241502D01*
D16*
X19184332Y11941502D02*
X19984332Y11941502D01*
D15*
X-6695302Y9540233D02*
X-6653004Y9042416D01*
X-4538774Y11239878D02*
X-4521148Y10746356D01*
D16*
X19184332Y11941502D02*
X19684332Y11441502D01*
D15*
X-12282593Y42202373D02*
X-11748792Y43044551D01*
X-9165716Y8695769D02*
X-8931198Y8429560D01*
D16*
X18984332Y12641502D02*
X19384332Y12641502D01*
D15*
X-3409137Y11257549D02*
X-3615668Y10541502D01*
X-11415668Y42541502D02*
X-11260245Y42981737D01*
X-4501231Y11748826D02*
X-4026552Y11805256D01*
X-11815668Y42141502D02*
X-12282593Y42202373D01*
X-6515668Y10241502D02*
X-5915668Y9741502D01*
X-6109635Y8996864D02*
X-5637848Y9029401D01*
D16*
X19684332Y11041502D02*
X19684332Y11441502D01*
D15*
X-8215668Y7141502D02*
X-6715668Y5641502D01*
X-6515668Y10241502D02*
X-6109635Y8996864D01*
X-7315668Y6241502D02*
X-7315668Y5041502D01*
D16*
X19984332Y11941502D02*
X20084332Y11441502D01*
D15*
X-4099579Y10540551D02*
X-3615668Y10141502D01*
X-12215668Y43841502D02*
X-12215668Y43441502D01*
X-12282593Y42202373D02*
X-11260245Y42981737D01*
X-7015668Y5941502D02*
X-7015668Y5341502D01*
X-4026552Y11805256D02*
X-3615668Y10541502D01*
X-12329478Y42615810D02*
X-12282593Y42202373D01*
X-11815668Y42141502D02*
X-11415668Y42141502D01*
X-9165716Y8695769D02*
X-8855138Y8968317D01*
X-4026552Y11805256D02*
X-3498762Y11742187D01*
X-5915668Y9741502D02*
X-6041307Y10239779D01*
X-8815668Y6541502D02*
X-8815668Y5941502D01*
X-4099579Y10540551D02*
X-3815668Y11441502D01*
X-4521148Y10746356D02*
X-3815668Y11441502D01*
X-7915668Y6841502D02*
X-7915668Y5041502D01*
X-11260245Y42981737D02*
X-11748792Y43044551D01*
D16*
X19684332Y11041502D02*
X20084332Y11441502D01*
D15*
X-12215668Y43441502D02*
X-12215668Y43041502D01*
X-4521148Y10746356D02*
X-3615668Y9741502D01*
X-11748792Y43044551D02*
X-11815668Y42141502D01*
D16*
%TO.N,Net-(U4-LX2)*%
X17284332Y14741502D02*
X17284332Y14341502D01*
X18984332Y13841502D02*
X19384332Y13841502D01*
X17684332Y14741502D02*
X17684332Y14341502D01*
X16884332Y14741502D02*
X17684332Y14741502D01*
X16884332Y14741502D02*
X17284332Y14341502D01*
X16884332Y14341502D02*
X17684332Y14341502D01*
X16884332Y14741502D02*
X16884332Y14341502D01*
X17284332Y14341502D02*
X17684332Y14741502D01*
%TO.N,Net-(U4-LX1)*%
X18984332Y13041502D02*
X19384332Y13041502D01*
X16884332Y12541502D02*
X17284332Y12141502D01*
X16884332Y12541502D02*
X16884332Y12141502D01*
X17284332Y12541502D02*
X17284332Y12141502D01*
X17284332Y12141502D02*
X17684332Y12541502D01*
X16884332Y12141502D02*
X17684332Y12141502D01*
X17684332Y12541502D02*
X17684332Y12141502D01*
X17684332Y12541502D02*
X16884332Y12541502D01*
D14*
%TO.N,Net-(U3-VSET)*%
X-14415668Y43441502D02*
X-13815668Y44041502D01*
X-14415668Y42941502D02*
X-14415668Y43441502D01*
X-14915668Y42441502D02*
X-14415668Y42941502D01*
D20*
%TO.N,+1V8_ALW*%
X17095648Y9530186D02*
X16266782Y10359052D01*
X16266782Y15759052D02*
X15805395Y16220439D01*
X10087482Y16038352D02*
X9834332Y16291502D01*
X19134332Y8392752D02*
X19134332Y8391502D01*
X11923104Y16038352D02*
X10087482Y16038352D01*
X12660869Y16443902D02*
X12328654Y16443902D01*
X19427000Y8685420D02*
X19134332Y8392752D01*
X9834332Y16291502D02*
X9834332Y16641502D01*
X12328654Y16443902D02*
X11923104Y16038352D01*
X12884332Y16220439D02*
X12660869Y16443902D01*
X17095648Y9089286D02*
X17095648Y9530186D01*
X18679431Y7936601D02*
X17459012Y7936601D01*
X16266782Y10359052D02*
X16266782Y15759052D01*
X15805395Y16220439D02*
X12884332Y16220439D01*
X19134332Y8391502D02*
X18679431Y7936601D01*
X19591352Y8685420D02*
X19427000Y8685420D01*
D18*
%TO.N,ALERT*%
X15892132Y15585149D02*
X15892132Y8707254D01*
X7791332Y15841502D02*
X15635780Y15841502D01*
X15635780Y15841502D02*
X15892132Y15585149D01*
X16707884Y7891502D02*
X17041164Y7891502D01*
X15892132Y8707254D02*
X16707884Y7891502D01*
X7584332Y16641502D02*
X7584332Y16048502D01*
X7584332Y16048502D02*
X7791332Y15841502D01*
%TO.N,SAFEMODE*%
X15705138Y16023589D02*
X16069932Y15658795D01*
X16576332Y8274502D02*
X18183864Y8274502D01*
X12484332Y16141502D02*
X12602245Y16023589D01*
X18183864Y8274502D02*
X18184059Y8274697D01*
X16069932Y8780902D02*
X16576332Y8274502D01*
X16069932Y15658795D02*
X16069932Y8780902D01*
X12602245Y16023589D02*
X15705138Y16023589D01*
%TD*%
%TA.AperFunction,Conductor*%
%TO.N,GND*%
G36*
X-15226026Y48118139D02*
G01*
X-15213300Y48087415D01*
X-15226026Y48056691D01*
X-15232611Y48051287D01*
X-15288266Y48014101D01*
X-15288267Y48014100D01*
X-15341178Y47934911D01*
X-15359758Y47841502D01*
X-15341178Y47748093D01*
X-15288266Y47668904D01*
X-15209077Y47615992D01*
X-15115668Y47597412D01*
X-15022259Y47615992D01*
X-14943070Y47668904D01*
X-14890158Y47748093D01*
X-14871578Y47841502D01*
X-14890158Y47934911D01*
X-14943070Y48014100D01*
X-14998726Y48051288D01*
X-15017201Y48078938D01*
X-15010714Y48111554D01*
X-14983063Y48130030D01*
X-14974586Y48130865D01*
X-10776163Y48130865D01*
X-10776160Y48130863D01*
X-10751360Y48130865D01*
X-10747109Y48130657D01*
X-10577995Y48114011D01*
X-10569649Y48112352D01*
X-10409077Y48063653D01*
X-10401212Y48060394D01*
X-10384172Y48051287D01*
X-10253241Y47981311D01*
X-10246158Y47976579D01*
X-10116457Y47870145D01*
X-10110434Y47864123D01*
X-10003989Y47734429D01*
X-9999256Y47727346D01*
X-9920162Y47579379D01*
X-9916902Y47571510D01*
X-9868194Y47410952D01*
X-9866532Y47402597D01*
X-9849947Y47234228D01*
X-9849738Y47229969D01*
X-9849738Y42899598D01*
X-9862464Y42868874D01*
X-9893188Y42856148D01*
X-9923912Y42868874D01*
X-10354113Y43299075D01*
X-10366839Y43329799D01*
X-10354113Y43360523D01*
X-10347532Y43365923D01*
X-10343070Y43368904D01*
X-10290158Y43448093D01*
X-10271578Y43541502D01*
X-10290158Y43634911D01*
X-10343070Y43714100D01*
X-10349434Y43718352D01*
X-10404532Y43755167D01*
X-10422259Y43767012D01*
X-10515668Y43785592D01*
X-10609077Y43767012D01*
X-10688266Y43714101D01*
X-10688268Y43714099D01*
X-10695891Y43702689D01*
X-10723541Y43684214D01*
X-10756158Y43690702D01*
X-10774633Y43718352D01*
X-10775468Y43726829D01*
X-10775468Y43824033D01*
X-10762742Y43854757D01*
X-10756160Y43860159D01*
X-10743070Y43868904D01*
X-10690158Y43948093D01*
X-10671578Y44041502D01*
X-10690158Y44134911D01*
X-10743070Y44214100D01*
X-10743073Y44214102D01*
X-10770326Y44232312D01*
X-10804843Y44255375D01*
X-10823318Y44283025D01*
X-10816831Y44315641D01*
X-10804844Y44327629D01*
X-10743070Y44368904D01*
X-10690158Y44448093D01*
X-10671578Y44541502D01*
X-10690158Y44634911D01*
X-10743070Y44714100D01*
X-10744477Y44715040D01*
X-10769348Y44731659D01*
X-10822259Y44767012D01*
X-10915668Y44785592D01*
X-11009077Y44767012D01*
X-11088266Y44714101D01*
X-11088267Y44714100D01*
X-11141178Y44634911D01*
X-11159758Y44541503D01*
X-11159758Y44541501D01*
X-11156688Y44526065D01*
X-11163176Y44493449D01*
X-11168579Y44486865D01*
X-11351197Y44304247D01*
X-11351198Y44304248D01*
X-11384523Y44270922D01*
X-11405868Y44219390D01*
X-11405868Y43453917D01*
X-11384524Y43402387D01*
X-11316117Y43333980D01*
X-11303391Y43303256D01*
X-11316117Y43272532D01*
X-11346841Y43259806D01*
X-11352382Y43260161D01*
X-11624497Y43295148D01*
X-11647101Y43305140D01*
X-11935963Y43550739D01*
X-11951126Y43580336D01*
X-11951268Y43583842D01*
X-11951268Y43894094D01*
X-11973635Y43948094D01*
X-11991520Y43991273D01*
X-12065897Y44065650D01*
X-12163076Y44105902D01*
X-12268260Y44105902D01*
X-12316850Y44085776D01*
X-12365440Y44065650D01*
X-12439816Y43991274D01*
X-12467440Y43924582D01*
X-12480068Y43894094D01*
X-12480068Y43494094D01*
X-12480068Y43483079D01*
X-12483450Y43472590D01*
X-12480068Y43430812D01*
X-12480068Y43081944D01*
X-12481542Y43070722D01*
X-12584164Y42686881D01*
X-12584379Y42686106D01*
X-12598122Y42638271D01*
X-12598236Y42636910D01*
X-12598235Y42636909D01*
X-12598362Y42635384D01*
X-12598363Y42635376D01*
X-12598405Y42634877D01*
X-12598400Y42634681D01*
X-12598491Y42633291D01*
X-12591968Y42583958D01*
X-12591870Y42583159D01*
X-12550289Y42216493D01*
X-12550118Y42208563D01*
X-12550274Y42206344D01*
X-12552095Y42195871D01*
X-12551266Y42192168D01*
X-12551689Y42186120D01*
X-12551637Y42185341D01*
X-12551627Y42185179D01*
X-12551580Y42184429D01*
X-12551573Y42184403D01*
X-12551573Y42184402D01*
X-12549978Y42178480D01*
X-12543919Y42155979D01*
X-12542702Y42149579D01*
X-12539384Y42120325D01*
X-12539384Y42120324D01*
X-12539383Y42120323D01*
X-12535313Y42112971D01*
X-12532123Y42105717D01*
X-12531419Y42103611D01*
X-12529092Y42093232D01*
X-12526907Y42090126D01*
X-12524980Y42084367D01*
X-12524417Y42083231D01*
X-12524418Y42083231D01*
X-12524223Y42082837D01*
X-12506270Y42059502D01*
X-12502694Y42054052D01*
X-12488438Y42028300D01*
X-12481864Y42023065D01*
X-12476138Y42017580D01*
X-12474673Y42015894D01*
X-12468561Y42007209D01*
X-12465360Y42005180D01*
X-12461376Y42000597D01*
X-12460475Y41999810D01*
X-12460471Y41999806D01*
X-12460085Y41999469D01*
X-12460083Y41999467D01*
X-12445772Y41991229D01*
X-12434570Y41984780D01*
X-12429182Y41981114D01*
X-12406153Y41962776D01*
X-12398076Y41960456D01*
X-12390685Y41957579D01*
X-12388693Y41956586D01*
X-12379720Y41950898D01*
X-12375985Y41950249D01*
X-12370563Y41947545D01*
X-12369692Y41947250D01*
X-12369526Y41947193D01*
X-12368943Y41946993D01*
X-12368924Y41946991D01*
X-12368923Y41946990D01*
X-12339727Y41943184D01*
X-12333355Y41941861D01*
X-12305057Y41933731D01*
X-12296709Y41934679D01*
X-12288783Y41934849D01*
X-12286567Y41934694D01*
X-12276091Y41932871D01*
X-12272387Y41933702D01*
X-12266053Y41933258D01*
X-12265579Y41933022D01*
X-12263617Y41932956D01*
X-12263256Y41932971D01*
X-12262984Y41932935D01*
X-12260451Y41932850D01*
X-11901776Y41886091D01*
X-11896961Y41885185D01*
X-11892215Y41884011D01*
X-11887643Y41881708D01*
X-11880881Y41881208D01*
X-11877322Y41880327D01*
X-11876192Y41879494D01*
X-11871134Y41878292D01*
X-11868260Y41877102D01*
X-11835647Y41877102D01*
X-11832994Y41877021D01*
X-11831513Y41876931D01*
X-11797697Y41872522D01*
X-11790619Y41874429D01*
X-11783529Y41873995D01*
X-11783370Y41873918D01*
X-11782962Y41873956D01*
X-11782747Y41873940D01*
X-11780394Y41874717D01*
X-11779798Y41874913D01*
X-11766182Y41877102D01*
X-11468260Y41877102D01*
X-11423442Y41877102D01*
X-11378693Y41874470D01*
X-11371107Y41877102D01*
X-11363076Y41877102D01*
X-11321657Y41894259D01*
X-11279318Y41908947D01*
X-11273319Y41914280D01*
X-11265897Y41917354D01*
X-11234187Y41949065D01*
X-11200703Y41978828D01*
X-11197202Y41986050D01*
X-11191520Y41991731D01*
X-11174365Y42033148D01*
X-11154812Y42073474D01*
X-11154341Y42081493D01*
X-11151268Y42088910D01*
X-11151268Y42132454D01*
X-11151193Y42135005D01*
X-11150145Y42152822D01*
X-11148636Y42178478D01*
X-11148868Y42179148D01*
X-11151268Y42193389D01*
X-11151268Y42488754D01*
X-11148790Y42503219D01*
X-11137285Y42535806D01*
X-11020554Y42866447D01*
X-11017401Y42873373D01*
X-11017295Y42873562D01*
X-11005246Y42894278D01*
X-11005145Y42895038D01*
X-11004746Y42895741D01*
X-11004714Y42895834D01*
X-11004712Y42895855D01*
X-11004710Y42895857D01*
X-11002170Y42915619D01*
X-11000049Y42924530D01*
X-10998710Y42928322D01*
X-10976480Y42953054D01*
X-10943272Y42954823D01*
X-10927016Y42944577D01*
X-10518244Y42535806D01*
X-10505518Y42505082D01*
X-10505518Y18733429D01*
X-10484174Y18681899D01*
X-5468594Y13666319D01*
X-5455868Y13635595D01*
X-5455868Y12013255D01*
X-5468594Y11982531D01*
X-5490840Y11970640D01*
X-5509077Y11967012D01*
X-5588266Y11914101D01*
X-5588267Y11914100D01*
X-5641178Y11834911D01*
X-5659758Y11741502D01*
X-5659758Y11741501D01*
X-5656688Y11726065D01*
X-5663176Y11693449D01*
X-5668578Y11686867D01*
X-5684523Y11670921D01*
X-5684524Y11670920D01*
X-5705868Y11619390D01*
X-5705868Y10350838D01*
X-5708027Y10345628D01*
X-5707230Y10340044D01*
X-5714170Y10330797D01*
X-5718594Y10320114D01*
X-5723806Y10317956D01*
X-5727190Y10313445D01*
X-5738636Y10311813D01*
X-5749318Y10307388D01*
X-5754529Y10309547D01*
X-5760112Y10308750D01*
X-5769360Y10315690D01*
X-5780042Y10320114D01*
X-5786711Y10328710D01*
X-5791080Y10336093D01*
X-5795818Y10347598D01*
X-5797790Y10355418D01*
X-5797790Y10355419D01*
X-5798905Y10356918D01*
X-5803679Y10365050D01*
X-5804652Y10367215D01*
X-5805958Y10371251D01*
X-5807028Y10372507D01*
X-5808358Y10375468D01*
X-5809275Y10377018D01*
X-5809276Y10377021D01*
X-5818033Y10386797D01*
X-5824298Y10395897D01*
X-5830301Y10407558D01*
X-5830302Y10407559D01*
X-5830301Y10407559D01*
X-5830851Y10408024D01*
X-5840168Y10419057D01*
X-5842138Y10422386D01*
X-6278569Y11160004D01*
X-6291520Y11191273D01*
X-6305111Y11204864D01*
X-6314896Y11221402D01*
X-6339500Y11239868D01*
X-6344141Y11243894D01*
X-6365899Y11265652D01*
X-6378585Y11270907D01*
X-6378585Y11270906D01*
X-6383654Y11273006D01*
X-6399024Y11284541D01*
X-6431807Y11292951D01*
X-6434654Y11294130D01*
X-6434655Y11294131D01*
X-6463075Y11305902D01*
X-6463076Y11305902D01*
X-6476809Y11305902D01*
X-6487604Y11307265D01*
X-6492521Y11308526D01*
X-6500911Y11310679D01*
X-6524855Y11307265D01*
X-6531367Y11306337D01*
X-6537496Y11305902D01*
X-6568262Y11305902D01*
X-6580952Y11300647D01*
X-6580951Y11300646D01*
X-6586020Y11298547D01*
X-6605043Y11295835D01*
X-6634163Y11278607D01*
X-6637012Y11277426D01*
X-6665440Y11265650D01*
X-6665443Y11265649D01*
X-6679035Y11252058D01*
X-6695568Y11242274D01*
X-6715877Y11215216D01*
X-6718056Y11213036D01*
X-6718062Y11213028D01*
X-6739816Y11191273D01*
X-6739817Y11191271D01*
X-6745074Y11178582D01*
X-6750462Y11169133D01*
X-6758707Y11158147D01*
X-6758708Y11158146D01*
X-6766353Y11128344D01*
X-6766354Y11128345D01*
X-6767124Y11125347D01*
X-6780068Y11094094D01*
X-6780068Y11074881D01*
X-6781431Y11069567D01*
X-6781431Y11069565D01*
X-6784845Y11056262D01*
X-6784845Y11056261D01*
X-6780503Y11025807D01*
X-6780068Y11019675D01*
X-6780068Y10694094D01*
X-6780068Y10682814D01*
X-6783510Y10672068D01*
X-6780068Y10630553D01*
X-6780068Y10288352D01*
X-6782035Y10275426D01*
X-6783745Y10269939D01*
X-6784074Y10266845D01*
X-6784969Y10255704D01*
X-6949252Y9614362D01*
X-6949564Y9613145D01*
X-6963205Y9570252D01*
X-6962545Y9562470D01*
X-6964367Y9555353D01*
X-6964367Y9555350D01*
X-6964483Y9554900D01*
X-6964483Y9554893D01*
X-6958289Y9511538D01*
X-6958008Y9509072D01*
X-6918655Y9045920D01*
X-6918626Y9038925D01*
X-6918646Y9038669D01*
X-6920873Y9012096D01*
X-6920718Y9011607D01*
X-6920758Y9011073D01*
X-6920757Y9011066D01*
X-6920752Y9011021D01*
X-6915423Y8994558D01*
X-6913467Y8984857D01*
X-6912003Y8967631D01*
X-6912003Y8967630D01*
X-6912002Y8967628D01*
X-6901896Y8948094D01*
X-6899774Y8943993D01*
X-6897071Y8937543D01*
X-6897023Y8937396D01*
X-6888880Y8911894D01*
X-6888549Y8911503D01*
X-6888383Y8910996D01*
X-6888358Y8910950D01*
X-6877135Y8897782D01*
X-6871615Y8889567D01*
X-6863667Y8874205D01*
X-6843327Y8857052D01*
X-6838360Y8852126D01*
X-6838261Y8852010D01*
X-6820977Y8831563D01*
X-6820518Y8831327D01*
X-6820171Y8830922D01*
X-6820134Y8830893D01*
X-6820126Y8830889D01*
X-6820125Y8830888D01*
X-6813900Y8827708D01*
X-6804726Y8823021D01*
X-6796481Y8817543D01*
X-6790354Y8812376D01*
X-6783260Y8806393D01*
X-6757901Y8798328D01*
X-6751425Y8795677D01*
X-6751268Y8795598D01*
X-6727500Y8783334D01*
X-6726992Y8783292D01*
X-6726523Y8783054D01*
X-6726467Y8783038D01*
X-6726459Y8783038D01*
X-6726456Y8783036D01*
X-6709213Y8781661D01*
X-6699515Y8779758D01*
X-6683023Y8774512D01*
X-6656499Y8776767D01*
X-6649201Y8776770D01*
X-6188288Y8738132D01*
X-6180828Y8736778D01*
X-6180818Y8736816D01*
X-6180282Y8736679D01*
X-6180114Y8736648D01*
X-6179891Y8736585D01*
X-6179809Y8736554D01*
X-6179323Y8736424D01*
X-6179216Y8736406D01*
X-6176668Y8735753D01*
X-6176661Y8735749D01*
X-6165728Y8735149D01*
X-6154290Y8732956D01*
X-6143911Y8729472D01*
X-6114899Y8731473D01*
X-6108730Y8731459D01*
X-6108539Y8731445D01*
X-6079315Y8728995D01*
X-6078545Y8729242D01*
X-6077695Y8729179D01*
X-6075456Y8729433D01*
X-6075331Y8729451D01*
X-6075168Y8729486D01*
X-6074957Y8729511D01*
X-6074862Y8729514D01*
X-6074346Y8729582D01*
X-6074247Y8729605D01*
X-6071641Y8729977D01*
X-6071636Y8729976D01*
X-6061309Y8733604D01*
X-6049902Y8735957D01*
X-5636424Y8764472D01*
X-5600683Y8762394D01*
X-5584391Y8768060D01*
X-5567189Y8769246D01*
X-5537610Y8783960D01*
X-5532545Y8786091D01*
X-5501333Y8796943D01*
X-5492792Y8804546D01*
X-5483250Y8810996D01*
X-5480457Y8812386D01*
X-5473010Y8816089D01*
X-5449498Y8843085D01*
X-5422767Y8866879D01*
X-5415256Y8882400D01*
X-5403926Y8895407D01*
X-5392536Y8929344D01*
X-5376944Y8961558D01*
X-5375944Y8978777D01*
X-5370456Y8995125D01*
X-5372730Y9028074D01*
X-5372759Y9033583D01*
X-5370841Y9066566D01*
X-5376507Y9082859D01*
X-5377693Y9100060D01*
X-5393635Y9132112D01*
X-5405390Y9165916D01*
X-5406494Y9167156D01*
X-5412991Y9174456D01*
X-5419438Y9183993D01*
X-5424533Y9194236D01*
X-5424536Y9194240D01*
X-5449455Y9215944D01*
X-5453371Y9219818D01*
X-5640272Y9429782D01*
X-5651268Y9458672D01*
X-5651268Y9473932D01*
X-5638542Y9504656D01*
X-5607818Y9517382D01*
X-5577094Y9504656D01*
X-5168579Y9096141D01*
X-5155853Y9065417D01*
X-5156688Y9056942D01*
X-5159758Y9041505D01*
X-5159758Y9041503D01*
X-5159758Y9041502D01*
X-5141178Y8948093D01*
X-5105976Y8895409D01*
X-5102073Y8889567D01*
X-5088266Y8868904D01*
X-5009077Y8815992D01*
X-4915668Y8797412D01*
X-4822259Y8815992D01*
X-4743070Y8868904D01*
X-4734325Y8881992D01*
X-4706674Y8900467D01*
X-4698198Y8901302D01*
X-2037781Y8901302D01*
X-2037780Y8901302D01*
X-1986251Y8922646D01*
X-1833932Y9074965D01*
X-1803208Y9087691D01*
X-1772484Y9074965D01*
X-1759758Y9044241D01*
X-1759758Y9041503D01*
X-1759758Y9041502D01*
X-1741178Y8948093D01*
X-1705976Y8895409D01*
X-1702073Y8889567D01*
X-1688266Y8868904D01*
X-1609077Y8815992D01*
X-1515668Y8797412D01*
X-1422259Y8815992D01*
X-1419585Y8817780D01*
X-1395445Y8825102D01*
X-1023301Y8825102D01*
X-992577Y8812376D01*
X-456126Y8275925D01*
X-443400Y8245201D01*
X-443400Y-137071D01*
X-410455Y-216607D01*
X-349581Y-277481D01*
X-349580Y-277481D01*
X-216606Y-410456D01*
X-170015Y-429754D01*
X-137071Y-443400D01*
X-137070Y-443400D01*
X-50981Y-443400D01*
X2145201Y-443400D01*
X2175924Y-456125D01*
X6376355Y-4656557D01*
X6422946Y-4675855D01*
X6455890Y-4689501D01*
X6455891Y-4689501D01*
X6541980Y-4689501D01*
X6664109Y-4689501D01*
X6688248Y-4696823D01*
X6690923Y-4698611D01*
X6784332Y-4717191D01*
X6877741Y-4698611D01*
X6956930Y-4645699D01*
X7009842Y-4566510D01*
X7028422Y-4473101D01*
X7009842Y-4379692D01*
X6956930Y-4300503D01*
X6877741Y-4247591D01*
X6784332Y-4229011D01*
X6690923Y-4247591D01*
X6690922Y-4247591D01*
X6688249Y-4249378D01*
X6664109Y-4256701D01*
X6606569Y-4256701D01*
X6575845Y-4243975D01*
X4570437Y-2238567D01*
X2506542Y-174673D01*
X2493817Y-143950D01*
X2506543Y-113226D01*
X2537267Y-100500D01*
X15517235Y-100500D01*
X15517236Y-100500D01*
X15554174Y-85200D01*
X15582445Y-56929D01*
X15597745Y-19991D01*
X15597745Y8443900D01*
X15610471Y8474624D01*
X15641195Y8487350D01*
X15671917Y8474625D01*
X16680512Y7466029D01*
X16729708Y7445652D01*
X16729709Y7445652D01*
X18648954Y7445652D01*
X18648956Y7445652D01*
X18698152Y7466030D01*
X19183247Y7951127D01*
X19213970Y7963852D01*
X19238109Y7956529D01*
X19316970Y7903836D01*
X19316971Y7903836D01*
X19316974Y7903834D01*
X19410383Y7885254D01*
X19503792Y7903834D01*
X19582981Y7956746D01*
X19635893Y8035935D01*
X19654473Y8129344D01*
X19635893Y8222753D01*
X19582981Y8301942D01*
X19503792Y8354854D01*
X19424103Y8370705D01*
X19396453Y8389180D01*
X19389965Y8421797D01*
X19401854Y8444042D01*
X19424641Y8466829D01*
X19455364Y8479554D01*
X19479502Y8472232D01*
X19497943Y8459910D01*
X19591352Y8441330D01*
X19684761Y8459910D01*
X19763950Y8512822D01*
X19816862Y8592011D01*
X19835442Y8685420D01*
X19816862Y8778829D01*
X19763950Y8858018D01*
X19761883Y8859399D01*
X19727459Y8882400D01*
X19684761Y8910930D01*
X19591352Y8929510D01*
X19497943Y8910930D01*
X19418754Y8858019D01*
X19418751Y8858016D01*
X19416358Y8854434D01*
X19396862Y8838435D01*
X19385647Y8833789D01*
X19385645Y8833788D01*
X19340388Y8815043D01*
X19004704Y8479359D01*
X19004561Y8479144D01*
X18999165Y8472570D01*
X18628823Y8102227D01*
X18598099Y8089501D01*
X18429528Y8089501D01*
X18398804Y8102227D01*
X18386078Y8132951D01*
X18393401Y8157091D01*
X18396925Y8162365D01*
X18409569Y8181288D01*
X18428149Y8274697D01*
X18409569Y8368106D01*
X18356657Y8447295D01*
X18277468Y8500207D01*
X18184059Y8518787D01*
X18090650Y8500207D01*
X18011461Y8447296D01*
X18011459Y8447294D01*
X17998342Y8427662D01*
X17970691Y8409187D01*
X17962215Y8408352D01*
X16649772Y8408352D01*
X16619048Y8421078D01*
X16216508Y8823618D01*
X16203782Y8854342D01*
X16203782Y10100921D01*
X16216508Y10131645D01*
X16247232Y10144371D01*
X16277956Y10131645D01*
X16930022Y9479579D01*
X16942748Y9448855D01*
X16942748Y9298271D01*
X16930022Y9267547D01*
X16923440Y9262145D01*
X16923051Y9261886D01*
X16923049Y9261884D01*
X16882839Y9201704D01*
X16870138Y9182695D01*
X16851558Y9089286D01*
X16870138Y8995877D01*
X16893069Y8961558D01*
X16916343Y8926725D01*
X16923050Y8916688D01*
X17002239Y8863776D01*
X17095648Y8845196D01*
X17189057Y8863776D01*
X17268246Y8916688D01*
X17321158Y8995877D01*
X17339738Y9089286D01*
X17321158Y9182695D01*
X17268246Y9261884D01*
X17268244Y9261886D01*
X17267856Y9262145D01*
X17267596Y9262534D01*
X17265220Y9264910D01*
X17265692Y9265383D01*
X17249382Y9289797D01*
X17248548Y9298271D01*
X17248548Y9560599D01*
X17248547Y9560602D01*
X17247774Y9562467D01*
X17231231Y9602406D01*
X17225271Y9616796D01*
X16432408Y10409660D01*
X16419682Y10440384D01*
X16419682Y10691502D01*
X16540242Y10691502D01*
X16558822Y10598093D01*
X16611734Y10518904D01*
X16690923Y10465992D01*
X16784332Y10447412D01*
X16877741Y10465992D01*
X16956930Y10518904D01*
X17009842Y10598093D01*
X17028422Y10691502D01*
X17009842Y10784911D01*
X16956930Y10864100D01*
X16949740Y10868904D01*
X16919818Y10888897D01*
X16877741Y10917012D01*
X16784332Y10935592D01*
X16690923Y10917012D01*
X16611734Y10864101D01*
X16611733Y10864100D01*
X16567175Y10797412D01*
X16558822Y10784911D01*
X16540242Y10691502D01*
X16419682Y10691502D01*
X16419682Y12541502D01*
X16640242Y12541502D01*
X16644317Y12521016D01*
X16644477Y12519920D01*
X16644932Y12513645D01*
X16644932Y12169360D01*
X16644097Y12160884D01*
X16640242Y12141503D01*
X16640242Y12141502D01*
X16644097Y12122122D01*
X16644932Y12113645D01*
X16644932Y12093882D01*
X16651337Y12078417D01*
X16652494Y12075624D01*
X16654965Y12067478D01*
X16658822Y12048093D01*
X16658822Y12048092D01*
X16669801Y12031660D01*
X16672179Y12028100D01*
X16681379Y12005893D01*
X16698375Y11988897D01*
X16703612Y11981059D01*
X16711732Y11968906D01*
X16711734Y11968904D01*
X16731726Y11955546D01*
X16748723Y11938549D01*
X16770931Y11929350D01*
X16790923Y11915992D01*
X16814501Y11911302D01*
X16836712Y11902102D01*
X16860754Y11902102D01*
X16884332Y11897412D01*
X16903712Y11901268D01*
X16912189Y11902102D01*
X17236712Y11902102D01*
X17260754Y11902102D01*
X17284332Y11897412D01*
X17307910Y11902102D01*
X17331952Y11902102D01*
X17636712Y11902102D01*
X17656475Y11902102D01*
X17664951Y11901268D01*
X17684332Y11897412D01*
X17703712Y11901268D01*
X17712189Y11902102D01*
X17731951Y11902102D01*
X17731952Y11902102D01*
X17750212Y11909666D01*
X17758357Y11912137D01*
X17777741Y11915992D01*
X17797732Y11929350D01*
X17819941Y11938549D01*
X17822895Y11941503D01*
X18940242Y11941503D01*
X18940242Y11941502D01*
X18944097Y11922122D01*
X18944932Y11913645D01*
X18944932Y11893882D01*
X18947532Y11887605D01*
X18952494Y11875624D01*
X18954965Y11867478D01*
X18958822Y11848093D01*
X18958822Y11848092D01*
X18969800Y11831661D01*
X18973814Y11824152D01*
X18981377Y11805894D01*
X18981378Y11805893D01*
X18998377Y11788894D01*
X19011734Y11768904D01*
X19031723Y11755548D01*
X19432206Y11355065D01*
X19444932Y11324341D01*
X19444932Y11069360D01*
X19444097Y11060884D01*
X19440242Y11041503D01*
X19440242Y11041502D01*
X19444097Y11022122D01*
X19444932Y11013645D01*
X19444932Y10993882D01*
X19451337Y10978417D01*
X19452494Y10975624D01*
X19454965Y10967478D01*
X19458822Y10948093D01*
X19458822Y10948092D01*
X19469800Y10931661D01*
X19473814Y10924152D01*
X19481377Y10905894D01*
X19481378Y10905893D01*
X19498377Y10888894D01*
X19511734Y10868904D01*
X19531723Y10855548D01*
X19548723Y10838548D01*
X19570933Y10829349D01*
X19590923Y10815992D01*
X19614501Y10811302D01*
X19636712Y10802102D01*
X19660754Y10802102D01*
X19684332Y10797412D01*
X19707910Y10802102D01*
X19731952Y10802102D01*
X20036712Y10802102D01*
X20056475Y10802102D01*
X20064951Y10801268D01*
X20084332Y10797412D01*
X20103712Y10801268D01*
X20112189Y10802102D01*
X20131951Y10802102D01*
X20131952Y10802102D01*
X20150212Y10809666D01*
X20158357Y10812137D01*
X20177741Y10815992D01*
X20197732Y10829350D01*
X20219941Y10838549D01*
X20236937Y10855546D01*
X20256930Y10868904D01*
X20270288Y10888897D01*
X20287285Y10905893D01*
X20296484Y10928102D01*
X20309842Y10948093D01*
X20314532Y10971672D01*
X20323732Y10993882D01*
X20323732Y11017924D01*
X20328422Y11041502D01*
X20325486Y11056261D01*
X20324567Y11060884D01*
X20323732Y11069360D01*
X20323732Y11413645D01*
X20324323Y11420785D01*
X20324435Y11421462D01*
X20328422Y11441502D01*
X20328396Y11441630D01*
X20328422Y11441757D01*
X20324576Y11460987D01*
X20323732Y11469509D01*
X20323732Y11489122D01*
X20316169Y11507381D01*
X20313717Y11515433D01*
X20313670Y11515663D01*
X20309842Y11534911D01*
X20309776Y11535010D01*
X20309008Y11538821D01*
X20308916Y11539284D01*
X20308918Y11539293D01*
X20308907Y11539329D01*
X20224576Y11960987D01*
X20223732Y11969508D01*
X20223732Y11989122D01*
X20216169Y12007381D01*
X20213963Y12014287D01*
X20213823Y12014894D01*
X20209842Y12034911D01*
X20209769Y12035020D01*
X20209744Y12035147D01*
X20208877Y12036441D01*
X20208877Y12036443D01*
X20198830Y12051444D01*
X20194790Y12058991D01*
X20187285Y12077111D01*
X20173313Y12091083D01*
X20167964Y12097586D01*
X20156930Y12114100D01*
X20156830Y12114167D01*
X20156762Y12114269D01*
X20156754Y12114276D01*
X20156749Y12114279D01*
X20156749Y12114280D01*
X20140666Y12125002D01*
X20140428Y12125161D01*
X20133807Y12130589D01*
X20119940Y12144456D01*
X20101684Y12152019D01*
X20094272Y12155968D01*
X20093962Y12156174D01*
X20077741Y12167012D01*
X20077612Y12167038D01*
X20077505Y12167109D01*
X20058268Y12170915D01*
X20050075Y12173396D01*
X20031953Y12180902D01*
X20031952Y12180902D01*
X20012190Y12180902D01*
X20003816Y12181717D01*
X20003713Y12181738D01*
X20003713Y12181737D01*
X20003620Y12181756D01*
X20003359Y12181808D01*
X19984332Y12185592D01*
X19984209Y12185569D01*
X19984082Y12185593D01*
X19964847Y12181746D01*
X19956326Y12180902D01*
X19607910Y12180902D01*
X19584332Y12185592D01*
X19560754Y12180902D01*
X19212189Y12180902D01*
X19203712Y12181737D01*
X19203616Y12181756D01*
X19184332Y12185592D01*
X19165048Y12181756D01*
X19164952Y12181737D01*
X19156475Y12180902D01*
X19136708Y12180902D01*
X19118454Y12173341D01*
X19110308Y12170869D01*
X19090921Y12167012D01*
X19074490Y12156033D01*
X19066980Y12152019D01*
X19048725Y12144458D01*
X19048724Y12144457D01*
X19034746Y12130480D01*
X19034745Y12130481D01*
X19031716Y12127453D01*
X19011734Y12114100D01*
X18998382Y12094120D01*
X18995358Y12091095D01*
X18995354Y12091089D01*
X18981377Y12077111D01*
X18973819Y12058861D01*
X18969805Y12051350D01*
X18958822Y12034911D01*
X18954965Y12015526D01*
X18952493Y12007380D01*
X18944932Y11989126D01*
X18944932Y11969360D01*
X18944097Y11960884D01*
X18940242Y11941503D01*
X17822895Y11941503D01*
X17836937Y11955546D01*
X17856930Y11968904D01*
X17867912Y11985343D01*
X17873307Y11991917D01*
X17887285Y12005893D01*
X17894848Y12024155D01*
X17898861Y12031660D01*
X17909842Y12048093D01*
X17914532Y12071672D01*
X17923732Y12093882D01*
X17923732Y12117924D01*
X17928422Y12141502D01*
X17927834Y12144456D01*
X17924567Y12160884D01*
X17923732Y12169360D01*
X17923732Y12517924D01*
X17928422Y12541502D01*
X17923732Y12565081D01*
X17923732Y12589122D01*
X17916167Y12607384D01*
X17913697Y12615528D01*
X17909842Y12634911D01*
X17896484Y12654903D01*
X17887285Y12677111D01*
X17870288Y12694108D01*
X17856930Y12714100D01*
X17854794Y12715527D01*
X17840497Y12725080D01*
X17840496Y12725081D01*
X17836936Y12727460D01*
X17819941Y12744455D01*
X17797734Y12753655D01*
X17794174Y12756033D01*
X17794173Y12756034D01*
X17777742Y12767012D01*
X17758356Y12770869D01*
X17758356Y12770870D01*
X17754156Y12771706D01*
X17731952Y12780902D01*
X17707914Y12780902D01*
X17703715Y12781737D01*
X17703712Y12781737D01*
X17684332Y12785592D01*
X17664952Y12781737D01*
X17656475Y12780902D01*
X17307910Y12780902D01*
X17284332Y12785592D01*
X17260754Y12780902D01*
X16912189Y12780902D01*
X16903712Y12781737D01*
X16884332Y12785592D01*
X16864952Y12781737D01*
X16856475Y12780902D01*
X16836708Y12780902D01*
X16818454Y12773341D01*
X16810308Y12770869D01*
X16790921Y12767012D01*
X16774490Y12756033D01*
X16766980Y12752019D01*
X16748725Y12744458D01*
X16748724Y12744457D01*
X16734746Y12730480D01*
X16734745Y12730481D01*
X16731716Y12727453D01*
X16711734Y12714100D01*
X16698382Y12694120D01*
X16695358Y12691095D01*
X16695354Y12691089D01*
X16681380Y12677115D01*
X16681376Y12677109D01*
X16673817Y12658858D01*
X16669804Y12651349D01*
X16658822Y12634911D01*
X16654965Y12615526D01*
X16652493Y12607380D01*
X16644932Y12589126D01*
X16644932Y12569360D01*
X16644097Y12560884D01*
X16640867Y12544650D01*
X16640867Y12544647D01*
X16640242Y12541502D01*
X16419682Y12541502D01*
X16419682Y13041503D01*
X18740242Y13041503D01*
X18740242Y13041502D01*
X18744097Y13022122D01*
X18744932Y13013645D01*
X18744932Y12993882D01*
X18746514Y12990063D01*
X18752494Y12975624D01*
X18754965Y12967478D01*
X18758822Y12948093D01*
X18758822Y12948092D01*
X18769801Y12931660D01*
X18772179Y12928100D01*
X18781379Y12905893D01*
X18798375Y12888897D01*
X18800752Y12885340D01*
X18800754Y12885337D01*
X18813914Y12865641D01*
X18820401Y12833025D01*
X18813913Y12817362D01*
X18800753Y12797667D01*
X18795352Y12791085D01*
X18781379Y12777112D01*
X18781377Y12777109D01*
X18773814Y12758852D01*
X18769802Y12751346D01*
X18758822Y12734911D01*
X18754965Y12715526D01*
X18754964Y12715527D01*
X18754128Y12711328D01*
X18744932Y12689122D01*
X18744932Y12665085D01*
X18744097Y12660886D01*
X18744097Y12660884D01*
X18740242Y12641503D01*
X18740242Y12641502D01*
X18744097Y12622122D01*
X18744932Y12613645D01*
X18744932Y12593882D01*
X18746904Y12589122D01*
X18752494Y12575624D01*
X18754965Y12567478D01*
X18758822Y12548093D01*
X18758822Y12548092D01*
X18769801Y12531660D01*
X18772179Y12528100D01*
X18781379Y12505893D01*
X18798375Y12488897D01*
X18811734Y12468904D01*
X18831726Y12455546D01*
X18848723Y12438549D01*
X18870931Y12429350D01*
X18890923Y12415992D01*
X18914501Y12411302D01*
X18936712Y12402102D01*
X18960754Y12402102D01*
X18984332Y12397412D01*
X19003712Y12401268D01*
X19012189Y12402102D01*
X19360754Y12402102D01*
X19384332Y12397412D01*
X19407910Y12402102D01*
X19431952Y12402102D01*
X19450212Y12409666D01*
X19458357Y12412137D01*
X19477741Y12415992D01*
X19497732Y12429350D01*
X19519941Y12438549D01*
X19536937Y12455546D01*
X19556930Y12468904D01*
X19570288Y12488897D01*
X19587285Y12505893D01*
X19596484Y12528102D01*
X19609842Y12548093D01*
X19614532Y12571672D01*
X19623732Y12593882D01*
X19623732Y12617924D01*
X19628422Y12641502D01*
X19626463Y12651349D01*
X19624567Y12660884D01*
X19623732Y12669360D01*
X19623732Y12689122D01*
X19616167Y12707384D01*
X19613697Y12715528D01*
X19609842Y12734911D01*
X19596484Y12754903D01*
X19587285Y12777111D01*
X19570288Y12794108D01*
X19556930Y12814100D01*
X19556929Y12814101D01*
X19554749Y12817364D01*
X19548262Y12849980D01*
X19554749Y12865642D01*
X19556927Y12868903D01*
X19556930Y12868904D01*
X19567915Y12885347D01*
X19573307Y12891917D01*
X19587285Y12905893D01*
X19594848Y12924155D01*
X19598861Y12931660D01*
X19609842Y12948093D01*
X19614532Y12971672D01*
X19623732Y12993882D01*
X19623732Y13017924D01*
X19628422Y13041502D01*
X19624567Y13060884D01*
X19623732Y13069360D01*
X19623732Y13089122D01*
X19616167Y13107384D01*
X19613697Y13115528D01*
X19609842Y13134911D01*
X19596484Y13154903D01*
X19587285Y13177111D01*
X19570288Y13194108D01*
X19556930Y13214100D01*
X19556927Y13214102D01*
X19540497Y13225080D01*
X19540496Y13225081D01*
X19536936Y13227460D01*
X19519941Y13244455D01*
X19497734Y13253655D01*
X19494174Y13256033D01*
X19494173Y13256034D01*
X19477742Y13267012D01*
X19458356Y13270869D01*
X19458356Y13270870D01*
X19454156Y13271706D01*
X19431952Y13280902D01*
X19407914Y13280902D01*
X19403715Y13281737D01*
X19403712Y13281737D01*
X19384332Y13285592D01*
X19364952Y13281737D01*
X19356475Y13280902D01*
X19007910Y13280902D01*
X18984332Y13285592D01*
X18960754Y13280902D01*
X18936708Y13280902D01*
X18918454Y13273341D01*
X18910308Y13270869D01*
X18890923Y13267012D01*
X18874490Y13256035D01*
X18874491Y13256034D01*
X18874490Y13256033D01*
X18870931Y13253655D01*
X18848723Y13244455D01*
X18831727Y13227461D01*
X18828168Y13225082D01*
X18811736Y13214102D01*
X18811732Y13214098D01*
X18800752Y13197668D01*
X18800753Y13197667D01*
X18798375Y13194108D01*
X18781379Y13177111D01*
X18772179Y13154906D01*
X18769803Y13151348D01*
X18769802Y13151346D01*
X18758822Y13134911D01*
X18754965Y13115526D01*
X18752493Y13107380D01*
X18744932Y13089126D01*
X18744932Y13069360D01*
X18744097Y13060884D01*
X18740242Y13041503D01*
X16419682Y13041503D01*
X16419682Y14741503D01*
X16640242Y14741503D01*
X16640242Y14741502D01*
X16644097Y14722122D01*
X16644932Y14713645D01*
X16644932Y14365081D01*
X16640242Y14341502D01*
X16644932Y14317924D01*
X16644932Y14293882D01*
X16646419Y14290293D01*
X16652494Y14275624D01*
X16654965Y14267478D01*
X16658822Y14248093D01*
X16658822Y14248092D01*
X16669801Y14231660D01*
X16672179Y14228100D01*
X16681379Y14205893D01*
X16698375Y14188897D01*
X16711734Y14168904D01*
X16731726Y14155546D01*
X16748723Y14138549D01*
X16770931Y14129350D01*
X16790923Y14115992D01*
X16814501Y14111302D01*
X16836712Y14102102D01*
X16860754Y14102102D01*
X16884332Y14097412D01*
X16903712Y14101268D01*
X16912189Y14102102D01*
X16931952Y14102102D01*
X17236712Y14102102D01*
X17260754Y14102102D01*
X17284332Y14097412D01*
X17307910Y14102102D01*
X17331952Y14102102D01*
X17636712Y14102102D01*
X17656475Y14102102D01*
X17664951Y14101268D01*
X17684332Y14097412D01*
X17703712Y14101268D01*
X17712189Y14102102D01*
X17731951Y14102102D01*
X17731952Y14102102D01*
X17750212Y14109666D01*
X17758357Y14112137D01*
X17777741Y14115992D01*
X17797732Y14129350D01*
X17819941Y14138549D01*
X17836937Y14155546D01*
X17856930Y14168904D01*
X17870288Y14188897D01*
X17887285Y14205893D01*
X17896484Y14228102D01*
X17909842Y14248093D01*
X17914532Y14271672D01*
X17923732Y14293882D01*
X17923732Y14317924D01*
X17928422Y14341502D01*
X17925756Y14354903D01*
X17924567Y14360884D01*
X17923732Y14369360D01*
X17923732Y14717924D01*
X17928422Y14741502D01*
X17923732Y14765081D01*
X17923732Y14789122D01*
X17916167Y14807384D01*
X17913697Y14815528D01*
X17909842Y14834911D01*
X17897087Y14854000D01*
X17896483Y14854905D01*
X17887285Y14877111D01*
X17870288Y14894108D01*
X17856930Y14914100D01*
X17836937Y14927459D01*
X17819941Y14944455D01*
X17797734Y14953655D01*
X17794174Y14956033D01*
X17794173Y14956034D01*
X17777742Y14967012D01*
X17758356Y14970869D01*
X17758356Y14970870D01*
X17754156Y14971706D01*
X17731952Y14980902D01*
X17707914Y14980902D01*
X17703715Y14981737D01*
X17703712Y14981737D01*
X17684332Y14985592D01*
X17664952Y14981737D01*
X17656475Y14980902D01*
X17307910Y14980902D01*
X17284332Y14985592D01*
X17260754Y14980902D01*
X16912189Y14980902D01*
X16903712Y14981737D01*
X16884332Y14985592D01*
X16864952Y14981737D01*
X16856475Y14980902D01*
X16836708Y14980902D01*
X16818454Y14973341D01*
X16810308Y14970869D01*
X16790921Y14967012D01*
X16774490Y14956033D01*
X16766980Y14952019D01*
X16748725Y14944458D01*
X16748724Y14944457D01*
X16734746Y14930480D01*
X16734745Y14930481D01*
X16731716Y14927453D01*
X16711734Y14914100D01*
X16698382Y14894120D01*
X16695358Y14891095D01*
X16695354Y14891089D01*
X16681378Y14877112D01*
X16681378Y14877111D01*
X16675853Y14863771D01*
X16675852Y14863768D01*
X16673814Y14858850D01*
X16669803Y14851347D01*
X16658822Y14834911D01*
X16654965Y14815526D01*
X16652493Y14807380D01*
X16644932Y14789126D01*
X16644932Y14769360D01*
X16644097Y14760884D01*
X16640242Y14741503D01*
X16419682Y14741503D01*
X16419682Y15789466D01*
X16409156Y15814878D01*
X16396405Y15845663D01*
X15892006Y16350062D01*
X15851083Y16367012D01*
X15851083Y16367013D01*
X15851081Y16367013D01*
X15835810Y16373339D01*
X15835809Y16373339D01*
X12965663Y16373339D01*
X12934939Y16386065D01*
X12852099Y16468905D01*
X12747480Y16573525D01*
X12707742Y16589985D01*
X12707741Y16589986D01*
X12707741Y16589987D01*
X12691286Y16596801D01*
X12691284Y16596802D01*
X12691283Y16596802D01*
X12359067Y16596802D01*
X12298240Y16596802D01*
X12242043Y16573524D01*
X12242041Y16573523D01*
X11872496Y16203978D01*
X11841772Y16191252D01*
X10168813Y16191252D01*
X10138089Y16203978D01*
X9999958Y16342110D01*
X9987232Y16372834D01*
X9987232Y16432519D01*
X9999958Y16463243D01*
X10006545Y16468647D01*
X10006930Y16468904D01*
X10059842Y16548093D01*
X10078422Y16641502D01*
X10059842Y16734911D01*
X10006930Y16814100D01*
X10004098Y16815992D01*
X9975784Y16834911D01*
X9927741Y16867012D01*
X9834332Y16885592D01*
X9740923Y16867012D01*
X9661734Y16814101D01*
X9661733Y16814100D01*
X9613226Y16741502D01*
X9608822Y16734911D01*
X9590242Y16641502D01*
X9608822Y16548093D01*
X9661734Y16468904D01*
X9662115Y16468649D01*
X9662371Y16468266D01*
X9664758Y16465880D01*
X9664283Y16465406D01*
X9680596Y16441003D01*
X9681432Y16432519D01*
X9681432Y16321915D01*
X9681432Y16261089D01*
X9704709Y16204891D01*
X9812188Y16097412D01*
X9860075Y16049526D01*
X9872801Y16018802D01*
X9860075Y15988078D01*
X9829351Y15975352D01*
X8241025Y15975352D01*
X8210301Y15988078D01*
X8197575Y16018802D01*
X8204897Y16042941D01*
X8208339Y16048093D01*
X8221348Y16067562D01*
X8239928Y16160971D01*
X8221348Y16254380D01*
X8168436Y16333569D01*
X8168434Y16333571D01*
X8148998Y16346558D01*
X8130523Y16374209D01*
X8129688Y16382685D01*
X8129688Y16715619D01*
X8129688Y16715620D01*
X8109310Y16764816D01*
X8102846Y16771280D01*
X8098271Y16776856D01*
X7730908Y17144219D01*
X7718182Y17174943D01*
X7718182Y17419789D01*
X7730908Y17450513D01*
X7737493Y17455917D01*
X7756930Y17468904D01*
X7809842Y17548093D01*
X7828422Y17641502D01*
X7809842Y17734911D01*
X7756930Y17814100D01*
X7741965Y17824099D01*
X7730652Y17831659D01*
X7677741Y17867012D01*
X7584332Y17885592D01*
X7490923Y17867012D01*
X7411734Y17814101D01*
X7411733Y17814100D01*
X7400042Y17796602D01*
X7358822Y17734911D01*
X7340242Y17641502D01*
X7358822Y17548093D01*
X7378165Y17519144D01*
X7411733Y17468905D01*
X7431171Y17455917D01*
X7449647Y17428266D01*
X7450482Y17419789D01*
X7450482Y17128126D01*
X7450482Y17074878D01*
X7470860Y17025682D01*
X7549053Y16947489D01*
X7561779Y16916765D01*
X7549053Y16886041D01*
X7526806Y16874150D01*
X7490923Y16867013D01*
X7490923Y16867012D01*
X7411734Y16814101D01*
X7411733Y16814100D01*
X7363226Y16741502D01*
X7358822Y16734911D01*
X7340242Y16641502D01*
X7358822Y16548093D01*
X7411734Y16468904D01*
X7431171Y16455917D01*
X7449647Y16428266D01*
X7450482Y16419789D01*
X7450482Y16075126D01*
X7450482Y16021878D01*
X7470860Y15972682D01*
X7470861Y15972681D01*
X7572538Y15871004D01*
X7585264Y15840280D01*
X7572538Y15809556D01*
X7541814Y15796830D01*
X-69050Y15796830D01*
X-118246Y15776452D01*
X-118248Y15776451D01*
X-351152Y15543547D01*
X-351153Y15543546D01*
X-351153Y15543545D01*
X-370024Y15497985D01*
X-371531Y15494348D01*
X-371531Y13615196D01*
X-384257Y13584472D01*
X-630651Y13338078D01*
X-661375Y13325352D01*
X-988555Y13325352D01*
X-1041803Y13325352D01*
X-1090999Y13304974D01*
X-1091001Y13304973D01*
X-1379139Y13016835D01*
X-1379140Y13016834D01*
X-1379140Y13016833D01*
X-1397846Y12971672D01*
X-1399518Y12967636D01*
X-1399518Y12443468D01*
X-1412244Y12412744D01*
X-1791089Y12033900D01*
X-1791090Y12033899D01*
X-1791090Y12033898D01*
X-1811205Y11985335D01*
X-1811468Y11984701D01*
X-1811468Y10014868D01*
X-1824194Y9984144D01*
X-2258310Y9550028D01*
X-2289034Y9537302D01*
X-3349038Y9537302D01*
X-3357023Y9540610D01*
X-3365664Y9540609D01*
X-3371776Y9546720D01*
X-3379762Y9550028D01*
X-3383070Y9558013D01*
X-3389180Y9564123D01*
X-3389181Y9572767D01*
X-3392488Y9580752D01*
X-3389181Y9597378D01*
X-3388659Y9598639D01*
X-3374444Y9632960D01*
X-3373555Y9634957D01*
X-3354356Y9675245D01*
X-3353987Y9682347D01*
X-3351268Y9688910D01*
X-3351268Y9734611D01*
X-3348892Y9780288D01*
X-3348893Y9780289D01*
X-3349231Y9782616D01*
X-3351268Y9794464D01*
X-3351268Y10101963D01*
X-3347449Y10114446D01*
X-3351268Y10154182D01*
X-3351268Y10484672D01*
X-3351159Y10485798D01*
X-3351167Y10489428D01*
X-3351165Y10489430D01*
X-3351183Y10498207D01*
X-3349481Y10510332D01*
X-3347008Y10518904D01*
X-3166984Y11143052D01*
X-3161491Y11151036D01*
X-3152492Y11193294D01*
X-3140518Y11234807D01*
X-3141295Y11241717D01*
X-3141601Y11244440D01*
X-3139582Y11253914D01*
X-3147438Y11296390D01*
X-3152262Y11339334D01*
X-3153542Y11341651D01*
X-3158230Y11354751D01*
X-3169121Y11413645D01*
X-3230261Y11744246D01*
X-3230867Y11748971D01*
X-3231172Y11753144D01*
X-3229989Y11763036D01*
X-3232565Y11772209D01*
X-3232884Y11776574D01*
X-3232548Y11777592D01*
X-3232978Y11781131D01*
X-3232812Y11786280D01*
X-3241693Y11809826D01*
X-3243759Y11817242D01*
X-3248334Y11841983D01*
X-3251484Y11846838D01*
X-3253857Y11850976D01*
X-3255734Y11854710D01*
X-3258427Y11864304D01*
X-3264319Y11871795D01*
X-3266283Y11875703D01*
X-3266362Y11876775D01*
X-3268116Y11879886D01*
X-3269930Y11884698D01*
X-3287139Y11903047D01*
X-3291891Y11909113D01*
X-3305587Y11930222D01*
X-3308766Y11932409D01*
X-3310353Y11933501D01*
X-3314129Y11936416D01*
X-3317294Y11939149D01*
X-3323453Y11946981D01*
X-3331764Y11951648D01*
X-3335076Y11954509D01*
X-3335558Y11955467D01*
X-3338366Y11957667D01*
X-3341887Y11961421D01*
X-3364804Y11971786D01*
X-3371522Y11975576D01*
X-3377942Y11979992D01*
X-3392249Y11989833D01*
X-3392251Y11989834D01*
X-3392254Y11989835D01*
X-3397905Y11991038D01*
X-3402514Y11992287D01*
X-3406484Y11993602D01*
X-3415170Y11998479D01*
X-3424629Y11999610D01*
X-3428785Y12000986D01*
X-3429596Y12001687D01*
X-3433029Y12002643D01*
X-3437723Y12004766D01*
X-3462875Y12005573D01*
X-3470529Y12006504D01*
X-3495128Y12011742D01*
X-3495131Y12011743D01*
X-3500816Y12010691D01*
X-3513869Y12010274D01*
X-3940799Y12061290D01*
X-3941935Y12061441D01*
X-3949000Y12062475D01*
X-3953426Y12064729D01*
X-3977124Y12066590D01*
X-3978574Y12066802D01*
X-3979029Y12067074D01*
X-3984054Y12067969D01*
X-4005539Y12074016D01*
X-4005540Y12074016D01*
X-4012747Y12073160D01*
X-4021335Y12072139D01*
X-4028110Y12071867D01*
X-4029874Y12071935D01*
X-4047401Y12074028D01*
X-4051884Y12072771D01*
X-4057955Y12073001D01*
X-4058292Y12072961D01*
X-4079517Y12066060D01*
X-4087822Y12064235D01*
X-4503013Y12014877D01*
X-4511165Y12014678D01*
X-4534230Y12016379D01*
X-4534461Y12016304D01*
X-4534712Y12016321D01*
X-4538290Y12015883D01*
X-4538312Y12015868D01*
X-4538902Y12015793D01*
X-4538961Y12016258D01*
X-4539937Y12016118D01*
X-4539863Y12015659D01*
X-4544088Y12014979D01*
X-4558937Y12009458D01*
X-4568946Y12007039D01*
X-4584666Y12005170D01*
X-4584668Y12005169D01*
X-4604689Y11993944D01*
X-4612128Y11990647D01*
X-4612358Y11990571D01*
X-4634106Y11983385D01*
X-4634301Y11983218D01*
X-4634542Y11983137D01*
X-4634547Y11983134D01*
X-4634571Y11983125D01*
X-4637620Y11981404D01*
X-4637644Y11981367D01*
X-4638182Y11981059D01*
X-4638415Y11981465D01*
X-4639280Y11980952D01*
X-4639038Y11980561D01*
X-4642683Y11978315D01*
X-4654287Y11967534D01*
X-4662604Y11961472D01*
X-4667113Y11958943D01*
X-4700135Y11955013D01*
X-4726264Y11975584D01*
X-4731818Y11996839D01*
X-4731818Y13818126D01*
X-4732140Y13818901D01*
X-4732140Y13818926D01*
X-4732148Y13818922D01*
X-4752195Y13867322D01*
X-9753324Y18868451D01*
X-9766050Y18899175D01*
X-9753324Y18929899D01*
X-9722600Y18942625D01*
X15891266Y18942625D01*
X15921990Y18929899D01*
X15934716Y18899175D01*
X15921990Y18868452D01*
X15786967Y18733429D01*
X15402401Y18348864D01*
X15402400Y18348863D01*
X15402399Y18348864D01*
X15370861Y18317325D01*
X15350482Y18268125D01*
X15350482Y17827326D01*
X15337756Y17796602D01*
X15307032Y17783876D01*
X15276308Y17796602D01*
X15270905Y17803186D01*
X15256931Y17824099D01*
X15256929Y17824101D01*
X15230652Y17841659D01*
X15177741Y17877012D01*
X15084332Y17895592D01*
X14990923Y17877012D01*
X14911734Y17824101D01*
X14911733Y17824100D01*
X14884857Y17783876D01*
X14858822Y17744911D01*
X14840242Y17651502D01*
X14858822Y17558093D01*
X14911734Y17478904D01*
X14990923Y17425992D01*
X15084332Y17407412D01*
X15164320Y17423323D01*
X15168684Y17422455D01*
X15172796Y17424158D01*
X15184504Y17419309D01*
X15196935Y17416836D01*
X15199407Y17413136D01*
X15203520Y17411432D01*
X15208370Y17399723D01*
X15215411Y17389185D01*
X15214542Y17384820D01*
X15216246Y17380708D01*
X15211396Y17369000D01*
X15208924Y17356569D01*
X15203520Y17349984D01*
X15146459Y17292923D01*
X15115735Y17280197D01*
X15107259Y17281032D01*
X15084333Y17285592D01*
X15084332Y17285592D01*
X14990923Y17267012D01*
X14911734Y17214101D01*
X14911733Y17214100D01*
X14865041Y17144219D01*
X14858822Y17134911D01*
X14840242Y17041502D01*
X14858822Y16948093D01*
X14874198Y16925081D01*
X14908228Y16874150D01*
X14911734Y16868904D01*
X14990923Y16815992D01*
X15084332Y16797412D01*
X15177741Y16815992D01*
X15256930Y16868904D01*
X15309842Y16948093D01*
X15328422Y17041502D01*
X15323861Y17064431D01*
X15330348Y17097047D01*
X15335747Y17103627D01*
X15553610Y17321489D01*
X15584331Y17334213D01*
X15615055Y17321487D01*
X15832911Y17103631D01*
X15845637Y17072907D01*
X15844802Y17064431D01*
X15840242Y17041504D01*
X15840242Y17041502D01*
X15858822Y16948093D01*
X15874198Y16925081D01*
X15908228Y16874150D01*
X15911734Y16868904D01*
X15990923Y16815992D01*
X16084332Y16797412D01*
X16177741Y16815992D01*
X16256930Y16868904D01*
X16309842Y16948093D01*
X16328422Y17041502D01*
X16309842Y17134911D01*
X16256930Y17214100D01*
X16254098Y17215992D01*
X16191342Y17257924D01*
X16177741Y17267012D01*
X16107257Y17281032D01*
X16084333Y17285592D01*
X16084331Y17285592D01*
X16061403Y17281032D01*
X16028787Y17287520D01*
X16022203Y17292923D01*
X15808708Y17506418D01*
X15795982Y17537142D01*
X15795982Y18094414D01*
X15808708Y18125138D01*
X16142762Y18459191D01*
X16173486Y18471917D01*
X18396627Y18471917D01*
X18427350Y18459192D01*
X18533511Y18353030D01*
X18547920Y18347062D01*
X18582708Y18332652D01*
X18598771Y18332652D01*
X18604679Y18330945D01*
X18613230Y18324115D01*
X18623343Y18319926D01*
X18628746Y18313342D01*
X18641734Y18293904D01*
X18720923Y18240992D01*
X18814332Y18222412D01*
X18907741Y18240992D01*
X18986930Y18293904D01*
X19039842Y18373093D01*
X19058422Y18466502D01*
X19039842Y18559911D01*
X19020435Y18588955D01*
X19013949Y18621570D01*
X19032425Y18649221D01*
X19056564Y18656543D01*
X19628633Y18656543D01*
X19659357Y18643817D01*
X20148098Y18155076D01*
X20160824Y18124352D01*
X20148098Y18093628D01*
X20117374Y18080902D01*
X20112189Y18080902D01*
X20103712Y18081737D01*
X20084332Y18085592D01*
X20064952Y18081737D01*
X20056475Y18080902D01*
X19731952Y18080902D01*
X19707910Y18080902D01*
X19684332Y18085592D01*
X19660754Y18080902D01*
X19636708Y18080902D01*
X19618454Y18073341D01*
X19610308Y18070869D01*
X19590921Y18067012D01*
X19574490Y18056033D01*
X19566980Y18052019D01*
X19548725Y18044458D01*
X19548724Y18044457D01*
X19548723Y18044456D01*
X19531723Y18027457D01*
X19511734Y18014100D01*
X19498377Y17994111D01*
X19495354Y17991088D01*
X19481377Y17977110D01*
X19481376Y17977109D01*
X19473815Y17958854D01*
X19472176Y17954899D01*
X19458822Y17934911D01*
X19454132Y17911340D01*
X19452493Y17907382D01*
X19452493Y17907380D01*
X19444932Y17889126D01*
X19444932Y17889122D01*
X19444932Y17865081D01*
X19440242Y17841502D01*
X19444932Y17817924D01*
X19444932Y17469360D01*
X19444097Y17460884D01*
X19440242Y17441503D01*
X19440242Y17441502D01*
X19444097Y17422122D01*
X19444932Y17413645D01*
X19444932Y17393882D01*
X19451337Y17378417D01*
X19452494Y17375624D01*
X19454965Y17367478D01*
X19458822Y17348093D01*
X19458822Y17348092D01*
X19469801Y17331660D01*
X19472179Y17328100D01*
X19481379Y17305893D01*
X19498375Y17288897D01*
X19511734Y17268904D01*
X19531726Y17255546D01*
X19548723Y17238549D01*
X19570931Y17229350D01*
X19590923Y17215992D01*
X19614501Y17211302D01*
X19636712Y17202102D01*
X19660754Y17202102D01*
X19684332Y17197412D01*
X19703712Y17201268D01*
X19712189Y17202102D01*
X19731952Y17202102D01*
X20036712Y17202102D01*
X20060754Y17202102D01*
X20084332Y17197412D01*
X20107910Y17202102D01*
X20131952Y17202102D01*
X20150212Y17209666D01*
X20158357Y17212137D01*
X20177741Y17215992D01*
X20197732Y17229350D01*
X20219941Y17238549D01*
X20236937Y17255546D01*
X20256930Y17268904D01*
X20267916Y17285348D01*
X20273311Y17291921D01*
X20276313Y17294923D01*
X20307039Y17307643D01*
X20337761Y17294912D01*
X20350482Y17264193D01*
X20350482Y16918812D01*
X20337756Y16888088D01*
X20307032Y16875362D01*
X20276308Y16888088D01*
X20273313Y16891083D01*
X20267909Y16897668D01*
X20256929Y16914101D01*
X20240497Y16925080D01*
X20240496Y16925081D01*
X20236936Y16927460D01*
X20219941Y16944455D01*
X20197734Y16953655D01*
X20194174Y16956033D01*
X20194173Y16956034D01*
X20177742Y16967012D01*
X20158356Y16970869D01*
X20158356Y16970870D01*
X20154156Y16971706D01*
X20131952Y16980902D01*
X20107914Y16980902D01*
X20103715Y16981737D01*
X20103712Y16981737D01*
X20084332Y16985592D01*
X20064952Y16981737D01*
X20056475Y16980902D01*
X19731952Y16980902D01*
X19707910Y16980902D01*
X19684332Y16985592D01*
X19660754Y16980902D01*
X19636708Y16980902D01*
X19618454Y16973341D01*
X19610308Y16970869D01*
X19590921Y16967012D01*
X19574490Y16956033D01*
X19566980Y16952019D01*
X19548725Y16944458D01*
X19548724Y16944457D01*
X19548723Y16944456D01*
X19531723Y16927457D01*
X19511734Y16914100D01*
X19498377Y16894111D01*
X19495354Y16891088D01*
X19481377Y16877110D01*
X19481376Y16877109D01*
X19473815Y16858854D01*
X19472176Y16854899D01*
X19458822Y16834911D01*
X19454132Y16811340D01*
X19452493Y16807382D01*
X19452493Y16807380D01*
X19444932Y16789126D01*
X19444932Y16789122D01*
X19444932Y16765081D01*
X19440242Y16741502D01*
X19444932Y16717924D01*
X19444932Y16369360D01*
X19444097Y16360884D01*
X19440242Y16341503D01*
X19440242Y16341502D01*
X19444097Y16322122D01*
X19444932Y16313645D01*
X19444932Y16293882D01*
X19451337Y16278417D01*
X19452494Y16275624D01*
X19454965Y16267478D01*
X19458822Y16248093D01*
X19458822Y16248092D01*
X19469801Y16231660D01*
X19472179Y16228100D01*
X19481379Y16205893D01*
X19498375Y16188897D01*
X19511734Y16168904D01*
X19531726Y16155546D01*
X19548723Y16138549D01*
X19570931Y16129350D01*
X19590923Y16115992D01*
X19614501Y16111302D01*
X19636712Y16102102D01*
X19660754Y16102102D01*
X19684332Y16097412D01*
X19703712Y16101268D01*
X19712189Y16102102D01*
X20036712Y16102102D01*
X20056475Y16102102D01*
X20056566Y16102065D01*
X20056659Y16102102D01*
X20064951Y16101268D01*
X20084332Y16097412D01*
X20103712Y16101267D01*
X20103766Y16101257D01*
X20112189Y16102102D01*
X20131951Y16102102D01*
X20131952Y16102102D01*
X20150212Y16109666D01*
X20158357Y16112137D01*
X20177741Y16115992D01*
X20197732Y16129350D01*
X20219941Y16138549D01*
X20236937Y16155546D01*
X20256930Y16168904D01*
X20267916Y16185348D01*
X20273311Y16191921D01*
X20276313Y16194923D01*
X20307039Y16207643D01*
X20337761Y16194912D01*
X20350482Y16164193D01*
X20350482Y15920096D01*
X20337756Y15889372D01*
X20307032Y15876646D01*
X20276308Y15889372D01*
X20269773Y15897742D01*
X20265114Y15905508D01*
X20262242Y15908673D01*
X20262319Y15908744D01*
X20259957Y15911179D01*
X20259899Y15911121D01*
X20259697Y15911324D01*
X20259628Y15911407D01*
X20257089Y15913942D01*
X20257015Y15914015D01*
X20256754Y15914276D01*
X20256749Y15914279D01*
X20256749Y15914280D01*
X20245870Y15921533D01*
X20240428Y15925161D01*
X20233807Y15930589D01*
X20219940Y15944456D01*
X20208110Y15949356D01*
X20202370Y15952249D01*
X20200562Y15953335D01*
X20188592Y15962204D01*
X20183794Y15963404D01*
X20178246Y15966736D01*
X20178173Y15966835D01*
X20177965Y15966920D01*
X20177840Y15966972D01*
X20177515Y15967107D01*
X20177181Y15967173D01*
X20176774Y15967254D01*
X20158266Y15970916D01*
X20150075Y15973396D01*
X20143780Y15976003D01*
X20131952Y15980902D01*
X20131950Y15980902D01*
X20119150Y15980902D01*
X20108613Y15982199D01*
X20096193Y15985304D01*
X20091920Y15985512D01*
X20091924Y15985595D01*
X20088482Y15985635D01*
X20088482Y15985576D01*
X20088073Y15985578D01*
X20087791Y15985606D01*
X20084493Y15985593D01*
X20084171Y15985593D01*
X20084088Y15985594D01*
X20064851Y15981746D01*
X20056330Y15980902D01*
X20036709Y15980902D01*
X20024881Y15976003D01*
X20018781Y15973991D01*
X20016734Y15973481D01*
X20001995Y15971286D01*
X19997753Y15968742D01*
X19991471Y15967173D01*
X19991348Y15967192D01*
X19991079Y15967078D01*
X19990747Y15966940D01*
X19990698Y15966921D01*
X19974390Y15956000D01*
X19966846Y15951963D01*
X19961830Y15949886D01*
X19948722Y15944455D01*
X19948721Y15944454D01*
X19939670Y15935404D01*
X19931305Y15928874D01*
X19503301Y15672071D01*
X19495828Y15668507D01*
X19492691Y15667364D01*
X19490923Y15667012D01*
X19489958Y15666368D01*
X19486044Y15664941D01*
X19483935Y15663989D01*
X19460966Y15647583D01*
X19455907Y15644469D01*
X19430906Y15631346D01*
X19430755Y15631224D01*
X19426398Y15626752D01*
X19423444Y15624157D01*
X19420328Y15622286D01*
X19418483Y15619797D01*
X19415006Y15616741D01*
X19414050Y15616416D01*
X19409038Y15611404D01*
X19406431Y15608629D01*
X19391489Y15584684D01*
X19388007Y15579871D01*
X18926585Y15026162D01*
X18925689Y15025120D01*
X18921982Y15020949D01*
X18911734Y15014100D01*
X18899094Y14995186D01*
X18897109Y14992950D01*
X18896731Y14992767D01*
X18895352Y14991086D01*
X18881378Y14977112D01*
X18881378Y14977111D01*
X18879625Y14972879D01*
X18877958Y14969320D01*
X18875816Y14965239D01*
X18869934Y14958179D01*
X18866751Y14947967D01*
X18864917Y14944470D01*
X18864152Y14943833D01*
X18862573Y14940525D01*
X18858822Y14934911D01*
X18854965Y14915526D01*
X18854240Y14912469D01*
X18853522Y14909864D01*
X18844932Y14889122D01*
X18844932Y14878673D01*
X18843372Y14873008D01*
X18843128Y14872696D01*
X18842965Y14871621D01*
X18841604Y14867252D01*
X18842215Y14860527D01*
X18841558Y14848121D01*
X18840242Y14841504D01*
X18840242Y14841502D01*
X18844097Y14822122D01*
X18844599Y14819015D01*
X18844932Y14816342D01*
X18844932Y14793882D01*
X18848931Y14784227D01*
X18849658Y14778395D01*
X18849552Y14778013D01*
X18849812Y14776961D01*
X18850226Y14772409D01*
X18850228Y14772401D01*
X18853362Y14766430D01*
X18857503Y14754718D01*
X18858820Y14748098D01*
X18858823Y14748090D01*
X18869802Y14731658D01*
X18871454Y14728982D01*
X18872785Y14726639D01*
X18881379Y14705893D01*
X18888767Y14698505D01*
X18891669Y14693397D01*
X18891718Y14693003D01*
X18892362Y14692128D01*
X18894489Y14688075D01*
X18899676Y14683753D01*
X18907981Y14674520D01*
X18911734Y14668904D01*
X18927817Y14658158D01*
X18928167Y14657924D01*
X18930718Y14656082D01*
X18932848Y14654424D01*
X18948723Y14638549D01*
X18958375Y14634551D01*
X18963011Y14630942D01*
X18963206Y14630599D01*
X18964136Y14630037D01*
X18967655Y14627104D01*
X18974095Y14625098D01*
X18985313Y14619740D01*
X18990918Y14615994D01*
X18990922Y14615993D01*
X18990923Y14615992D01*
X19010315Y14612135D01*
X19013365Y14611413D01*
X19015956Y14610700D01*
X19036712Y14602102D01*
X19047165Y14602102D01*
X19052828Y14600542D01*
X19053141Y14600299D01*
X19054213Y14600136D01*
X19058582Y14598774D01*
X19065298Y14599385D01*
X19077712Y14598729D01*
X19084332Y14597412D01*
X19103712Y14601268D01*
X19112189Y14602102D01*
X19456475Y14602102D01*
X19462902Y14601624D01*
X19463929Y14601471D01*
X19484332Y14597412D01*
X19484461Y14597438D01*
X19484587Y14597413D01*
X19487355Y14597968D01*
X19490553Y14597489D01*
X19491942Y14597532D01*
X19491947Y14597531D01*
X19491951Y14597533D01*
X19492500Y14597549D01*
X19492521Y14597549D01*
X19494444Y14597609D01*
X19494492Y14597610D01*
X19495385Y14597638D01*
X19495638Y14597673D01*
X19496191Y14597701D01*
X19496197Y14597700D01*
X19508617Y14600805D01*
X19519155Y14602102D01*
X19531951Y14602102D01*
X19531952Y14602102D01*
X19550213Y14609667D01*
X19557059Y14611858D01*
X19557690Y14612004D01*
X19577741Y14615992D01*
X19577849Y14616065D01*
X19577977Y14616090D01*
X19579340Y14617004D01*
X19581240Y14617442D01*
X19584725Y14619015D01*
X19584731Y14619016D01*
X19584735Y14619020D01*
X19585236Y14619245D01*
X19592569Y14621794D01*
X19898758Y14698342D01*
X19899745Y14698575D01*
X19905954Y14699963D01*
X19914861Y14699329D01*
X19938733Y14707288D01*
X19940893Y14707770D01*
X19941289Y14707701D01*
X19943962Y14708341D01*
X19951457Y14709456D01*
X19983716Y14701390D01*
X20000826Y14672874D01*
X19992760Y14640612D01*
X19988573Y14635755D01*
X19845860Y14493042D01*
X19815136Y14480316D01*
X19806660Y14481151D01*
X19784333Y14485592D01*
X19784332Y14485592D01*
X19690923Y14467012D01*
X19608470Y14411920D01*
X19599992Y14410234D01*
X19592807Y14405433D01*
X19584331Y14407120D01*
X19575854Y14405433D01*
X19560191Y14411921D01*
X19540496Y14425081D01*
X19540495Y14425082D01*
X19533912Y14430484D01*
X19519940Y14444456D01*
X19501684Y14452019D01*
X19494176Y14456032D01*
X19477742Y14467012D01*
X19458356Y14470869D01*
X19450210Y14473340D01*
X19442290Y14476620D01*
X19431952Y14480902D01*
X19431950Y14480902D01*
X19407910Y14480902D01*
X19384332Y14485592D01*
X19360754Y14480902D01*
X19012189Y14480902D01*
X19003712Y14481737D01*
X18984332Y14485592D01*
X18964952Y14481737D01*
X18956475Y14480902D01*
X18936708Y14480902D01*
X18918454Y14473341D01*
X18910308Y14470869D01*
X18890923Y14467012D01*
X18874490Y14456035D01*
X18874491Y14456034D01*
X18870931Y14453655D01*
X18848723Y14444455D01*
X18831727Y14427461D01*
X18828168Y14425082D01*
X18811736Y14414102D01*
X18811732Y14414098D01*
X18800752Y14397668D01*
X18800753Y14397667D01*
X18798375Y14394108D01*
X18781379Y14377111D01*
X18772180Y14354908D01*
X18769801Y14351346D01*
X18769802Y14351346D01*
X18758822Y14334911D01*
X18754965Y14315526D01*
X18754964Y14315527D01*
X18754128Y14311328D01*
X18744932Y14289122D01*
X18744932Y14265085D01*
X18744097Y14260886D01*
X18744097Y14260884D01*
X18740242Y14241503D01*
X18740242Y14241502D01*
X18744097Y14222122D01*
X18744932Y14213645D01*
X18744932Y14193882D01*
X18748472Y14185336D01*
X18752494Y14175624D01*
X18754965Y14167478D01*
X18758822Y14148093D01*
X18758822Y14148092D01*
X18769801Y14131660D01*
X18772179Y14128100D01*
X18781379Y14105893D01*
X18798375Y14088897D01*
X18800752Y14085340D01*
X18800754Y14085337D01*
X18813914Y14065641D01*
X18820401Y14033025D01*
X18813913Y14017362D01*
X18800753Y13997667D01*
X18795352Y13991085D01*
X18781379Y13977112D01*
X18781377Y13977109D01*
X18773814Y13958852D01*
X18769802Y13951346D01*
X18758822Y13934911D01*
X18754965Y13915526D01*
X18754964Y13915527D01*
X18754128Y13911328D01*
X18744932Y13889122D01*
X18744932Y13865085D01*
X18744097Y13860886D01*
X18744097Y13860884D01*
X18740242Y13841503D01*
X18740242Y13841502D01*
X18744097Y13822122D01*
X18744932Y13813645D01*
X18744932Y13793882D01*
X18751337Y13778417D01*
X18752494Y13775624D01*
X18754965Y13767478D01*
X18758822Y13748093D01*
X18758822Y13748092D01*
X18769801Y13731660D01*
X18772179Y13728100D01*
X18781379Y13705893D01*
X18798375Y13688897D01*
X18800752Y13685340D01*
X18800754Y13685337D01*
X18810276Y13671085D01*
X18811734Y13668904D01*
X18831726Y13655546D01*
X18848723Y13638549D01*
X18870931Y13629350D01*
X18890923Y13615992D01*
X18914501Y13611302D01*
X18936712Y13602102D01*
X18960754Y13602102D01*
X18984332Y13597412D01*
X19003712Y13601268D01*
X19012189Y13602102D01*
X19360754Y13602102D01*
X19384332Y13597412D01*
X19407910Y13602102D01*
X19431952Y13602102D01*
X19450212Y13609666D01*
X19458357Y13612137D01*
X19477741Y13615992D01*
X19497732Y13629350D01*
X19519941Y13638549D01*
X19536937Y13655546D01*
X19556930Y13668904D01*
X19556931Y13668907D01*
X19560192Y13671085D01*
X19592809Y13677572D01*
X19608470Y13671084D01*
X19690919Y13615994D01*
X19690920Y13615994D01*
X19690923Y13615992D01*
X19784332Y13597412D01*
X19877741Y13615992D01*
X19956930Y13668904D01*
X20009842Y13748093D01*
X20027042Y13834567D01*
X20038930Y13856810D01*
X20579116Y14396995D01*
X20609839Y14409720D01*
X20640563Y14396994D01*
X20652454Y14374747D01*
X20658822Y14342734D01*
X20691462Y14293884D01*
X20710707Y14265081D01*
X20711734Y14263545D01*
X20790923Y14210633D01*
X20884332Y14192053D01*
X20977741Y14210633D01*
X21054028Y14261607D01*
X21086644Y14268094D01*
X21108891Y14256203D01*
X21429956Y13935138D01*
X21442682Y13904414D01*
X21442682Y8407143D01*
X21429956Y8376419D01*
X18996459Y5942923D01*
X18965735Y5930197D01*
X18957259Y5931032D01*
X18934333Y5935592D01*
X18934332Y5935592D01*
X18840923Y5917012D01*
X18761734Y5864101D01*
X18761733Y5864100D01*
X18713380Y5791733D01*
X18708822Y5784911D01*
X18690242Y5691502D01*
X18708822Y5598093D01*
X18761734Y5518904D01*
X18840923Y5465992D01*
X18934332Y5447412D01*
X19027741Y5465992D01*
X19106930Y5518904D01*
X19123205Y5543262D01*
X19150854Y5561737D01*
X19183471Y5555250D01*
X19195458Y5543263D01*
X19211734Y5518904D01*
X19290923Y5465992D01*
X19329705Y5458278D01*
X19340243Y5451237D01*
X19351951Y5446387D01*
X19353653Y5442276D01*
X19357355Y5439803D01*
X19359827Y5427372D01*
X19364678Y5415663D01*
X19362974Y5411551D01*
X19363843Y5407186D01*
X19351952Y5384940D01*
X19307986Y5340973D01*
X19277262Y5328246D01*
X18358416Y5328246D01*
X18292536Y5328246D01*
X18292534Y5328246D01*
X18290985Y5327937D01*
X18282507Y5327102D01*
X16635583Y5327102D01*
X16611445Y5334425D01*
X16567987Y5363462D01*
X16484332Y5380102D01*
X16400677Y5363462D01*
X16329758Y5316077D01*
X16329757Y5316076D01*
X16282372Y5245157D01*
X16265732Y5161502D01*
X16282372Y5077847D01*
X16314033Y5030462D01*
X16319515Y5022257D01*
X16329758Y5006928D01*
X16400677Y4959542D01*
X16484332Y4942902D01*
X16567987Y4959542D01*
X16611445Y4988580D01*
X16635583Y4995902D01*
X18357270Y4995902D01*
X18357272Y4995902D01*
X18357273Y4995903D01*
X18358823Y4996211D01*
X18367301Y4997046D01*
X19396793Y4997046D01*
X19396794Y4997046D01*
X19457659Y5022257D01*
X19885534Y5450134D01*
X19907779Y5462022D01*
X19927741Y5465992D01*
X20006930Y5518904D01*
X20059842Y5598093D01*
X20078422Y5691502D01*
X20059842Y5784911D01*
X20006930Y5864100D01*
X19927741Y5917012D01*
X19834332Y5935592D01*
X19834331Y5935592D01*
X19774913Y5923774D01*
X19742297Y5930262D01*
X19723822Y5957913D01*
X19730310Y5990529D01*
X19735708Y5997108D01*
X21867804Y8129202D01*
X21888182Y8178398D01*
X21888182Y8231646D01*
X21888182Y14078126D01*
X21867804Y14127322D01*
X21830152Y14164974D01*
X21131355Y14863771D01*
X21082159Y14884149D01*
X21082157Y14884149D01*
X20861632Y14884149D01*
X20830908Y14896875D01*
X20818182Y14927599D01*
X20818182Y18219573D01*
X20817006Y18222413D01*
X20797804Y18268770D01*
X20760152Y18306422D01*
X20259072Y18807502D01*
X20246346Y18838226D01*
X20253667Y18862364D01*
X20262842Y18876093D01*
X20281422Y18969502D01*
X20262842Y19062911D01*
X20209930Y19142100D01*
X20180499Y19161765D01*
X20164498Y19181262D01*
X20150804Y19214322D01*
X20113152Y19251974D01*
X20030908Y19334218D01*
X20018182Y19364942D01*
X20018182Y23975222D01*
X22316868Y23975222D01*
X22319823Y23933647D01*
X22319932Y23930567D01*
X22319932Y23088910D01*
X22360184Y22991731D01*
X22434561Y22917354D01*
X22531740Y22877102D01*
X22531741Y22877102D01*
X22941423Y22877102D01*
X22950615Y22874038D01*
X22993720Y22877102D01*
X23036924Y22877102D01*
X23331740Y22877102D01*
X23334372Y22877102D01*
X23348112Y22874873D01*
X23350615Y22874038D01*
X23392187Y22876993D01*
X23395267Y22877102D01*
X23436924Y22877102D01*
X23731740Y22877102D01*
X23741423Y22877102D01*
X23750615Y22874038D01*
X23793720Y22877102D01*
X23836924Y22877102D01*
X24131740Y22877102D01*
X24134372Y22877102D01*
X24148112Y22874873D01*
X24150615Y22874038D01*
X24193720Y22877102D01*
X24236924Y22877102D01*
X24245874Y22880810D01*
X24255535Y22881496D01*
X24292813Y22900136D01*
X24295585Y22901401D01*
X24334103Y22917354D01*
X24340953Y22924205D01*
X24349615Y22928535D01*
X24377920Y22961172D01*
X24408480Y22991731D01*
X24412187Y23000682D01*
X24418533Y23007998D01*
X24432198Y23048995D01*
X24448732Y23088910D01*
X24448732Y23091543D01*
X24450962Y23105283D01*
X24451031Y23105491D01*
X24451796Y23107785D01*
X24448841Y23149359D01*
X24448732Y23152439D01*
X24448732Y23994094D01*
X24432788Y24032587D01*
X24408480Y24091273D01*
X24334103Y24165650D01*
X24236924Y24205902D01*
X24236923Y24205902D01*
X23827241Y24205902D01*
X23818049Y24208966D01*
X23774944Y24205902D01*
X23434292Y24205902D01*
X23420551Y24208132D01*
X23418049Y24208966D01*
X23376477Y24206011D01*
X23373397Y24205902D01*
X23027241Y24205902D01*
X23018049Y24208966D01*
X22974944Y24205902D01*
X22634292Y24205902D01*
X22620551Y24208132D01*
X22618049Y24208966D01*
X22576477Y24206012D01*
X22574944Y24205902D01*
X22531740Y24205902D01*
X22522789Y24202195D01*
X22519471Y24201960D01*
X22515756Y24201695D01*
X22515754Y24201696D01*
X22513128Y24201509D01*
X22513127Y24201509D01*
X22475871Y24182881D01*
X22473069Y24181602D01*
X22434562Y24165651D01*
X22432693Y24163782D01*
X22432692Y24163783D01*
X22427707Y24158799D01*
X22419049Y24154469D01*
X22390755Y24121848D01*
X22389648Y24120740D01*
X22389649Y24120740D01*
X22360186Y24091277D01*
X22360182Y24091272D01*
X22359174Y24088839D01*
X22359175Y24088838D01*
X22356476Y24082323D01*
X22350131Y24075006D01*
X22336467Y24034018D01*
X22335875Y24032587D01*
X22335873Y24032586D01*
X22319932Y23994096D01*
X22319932Y23991463D01*
X22317702Y23977723D01*
X22316868Y23975222D01*
X20018182Y23975222D01*
X20018182Y39368063D01*
X20030907Y39398786D01*
X20422203Y39790083D01*
X20452926Y39802808D01*
X20461403Y39801973D01*
X20484331Y39797412D01*
X20484332Y39797412D01*
X20577741Y39815992D01*
X20656930Y39868904D01*
X20709842Y39948093D01*
X20728422Y40041502D01*
X20709842Y40134911D01*
X20656930Y40214100D01*
X20577741Y40267012D01*
X20484332Y40285592D01*
X20390923Y40267012D01*
X20311734Y40214101D01*
X20311733Y40214100D01*
X20258822Y40134911D01*
X20240242Y40041502D01*
X20240242Y40041501D01*
X20244802Y40018575D01*
X20238314Y39985959D01*
X20232911Y39979375D01*
X19910097Y39656560D01*
X19879373Y39643834D01*
X19848649Y39656560D01*
X19835923Y39687284D01*
X19835923Y41085804D01*
X19848648Y41116527D01*
X20422203Y41690083D01*
X20452926Y41702808D01*
X20461403Y41701973D01*
X20484331Y41697412D01*
X20484332Y41697412D01*
X20577741Y41715992D01*
X20656930Y41768904D01*
X20709842Y41848093D01*
X20728422Y41941502D01*
X20709842Y42034911D01*
X20656930Y42114100D01*
X20577741Y42167012D01*
X20484332Y42185592D01*
X20390923Y42167012D01*
X20311734Y42114101D01*
X20311733Y42114100D01*
X20258822Y42034911D01*
X20240242Y41941502D01*
X20240242Y41941501D01*
X20244802Y41918575D01*
X20238314Y41885959D01*
X20232911Y41879375D01*
X19626253Y41272715D01*
X19625436Y41271898D01*
X19594712Y41259172D01*
X19563988Y41271898D01*
X19551262Y41302622D01*
X19551262Y45279941D01*
X19551472Y45284205D01*
X19566253Y45434107D01*
X19568145Y45453301D01*
X19569807Y45461651D01*
X19577794Y45487973D01*
X19618524Y45622208D01*
X19621774Y45630054D01*
X19700880Y45778039D01*
X19705604Y45785107D01*
X19812042Y45914803D01*
X19818058Y45920820D01*
X19947757Y46027269D01*
X19954825Y46031992D01*
X20102793Y46111097D01*
X20110650Y46114353D01*
X20271213Y46163079D01*
X20279552Y46164738D01*
X20448244Y46181379D01*
X20452509Y46181588D01*
X22328022Y46181588D01*
X22348012Y46181585D01*
X22348019Y46181588D01*
X22348027Y46181588D01*
X22368376Y46190017D01*
X22383596Y46196319D01*
X22384805Y46196770D01*
X22384950Y46196880D01*
X22384952Y46196880D01*
X22384953Y46196882D01*
X22384959Y46196887D01*
X22384965Y46196888D01*
X22384974Y46196898D01*
X22385503Y46197295D01*
X22386626Y46198550D01*
X22402106Y46214030D01*
X22843836Y46655632D01*
X22874560Y46668353D01*
X22905282Y46655622D01*
X22917993Y46625876D01*
X22918132Y46619652D01*
X22915334Y46609220D01*
X22918990Y46581377D01*
X22919043Y46579022D01*
X22918903Y46578664D01*
X22919013Y46576163D01*
X22917895Y46550447D01*
X22917896Y46550443D01*
X22924330Y46532776D01*
X22925962Y46528294D01*
X22929031Y46504930D01*
X22943782Y46479361D01*
X22945080Y46475797D01*
X22945081Y46475796D01*
X22953891Y46451609D01*
X22966592Y46437753D01*
X22972198Y46430106D01*
X23172803Y46082391D01*
X23178135Y46067133D01*
X23180675Y46050223D01*
X23234913Y45960102D01*
X23242338Y45954616D01*
X23254153Y45941383D01*
X23676967Y45208506D01*
X23677394Y45207749D01*
X23679847Y45203294D01*
X23680026Y45202046D01*
X23687265Y45189819D01*
X23687586Y45189237D01*
X23687642Y45188726D01*
X23691256Y45180375D01*
X23691873Y45178244D01*
X23695016Y45167400D01*
X23713289Y45144558D01*
X23716590Y45139814D01*
X23716772Y45139511D01*
X23731594Y45113821D01*
X23732746Y45112937D01*
X23733563Y45111578D01*
X23744421Y45103435D01*
X23752280Y45095818D01*
X23757924Y45088764D01*
X23760723Y45085265D01*
X23760724Y45085264D01*
X23786328Y45071165D01*
X23791206Y45068038D01*
X23791554Y45067781D01*
X23815022Y45049761D01*
X23816429Y45049384D01*
X23817698Y45048445D01*
X23817764Y45048428D01*
X23817766Y45048427D01*
X23830854Y45045074D01*
X23841026Y45041045D01*
X23848080Y45037161D01*
X23852864Y45034527D01*
X23881907Y45031301D01*
X23887614Y45030278D01*
X23887996Y45030183D01*
X23916614Y45022504D01*
X23918052Y45022694D01*
X23919588Y45022311D01*
X23919659Y45022322D01*
X23919660Y45022321D01*
X23933036Y45024233D01*
X23943976Y45024403D01*
X23957404Y45022911D01*
X23985498Y45031052D01*
X23991146Y45032287D01*
X23991470Y45032336D01*
X24020904Y45036201D01*
X24022161Y45036927D01*
X24023728Y45037161D01*
X24023786Y45037196D01*
X24023788Y45037196D01*
X24035416Y45044083D01*
X24045463Y45048428D01*
X24050064Y45049761D01*
X24058434Y45052186D01*
X24081266Y45070453D01*
X24086025Y45073764D01*
X24086342Y45073955D01*
X24112013Y45088764D01*
X24112896Y45089916D01*
X24114253Y45090731D01*
X24114294Y45090787D01*
X24114297Y45090788D01*
X24122403Y45101598D01*
X24130015Y45109452D01*
X24140570Y45117894D01*
X24154678Y45143517D01*
X24157799Y45148384D01*
X24157993Y45148647D01*
X24176073Y45172192D01*
X24176449Y45173601D01*
X24179713Y45178012D01*
X24179761Y45178042D01*
X24179878Y45178233D01*
X24412186Y45487977D01*
X24417951Y45493308D01*
X24417560Y45493717D01*
X24420648Y45496672D01*
X24420652Y45496673D01*
X24448407Y45536270D01*
X24477407Y45574936D01*
X24478499Y45579201D01*
X24481027Y45582806D01*
X24491361Y45629314D01*
X24491469Y45629468D01*
X24491684Y45630663D01*
X24503513Y45676830D01*
X24503512Y45676835D01*
X24503746Y45681104D01*
X24504309Y45681074D01*
X24504607Y45688921D01*
X24553340Y45908216D01*
X24572428Y45935446D01*
X24605181Y45941204D01*
X24632412Y45922116D01*
X24639205Y45898789D01*
X24639205Y45784236D01*
X24638996Y45779974D01*
X24622330Y45610868D01*
X24622286Y45610648D01*
X24622302Y45610594D01*
X24622260Y45610517D01*
X24620667Y45602515D01*
X24571959Y45441975D01*
X24568700Y45434107D01*
X24489608Y45286145D01*
X24484876Y45279063D01*
X24378441Y45149373D01*
X24372419Y45143351D01*
X24242729Y45036916D01*
X24235647Y45032184D01*
X24087685Y44953091D01*
X24079817Y44949832D01*
X23919272Y44901123D01*
X23910919Y44899461D01*
X23741858Y44882798D01*
X23737596Y44882588D01*
X22558752Y44882588D01*
X22558749Y44882590D01*
X22531820Y44882588D01*
X22507881Y44882588D01*
X22507570Y44882559D01*
X22435542Y44882552D01*
X22245925Y44849103D01*
X22245920Y44849102D01*
X22103666Y44797317D01*
X22064983Y44783235D01*
X22064981Y44783235D01*
X22064981Y44783234D01*
X22064978Y44783233D01*
X21898233Y44686958D01*
X21750725Y44563183D01*
X21750722Y44563181D01*
X21626952Y44415686D01*
X21562606Y44304247D01*
X21539749Y44264661D01*
X21530667Y44248933D01*
X21464795Y44067995D01*
X21464794Y44067992D01*
X21431340Y43878379D01*
X21431332Y43805592D01*
X21431332Y43802085D01*
X21431330Y43802079D01*
X21431330Y43786427D01*
X21431330Y43782101D01*
X21431326Y43749284D01*
X21431330Y43749255D01*
X21431330Y29099972D01*
X21431330Y29059990D01*
X21446630Y29023052D01*
X21474901Y28994781D01*
X21511839Y28979481D01*
X24249008Y28979481D01*
X24253266Y28979273D01*
X24422374Y28962615D01*
X24430721Y28960954D01*
X24591278Y28912247D01*
X24599141Y28908990D01*
X24747104Y28829901D01*
X24754186Y28825169D01*
X24883877Y28718734D01*
X24889900Y28712712D01*
X24996334Y28583023D01*
X25001066Y28575941D01*
X25080157Y28427976D01*
X25083417Y28420106D01*
X25132121Y28259559D01*
X25133783Y28251206D01*
X25150437Y28082143D01*
X25150646Y28077877D01*
X25147974Y8685420D01*
X25147974Y8685419D01*
X25147973Y8679580D01*
X25147895Y8676990D01*
X25134593Y8454796D01*
X25133976Y8449653D01*
X25094552Y8231892D01*
X25093327Y8226858D01*
X25028264Y8015331D01*
X25026448Y8010479D01*
X24936677Y7808213D01*
X24934297Y7803611D01*
X24821084Y7613460D01*
X24818173Y7609175D01*
X24682378Y7432870D01*
X24680735Y7430864D01*
X24678707Y7428534D01*
X24678708Y7428533D01*
X16537662Y-1929134D01*
X16537657Y-1929141D01*
X16526363Y-1942123D01*
X16523817Y-1944810D01*
X16417481Y-2047782D01*
X16411730Y-2052469D01*
X16290975Y-2134792D01*
X16284510Y-2138433D01*
X16151505Y-2199014D01*
X16144515Y-2201501D01*
X16003151Y-2238567D01*
X15995840Y-2239829D01*
X15848288Y-2252472D01*
X15844579Y-2252631D01*
X7491305Y-2252631D01*
X7451323Y-2252631D01*
X7432854Y-2260281D01*
X7414384Y-2267931D01*
X7386114Y-2296201D01*
X7386114Y-2296202D01*
X7370814Y-2333140D01*
X7370814Y-6021090D01*
X7370813Y-6021092D01*
X7370813Y-6032658D01*
X7370813Y-6045179D01*
X7370813Y-6045180D01*
X7370444Y-6050833D01*
X7358025Y-6145472D01*
X7355106Y-6156399D01*
X7319778Y-6241973D01*
X7314138Y-6251777D01*
X7257920Y-6325335D01*
X7249941Y-6333351D01*
X7176641Y-6389908D01*
X7166863Y-6395593D01*
X7081452Y-6431315D01*
X7070538Y-6434284D01*
X6976144Y-6447111D01*
X6970278Y-6447507D01*
X6430573Y-6447317D01*
X6430177Y-6447317D01*
X6430175Y-6447316D01*
X6426940Y-6447316D01*
X6424843Y-6447265D01*
X6148823Y-6433846D01*
X6144655Y-6433441D01*
X5872259Y-6393664D01*
X5868148Y-6392860D01*
X5600837Y-6327039D01*
X5596824Y-6325843D01*
X5337087Y-6234590D01*
X5333207Y-6233012D01*
X5083481Y-6117183D01*
X5079771Y-6115240D01*
X4841183Y-5975216D01*
X4839402Y-5974112D01*
X4819869Y-5961344D01*
X4819866Y-5961342D01*
X4819866Y-5961343D01*
X-599218Y-2419261D01*
X-599706Y-2418842D01*
X-605605Y-2415008D01*
X-626473Y-2401445D01*
X-627029Y-2401077D01*
X-1192749Y-2019434D01*
X-1193971Y-2018578D01*
X-1745876Y-1618007D01*
X-1747055Y-1617120D01*
X-2284935Y-1197787D01*
X-2286094Y-1196851D01*
X-2809220Y-759324D01*
X-2810348Y-758347D01*
X-3318139Y-303115D01*
X-3319233Y-302100D01*
X-3811590Y170781D01*
X-3812123Y171302D01*
X-3830646Y189714D01*
X-3830739Y189806D01*
X-3830786Y189853D01*
X-3830786Y189854D01*
X-7753976Y4089558D01*
X-7766871Y4102376D01*
X-6769628Y4102376D01*
X-5169637Y2502385D01*
X-4442027Y3229995D01*
X-6042018Y4829986D01*
X-6769628Y4102376D01*
X-7766871Y4102376D01*
X-9945092Y6267558D01*
X-9971790Y6294096D01*
X-9380069Y6294096D01*
X-9380069Y6188909D01*
X-9339817Y6091733D01*
X-9339815Y6091731D01*
X-9039817Y5791733D01*
X-9039816Y5791731D01*
X-8965439Y5717354D01*
X-8965438Y5717354D01*
X-8739817Y5491733D01*
X-8739816Y5491731D01*
X-8665439Y5417354D01*
X-8665438Y5417354D01*
X-8439817Y5191733D01*
X-8439816Y5191731D01*
X-8365439Y5117354D01*
X-8365438Y5117354D01*
X-8139817Y4891733D01*
X-8139816Y4891731D01*
X-8065439Y4817354D01*
X-8065438Y4817354D01*
X-7839817Y4591733D01*
X-7839816Y4591731D01*
X-7765439Y4517354D01*
X-7717294Y4497412D01*
X-7668260Y4477101D01*
X-7668259Y4477101D01*
X-7563077Y4477101D01*
X-7563076Y4477101D01*
X-7514042Y4497412D01*
X-7465897Y4517354D01*
X-7391520Y4591731D01*
X-7391520Y4591733D01*
X-7165899Y4817354D01*
X-7165897Y4817354D01*
X-7091520Y4891731D01*
X-7091520Y4891733D01*
X-6865899Y5117354D01*
X-6865897Y5117354D01*
X-6791520Y5191731D01*
X-6791520Y5191733D01*
X-6491521Y5491731D01*
X-6451267Y5588909D01*
X-6451267Y5694094D01*
X-6460902Y5717354D01*
X-6491520Y5791272D01*
X-6791520Y6091272D01*
X-6791520Y6091273D01*
X-6865897Y6165650D01*
X-6865899Y6165651D01*
X-7091520Y6391272D01*
X-7091520Y6391273D01*
X-7165897Y6465650D01*
X-7165899Y6465651D01*
X-7391520Y6691272D01*
X-7391520Y6691273D01*
X-7465897Y6765650D01*
X-7465899Y6765651D01*
X-7691520Y6991272D01*
X-7691520Y6991273D01*
X-7765897Y7065650D01*
X-7765899Y7065651D01*
X-7991520Y7291272D01*
X-7991520Y7291273D01*
X-8065897Y7365650D01*
X-8114487Y7385776D01*
X-8114487Y7385777D01*
X-8114489Y7385777D01*
X-8163075Y7405903D01*
X-8163076Y7405903D01*
X-8268261Y7405903D01*
X-8268263Y7405903D01*
X-8317293Y7385593D01*
X-8317294Y7385592D01*
X-8365439Y7365650D01*
X-8365441Y7365649D01*
X-9039817Y6691272D01*
X-9265439Y6465649D01*
X-9339817Y6391272D01*
X-9380069Y6294096D01*
X-9971790Y6294096D01*
X-12320012Y8628261D01*
X-12352434Y8660489D01*
X-9432980Y8660489D01*
X-9432948Y8660255D01*
X-9432948Y8660252D01*
X-9432912Y8659985D01*
X-9415930Y8610323D01*
X-9415928Y8610319D01*
X-9399135Y8560903D01*
X-9398962Y8560706D01*
X-9398876Y8560455D01*
X-9398873Y8560451D01*
X-9398872Y8560450D01*
X-9392143Y8552812D01*
X-9364227Y8521124D01*
X-9329757Y8481844D01*
X-9329521Y8481728D01*
X-9171139Y8301942D01*
X-9165700Y8295769D01*
X-9161070Y8288160D01*
X-9160845Y8288302D01*
X-9158548Y8284696D01*
X-9126605Y8251335D01*
X-9125391Y8250014D01*
X-9111972Y8234781D01*
X-9094829Y8215321D01*
X-9094828Y8215320D01*
X-9089730Y8212820D01*
X-9085805Y8208721D01*
X-9042702Y8189760D01*
X-9041880Y8189356D01*
X-9000387Y8169009D01*
X-8994719Y8168651D01*
X-8989525Y8166365D01*
X-8942439Y8165342D01*
X-8908080Y8163167D01*
X-8895415Y8162365D01*
X-8895414Y8162366D01*
X-8895411Y8162365D01*
X-8895408Y8162366D01*
X-8890037Y8164203D01*
X-8884365Y8164079D01*
X-8840475Y8181152D01*
X-8795884Y8196400D01*
X-8791624Y8200154D01*
X-8786334Y8202211D01*
X-8752318Y8234781D01*
X-8716958Y8265930D01*
X-8716956Y8265936D01*
X-8714359Y8269333D01*
X-8714147Y8269171D01*
X-8708892Y8276359D01*
X-8454727Y8519708D01*
X-8419609Y8550435D01*
X-8416890Y8555935D01*
X-8412458Y8560177D01*
X-8393666Y8602895D01*
X-8372981Y8644720D01*
X-8372573Y8650841D01*
X-8370102Y8656457D01*
X-8369088Y8703119D01*
X-8365984Y8749672D01*
X-8367950Y8755483D01*
X-8367816Y8761617D01*
X-8384383Y8804205D01*
X-8385046Y8806031D01*
X-8386725Y8810996D01*
X-8399684Y8849313D01*
X-8399685Y8849314D01*
X-8399685Y8849315D01*
X-8403725Y8853932D01*
X-8405948Y8859648D01*
X-8438209Y8893343D01*
X-8438836Y8894059D01*
X-8438858Y8894083D01*
X-8541224Y9011073D01*
X-8618734Y9099657D01*
X-8619219Y9100334D01*
X-8656278Y9142564D01*
X-8656279Y9142565D01*
X-8690789Y9182005D01*
X-8690968Y9182094D01*
X-8691098Y9182242D01*
X-8691105Y9182246D01*
X-8737784Y9205247D01*
X-8737778Y9205260D01*
X-8737840Y9205275D01*
X-8785074Y9228634D01*
X-8785076Y9228635D01*
X-8785440Y9228734D01*
X-8837594Y9232135D01*
X-8837625Y9232151D01*
X-8837655Y9232139D01*
X-8890027Y9235631D01*
X-8890411Y9235581D01*
X-8921674Y9224957D01*
X-8940373Y9218604D01*
X-8940868Y9218436D01*
X-8989667Y9201930D01*
X-8989816Y9201801D01*
X-8990004Y9201736D01*
X-8990041Y9201705D01*
X-8990041Y9201704D01*
X-9011703Y9182695D01*
X-9021091Y9174456D01*
X-9029491Y9167085D01*
X-9029492Y9167086D01*
X-9029537Y9167047D01*
X-9029537Y9167045D01*
X-9029787Y9166827D01*
X-9030084Y9166568D01*
X-9068826Y9132666D01*
X-9068914Y9132491D01*
X-9072241Y9129570D01*
X-9297410Y8931974D01*
X-9298307Y8931328D01*
X-9339084Y8895407D01*
X-9340396Y8894251D01*
X-9379641Y8859810D01*
X-9379758Y8859575D01*
X-9379956Y8859399D01*
X-9379975Y8859360D01*
X-9403082Y8812242D01*
X-9403123Y8812156D01*
X-9426133Y8765457D01*
X-9426151Y8765196D01*
X-9426267Y8764957D01*
X-9426270Y8764921D01*
X-9426271Y8764917D01*
X-9429583Y8712572D01*
X-9429588Y8712489D01*
X-9432980Y8660489D01*
X-12352434Y8660489D01*
X-15472974Y11762349D01*
X-15475381Y11764944D01*
X-15550066Y11852376D01*
X-15563692Y11868328D01*
X-15567699Y11873843D01*
X-15568791Y11875624D01*
X-15625962Y11968907D01*
X-15637883Y11988358D01*
X-15640979Y11994434D01*
X-15645426Y12005169D01*
X-15692384Y12118521D01*
X-15694490Y12125002D01*
X-15694528Y12125161D01*
X-15725851Y12255606D01*
X-15726916Y12262329D01*
X-15737552Y12397430D01*
X-15737686Y12400840D01*
X-15737686Y13545742D01*
X-15737675Y13545761D01*
X-15737686Y13570596D01*
X-15737479Y13574800D01*
X-15720883Y13743957D01*
X-15719227Y13752297D01*
X-15670561Y13912903D01*
X-15667306Y13920766D01*
X-15588233Y14068782D01*
X-15583508Y14075856D01*
X-15477065Y14205598D01*
X-15471052Y14211612D01*
X-15341333Y14318086D01*
X-15334265Y14322809D01*
X-15186266Y14401917D01*
X-15178408Y14405172D01*
X-15017808Y14453876D01*
X-15009466Y14455534D01*
X-14845047Y14471703D01*
X-14840308Y14472169D01*
X-14836065Y14472378D01*
X-14811276Y14472373D01*
X-14811267Y14472378D01*
X-11918161Y14472378D01*
X-11878179Y14472378D01*
X-11875518Y14472378D01*
X-11844794Y14459652D01*
X-11832068Y14428928D01*
X-11832068Y13898457D01*
X-11799123Y13818921D01*
X-11738249Y13758047D01*
X-11738248Y13758047D01*
X-9599124Y11618923D01*
X-9599123Y11618921D01*
X-9538249Y11558047D01*
X-9458713Y11525102D01*
X-9458712Y11525102D01*
X-9372623Y11525102D01*
X-8785891Y11525102D01*
X-8761752Y11517780D01*
X-8759077Y11515992D01*
X-8665668Y11497412D01*
X-8572259Y11515992D01*
X-8493070Y11568904D01*
X-8440158Y11648093D01*
X-8421578Y11741502D01*
X-8440158Y11834911D01*
X-8493070Y11914100D01*
X-8493347Y11914285D01*
X-8529661Y11938549D01*
X-8572259Y11967012D01*
X-8665668Y11985592D01*
X-8759077Y11967012D01*
X-8759078Y11967012D01*
X-8761751Y11965225D01*
X-8785891Y11957902D01*
X-9308035Y11957902D01*
X-9338759Y11970628D01*
X-11386542Y14018411D01*
X-11399268Y14049135D01*
X-11399268Y23384546D01*
X-11399268Y23384547D01*
X-11413507Y23418922D01*
X-11432212Y23464082D01*
X-11632213Y23664082D01*
X-11632213Y23664083D01*
X-11693087Y23724957D01*
X-11772623Y23757902D01*
X-11772625Y23757902D01*
X-14221524Y23757902D01*
X-14245664Y23765225D01*
X-14248338Y23767012D01*
X-14341747Y23785592D01*
X-14435156Y23767012D01*
X-14514345Y23714101D01*
X-14514346Y23714100D01*
X-14547765Y23664083D01*
X-14567257Y23634911D01*
X-14585837Y23541502D01*
X-14570438Y23464083D01*
X-14567257Y23448094D01*
X-14567256Y23448090D01*
X-14541623Y23409728D01*
X-14535135Y23377112D01*
X-14553611Y23349462D01*
X-14577750Y23342139D01*
X-14813532Y23342139D01*
X-14817790Y23342348D01*
X-14986883Y23359000D01*
X-14995237Y23360662D01*
X-15155771Y23409355D01*
X-15163639Y23412613D01*
X-15311601Y23491690D01*
X-15318683Y23496422D01*
X-15448369Y23602838D01*
X-15454390Y23608857D01*
X-15560839Y23738541D01*
X-15565561Y23745608D01*
X-15644661Y23893557D01*
X-15647921Y23901425D01*
X-15696640Y24061954D01*
X-15698303Y24070307D01*
X-15714958Y24239157D01*
X-15715168Y24243422D01*
X-15715168Y25955734D01*
X-15715136Y25957411D01*
X-15700638Y26332791D01*
X-15700379Y26336134D01*
X-15675923Y26546366D01*
X-15657071Y26708439D01*
X-15656556Y26711741D01*
X-15612796Y26935650D01*
X-15584662Y27079605D01*
X-15583901Y27082834D01*
X-15483847Y27444067D01*
X-15482837Y27447233D01*
X-15355228Y27799660D01*
X-15353966Y27802764D01*
X-15240811Y28053048D01*
X-15199546Y28144321D01*
X-15198066Y28147284D01*
X-15017584Y28476244D01*
X-15016775Y28477655D01*
X-14633962Y29115677D01*
X-14540780Y29270914D01*
X-14364712Y29623442D01*
X-14216362Y29988503D01*
X-14096617Y30363919D01*
X-14006189Y30747454D01*
X-13945617Y31136822D01*
X-13915263Y31529703D01*
X-13915320Y31726728D01*
X-13915323Y31753657D01*
X-13915324Y31753658D01*
X-13916422Y41792759D01*
X-13916422Y41811006D01*
X-13916424Y41811011D01*
X-13916424Y41811030D01*
X-13931728Y41847966D01*
X-13960002Y41876234D01*
X-13960005Y41876236D01*
X-13960006Y41876236D01*
X-13996937Y41891529D01*
X-13996942Y41891530D01*
X-13996943Y41891530D01*
X-14041086Y41891527D01*
X-14041199Y41891515D01*
X-20675817Y41891515D01*
X-20680075Y41891724D01*
X-20849165Y41908375D01*
X-20857518Y41910037D01*
X-21018047Y41958727D01*
X-21025917Y41961986D01*
X-21173867Y42041060D01*
X-21180949Y42045791D01*
X-21289668Y42135005D01*
X-21310637Y42152212D01*
X-21316659Y42158234D01*
X-21423090Y42287906D01*
X-21427820Y42294986D01*
X-21506909Y42442930D01*
X-21510169Y42450798D01*
X-21521686Y42488754D01*
X-21558877Y42611329D01*
X-21560539Y42619682D01*
X-21577245Y42789160D01*
X-21577454Y42793389D01*
X-21577455Y42817815D01*
X-21577457Y42817818D01*
X-21578061Y47229100D01*
X-21577852Y47233357D01*
X-21572539Y47287322D01*
X-21561202Y47402473D01*
X-21559544Y47410815D01*
X-21544651Y47459919D01*
X-20141341Y47459919D01*
X-20122761Y47366510D01*
X-20069849Y47287321D01*
X-19990660Y47234409D01*
X-19987507Y47233782D01*
X-19965259Y47221891D01*
X-18799790Y46056422D01*
X-18799789Y46056421D01*
X-18738915Y45995547D01*
X-18659379Y45962602D01*
X-15533931Y45962602D01*
X-15503207Y45949876D01*
X-14028687Y44475355D01*
X-14016797Y44453111D01*
X-14016170Y44449958D01*
X-14016169Y44449955D01*
X-14016168Y44449953D01*
X-13963256Y44370764D01*
X-13912598Y44336916D01*
X-13894122Y44309265D01*
X-13900609Y44276649D01*
X-13912597Y44264661D01*
X-13988265Y44214102D01*
X-13988267Y44214100D01*
X-14041178Y44134911D01*
X-14059644Y44042078D01*
X-14071535Y44019831D01*
X-14509473Y43581891D01*
X-14556057Y43535308D01*
X-14581268Y43474442D01*
X-14581268Y43028095D01*
X-14593994Y42997371D01*
X-14893997Y42697369D01*
X-14916244Y42685478D01*
X-15009077Y42667012D01*
X-15088266Y42614101D01*
X-15088267Y42614100D01*
X-15140580Y42535806D01*
X-15141178Y42534911D01*
X-15159758Y42441502D01*
X-15141178Y42348093D01*
X-15088266Y42268904D01*
X-15009077Y42215992D01*
X-14915668Y42197412D01*
X-14822259Y42215992D01*
X-14743070Y42268904D01*
X-14690158Y42348093D01*
X-14671692Y42440931D01*
X-14659803Y42463175D01*
X-14275279Y42847697D01*
X-14250068Y42908562D01*
X-14250068Y42974442D01*
X-14250068Y43354911D01*
X-14237343Y43385634D01*
X-13837340Y43785638D01*
X-13815097Y43797526D01*
X-13722259Y43815992D01*
X-13643070Y43868904D01*
X-13590158Y43948093D01*
X-13571578Y44041502D01*
X-13590158Y44134911D01*
X-13643070Y44214100D01*
X-13643071Y44214101D01*
X-13643074Y44214104D01*
X-13693729Y44247950D01*
X-13712205Y44275600D01*
X-13705717Y44308216D01*
X-13693733Y44320202D01*
X-13618060Y44370764D01*
X-13565148Y44449953D01*
X-13546568Y44543362D01*
X-13565148Y44636771D01*
X-13618060Y44715960D01*
X-13697249Y44768872D01*
X-13697251Y44768873D01*
X-13697254Y44768874D01*
X-13700407Y44769501D01*
X-13722651Y44781391D01*
X-15242843Y46301582D01*
X-15242843Y46301583D01*
X-15303717Y46362457D01*
X-15383253Y46395402D01*
X-15383255Y46395402D01*
X-18508700Y46395402D01*
X-18539424Y46408128D01*
X-19659223Y47527927D01*
X-19671114Y47550175D01*
X-19671741Y47553328D01*
X-19724653Y47632517D01*
X-19724654Y47632518D01*
X-19750931Y47650076D01*
X-19803842Y47685429D01*
X-19897251Y47704009D01*
X-19990660Y47685429D01*
X-20069849Y47632518D01*
X-20069850Y47632517D01*
X-20107960Y47575480D01*
X-20122761Y47553328D01*
X-20141341Y47459919D01*
X-21544651Y47459919D01*
X-21510840Y47571394D01*
X-21507583Y47579254D01*
X-21428497Y47727231D01*
X-21423766Y47734313D01*
X-21370548Y47799167D01*
X-21317329Y47864023D01*
X-21311313Y47870040D01*
X-21181608Y47976500D01*
X-21174542Y47981222D01*
X-21026562Y48060333D01*
X-21018701Y48063589D01*
X-20858137Y48112310D01*
X-20849788Y48113971D01*
X-20756624Y48123155D01*
X-20680539Y48130655D01*
X-20676276Y48130865D01*
X-15256750Y48130865D01*
X-15226026Y48118139D01*
G37*
%TD.AperFunction*%
%TA.AperFunction,Conductor*%
G36*
X-113226Y13415471D02*
G01*
X-100500Y13384747D01*
X-100500Y8637268D01*
X-113226Y8606544D01*
X-143950Y8593818D01*
X-174674Y8606544D01*
X-732213Y9164082D01*
X-732213Y9164083D01*
X-793087Y9224957D01*
X-872623Y9257902D01*
X-872625Y9257902D01*
X-1395445Y9257902D01*
X-1419585Y9265225D01*
X-1422259Y9267012D01*
X-1515668Y9285592D01*
X-1518407Y9285592D01*
X-1549131Y9298318D01*
X-1561857Y9329042D01*
X-1549131Y9359766D01*
X-1391515Y9517382D01*
X-1196812Y9712085D01*
X-1175468Y9763614D01*
X-1175468Y9819389D01*
X-1175468Y11732082D01*
X-1162743Y11762805D01*
X-636956Y12288593D01*
X-606233Y12301318D01*
X-597756Y12300483D01*
X-582319Y12297412D01*
X-582319Y12297413D01*
X-582318Y12297412D01*
X-488909Y12315992D01*
X-409720Y12368904D01*
X-356808Y12448093D01*
X-338228Y12541502D01*
X-356808Y12634911D01*
X-409720Y12714100D01*
X-411856Y12715527D01*
X-455150Y12744455D01*
X-488909Y12767012D01*
X-582318Y12785592D01*
X-582319Y12785592D01*
X-605080Y12781065D01*
X-637696Y12787553D01*
X-656171Y12815204D01*
X-656171Y12832153D01*
X-653351Y12846329D01*
X-671931Y12939738D01*
X-705558Y12990064D01*
X-712044Y13022679D01*
X-693568Y13050330D01*
X-669429Y13057652D01*
X-561313Y13057652D01*
X-561311Y13057652D01*
X-512115Y13078030D01*
X-174674Y13415471D01*
X-143950Y13428197D01*
X-113226Y13415471D01*
G37*
%TD.AperFunction*%
%TD*%
M02*
