%TF.GenerationSoftware,KiCad,Pcbnew,8.99.0-344-gfbc433deaa*%
%TF.CreationDate,2024-07-04T10:19:27-04:00*%
%TF.ProjectId,thundervolt_hw1,7468756e-6465-4727-966f-6c745f687731,rev?*%
%TF.SameCoordinates,PX85b368ePY7384544*%
%TF.FileFunction,Copper,L3,Inr*%
%TF.FilePolarity,Positive*%
%FSLAX46Y46*%
G04 Gerber Fmt 4.6, Leading zero omitted, Abs format (unit mm)*
G04 Created by KiCad (PCBNEW 8.99.0-344-gfbc433deaa) date 2024-07-04 10:19:27*
%MOMM*%
%LPD*%
G01*
G04 APERTURE LIST*
%TA.AperFunction,ViaPad*%
%ADD10C,0.300000*%
%TD*%
%TA.AperFunction,Conductor*%
%ADD11C,0.300000*%
%TD*%
%TA.AperFunction,Conductor*%
%ADD12C,0.350000*%
%TD*%
G04 APERTURE END LIST*
D10*
%TO.N,GND*%
X-9687095Y9784750D03*
X-13415668Y42541502D03*
X-17515668Y47741502D03*
X20984332Y13841502D03*
X23384332Y28341502D03*
X-665668Y1641502D03*
X-13315668Y11041502D03*
X-17115668Y43441502D03*
X-13015668Y26441502D03*
X-1015668Y1641502D03*
X13934332Y17291502D03*
X18484332Y17841502D03*
X22244824Y10373253D03*
X22134332Y27741502D03*
X18084332Y17841502D03*
X-2615668Y11041502D03*
X-11115697Y9819638D03*
X-13915668Y26441502D03*
X21185067Y43778918D03*
X-13015668Y13141502D03*
X6234332Y16716039D03*
X18084332Y16741502D03*
X-13015668Y43441502D03*
X-13015668Y42141502D03*
X-10890985Y12348309D03*
X16216344Y7216418D03*
X-3515668Y17841502D03*
X18084332Y16341502D03*
X-13915668Y12241502D03*
X5184332Y-358498D03*
X-2815668Y10544371D03*
X-13615668Y11341502D03*
X-19015668Y43541502D03*
X-15311552Y26348714D03*
X24184332Y26241502D03*
X-12715668Y11041502D03*
X-13649019Y40162552D03*
X-15160825Y13795414D03*
X-14715668Y14241502D03*
X-18615668Y42741502D03*
X18484332Y16341502D03*
X-18615668Y43141502D03*
X11084332Y-1858498D03*
X4784332Y17941502D03*
X17842378Y2797052D03*
X-1315668Y13941502D03*
X-16415668Y47741502D03*
X22584332Y28741502D03*
X-12368504Y27728276D03*
X-19415668Y43541502D03*
X18484332Y16741502D03*
X-14904824Y27578745D03*
X-815668Y10551502D03*
X-8090668Y10741502D03*
X18084332Y11041502D03*
X18484332Y17441502D03*
X23384332Y26641502D03*
X23784332Y28341502D03*
X-11515668Y13241502D03*
X20184332Y13041502D03*
X21218682Y44121790D03*
X-9988477Y9514546D03*
X-19015668Y43141502D03*
X-20615668Y43541502D03*
X-17115668Y47341502D03*
X21184332Y43441502D03*
X-16015668Y43041502D03*
X-16015668Y47741502D03*
X-14515668Y11641502D03*
X24184332Y28341502D03*
X19784332Y13041502D03*
X17824332Y4771502D03*
X-14315668Y26841502D03*
X-14857846Y44486707D03*
X-13615668Y10741502D03*
X5184332Y-958498D03*
X-19815668Y43141502D03*
X-13658727Y36803503D03*
X24184332Y28741502D03*
X-13790668Y43541502D03*
X3684332Y-658498D03*
X-7915668Y9341502D03*
X1858303Y16196228D03*
X-13415668Y42141502D03*
X15384332Y-1558498D03*
X18384332Y14741502D03*
X584332Y17241502D03*
X17584332Y10741502D03*
X-13015668Y10741502D03*
X-17515668Y43041502D03*
X-2215668Y11041502D03*
X16534332Y2391502D03*
X11584332Y-458498D03*
X-16415668Y47341502D03*
X22984332Y26241502D03*
X-13615668Y12541502D03*
X-13915668Y13841502D03*
X-11604726Y10512945D03*
X19384332Y13441502D03*
X-14915668Y43441502D03*
X11534332Y16641502D03*
X-17115668Y47741502D03*
X24184332Y27041502D03*
X-11784158Y13552781D03*
X18484332Y10441502D03*
X20984332Y13041502D03*
X-13515668Y14241502D03*
X18984332Y13441502D03*
X4584332Y-958498D03*
X21064332Y8481502D03*
X-20215668Y43541502D03*
X22584332Y26641502D03*
X-12615668Y26841502D03*
X-14215668Y11941502D03*
X-2815668Y10141502D03*
X17984332Y10441502D03*
X23384332Y26241502D03*
X-2615668Y11441502D03*
X-19415668Y43141502D03*
X-14315668Y26441502D03*
X23784332Y26241502D03*
X-13315668Y12241502D03*
X-12372316Y14004243D03*
X-11623297Y12270974D03*
X23784332Y26641502D03*
X9284332Y-458498D03*
X23484332Y6941502D03*
X-11796211Y12997633D03*
X-2215668Y11441502D03*
X15834332Y7941502D03*
X10534332Y16391502D03*
X-13015668Y11941502D03*
X-13649019Y33735700D03*
X-13015668Y43841502D03*
X-13615668Y11941502D03*
X-13474993Y43120430D03*
X-2315668Y10441502D03*
X13784332Y-458498D03*
X-14515668Y12241502D03*
X16384332Y841502D03*
X-7315668Y10267261D03*
X19428562Y2102219D03*
X20184332Y13441502D03*
X-2040668Y10041502D03*
X-13653006Y31521619D03*
X21984332Y28741502D03*
X-13515668Y13841502D03*
X-13404897Y43619069D03*
X-2460454Y9972493D03*
X-13015668Y26841502D03*
X-20215668Y42741502D03*
X-13915668Y26841502D03*
X-14315668Y13841502D03*
X-2815668Y9741502D03*
X19784332Y13441502D03*
X23384332Y27691502D03*
X23384332Y27041502D03*
X24184332Y26641502D03*
X-7915668Y9741502D03*
X19063599Y4207773D03*
X-18615668Y43541502D03*
X-7845159Y10360397D03*
X-19415668Y42741502D03*
X23784332Y28741502D03*
X-13115668Y14241502D03*
X-12615668Y26441502D03*
X3984332Y-358498D03*
X22984332Y28741502D03*
X-10762853Y10333428D03*
X15954374Y6120177D03*
X-13015668Y11341502D03*
X16394161Y9245210D03*
X16904332Y15615502D03*
X22984332Y26641502D03*
X-13015668Y42541502D03*
X-15147572Y14153247D03*
X-9931319Y10054955D03*
X4584332Y-358498D03*
X-19815668Y43541502D03*
X21185067Y43096537D03*
X-13315668Y10441502D03*
X-20615668Y43141502D03*
X-17115668Y43041502D03*
X16609332Y11766502D03*
X-1055973Y1242401D03*
X22634332Y45591502D03*
X17484332Y11241502D03*
X-665668Y2141502D03*
X22405303Y6635950D03*
X7484332Y-1858498D03*
X-12415668Y11341502D03*
X22584332Y28341502D03*
X-17515668Y47341502D03*
X-7691976Y10811606D03*
X-20615668Y42741502D03*
X20234332Y6091502D03*
X-16015668Y43441502D03*
X-7315668Y10641502D03*
X16894332Y17721502D03*
X4284332Y-658498D03*
X-11097126Y11268155D03*
X-13115668Y13841502D03*
X18084332Y17441502D03*
X17919359Y9294359D03*
X-13915668Y11641502D03*
X-11530443Y8402072D03*
X23784332Y27041502D03*
X18584332Y15441502D03*
X-12347555Y9225374D03*
X-16015668Y47341502D03*
X21548107Y44743665D03*
X-12071836Y13291040D03*
X-7315668Y11041502D03*
X24034332Y27691502D03*
X18484332Y11041502D03*
X24584332Y27791502D03*
X-10222308Y9779554D03*
X18434332Y6791502D03*
X-12409458Y12592867D03*
X-17515668Y43441502D03*
X-3615668Y14641502D03*
X-20215668Y43141502D03*
X5484332Y-658498D03*
X-13315668Y11641502D03*
X23384332Y28741502D03*
X-14715668Y13841502D03*
X3984332Y-958498D03*
X22984332Y27041502D03*
X21332972Y44451215D03*
X3199200Y17300060D03*
X-19015668Y42741502D03*
X22144824Y13273253D03*
X-16415668Y43041502D03*
X20205970Y9056432D03*
X-14280748Y28670626D03*
X18084332Y11441502D03*
X-13915668Y14241502D03*
X-665668Y1241502D03*
X-13008888Y42979798D03*
X18584332Y13441502D03*
X6284332Y-658498D03*
X-12715668Y11641502D03*
X5884332Y-358498D03*
X20584332Y13441502D03*
X22984332Y28341502D03*
X20584332Y13841502D03*
X-14215668Y12541502D03*
X13143435Y18008229D03*
X10684332Y17291502D03*
X-665668Y841502D03*
X18484332Y11441502D03*
X-3015668Y12641502D03*
X-7515668Y9741502D03*
X-13915668Y12841502D03*
X20584332Y13041502D03*
X-19815668Y42741502D03*
X24584332Y28341502D03*
X-7515668Y9341502D03*
X4884332Y-658498D03*
X21984332Y28241502D03*
X22584332Y27041502D03*
X-8915668Y10241502D03*
X-16415668Y43441502D03*
X20853125Y12386758D03*
X14184332Y16541502D03*
X22584332Y26241502D03*
X22734332Y27691502D03*
X5884332Y-958498D03*
X-13915668Y11041502D03*
X18184332Y13441502D03*
X-1115668Y841502D03*
X3384332Y-358498D03*
X20984332Y13441502D03*
X-10125668Y11241502D03*
X-14815668Y11941502D03*
X-10484292Y9021096D03*
X-14315668Y14241502D03*
X-14215668Y11341502D03*
%TO.N,+3V3*%
X20084332Y16341502D03*
X23955502Y46379002D03*
X18984332Y14241502D03*
X23384332Y23541502D03*
X24234332Y45691502D03*
X23784332Y23941502D03*
X22984332Y23541502D03*
X24184332Y23941502D03*
X20084332Y17441502D03*
X23784332Y23541502D03*
X19684332Y17841502D03*
X19484332Y14841502D03*
X24584332Y47141502D03*
X23184332Y46591502D03*
X20084332Y15741502D03*
X19684332Y16741502D03*
X19084332Y14841502D03*
X19684332Y17441502D03*
X23384332Y23941502D03*
X24184332Y23541502D03*
X23586974Y46755603D03*
X23384332Y23141502D03*
X22984332Y23141502D03*
X23784332Y47141502D03*
X24584332Y47541502D03*
X19884332Y14941502D03*
X20084332Y16741502D03*
X22584332Y23141502D03*
X24350023Y46697893D03*
X24184332Y47541502D03*
X20084332Y17841502D03*
X23934332Y45291502D03*
X22584332Y23541502D03*
X22984332Y23941502D03*
X24184332Y47141502D03*
X24184332Y23141502D03*
X23784332Y23141502D03*
X24584332Y47941502D03*
X22584332Y23941502D03*
X20084332Y15341502D03*
X19684332Y16341502D03*
X23701256Y45721429D03*
X23434332Y46141502D03*
X24334332Y46141502D03*
X19384332Y14241502D03*
X19584332Y15441502D03*
%TO.N,+1V8*%
X-15115668Y47841502D03*
X15084332Y17651502D03*
X-13790658Y44543362D03*
X-19897251Y47459919D03*
%TO.N,+1V0*%
X-14341747Y23541502D03*
X-8665668Y11741502D03*
%TO.N,+1V15*%
X6784332Y-4473101D03*
X-1515668Y9041502D03*
%TO.N,SDA*%
X-897441Y12846329D03*
X-10915668Y44041502D03*
X20884332Y14436143D03*
X-5215668Y11241502D03*
X-4915668Y9541502D03*
X19784332Y14241502D03*
X20484332Y41941502D03*
X15084332Y17041502D03*
X18934332Y5691502D03*
%TO.N,SCL*%
X18814332Y18466502D03*
X-10915668Y44541502D03*
X20484332Y40041502D03*
X-582318Y12541502D03*
X19384332Y5691502D03*
X7995838Y16160971D03*
X7584332Y17641502D03*
X-5415668Y11741502D03*
X-4915668Y9041502D03*
X16084332Y17041502D03*
X20037332Y18969502D03*
X19784332Y13841502D03*
%TO.N,EN*%
X19410383Y8129344D03*
X-10515668Y43541502D03*
X-5015668Y10398014D03*
%TO.N,VBAT*%
X-7615668Y5941502D03*
X19584332Y11941502D03*
X-6109635Y8996864D03*
X-6515668Y10241502D03*
X-3615668Y10541502D03*
X-11415668Y42541502D03*
X-8515668Y5641502D03*
X-3815668Y11441502D03*
X-5915668Y9341502D03*
X-7315668Y5041502D03*
X-6041307Y10239779D03*
X19684332Y11041502D03*
X20084332Y11041502D03*
X-7615668Y4741502D03*
X-12215668Y43041502D03*
X20084332Y11441502D03*
X-8215668Y7141502D03*
X-6315668Y9341502D03*
X-8515668Y6841502D03*
X-4521148Y10746356D03*
X-12215668Y43841502D03*
X-3615668Y9741502D03*
X-3615668Y10141502D03*
X-8215668Y5341502D03*
X-8855138Y8968317D03*
X-8215668Y6541502D03*
X-6515668Y10641502D03*
X-7915668Y6241502D03*
X19684332Y11441502D03*
X-7915668Y6841502D03*
X-6653004Y9042416D03*
X-11815668Y42541502D03*
X-11815668Y42141502D03*
X-12329478Y42615810D03*
X19184332Y11941502D03*
X-6315668Y9741502D03*
X-8815668Y6541502D03*
X-8815668Y5941502D03*
X-9115668Y6241502D03*
X-4501231Y11748826D03*
X-7015668Y5341502D03*
X-12215668Y43441502D03*
X-8215668Y5941502D03*
X-8633297Y8714784D03*
X-4215668Y11441502D03*
X-7315668Y5641502D03*
X-6715668Y5641502D03*
X19384332Y12641502D03*
X-11748792Y43044551D03*
X-6695302Y9540233D03*
X-4026552Y11805256D03*
X16784332Y10691502D03*
X-11260245Y42981737D03*
X-4215668Y11041502D03*
X-5637848Y9029401D03*
X-8515668Y6241502D03*
X-7915668Y5641502D03*
X-3409137Y11257549D03*
X-3498762Y11742187D03*
X-7915668Y5041502D03*
X-3815668Y11041502D03*
X-7015668Y5941502D03*
X-4099579Y10540551D03*
X-8931198Y8429560D03*
X-7615668Y5341502D03*
X-4538774Y11239878D03*
X-12282593Y42202373D03*
X-9165716Y8695769D03*
X19984332Y11941502D03*
X-5915668Y9741502D03*
X-6515668Y11041502D03*
X18984332Y12641502D03*
X-7315668Y6241502D03*
X-7615668Y6541502D03*
X-11415668Y42141502D03*
%TO.N,Net-(U4-LX2)*%
X17684332Y14341502D03*
X17284332Y14341502D03*
X18984332Y13841502D03*
X17284332Y14741502D03*
X16884332Y14741502D03*
X16884332Y14341502D03*
X19384332Y13841502D03*
X17684332Y14741502D03*
%TO.N,Net-(U4-LX1)*%
X17684332Y12141502D03*
X17684332Y12541502D03*
X17284332Y12541502D03*
X16884332Y12541502D03*
X16884332Y12141502D03*
X17284332Y12141502D03*
X18984332Y13041502D03*
X19384332Y13041502D03*
%TO.N,Net-(U3-VSET)*%
X-13815668Y44041502D03*
X-14915668Y42441502D03*
%TO.N,Net-(U5-PC0)*%
X16378025Y5161502D03*
X19834332Y5691502D03*
%TO.N,+1V8_ALW*%
X17095648Y9089286D03*
X9834332Y16641502D03*
X17459012Y7936601D03*
X19591352Y8685420D03*
%TO.N,ALERT*%
X7584332Y16641502D03*
X16998332Y7891502D03*
%TO.N,SAFEMODE*%
X18184059Y8274697D03*
X12484332Y16141502D03*
%TD*%
D11*
%TO.N,Net-(U4-LX2)*%
X17284332Y14741502D02*
X16884332Y14341502D01*
X17284332Y14341502D02*
X17684332Y14741502D01*
%TO.N,VBAT*%
X19684332Y11441502D02*
X20084332Y11441502D01*
%TO.N,Net-(U4-LX1)*%
X17284332Y12141502D02*
X16884332Y12541502D01*
X17684332Y12541502D02*
X17284332Y12141502D01*
%TO.N,+3V3*%
X19684332Y16741502D02*
X20084332Y16741502D01*
D12*
X23934332Y45291502D02*
X24234332Y45691502D01*
X22584332Y23941502D02*
X24184332Y23941502D01*
X24584332Y47941502D02*
X24584332Y47141502D01*
D11*
X19084332Y14841502D02*
X19484332Y14841502D01*
X18984332Y14241502D02*
X19384332Y14241502D01*
D12*
X23586974Y46755603D02*
X23955502Y46379002D01*
D11*
X19684332Y16341502D02*
X20084332Y16341502D01*
X19584332Y15441502D02*
X20084332Y15741502D01*
D12*
X23955502Y46379002D02*
X24184332Y47141502D01*
X23184332Y46591502D02*
X23934332Y45291502D01*
X22584332Y23141502D02*
X23384332Y23941502D01*
X23434332Y46141502D02*
X23955502Y46379002D01*
D11*
X20084332Y15741502D02*
X20084332Y15341502D01*
D12*
X24584332Y47941502D02*
X24184332Y47541502D01*
X24234332Y45691502D02*
X24334332Y46141502D01*
D11*
X19484332Y14841502D02*
X20084332Y15741502D01*
D12*
X23784332Y47141502D02*
X24184332Y47541502D01*
X22584332Y23141502D02*
X24184332Y23141502D01*
D11*
X20084332Y17841502D02*
X20084332Y17441502D01*
X19684332Y17841502D02*
X20084332Y17841502D01*
X19684332Y16741502D02*
X19684332Y16341502D01*
X19884332Y14941502D02*
X19484332Y14841502D01*
X19584332Y15441502D02*
X19884332Y14941502D01*
D12*
X23586974Y46755603D02*
X24334332Y46141502D01*
X23434332Y46141502D02*
X23586974Y46755603D01*
D11*
X19684332Y16741502D02*
X20084332Y16341502D01*
D12*
X24184332Y47541502D02*
X24350023Y46697893D01*
X23784332Y47141502D02*
X23184332Y46591502D01*
X23955502Y46379002D02*
X24234332Y45691502D01*
D11*
X20084332Y17441502D02*
X19684332Y17441502D01*
X19684332Y17841502D02*
X19684332Y17441502D01*
X20084332Y15341502D02*
X19884332Y14941502D01*
X19684332Y17841502D02*
X20084332Y17441502D01*
D12*
X23384332Y23141502D02*
X24184332Y23941502D01*
X22584332Y23941502D02*
X22584332Y23141502D01*
X23784332Y47141502D02*
X23934332Y45291502D01*
X24184332Y23541502D02*
X22584332Y23541502D01*
X24584332Y47541502D02*
X24184332Y47141502D01*
X23784332Y47141502D02*
X24350023Y46697893D01*
X24334332Y46141502D02*
X24350023Y46697893D01*
X23586974Y46755603D02*
X23701256Y45721429D01*
D11*
X19084332Y14841502D02*
X19584332Y15441502D01*
X20084332Y16741502D02*
X20084332Y16341502D01*
D12*
X23384332Y23941502D02*
X24184332Y23141502D01*
X22584332Y23941502D02*
X23384332Y23141502D01*
X23701256Y45721429D02*
X24350023Y46697893D01*
X24184332Y23941502D02*
X24184332Y23141502D01*
X24584332Y47141502D02*
X24350023Y46697893D01*
%TO.N,VBAT*%
X-6109635Y8996864D02*
X-5637848Y9029401D01*
X-11415668Y42541502D02*
X-11415668Y42141502D01*
X-7615668Y6541502D02*
X-7615668Y4741502D01*
X-3409137Y11257549D02*
X-4215668Y11041502D01*
X-3615668Y10141502D02*
X-3615668Y10541502D01*
X-6715668Y5641502D02*
X-8215668Y7141502D01*
X-4026552Y11805256D02*
X-4521148Y10746356D01*
X-7615668Y6541502D02*
X-8515668Y5641502D01*
X-5915668Y9341502D02*
X-5637848Y9029401D01*
X-8215668Y7141502D02*
X-9115668Y6241502D01*
X-12215668Y43841502D02*
X-12215668Y43441502D01*
X-8855138Y8968317D02*
X-9165716Y8695769D01*
X-6515668Y10241502D02*
X-6695302Y9540233D01*
X-11815668Y42541502D02*
X-11815668Y42141502D01*
X-6041307Y10239779D02*
X-5915668Y9741502D01*
X-12215668Y43041502D02*
X-11815668Y42541502D01*
X-7015668Y5941502D02*
X-7915668Y5041502D01*
X-6041307Y10239779D02*
X-6315668Y9341502D01*
X-6695302Y9540233D02*
X-5915668Y9341502D01*
X-4501231Y11748826D02*
X-3815668Y11041502D01*
X-8633297Y8714784D02*
X-8855138Y8968317D01*
X-11260245Y42981737D02*
X-11815668Y42541502D01*
X-6515668Y11041502D02*
X-6515668Y10641502D01*
X-11815668Y42141502D02*
X-11415668Y42141502D01*
X-12329478Y42615810D02*
X-12282593Y42202373D01*
X-12282593Y42202373D02*
X-11815668Y42541502D01*
X-4538774Y11239878D02*
X-4521148Y10746356D01*
X-9115668Y6241502D02*
X-7615668Y4741502D01*
X-6653004Y9042416D02*
X-6109635Y8996864D01*
X-4215668Y11041502D02*
X-3498762Y11742187D01*
D11*
X20084332Y11441502D02*
X19684332Y11041502D01*
D12*
X-3409137Y11257549D02*
X-3498762Y11742187D01*
X-5915668Y9341502D02*
X-5915668Y9741502D01*
X-9165716Y8695769D02*
X-8931198Y8429560D01*
D11*
X19984332Y11941502D02*
X20084332Y11441502D01*
X18984332Y12641502D02*
X19384332Y12641502D01*
D12*
X-8815668Y6541502D02*
X-7315668Y5041502D01*
X-12329478Y42615810D02*
X-11815668Y42541502D01*
D11*
X19184332Y11941502D02*
X19984332Y11941502D01*
D12*
X-3815668Y11441502D02*
X-4099579Y10540551D01*
X-4521148Y10746356D02*
X-4099579Y10540551D01*
X-4215668Y11041502D02*
X-3615668Y10541502D01*
X-4026552Y11805256D02*
X-3815668Y11041502D01*
X-8515668Y6841502D02*
X-7015668Y5341502D01*
X-6515668Y10241502D02*
X-6515668Y10641502D01*
X-4521148Y10746356D02*
X-3815668Y11041502D01*
X-11815668Y42141502D02*
X-12282593Y42202373D01*
X-6695302Y9540233D02*
X-6653004Y9042416D01*
X-12215668Y43041502D02*
X-12329478Y42615810D01*
X-3615668Y10141502D02*
X-3615668Y9741502D01*
X-11748792Y43044551D02*
X-11260245Y42981737D01*
X-4099579Y10540551D02*
X-3615668Y10141502D01*
D11*
X20084332Y11441502D02*
X20084332Y11041502D01*
D12*
X-5915668Y9741502D02*
X-6653004Y9042416D01*
X-3815668Y11441502D02*
X-3615668Y10541502D01*
X-7615668Y4741502D02*
X-6715668Y5641502D01*
X-6041307Y10239779D02*
X-6515668Y10641502D01*
X-8215668Y5341502D02*
X-7315668Y6241502D01*
D11*
X20084332Y11041502D02*
X19684332Y11041502D01*
D12*
X-3498762Y11742187D02*
X-4026552Y11805256D01*
X-6109635Y8996864D02*
X-6515668Y10241502D01*
X-4501231Y11748826D02*
X-4026552Y11805256D01*
X-12215668Y43441502D02*
X-12215668Y43041502D01*
X-4501231Y11748826D02*
X-4538774Y11239878D01*
X-12215668Y43441502D02*
X-11748792Y43044551D01*
X-11415668Y42141502D02*
X-11815668Y42541502D01*
X-8931198Y8429560D02*
X-8633297Y8714784D01*
X-8215668Y7141502D02*
X-8215668Y5341502D01*
X-11260245Y42981737D02*
X-11415668Y42541502D01*
X-6515668Y10241502D02*
X-6041307Y10239779D01*
X-8515668Y5641502D02*
X-8515668Y6841502D01*
X-3615668Y10541502D02*
X-3409137Y11257549D01*
X-11748792Y43044551D02*
X-11815668Y42541502D01*
X-8815668Y5941502D02*
X-7915668Y6841502D01*
X-12215668Y43041502D02*
X-11748792Y43044551D01*
X-7315668Y5041502D02*
X-7315668Y6241502D01*
D11*
X19584332Y11941502D02*
X20084332Y11441502D01*
D12*
X-7015668Y5941502D02*
X-7015668Y5341502D01*
X-8815668Y6541502D02*
X-8815668Y5941502D01*
X-7915668Y5041502D02*
X-7915668Y6841502D01*
D11*
X19684332Y11041502D02*
X19684332Y11441502D01*
X19684332Y11441502D02*
X19184332Y11941502D01*
%TO.N,Net-(U4-LX2)*%
X17684332Y14341502D02*
X17684332Y14741502D01*
X16884332Y14741502D02*
X16884332Y14341502D01*
X16884332Y14741502D02*
X17684332Y14741502D01*
X19384332Y13841502D02*
X18984332Y13841502D01*
X16884332Y14341502D02*
X17684332Y14341502D01*
X16884332Y14741502D02*
X17684332Y14341502D01*
%TO.N,Net-(U4-LX1)*%
X16884332Y12541502D02*
X17684332Y12541502D01*
X17284332Y12141502D02*
X17284332Y12541502D01*
X18984332Y13041502D02*
X19384332Y13041502D01*
X16884332Y12541502D02*
X17684332Y12141502D01*
X16884332Y12141502D02*
X16884332Y12541502D01*
X17684332Y12541502D02*
X17684332Y12141502D01*
X16884332Y12141502D02*
X17684332Y12141502D01*
%TD*%
%TA.AperFunction,Conductor*%
%TO.N,GND*%
G36*
X-15226026Y48118139D02*
G01*
X-15213300Y48087415D01*
X-15226026Y48056691D01*
X-15232611Y48051287D01*
X-15288266Y48014101D01*
X-15288267Y48014100D01*
X-15341178Y47934911D01*
X-15359758Y47841502D01*
X-15341178Y47748093D01*
X-15288266Y47668904D01*
X-15209077Y47615992D01*
X-15115668Y47597412D01*
X-15022259Y47615992D01*
X-14943070Y47668904D01*
X-14890158Y47748093D01*
X-14871578Y47841502D01*
X-14890158Y47934911D01*
X-14943070Y48014100D01*
X-14998726Y48051288D01*
X-15017201Y48078938D01*
X-15010714Y48111554D01*
X-14983063Y48130030D01*
X-14974586Y48130865D01*
X-10782598Y48130865D01*
X-10782584Y48130864D01*
X-10776162Y48130865D01*
X-10776160Y48130863D01*
X-10751363Y48130865D01*
X-10747109Y48130657D01*
X-10577995Y48114011D01*
X-10569649Y48112352D01*
X-10409077Y48063653D01*
X-10401212Y48060394D01*
X-10384172Y48051287D01*
X-10253241Y47981311D01*
X-10246158Y47976579D01*
X-10116457Y47870145D01*
X-10110434Y47864123D01*
X-10003989Y47734429D01*
X-9999256Y47727346D01*
X-9920162Y47579379D01*
X-9916902Y47571510D01*
X-9868194Y47410952D01*
X-9866532Y47402597D01*
X-9849947Y47234228D01*
X-9849738Y47229969D01*
X-9849738Y19023134D01*
X-9834438Y18986196D01*
X-9806167Y18957925D01*
X-9769229Y18942625D01*
X-9769228Y18942625D01*
X19470752Y18942625D01*
X19470753Y18942625D01*
X19507691Y18957925D01*
X19519268Y18969502D01*
X19793242Y18969502D01*
X19811822Y18876093D01*
X19864734Y18796904D01*
X19943923Y18743992D01*
X20037332Y18725412D01*
X20130741Y18743992D01*
X20209930Y18796904D01*
X20262842Y18876093D01*
X20281422Y18969502D01*
X20262842Y19062911D01*
X20209930Y19142100D01*
X20130741Y19195012D01*
X20037332Y19213592D01*
X19943923Y19195012D01*
X19864734Y19142101D01*
X19864733Y19142100D01*
X19811822Y19062911D01*
X19793242Y18969502D01*
X19519268Y18969502D01*
X19535962Y18986196D01*
X19551262Y19023134D01*
X19551262Y23088909D01*
X22319931Y23088909D01*
X22340057Y23040323D01*
X22340057Y23040321D01*
X22340058Y23040321D01*
X22360184Y22991731D01*
X22434561Y22917354D01*
X22482706Y22897412D01*
X22531740Y22877101D01*
X22531741Y22877101D01*
X22641979Y22877101D01*
X22641987Y22877102D01*
X23326677Y22877102D01*
X23326685Y22877101D01*
X23331740Y22877101D01*
X23441980Y22877101D01*
X23441988Y22877102D01*
X24126677Y22877102D01*
X24126685Y22877101D01*
X24131740Y22877101D01*
X24236925Y22877101D01*
X24293850Y22900682D01*
X24334103Y22917354D01*
X24408480Y22991731D01*
X24425152Y23031984D01*
X24448733Y23088909D01*
X24448733Y23194094D01*
X24448733Y23197590D01*
X24448732Y23197604D01*
X24448732Y23883847D01*
X24448733Y23883856D01*
X24448733Y23994094D01*
X24448732Y23994096D01*
X24418927Y24066050D01*
X24408480Y24091273D01*
X24334103Y24165650D01*
X24285958Y24185592D01*
X24285957Y24185593D01*
X24285956Y24185593D01*
X24236926Y24205903D01*
X24236925Y24205903D01*
X24131740Y24205903D01*
X24126685Y24205903D01*
X24126677Y24205902D01*
X23441988Y24205902D01*
X23441980Y24205903D01*
X23436925Y24205903D01*
X23331740Y24205903D01*
X23326685Y24205903D01*
X23326677Y24205902D01*
X22641987Y24205902D01*
X22641979Y24205903D01*
X22636924Y24205903D01*
X22531740Y24205903D01*
X22483150Y24185776D01*
X22482706Y24185592D01*
X22434559Y24165649D01*
X22360184Y24091274D01*
X22349737Y24066050D01*
X22349736Y24066049D01*
X22319931Y23994096D01*
X22319931Y23883856D01*
X22319932Y23883847D01*
X22319932Y23197604D01*
X22319931Y23197590D01*
X22319931Y23088909D01*
X19551262Y23088909D01*
X19551262Y40041502D01*
X20240242Y40041502D01*
X20258822Y39948093D01*
X20311734Y39868904D01*
X20390923Y39815992D01*
X20484332Y39797412D01*
X20577741Y39815992D01*
X20656930Y39868904D01*
X20709842Y39948093D01*
X20728422Y40041502D01*
X20709842Y40134911D01*
X20656930Y40214100D01*
X20577741Y40267012D01*
X20484332Y40285592D01*
X20390923Y40267012D01*
X20311734Y40214101D01*
X20311733Y40214100D01*
X20258822Y40134911D01*
X20240242Y40041502D01*
X19551262Y40041502D01*
X19551262Y41941502D01*
X20240242Y41941502D01*
X20258822Y41848093D01*
X20311734Y41768904D01*
X20390923Y41715992D01*
X20484332Y41697412D01*
X20577741Y41715992D01*
X20656930Y41768904D01*
X20709842Y41848093D01*
X20728422Y41941502D01*
X20709842Y42034911D01*
X20656930Y42114100D01*
X20577741Y42167012D01*
X20484332Y42185592D01*
X20390923Y42167012D01*
X20311734Y42114101D01*
X20311733Y42114100D01*
X20266092Y42045791D01*
X20258822Y42034911D01*
X20240242Y41941502D01*
X19551262Y41941502D01*
X19551262Y45279941D01*
X19551472Y45284205D01*
X19566253Y45434107D01*
X19568145Y45453301D01*
X19569807Y45461651D01*
X19577794Y45487973D01*
X19618524Y45622208D01*
X19621774Y45630054D01*
X19700880Y45778039D01*
X19705604Y45785107D01*
X19812042Y45914803D01*
X19818058Y45920820D01*
X19947757Y46027269D01*
X19954825Y46031992D01*
X20102793Y46111097D01*
X20110650Y46114353D01*
X20271213Y46163079D01*
X20279552Y46164738D01*
X20448244Y46181379D01*
X20452509Y46181588D01*
X22328022Y46181588D01*
X22348008Y46181585D01*
X22348008Y46181586D01*
X22348012Y46181585D01*
X22348015Y46181587D01*
X22348023Y46181588D01*
X22348027Y46181588D01*
X22368376Y46190017D01*
X22383596Y46196319D01*
X22385123Y46196889D01*
X22385167Y46196919D01*
X22386626Y46198550D01*
X22402106Y46214030D01*
X22843836Y46655632D01*
X22874560Y46668353D01*
X22905282Y46655622D01*
X22918004Y46624897D01*
X22916521Y46613647D01*
X22915333Y46609221D01*
X22918684Y46583705D01*
X22919013Y46576163D01*
X22917895Y46550447D01*
X22917896Y46550443D01*
X22924330Y46532776D01*
X22926583Y46523566D01*
X22929030Y46504934D01*
X22929031Y46504930D01*
X22941892Y46482636D01*
X22945081Y46475796D01*
X22953891Y46451609D01*
X22966592Y46437753D01*
X22972198Y46430106D01*
X23018904Y46349150D01*
X23154363Y46114354D01*
X23167068Y46092333D01*
X23171726Y46080577D01*
X23171929Y46079714D01*
X23175842Y46071126D01*
X23179270Y46059568D01*
X23180673Y46050227D01*
X23180674Y46050225D01*
X23198725Y46020230D01*
X23201033Y46015845D01*
X23215543Y45984007D01*
X23215545Y45984004D01*
X23222448Y45977567D01*
X23230043Y45968195D01*
X23234913Y45960102D01*
X23242338Y45954616D01*
X23254153Y45941383D01*
X23676968Y45208505D01*
X23679628Y45202718D01*
X23702040Y45164865D01*
X23703319Y45162546D01*
X23723019Y45124109D01*
X23725678Y45120752D01*
X23725664Y45120741D01*
X23728762Y45117023D01*
X23728777Y45117035D01*
X23731014Y45114482D01*
X23731172Y45114265D01*
X23732437Y45112854D01*
X23732763Y45112487D01*
X23733553Y45111586D01*
X23733617Y45111538D01*
X23733618Y45111537D01*
X23767780Y45085916D01*
X23768165Y45085627D01*
X23770230Y45083978D01*
X23803166Y45055983D01*
X23803167Y45055983D01*
X23803169Y45055981D01*
X23806907Y45053899D01*
X23806897Y45053883D01*
X23811172Y45051640D01*
X23811181Y45051656D01*
X23814233Y45050150D01*
X23814444Y45050020D01*
X23816084Y45049234D01*
X23816533Y45049015D01*
X23817680Y45048449D01*
X23859625Y45037702D01*
X23862160Y45036970D01*
X23903280Y45023717D01*
X23903284Y45023718D01*
X23907533Y45023224D01*
X23907530Y45023204D01*
X23912329Y45022769D01*
X23912331Y45022785D01*
X23915706Y45022564D01*
X23915958Y45022524D01*
X23917911Y45022417D01*
X23918394Y45022388D01*
X23919582Y45022310D01*
X23919659Y45022322D01*
X23919660Y45022321D01*
X23962474Y45028439D01*
X23965044Y45028726D01*
X24008120Y45032217D01*
X24008124Y45032220D01*
X24012237Y45033389D01*
X24012242Y45033370D01*
X24016845Y45034804D01*
X24016839Y45034822D01*
X24020045Y45035910D01*
X24020309Y45035973D01*
X24022189Y45036634D01*
X24022662Y45036797D01*
X24023717Y45037155D01*
X24023785Y45037196D01*
X24023788Y45037196D01*
X24060978Y45059219D01*
X24063267Y45060481D01*
X24101728Y45080191D01*
X24101731Y45080194D01*
X24105086Y45082851D01*
X24105098Y45082836D01*
X24108792Y45085916D01*
X24108780Y45085930D01*
X24111322Y45088160D01*
X24111534Y45088313D01*
X24112985Y45089613D01*
X24113347Y45089934D01*
X24114249Y45090726D01*
X24114294Y45090787D01*
X24114297Y45090788D01*
X24140226Y45125362D01*
X24141852Y45127398D01*
X24169851Y45160336D01*
X24169853Y45160343D01*
X24171935Y45164079D01*
X24171952Y45164070D01*
X24174188Y45168330D01*
X24174172Y45168338D01*
X24175673Y45171383D01*
X24176486Y45172708D01*
X24176527Y45172785D01*
X24176561Y45172831D01*
X24179880Y45178235D01*
X24412186Y45487977D01*
X24417951Y45493308D01*
X24417560Y45493717D01*
X24420648Y45496672D01*
X24420652Y45496673D01*
X24434766Y45516811D01*
X24439846Y45522816D01*
X24457366Y45540077D01*
X24463187Y45553844D01*
X24468441Y45562983D01*
X24477407Y45574936D01*
X24477408Y45574941D01*
X24479258Y45578796D01*
X24479774Y45578549D01*
X24479824Y45578657D01*
X24479300Y45578888D01*
X24481024Y45582803D01*
X24481027Y45582806D01*
X24486360Y45606814D01*
X24488754Y45614302D01*
X24498336Y45636955D01*
X24498445Y45651900D01*
X24499805Y45662361D01*
X24503512Y45676828D01*
X24503513Y45676830D01*
X24503512Y45676835D01*
X24503746Y45681104D01*
X24504309Y45681074D01*
X24504607Y45688921D01*
X24553340Y45908216D01*
X24572428Y45935446D01*
X24605181Y45941204D01*
X24632412Y45922116D01*
X24639205Y45898789D01*
X24639205Y45784236D01*
X24638996Y45779974D01*
X24622330Y45610868D01*
X24620667Y45602515D01*
X24571959Y45441975D01*
X24568700Y45434107D01*
X24489608Y45286145D01*
X24484876Y45279063D01*
X24378441Y45149373D01*
X24372419Y45143351D01*
X24242729Y45036916D01*
X24235647Y45032184D01*
X24087685Y44953091D01*
X24079817Y44949832D01*
X23919272Y44901123D01*
X23910919Y44899461D01*
X23741858Y44882798D01*
X23737596Y44882588D01*
X22565187Y44882588D01*
X22565172Y44882590D01*
X22558749Y44882590D01*
X22531820Y44882588D01*
X22507881Y44882588D01*
X22507570Y44882559D01*
X22435542Y44882552D01*
X22245925Y44849103D01*
X22245920Y44849102D01*
X22103666Y44797317D01*
X22064983Y44783235D01*
X22064981Y44783235D01*
X22064981Y44783234D01*
X22064978Y44783233D01*
X21898233Y44686958D01*
X21750725Y44563183D01*
X21750722Y44563181D01*
X21626952Y44415686D01*
X21576108Y44327630D01*
X21539749Y44264661D01*
X21530667Y44248933D01*
X21464795Y44067995D01*
X21464794Y44067992D01*
X21431340Y43878379D01*
X21431332Y43805592D01*
X21431330Y43805562D01*
X21431330Y43782101D01*
X21431326Y43749284D01*
X21431330Y43749255D01*
X21431330Y29099972D01*
X21431330Y29059990D01*
X21446630Y29023052D01*
X21474901Y28994781D01*
X21511839Y28979481D01*
X24249008Y28979481D01*
X24253266Y28979273D01*
X24422374Y28962615D01*
X24430721Y28960954D01*
X24591278Y28912247D01*
X24599141Y28908990D01*
X24747104Y28829901D01*
X24754186Y28825169D01*
X24883877Y28718734D01*
X24889900Y28712712D01*
X24996334Y28583023D01*
X25001066Y28575941D01*
X25080157Y28427976D01*
X25083417Y28420106D01*
X25132121Y28259559D01*
X25133783Y28251206D01*
X25150437Y28082143D01*
X25150646Y28077877D01*
X25147974Y8685420D01*
X25147974Y8685419D01*
X25147973Y8679580D01*
X25147895Y8676990D01*
X25134593Y8454796D01*
X25133976Y8449653D01*
X25094552Y8231892D01*
X25093327Y8226858D01*
X25028264Y8015331D01*
X25026448Y8010479D01*
X24936677Y7808213D01*
X24934297Y7803611D01*
X24821084Y7613460D01*
X24818173Y7609175D01*
X24682378Y7432870D01*
X24680735Y7430864D01*
X24678707Y7428534D01*
X24678708Y7428533D01*
X16537662Y-1929134D01*
X16537657Y-1929141D01*
X16526363Y-1942123D01*
X16523817Y-1944810D01*
X16417481Y-2047782D01*
X16411730Y-2052469D01*
X16290975Y-2134792D01*
X16284510Y-2138433D01*
X16151505Y-2199014D01*
X16144515Y-2201501D01*
X16003151Y-2238567D01*
X15995840Y-2239829D01*
X15848288Y-2252472D01*
X15844579Y-2252631D01*
X7491305Y-2252631D01*
X7451323Y-2252631D01*
X7432854Y-2260281D01*
X7414384Y-2267931D01*
X7386114Y-2296201D01*
X7370814Y-2333140D01*
X7370814Y-6016029D01*
X7370813Y-6016039D01*
X7370813Y-6045180D01*
X7370444Y-6050833D01*
X7358025Y-6145472D01*
X7355106Y-6156399D01*
X7319778Y-6241973D01*
X7314138Y-6251777D01*
X7257920Y-6325335D01*
X7249941Y-6333351D01*
X7176641Y-6389908D01*
X7166863Y-6395593D01*
X7081452Y-6431315D01*
X7070538Y-6434284D01*
X6976144Y-6447111D01*
X6970278Y-6447507D01*
X6430573Y-6447317D01*
X6430177Y-6447317D01*
X6430175Y-6447316D01*
X6426940Y-6447316D01*
X6424843Y-6447265D01*
X6148823Y-6433846D01*
X6144655Y-6433441D01*
X5872259Y-6393664D01*
X5868148Y-6392860D01*
X5600837Y-6327039D01*
X5596824Y-6325843D01*
X5337087Y-6234590D01*
X5333207Y-6233012D01*
X5083481Y-6117183D01*
X5079771Y-6115240D01*
X4841183Y-5975216D01*
X4839402Y-5974112D01*
X4819869Y-5961344D01*
X4819866Y-5961342D01*
X4819866Y-5961343D01*
X2542982Y-4473101D01*
X6540242Y-4473101D01*
X6558822Y-4566510D01*
X6611734Y-4645699D01*
X6690923Y-4698611D01*
X6784332Y-4717191D01*
X6877741Y-4698611D01*
X6956930Y-4645699D01*
X7009842Y-4566510D01*
X7028422Y-4473101D01*
X7009842Y-4379692D01*
X6956930Y-4300503D01*
X6877741Y-4247591D01*
X6784332Y-4229011D01*
X6690923Y-4247591D01*
X6611734Y-4300502D01*
X6611733Y-4300503D01*
X6558822Y-4379692D01*
X6540242Y-4473101D01*
X2542982Y-4473101D01*
X-599218Y-2419261D01*
X-599706Y-2418842D01*
X-605605Y-2415008D01*
X-626473Y-2401445D01*
X-627029Y-2401077D01*
X-1192749Y-2019434D01*
X-1193971Y-2018578D01*
X-1745876Y-1618007D01*
X-1747055Y-1617120D01*
X-2284935Y-1197787D01*
X-2286094Y-1196851D01*
X-2809220Y-759324D01*
X-2810348Y-758347D01*
X-3318139Y-303115D01*
X-3319233Y-302100D01*
X-3811590Y170781D01*
X-3812123Y171302D01*
X-3830646Y189714D01*
X-3830739Y189806D01*
X-3830786Y189853D01*
X-3830786Y189854D01*
X-9865969Y6188909D01*
X-9380069Y6188909D01*
X-9339817Y6091733D01*
X-9339815Y6091731D01*
X-9039817Y5791733D01*
X-9039816Y5791731D01*
X-8965439Y5717354D01*
X-8965438Y5717354D01*
X-8739817Y5491733D01*
X-8739816Y5491731D01*
X-8665439Y5417354D01*
X-8665438Y5417354D01*
X-8439817Y5191733D01*
X-8439816Y5191731D01*
X-8365439Y5117354D01*
X-8365438Y5117354D01*
X-8139817Y4891733D01*
X-8139816Y4891731D01*
X-8065439Y4817354D01*
X-8065438Y4817354D01*
X-7839817Y4591733D01*
X-7839816Y4591731D01*
X-7765439Y4517354D01*
X-7717294Y4497412D01*
X-7668260Y4477101D01*
X-7668259Y4477101D01*
X-7563077Y4477101D01*
X-7563076Y4477101D01*
X-7514042Y4497412D01*
X-7465897Y4517354D01*
X-7391520Y4591731D01*
X-7391520Y4591733D01*
X-7165899Y4817354D01*
X-7165897Y4817354D01*
X-7091520Y4891731D01*
X-7091520Y4891733D01*
X-6865899Y5117354D01*
X-6865897Y5117354D01*
X-6791520Y5191731D01*
X-6791520Y5191733D01*
X-6491521Y5491731D01*
X-6451267Y5588909D01*
X-6451267Y5694094D01*
X-6460902Y5717354D01*
X-6491520Y5791272D01*
X-6791520Y6091272D01*
X-6791520Y6091273D01*
X-6865897Y6165650D01*
X-6865899Y6165651D01*
X-7091520Y6391272D01*
X-7091520Y6391273D01*
X-7165897Y6465650D01*
X-7165899Y6465651D01*
X-7391520Y6691272D01*
X-7391520Y6691273D01*
X-7465897Y6765650D01*
X-7465899Y6765651D01*
X-7691520Y6991272D01*
X-7691520Y6991273D01*
X-7765897Y7065650D01*
X-7765899Y7065651D01*
X-7991520Y7291272D01*
X-7991520Y7291273D01*
X-8065897Y7365650D01*
X-8114487Y7385776D01*
X-8114487Y7385777D01*
X-8114489Y7385777D01*
X-8163075Y7405903D01*
X-8163076Y7405903D01*
X-8268261Y7405903D01*
X-8268263Y7405903D01*
X-8317293Y7385593D01*
X-8317294Y7385592D01*
X-8365439Y7365650D01*
X-8365441Y7365649D01*
X-9039817Y6691272D01*
X-9265439Y6465649D01*
X-9339817Y6391272D01*
X-9380069Y6294096D01*
X-9380069Y6188909D01*
X-9865969Y6188909D01*
X-12352434Y8660489D01*
X-9432980Y8660489D01*
X-9432948Y8660255D01*
X-9432923Y8660066D01*
X-9432913Y8659987D01*
X-9415928Y8610319D01*
X-9415947Y8610313D01*
X-9415902Y8610241D01*
X-9399135Y8560900D01*
X-9398952Y8560586D01*
X-9398906Y8560507D01*
X-9398877Y8560456D01*
X-9398876Y8560455D01*
X-9364188Y8521080D01*
X-9356942Y8512823D01*
X-9327343Y8479093D01*
X-9326538Y8478342D01*
X-9171139Y8301942D01*
X-9165700Y8295769D01*
X-9161070Y8288160D01*
X-9160845Y8288302D01*
X-9158548Y8284696D01*
X-9126605Y8251335D01*
X-9125385Y8250007D01*
X-9094829Y8215321D01*
X-9091428Y8212723D01*
X-9091590Y8212512D01*
X-9089462Y8210955D01*
X-9089308Y8211173D01*
X-9085807Y8208722D01*
X-9043514Y8190116D01*
X-9041880Y8189356D01*
X-9000387Y8169009D01*
X-8996248Y8167910D01*
X-8996317Y8167651D01*
X-8993761Y8167028D01*
X-8993702Y8167291D01*
X-8989529Y8166367D01*
X-8989525Y8166365D01*
X-8943302Y8165361D01*
X-8941561Y8165287D01*
X-8908080Y8163167D01*
X-8895415Y8162365D01*
X-8895414Y8162366D01*
X-8895411Y8162365D01*
X-8895409Y8162366D01*
X-8891170Y8162934D01*
X-8891135Y8162668D01*
X-8888535Y8163072D01*
X-8888581Y8163336D01*
X-8884369Y8164080D01*
X-8884365Y8164079D01*
X-8841310Y8180828D01*
X-8839633Y8181440D01*
X-8795884Y8196400D01*
X-8795881Y8196404D01*
X-8792182Y8198549D01*
X-8792047Y8198316D01*
X-8789804Y8199681D01*
X-8789948Y8199908D01*
X-8786340Y8202210D01*
X-8786334Y8202211D01*
X-8752969Y8234158D01*
X-8751645Y8235374D01*
X-8716958Y8265930D01*
X-8716956Y8265936D01*
X-8714359Y8269333D01*
X-8714147Y8269171D01*
X-8708892Y8276359D01*
X-8455400Y8519064D01*
X-8454043Y8520307D01*
X-8419609Y8550435D01*
X-8419608Y8550438D01*
X-8419607Y8550438D01*
X-8416999Y8553829D01*
X-8416868Y8553728D01*
X-8414778Y8556574D01*
X-8414914Y8556669D01*
X-8412461Y8560175D01*
X-8412458Y8560177D01*
X-8394052Y8602018D01*
X-8393243Y8603751D01*
X-8372981Y8644720D01*
X-8372981Y8644728D01*
X-8371869Y8648854D01*
X-8371710Y8648812D01*
X-8370867Y8652246D01*
X-8371028Y8652281D01*
X-8370105Y8656452D01*
X-8370102Y8656457D01*
X-8369109Y8702179D01*
X-8369026Y8704054D01*
X-8365984Y8749672D01*
X-8365984Y8749673D01*
X-8366538Y8753914D01*
X-8366375Y8753936D01*
X-8366911Y8757430D01*
X-8367073Y8757401D01*
X-8367817Y8761610D01*
X-8367816Y8761617D01*
X-8384383Y8804205D01*
X-8385046Y8806031D01*
X-8386725Y8810996D01*
X-8399684Y8849313D01*
X-8399685Y8849314D01*
X-8399685Y8849315D01*
X-8401819Y8853021D01*
X-8401678Y8853103D01*
X-8403513Y8856129D01*
X-8403650Y8856041D01*
X-8405949Y8859650D01*
X-8437542Y8892646D01*
X-8438858Y8894083D01*
X-8542119Y9012096D01*
X-8618734Y9099657D01*
X-8619219Y9100334D01*
X-8656279Y9142565D01*
X-8690789Y9182005D01*
X-8690790Y9182006D01*
X-8690791Y9182007D01*
X-8690875Y9182071D01*
X-8690960Y9182137D01*
X-8691095Y9182241D01*
X-8737784Y9205247D01*
X-8737778Y9205260D01*
X-8737840Y9205275D01*
X-8785074Y9228634D01*
X-8785076Y9228635D01*
X-8785440Y9228734D01*
X-8837594Y9232135D01*
X-8837625Y9232151D01*
X-8837655Y9232139D01*
X-8890033Y9235631D01*
X-8890409Y9235582D01*
X-8927514Y9222973D01*
X-8940373Y9218603D01*
X-8940393Y9218597D01*
X-8940431Y9218584D01*
X-8989678Y9201928D01*
X-8989814Y9201848D01*
X-8989995Y9201745D01*
X-9029491Y9167085D01*
X-9029537Y9167045D01*
X-9071674Y9130175D01*
X-9072241Y9129570D01*
X-9297410Y8931974D01*
X-9298307Y8931328D01*
X-9340335Y8894305D01*
X-9340396Y8894252D01*
X-9379650Y8859804D01*
X-9379737Y8859688D01*
X-9379885Y8859494D01*
X-9379951Y8859409D01*
X-9379956Y8859400D01*
X-9379956Y8859399D01*
X-9401156Y8816166D01*
X-9403087Y8812229D01*
X-9403123Y8812156D01*
X-9426138Y8765447D01*
X-9426207Y8765184D01*
X-9426268Y8764961D01*
X-9429583Y8712572D01*
X-9429588Y8712489D01*
X-9432980Y8660489D01*
X-12352434Y8660489D01*
X-13251914Y9554585D01*
X-6964502Y9554585D01*
X-6958280Y9511405D01*
X-6957992Y9508888D01*
X-6918655Y9045921D01*
X-6918651Y9038613D01*
X-6920874Y9012099D01*
X-6920874Y9012096D01*
X-6920742Y9011685D01*
X-6918699Y8997321D01*
X-6918711Y8996878D01*
X-6915488Y8988471D01*
X-6912765Y8976599D01*
X-6912003Y8967631D01*
X-6912003Y8967630D01*
X-6912002Y8967628D01*
X-6901896Y8948094D01*
X-6899774Y8943993D01*
X-6896975Y8937244D01*
X-6888882Y8911898D01*
X-6888879Y8911892D01*
X-6888600Y8911562D01*
X-6881216Y8899073D01*
X-6881059Y8898665D01*
X-6874864Y8892131D01*
X-6867806Y8882205D01*
X-6863667Y8874206D01*
X-6843327Y8857052D01*
X-6838160Y8851891D01*
X-6820977Y8831563D01*
X-6820590Y8831363D01*
X-6808986Y8822650D01*
X-6808688Y8822335D01*
X-6800467Y8818671D01*
X-6790144Y8812199D01*
X-6783262Y8806394D01*
X-6783261Y8806394D01*
X-6783260Y8806393D01*
X-6757894Y8798326D01*
X-6751148Y8795536D01*
X-6727500Y8783334D01*
X-6727078Y8783299D01*
X-6713012Y8779686D01*
X-6712616Y8779509D01*
X-6703615Y8779270D01*
X-6691605Y8777242D01*
X-6683023Y8774512D01*
X-6656499Y8776767D01*
X-6649201Y8776770D01*
X-6188295Y8738132D01*
X-6184770Y8737495D01*
X-6182505Y8737320D01*
X-6182504Y8737319D01*
X-6170561Y8736394D01*
X-6168091Y8736202D01*
X-6157621Y8734074D01*
X-6143911Y8729472D01*
X-6114900Y8731473D01*
X-6108290Y8731425D01*
X-6079315Y8728995D01*
X-6079314Y8728996D01*
X-6079294Y8728994D01*
X-6078717Y8729062D01*
X-6078464Y8729091D01*
X-6077659Y8729183D01*
X-6077635Y8729192D01*
X-6077633Y8729191D01*
X-6063889Y8733676D01*
X-6053410Y8735714D01*
X-5639179Y8764283D01*
X-5633672Y8764312D01*
X-5600683Y8762394D01*
X-5589878Y8766152D01*
X-5578595Y8768460D01*
X-5567189Y8769246D01*
X-5537610Y8783960D01*
X-5532545Y8786091D01*
X-5501333Y8796943D01*
X-5492792Y8804546D01*
X-5483250Y8810996D01*
X-5480457Y8812386D01*
X-5473010Y8816089D01*
X-5451299Y8841018D01*
X-5447449Y8844910D01*
X-5422767Y8866879D01*
X-5417788Y8877169D01*
X-5411444Y8886778D01*
X-5403926Y8895407D01*
X-5393415Y8926728D01*
X-5391339Y8931819D01*
X-5376944Y8961558D01*
X-5376281Y8972977D01*
X-5374095Y8984286D01*
X-5372690Y8988471D01*
X-5370456Y8995125D01*
X-5372730Y9028074D01*
X-5372759Y9033583D01*
X-5372299Y9041502D01*
X-5159758Y9041502D01*
X-5141178Y8948093D01*
X-5105976Y8895409D01*
X-5097154Y8882205D01*
X-5088266Y8868904D01*
X-5009077Y8815992D01*
X-4915668Y8797412D01*
X-4822259Y8815992D01*
X-4743070Y8868904D01*
X-4690158Y8948093D01*
X-4671578Y9041502D01*
X-1759758Y9041502D01*
X-1741178Y8948093D01*
X-1705976Y8895409D01*
X-1697154Y8882205D01*
X-1688266Y8868904D01*
X-1609077Y8815992D01*
X-1515668Y8797412D01*
X-1422259Y8815992D01*
X-1343070Y8868904D01*
X-1290158Y8948093D01*
X-1271578Y9041502D01*
X-1290158Y9134911D01*
X-1343070Y9214100D01*
X-1343076Y9214104D01*
X-1369348Y9231659D01*
X-1422259Y9267012D01*
X-1515668Y9285592D01*
X-1609077Y9267012D01*
X-1688266Y9214101D01*
X-1688267Y9214100D01*
X-1736032Y9142612D01*
X-1741178Y9134911D01*
X-1759758Y9041502D01*
X-4671578Y9041502D01*
X-4690158Y9134911D01*
X-4743070Y9214100D01*
X-4743076Y9214104D01*
X-4775294Y9235631D01*
X-4804843Y9255375D01*
X-4823318Y9283025D01*
X-4816831Y9315641D01*
X-4804844Y9327629D01*
X-4743070Y9368904D01*
X-4690158Y9448093D01*
X-4671578Y9541502D01*
X-4690158Y9634911D01*
X-4743070Y9714100D01*
X-4750453Y9719033D01*
X-4769348Y9731659D01*
X-4822259Y9767012D01*
X-4915668Y9785592D01*
X-5009077Y9767012D01*
X-5088266Y9714101D01*
X-5088267Y9714100D01*
X-5126664Y9656633D01*
X-5141178Y9634911D01*
X-5159758Y9541502D01*
X-5141178Y9448093D01*
X-5137196Y9442134D01*
X-5088267Y9368905D01*
X-5088263Y9368901D01*
X-5026495Y9327629D01*
X-5008019Y9299979D01*
X-5014507Y9267363D01*
X-5026495Y9255375D01*
X-5088263Y9214104D01*
X-5088267Y9214100D01*
X-5136032Y9142612D01*
X-5141178Y9134911D01*
X-5159758Y9041502D01*
X-5372299Y9041502D01*
X-5370841Y9066566D01*
X-5374601Y9077376D01*
X-5376907Y9088656D01*
X-5377693Y9100059D01*
X-5377830Y9100334D01*
X-5385359Y9115472D01*
X-5392409Y9129648D01*
X-5394542Y9134718D01*
X-5405390Y9165916D01*
X-5406494Y9167156D01*
X-5412991Y9174456D01*
X-5419438Y9183993D01*
X-5424533Y9194236D01*
X-5424536Y9194240D01*
X-5449455Y9215944D01*
X-5453371Y9219818D01*
X-5640272Y9429782D01*
X-5651268Y9458672D01*
X-5651268Y9719033D01*
X-5650808Y9725341D01*
X-5646434Y9755150D01*
X-5648931Y9765049D01*
X-5650234Y9776826D01*
X-5649961Y9787038D01*
X-5649963Y9787041D01*
X-5649962Y9787043D01*
X-5650559Y9790525D01*
X-5651268Y9794093D01*
X-5651268Y9794094D01*
X-5662803Y9821941D01*
X-5664786Y9827930D01*
X-5775452Y10266825D01*
X-5776769Y10277592D01*
X-5776718Y10291410D01*
X-5778641Y10296100D01*
X-5781738Y10308987D01*
X-5782156Y10314038D01*
X-5782157Y10314040D01*
X-5782166Y10314151D01*
X-5782571Y10315496D01*
X-5782740Y10316071D01*
X-5783132Y10317438D01*
X-5783186Y10317539D01*
X-5783186Y10317542D01*
X-5790316Y10330942D01*
X-5794082Y10340712D01*
X-5797790Y10355419D01*
X-5806037Y10366502D01*
X-5811377Y10375951D01*
X-5816617Y10388735D01*
X-5820189Y10392333D01*
X-5824319Y10398014D01*
X-5259758Y10398014D01*
X-5241178Y10304605D01*
X-5188266Y10225416D01*
X-5109077Y10172504D01*
X-5015668Y10153924D01*
X-4922259Y10172504D01*
X-4843070Y10225416D01*
X-4790158Y10304605D01*
X-4771578Y10398014D01*
X-4790158Y10491423D01*
X-4843070Y10570612D01*
X-4922259Y10623524D01*
X-5015668Y10642104D01*
X-5109077Y10623524D01*
X-5188266Y10570613D01*
X-5188267Y10570612D01*
X-5232869Y10503859D01*
X-5241178Y10491423D01*
X-5259758Y10398014D01*
X-5824319Y10398014D01*
X-5827983Y10403055D01*
X-5830301Y10407558D01*
X-5830303Y10407560D01*
X-5830358Y10407667D01*
X-5831257Y10408767D01*
X-5831637Y10409237D01*
X-5832504Y10410327D01*
X-5832593Y10410400D01*
X-5832593Y10410401D01*
X-5844299Y10420045D01*
X-5851529Y10427642D01*
X-5860580Y10439807D01*
X-5872438Y10446890D01*
X-5880992Y10453580D01*
X-5890725Y10463384D01*
X-5895404Y10465342D01*
X-5906709Y10472266D01*
X-6235898Y10751048D01*
X-6251119Y10780615D01*
X-6251268Y10784205D01*
X-6251268Y11094094D01*
X-6273635Y11148094D01*
X-6291520Y11191273D01*
X-6365897Y11265650D01*
X-6463076Y11305902D01*
X-6568260Y11305902D01*
X-6589894Y11296941D01*
X-6665440Y11265650D01*
X-6739816Y11191274D01*
X-6780068Y11094094D01*
X-6780068Y10689603D01*
X-6782139Y10676348D01*
X-6783511Y10672068D01*
X-6780217Y10632350D01*
X-6780068Y10628760D01*
X-6780068Y10280306D01*
X-6781427Y10269524D01*
X-6937345Y9660845D01*
X-6937576Y9660205D01*
X-6949289Y9614257D01*
X-6949985Y9611824D01*
X-6963205Y9570254D01*
X-6963205Y9570250D01*
X-6963166Y9569792D01*
X-6964367Y9555350D01*
X-6964486Y9554889D01*
X-6964488Y9554832D01*
X-6964502Y9554585D01*
X-13251914Y9554585D01*
X-15452001Y11741502D01*
X-8909758Y11741502D01*
X-8891178Y11648093D01*
X-8838266Y11568904D01*
X-8759077Y11515992D01*
X-8665668Y11497412D01*
X-8572259Y11515992D01*
X-8493070Y11568904D01*
X-8440158Y11648093D01*
X-8421578Y11741502D01*
X-5659758Y11741502D01*
X-5641178Y11648093D01*
X-5588266Y11568904D01*
X-5509077Y11515992D01*
X-5415668Y11497412D01*
X-5413359Y11497872D01*
X-5380745Y11491389D01*
X-5362265Y11463741D01*
X-5368748Y11431124D01*
X-5380737Y11419133D01*
X-5388262Y11414105D01*
X-5388267Y11414100D01*
X-5432553Y11347819D01*
X-5441178Y11334911D01*
X-5459758Y11241502D01*
X-5441178Y11148093D01*
X-5388266Y11068904D01*
X-5309077Y11015992D01*
X-5215668Y10997412D01*
X-5122259Y11015992D01*
X-5043070Y11068904D01*
X-4990158Y11148093D01*
X-4978464Y11206882D01*
X-4806328Y11206882D01*
X-4806327Y11206877D01*
X-4803604Y11198635D01*
X-4801439Y11186558D01*
X-4785915Y10751891D01*
X-4785969Y10747672D01*
X-4788281Y10710104D01*
X-4788151Y10709151D01*
X-4788141Y10708934D01*
X-4788029Y10708202D01*
X-4787929Y10707508D01*
X-4787817Y10706680D01*
X-4787761Y10706455D01*
X-4786969Y10701289D01*
X-4787040Y10701279D01*
X-4786280Y10697005D01*
X-4786209Y10697019D01*
X-4784511Y10688636D01*
X-4785059Y10688526D01*
X-4785030Y10688395D01*
X-4784486Y10688523D01*
X-4783502Y10684359D01*
X-4767875Y10650139D01*
X-4766311Y10646221D01*
X-4754072Y10610634D01*
X-4753591Y10609809D01*
X-4753492Y10609598D01*
X-4753067Y10608897D01*
X-4752703Y10608285D01*
X-4752333Y10607651D01*
X-4752206Y10607478D01*
X-4749489Y10602996D01*
X-4749553Y10602958D01*
X-4747216Y10599301D01*
X-4747154Y10599342D01*
X-4742374Y10592242D01*
X-4742839Y10591930D01*
X-4742766Y10591825D01*
X-4742312Y10592152D01*
X-4739810Y10588683D01*
X-4739808Y10588680D01*
X-4720402Y10570613D01*
X-4712269Y10563041D01*
X-4709324Y10560019D01*
X-4684407Y10531835D01*
X-4684406Y10531834D01*
X-4684402Y10531830D01*
X-4684398Y10531828D01*
X-4683655Y10531263D01*
X-4683490Y10531112D01*
X-4682850Y10530642D01*
X-4682257Y10530198D01*
X-4681642Y10529730D01*
X-4681452Y10529615D01*
X-4677240Y10526522D01*
X-4677284Y10526463D01*
X-4673730Y10523983D01*
X-4673689Y10524044D01*
X-4670127Y10521682D01*
X-4670125Y10521680D01*
X-4670123Y10521679D01*
X-4666556Y10519314D01*
X-4666867Y10518846D01*
X-4666760Y10518777D01*
X-4666465Y10519254D01*
X-4662828Y10517008D01*
X-4662826Y10517007D01*
X-4662823Y10517005D01*
X-4627562Y10503854D01*
X-4623697Y10502194D01*
X-4548209Y10465342D01*
X-4249461Y10319498D01*
X-4240609Y10313747D01*
X-4229206Y10304182D01*
X-4229203Y10304182D01*
X-4227944Y10303125D01*
X-4224023Y10300468D01*
X-3895874Y10029866D01*
X-3880267Y10000502D01*
X-3880068Y9996345D01*
X-3880068Y9688910D01*
X-3839816Y9591731D01*
X-3765439Y9517354D01*
X-3668260Y9477102D01*
X-3668259Y9477102D01*
X-3563077Y9477102D01*
X-3563076Y9477102D01*
X-3465897Y9517354D01*
X-3391520Y9591731D01*
X-3351268Y9688910D01*
X-3351268Y10095466D01*
X-3349367Y10108178D01*
X-3347449Y10114446D01*
X-3351069Y10152113D01*
X-3351268Y10156269D01*
X-3351268Y10494654D01*
X-3349301Y10507580D01*
X-3347592Y10513063D01*
X-3347593Y10513069D01*
X-3347355Y10515304D01*
X-3345895Y10522764D01*
X-3345525Y10524044D01*
X-3168939Y11136277D01*
X-3162985Y11148865D01*
X-3161491Y11151036D01*
X-3160682Y11154836D01*
X-3155812Y11167516D01*
X-3153870Y11170877D01*
X-3150020Y11200113D01*
X-3148690Y11206478D01*
X-3148573Y11206882D01*
X-3140518Y11234807D01*
X-3140813Y11237431D01*
X-3140131Y11251339D01*
X-3139582Y11253914D01*
X-3140288Y11257731D01*
X-3140640Y11271315D01*
X-3140133Y11275161D01*
X-3142233Y11283000D01*
X-3147766Y11303651D01*
X-3148969Y11310018D01*
X-3152262Y11339334D01*
X-3153542Y11341651D01*
X-3158230Y11354751D01*
X-3169121Y11413645D01*
X-3230260Y11744241D01*
X-3230675Y11757299D01*
X-3229989Y11763035D01*
X-3230525Y11764944D01*
X-3232259Y11771117D01*
X-3233874Y11783360D01*
X-3233777Y11791751D01*
X-3241949Y11812135D01*
X-3244342Y11820392D01*
X-3248334Y11841983D01*
X-3251484Y11846838D01*
X-3256865Y11858741D01*
X-3258427Y11864304D01*
X-3258428Y11864305D01*
X-3263617Y11870903D01*
X-3269794Y11881596D01*
X-3271313Y11885385D01*
X-3272916Y11889384D01*
X-3272918Y11889386D01*
X-3272918Y11889387D01*
X-3288258Y11905081D01*
X-3293636Y11911803D01*
X-3305585Y11930220D01*
X-3305588Y11930223D01*
X-3310353Y11933501D01*
X-3319881Y11942439D01*
X-3323453Y11946981D01*
X-3330771Y11951090D01*
X-3340571Y11958606D01*
X-3346432Y11964603D01*
X-3346436Y11964606D01*
X-3347841Y11965207D01*
X-3366626Y11973242D01*
X-3374159Y11977390D01*
X-3382302Y11982991D01*
X-3392249Y11989833D01*
X-3392250Y11989834D01*
X-3392251Y11989834D01*
X-3397906Y11991038D01*
X-3410130Y11995649D01*
X-3415170Y11998479D01*
X-3423502Y11999475D01*
X-3435427Y12002667D01*
X-3443148Y12005969D01*
X-3443151Y12005970D01*
X-3465109Y12006221D01*
X-3473660Y12007171D01*
X-3495128Y12011742D01*
X-3495131Y12011743D01*
X-3500816Y12010691D01*
X-3513869Y12010274D01*
X-3946158Y12061931D01*
X-3959385Y12065704D01*
X-3962310Y12067070D01*
X-3979309Y12067823D01*
X-3989156Y12069405D01*
X-4005538Y12074016D01*
X-4005544Y12074016D01*
X-4020655Y12072220D01*
X-4031125Y12072246D01*
X-4046242Y12074120D01*
X-4046550Y12074095D01*
X-4046773Y12074079D01*
X-4047377Y12074036D01*
X-4050504Y12073157D01*
X-4064171Y12071583D01*
X-4067390Y12071726D01*
X-4067392Y12071726D01*
X-4083393Y12065914D01*
X-4093096Y12063608D01*
X-4503012Y12014877D01*
X-4511337Y12014691D01*
X-4534231Y12016380D01*
X-4534232Y12016380D01*
X-4534796Y12016193D01*
X-4549087Y12014007D01*
X-4549688Y12014017D01*
X-4561350Y12009398D01*
X-4572216Y12006650D01*
X-4584666Y12005170D01*
X-4584668Y12005169D01*
X-4604689Y11993944D01*
X-4612307Y11990587D01*
X-4634108Y11983385D01*
X-4634110Y11983384D01*
X-4634565Y11982991D01*
X-4646930Y11975505D01*
X-4647480Y11975288D01*
X-4647483Y11975286D01*
X-4656489Y11966557D01*
X-4665475Y11959861D01*
X-4676414Y11953728D01*
X-4690616Y11935694D01*
X-4696369Y11929678D01*
X-4713755Y11914681D01*
X-4713757Y11914678D01*
X-4714025Y11914144D01*
X-4722584Y11902496D01*
X-4723010Y11902084D01*
X-4727993Y11890568D01*
X-4733731Y11880945D01*
X-4741493Y11871089D01*
X-4741493Y11871087D01*
X-4747712Y11848995D01*
X-4750725Y11841235D01*
X-4761046Y11820730D01*
X-4761047Y11820728D01*
X-4761090Y11820134D01*
X-4764542Y11806090D01*
X-4764778Y11805547D01*
X-4764779Y11805543D01*
X-4764975Y11792996D01*
X-4766594Y11781909D01*
X-4769991Y11769839D01*
X-4769991Y11769835D01*
X-4767282Y11747045D01*
X-4767096Y11738720D01*
X-4799229Y11303121D01*
X-4801849Y11291139D01*
X-4804884Y11283001D01*
X-4804884Y11283000D01*
X-4803608Y11247278D01*
X-4803698Y11242532D01*
X-4806328Y11206882D01*
X-4978464Y11206882D01*
X-4971578Y11241502D01*
X-4990158Y11334911D01*
X-5043070Y11414100D01*
X-5122259Y11467012D01*
X-5215668Y11485592D01*
X-5215669Y11485592D01*
X-5217982Y11485132D01*
X-5250598Y11491620D01*
X-5269073Y11519271D01*
X-5262585Y11551887D01*
X-5250599Y11563874D01*
X-5243070Y11568904D01*
X-5190158Y11648093D01*
X-5171578Y11741502D01*
X-5190158Y11834911D01*
X-5243070Y11914100D01*
X-5243136Y11914144D01*
X-5279662Y11938550D01*
X-5322259Y11967012D01*
X-5415668Y11985592D01*
X-5509077Y11967012D01*
X-5588266Y11914101D01*
X-5588267Y11914100D01*
X-5641178Y11834911D01*
X-5659758Y11741502D01*
X-8421578Y11741502D01*
X-8440158Y11834911D01*
X-8493070Y11914100D01*
X-8493136Y11914144D01*
X-8529662Y11938550D01*
X-8572259Y11967012D01*
X-8665668Y11985592D01*
X-8759077Y11967012D01*
X-8838266Y11914101D01*
X-8838267Y11914100D01*
X-8891178Y11834911D01*
X-8909758Y11741502D01*
X-15452001Y11741502D01*
X-15472974Y11762349D01*
X-15475381Y11764944D01*
X-15555503Y11858741D01*
X-15563692Y11868328D01*
X-15567699Y11873843D01*
X-15568791Y11875624D01*
X-15625961Y11968905D01*
X-15637883Y11988358D01*
X-15640979Y11994434D01*
X-15645426Y12005169D01*
X-15692384Y12118521D01*
X-15694490Y12125002D01*
X-15725851Y12255606D01*
X-15726916Y12262329D01*
X-15737552Y12397430D01*
X-15737686Y12400840D01*
X-15737686Y12846329D01*
X-1141531Y12846329D01*
X-1122951Y12752920D01*
X-1097012Y12714099D01*
X-1072298Y12677111D01*
X-1070039Y12673731D01*
X-990850Y12620819D01*
X-897441Y12602239D01*
X-874680Y12606767D01*
X-842066Y12600280D01*
X-823589Y12572630D01*
X-823589Y12555676D01*
X-825097Y12548092D01*
X-826408Y12541502D01*
X-807828Y12448093D01*
X-754916Y12368904D01*
X-675727Y12315992D01*
X-582318Y12297412D01*
X-488909Y12315992D01*
X-409720Y12368904D01*
X-356808Y12448093D01*
X-338228Y12541502D01*
X-356808Y12634911D01*
X-409720Y12714100D01*
X-411865Y12715533D01*
X-455150Y12744455D01*
X-488909Y12767012D01*
X-582318Y12785592D01*
X-582319Y12785592D01*
X-605080Y12781065D01*
X-637696Y12787553D01*
X-656171Y12815204D01*
X-656171Y12832153D01*
X-653351Y12846329D01*
X-671931Y12939738D01*
X-724843Y13018927D01*
X-729625Y13022122D01*
X-787637Y13060884D01*
X-804032Y13071839D01*
X-897441Y13090419D01*
X-990850Y13071839D01*
X-1070039Y13018928D01*
X-1070040Y13018927D01*
X-1117369Y12948092D01*
X-1122951Y12939738D01*
X-1141531Y12846329D01*
X-15737686Y12846329D01*
X-15737686Y13539993D01*
X-15737674Y13540091D01*
X-15737677Y13545759D01*
X-15737675Y13545761D01*
X-15737686Y13570575D01*
X-15737479Y13574801D01*
X-15720883Y13743957D01*
X-15719227Y13752297D01*
X-15670561Y13912903D01*
X-15667306Y13920766D01*
X-15588233Y14068782D01*
X-15583508Y14075856D01*
X-15477065Y14205598D01*
X-15471052Y14211612D01*
X-15341333Y14318086D01*
X-15334265Y14322809D01*
X-15186266Y14401917D01*
X-15178408Y14405172D01*
X-15017808Y14453876D01*
X-15009466Y14455534D01*
X-14845047Y14471703D01*
X-14840308Y14472169D01*
X-14836056Y14472378D01*
X-14811276Y14472373D01*
X-14811275Y14472374D01*
X-14805768Y14472373D01*
X-14805721Y14472378D01*
X-11878180Y14472378D01*
X-11878179Y14472378D01*
X-11841241Y14487678D01*
X-11812970Y14515949D01*
X-11797670Y14552887D01*
X-11797670Y15419962D01*
X-100506Y15419962D01*
X-100500Y15399971D01*
X-100500Y19991D01*
X-100500Y-19991D01*
X-85200Y-56929D01*
X-56929Y-85200D01*
X-19991Y-100500D01*
X-19990Y-100500D01*
X15517235Y-100500D01*
X15517236Y-100500D01*
X15554174Y-85200D01*
X15582445Y-56929D01*
X15597745Y-19991D01*
X15597745Y5161502D01*
X16133935Y5161502D01*
X16152515Y5068093D01*
X16205427Y4988904D01*
X16284616Y4935992D01*
X16378025Y4917412D01*
X16471434Y4935992D01*
X16550623Y4988904D01*
X16603535Y5068093D01*
X16622115Y5161502D01*
X16603535Y5254911D01*
X16550623Y5334100D01*
X16471434Y5387012D01*
X16378025Y5405592D01*
X16284616Y5387012D01*
X16205427Y5334101D01*
X16205426Y5334100D01*
X16152515Y5254911D01*
X16133935Y5161502D01*
X15597745Y5161502D01*
X15597745Y5691502D01*
X18690242Y5691502D01*
X18708822Y5598093D01*
X18761734Y5518904D01*
X18840923Y5465992D01*
X18934332Y5447412D01*
X19027741Y5465992D01*
X19106930Y5518904D01*
X19123205Y5543262D01*
X19150854Y5561737D01*
X19183471Y5555250D01*
X19195458Y5543263D01*
X19211734Y5518904D01*
X19290923Y5465992D01*
X19384332Y5447412D01*
X19477741Y5465992D01*
X19556930Y5518904D01*
X19573205Y5543262D01*
X19600854Y5561737D01*
X19633471Y5555250D01*
X19645458Y5543263D01*
X19661734Y5518904D01*
X19740923Y5465992D01*
X19834332Y5447412D01*
X19927741Y5465992D01*
X20006930Y5518904D01*
X20059842Y5598093D01*
X20078422Y5691502D01*
X20059842Y5784911D01*
X20006930Y5864100D01*
X19927741Y5917012D01*
X19834332Y5935592D01*
X19740923Y5917012D01*
X19661734Y5864101D01*
X19661732Y5864099D01*
X19645459Y5839744D01*
X19617808Y5821269D01*
X19585192Y5827757D01*
X19573205Y5839744D01*
X19556931Y5864099D01*
X19556929Y5864101D01*
X19530652Y5881659D01*
X19477741Y5917012D01*
X19384332Y5935592D01*
X19290923Y5917012D01*
X19211734Y5864101D01*
X19211732Y5864099D01*
X19195459Y5839744D01*
X19167808Y5821269D01*
X19135192Y5827757D01*
X19123205Y5839744D01*
X19106931Y5864099D01*
X19106929Y5864101D01*
X19080652Y5881659D01*
X19027741Y5917012D01*
X18934332Y5935592D01*
X18840923Y5917012D01*
X18761734Y5864101D01*
X18761733Y5864100D01*
X18733115Y5821269D01*
X18708822Y5784911D01*
X18690242Y5691502D01*
X15597745Y5691502D01*
X15597745Y7891502D01*
X16754242Y7891502D01*
X16772822Y7798093D01*
X16825734Y7718904D01*
X16904923Y7665992D01*
X16998332Y7647412D01*
X17091741Y7665992D01*
X17170930Y7718904D01*
X17207612Y7773804D01*
X17235260Y7792278D01*
X17267877Y7785791D01*
X17279865Y7773803D01*
X17286412Y7764005D01*
X17286413Y7764004D01*
X17286414Y7764003D01*
X17365603Y7711091D01*
X17459012Y7692511D01*
X17552421Y7711091D01*
X17631610Y7764003D01*
X17684522Y7843192D01*
X17703102Y7936601D01*
X17684522Y8030010D01*
X17631610Y8109199D01*
X17552421Y8162111D01*
X17459012Y8180691D01*
X17365603Y8162111D01*
X17286414Y8109200D01*
X17286412Y8109198D01*
X17249732Y8054301D01*
X17222082Y8035826D01*
X17189465Y8042314D01*
X17177478Y8054301D01*
X17170931Y8064099D01*
X17170929Y8064101D01*
X17144652Y8081659D01*
X17091741Y8117012D01*
X16998332Y8135592D01*
X16904923Y8117012D01*
X16825734Y8064101D01*
X16825733Y8064100D01*
X16789906Y8010479D01*
X16772822Y7984911D01*
X16754242Y7891502D01*
X15597745Y7891502D01*
X15597745Y8274697D01*
X17939969Y8274697D01*
X17958549Y8181288D01*
X17971193Y8162365D01*
X18006717Y8109198D01*
X18011461Y8102099D01*
X18090650Y8049187D01*
X18184059Y8030607D01*
X18277468Y8049187D01*
X18356657Y8102099D01*
X18374861Y8129344D01*
X19166293Y8129344D01*
X19184873Y8035935D01*
X19237785Y7956746D01*
X19316974Y7903834D01*
X19410383Y7885254D01*
X19503792Y7903834D01*
X19582981Y7956746D01*
X19635893Y8035935D01*
X19654473Y8129344D01*
X19635893Y8222753D01*
X19582981Y8301942D01*
X19503792Y8354854D01*
X19410383Y8373434D01*
X19316974Y8354854D01*
X19237785Y8301943D01*
X19237784Y8301942D01*
X19203083Y8250007D01*
X19184873Y8222753D01*
X19166293Y8129344D01*
X18374861Y8129344D01*
X18409569Y8181288D01*
X18428149Y8274697D01*
X18409569Y8368106D01*
X18356657Y8447295D01*
X18277468Y8500207D01*
X18184059Y8518787D01*
X18090650Y8500207D01*
X18011461Y8447296D01*
X18011460Y8447295D01*
X17962109Y8373434D01*
X17958549Y8368106D01*
X17939969Y8274697D01*
X15597745Y8274697D01*
X15597745Y8685420D01*
X19347262Y8685420D01*
X19365842Y8592011D01*
X19386892Y8560507D01*
X19414600Y8519038D01*
X19418754Y8512822D01*
X19497943Y8459910D01*
X19591352Y8441330D01*
X19684761Y8459910D01*
X19763950Y8512822D01*
X19816862Y8592011D01*
X19835442Y8685420D01*
X19816862Y8778829D01*
X19763950Y8858018D01*
X19761883Y8859399D01*
X19719575Y8887668D01*
X19684761Y8910930D01*
X19591352Y8929510D01*
X19497943Y8910930D01*
X19418754Y8858019D01*
X19418753Y8858018D01*
X19370696Y8786093D01*
X19365842Y8778829D01*
X19347262Y8685420D01*
X15597745Y8685420D01*
X15597745Y9089286D01*
X16851558Y9089286D01*
X16870138Y8995877D01*
X16893067Y8961561D01*
X16914593Y8929344D01*
X16923050Y8916688D01*
X17002239Y8863776D01*
X17095648Y8845196D01*
X17189057Y8863776D01*
X17268246Y8916688D01*
X17321158Y8995877D01*
X17339738Y9089286D01*
X17321158Y9182695D01*
X17268246Y9261884D01*
X17260571Y9267012D01*
X17211232Y9299979D01*
X17189057Y9314796D01*
X17095648Y9333376D01*
X17002239Y9314796D01*
X16923050Y9261885D01*
X16923049Y9261884D01*
X16877852Y9194240D01*
X16870138Y9182695D01*
X16851558Y9089286D01*
X15597745Y9089286D01*
X15597745Y10691502D01*
X16540242Y10691502D01*
X16558822Y10598093D01*
X16577184Y10570612D01*
X16610995Y10520009D01*
X16611734Y10518904D01*
X16690923Y10465992D01*
X16784332Y10447412D01*
X16877741Y10465992D01*
X16956930Y10518904D01*
X17009842Y10598093D01*
X17028422Y10691502D01*
X17009842Y10784911D01*
X16956930Y10864100D01*
X16949740Y10868904D01*
X16919818Y10888897D01*
X16877741Y10917012D01*
X16784332Y10935592D01*
X16690923Y10917012D01*
X16611734Y10864101D01*
X16611733Y10864100D01*
X16567175Y10797412D01*
X16558822Y10784911D01*
X16540242Y10691502D01*
X15597745Y10691502D01*
X15597745Y12141502D01*
X16640242Y12141502D01*
X16644097Y12122122D01*
X16644932Y12113645D01*
X16644932Y12093882D01*
X16648288Y12085780D01*
X16652494Y12075624D01*
X16654965Y12067478D01*
X16658822Y12048093D01*
X16658822Y12048092D01*
X16669802Y12031658D01*
X16673815Y12024150D01*
X16681378Y12005895D01*
X16681378Y12005894D01*
X16695350Y11991922D01*
X16700752Y11985339D01*
X16711734Y11968904D01*
X16728163Y11957927D01*
X16728166Y11957925D01*
X16734751Y11952521D01*
X16748723Y11938549D01*
X16766981Y11930986D01*
X16774483Y11926977D01*
X16790923Y11915992D01*
X16810306Y11912137D01*
X16818450Y11909667D01*
X16836712Y11902102D01*
X16856475Y11902102D01*
X16864951Y11901268D01*
X16884332Y11897412D01*
X16903712Y11901268D01*
X16912189Y11902102D01*
X17236712Y11902102D01*
X17256475Y11902102D01*
X17264951Y11901268D01*
X17284332Y11897412D01*
X17303712Y11901268D01*
X17312189Y11902102D01*
X17331952Y11902102D01*
X17636712Y11902102D01*
X17656475Y11902102D01*
X17664951Y11901268D01*
X17684332Y11897412D01*
X17693739Y11899284D01*
X17705287Y11900010D01*
X17714861Y11899329D01*
X17716490Y11899873D01*
X17730231Y11902102D01*
X17731951Y11902102D01*
X17731952Y11902102D01*
X17750212Y11909666D01*
X17758357Y11912137D01*
X17777741Y11915992D01*
X17785719Y11921324D01*
X17796115Y11926415D01*
X17805212Y11929446D01*
X17806507Y11930569D01*
X17818357Y11937893D01*
X17818494Y11937951D01*
X17819941Y11938549D01*
X17822894Y11941502D01*
X18940242Y11941502D01*
X18944097Y11922122D01*
X18944932Y11913645D01*
X18944932Y11893882D01*
X18950021Y11881596D01*
X18952494Y11875624D01*
X18954965Y11867478D01*
X18958822Y11848093D01*
X18958822Y11848092D01*
X18969800Y11831661D01*
X18973814Y11824152D01*
X18981377Y11805894D01*
X18995352Y11791919D01*
X19000756Y11785334D01*
X19010258Y11771112D01*
X19011734Y11768904D01*
X19028163Y11757927D01*
X19034748Y11752523D01*
X19432206Y11355065D01*
X19444932Y11324341D01*
X19444932Y11069360D01*
X19444097Y11060884D01*
X19440242Y11041503D01*
X19440242Y11041502D01*
X19444097Y11022122D01*
X19444932Y11013645D01*
X19444932Y10993882D01*
X19452493Y10975630D01*
X19454966Y10967478D01*
X19458821Y10948094D01*
X19458823Y10948090D01*
X19469800Y10931661D01*
X19473814Y10924152D01*
X19481377Y10905894D01*
X19495352Y10891919D01*
X19500754Y10885336D01*
X19511734Y10868904D01*
X19518924Y10864100D01*
X19528163Y10857927D01*
X19534748Y10852523D01*
X19548723Y10838548D01*
X19566981Y10830986D01*
X19574491Y10826972D01*
X19590923Y10815992D01*
X19610306Y10812137D01*
X19618450Y10809667D01*
X19636712Y10802102D01*
X19656475Y10802102D01*
X19664951Y10801268D01*
X19684332Y10797412D01*
X19703712Y10801268D01*
X19712189Y10802102D01*
X19731952Y10802102D01*
X20036712Y10802102D01*
X20056475Y10802102D01*
X20064951Y10801268D01*
X20084332Y10797412D01*
X20103712Y10801268D01*
X20112189Y10802102D01*
X20131951Y10802102D01*
X20131952Y10802102D01*
X20150212Y10809666D01*
X20158357Y10812137D01*
X20177741Y10815992D01*
X20194178Y10826976D01*
X20201679Y10830986D01*
X20219941Y10838549D01*
X20233917Y10852527D01*
X20240486Y10857918D01*
X20256930Y10868904D01*
X20267916Y10885348D01*
X20273310Y10891919D01*
X20287285Y10905893D01*
X20294848Y10924155D01*
X20298858Y10931656D01*
X20309842Y10948093D01*
X20313698Y10967478D01*
X20316168Y10975622D01*
X20323732Y10993882D01*
X20323732Y11013645D01*
X20324567Y11022122D01*
X20328422Y11041502D01*
X20328422Y11041503D01*
X20324567Y11060884D01*
X20323732Y11069360D01*
X20323732Y11413645D01*
X20324567Y11422123D01*
X20328422Y11441502D01*
X20328422Y11441504D01*
X20328422Y11441759D01*
X20324576Y11460987D01*
X20323732Y11469509D01*
X20323732Y11489122D01*
X20316169Y11507381D01*
X20313697Y11515531D01*
X20312953Y11519271D01*
X20309842Y11534911D01*
X20309841Y11534913D01*
X20309067Y11538803D01*
X20308907Y11539329D01*
X20224576Y11960987D01*
X20223732Y11969508D01*
X20223732Y11989122D01*
X20216169Y12007381D01*
X20213697Y12015531D01*
X20209843Y12034906D01*
X20209842Y12034907D01*
X20209842Y12034911D01*
X20209839Y12034916D01*
X20209744Y12035145D01*
X20209744Y12035147D01*
X20209742Y12035150D01*
X20209741Y12035153D01*
X20198830Y12051444D01*
X20194790Y12058991D01*
X20187285Y12077111D01*
X20173313Y12091083D01*
X20167909Y12097668D01*
X20156930Y12114100D01*
X20156928Y12114101D01*
X20156928Y12114102D01*
X20156754Y12114276D01*
X20156749Y12114279D01*
X20156749Y12114280D01*
X20140549Y12125080D01*
X20140428Y12125161D01*
X20133807Y12130589D01*
X20119940Y12144456D01*
X20101684Y12152019D01*
X20094176Y12156032D01*
X20077743Y12167012D01*
X20077739Y12167013D01*
X20077511Y12167108D01*
X20058268Y12170915D01*
X20050075Y12173396D01*
X20031953Y12180902D01*
X20031952Y12180902D01*
X20012190Y12180902D01*
X20003713Y12181737D01*
X19984329Y12185593D01*
X19984312Y12185593D01*
X19984084Y12185594D01*
X19964847Y12181746D01*
X19956326Y12180902D01*
X19612189Y12180902D01*
X19603712Y12181737D01*
X19584332Y12185592D01*
X19564952Y12181737D01*
X19556475Y12180902D01*
X19212189Y12180902D01*
X19203712Y12181737D01*
X19184332Y12185592D01*
X19164952Y12181737D01*
X19156475Y12180902D01*
X19136708Y12180902D01*
X19118454Y12173341D01*
X19110308Y12170869D01*
X19090921Y12167012D01*
X19074490Y12156033D01*
X19066980Y12152019D01*
X19048725Y12144458D01*
X19048724Y12144457D01*
X19034746Y12130480D01*
X19028165Y12125080D01*
X19011736Y12114102D01*
X19011733Y12114099D01*
X19000754Y12097669D01*
X18995354Y12091089D01*
X18981377Y12077111D01*
X18977220Y12067073D01*
X18977217Y12067066D01*
X18973812Y12058849D01*
X18969801Y12051346D01*
X18958822Y12034913D01*
X18954965Y12015526D01*
X18952493Y12007380D01*
X18944932Y11989126D01*
X18944932Y11969360D01*
X18944097Y11960884D01*
X18940242Y11941503D01*
X18940242Y11941502D01*
X17822894Y11941502D01*
X17833916Y11952526D01*
X17840491Y11957922D01*
X17856930Y11968904D01*
X17862259Y11976881D01*
X17869915Y11985565D01*
X17877161Y11991847D01*
X17877927Y11993382D01*
X17886070Y12004679D01*
X17887285Y12005893D01*
X17894847Y12024151D01*
X17898863Y12031663D01*
X17901030Y12034906D01*
X17909842Y12048093D01*
X17911712Y12057500D01*
X17915466Y12068457D01*
X17916303Y12070131D01*
X17919754Y12077032D01*
X17919875Y12078741D01*
X17923074Y12092296D01*
X17923732Y12093882D01*
X17923732Y12113645D01*
X17924567Y12122122D01*
X17925155Y12125080D01*
X17928422Y12141502D01*
X17926549Y12150917D01*
X17925825Y12162469D01*
X17926505Y12172032D01*
X17925961Y12173664D01*
X17923732Y12187402D01*
X17923732Y12513645D01*
X17924567Y12522122D01*
X17928422Y12541502D01*
X17928422Y12541503D01*
X17924567Y12560884D01*
X17923732Y12569360D01*
X17923732Y12589122D01*
X17916167Y12607384D01*
X17913697Y12615528D01*
X17909842Y12634911D01*
X17905438Y12641502D01*
X18740242Y12641502D01*
X18744097Y12622122D01*
X18744932Y12613645D01*
X18744932Y12593882D01*
X18746904Y12589122D01*
X18752494Y12575624D01*
X18754965Y12567478D01*
X18758822Y12548093D01*
X18758822Y12548092D01*
X18769802Y12531658D01*
X18773815Y12524150D01*
X18781378Y12505895D01*
X18781378Y12505894D01*
X18795350Y12491922D01*
X18800752Y12485339D01*
X18805633Y12478035D01*
X18811733Y12468905D01*
X18828166Y12457925D01*
X18834751Y12452521D01*
X18848723Y12438549D01*
X18866981Y12430986D01*
X18874483Y12426977D01*
X18890923Y12415992D01*
X18910306Y12412137D01*
X18918450Y12409667D01*
X18936712Y12402102D01*
X18956475Y12402102D01*
X18964951Y12401268D01*
X18984332Y12397412D01*
X19003712Y12401268D01*
X19012189Y12402102D01*
X19356475Y12402102D01*
X19364951Y12401268D01*
X19384332Y12397412D01*
X19403712Y12401268D01*
X19412189Y12402102D01*
X19431951Y12402102D01*
X19431952Y12402102D01*
X19450212Y12409666D01*
X19458357Y12412137D01*
X19477741Y12415992D01*
X19494178Y12426976D01*
X19501679Y12430986D01*
X19519941Y12438549D01*
X19533917Y12452527D01*
X19540486Y12457918D01*
X19556930Y12468904D01*
X19567916Y12485348D01*
X19573307Y12491917D01*
X19587285Y12505893D01*
X19594848Y12524155D01*
X19598860Y12531658D01*
X19609842Y12548093D01*
X19613698Y12567478D01*
X19616169Y12575624D01*
X19623732Y12593882D01*
X19623732Y12613645D01*
X19624567Y12622122D01*
X19628422Y12641502D01*
X19628422Y12641503D01*
X19624567Y12660884D01*
X19623732Y12669360D01*
X19623732Y12689122D01*
X19616167Y12707384D01*
X19613697Y12715528D01*
X19609842Y12734911D01*
X19598857Y12751351D01*
X19594848Y12758853D01*
X19587285Y12777111D01*
X19573311Y12791085D01*
X19567909Y12797668D01*
X19554749Y12817364D01*
X19548262Y12849980D01*
X19554749Y12865642D01*
X19556927Y12868903D01*
X19556930Y12868904D01*
X19567915Y12885347D01*
X19573307Y12891917D01*
X19587285Y12905893D01*
X19594848Y12924155D01*
X19598860Y12931658D01*
X19609842Y12948093D01*
X19613698Y12967478D01*
X19616169Y12975624D01*
X19623732Y12993882D01*
X19623732Y13013645D01*
X19624567Y13022122D01*
X19628422Y13041502D01*
X19628422Y13041503D01*
X19624567Y13060884D01*
X19623732Y13069360D01*
X19623732Y13089122D01*
X19616167Y13107384D01*
X19613697Y13115528D01*
X19609842Y13134911D01*
X19598857Y13151351D01*
X19594848Y13158853D01*
X19587285Y13177111D01*
X19573311Y13191085D01*
X19567909Y13197668D01*
X19556929Y13214101D01*
X19540497Y13225080D01*
X19533912Y13230484D01*
X19519940Y13244456D01*
X19501684Y13252019D01*
X19494176Y13256032D01*
X19477742Y13267012D01*
X19458356Y13270869D01*
X19450210Y13273340D01*
X19447417Y13274497D01*
X19431952Y13280902D01*
X19431950Y13280902D01*
X19412189Y13280902D01*
X19403712Y13281737D01*
X19384332Y13285592D01*
X19364952Y13281737D01*
X19356475Y13280902D01*
X19012189Y13280902D01*
X19003712Y13281737D01*
X18984332Y13285592D01*
X18964952Y13281737D01*
X18956475Y13280902D01*
X18936708Y13280902D01*
X18918454Y13273341D01*
X18910308Y13270869D01*
X18890923Y13267012D01*
X18874488Y13256032D01*
X18866982Y13252020D01*
X18848725Y13244457D01*
X18848722Y13244455D01*
X18834749Y13230482D01*
X18828168Y13225082D01*
X18811736Y13214102D01*
X18811732Y13214098D01*
X18800752Y13197666D01*
X18795352Y13191085D01*
X18781379Y13177112D01*
X18781377Y13177109D01*
X18773814Y13158852D01*
X18769802Y13151346D01*
X18758822Y13134911D01*
X18754965Y13115526D01*
X18752493Y13107380D01*
X18744932Y13089126D01*
X18744932Y13069360D01*
X18744097Y13060884D01*
X18740242Y13041503D01*
X18740242Y13041502D01*
X18744097Y13022122D01*
X18744932Y13013645D01*
X18744932Y12993882D01*
X18751337Y12978417D01*
X18752494Y12975624D01*
X18754965Y12967478D01*
X18758822Y12948093D01*
X18758822Y12948092D01*
X18769802Y12931658D01*
X18773815Y12924150D01*
X18781378Y12905895D01*
X18781378Y12905894D01*
X18795350Y12891922D01*
X18800754Y12885337D01*
X18813914Y12865641D01*
X18820401Y12833025D01*
X18813913Y12817362D01*
X18800753Y12797667D01*
X18795352Y12791085D01*
X18781379Y12777112D01*
X18781377Y12777109D01*
X18773814Y12758852D01*
X18769802Y12751346D01*
X18758822Y12734911D01*
X18754965Y12715526D01*
X18752493Y12707380D01*
X18744932Y12689126D01*
X18744932Y12669360D01*
X18744097Y12660884D01*
X18740242Y12641503D01*
X18740242Y12641502D01*
X17905438Y12641502D01*
X17898857Y12651351D01*
X17894845Y12658859D01*
X17887285Y12677111D01*
X17873313Y12691083D01*
X17867909Y12697668D01*
X17856930Y12714100D01*
X17854785Y12715533D01*
X17840497Y12725080D01*
X17833912Y12730484D01*
X17819940Y12744456D01*
X17801684Y12752019D01*
X17794176Y12756032D01*
X17777742Y12767012D01*
X17758356Y12770869D01*
X17750210Y12773340D01*
X17747417Y12774497D01*
X17731952Y12780902D01*
X17731950Y12780902D01*
X17712189Y12780902D01*
X17703712Y12781737D01*
X17684332Y12785592D01*
X17664952Y12781737D01*
X17656475Y12780902D01*
X17312189Y12780902D01*
X17303712Y12781737D01*
X17284332Y12785592D01*
X17264952Y12781737D01*
X17256475Y12780902D01*
X16912189Y12780902D01*
X16903712Y12781737D01*
X16884333Y12785592D01*
X16884330Y12785592D01*
X16874918Y12783721D01*
X16863370Y12782996D01*
X16853803Y12783676D01*
X16852174Y12783132D01*
X16838434Y12780902D01*
X16836708Y12780902D01*
X16818454Y12773341D01*
X16810308Y12770869D01*
X16790921Y12767012D01*
X16782946Y12761683D01*
X16772553Y12756593D01*
X16763454Y12753560D01*
X16763449Y12753557D01*
X16762148Y12752428D01*
X16750315Y12745116D01*
X16748724Y12744458D01*
X16734745Y12730480D01*
X16728165Y12725081D01*
X16711736Y12714103D01*
X16711732Y12714099D01*
X16706401Y12706122D01*
X16698750Y12697446D01*
X16691502Y12691159D01*
X16690728Y12689611D01*
X16682600Y12678334D01*
X16681378Y12677113D01*
X16681377Y12677110D01*
X16673818Y12658859D01*
X16669804Y12651349D01*
X16658822Y12634912D01*
X16658822Y12634911D01*
X16656950Y12625501D01*
X16653198Y12614550D01*
X16648910Y12605975D01*
X16648909Y12605970D01*
X16648787Y12604253D01*
X16645591Y12590714D01*
X16644932Y12589124D01*
X16644932Y12569360D01*
X16644097Y12560883D01*
X16640242Y12541503D01*
X16640242Y12541502D01*
X16642113Y12532090D01*
X16642838Y12520542D01*
X16642158Y12510974D01*
X16642702Y12509344D01*
X16644932Y12495604D01*
X16644932Y12169360D01*
X16644097Y12160884D01*
X16640242Y12141503D01*
X16640242Y12141502D01*
X15597745Y12141502D01*
X15597745Y13841502D01*
X18740242Y13841502D01*
X18744097Y13822122D01*
X18744932Y13813645D01*
X18744932Y13793882D01*
X18751337Y13778417D01*
X18752494Y13775624D01*
X18754965Y13767478D01*
X18758822Y13748093D01*
X18758822Y13748092D01*
X18769802Y13731658D01*
X18773815Y13724150D01*
X18781378Y13705895D01*
X18781378Y13705894D01*
X18795350Y13691922D01*
X18800754Y13685337D01*
X18810276Y13671085D01*
X18811734Y13668904D01*
X18828166Y13657925D01*
X18834751Y13652521D01*
X18848723Y13638549D01*
X18866981Y13630986D01*
X18874483Y13626977D01*
X18890923Y13615992D01*
X18910306Y13612137D01*
X18918450Y13609667D01*
X18936712Y13602102D01*
X18956475Y13602102D01*
X18964951Y13601268D01*
X18984332Y13597412D01*
X19003712Y13601268D01*
X19012189Y13602102D01*
X19356475Y13602102D01*
X19364951Y13601268D01*
X19384332Y13597412D01*
X19403712Y13601268D01*
X19412189Y13602102D01*
X19431951Y13602102D01*
X19431952Y13602102D01*
X19450212Y13609666D01*
X19458357Y13612137D01*
X19477741Y13615992D01*
X19494178Y13626976D01*
X19501679Y13630986D01*
X19519941Y13638549D01*
X19533917Y13652527D01*
X19540487Y13657919D01*
X19556930Y13668904D01*
X19556931Y13668907D01*
X19560192Y13671085D01*
X19592809Y13677572D01*
X19608470Y13671084D01*
X19690919Y13615994D01*
X19690920Y13615994D01*
X19690923Y13615992D01*
X19784332Y13597412D01*
X19877741Y13615992D01*
X19956930Y13668904D01*
X20009842Y13748093D01*
X20028422Y13841502D01*
X20009842Y13934911D01*
X19956930Y14014100D01*
X19956929Y14014101D01*
X19954750Y14017362D01*
X19948262Y14049979D01*
X19954750Y14065642D01*
X19967910Y14085337D01*
X20009842Y14148093D01*
X20028422Y14241502D01*
X20009842Y14334911D01*
X19956930Y14414100D01*
X19956927Y14414102D01*
X19923940Y14436143D01*
X20640242Y14436143D01*
X20658822Y14342734D01*
X20682445Y14307380D01*
X20710707Y14265081D01*
X20711734Y14263545D01*
X20790923Y14210633D01*
X20884332Y14192053D01*
X20977741Y14210633D01*
X21056930Y14263545D01*
X21109842Y14342734D01*
X21128422Y14436143D01*
X21109842Y14529552D01*
X21056930Y14608741D01*
X21055547Y14609665D01*
X21014935Y14636801D01*
X20977741Y14661653D01*
X20884332Y14680233D01*
X20790923Y14661653D01*
X20711734Y14608742D01*
X20711733Y14608741D01*
X20674414Y14552888D01*
X20658822Y14529552D01*
X20640242Y14436143D01*
X19923940Y14436143D01*
X19911500Y14444455D01*
X19877741Y14467012D01*
X19784332Y14485592D01*
X19690923Y14467012D01*
X19608470Y14411920D01*
X19575854Y14405433D01*
X19560191Y14411921D01*
X19556928Y14414101D01*
X19540496Y14425081D01*
X19533912Y14430484D01*
X19519940Y14444456D01*
X19501684Y14452019D01*
X19494176Y14456032D01*
X19477742Y14467012D01*
X19458356Y14470869D01*
X19450210Y14473340D01*
X19447417Y14474497D01*
X19431952Y14480902D01*
X19431950Y14480902D01*
X19412189Y14480902D01*
X19403712Y14481737D01*
X19384332Y14485592D01*
X19364952Y14481737D01*
X19356475Y14480902D01*
X19012189Y14480902D01*
X19003712Y14481737D01*
X18984332Y14485592D01*
X18964952Y14481737D01*
X18956475Y14480902D01*
X18936708Y14480902D01*
X18918454Y14473341D01*
X18910308Y14470869D01*
X18890923Y14467012D01*
X18874488Y14456032D01*
X18866982Y14452020D01*
X18848725Y14444457D01*
X18848722Y14444455D01*
X18834749Y14430482D01*
X18828168Y14425082D01*
X18811736Y14414102D01*
X18811732Y14414098D01*
X18800752Y14397666D01*
X18795352Y14391085D01*
X18781379Y14377112D01*
X18781377Y14377109D01*
X18773814Y14358852D01*
X18769802Y14351346D01*
X18758822Y14334911D01*
X18754965Y14315526D01*
X18752493Y14307380D01*
X18744932Y14289126D01*
X18744932Y14269360D01*
X18744097Y14260884D01*
X18740242Y14241503D01*
X18740242Y14241502D01*
X18744097Y14222122D01*
X18744932Y14213645D01*
X18744932Y14193882D01*
X18751337Y14178417D01*
X18752494Y14175624D01*
X18754965Y14167478D01*
X18758822Y14148093D01*
X18758822Y14148092D01*
X18769802Y14131658D01*
X18773815Y14124150D01*
X18781378Y14105895D01*
X18781378Y14105894D01*
X18795350Y14091922D01*
X18800754Y14085337D01*
X18813914Y14065641D01*
X18820401Y14033025D01*
X18813913Y14017362D01*
X18800753Y13997667D01*
X18795352Y13991085D01*
X18781379Y13977112D01*
X18781377Y13977109D01*
X18773814Y13958852D01*
X18769802Y13951346D01*
X18758822Y13934911D01*
X18754965Y13915526D01*
X18752493Y13907380D01*
X18744932Y13889126D01*
X18744932Y13869360D01*
X18744097Y13860884D01*
X18740242Y13841503D01*
X18740242Y13841502D01*
X15597745Y13841502D01*
X15597745Y14341502D01*
X16640242Y14341502D01*
X16644097Y14322122D01*
X16644932Y14313645D01*
X16644932Y14293882D01*
X16646902Y14289126D01*
X16652494Y14275624D01*
X16654965Y14267478D01*
X16658822Y14248093D01*
X16658822Y14248092D01*
X16669800Y14231661D01*
X16673814Y14224152D01*
X16681377Y14205894D01*
X16695352Y14191919D01*
X16700754Y14185336D01*
X16711734Y14168904D01*
X16728163Y14157927D01*
X16734748Y14152523D01*
X16748723Y14138548D01*
X16766981Y14130986D01*
X16774491Y14126972D01*
X16790923Y14115992D01*
X16810306Y14112137D01*
X16818450Y14109667D01*
X16836712Y14102102D01*
X16856475Y14102102D01*
X16864951Y14101268D01*
X16884332Y14097412D01*
X16903712Y14101268D01*
X16912189Y14102102D01*
X17256475Y14102102D01*
X17264951Y14101268D01*
X17284332Y14097412D01*
X17303712Y14101268D01*
X17312189Y14102102D01*
X17636712Y14102102D01*
X17656475Y14102102D01*
X17664951Y14101268D01*
X17684332Y14097412D01*
X17693739Y14099284D01*
X17705287Y14100010D01*
X17714861Y14099329D01*
X17716490Y14099873D01*
X17730231Y14102102D01*
X17731951Y14102102D01*
X17731952Y14102102D01*
X17750212Y14109666D01*
X17758357Y14112137D01*
X17777741Y14115992D01*
X17785719Y14121324D01*
X17796115Y14126415D01*
X17805212Y14129446D01*
X17806507Y14130569D01*
X17818357Y14137893D01*
X17818494Y14137951D01*
X17819941Y14138549D01*
X17833916Y14152526D01*
X17840491Y14157922D01*
X17856930Y14168904D01*
X17862259Y14176881D01*
X17869915Y14185565D01*
X17877161Y14191847D01*
X17877927Y14193382D01*
X17886070Y14204679D01*
X17887285Y14205893D01*
X17894848Y14224152D01*
X17898863Y14231663D01*
X17909842Y14248093D01*
X17911712Y14257500D01*
X17915466Y14268457D01*
X17919754Y14277033D01*
X17919875Y14278739D01*
X17923074Y14292296D01*
X17923732Y14293882D01*
X17923732Y14313645D01*
X17924567Y14322122D01*
X17924705Y14322814D01*
X17928422Y14341502D01*
X17926549Y14350917D01*
X17925825Y14362469D01*
X17926505Y14372032D01*
X17925961Y14373664D01*
X17923732Y14387402D01*
X17923732Y14713645D01*
X17924567Y14722122D01*
X17928422Y14741502D01*
X17928422Y14741503D01*
X17924567Y14760884D01*
X17923732Y14769360D01*
X17923732Y14789122D01*
X17916167Y14807384D01*
X17913697Y14815528D01*
X17909842Y14834911D01*
X17905438Y14841502D01*
X18840242Y14841502D01*
X18844097Y14822122D01*
X18844932Y14813645D01*
X18844932Y14793882D01*
X18846684Y14789652D01*
X18849812Y14776961D01*
X18850226Y14772409D01*
X18850228Y14772401D01*
X18853362Y14766430D01*
X18857503Y14754718D01*
X18858820Y14748098D01*
X18858823Y14748090D01*
X18869802Y14731658D01*
X18873815Y14724150D01*
X18881378Y14705895D01*
X18881378Y14705894D01*
X18884613Y14702659D01*
X18892362Y14692128D01*
X18894489Y14688075D01*
X18899676Y14683753D01*
X18907981Y14674520D01*
X18911734Y14668904D01*
X18922586Y14661653D01*
X18928167Y14657924D01*
X18934751Y14652521D01*
X18948723Y14638549D01*
X18952946Y14636800D01*
X18964136Y14630037D01*
X18967655Y14627104D01*
X18974095Y14625098D01*
X18985313Y14619740D01*
X18990918Y14615994D01*
X18990922Y14615993D01*
X18990923Y14615992D01*
X19010306Y14612137D01*
X19018450Y14609667D01*
X19036712Y14602102D01*
X19041289Y14602102D01*
X19054213Y14600136D01*
X19058582Y14598774D01*
X19065298Y14599385D01*
X19077712Y14598729D01*
X19084332Y14597412D01*
X19103712Y14601268D01*
X19112189Y14602102D01*
X19456475Y14602102D01*
X19464951Y14601267D01*
X19467274Y14600805D01*
X19484332Y14597412D01*
X19484336Y14597414D01*
X19484585Y14597414D01*
X19484587Y14597413D01*
X19484588Y14597414D01*
X19487758Y14597416D01*
X19487770Y14597416D01*
X19488871Y14597417D01*
X19488871Y14597229D01*
X19491928Y14597304D01*
X19491919Y14597492D01*
X19496191Y14597701D01*
X19496197Y14597700D01*
X19508617Y14600805D01*
X19519155Y14602102D01*
X19531951Y14602102D01*
X19531952Y14602102D01*
X19550212Y14609666D01*
X19558360Y14612137D01*
X19577737Y14615991D01*
X19577737Y14615992D01*
X19577741Y14615992D01*
X19577743Y14615994D01*
X19577853Y14616039D01*
X19577973Y14616090D01*
X19577977Y14616090D01*
X19577980Y14616093D01*
X19578011Y14616105D01*
X19581981Y14617744D01*
X19582048Y14617580D01*
X19590215Y14621206D01*
X19898689Y14698325D01*
X19912304Y14699511D01*
X19914861Y14699329D01*
X19936627Y14706586D01*
X19943970Y14708342D01*
X19966668Y14711718D01*
X19966670Y14711720D01*
X19970697Y14713162D01*
X19970750Y14713012D01*
X19973842Y14714206D01*
X19973782Y14714351D01*
X19981693Y14717629D01*
X19981753Y14717483D01*
X19984789Y14718828D01*
X19984722Y14718971D01*
X19988590Y14720799D01*
X19988590Y14720800D01*
X19988594Y14720800D01*
X19990651Y14722325D01*
X20002783Y14728637D01*
X20005212Y14729446D01*
X20022552Y14744487D01*
X20028658Y14748914D01*
X20048336Y14760719D01*
X20048337Y14760722D01*
X20051506Y14763595D01*
X20051612Y14763478D01*
X20054015Y14765765D01*
X20053903Y14765877D01*
X20059957Y14771931D01*
X20060068Y14771820D01*
X20062358Y14774224D01*
X20062241Y14774330D01*
X20065113Y14777497D01*
X20065112Y14777497D01*
X20065116Y14777499D01*
X20066432Y14779694D01*
X20075225Y14790167D01*
X20077162Y14791846D01*
X20087427Y14812378D01*
X20091374Y14818807D01*
X20105034Y14837242D01*
X20105035Y14837249D01*
X20106861Y14841111D01*
X20107005Y14841043D01*
X20108349Y14844077D01*
X20108204Y14844137D01*
X20111481Y14852049D01*
X20111628Y14851988D01*
X20112823Y14855083D01*
X20112672Y14855137D01*
X20114114Y14859163D01*
X20114116Y14859165D01*
X20114493Y14861700D01*
X20118605Y14874734D01*
X20277932Y15193390D01*
X20286070Y15204679D01*
X20287285Y15205893D01*
X20294847Y15224151D01*
X20298863Y15231663D01*
X20309842Y15248093D01*
X20311712Y15257500D01*
X20315466Y15268457D01*
X20319754Y15277033D01*
X20319875Y15278739D01*
X20323074Y15292296D01*
X20323732Y15293882D01*
X20323732Y15313645D01*
X20324567Y15322122D01*
X20328422Y15341502D01*
X20326549Y15350917D01*
X20325825Y15362469D01*
X20326505Y15372032D01*
X20325961Y15373664D01*
X20323732Y15387402D01*
X20323732Y15706684D01*
X20325029Y15717222D01*
X20328133Y15729637D01*
X20328132Y15729643D01*
X20328341Y15733914D01*
X20328501Y15733907D01*
X20328582Y15737210D01*
X20328424Y15737209D01*
X20328421Y15741498D01*
X20328422Y15741502D01*
X20328421Y15741507D01*
X20328421Y15741754D01*
X20328420Y15741756D01*
X20328421Y15741757D01*
X20324576Y15760983D01*
X20323732Y15769504D01*
X20323732Y15789121D01*
X20323732Y15789122D01*
X20318831Y15800952D01*
X20315998Y15811183D01*
X20314116Y15823838D01*
X20314112Y15823844D01*
X20312671Y15827870D01*
X20312819Y15827924D01*
X20311629Y15831007D01*
X20311486Y15830947D01*
X20309842Y15834909D01*
X20309842Y15834911D01*
X20309840Y15834914D01*
X20309746Y15835141D01*
X20298831Y15851440D01*
X20294792Y15858986D01*
X20287285Y15877111D01*
X20278232Y15886164D01*
X20271697Y15894535D01*
X20269970Y15897413D01*
X20265115Y15905506D01*
X20262242Y15908673D01*
X20262358Y15908779D01*
X20260016Y15911239D01*
X20259899Y15911121D01*
X20259697Y15911324D01*
X20259628Y15911407D01*
X20257089Y15913942D01*
X20257015Y15914015D01*
X20256754Y15914276D01*
X20256749Y15914279D01*
X20256749Y15914280D01*
X20245870Y15921533D01*
X20240428Y15925161D01*
X20233807Y15930589D01*
X20219940Y15944456D01*
X20208110Y15949356D01*
X20198875Y15954585D01*
X20188592Y15962204D01*
X20188591Y15962205D01*
X20188590Y15962205D01*
X20184725Y15964031D01*
X20184792Y15964173D01*
X20181684Y15965550D01*
X20181622Y15965399D01*
X20181315Y15965527D01*
X20181207Y15965585D01*
X20177965Y15966920D01*
X20177840Y15966972D01*
X20177515Y15967107D01*
X20158266Y15970916D01*
X20150075Y15973396D01*
X20143780Y15976003D01*
X20131952Y15980902D01*
X20131950Y15980902D01*
X20119150Y15980902D01*
X20108613Y15982199D01*
X20096193Y15985304D01*
X20091920Y15985512D01*
X20091927Y15985668D01*
X20088482Y15985751D01*
X20088482Y15985576D01*
X20088073Y15985578D01*
X20087791Y15985606D01*
X20084493Y15985593D01*
X20084171Y15985593D01*
X20084088Y15985594D01*
X20064851Y15981746D01*
X20056330Y15980902D01*
X20036709Y15980902D01*
X20024881Y15976003D01*
X20014654Y15973171D01*
X20010182Y15972505D01*
X20001992Y15971286D01*
X19997969Y15969844D01*
X19997916Y15969990D01*
X19994708Y15968752D01*
X19994775Y15968590D01*
X19994352Y15968417D01*
X19994045Y15968324D01*
X19991079Y15967078D01*
X19990747Y15966940D01*
X19990698Y15966921D01*
X19974390Y15956000D01*
X19966846Y15951963D01*
X19961830Y15949886D01*
X19948722Y15944455D01*
X19948721Y15944454D01*
X19939670Y15935404D01*
X19931305Y15928874D01*
X19503302Y15672072D01*
X19494817Y15668795D01*
X19494877Y15668650D01*
X19490921Y15667012D01*
X19463763Y15648866D01*
X19459819Y15646522D01*
X19430907Y15631347D01*
X19429583Y15630277D01*
X19421594Y15623435D01*
X19417159Y15619411D01*
X19417054Y15619527D01*
X19414650Y15617237D01*
X19414760Y15617127D01*
X19411737Y15614104D01*
X19393589Y15586945D01*
X19390841Y15583270D01*
X18926585Y15026162D01*
X18917348Y15017852D01*
X18911735Y15014102D01*
X18900752Y14997666D01*
X18895352Y14991086D01*
X18881378Y14977112D01*
X18881378Y14977111D01*
X18879625Y14972879D01*
X18872867Y14961700D01*
X18869934Y14958181D01*
X18869933Y14958179D01*
X18867925Y14951733D01*
X18862573Y14940525D01*
X18858822Y14934911D01*
X18854965Y14915526D01*
X18852493Y14907380D01*
X18844932Y14889126D01*
X18844932Y14884545D01*
X18842965Y14871621D01*
X18841604Y14867252D01*
X18842215Y14860527D01*
X18841558Y14848121D01*
X18840242Y14841504D01*
X18840242Y14841502D01*
X17905438Y14841502D01*
X17898857Y14851351D01*
X17894848Y14858853D01*
X17887285Y14877111D01*
X17873313Y14891083D01*
X17867909Y14897668D01*
X17856930Y14914100D01*
X17856927Y14914102D01*
X17840497Y14925080D01*
X17833912Y14930484D01*
X17819940Y14944456D01*
X17801684Y14952019D01*
X17794176Y14956032D01*
X17777742Y14967012D01*
X17758356Y14970869D01*
X17750210Y14973340D01*
X17747417Y14974497D01*
X17731952Y14980902D01*
X17731950Y14980902D01*
X17712189Y14980902D01*
X17703712Y14981737D01*
X17684332Y14985592D01*
X17664952Y14981737D01*
X17656475Y14980902D01*
X17312189Y14980902D01*
X17303712Y14981737D01*
X17284332Y14985592D01*
X17264952Y14981737D01*
X17256475Y14980902D01*
X16912189Y14980902D01*
X16903712Y14981737D01*
X16884333Y14985592D01*
X16884330Y14985592D01*
X16874918Y14983721D01*
X16863370Y14982996D01*
X16853803Y14983676D01*
X16852174Y14983132D01*
X16838434Y14980902D01*
X16836708Y14980902D01*
X16818454Y14973341D01*
X16810308Y14970869D01*
X16790921Y14967012D01*
X16782946Y14961683D01*
X16772553Y14956593D01*
X16763453Y14953559D01*
X16763449Y14953557D01*
X16762148Y14952428D01*
X16750320Y14945117D01*
X16749904Y14944945D01*
X16748721Y14944455D01*
X16734750Y14930483D01*
X16728167Y14925081D01*
X16711735Y14914102D01*
X16711732Y14914099D01*
X16706401Y14906122D01*
X16698750Y14897446D01*
X16691501Y14891159D01*
X16690728Y14889611D01*
X16682595Y14878328D01*
X16681380Y14877114D01*
X16681378Y14877111D01*
X16673815Y14858853D01*
X16669802Y14851346D01*
X16658822Y14834912D01*
X16658822Y14834911D01*
X16656950Y14825501D01*
X16653198Y14814550D01*
X16648910Y14805975D01*
X16648909Y14805970D01*
X16648787Y14804253D01*
X16645591Y14790714D01*
X16644932Y14789124D01*
X16644932Y14769360D01*
X16644097Y14760883D01*
X16640242Y14741503D01*
X16640242Y14741502D01*
X16642113Y14732090D01*
X16642838Y14720542D01*
X16642158Y14710974D01*
X16642702Y14709344D01*
X16644932Y14695604D01*
X16644932Y14369360D01*
X16644097Y14360884D01*
X16640242Y14341503D01*
X16640242Y14341502D01*
X15597745Y14341502D01*
X15597745Y15380111D01*
X15597751Y15380180D01*
X15597749Y15384547D01*
X15597751Y15384549D01*
X15597745Y15406358D01*
X15597745Y15424502D01*
X15597745Y15424514D01*
X15597742Y15424526D01*
X15592359Y15437510D01*
X15589257Y15444993D01*
X15582445Y15461440D01*
X15582442Y15461443D01*
X15582439Y15461451D01*
X15582434Y15461459D01*
X15582430Y15461465D01*
X15566531Y15477354D01*
X15566525Y15477367D01*
X15566522Y15477363D01*
X15554168Y15489717D01*
X15554156Y15489725D01*
X15554150Y15489728D01*
X15534198Y15497985D01*
X15534197Y15497986D01*
X15534198Y15497988D01*
X15534183Y15497991D01*
X15528141Y15500494D01*
X15517233Y15505013D01*
X15517210Y15505017D01*
X15517207Y15505017D01*
X15501748Y15505013D01*
X15496595Y15505011D01*
X15473568Y15505011D01*
X15473496Y15505005D01*
X591Y15500500D01*
X-20007Y15500500D01*
X-37149Y15493394D01*
X-37158Y15493390D01*
X-56945Y15485194D01*
X-71080Y15471051D01*
X-71086Y15471044D01*
X-85211Y15456919D01*
X-93240Y15437519D01*
X-93244Y15437510D01*
X-100503Y15419985D01*
X-100506Y15419967D01*
X-100506Y15419963D01*
X-100506Y15419962D01*
X-11797670Y15419962D01*
X-11797670Y16160971D01*
X7751748Y16160971D01*
X7770328Y16067562D01*
X7823240Y15988373D01*
X7902429Y15935461D01*
X7995838Y15916881D01*
X8089247Y15935461D01*
X8168436Y15988373D01*
X8221348Y16067562D01*
X8236055Y16141502D01*
X12240242Y16141502D01*
X12258822Y16048093D01*
X12294175Y15995182D01*
X12310389Y15970916D01*
X12311734Y15968904D01*
X12390923Y15915992D01*
X12484332Y15897412D01*
X12577741Y15915992D01*
X12656930Y15968904D01*
X12709842Y16048093D01*
X12728422Y16141502D01*
X12709842Y16234911D01*
X12656930Y16314100D01*
X12615920Y16341502D01*
X19440242Y16341502D01*
X19444097Y16322122D01*
X19444932Y16313645D01*
X19444932Y16293882D01*
X19451337Y16278417D01*
X19452494Y16275624D01*
X19454965Y16267478D01*
X19458822Y16248093D01*
X19458822Y16248092D01*
X19469802Y16231658D01*
X19473815Y16224150D01*
X19481378Y16205895D01*
X19481378Y16205894D01*
X19495350Y16191922D01*
X19500752Y16185339D01*
X19505633Y16178035D01*
X19511733Y16168905D01*
X19528166Y16157925D01*
X19534751Y16152521D01*
X19548723Y16138549D01*
X19566981Y16130986D01*
X19574483Y16126977D01*
X19590923Y16115992D01*
X19610306Y16112137D01*
X19618450Y16109667D01*
X19636712Y16102102D01*
X19656475Y16102102D01*
X19664951Y16101268D01*
X19684332Y16097412D01*
X19703712Y16101268D01*
X19712189Y16102102D01*
X19731952Y16102102D01*
X20036712Y16102102D01*
X20056475Y16102102D01*
X20064951Y16101268D01*
X20084332Y16097412D01*
X20103712Y16101268D01*
X20112189Y16102102D01*
X20131951Y16102102D01*
X20131952Y16102102D01*
X20150212Y16109666D01*
X20158357Y16112137D01*
X20177741Y16115992D01*
X20194178Y16126976D01*
X20201679Y16130986D01*
X20219941Y16138549D01*
X20233917Y16152527D01*
X20240486Y16157918D01*
X20256930Y16168904D01*
X20267916Y16185348D01*
X20273307Y16191917D01*
X20287285Y16205893D01*
X20294848Y16224155D01*
X20298860Y16231658D01*
X20309842Y16248093D01*
X20313698Y16267478D01*
X20316169Y16275624D01*
X20323732Y16293882D01*
X20323732Y16313645D01*
X20324567Y16322122D01*
X20328422Y16341502D01*
X20328422Y16341503D01*
X20324567Y16360884D01*
X20323732Y16369360D01*
X20323732Y16713645D01*
X20324567Y16722122D01*
X20328422Y16741502D01*
X20328422Y16741503D01*
X20324567Y16760884D01*
X20323732Y16769360D01*
X20323732Y16789122D01*
X20316167Y16807384D01*
X20313697Y16815528D01*
X20309842Y16834911D01*
X20298857Y16851351D01*
X20294847Y16858854D01*
X20287285Y16877111D01*
X20273313Y16891083D01*
X20267909Y16897668D01*
X20256930Y16914100D01*
X20256927Y16914102D01*
X20240497Y16925080D01*
X20233912Y16930484D01*
X20219940Y16944456D01*
X20201684Y16952019D01*
X20194176Y16956032D01*
X20177742Y16967012D01*
X20158356Y16970869D01*
X20150210Y16973340D01*
X20147417Y16974497D01*
X20131952Y16980902D01*
X20131950Y16980902D01*
X20112189Y16980902D01*
X20103712Y16981737D01*
X20084332Y16985592D01*
X20064952Y16981737D01*
X20056475Y16980902D01*
X19712189Y16980902D01*
X19703712Y16981737D01*
X19684332Y16985592D01*
X19664952Y16981737D01*
X19656475Y16980902D01*
X19636708Y16980902D01*
X19618454Y16973341D01*
X19610308Y16970869D01*
X19590921Y16967012D01*
X19574490Y16956033D01*
X19566980Y16952019D01*
X19548725Y16944458D01*
X19548724Y16944457D01*
X19534746Y16930480D01*
X19528165Y16925080D01*
X19511736Y16914102D01*
X19511732Y16914098D01*
X19500754Y16897669D01*
X19495354Y16891088D01*
X19481377Y16877110D01*
X19481376Y16877109D01*
X19473815Y16858854D01*
X19469801Y16851344D01*
X19458822Y16834913D01*
X19454965Y16815526D01*
X19452493Y16807380D01*
X19444932Y16789126D01*
X19444932Y16769360D01*
X19444097Y16760884D01*
X19440242Y16741503D01*
X19440242Y16741502D01*
X19444097Y16722122D01*
X19444932Y16713645D01*
X19444932Y16369360D01*
X19444097Y16360884D01*
X19440242Y16341503D01*
X19440242Y16341502D01*
X12615920Y16341502D01*
X12577741Y16367012D01*
X12484332Y16385592D01*
X12390923Y16367012D01*
X12311734Y16314101D01*
X12311733Y16314100D01*
X12267631Y16248095D01*
X12258822Y16234911D01*
X12240242Y16141502D01*
X8236055Y16141502D01*
X8239928Y16160971D01*
X8221348Y16254380D01*
X8168436Y16333569D01*
X8156563Y16341502D01*
X8127556Y16360884D01*
X8089247Y16386481D01*
X7995838Y16405061D01*
X7902429Y16386481D01*
X7823240Y16333570D01*
X7823239Y16333569D01*
X7781882Y16271672D01*
X7770328Y16254380D01*
X7751748Y16160971D01*
X-11797670Y16160971D01*
X-11797670Y16641502D01*
X7340242Y16641502D01*
X7358822Y16548093D01*
X7411734Y16468904D01*
X7490923Y16415992D01*
X7584332Y16397412D01*
X7677741Y16415992D01*
X7756930Y16468904D01*
X7809842Y16548093D01*
X7828422Y16641502D01*
X9590242Y16641502D01*
X9608822Y16548093D01*
X9661734Y16468904D01*
X9740923Y16415992D01*
X9834332Y16397412D01*
X9927741Y16415992D01*
X10006930Y16468904D01*
X10059842Y16548093D01*
X10078422Y16641502D01*
X10059842Y16734911D01*
X10006930Y16814100D01*
X10004785Y16815533D01*
X9975781Y16834913D01*
X9927741Y16867012D01*
X9834332Y16885592D01*
X9740923Y16867012D01*
X9661734Y16814101D01*
X9661733Y16814100D01*
X9626176Y16760884D01*
X9608822Y16734911D01*
X9590242Y16641502D01*
X7828422Y16641502D01*
X7809842Y16734911D01*
X7756930Y16814100D01*
X7754785Y16815533D01*
X7725781Y16834913D01*
X7677741Y16867012D01*
X7584332Y16885592D01*
X7490923Y16867012D01*
X7411734Y16814101D01*
X7411733Y16814100D01*
X7376176Y16760884D01*
X7358822Y16734911D01*
X7340242Y16641502D01*
X-11797670Y16641502D01*
X-11797670Y17041502D01*
X14840242Y17041502D01*
X14858822Y16948093D01*
X14874199Y16925080D01*
X14906251Y16877109D01*
X14911734Y16868904D01*
X14990923Y16815992D01*
X15084332Y16797412D01*
X15177741Y16815992D01*
X15256930Y16868904D01*
X15309842Y16948093D01*
X15328422Y17041502D01*
X15840242Y17041502D01*
X15858822Y16948093D01*
X15874199Y16925080D01*
X15906251Y16877109D01*
X15911734Y16868904D01*
X15990923Y16815992D01*
X16084332Y16797412D01*
X16177741Y16815992D01*
X16256930Y16868904D01*
X16309842Y16948093D01*
X16328422Y17041502D01*
X16309842Y17134911D01*
X16256930Y17214100D01*
X16254098Y17215992D01*
X16194901Y17255546D01*
X16177741Y17267012D01*
X16084332Y17285592D01*
X15990923Y17267012D01*
X15911734Y17214101D01*
X15911733Y17214100D01*
X15858822Y17134911D01*
X15840242Y17041502D01*
X15328422Y17041502D01*
X15309842Y17134911D01*
X15256930Y17214100D01*
X15254098Y17215992D01*
X15194901Y17255546D01*
X15177741Y17267012D01*
X15084332Y17285592D01*
X14990923Y17267012D01*
X14911734Y17214101D01*
X14911733Y17214100D01*
X14858822Y17134911D01*
X14840242Y17041502D01*
X-11797670Y17041502D01*
X-11797670Y17641502D01*
X7340242Y17641502D01*
X7358822Y17548093D01*
X7394175Y17495182D01*
X7405051Y17478905D01*
X7411734Y17468904D01*
X7490923Y17415992D01*
X7584332Y17397412D01*
X7677741Y17415992D01*
X7756930Y17468904D01*
X7809842Y17548093D01*
X7828422Y17641502D01*
X7826433Y17651502D01*
X14840242Y17651502D01*
X14858822Y17558093D01*
X14911734Y17478904D01*
X14990923Y17425992D01*
X15084332Y17407412D01*
X15177741Y17425992D01*
X15200954Y17441502D01*
X19440242Y17441502D01*
X19444097Y17422122D01*
X19444932Y17413645D01*
X19444932Y17393882D01*
X19451337Y17378417D01*
X19452494Y17375624D01*
X19454965Y17367478D01*
X19458822Y17348093D01*
X19458822Y17348092D01*
X19469802Y17331658D01*
X19473815Y17324150D01*
X19481378Y17305895D01*
X19481378Y17305894D01*
X19495350Y17291922D01*
X19500752Y17285339D01*
X19505633Y17278035D01*
X19511733Y17268905D01*
X19528166Y17257925D01*
X19534751Y17252521D01*
X19548723Y17238549D01*
X19566981Y17230986D01*
X19574483Y17226977D01*
X19590923Y17215992D01*
X19610306Y17212137D01*
X19618450Y17209667D01*
X19636712Y17202102D01*
X19656475Y17202102D01*
X19664951Y17201268D01*
X19684332Y17197412D01*
X19703712Y17201268D01*
X19712189Y17202102D01*
X19731952Y17202102D01*
X20036712Y17202102D01*
X20056475Y17202102D01*
X20064951Y17201268D01*
X20084332Y17197412D01*
X20103712Y17201268D01*
X20112189Y17202102D01*
X20131951Y17202102D01*
X20131952Y17202102D01*
X20150212Y17209666D01*
X20158357Y17212137D01*
X20177741Y17215992D01*
X20194178Y17226976D01*
X20201679Y17230986D01*
X20219941Y17238549D01*
X20233917Y17252527D01*
X20240486Y17257918D01*
X20256930Y17268904D01*
X20267916Y17285348D01*
X20273307Y17291917D01*
X20287285Y17305893D01*
X20294848Y17324155D01*
X20298860Y17331658D01*
X20309842Y17348093D01*
X20313698Y17367478D01*
X20316169Y17375624D01*
X20323732Y17393882D01*
X20323732Y17413645D01*
X20324567Y17422122D01*
X20328422Y17441502D01*
X20328422Y17441503D01*
X20324567Y17460884D01*
X20323732Y17469360D01*
X20323732Y17813645D01*
X20324567Y17822122D01*
X20328422Y17841502D01*
X20328422Y17841503D01*
X20324567Y17860884D01*
X20323732Y17869360D01*
X20323732Y17889122D01*
X20316167Y17907384D01*
X20313697Y17915528D01*
X20309842Y17934911D01*
X20298857Y17951351D01*
X20294847Y17958854D01*
X20287285Y17977111D01*
X20273313Y17991083D01*
X20267909Y17997668D01*
X20256930Y18014100D01*
X20256927Y18014102D01*
X20240497Y18025080D01*
X20233912Y18030484D01*
X20219940Y18044456D01*
X20201684Y18052019D01*
X20194176Y18056032D01*
X20177742Y18067012D01*
X20158356Y18070869D01*
X20150210Y18073340D01*
X20147417Y18074497D01*
X20131952Y18080902D01*
X20131950Y18080902D01*
X20112189Y18080902D01*
X20103712Y18081737D01*
X20084332Y18085592D01*
X20064952Y18081737D01*
X20056475Y18080902D01*
X19712189Y18080902D01*
X19703712Y18081737D01*
X19684332Y18085592D01*
X19664952Y18081737D01*
X19656475Y18080902D01*
X19636708Y18080902D01*
X19618454Y18073341D01*
X19610308Y18070869D01*
X19590921Y18067012D01*
X19574490Y18056033D01*
X19566980Y18052019D01*
X19548725Y18044458D01*
X19548724Y18044457D01*
X19534746Y18030480D01*
X19528165Y18025080D01*
X19511736Y18014102D01*
X19511732Y18014098D01*
X19500754Y17997669D01*
X19495354Y17991088D01*
X19481377Y17977110D01*
X19481376Y17977109D01*
X19473815Y17958854D01*
X19469801Y17951344D01*
X19458822Y17934913D01*
X19454965Y17915526D01*
X19452493Y17907380D01*
X19444932Y17889126D01*
X19444932Y17869360D01*
X19444097Y17860884D01*
X19440242Y17841503D01*
X19440242Y17841502D01*
X19444097Y17822122D01*
X19444932Y17813645D01*
X19444932Y17469360D01*
X19444097Y17460884D01*
X19440242Y17441503D01*
X19440242Y17441502D01*
X15200954Y17441502D01*
X15256930Y17478904D01*
X15309842Y17558093D01*
X15328422Y17651502D01*
X15309842Y17744911D01*
X15256930Y17824100D01*
X15177741Y17877012D01*
X15084332Y17895592D01*
X14990923Y17877012D01*
X14911734Y17824101D01*
X14911733Y17824100D01*
X14858822Y17744911D01*
X14840242Y17651502D01*
X7826433Y17651502D01*
X7809842Y17734911D01*
X7756930Y17814100D01*
X7741962Y17824101D01*
X7730652Y17831659D01*
X7677741Y17867012D01*
X7584332Y17885592D01*
X7490923Y17867012D01*
X7411734Y17814101D01*
X7411733Y17814100D01*
X7365504Y17744911D01*
X7358822Y17734911D01*
X7340242Y17641502D01*
X-11797670Y17641502D01*
X-11797670Y18466502D01*
X18570242Y18466502D01*
X18588822Y18373093D01*
X18641734Y18293904D01*
X18720923Y18240992D01*
X18814332Y18222412D01*
X18907741Y18240992D01*
X18986930Y18293904D01*
X19039842Y18373093D01*
X19058422Y18466502D01*
X19039842Y18559911D01*
X18986930Y18639100D01*
X18907741Y18692012D01*
X18814332Y18710592D01*
X18720923Y18692012D01*
X18641734Y18639101D01*
X18641733Y18639100D01*
X18588822Y18559911D01*
X18570242Y18466502D01*
X-11797670Y18466502D01*
X-11797670Y23261630D01*
X-11812970Y23298568D01*
X-11841241Y23326839D01*
X-11878179Y23342139D01*
X-11878180Y23342139D01*
X-14105744Y23342139D01*
X-14136468Y23354865D01*
X-14149194Y23385589D01*
X-14141871Y23409728D01*
X-14116239Y23448090D01*
X-14116239Y23448091D01*
X-14116237Y23448093D01*
X-14097657Y23541502D01*
X-14116237Y23634911D01*
X-14169149Y23714100D01*
X-14248338Y23767012D01*
X-14341747Y23785592D01*
X-14435156Y23767012D01*
X-14514345Y23714101D01*
X-14514346Y23714100D01*
X-14567257Y23634911D01*
X-14585837Y23541502D01*
X-14567257Y23448094D01*
X-14567256Y23448090D01*
X-14541623Y23409728D01*
X-14535135Y23377112D01*
X-14553611Y23349462D01*
X-14577750Y23342139D01*
X-14813532Y23342139D01*
X-14817790Y23342348D01*
X-14986883Y23359000D01*
X-14995237Y23360662D01*
X-15155771Y23409355D01*
X-15163639Y23412613D01*
X-15311601Y23491690D01*
X-15318683Y23496422D01*
X-15448369Y23602838D01*
X-15454390Y23608857D01*
X-15560839Y23738541D01*
X-15565561Y23745608D01*
X-15639470Y23883847D01*
X-15644661Y23893557D01*
X-15647921Y23901425D01*
X-15696640Y24061954D01*
X-15698303Y24070307D01*
X-15714958Y24239157D01*
X-15715168Y24243422D01*
X-15715168Y25955734D01*
X-15715136Y25957411D01*
X-15700638Y26332791D01*
X-15700379Y26336134D01*
X-15675923Y26546366D01*
X-15657071Y26708439D01*
X-15656556Y26711741D01*
X-15612796Y26935650D01*
X-15584662Y27079605D01*
X-15583901Y27082834D01*
X-15483847Y27444067D01*
X-15482837Y27447233D01*
X-15355228Y27799660D01*
X-15353966Y27802764D01*
X-15240811Y28053048D01*
X-15199546Y28144321D01*
X-15198066Y28147284D01*
X-15017584Y28476244D01*
X-15016775Y28477655D01*
X-14633962Y29115677D01*
X-14540780Y29270914D01*
X-14364712Y29623442D01*
X-14216362Y29988503D01*
X-14096617Y30363919D01*
X-14006189Y30747454D01*
X-13945617Y31136822D01*
X-13915263Y31529703D01*
X-13915320Y31726728D01*
X-13915323Y31753657D01*
X-13915324Y31753658D01*
X-13915324Y31762295D01*
X-13915325Y31762301D01*
X-13916422Y41792759D01*
X-13916422Y41811018D01*
X-13916424Y41811027D01*
X-13916424Y41811030D01*
X-13931728Y41847966D01*
X-13960002Y41876234D01*
X-13960005Y41876236D01*
X-13960006Y41876236D01*
X-13996937Y41891529D01*
X-13996942Y41891530D01*
X-13996943Y41891530D01*
X-14041086Y41891527D01*
X-14041199Y41891515D01*
X-20675817Y41891515D01*
X-20680075Y41891724D01*
X-20849165Y41908375D01*
X-20857518Y41910037D01*
X-21018047Y41958727D01*
X-21025917Y41961986D01*
X-21173867Y42041060D01*
X-21180949Y42045791D01*
X-21271779Y42120325D01*
X-21310637Y42152212D01*
X-21316659Y42158234D01*
X-21423090Y42287906D01*
X-21427820Y42294986D01*
X-21506146Y42441502D01*
X-15159758Y42441502D01*
X-15141178Y42348093D01*
X-15088266Y42268904D01*
X-15009077Y42215992D01*
X-14915668Y42197412D01*
X-14822259Y42215992D01*
X-14743070Y42268904D01*
X-14690158Y42348093D01*
X-14671578Y42441502D01*
X-14690158Y42534911D01*
X-14734718Y42601601D01*
X-12598683Y42601601D01*
X-12590894Y42570977D01*
X-12589830Y42565163D01*
X-12550025Y42214154D01*
X-12550283Y42202458D01*
X-12551967Y42191832D01*
X-12551822Y42188120D01*
X-12551573Y42184404D01*
X-12551573Y42184402D01*
X-12546890Y42167012D01*
X-12543919Y42155978D01*
X-12542702Y42149579D01*
X-12539384Y42120325D01*
X-12539383Y42120323D01*
X-12534175Y42110915D01*
X-12529938Y42100009D01*
X-12527430Y42089553D01*
X-12525860Y42086146D01*
X-12524221Y42082835D01*
X-12506270Y42059502D01*
X-12502694Y42054052D01*
X-12488439Y42028301D01*
X-12488438Y42028300D01*
X-12488437Y42028299D01*
X-12480025Y42021601D01*
X-12471937Y42013146D01*
X-12465615Y42004442D01*
X-12462897Y42001929D01*
X-12460086Y41999471D01*
X-12460083Y41999467D01*
X-12446644Y41991731D01*
X-12434570Y41984780D01*
X-12429182Y41981114D01*
X-12406153Y41962776D01*
X-12395821Y41959808D01*
X-12385110Y41955091D01*
X-12375940Y41949469D01*
X-12372492Y41948197D01*
X-12368926Y41946992D01*
X-12368923Y41946990D01*
X-12351049Y41944660D01*
X-12339737Y41943185D01*
X-12333356Y41941861D01*
X-12324715Y41939379D01*
X-12305057Y41933731D01*
X-12294373Y41934943D01*
X-12282681Y41934685D01*
X-12272052Y41932999D01*
X-12272048Y41933001D01*
X-12267774Y41933167D01*
X-12267745Y41932423D01*
X-12260418Y41932845D01*
X-11890230Y41884586D01*
X-11879230Y41881646D01*
X-11868260Y41877102D01*
X-11835647Y41877102D01*
X-11830029Y41876737D01*
X-11797698Y41872522D01*
X-11797698Y41872523D01*
X-11797697Y41872522D01*
X-11792947Y41873802D01*
X-11786240Y41875607D01*
X-11774942Y41877102D01*
X-11363077Y41877102D01*
X-11363076Y41877102D01*
X-11265897Y41917354D01*
X-11191520Y41991731D01*
X-11151268Y42088910D01*
X-11151268Y42488754D01*
X-11148790Y42503219D01*
X-11125882Y42568105D01*
X-11020235Y42867355D01*
X-11016958Y42874496D01*
X-11004710Y42895857D01*
X-11004710Y42895859D01*
X-11004662Y42895942D01*
X-11004270Y42897159D01*
X-11004088Y42897711D01*
X-11003653Y42899005D01*
X-11003641Y42899107D01*
X-11001580Y42916929D01*
X-10999394Y42926385D01*
X-10993418Y42943308D01*
X-10994731Y42967906D01*
X-10994439Y42975754D01*
X-10991297Y43000182D01*
X-10991298Y43000185D01*
X-10991284Y43000291D01*
X-10991399Y43001715D01*
X-10991440Y43002255D01*
X-10991526Y43003503D01*
X-10996467Y43020845D01*
X-10998068Y43030437D01*
X-10999023Y43048343D01*
X-10999023Y43048344D01*
X-11009650Y43070567D01*
X-11012379Y43077921D01*
X-11018827Y43101701D01*
X-11018829Y43101704D01*
X-11018852Y43101789D01*
X-11019383Y43102826D01*
X-11019627Y43103309D01*
X-11020302Y43104667D01*
X-11020371Y43104754D01*
X-11020371Y43104755D01*
X-11031516Y43118817D01*
X-11036657Y43127052D01*
X-11044397Y43143239D01*
X-11044400Y43143242D01*
X-11062710Y43159697D01*
X-11068058Y43165460D01*
X-11083169Y43185031D01*
X-11084110Y43185830D01*
X-11084524Y43186187D01*
X-11085608Y43187132D01*
X-11101383Y43195912D01*
X-11109295Y43201561D01*
X-11122632Y43213547D01*
X-11122634Y43213549D01*
X-11145852Y43221746D01*
X-11152995Y43225021D01*
X-11159529Y43228767D01*
X-11174365Y43237272D01*
X-11174367Y43237273D01*
X-11174460Y43237326D01*
X-11175690Y43237722D01*
X-11176199Y43237890D01*
X-11177501Y43238328D01*
X-11190251Y43239804D01*
X-11195436Y43240404D01*
X-11204902Y43242593D01*
X-11211342Y43244867D01*
X-11221818Y43248565D01*
X-11246409Y43247253D01*
X-11254263Y43247546D01*
X-11624497Y43295148D01*
X-11647101Y43305140D01*
X-11925099Y43541502D01*
X-10759758Y43541502D01*
X-10741178Y43448093D01*
X-10688266Y43368904D01*
X-10609077Y43315992D01*
X-10515668Y43297412D01*
X-10422259Y43315992D01*
X-10343070Y43368904D01*
X-10290158Y43448093D01*
X-10271578Y43541502D01*
X-10290158Y43634911D01*
X-10343070Y43714100D01*
X-10422259Y43767012D01*
X-10515668Y43785592D01*
X-10609077Y43767012D01*
X-10688266Y43714101D01*
X-10688267Y43714100D01*
X-10741178Y43634911D01*
X-10759758Y43541502D01*
X-11925099Y43541502D01*
X-11935963Y43550739D01*
X-11951126Y43580336D01*
X-11951268Y43583842D01*
X-11951268Y43894094D01*
X-11973635Y43948094D01*
X-11991520Y43991273D01*
X-12041749Y44041502D01*
X-11159758Y44041502D01*
X-11141178Y43948093D01*
X-11088266Y43868904D01*
X-11009077Y43815992D01*
X-10915668Y43797412D01*
X-10822259Y43815992D01*
X-10743070Y43868904D01*
X-10690158Y43948093D01*
X-10671578Y44041502D01*
X-10690158Y44134911D01*
X-10743070Y44214100D01*
X-10743073Y44214102D01*
X-10770326Y44232312D01*
X-10804843Y44255375D01*
X-10823318Y44283025D01*
X-10816831Y44315641D01*
X-10804844Y44327629D01*
X-10743070Y44368904D01*
X-10690158Y44448093D01*
X-10671578Y44541502D01*
X-10690158Y44634911D01*
X-10743070Y44714100D01*
X-10744477Y44715040D01*
X-10769348Y44731659D01*
X-10822259Y44767012D01*
X-10915668Y44785592D01*
X-11009077Y44767012D01*
X-11088266Y44714101D01*
X-11088267Y44714100D01*
X-11139935Y44636771D01*
X-11141178Y44634911D01*
X-11159758Y44541502D01*
X-11141178Y44448093D01*
X-11121125Y44418082D01*
X-11088267Y44368905D01*
X-11088263Y44368901D01*
X-11026495Y44327629D01*
X-11008019Y44299979D01*
X-11014507Y44267363D01*
X-11026495Y44255375D01*
X-11088263Y44214104D01*
X-11088267Y44214100D01*
X-11141178Y44134911D01*
X-11159758Y44041502D01*
X-12041749Y44041502D01*
X-12065897Y44065650D01*
X-12163076Y44105902D01*
X-12268260Y44105902D01*
X-12316850Y44085776D01*
X-12365440Y44065650D01*
X-12439816Y43991274D01*
X-12480068Y43894094D01*
X-12480068Y43489913D01*
X-12482164Y43476581D01*
X-12483451Y43472591D01*
X-12483451Y43472590D01*
X-12480210Y43432567D01*
X-12480068Y43429060D01*
X-12480068Y43098261D01*
X-12480421Y43094555D01*
X-12480334Y43081239D01*
X-12481807Y43069735D01*
X-12573902Y42725265D01*
X-12578526Y42714289D01*
X-12583629Y42705704D01*
X-12583630Y42705702D01*
X-12588152Y42674432D01*
X-12589393Y42668656D01*
X-12598121Y42638273D01*
X-12598237Y42636887D01*
X-12598270Y42636696D01*
X-12598304Y42636169D01*
X-12598363Y42635373D01*
X-12598405Y42634875D01*
X-12598400Y42634681D01*
X-12598491Y42633289D01*
X-12597183Y42623396D01*
X-12597255Y42611488D01*
X-12598683Y42601609D01*
X-12598683Y42601601D01*
X-14734718Y42601601D01*
X-14743070Y42614100D01*
X-14745049Y42615422D01*
X-14776888Y42636696D01*
X-14822259Y42667012D01*
X-14915668Y42685592D01*
X-15009077Y42667012D01*
X-15088266Y42614101D01*
X-15088267Y42614100D01*
X-15141178Y42534911D01*
X-15159758Y42441502D01*
X-21506146Y42441502D01*
X-21506909Y42442930D01*
X-21510169Y42450798D01*
X-21521686Y42488754D01*
X-21545762Y42568105D01*
X-21558877Y42611329D01*
X-21560539Y42619682D01*
X-21561880Y42633289D01*
X-21577245Y42789160D01*
X-21577454Y42793389D01*
X-21577455Y42817815D01*
X-21577455Y42824235D01*
X-21577458Y42824255D01*
X-21577482Y43002255D01*
X-21577624Y44041502D01*
X-14059758Y44041502D01*
X-14041178Y43948093D01*
X-13988266Y43868904D01*
X-13909077Y43815992D01*
X-13815668Y43797412D01*
X-13722259Y43815992D01*
X-13643070Y43868904D01*
X-13590158Y43948093D01*
X-13571578Y44041502D01*
X-13590158Y44134911D01*
X-13643070Y44214100D01*
X-13643071Y44214101D01*
X-13643074Y44214104D01*
X-13693729Y44247950D01*
X-13712205Y44275600D01*
X-13705717Y44308216D01*
X-13693733Y44320202D01*
X-13618060Y44370764D01*
X-13565148Y44449953D01*
X-13546568Y44543362D01*
X-13565148Y44636771D01*
X-13618060Y44715960D01*
X-13697249Y44768872D01*
X-13790658Y44787452D01*
X-13884067Y44768872D01*
X-13963256Y44715961D01*
X-13963257Y44715960D01*
X-14016168Y44636771D01*
X-14034748Y44543362D01*
X-14016168Y44449953D01*
X-13963256Y44370764D01*
X-13912598Y44336916D01*
X-13894122Y44309265D01*
X-13900609Y44276649D01*
X-13912597Y44264661D01*
X-13988265Y44214102D01*
X-13988267Y44214100D01*
X-14041178Y44134911D01*
X-14059758Y44041502D01*
X-21577624Y44041502D01*
X-21578061Y47229100D01*
X-21577852Y47233357D01*
X-21572539Y47287322D01*
X-21561202Y47402473D01*
X-21559544Y47410815D01*
X-21544651Y47459919D01*
X-20141341Y47459919D01*
X-20122761Y47366510D01*
X-20069849Y47287321D01*
X-19990660Y47234409D01*
X-19897251Y47215829D01*
X-19803842Y47234409D01*
X-19724653Y47287321D01*
X-19671741Y47366510D01*
X-19653161Y47459919D01*
X-19671741Y47553328D01*
X-19724653Y47632517D01*
X-19803842Y47685429D01*
X-19897251Y47704009D01*
X-19990660Y47685429D01*
X-20069849Y47632518D01*
X-20069850Y47632517D01*
X-20107960Y47575480D01*
X-20122761Y47553328D01*
X-20141341Y47459919D01*
X-21544651Y47459919D01*
X-21510840Y47571394D01*
X-21507583Y47579254D01*
X-21428497Y47727231D01*
X-21423766Y47734313D01*
X-21370548Y47799167D01*
X-21317329Y47864023D01*
X-21311313Y47870040D01*
X-21181608Y47976500D01*
X-21174542Y47981222D01*
X-21026562Y48060333D01*
X-21018701Y48063589D01*
X-20858137Y48112310D01*
X-20849788Y48113971D01*
X-20756624Y48123155D01*
X-20680539Y48130655D01*
X-20676276Y48130865D01*
X-15256750Y48130865D01*
X-15226026Y48118139D01*
G37*
%TD.AperFunction*%
%TD*%
M02*
