%TF.GenerationSoftware,KiCad,Pcbnew,8.99.0-2194-gb3b7cbcab2*%
%TF.CreationDate,2024-09-04T20:38:51-04:00*%
%TF.ProjectId,thundervolt_hw1,7468756e-6465-4727-966f-6c745f687731,rev?*%
%TF.SameCoordinates,PX85b368ePY7384544*%
%TF.FileFunction,Legend,Top*%
%TF.FilePolarity,Positive*%
%FSLAX46Y46*%
G04 Gerber Fmt 4.6, Leading zero omitted, Abs format (unit mm)*
G04 Created by KiCad (PCBNEW 8.99.0-2194-gb3b7cbcab2) date 2024-09-04 20:38:51*
%MOMM*%
%LPD*%
G01*
G04 APERTURE LIST*
%ADD10C,0.150000*%
%ADD11C,0.140000*%
%ADD12C,0.112500*%
%ADD13C,0.300000*%
%ADD14C,0.120000*%
%ADD15C,0.200000*%
%ADD16C,0.100000*%
G04 APERTURE END LIST*
D10*
X5534332Y17441502D02*
X5784332Y17191502D01*
X5534332Y17441502D02*
X6634332Y17591502D01*
X18656286Y9449669D02*
X18825334Y10017988D01*
X5784332Y17191502D02*
X5659332Y17316502D01*
X5659332Y17316502D02*
X6284332Y17441502D01*
X5684332Y17041502D02*
X5534332Y17441502D01*
X18578408Y9076929D02*
X18672771Y10170592D01*
X19086468Y10064034D02*
X18578408Y9076929D01*
D11*
X-12083388Y31078826D02*
G75*
G02*
X-12043876Y31361633I9518J142834D01*
G01*
D10*
X18672771Y10170592D02*
X19086468Y10064034D01*
X6634332Y17591502D02*
X5684332Y17041502D01*
X18912378Y10033336D02*
X18656286Y9449669D01*
X6284332Y17441502D02*
X5721832Y17254002D01*
X18738287Y10002638D02*
X18912378Y10033336D01*
G36*
X-11156303Y40269927D02*
G01*
X-11141135Y40258203D01*
X-11129412Y40243109D01*
X-11126041Y40180974D01*
X-11129412Y40164194D01*
X-11141135Y40149100D01*
X-11156303Y40140674D01*
X-11573006Y40018162D01*
X-11157548Y39791455D01*
X-11142454Y39779732D01*
X-11130731Y39764637D01*
X-11127360Y39744487D01*
X-11130731Y39685723D01*
X-11142454Y39670628D01*
X-11157548Y39662202D01*
X-11174328Y39662202D01*
X-11192793Y39667258D01*
X-12105772Y40170935D01*
X-12120867Y40182659D01*
X-12130905Y40199439D01*
X-12134276Y40217903D01*
X-12130905Y40280039D01*
X-12105699Y40300189D01*
X-12087234Y40303559D01*
X-12068770Y40295133D01*
X-11737723Y40108800D01*
X-11191547Y40274983D01*
X-11174768Y40276668D01*
X-11156303Y40269927D01*
G37*
G36*
X-11156230Y39577059D02*
G01*
X-11141135Y39565335D01*
X-11129412Y39550241D01*
X-11126041Y39488106D01*
X-11129412Y39471326D01*
X-11141135Y39456232D01*
X-11156230Y39447806D01*
X-11572639Y39325293D01*
X-11157548Y39098587D01*
X-11142454Y39086864D01*
X-11130731Y39071769D01*
X-11126041Y39051619D01*
X-11126041Y39007949D01*
X-11129412Y38992855D01*
X-11141135Y38977760D01*
X-11156230Y38969334D01*
X-11174694Y38969334D01*
X-11191547Y38974390D01*
X-11800957Y39310126D01*
X-11816052Y39321923D01*
X-11826090Y39337017D01*
X-11829460Y39357167D01*
X-11826090Y39372261D01*
X-11816052Y39389041D01*
X-11800957Y39397467D01*
X-11191547Y39582115D01*
X-11174694Y39583800D01*
X-11156230Y39577059D01*
G37*
G36*
X-11419645Y38874152D02*
G01*
X-11288634Y38813702D01*
X-11270169Y38800293D01*
X-11182828Y38702914D01*
X-11130731Y38597108D01*
X-11126041Y38575346D01*
X-11126041Y38444334D01*
X-11131097Y38425869D01*
X-11174621Y38343657D01*
X-11239907Y38286577D01*
X-11325343Y38254631D01*
X-11347105Y38251260D01*
X-11477751Y38268113D01*
X-11494530Y38273095D01*
X-11509551Y38284892D01*
X-11521275Y38301672D01*
X-11524645Y38320136D01*
X-11524645Y38392310D01*
X-11388651Y38392310D01*
X-11359562Y38388940D01*
X-11294569Y38414146D01*
X-11262036Y38472910D01*
X-11262036Y38580328D01*
X-11297939Y38655873D01*
X-11328787Y38689505D01*
X-11388651Y38716323D01*
X-11388651Y38392310D01*
X-11524645Y38392310D01*
X-11524645Y38746584D01*
X-11626934Y38726434D01*
X-11657636Y38699543D01*
X-11693466Y38634037D01*
X-11693466Y38526619D01*
X-11661592Y38457816D01*
X-11589419Y38414146D01*
X-11565898Y38383957D01*
X-11567583Y38348640D01*
X-11619607Y38298301D01*
X-11636387Y38289875D01*
X-11653166Y38289875D01*
X-11671631Y38294931D01*
X-11686798Y38306728D01*
X-11773260Y38405719D01*
X-11824771Y38509840D01*
X-11829460Y38531675D01*
X-11829460Y38662614D01*
X-11824405Y38681079D01*
X-11780734Y38763364D01*
X-11685040Y38850632D01*
X-11666502Y38860744D01*
X-11535490Y38887561D01*
X-11419645Y38874152D01*
G37*
G36*
X-10849802Y37994805D02*
G01*
X-10834635Y37983081D01*
X-10824597Y37966229D01*
X-10821226Y37904166D01*
X-10824597Y37885702D01*
X-10834635Y37872219D01*
X-10849802Y37863866D01*
X-10868267Y37863866D01*
X-11782419Y37974655D01*
X-11800884Y37981396D01*
X-11816052Y37993120D01*
X-11826090Y38009899D01*
X-11829460Y38028364D01*
X-11826090Y38090499D01*
X-11816052Y38103908D01*
X-11800884Y38112335D01*
X-11782419Y38112335D01*
X-10868267Y38001546D01*
X-10849802Y37994805D01*
G37*
G36*
X-11157695Y37726773D02*
G01*
X-11142527Y37713364D01*
X-11130731Y37696584D01*
X-11127360Y37594149D01*
X-10868560Y37563961D01*
X-10849949Y37557219D01*
X-10834782Y37545496D01*
X-10824597Y37528716D01*
X-10821226Y37510252D01*
X-10821226Y37466581D01*
X-10825915Y37448116D01*
X-10835954Y37434707D01*
X-10851048Y37426281D01*
X-10869513Y37426281D01*
X-11126041Y37456543D01*
X-11126041Y37372572D01*
X-11130731Y37357478D01*
X-11142527Y37342310D01*
X-11157695Y37335642D01*
X-11174474Y37332272D01*
X-11218292Y37337328D01*
X-11236756Y37343995D01*
X-11251924Y37355792D01*
X-11262036Y37372572D01*
X-11265406Y37473322D01*
X-11782566Y37537069D01*
X-11801031Y37543811D01*
X-11816052Y37555534D01*
X-11826090Y37572314D01*
X-11829460Y37634449D01*
X-11826090Y37652914D01*
X-11816052Y37666396D01*
X-11801031Y37674749D01*
X-11782566Y37674749D01*
X-11265406Y37610928D01*
X-11265406Y37694899D01*
X-11262036Y37711679D01*
X-11251924Y37726773D01*
X-11236756Y37735199D01*
X-11218292Y37736885D01*
X-11174474Y37731829D01*
X-11157695Y37726773D01*
G37*
G36*
X-11419645Y37218772D02*
G01*
X-11288634Y37158322D01*
X-11270169Y37144913D01*
X-11182828Y37045848D01*
X-11130731Y36941728D01*
X-11126041Y36919965D01*
X-11126041Y36788954D01*
X-11131024Y36770489D01*
X-11174108Y36688277D01*
X-11189056Y36669812D01*
X-11156669Y36661386D01*
X-11142088Y36649662D01*
X-11130731Y36634494D01*
X-11127360Y36614418D01*
X-11130731Y36555653D01*
X-11142454Y36540485D01*
X-11157475Y36532132D01*
X-11174181Y36532132D01*
X-11781320Y36605991D01*
X-11799712Y36612732D01*
X-11814733Y36624456D01*
X-11824771Y36639550D01*
X-11828142Y36701686D01*
X-11824771Y36718465D01*
X-11815026Y36733559D01*
X-11800444Y36741986D01*
X-11766446Y36740300D01*
X-11781467Y36762136D01*
X-11824771Y36854460D01*
X-11829460Y36876295D01*
X-11829460Y36978657D01*
X-11693466Y36978657D01*
X-11693466Y36871239D01*
X-11624077Y36723521D01*
X-11331425Y36686591D01*
X-11262036Y36817530D01*
X-11262036Y36924948D01*
X-11297573Y37000492D01*
X-11328054Y37034125D01*
X-11441407Y37084463D01*
X-11514094Y37094501D01*
X-11627447Y37071054D01*
X-11657929Y37044163D01*
X-11693466Y36978657D01*
X-11829460Y36978657D01*
X-11829460Y37007233D01*
X-11824405Y37025698D01*
X-11780734Y37107984D01*
X-11685040Y37195252D01*
X-11666502Y37205363D01*
X-11535490Y37232181D01*
X-11419645Y37218772D01*
G37*
G36*
X-10849802Y36251497D02*
G01*
X-10834635Y36239774D01*
X-10824597Y36222921D01*
X-10821226Y36160859D01*
X-10824597Y36142394D01*
X-10834635Y36128912D01*
X-10849802Y36120559D01*
X-10868267Y36120559D01*
X-11782419Y36231347D01*
X-11800884Y36238088D01*
X-11816052Y36249812D01*
X-11826090Y36266591D01*
X-11829460Y36285056D01*
X-11826090Y36347192D01*
X-11816052Y36360600D01*
X-11800884Y36369027D01*
X-11782419Y36369027D01*
X-10868267Y36258238D01*
X-10849802Y36251497D01*
G37*
G36*
X-11500099Y35527342D02*
G01*
X-11400961Y35475318D01*
X-11313546Y35388050D01*
X-11258152Y35297411D01*
X-11231261Y35312506D01*
X-11100176Y35356176D01*
X-10999352Y35359473D01*
X-10977517Y35354491D01*
X-10878379Y35300782D01*
X-10826282Y35201717D01*
X-10821226Y35181567D01*
X-10826282Y35116061D01*
X-10878379Y35016996D01*
X-10977517Y34964972D01*
X-10999352Y34959917D01*
X-11086767Y34959917D01*
X-11106917Y34964972D01*
X-11206055Y35016996D01*
X-11300137Y35112691D01*
X-11463170Y34980067D01*
X-11288560Y34921302D01*
X-11182754Y34865908D01*
X-11130731Y34766843D01*
X-11126041Y34746693D01*
X-11126041Y34659425D01*
X-11129412Y34640960D01*
X-11141355Y34625866D01*
X-11156669Y34615754D01*
X-11173668Y34612457D01*
X-11236537Y34615754D01*
X-11251851Y34625866D01*
X-11262036Y34640960D01*
X-11265406Y34734969D01*
X-11282186Y34768528D01*
X-11324171Y34790363D01*
X-11586048Y34877704D01*
X-11658222Y34805457D01*
X-11693466Y34734969D01*
X-11693466Y34659425D01*
X-11696763Y34640960D01*
X-11706582Y34625866D01*
X-11721383Y34615754D01*
X-11739408Y34612457D01*
X-11782126Y34612457D01*
X-11800151Y34615754D01*
X-11814952Y34625866D01*
X-11824771Y34640960D01*
X-11829460Y34659425D01*
X-11829460Y34746693D01*
X-11824771Y34766843D01*
X-11772747Y34865908D01*
X-11697203Y34941452D01*
X-11781174Y35030405D01*
X-11824771Y35116061D01*
X-11829460Y35137896D01*
X-11829460Y35300709D01*
X-11693466Y35300709D01*
X-11693466Y35149620D01*
X-11658222Y35079132D01*
X-11626348Y35045573D01*
X-11601142Y35033776D01*
X-11418150Y35184938D01*
X-11189862Y35184938D01*
X-11179750Y35166473D01*
X-11146191Y35132841D01*
X-11075703Y35097596D01*
X-11010197Y35097596D01*
X-10976638Y35114376D01*
X-10959858Y35149620D01*
X-10959858Y35169843D01*
X-10976638Y35203402D01*
X-11010197Y35221867D01*
X-11079000Y35221867D01*
X-11189862Y35184938D01*
X-11418150Y35184938D01*
X-11369454Y35225164D01*
X-11429904Y35325915D01*
X-11463463Y35359473D01*
X-11534024Y35394791D01*
X-11599457Y35394791D01*
X-11661592Y35362844D01*
X-11693466Y35300709D01*
X-11829460Y35300709D01*
X-11829460Y35312506D01*
X-11824405Y35332582D01*
X-11772308Y35431647D01*
X-11716840Y35483744D01*
X-11629499Y35527342D01*
X-11607664Y35532397D01*
X-11521934Y35532397D01*
X-11500099Y35527342D01*
G37*
G36*
X-10849802Y33905594D02*
G01*
X-10834635Y33893870D01*
X-10824597Y33877017D01*
X-10821226Y33814955D01*
X-10824597Y33796490D01*
X-10834635Y33783008D01*
X-10849802Y33774655D01*
X-10868267Y33774655D01*
X-11782419Y33885443D01*
X-11800884Y33892185D01*
X-11816052Y33903908D01*
X-11826090Y33920688D01*
X-11829460Y33939152D01*
X-11826090Y34001288D01*
X-11816052Y34014697D01*
X-11800884Y34023123D01*
X-11782419Y34023123D01*
X-10868267Y33912335D01*
X-10849802Y33905594D01*
G37*
G36*
X-11419865Y33609058D02*
G01*
X-11288853Y33548608D01*
X-11270389Y33535199D01*
X-11174694Y33424411D01*
X-11126041Y33313549D01*
X-11126041Y33179240D01*
X-11130731Y33160775D01*
X-11182828Y33066766D01*
X-11270242Y32991222D01*
X-11288707Y32981183D01*
X-11419792Y32954292D01*
X-11522301Y32964404D01*
X-11666795Y33028151D01*
X-11685260Y33041633D01*
X-11772674Y33140625D01*
X-11824771Y33244746D01*
X-11829460Y33266581D01*
X-11829460Y33368943D01*
X-11693466Y33368943D01*
X-11693466Y33261525D01*
X-11657929Y33185981D01*
X-11627447Y33152422D01*
X-11514094Y33102010D01*
X-11441407Y33091972D01*
X-11328054Y33115492D01*
X-11297573Y33142310D01*
X-11262036Y33207816D01*
X-11262036Y33315234D01*
X-11297573Y33390778D01*
X-11328054Y33424411D01*
X-11441407Y33476434D01*
X-11514094Y33486473D01*
X-11627447Y33461340D01*
X-11657929Y33434449D01*
X-11693466Y33368943D01*
X-11829460Y33368943D01*
X-11829460Y33397520D01*
X-11824405Y33415984D01*
X-11772381Y33511679D01*
X-11685113Y33585538D01*
X-11666648Y33595649D01*
X-11535636Y33622467D01*
X-11419865Y33609058D01*
G37*
G36*
X-11419865Y32782540D02*
G01*
X-11288853Y32722090D01*
X-11270389Y32708681D01*
X-11174694Y32597893D01*
X-11126041Y32487031D01*
X-11126041Y32352722D01*
X-11130731Y32334257D01*
X-11182828Y32240248D01*
X-11270242Y32164704D01*
X-11288707Y32154665D01*
X-11419792Y32127774D01*
X-11522301Y32137886D01*
X-11666795Y32201633D01*
X-11685260Y32215116D01*
X-11772674Y32314107D01*
X-11824771Y32418228D01*
X-11829460Y32440063D01*
X-11829460Y32542425D01*
X-11693466Y32542425D01*
X-11693466Y32435007D01*
X-11657929Y32359463D01*
X-11627447Y32325904D01*
X-11514094Y32275492D01*
X-11441407Y32265454D01*
X-11328054Y32288975D01*
X-11297573Y32315792D01*
X-11262036Y32381298D01*
X-11262036Y32488716D01*
X-11297573Y32564261D01*
X-11328054Y32597893D01*
X-11441407Y32649917D01*
X-11514094Y32659955D01*
X-11627447Y32634822D01*
X-11657929Y32607931D01*
X-11693466Y32542425D01*
X-11829460Y32542425D01*
X-11829460Y32571002D01*
X-11824405Y32589467D01*
X-11772381Y32685161D01*
X-11685113Y32759020D01*
X-11666648Y32769132D01*
X-11535636Y32795949D01*
X-11419865Y32782540D01*
G37*
G36*
X-11174328Y31885534D02*
G01*
X-11157548Y31878793D01*
X-11142454Y31867069D01*
X-11130731Y31851902D01*
X-11126041Y31831752D01*
X-11126041Y31789840D01*
X-11129338Y31772987D01*
X-11140989Y31757893D01*
X-11155863Y31749540D01*
X-11189056Y31751225D01*
X-11174035Y31729390D01*
X-11130731Y31637066D01*
X-11126041Y31615231D01*
X-11126041Y31484292D01*
X-11131097Y31465827D01*
X-11183121Y31371745D01*
X-11270462Y31296201D01*
X-11289000Y31286162D01*
X-11435106Y31259271D01*
X-11535856Y31272753D01*
X-11666868Y31333130D01*
X-11685333Y31346612D01*
X-11781100Y31457401D01*
X-11824771Y31549725D01*
X-11829460Y31571560D01*
X-11829460Y31673995D01*
X-11693466Y31673995D01*
X-11693466Y31566504D01*
X-11657929Y31490960D01*
X-11627447Y31457401D01*
X-11514094Y31407062D01*
X-11441407Y31396951D01*
X-11328054Y31420471D01*
X-11297573Y31447363D01*
X-11262036Y31512795D01*
X-11262036Y31620213D01*
X-11331425Y31768005D01*
X-11624077Y31804934D01*
X-11693466Y31673995D01*
X-11829460Y31673995D01*
X-11829460Y31702499D01*
X-11824478Y31720963D01*
X-11781394Y31803249D01*
X-11766446Y31821714D01*
X-12087234Y31862014D01*
X-12105699Y31867069D01*
X-12120867Y31878793D01*
X-12130905Y31895573D01*
X-12134276Y31914037D01*
X-12130905Y31974487D01*
X-12120867Y31987896D01*
X-12105772Y31996323D01*
X-12087308Y31998008D01*
X-11174328Y31885534D01*
G37*
G36*
X-10824597Y30962516D02*
G01*
X-10821226Y30900454D01*
X-10824597Y30881989D01*
X-10878306Y30829892D01*
X-10893400Y30821539D01*
X-10955535Y30826595D01*
X-10974000Y30831577D01*
X-10989094Y30843374D01*
X-11042803Y30908807D01*
X-11046174Y30972628D01*
X-11042803Y30989407D01*
X-10989094Y31041431D01*
X-10974000Y31049857D01*
X-10911865Y31046487D01*
X-10893400Y31039746D01*
X-10878306Y31028022D01*
X-10824597Y30962516D01*
G37*
G36*
X-11156303Y31029707D02*
G01*
X-11141135Y31016298D01*
X-11129412Y31001131D01*
X-11126041Y30937383D01*
X-11129412Y30920604D01*
X-11141135Y30905437D01*
X-11156303Y30898769D01*
X-11173082Y30897083D01*
X-12087234Y31009557D01*
X-12105699Y31014613D01*
X-12120867Y31026337D01*
X-12130905Y31043116D01*
X-12134276Y31061581D01*
X-12130905Y31123716D01*
X-12120867Y31137125D01*
X-12105699Y31145552D01*
X-12087234Y31147237D01*
X-11173082Y31034763D01*
X-11156303Y31029707D01*
G37*
G36*
X-11767179Y30324090D02*
G01*
X-11750326Y30312293D01*
X-11317576Y29870751D01*
X-11191254Y29771759D01*
X-11117175Y29724718D01*
X-11051523Y29716291D01*
X-10989241Y29741497D01*
X-10957220Y29800262D01*
X-10957220Y29951351D01*
X-10989094Y30020227D01*
X-11051230Y30058769D01*
X-11101568Y30068880D01*
X-11116662Y30080604D01*
X-11126774Y30097383D01*
X-11131756Y30115848D01*
X-11126774Y30176298D01*
X-11116662Y30189781D01*
X-11101568Y30198134D01*
X-11041118Y30193078D01*
X-11019283Y30186410D01*
X-10932308Y30132701D01*
X-10869146Y30060454D01*
X-10825915Y29968130D01*
X-10821226Y29946295D01*
X-10821226Y29771759D01*
X-10826282Y29753294D01*
X-10870026Y29671009D01*
X-10934066Y29612244D01*
X-11021627Y29581982D01*
X-11043463Y29578685D01*
X-11129338Y29590409D01*
X-11151247Y29597150D01*
X-11243864Y29654229D01*
X-11373557Y29756591D01*
X-11693466Y30082289D01*
X-11693466Y29662582D01*
X-11696763Y29644118D01*
X-11706582Y29630709D01*
X-11721383Y29622282D01*
X-11782126Y29625653D01*
X-11800151Y29632394D01*
X-11814952Y29644118D01*
X-11824771Y29660897D01*
X-11829460Y29679362D01*
X-11829460Y30287160D01*
X-11826090Y30305625D01*
X-11815978Y30319034D01*
X-11800811Y30327387D01*
X-11784031Y30329072D01*
X-11767179Y30324090D01*
G37*
G36*
X-11253170Y29396089D02*
G01*
X-11018550Y29315489D01*
X-10877866Y29201330D01*
X-10825915Y29041815D01*
X-10825915Y28932711D01*
X-10869440Y28808514D01*
X-10887904Y28786679D01*
X-11035329Y28711134D01*
X-11261523Y28694355D01*
X-11400594Y28711134D01*
X-11635141Y28791661D01*
X-11775825Y28905820D01*
X-11829460Y29072076D01*
X-11828438Y29134139D01*
X-11693466Y29134139D01*
X-11693466Y29063650D01*
X-11663278Y28967956D01*
X-11591104Y28912561D01*
X-11388065Y28847129D01*
X-11267311Y28833647D01*
X-11064272Y28848741D01*
X-10992098Y28885744D01*
X-10961910Y28973012D01*
X-10961910Y29043500D01*
X-10992098Y29137509D01*
X-11064272Y29194589D01*
X-11267311Y29260095D01*
X-11388065Y29273503D01*
X-11591104Y29258409D01*
X-11663278Y29219794D01*
X-11693466Y29134139D01*
X-11828438Y29134139D01*
X-11827775Y29174439D01*
X-11784251Y29297024D01*
X-11765786Y29320545D01*
X-11618361Y29396089D01*
X-11392168Y29412868D01*
X-11253170Y29396089D01*
G37*
G36*
X-11767179Y28588988D02*
G01*
X-11750326Y28577192D01*
X-11317576Y28135649D01*
X-11191254Y28036658D01*
X-11117175Y27989617D01*
X-11051523Y27981190D01*
X-10989241Y28006396D01*
X-10957220Y28065161D01*
X-10957220Y28216249D01*
X-10989094Y28285126D01*
X-11051230Y28323667D01*
X-11101568Y28333779D01*
X-11116662Y28345503D01*
X-11126774Y28362282D01*
X-11131756Y28380747D01*
X-11126774Y28441197D01*
X-11116662Y28454679D01*
X-11101568Y28463032D01*
X-11041118Y28457977D01*
X-11019283Y28451309D01*
X-10932308Y28397600D01*
X-10869146Y28325353D01*
X-10825915Y28233029D01*
X-10821226Y28211194D01*
X-10821226Y28036658D01*
X-10826282Y28018193D01*
X-10870026Y27935908D01*
X-10934066Y27877143D01*
X-11021627Y27846881D01*
X-11043463Y27843584D01*
X-11129338Y27855307D01*
X-11151247Y27862049D01*
X-11243864Y27919128D01*
X-11373557Y28021490D01*
X-11693466Y28347188D01*
X-11693466Y27927481D01*
X-11696763Y27909016D01*
X-11706582Y27895607D01*
X-11721383Y27887181D01*
X-11782126Y27890552D01*
X-11800151Y27897293D01*
X-11814952Y27909016D01*
X-11824771Y27925796D01*
X-11829460Y27944261D01*
X-11829460Y28552059D01*
X-11826090Y28570524D01*
X-11815978Y28583933D01*
X-11800811Y28592286D01*
X-11784031Y28593971D01*
X-11767179Y28588988D01*
G37*
G36*
X-11538494Y27686120D02*
G01*
X-10841376Y27122066D01*
X-10829652Y27108657D01*
X-10821226Y27088507D01*
X-10823131Y27071728D01*
X-10830605Y27056560D01*
X-10850682Y27041466D01*
X-10869073Y27039781D01*
X-11473061Y27113640D01*
X-11473061Y26987757D01*
X-11476432Y26969292D01*
X-11486470Y26955883D01*
X-11501638Y26947457D01*
X-11520103Y26945771D01*
X-11562015Y26950827D01*
X-11580479Y26957568D01*
X-11595647Y26969292D01*
X-11605685Y26986072D01*
X-11609056Y27004536D01*
X-11609056Y27130492D01*
X-11800664Y27158995D01*
X-11815905Y27170719D01*
X-11826090Y27187572D01*
X-11829460Y27247949D01*
X-11826090Y27266413D01*
X-11815905Y27279896D01*
X-11800664Y27288249D01*
X-11609056Y27268099D01*
X-11609056Y27476267D01*
X-11474893Y27476267D01*
X-11473061Y27251319D01*
X-11148902Y27211019D01*
X-11474893Y27476267D01*
X-11609056Y27476267D01*
X-11609056Y27655932D01*
X-11609056Y27672711D01*
X-11587220Y27694547D01*
X-11553588Y27696232D01*
X-11538494Y27686120D01*
G37*
D12*
G36*
X21945836Y5616484D02*
G01*
X21942350Y5629563D01*
X21944137Y5643010D01*
X21951356Y5655084D01*
X22099211Y5825172D01*
X21929082Y5973063D01*
X21920289Y5984057D01*
X21916684Y5997166D01*
X21918465Y6010690D01*
X21947095Y6047478D01*
X21958088Y6056271D01*
X21971233Y6059917D01*
X21984716Y6058172D01*
X21996826Y6050994D01*
X22166956Y5903103D01*
X22314811Y6073191D01*
X22325763Y6082020D01*
X22338831Y6085661D01*
X22352267Y6084030D01*
X22388640Y6055761D01*
X22397309Y6044875D01*
X22400794Y6031797D01*
X22399008Y6018350D01*
X22391788Y6006276D01*
X22243933Y5836188D01*
X22414021Y5688332D01*
X22422814Y5677339D01*
X22426419Y5664230D01*
X22424638Y5650705D01*
X22396008Y5613918D01*
X22385015Y5605125D01*
X22371870Y5601479D01*
X22358387Y5603224D01*
X22346277Y5610401D01*
X22176189Y5758257D01*
X22028333Y5588169D01*
X22017381Y5579339D01*
X22004314Y5575699D01*
X21990878Y5577330D01*
X21954505Y5605599D01*
X21945836Y5616484D01*
G37*
G36*
X20613026Y37693105D02*
G01*
X20594177Y37710745D01*
X20590385Y37724594D01*
X20590385Y37759875D01*
X20600441Y37782516D01*
X20635722Y37798893D01*
X20655836Y37855551D01*
X20655836Y37941170D01*
X20635667Y38002884D01*
X20618027Y38015469D01*
X20601650Y38017997D01*
X20576481Y38006621D01*
X20495808Y37824062D01*
X20455526Y37752291D01*
X20381172Y37720802D01*
X20364796Y37719593D01*
X20349683Y37724594D01*
X20272857Y37776251D01*
X20233784Y37889568D01*
X20231256Y38000356D01*
X20266922Y38103616D01*
X20273296Y38116201D01*
X20350892Y38146426D01*
X20363477Y38148954D01*
X20377326Y38146426D01*
X20388646Y38137578D01*
X20398703Y38123729D01*
X20401231Y38108617D01*
X20398703Y38064543D01*
X20382326Y38046958D01*
X20355893Y38038110D01*
X20335780Y37981452D01*
X20335780Y37895833D01*
X20355893Y37834173D01*
X20365950Y37827854D01*
X20383535Y37834173D01*
X20398593Y37864344D01*
X20463879Y38016733D01*
X20504106Y38088504D01*
X20578185Y38118729D01*
X20625940Y38116201D01*
X20642262Y38111200D01*
X20717660Y38060806D01*
X20757832Y37946226D01*
X20757832Y37825326D01*
X20717550Y37720802D01*
X20641987Y37689368D01*
X20626875Y37688104D01*
X20613026Y37693105D01*
G37*
G36*
X20348639Y38734330D02*
G01*
X20362488Y38735594D01*
X20376336Y38730594D01*
X20420355Y38685256D01*
X20430467Y38660087D01*
X20421619Y38637390D01*
X20356168Y38609693D01*
X20332263Y38565620D01*
X20332263Y38485056D01*
X20358916Y38428398D01*
X20381777Y38403174D01*
X20466792Y38364156D01*
X20521307Y38356627D01*
X20606322Y38375477D01*
X20629183Y38395645D01*
X20655836Y38444774D01*
X20655836Y38525338D01*
X20631930Y38576940D01*
X20566424Y38619750D01*
X20557632Y38644974D01*
X20568952Y38667616D01*
X20613026Y38702896D01*
X20625611Y38702896D01*
X20639459Y38699105D01*
X20715681Y38616013D01*
X20754314Y38537923D01*
X20757832Y38521546D01*
X20757832Y38423342D01*
X20754040Y38409494D01*
X20721287Y38347780D01*
X20649516Y38282329D01*
X20635612Y38274745D01*
X20537353Y38254631D01*
X20450470Y38264688D01*
X20352211Y38310026D01*
X20338363Y38320082D01*
X20272857Y38393117D01*
X20233784Y38472472D01*
X20230267Y38488793D01*
X20230267Y38587052D01*
X20234004Y38600901D01*
X20266317Y38662560D01*
X20337264Y38728066D01*
X20348639Y38734330D01*
G37*
G36*
X20023088Y38924199D02*
G01*
X20011712Y38932992D01*
X20004184Y38945631D01*
X20001656Y38992178D01*
X20004184Y39006026D01*
X20011712Y39016138D01*
X20023088Y39022403D01*
X20036937Y39022403D01*
X20722551Y38939311D01*
X20736399Y38934255D01*
X20747775Y38925463D01*
X20755304Y38912878D01*
X20757832Y38899030D01*
X20755304Y38852428D01*
X20747775Y38842371D01*
X20736399Y38836052D01*
X20722551Y38836052D01*
X20036937Y38919143D01*
X20023088Y38924199D01*
G37*
G36*
X-10529100Y8640794D02*
G01*
X-10514877Y8642582D01*
X-10500655Y8640794D01*
X-10465915Y8609630D01*
X-10458804Y8598943D01*
X-10457017Y8584721D01*
X-10460553Y8572247D01*
X-10616416Y8286441D01*
X-10276051Y8386347D01*
X-10261829Y8388134D01*
X-10247607Y8386347D01*
X-10234434Y8378148D01*
X-10211274Y8354988D01*
X-10205056Y8345195D01*
X-10203269Y8330973D01*
X-10206805Y8318499D01*
X-10216597Y8308707D01*
X-10228216Y8302451D01*
X-10729456Y8157313D01*
X-10743717Y8155565D01*
X-10757046Y8158246D01*
X-10769519Y8167144D01*
X-10775737Y8176937D01*
X-10779312Y8191159D01*
X-10775775Y8203633D01*
X-10550511Y8624746D01*
X-10542467Y8634577D01*
X-10529100Y8640794D01*
G37*
G36*
X-9914548Y8377992D02*
G01*
X-9902968Y8369987D01*
X-9872697Y8336141D01*
X-9870909Y8323707D01*
X-9874523Y8311233D01*
X-9884316Y8301440D01*
X-10074918Y8151795D01*
X-10055372Y8148181D01*
X-9983445Y8122185D01*
X-9969378Y8113092D01*
X-9899937Y8043651D01*
X-9892826Y8031177D01*
X-9871415Y7954587D01*
X-9876777Y7867310D01*
X-9881285Y7852155D01*
X-9936503Y7768414D01*
X-9996190Y7719452D01*
X-10106627Y7676708D01*
X-10123531Y7674026D01*
X-10222387Y7680244D01*
X-10305195Y7707795D01*
X-10319262Y7716888D01*
X-10388703Y7786328D01*
X-10395853Y7798763D01*
X-10416642Y7865250D01*
X-10418508Y7882970D01*
X-10440968Y7869369D01*
X-10454957Y7867893D01*
X-10469024Y7871623D01*
X-10502870Y7901894D01*
X-10510875Y7913474D01*
X-10512663Y7925909D01*
X-10509088Y7938422D01*
X-10499334Y7948175D01*
X-10497549Y7949574D01*
X-10334106Y7949574D01*
X-10301465Y7843334D01*
X-10244459Y7786328D01*
X-10185549Y7765111D01*
X-10151587Y7763479D01*
X-10064776Y7796898D01*
X-10020866Y7830083D01*
X-9973225Y7902671D01*
X-9971321Y7933098D01*
X-9987175Y7986645D01*
X-10044142Y8043612D01*
X-10159319Y8085191D01*
X-10334106Y7949574D01*
X-10497549Y7949574D01*
X-9956399Y8373601D01*
X-9943031Y8379819D01*
X-9928770Y8381567D01*
X-9914548Y8377992D01*
G37*
G36*
X-9618638Y7702121D02*
G01*
X-9535791Y7674531D01*
X-9521763Y7665477D01*
X-9452284Y7595998D01*
X-9445134Y7583563D01*
X-9424383Y7517114D01*
X-9422518Y7499395D01*
X-9400873Y7512102D01*
X-9386923Y7513617D01*
X-9372856Y7511596D01*
X-9360421Y7502737D01*
X-9331044Y7469784D01*
X-9329218Y7455523D01*
X-9332754Y7443127D01*
X-9341614Y7434267D01*
X-9702767Y7151453D01*
X-9716096Y7145275D01*
X-9730279Y7143526D01*
X-9743608Y7146207D01*
X-9778348Y7177372D01*
X-9785459Y7188058D01*
X-9788296Y7201231D01*
X-9785032Y7213433D01*
X-9766107Y7230570D01*
X-9785653Y7234184D01*
X-9857581Y7260180D01*
X-9871648Y7269273D01*
X-9941088Y7338714D01*
X-9948200Y7351187D01*
X-9968678Y7417986D01*
X-9967237Y7449267D01*
X-9869705Y7449267D01*
X-9853812Y7395681D01*
X-9796845Y7338714D01*
X-9681706Y7297174D01*
X-9506919Y7432791D01*
X-9539560Y7539031D01*
X-9596527Y7595998D01*
X-9655437Y7617215D01*
X-9689439Y7618886D01*
X-9776249Y7585467D01*
X-9820121Y7552243D01*
X-9867801Y7479693D01*
X-9869705Y7449267D01*
X-9967237Y7449267D01*
X-9964209Y7515016D01*
X-9959741Y7530210D01*
X-9904483Y7613912D01*
X-9835937Y7668236D01*
X-9734399Y7705657D01*
X-9717495Y7708339D01*
X-9618638Y7702121D01*
G37*
G36*
X-9250801Y7360941D02*
G01*
X-9235646Y7361874D01*
X-9220491Y7359231D01*
X-9164379Y7306694D01*
X-9011120Y7427933D01*
X-8997675Y7434229D01*
X-8983413Y7436055D01*
X-8969113Y7432558D01*
X-8957533Y7424553D01*
X-8934374Y7401393D01*
X-8927068Y7389114D01*
X-8925281Y7376679D01*
X-8928817Y7364205D01*
X-8938609Y7354413D01*
X-9090703Y7234417D01*
X-9046170Y7189884D01*
X-9040652Y7179393D01*
X-9038865Y7165093D01*
X-9043372Y7153513D01*
X-9050484Y7142826D01*
X-9076402Y7122270D01*
X-9089731Y7116014D01*
X-9104031Y7114226D01*
X-9118292Y7117763D01*
X-9173511Y7169406D01*
X-9481583Y6928948D01*
X-9494951Y6922730D01*
X-9509134Y6920982D01*
X-9523356Y6924557D01*
X-9558096Y6955721D01*
X-9566101Y6967301D01*
X-9567927Y6979775D01*
X-9564391Y6992171D01*
X-9554599Y7001963D01*
X-9246487Y7242383D01*
X-9291020Y7286915D01*
X-9298131Y7297601D01*
X-9300773Y7310969D01*
X-9297198Y7323481D01*
X-9288299Y7334167D01*
X-9262381Y7354724D01*
X-9250801Y7360941D01*
G37*
D10*
G36*
X16469958Y-656591D02*
G01*
X16466875Y-640965D01*
X16467794Y-625017D01*
X16476690Y-610501D01*
X16510938Y-575385D01*
X16526609Y-572342D01*
X16540715Y-575381D01*
X16551269Y-584554D01*
X16790753Y-850179D01*
X16843705Y-868377D01*
X16895971Y-848924D01*
X16930822Y-808832D01*
X16951662Y-737950D01*
X16969558Y-625594D01*
X16739290Y-369843D01*
X16732422Y-356429D01*
X16729292Y-340764D01*
X16730211Y-324815D01*
X16738278Y-309579D01*
X16761192Y-283219D01*
X16772486Y-274509D01*
X16788151Y-271379D01*
X16802211Y-274378D01*
X16812718Y-283511D01*
X17154874Y-662496D01*
X17162802Y-676831D01*
X17165885Y-692457D01*
X17163947Y-707438D01*
X17155879Y-722675D01*
X17132925Y-749080D01*
X17121678Y-757830D01*
X17107159Y-761876D01*
X17093151Y-759003D01*
X17081676Y-749028D01*
X17047804Y-712140D01*
X17045903Y-788319D01*
X17023498Y-869005D01*
X17013628Y-886316D01*
X16942002Y-968712D01*
X16928727Y-977561D01*
X16841571Y-1007461D01*
X16828432Y-1003402D01*
X16720966Y-941536D01*
X16476872Y-670044D01*
X16469958Y-656591D01*
G37*
G36*
X16909479Y11988D02*
G01*
X16905151Y30556D01*
X16928666Y119500D01*
X16928456Y292094D01*
X16936431Y305549D01*
X16948646Y315320D01*
X16962290Y318265D01*
X16976436Y315272D01*
X16988049Y305177D01*
X17502372Y-264328D01*
X17510340Y-278617D01*
X17513429Y-294328D01*
X17510569Y-310370D01*
X17478718Y-351291D01*
X17466504Y-361061D01*
X17452859Y-364006D01*
X17438753Y-360967D01*
X17427140Y-350872D01*
X17025679Y94472D01*
X17025216Y72626D01*
X16993310Y-23830D01*
X16982155Y-34522D01*
X16967543Y-38487D01*
X16953443Y-35534D01*
X16939988Y-27559D01*
X16909479Y11988D01*
G37*
G36*
X17675783Y884120D02*
G01*
X17827215Y771010D01*
X17905507Y684424D01*
X18008994Y505548D01*
X18035061Y356837D01*
X17977899Y222951D01*
X17920876Y159494D01*
X17826483Y106192D01*
X17802011Y101495D01*
X17667991Y134583D01*
X17516559Y247693D01*
X17438313Y334239D01*
X17334820Y513200D01*
X17312664Y639598D01*
X17415488Y639598D01*
X17429674Y564240D01*
X17521557Y412037D01*
X17590171Y337586D01*
X17726120Y236075D01*
X17792623Y220902D01*
X17858438Y258269D01*
X17896976Y302601D01*
X17930307Y379290D01*
X17915200Y453587D01*
X17823277Y605744D01*
X17754703Y680241D01*
X17618754Y781753D01*
X17553132Y797939D01*
X17486435Y759559D01*
X17447898Y715227D01*
X17415488Y639598D01*
X17312664Y639598D01*
X17308753Y661912D01*
X17363289Y790637D01*
X17422938Y859255D01*
X17518212Y913570D01*
X17541763Y917208D01*
X17675783Y884120D01*
G37*
D13*
G36*
X10694260Y18322405D02*
G01*
X10704793Y18343947D01*
X10721555Y18361643D01*
X10801330Y18422422D01*
X10918842Y18473371D01*
X10946044Y18478842D01*
X11164306Y18478842D01*
X11189493Y18474141D01*
X11300776Y18416951D01*
X11340619Y18467900D01*
X11361593Y18475680D01*
X11386780Y18478842D01*
X11405648Y18472944D01*
X11422409Y18461233D01*
X11430836Y18443708D01*
X11430836Y18424132D01*
X11397313Y18220592D01*
X11388887Y18201016D01*
X11376247Y18183321D01*
X11355273Y18171609D01*
X11332192Y18165711D01*
X11311218Y18169643D01*
X11292350Y18179474D01*
X11248295Y18289151D01*
X11212574Y18328303D01*
X11130783Y18369422D01*
X10941923Y18369422D01*
X10845386Y18328218D01*
X10809665Y18298811D01*
X10834853Y18265557D01*
X10927176Y18220421D01*
X11179052Y18118523D01*
X11296563Y18055777D01*
X11342725Y18004743D01*
X11353167Y17987133D01*
X11353167Y17967557D01*
X11327979Y17814624D01*
X11319644Y17793082D01*
X11304898Y17775386D01*
X11225214Y17714607D01*
X11105596Y17663658D01*
X11080408Y17658186D01*
X10860040Y17658186D01*
X10836959Y17665196D01*
X10723661Y17725549D01*
X10683727Y17674600D01*
X10662753Y17662888D01*
X10639672Y17658186D01*
X10618698Y17662119D01*
X10601937Y17675796D01*
X10593510Y17693321D01*
X10591404Y17712897D01*
X10625018Y17916437D01*
X10635459Y17936098D01*
X10650205Y17953708D01*
X10671179Y17965420D01*
X10692154Y17971318D01*
X10715235Y17967386D01*
X10731996Y17957640D01*
X10776143Y17845997D01*
X10811772Y17808726D01*
X10893654Y17767607D01*
X11084622Y17767607D01*
X11179052Y17808811D01*
X11214681Y17836252D01*
X11223107Y17893099D01*
X11197920Y17922506D01*
X11107702Y17967557D01*
X10853720Y18067574D01*
X10748849Y18120489D01*
X10679606Y18198879D01*
X10685834Y18271456D01*
X10694260Y18322405D01*
G37*
G36*
X12165213Y18472944D02*
G01*
X12265963Y18421995D01*
X12324673Y18361301D01*
X12370835Y18245725D01*
X12372941Y18220250D01*
X12314232Y17877370D01*
X12345647Y17795048D01*
X12372941Y17767607D01*
X12425423Y17763760D01*
X12442184Y17752220D01*
X12450611Y17734867D01*
X12452717Y17713666D01*
X12444291Y17692551D01*
X12427530Y17675198D01*
X12406555Y17663658D01*
X12383474Y17659725D01*
X12307912Y17663658D01*
X12190400Y17725463D01*
X12169426Y17771796D01*
X12091757Y17714778D01*
X11972139Y17663658D01*
X11946951Y17658186D01*
X11776958Y17658186D01*
X11590204Y17722813D01*
X11541936Y17840441D01*
X11539829Y17865915D01*
X11541952Y17877370D01*
X11714035Y17877370D01*
X11741329Y17804879D01*
X11814786Y17767607D01*
X11951165Y17767607D01*
X12045595Y17808811D01*
X12146345Y17887201D01*
X12184081Y18112625D01*
X11869282Y18065608D01*
X11779065Y18026370D01*
X11726583Y17953879D01*
X11714035Y17877370D01*
X11541952Y17877370D01*
X11558697Y17967728D01*
X11569230Y17991236D01*
X11655234Y18108863D01*
X11860947Y18173490D01*
X12177852Y18220507D01*
X12207162Y18244015D01*
X12215588Y18298897D01*
X12188294Y18328303D01*
X12106503Y18369422D01*
X11917551Y18369422D01*
X11844186Y18338049D01*
X11827333Y18249914D01*
X11812679Y18232304D01*
X11791705Y18220592D01*
X11711929Y18216660D01*
X11690954Y18220592D01*
X11674193Y18232304D01*
X11665767Y18249914D01*
X11669980Y18322405D01*
X11680421Y18343947D01*
X11697274Y18361557D01*
X11776958Y18422337D01*
X11894470Y18473371D01*
X11921764Y18478842D01*
X12140025Y18478842D01*
X12165213Y18472944D01*
G37*
G36*
X12834102Y18623825D02*
G01*
X12844635Y18649214D01*
X12928624Y18762567D01*
X13069217Y18825057D01*
X13203489Y18828989D01*
X13222357Y18825057D01*
X13241225Y18813260D01*
X13285372Y18762225D01*
X13295813Y18744615D01*
X13297920Y18722988D01*
X13279052Y18652292D01*
X13203489Y18583647D01*
X13180408Y18571850D01*
X13157327Y18567918D01*
X13136353Y18571850D01*
X13071323Y18634682D01*
X13062897Y18652292D01*
X13062897Y18671953D01*
X13077552Y18703326D01*
X13062897Y18691700D01*
X13004096Y18612370D01*
X12981015Y18478842D01*
X13163647Y18474996D01*
X13182515Y18461489D01*
X13190941Y18444221D01*
X13192956Y18424901D01*
X13184622Y18403787D01*
X13167769Y18386433D01*
X13144688Y18374893D01*
X12964253Y18370960D01*
X12861397Y17767607D01*
X12966360Y17767607D01*
X12989441Y17763760D01*
X13006202Y17752220D01*
X13016735Y17734867D01*
X13016735Y17713666D01*
X13008309Y17692551D01*
X12993654Y17675198D01*
X12972680Y17663658D01*
X12947492Y17658186D01*
X12563451Y17658186D01*
X12544583Y17662033D01*
X12525624Y17673574D01*
X12517289Y17690927D01*
X12515182Y17712128D01*
X12523517Y17733242D01*
X12540370Y17750596D01*
X12561344Y17762136D01*
X12687282Y17766069D01*
X12790047Y18369422D01*
X12664201Y18373354D01*
X12647348Y18384894D01*
X12636907Y18402248D01*
X12634800Y18423363D01*
X12645242Y18442597D01*
X12659988Y18459950D01*
X12680962Y18473371D01*
X12809007Y18477304D01*
X12834102Y18623825D01*
G37*
G36*
X14010590Y18472944D02*
G01*
X14111340Y18421995D01*
X14180583Y18345486D01*
X14216212Y18245468D01*
X14218318Y18219908D01*
X14193131Y18098349D01*
X14178476Y18078773D01*
X14157502Y18066976D01*
X14132314Y18063043D01*
X13538438Y18063043D01*
X13532118Y18025857D01*
X13555199Y17894809D01*
X13632868Y17808726D01*
X13714659Y17767607D01*
X13800755Y17767607D01*
X13947575Y17810692D01*
X14086152Y17916437D01*
X14109233Y17920369D01*
X14130208Y17916437D01*
X14149075Y17904725D01*
X14157502Y17885149D01*
X14157502Y17865573D01*
X14151182Y17844031D01*
X14008483Y17724608D01*
X13981189Y17710931D01*
X13792328Y17658186D01*
X13664284Y17660153D01*
X13509037Y17711102D01*
X13488063Y17724779D01*
X13395739Y17826592D01*
X13385206Y17848134D01*
X13355805Y18016625D01*
X13378886Y18136048D01*
X13398395Y18172464D01*
X13578280Y18172464D01*
X14039990Y18172464D01*
X14054645Y18257180D01*
X14027351Y18331979D01*
X13951788Y18369422D01*
X13817516Y18369422D01*
X13720979Y18328047D01*
X13613909Y18241365D01*
X13578280Y18172464D01*
X13398395Y18172464D01*
X13460769Y18288895D01*
X13477530Y18310437D01*
X13605574Y18412250D01*
X13630762Y18423961D01*
X13819622Y18476876D01*
X13985402Y18478842D01*
X14010590Y18472944D01*
G37*
D10*
G36*
X20087807Y5130766D02*
G01*
X20099128Y5122028D01*
X20105393Y5110873D01*
X20104129Y5085978D01*
X20120505Y5097244D01*
X20189748Y5129722D01*
X20206124Y5133239D01*
X20304328Y5133239D01*
X20318177Y5129447D01*
X20388739Y5090429D01*
X20445397Y5024923D01*
X20452926Y5011020D01*
X20473094Y4901440D01*
X20462982Y4825878D01*
X20417700Y4727619D01*
X20407588Y4713770D01*
X20324497Y4641945D01*
X20255254Y4609192D01*
X20238877Y4605674D01*
X20140673Y4605674D01*
X20126825Y4609411D01*
X20065111Y4641725D01*
X20051262Y4652935D01*
X20021037Y4412344D01*
X20017245Y4398496D01*
X20008453Y4387120D01*
X19995868Y4379591D01*
X19982019Y4377063D01*
X19936682Y4379591D01*
X19926625Y4387120D01*
X19920305Y4398441D01*
X19919041Y4412289D01*
X19961842Y4759712D01*
X20063847Y4759712D01*
X20162051Y4707670D01*
X20242669Y4707670D01*
X20299327Y4734323D01*
X20324497Y4757184D01*
X20362251Y4842199D01*
X20369834Y4896714D01*
X20352194Y4981729D01*
X20332025Y5004590D01*
X20282951Y5031243D01*
X20202387Y5031243D01*
X20091544Y4979201D01*
X20063847Y4759712D01*
X19961842Y4759712D01*
X20003397Y5097024D01*
X20008453Y5109609D01*
X20017245Y5120929D01*
X20028621Y5129722D01*
X20043733Y5133239D01*
X20075167Y5133239D01*
X20087807Y5130766D01*
G37*
D12*
G36*
X20613026Y42893105D02*
G01*
X20594177Y42910745D01*
X20590385Y42924594D01*
X20590385Y42959875D01*
X20600441Y42982516D01*
X20635722Y42998893D01*
X20655836Y43055551D01*
X20655836Y43141170D01*
X20635667Y43202884D01*
X20618027Y43215469D01*
X20601650Y43217997D01*
X20576481Y43206621D01*
X20495808Y43024062D01*
X20455526Y42952291D01*
X20381172Y42920802D01*
X20364796Y42919593D01*
X20349683Y42924594D01*
X20272857Y42976251D01*
X20233784Y43089568D01*
X20231256Y43200356D01*
X20266922Y43303616D01*
X20273296Y43316201D01*
X20350892Y43346426D01*
X20363477Y43348954D01*
X20377326Y43346426D01*
X20388646Y43337578D01*
X20398703Y43323729D01*
X20401231Y43308617D01*
X20398703Y43264543D01*
X20382326Y43246958D01*
X20355893Y43238110D01*
X20335780Y43181452D01*
X20335780Y43095833D01*
X20355893Y43034173D01*
X20365950Y43027854D01*
X20383535Y43034173D01*
X20398593Y43064344D01*
X20463879Y43216733D01*
X20504106Y43288504D01*
X20578185Y43318729D01*
X20625940Y43316201D01*
X20642262Y43311200D01*
X20717660Y43260806D01*
X20757832Y43146226D01*
X20757832Y43025326D01*
X20717550Y42920802D01*
X20641987Y42889368D01*
X20626875Y42888104D01*
X20613026Y42893105D01*
G37*
G36*
X20721616Y43910425D02*
G01*
X20735410Y43905369D01*
X20746786Y43896577D01*
X20754314Y43883992D01*
X20756842Y43838654D01*
X20754314Y43824806D01*
X20747005Y43814749D01*
X20736069Y43808429D01*
X20710571Y43809693D01*
X20721836Y43793317D01*
X20754314Y43724074D01*
X20757832Y43707698D01*
X20757832Y43609494D01*
X20754040Y43595645D01*
X20715022Y43525138D01*
X20649516Y43468480D01*
X20635612Y43460896D01*
X20537353Y43440783D01*
X20450470Y43450840D01*
X20352211Y43496177D01*
X20338363Y43506234D01*
X20272857Y43579269D01*
X20233784Y43658623D01*
X20230267Y43674945D01*
X20230267Y43751771D01*
X20332263Y43751771D01*
X20332263Y43671208D01*
X20358916Y43614549D01*
X20381777Y43589325D01*
X20466792Y43551571D01*
X20521307Y43544043D01*
X20606322Y43561628D01*
X20629183Y43581796D01*
X20655836Y43630926D01*
X20655836Y43711489D01*
X20603794Y43822278D01*
X20384305Y43849975D01*
X20332263Y43751771D01*
X20230267Y43751771D01*
X20230267Y43773203D01*
X20234004Y43787052D01*
X20266317Y43848711D01*
X20277528Y43862560D01*
X20036937Y43891521D01*
X20023088Y43896577D01*
X20011712Y43905369D01*
X20004184Y43917954D01*
X20001656Y43931858D01*
X20004184Y43977140D01*
X20011712Y43987252D01*
X20023033Y43993517D01*
X20036882Y43993517D01*
X20721616Y43910425D01*
G37*
G36*
X20721726Y44576695D02*
G01*
X20735520Y44571639D01*
X20746786Y44562847D01*
X20754314Y44551526D01*
X20756842Y44504925D01*
X20754314Y44492340D01*
X20747005Y44481019D01*
X20736069Y44474699D01*
X20710571Y44475963D01*
X20721836Y44459587D01*
X20754314Y44390344D01*
X20757832Y44373968D01*
X20757832Y44275764D01*
X20754040Y44261915D01*
X20721287Y44200201D01*
X20649516Y44134750D01*
X20635612Y44127166D01*
X20537353Y44107053D01*
X20450470Y44117110D01*
X20352211Y44162447D01*
X20338363Y44172504D01*
X20272857Y44246803D01*
X20233784Y44324893D01*
X20230267Y44341215D01*
X20230267Y44418041D01*
X20332263Y44418041D01*
X20332263Y44337478D01*
X20358916Y44280819D01*
X20381777Y44255595D01*
X20466792Y44217841D01*
X20521307Y44210313D01*
X20606322Y44227898D01*
X20629183Y44248067D01*
X20655836Y44297196D01*
X20655836Y44377759D01*
X20603794Y44488548D01*
X20384305Y44516245D01*
X20332263Y44418041D01*
X20230267Y44418041D01*
X20230267Y44439474D01*
X20234004Y44453322D01*
X20266317Y44514981D01*
X20277528Y44528830D01*
X20253238Y44535150D01*
X20242302Y44543942D01*
X20233784Y44555318D01*
X20231256Y44570375D01*
X20233784Y44614449D01*
X20242577Y44625825D01*
X20253842Y44632090D01*
X20266372Y44632090D01*
X20721726Y44576695D01*
G37*
G36*
X-12186344Y10278764D02*
G01*
X-12114222Y10252962D01*
X-12100155Y10243869D01*
X-12030714Y10174429D01*
X-12023564Y10161994D01*
X-12002814Y10095545D01*
X-12000949Y10077826D01*
X-11979304Y10090532D01*
X-11965354Y10092048D01*
X-11951287Y10090027D01*
X-11916586Y10058901D01*
X-11909475Y10048215D01*
X-11907649Y10033954D01*
X-11911185Y10021558D01*
X-11920045Y10012698D01*
X-12306923Y9709522D01*
X-12417981Y9666078D01*
X-12435001Y9663358D01*
X-12533314Y9668254D01*
X-12618143Y9697437D01*
X-12631316Y9705636D01*
X-12700757Y9775077D01*
X-12708800Y9788405D01*
X-12730484Y9864646D01*
X-12724810Y9950446D01*
X-12721235Y9962959D01*
X-12713230Y9972751D01*
X-12700757Y9979863D01*
X-12686495Y9981611D01*
X-12672273Y9978036D01*
X-12615306Y9924644D01*
X-12607301Y9913064D01*
X-12605475Y9900591D01*
X-12607262Y9861421D01*
X-12590359Y9808923D01*
X-12556513Y9775077D01*
X-12498147Y9753316D01*
X-12462980Y9752888D01*
X-12374032Y9786579D01*
X-12344538Y9809000D01*
X-12364084Y9812614D01*
X-12436012Y9838611D01*
X-12450079Y9847704D01*
X-12519519Y9917144D01*
X-12526630Y9929618D01*
X-12548896Y10007064D01*
X-12547402Y10027698D01*
X-12448136Y10027698D01*
X-12432242Y9974111D01*
X-12375275Y9917144D01*
X-12260137Y9875604D01*
X-12085350Y10011222D01*
X-12117991Y10117462D01*
X-12174958Y10174429D01*
X-12233868Y10195645D01*
X-12267831Y10197278D01*
X-12354680Y10163898D01*
X-12398552Y10130674D01*
X-12446193Y10058085D01*
X-12448136Y10027698D01*
X-12547402Y10027698D01*
X-12542640Y10093447D01*
X-12538133Y10108602D01*
X-12482914Y10192342D01*
X-12424160Y10240450D01*
X-12312829Y10284088D01*
X-12295926Y10286769D01*
X-12186344Y10278764D01*
G37*
G36*
X-11773430Y9883726D02*
G01*
X-11759208Y9885513D01*
X-11744947Y9883687D01*
X-11710246Y9852561D01*
X-11703096Y9841836D01*
X-11701153Y9827769D01*
X-11704534Y9815529D01*
X-11748017Y9779118D01*
X-11679742Y9772629D01*
X-11608747Y9747487D01*
X-11593786Y9737500D01*
X-11524345Y9668060D01*
X-11517234Y9655586D01*
X-11495862Y9575459D01*
X-11500292Y9563879D01*
X-11562621Y9471317D01*
X-11821693Y9269213D01*
X-11835099Y9262957D01*
X-11849321Y9261169D01*
X-11862650Y9263850D01*
X-11875124Y9272749D01*
X-11897390Y9295015D01*
X-11903802Y9306401D01*
X-11906444Y9319768D01*
X-11902908Y9332242D01*
X-11893115Y9342034D01*
X-11640999Y9538893D01*
X-11620521Y9586106D01*
X-11634743Y9634214D01*
X-11668589Y9668060D01*
X-11730880Y9691258D01*
X-11830553Y9714379D01*
X-12074236Y9524165D01*
X-12087565Y9517909D01*
X-12104507Y9517054D01*
X-12128872Y9526497D01*
X-12151138Y9548763D01*
X-12158249Y9559449D01*
X-12160930Y9572778D01*
X-12157394Y9585251D01*
X-12147640Y9595005D01*
X-11785904Y9878402D01*
X-11773430Y9883726D01*
G37*
G36*
X-11286685Y9370168D02*
G01*
X-11202944Y9341684D01*
X-11188916Y9332630D01*
X-11119437Y9263151D01*
X-11112287Y9250716D01*
X-11091536Y9184267D01*
X-11089671Y9166548D01*
X-10899068Y9316193D01*
X-10885701Y9322411D01*
X-10871440Y9324237D01*
X-10857217Y9320662D01*
X-10845599Y9312618D01*
X-10815367Y9278811D01*
X-10813540Y9266337D01*
X-10817115Y9253902D01*
X-10826908Y9244110D01*
X-11369843Y8818684D01*
X-11383171Y8812505D01*
X-11397433Y8810679D01*
X-11411655Y8814254D01*
X-11445501Y8844525D01*
X-11453506Y8856105D01*
X-11455449Y8868384D01*
X-11452185Y8880586D01*
X-11433260Y8897723D01*
X-11452806Y8901337D01*
X-11524734Y8927333D01*
X-11538801Y8936426D01*
X-11608241Y9005867D01*
X-11615353Y9018340D01*
X-11637619Y9095786D01*
X-11636124Y9116420D01*
X-11536858Y9116420D01*
X-11520965Y9062834D01*
X-11463998Y9005867D01*
X-11348859Y8964327D01*
X-11174072Y9099944D01*
X-11206714Y9206184D01*
X-11263681Y9263151D01*
X-11322590Y9284368D01*
X-11356592Y9286039D01*
X-11443402Y9252620D01*
X-11487274Y9219396D01*
X-11534954Y9146846D01*
X-11536858Y9116420D01*
X-11636124Y9116420D01*
X-11631362Y9182169D01*
X-11626894Y9197363D01*
X-11571637Y9281065D01*
X-11503090Y9335389D01*
X-11401552Y9372810D01*
X-11384648Y9375492D01*
X-11286685Y9370168D01*
G37*
D10*
G36*
X7055215Y-530372D02*
G01*
X7067507Y-539574D01*
X7075164Y-553478D01*
X7075164Y-570404D01*
X7039767Y-864460D01*
X7059782Y-850691D01*
X7144413Y-810995D01*
X7164428Y-806696D01*
X7284455Y-806696D01*
X7301381Y-811331D01*
X7386079Y-859019D01*
X7456872Y-939082D01*
X7466074Y-956075D01*
X7490725Y-1076170D01*
X7481456Y-1170069D01*
X7422953Y-1302454D01*
X7410662Y-1319380D01*
X7319852Y-1399443D01*
X7224475Y-1447199D01*
X7204460Y-1451498D01*
X7084433Y-1451498D01*
X7067507Y-1446930D01*
X6992078Y-1407436D01*
X6975152Y-1393734D01*
X6967495Y-1424899D01*
X6956681Y-1438266D01*
X6941300Y-1447199D01*
X6885888Y-1450288D01*
X6868962Y-1447199D01*
X6856670Y-1437997D01*
X6848946Y-1424093D01*
X6848946Y-1407235D01*
X6866421Y-1263229D01*
X6990534Y-1263229D01*
X7110561Y-1326836D01*
X7209094Y-1326836D01*
X7278343Y-1294260D01*
X7309106Y-1266319D01*
X7355249Y-1162412D01*
X7364518Y-1095782D01*
X7342958Y-991875D01*
X7318307Y-963934D01*
X7258327Y-931358D01*
X7159861Y-931358D01*
X7024386Y-994965D01*
X6990534Y-1263229D01*
X6866421Y-1263229D01*
X6950502Y-570336D01*
X6956681Y-553410D01*
X6967495Y-539574D01*
X6982877Y-530372D01*
X6999803Y-527283D01*
X7055215Y-530372D01*
G37*
G36*
X7779676Y-530372D02*
G01*
X7836566Y-527283D01*
X7853492Y-530372D01*
X7901248Y-579605D01*
X7908905Y-593442D01*
X7904270Y-650399D01*
X7899703Y-667325D01*
X7888889Y-681162D01*
X7828909Y-730395D01*
X7770407Y-733485D01*
X7755026Y-730395D01*
X7707337Y-681162D01*
X7699613Y-667325D01*
X7702703Y-610368D01*
X7708882Y-593442D01*
X7719629Y-579605D01*
X7779676Y-530372D01*
G37*
G36*
X7718084Y-834369D02*
G01*
X7730376Y-820533D01*
X7744279Y-809786D01*
X7802714Y-806696D01*
X7818095Y-809786D01*
X7831999Y-820533D01*
X7838111Y-834369D01*
X7839656Y-849817D01*
X7771952Y-1408376D01*
X7765773Y-1425370D01*
X7755026Y-1439206D01*
X7739645Y-1448408D01*
X7722719Y-1451498D01*
X7665761Y-1448408D01*
X7653470Y-1439206D01*
X7645745Y-1425370D01*
X7645745Y-1408376D01*
X7713450Y-849817D01*
X7718084Y-834369D01*
G37*
G36*
X7999177Y-835712D02*
G01*
X8011469Y-821809D01*
X8026850Y-810995D01*
X8120749Y-807905D01*
X8148422Y-570672D01*
X8154601Y-553612D01*
X8165348Y-539708D01*
X8180729Y-530372D01*
X8197655Y-527283D01*
X8237686Y-527283D01*
X8254612Y-531581D01*
X8266904Y-540783D01*
X8274628Y-554619D01*
X8274628Y-571545D01*
X8246888Y-806696D01*
X8323861Y-806696D01*
X8337698Y-810995D01*
X8351601Y-821809D01*
X8357713Y-835712D01*
X8360803Y-851094D01*
X8356169Y-891259D01*
X8350056Y-908185D01*
X8339243Y-922089D01*
X8323861Y-931358D01*
X8231507Y-934448D01*
X8173072Y-1408511D01*
X8166893Y-1425437D01*
X8156146Y-1439206D01*
X8140765Y-1448408D01*
X8083807Y-1451498D01*
X8066881Y-1448408D01*
X8054523Y-1439206D01*
X8046866Y-1425437D01*
X8046866Y-1408511D01*
X8105368Y-934448D01*
X8028395Y-934448D01*
X8013013Y-931358D01*
X7999177Y-922089D01*
X7991453Y-908185D01*
X7989908Y-891259D01*
X7994543Y-851094D01*
X7999177Y-835712D01*
G37*
G36*
X8651098Y-530372D02*
G01*
X8663389Y-539574D01*
X8671046Y-553478D01*
X8671046Y-570404D01*
X8635650Y-864460D01*
X8655665Y-850691D01*
X8740295Y-810995D01*
X8760311Y-806696D01*
X8880338Y-806696D01*
X8897264Y-811331D01*
X8981961Y-859019D01*
X9052755Y-939082D01*
X9061957Y-956075D01*
X9086607Y-1076170D01*
X9077338Y-1170069D01*
X9018836Y-1302454D01*
X9006545Y-1319380D01*
X8915735Y-1399443D01*
X8820358Y-1447199D01*
X8800342Y-1451498D01*
X8680315Y-1451498D01*
X8663389Y-1446930D01*
X8587961Y-1407436D01*
X8571035Y-1393734D01*
X8563378Y-1424899D01*
X8552564Y-1438266D01*
X8537183Y-1447199D01*
X8481770Y-1450288D01*
X8464844Y-1447199D01*
X8452553Y-1437997D01*
X8444829Y-1424093D01*
X8444829Y-1407235D01*
X8462304Y-1263229D01*
X8586416Y-1263229D01*
X8706443Y-1326836D01*
X8804977Y-1326836D01*
X8874226Y-1294260D01*
X8904988Y-1266319D01*
X8951132Y-1162412D01*
X8960401Y-1095782D01*
X8938840Y-991875D01*
X8914190Y-963934D01*
X8854210Y-931358D01*
X8755744Y-931358D01*
X8620268Y-994965D01*
X8586416Y-1263229D01*
X8462304Y-1263229D01*
X8546385Y-570336D01*
X8552564Y-553410D01*
X8563378Y-539574D01*
X8578759Y-530372D01*
X8595685Y-527283D01*
X8651098Y-530372D01*
G37*
G36*
X9330893Y-834369D02*
G01*
X9341640Y-820533D01*
X9355543Y-809786D01*
X9374014Y-806696D01*
X9427882Y-809786D01*
X9441718Y-820600D01*
X9449375Y-834503D01*
X9449375Y-849885D01*
X9401687Y-1240392D01*
X9424792Y-1297484D01*
X9478660Y-1326836D01*
X9537095Y-1326836D01*
X9610978Y-1292984D01*
X9717169Y-1226757D01*
X9763313Y-851026D01*
X9769492Y-835645D01*
X9780239Y-821742D01*
X9794142Y-810995D01*
X9812613Y-806696D01*
X9851032Y-806696D01*
X9866414Y-809786D01*
X9880317Y-820533D01*
X9887974Y-834369D01*
X9887974Y-849683D01*
X9820270Y-1407235D01*
X9814091Y-1424161D01*
X9803344Y-1437997D01*
X9789508Y-1447199D01*
X9771037Y-1451498D01*
X9732550Y-1451498D01*
X9717169Y-1448475D01*
X9703333Y-1439340D01*
X9695609Y-1425638D01*
X9695609Y-1408914D01*
X9701788Y-1354173D01*
X9637173Y-1407570D01*
X9554021Y-1447199D01*
X9532528Y-1451498D01*
X9412433Y-1451498D01*
X9395507Y-1446863D01*
X9307788Y-1396085D01*
X9301675Y-1382249D01*
X9275480Y-1248385D01*
X9324714Y-849817D01*
X9330893Y-834369D01*
G37*
G36*
X10170814Y-530372D02*
G01*
X10227704Y-527283D01*
X10244630Y-530372D01*
X10292385Y-579605D01*
X10300042Y-593442D01*
X10295408Y-650399D01*
X10290841Y-667325D01*
X10280027Y-681162D01*
X10220047Y-730395D01*
X10161545Y-733485D01*
X10146163Y-730395D01*
X10098475Y-681162D01*
X10090751Y-667325D01*
X10093840Y-610368D01*
X10100020Y-593442D01*
X10110766Y-579605D01*
X10170814Y-530372D01*
G37*
G36*
X10109222Y-834369D02*
G01*
X10121513Y-820533D01*
X10135417Y-809786D01*
X10193852Y-806696D01*
X10209233Y-809786D01*
X10223136Y-820533D01*
X10229249Y-834369D01*
X10230793Y-849817D01*
X10163089Y-1408376D01*
X10156910Y-1425370D01*
X10146163Y-1439206D01*
X10130782Y-1448408D01*
X10113856Y-1451498D01*
X10056899Y-1448408D01*
X10044607Y-1439206D01*
X10036883Y-1425370D01*
X10036883Y-1408376D01*
X10104587Y-849817D01*
X10109222Y-834369D01*
G37*
G36*
X10505707Y-553478D02*
G01*
X10516454Y-539574D01*
X10531902Y-530372D01*
X10588792Y-527283D01*
X10605718Y-530372D01*
X10618077Y-539574D01*
X10625734Y-553478D01*
X10625734Y-570404D01*
X10524178Y-1408376D01*
X10517999Y-1425302D01*
X10507252Y-1439206D01*
X10491871Y-1448408D01*
X10474945Y-1451498D01*
X10417987Y-1448408D01*
X10405696Y-1439206D01*
X10397972Y-1425302D01*
X10397972Y-1408376D01*
X10499528Y-570404D01*
X10505707Y-553478D01*
G37*
G36*
X10751403Y-835712D02*
G01*
X10763695Y-821809D01*
X10779076Y-810995D01*
X10872975Y-807905D01*
X10900648Y-570672D01*
X10906827Y-553612D01*
X10917574Y-539708D01*
X10932955Y-530372D01*
X10949881Y-527283D01*
X10989912Y-527283D01*
X11006838Y-531581D01*
X11019130Y-540783D01*
X11026854Y-554619D01*
X11026854Y-571545D01*
X10999114Y-806696D01*
X11076087Y-806696D01*
X11089924Y-810995D01*
X11103827Y-821809D01*
X11109939Y-835712D01*
X11113029Y-851094D01*
X11108395Y-891259D01*
X11102282Y-908185D01*
X11091469Y-922089D01*
X11076087Y-931358D01*
X10983733Y-934448D01*
X10925298Y-1408511D01*
X10919119Y-1425437D01*
X10908372Y-1439206D01*
X10892991Y-1448408D01*
X10836033Y-1451498D01*
X10819107Y-1448408D01*
X10806749Y-1439206D01*
X10799092Y-1425437D01*
X10799092Y-1408511D01*
X10857594Y-934448D01*
X10780621Y-934448D01*
X10765240Y-931358D01*
X10751403Y-922089D01*
X10743679Y-908185D01*
X10742134Y-891259D01*
X10746769Y-851094D01*
X10751403Y-835712D01*
G37*
G36*
X11315604Y-1245161D02*
G01*
X11372494Y-1240862D01*
X11389420Y-1243952D01*
X11443355Y-1293991D01*
X11452557Y-1308029D01*
X11455647Y-1365927D01*
X11452557Y-1383122D01*
X11443355Y-1397160D01*
X11389420Y-1447199D01*
X11332530Y-1450288D01*
X11315604Y-1447199D01*
X11301701Y-1437863D01*
X11252467Y-1383458D01*
X11249378Y-1325963D01*
X11252467Y-1308902D01*
X11261669Y-1294865D01*
X11315604Y-1245161D01*
G37*
G36*
X11727404Y-835578D02*
G01*
X11738150Y-821742D01*
X11752054Y-810995D01*
X11808944Y-807905D01*
X11824393Y-810995D01*
X11838229Y-821473D01*
X11845886Y-834974D01*
X11839774Y-904021D01*
X11904388Y-850623D01*
X11987474Y-810995D01*
X12009034Y-806696D01*
X12129061Y-806696D01*
X12145987Y-811331D01*
X12233707Y-862109D01*
X12239886Y-875945D01*
X12266014Y-1009809D01*
X12216781Y-1408376D01*
X12210602Y-1425370D01*
X12199855Y-1439206D01*
X12186019Y-1448408D01*
X12167548Y-1451498D01*
X12129061Y-1451498D01*
X12113680Y-1447199D01*
X12099844Y-1437930D01*
X12092119Y-1424093D01*
X12092119Y-1407167D01*
X12139875Y-1019145D01*
X12116770Y-960643D01*
X12062902Y-931358D01*
X12004400Y-931358D01*
X11930516Y-965143D01*
X11824393Y-1031302D01*
X11778182Y-1406294D01*
X11772070Y-1423220D01*
X11758166Y-1438601D01*
X11728949Y-1451498D01*
X11690462Y-1451498D01*
X11675081Y-1448408D01*
X11661244Y-1439206D01*
X11653520Y-1425370D01*
X11653520Y-1408511D01*
X11721224Y-850959D01*
X11727404Y-835578D01*
G37*
G36*
X12862791Y-811331D02*
G01*
X12938152Y-851228D01*
X12990475Y-911074D01*
X13019760Y-989390D01*
X13022849Y-1009339D01*
X13007401Y-1129097D01*
X13002834Y-1144478D01*
X12992020Y-1158247D01*
X12976639Y-1168994D01*
X12959713Y-1172084D01*
X12568802Y-1172084D01*
X12587273Y-1265849D01*
X12611923Y-1293991D01*
X12671970Y-1326836D01*
X12770437Y-1326836D01*
X12833506Y-1297618D01*
X12873538Y-1231459D01*
X12901210Y-1209899D01*
X12933585Y-1211443D01*
X12979728Y-1259132D01*
X12987453Y-1274513D01*
X12987453Y-1289894D01*
X12982818Y-1306820D01*
X12972004Y-1320724D01*
X12881262Y-1399981D01*
X12785818Y-1447199D01*
X12765802Y-1451498D01*
X12645775Y-1451498D01*
X12628849Y-1446863D01*
X12553421Y-1406832D01*
X12473425Y-1319112D01*
X12464156Y-1302119D01*
X12439573Y-1182024D01*
X12451865Y-1075834D01*
X12464974Y-1047422D01*
X12596542Y-1047422D01*
X12893553Y-1047422D01*
X12896643Y-1020757D01*
X12873538Y-961180D01*
X12819670Y-931358D01*
X12721203Y-931358D01*
X12651954Y-964270D01*
X12621125Y-992547D01*
X12596542Y-1047422D01*
X12464974Y-1047422D01*
X12507277Y-955739D01*
X12519569Y-938813D01*
X12608833Y-858751D01*
X12705822Y-810995D01*
X12725771Y-806696D01*
X12845865Y-806696D01*
X12862791Y-811331D01*
G37*
G36*
X13142541Y-835712D02*
G01*
X13154832Y-821809D01*
X13170213Y-810995D01*
X13264113Y-807905D01*
X13291785Y-570672D01*
X13297965Y-553612D01*
X13308711Y-539708D01*
X13324092Y-530372D01*
X13341019Y-527283D01*
X13381050Y-527283D01*
X13397976Y-531581D01*
X13410267Y-540783D01*
X13417992Y-554619D01*
X13417992Y-571545D01*
X13390252Y-806696D01*
X13467225Y-806696D01*
X13481061Y-810995D01*
X13494965Y-821809D01*
X13501077Y-835712D01*
X13504167Y-851094D01*
X13499532Y-891259D01*
X13493420Y-908185D01*
X13482606Y-922089D01*
X13467225Y-931358D01*
X13374871Y-934448D01*
X13316435Y-1408511D01*
X13310256Y-1425437D01*
X13299509Y-1439206D01*
X13284128Y-1448408D01*
X13227171Y-1451498D01*
X13210245Y-1448408D01*
X13197886Y-1439206D01*
X13190229Y-1425437D01*
X13190229Y-1408511D01*
X13248731Y-934448D01*
X13171758Y-934448D01*
X13156377Y-931358D01*
X13142541Y-922089D01*
X13134816Y-908185D01*
X13133272Y-891259D01*
X13137906Y-851094D01*
X13142541Y-835712D01*
G37*
%TO.C,D1*%
X16359332Y2829003D02*
G75*
G02*
X16209332Y2829003I-75000J0D01*
G01*
X16209332Y2829003D02*
G75*
G02*
X16359332Y2829003I75000J0D01*
G01*
D14*
%TO.C,C23*%
X23151079Y46503465D02*
X22907586Y46362885D01*
X23661078Y45620119D02*
X23417585Y45479539D01*
%TO.C,C8*%
X-1223504Y2501502D02*
X-1007832Y2501502D01*
X-1223504Y1781502D02*
X-1007832Y1781502D01*
%TO.C,C17*%
X-15390839Y44919707D02*
X-15317075Y44717042D01*
X-14714261Y45165962D02*
X-14640497Y44963297D01*
%TO.C,C1*%
X-6775088Y10051502D02*
X-7056248Y10051502D01*
X-6775088Y9031502D02*
X-7056248Y9031502D01*
%TO.C,C11*%
X3774332Y-1699078D02*
X3774332Y-1417918D01*
X4794332Y-1699078D02*
X4794332Y-1417918D01*
%TO.C,C10*%
X5074332Y-1699078D02*
X5074332Y-1417918D01*
X6094332Y-1699078D02*
X6094332Y-1417918D01*
D15*
%TO.C,L2*%
X-5955668Y8181502D02*
X-475668Y8181502D01*
X-5955668Y2901502D02*
X-5955668Y8181502D01*
D16*
X-3015668Y8741502D02*
X-3015668Y8741502D01*
X-3015668Y8641502D02*
X-3015668Y8641502D01*
D15*
X-475668Y8181502D02*
X-475668Y2901502D01*
X-475668Y2901502D02*
X-5955668Y2901502D01*
D16*
X-3015668Y8741502D02*
G75*
G02*
X-3015668Y8641502I0J-50000D01*
G01*
X-3015668Y8641502D02*
G75*
G02*
X-3015668Y8741502I0J50000D01*
G01*
D14*
%TO.C,R4*%
X14704332Y17295143D02*
X14704332Y16987861D01*
X15464332Y17295143D02*
X15464332Y16987861D01*
%TO.C,R7*%
X19825970Y9412790D02*
X19825970Y9720072D01*
X20585970Y9412790D02*
X20585970Y9720072D01*
%TO.C,C20*%
X-17825668Y46600922D02*
X-17825668Y46882082D01*
X-16805668Y46600922D02*
X-16805668Y46882082D01*
%TO.C,C189*%
X21874332Y26891502D02*
X21874332Y22681502D01*
X21874332Y22681502D02*
X24894332Y22681502D01*
X24894332Y22681502D02*
X24894332Y26891502D01*
%TO.C,R3*%
X-15295668Y42787861D02*
X-15295668Y43095143D01*
X-14535668Y42787861D02*
X-14535668Y43095143D01*
%TO.C,C24*%
X-9676887Y8781472D02*
X-9875698Y8980283D01*
X-8955638Y9502721D02*
X-9154449Y9701532D01*
%TO.C,C25*%
X17234456Y9372200D02*
X17429921Y9463346D01*
X17538743Y8719658D02*
X17734208Y8810804D01*
%TO.C,C4*%
X-13325668Y25700922D02*
X-13325668Y25982082D01*
X-12305668Y25700922D02*
X-12305668Y25982082D01*
%TO.C,TP11*%
X20352013Y3084181D02*
G75*
G02*
X19352013Y3084181I-500000J0D01*
G01*
X19352013Y3084181D02*
G75*
G02*
X20352013Y3084181I500000J0D01*
G01*
%TO.C,C22*%
X15798527Y11322791D02*
X15761076Y11535186D01*
X16507588Y11447818D02*
X16470137Y11660213D01*
%TO.C,TP9*%
X21184332Y40041502D02*
G75*
G02*
X19784332Y40041502I-700000J0D01*
G01*
X19784332Y40041502D02*
G75*
G02*
X21184332Y40041502I700000J0D01*
G01*
%TO.C,C5*%
X-21225668Y47101502D02*
X-21225668Y42891502D01*
X-18205668Y47101502D02*
X-21225668Y47101502D01*
X-18205668Y42891502D02*
X-18205668Y47101502D01*
%TO.C,R2*%
X-1195668Y9887861D02*
X-1195668Y10195143D01*
X-435668Y9887861D02*
X-435668Y10195143D01*
%TO.C,C2*%
X-10848710Y13036324D02*
X-10972415Y12859655D01*
X-10258921Y12623349D02*
X-10382626Y12446680D01*
%TO.C,C15*%
X19224912Y11751502D02*
X18943752Y11751502D01*
X19224912Y10731502D02*
X18943752Y10731502D01*
%TO.C,C16*%
X-12275088Y42851502D02*
X-12556248Y42851502D01*
X-12275088Y41831502D02*
X-12556248Y41831502D01*
%TO.C,C18*%
X-16725668Y44182082D02*
X-16725668Y43900922D01*
X-15705668Y44182082D02*
X-15705668Y43900922D01*
D15*
%TO.C,L1*%
X-9655668Y17881502D02*
X-4175668Y17881502D01*
X-9655668Y12601502D02*
X-9655668Y17881502D01*
D16*
X-7115668Y12141502D02*
X-7115668Y12141502D01*
X-7115668Y12041502D02*
X-7115668Y12041502D01*
D15*
X-4175668Y17881502D02*
X-4175668Y12601502D01*
X-4175668Y12601502D02*
X-9655668Y12601502D01*
D16*
X-7115668Y12141502D02*
G75*
G02*
X-7115668Y12041502I0J-50000D01*
G01*
X-7115668Y12041502D02*
G75*
G02*
X-7115668Y12141502I0J50000D01*
G01*
D14*
%TO.C,C9*%
X-1656248Y1651502D02*
X-1375088Y1651502D01*
X-1656248Y631502D02*
X-1375088Y631502D01*
D16*
%TO.C,U2*%
X-1415668Y10041502D02*
X-1415668Y10041502D01*
X-1315668Y10041502D02*
X-1315668Y10041502D01*
X-1415668Y10041502D02*
G75*
G02*
X-1315668Y10041502I50000J0D01*
G01*
X-1315668Y10041502D02*
G75*
G02*
X-1415668Y10041502I-50000J0D01*
G01*
D14*
%TO.C,TP10*%
X21984332Y5041502D02*
G75*
G02*
X20984332Y5041502I-500000J0D01*
G01*
X20984332Y5041502D02*
G75*
G02*
X21984332Y5041502I500000J0D01*
G01*
%TO.C,R1*%
X-9462027Y11621502D02*
X-9769309Y11621502D01*
X-9462027Y10861502D02*
X-9769309Y10861502D01*
%TO.C,C7*%
X-3356248Y11751502D02*
X-3075088Y11751502D01*
X-3356248Y10731502D02*
X-3075088Y10731502D01*
%TO.C,C19*%
X-17825668Y44182082D02*
X-17825668Y43900922D01*
X-16805668Y44182082D02*
X-16805668Y43900922D01*
%TO.C,TP8*%
X21184332Y41941502D02*
G75*
G02*
X19784332Y41941502I-700000J0D01*
G01*
X19784332Y41941502D02*
G75*
G02*
X21184332Y41941502I700000J0D01*
G01*
D16*
%TO.C,U1*%
X-8815668Y10741502D02*
X-8815668Y10741502D01*
X-8715668Y10741502D02*
X-8715668Y10741502D01*
X-8815668Y10741502D02*
G75*
G02*
X-8715668Y10741502I50000J0D01*
G01*
X-8715668Y10741502D02*
G75*
G02*
X-8815668Y10741502I-50000J0D01*
G01*
D14*
%TO.C,R5*%
X15704332Y17295143D02*
X15704332Y16987861D01*
X16464332Y17295143D02*
X16464332Y16987861D01*
%TO.C,C14*%
X19192168Y15801502D02*
X18976496Y15801502D01*
X19192168Y15081502D02*
X18976496Y15081502D01*
%TO.C,C3*%
X-11476887Y14301532D02*
X-11675698Y14102721D01*
X-10755638Y13580283D02*
X-10954449Y13381472D01*
D10*
%TO.C,U4*%
X18534332Y14691502D02*
X20234332Y14691502D01*
X18534332Y12191502D02*
X18534332Y14691502D01*
X19784332Y12191502D02*
X18534332Y12191502D01*
X20234332Y14691502D02*
X20234332Y12641502D01*
X20234332Y12641502D02*
X19784332Y12191502D01*
D15*
X20294332Y12191502D02*
G75*
G02*
X20174332Y12191502I-60000J0D01*
G01*
X20174332Y12191502D02*
G75*
G02*
X20294332Y12191502I60000J0D01*
G01*
D16*
%TO.C,IC4*%
X15918647Y9941502D02*
X16484332Y9375817D01*
X16484332Y10507187D02*
X15918647Y9941502D01*
X16484332Y9375817D02*
X17050017Y9941502D01*
X17050017Y9941502D02*
X16484332Y10507187D01*
D10*
X17407860Y9941502D02*
G75*
G02*
X17257860Y9941502I-75000J0D01*
G01*
X17257860Y9941502D02*
G75*
G02*
X17407860Y9941502I75000J0D01*
G01*
D16*
%TO.C,U3*%
X-14515668Y43541502D02*
X-14515668Y43541502D01*
X-14415668Y43541502D02*
X-14415668Y43541502D01*
X-14515668Y43541502D02*
G75*
G02*
X-14415668Y43541502I50000J0D01*
G01*
X-14415668Y43541502D02*
G75*
G02*
X-14515668Y43541502I-50000J0D01*
G01*
D14*
%TO.C,TP6*%
X19084332Y1641502D02*
G75*
G02*
X17684332Y1641502I-700000J0D01*
G01*
X17684332Y1641502D02*
G75*
G02*
X19084332Y1641502I700000J0D01*
G01*
%TO.C,C6*%
X-14625668Y25700922D02*
X-14625668Y25982082D01*
X-13605668Y25700922D02*
X-13605668Y25982082D01*
%TO.C,TP12*%
X21190077Y4045633D02*
G75*
G02*
X20190077Y4045633I-500000J0D01*
G01*
X20190077Y4045633D02*
G75*
G02*
X21190077Y4045633I500000J0D01*
G01*
D16*
%TO.C,U5*%
X16440943Y7517036D02*
X18480135Y8467927D01*
X17708798Y4798113D02*
X16440943Y7517036D01*
X18480135Y8467927D02*
X19476830Y8105159D01*
X19476830Y8105159D02*
X20427721Y6065968D01*
X20427721Y6065968D02*
X17708798Y4798113D01*
D15*
%TO.C,U7*%
X7734332Y17941502D02*
X8234332Y17941502D01*
X7734332Y16341502D02*
X7734332Y17941502D01*
X8234332Y17941502D02*
X8234332Y16341502D01*
X8234332Y16341502D02*
X7734332Y16341502D01*
D14*
%TO.C,C12*%
X19224912Y17051502D02*
X18943752Y17051502D01*
X19224912Y16031502D02*
X18943752Y16031502D01*
D15*
%TO.C,L3*%
X-12615668Y45491502D02*
X-12615668Y47791502D01*
D14*
%TO.C,C21*%
X-16725668Y46600922D02*
X-16725668Y46882082D01*
X-15705668Y46600922D02*
X-15705668Y46882082D01*
%TO.C,C26*%
X9474332Y17033666D02*
X9474332Y17249338D01*
X10194332Y17033666D02*
X10194332Y17249338D01*
%TO.C,C13*%
X19224912Y18151502D02*
X18943752Y18151502D01*
X19224912Y17131502D02*
X18943752Y17131502D01*
%TO.C,L4*%
X16724332Y13041880D02*
X16724332Y13841124D01*
X17844332Y13041880D02*
X17844332Y13841124D01*
%TD*%
M02*
