%TF.GenerationSoftware,KiCad,Pcbnew,8.99.0-2194-gb3b7cbcab2*%
%TF.CreationDate,2024-09-04T20:38:51-04:00*%
%TF.ProjectId,thundervolt_hw1,7468756e-6465-4727-966f-6c745f687731,rev?*%
%TF.SameCoordinates,PX85b368ePY7384544*%
%TF.FileFunction,Copper,L1,Top*%
%TF.FilePolarity,Positive*%
%FSLAX46Y46*%
G04 Gerber Fmt 4.6, Leading zero omitted, Abs format (unit mm)*
G04 Created by KiCad (PCBNEW 8.99.0-2194-gb3b7cbcab2) date 2024-09-04 20:38:51*
%MOMM*%
%LPD*%
G01*
G04 APERTURE LIST*
G04 Aperture macros list*
%AMRoundRect*
0 Rectangle with rounded corners*
0 $1 Rounding radius*
0 $2 $3 $4 $5 $6 $7 $8 $9 X,Y pos of 4 corners*
0 Add a 4 corners polygon primitive as box body*
4,1,4,$2,$3,$4,$5,$6,$7,$8,$9,$2,$3,0*
0 Add four circle primitives for the rounded corners*
1,1,$1+$1,$2,$3*
1,1,$1+$1,$4,$5*
1,1,$1+$1,$6,$7*
1,1,$1+$1,$8,$9*
0 Add four rect primitives between the rounded corners*
20,1,$1+$1,$2,$3,$4,$5,0*
20,1,$1+$1,$4,$5,$6,$7,0*
20,1,$1+$1,$6,$7,$8,$9,0*
20,1,$1+$1,$8,$9,$2,$3,0*%
%AMRotRect*
0 Rectangle, with rotation*
0 The origin of the aperture is its center*
0 $1 length*
0 $2 width*
0 $3 Rotation angle, in degrees counterclockwise*
0 Add horizontal line*
21,1,$1,$2,0,0,$3*%
%AMFreePoly0*
4,1,19,0.500000,-0.650000,0.000000,-0.650000,0.000000,-0.644911,-0.071157,-0.644911,-0.207708,-0.604816,-0.327430,-0.527875,-0.420627,-0.420320,-0.479746,-0.290866,-0.500000,-0.150000,-0.500000,0.150000,-0.479746,0.290866,-0.420627,0.420320,-0.327430,0.527875,-0.207708,0.604816,-0.071157,0.644911,0.000000,0.644911,0.000000,0.650000,0.500000,0.650000,0.500000,-0.650000,0.500000,-0.650000,
$1*%
%AMFreePoly1*
4,1,19,0.000000,0.644911,0.071157,0.644911,0.207708,0.604816,0.327430,0.527875,0.420627,0.420320,0.479746,0.290866,0.500000,0.150000,0.500000,-0.150000,0.479746,-0.290866,0.420627,-0.420320,0.327430,-0.527875,0.207708,-0.604816,0.071157,-0.644911,0.000000,-0.644911,0.000000,-0.650000,-0.500000,-0.650000,-0.500000,0.650000,0.000000,0.650000,0.000000,0.644911,0.000000,0.644911,
$1*%
%AMFreePoly2*
4,1,14,0.334644,0.085355,0.385355,0.034644,0.400000,-0.000711,0.400000,-0.050000,0.385355,-0.085355,0.350001,-0.100000,-0.350000,-0.100000,-0.385355,-0.085355,-0.400000,-0.050000,-0.400000,0.050000,-0.385355,0.085355,-0.350001,0.100000,0.299289,0.100000,0.334644,0.085355,0.334644,0.085355,$1*%
%AMFreePoly3*
4,1,14,0.385355,0.085355,0.400000,0.050000,0.400000,0.000711,0.385355,-0.034644,0.334644,-0.085355,0.299289,-0.100000,-0.350000,-0.100000,-0.385355,-0.085355,-0.400000,-0.050000,-0.400000,0.050000,-0.385355,0.085355,-0.350001,0.100000,0.350000,0.100000,0.385355,0.085355,0.385355,0.085355,$1*%
%AMFreePoly4*
4,1,14,0.085355,0.385355,0.100000,0.350001,0.100000,-0.350000,0.085355,-0.385355,0.050000,-0.400000,-0.050000,-0.400000,-0.085355,-0.385355,-0.100000,-0.350001,-0.100000,0.299289,-0.085355,0.334644,-0.034644,0.385355,0.000711,0.400000,0.050000,0.400000,0.085355,0.385355,0.085355,0.385355,$1*%
%AMFreePoly5*
4,1,14,0.034644,0.385355,0.085355,0.334644,0.100000,0.299289,0.100000,-0.350000,0.085355,-0.385355,0.050000,-0.400000,-0.050000,-0.400000,-0.085355,-0.385355,-0.100000,-0.350001,-0.100000,0.350000,-0.085355,0.385355,-0.050000,0.400000,-0.000711,0.400000,0.034644,0.385355,0.034644,0.385355,$1*%
%AMFreePoly6*
4,1,14,0.385355,0.085355,0.400000,0.050000,0.400000,-0.050000,0.385355,-0.085355,0.350001,-0.100000,-0.299289,-0.100000,-0.334644,-0.085355,-0.385355,-0.034644,-0.400000,0.000711,-0.400000,0.050000,-0.385355,0.085355,-0.350001,0.100000,0.350000,0.100000,0.385355,0.085355,0.385355,0.085355,$1*%
%AMFreePoly7*
4,1,14,0.385355,0.085355,0.400000,0.050000,0.400000,-0.050000,0.385355,-0.085355,0.350001,-0.100000,-0.350000,-0.100000,-0.385355,-0.085355,-0.400000,-0.050000,-0.400000,-0.000711,-0.385355,0.034644,-0.334644,0.085355,-0.299289,0.100000,0.350000,0.100000,0.385355,0.085355,0.385355,0.085355,$1*%
%AMFreePoly8*
4,1,14,0.085355,0.385355,0.100000,0.350001,0.100000,-0.299289,0.085355,-0.334644,0.034644,-0.385355,-0.000711,-0.400000,-0.050000,-0.400000,-0.085355,-0.385355,-0.100000,-0.350001,-0.100000,0.350000,-0.085355,0.385355,-0.050000,0.400000,0.050000,0.400000,0.085355,0.385355,0.085355,0.385355,$1*%
%AMFreePoly9*
4,1,14,0.085355,0.385355,0.100000,0.350001,0.100000,-0.350000,0.085355,-0.385355,0.050000,-0.400000,0.000711,-0.400000,-0.034644,-0.385355,-0.085355,-0.334644,-0.100000,-0.299289,-0.100000,0.350000,-0.085355,0.385355,-0.050000,0.400000,0.050000,0.400000,0.085355,0.385355,0.085355,0.385355,$1*%
G04 Aperture macros list end*
%TA.AperFunction,SMDPad,CuDef*%
%ADD10RoundRect,0.062500X0.062500X0.137500X-0.062500X0.137500X-0.062500X-0.137500X0.062500X-0.137500X0*%
%TD*%
%TA.AperFunction,SMDPad,CuDef*%
%ADD11RoundRect,0.100000X0.250000X0.100000X-0.250000X0.100000X-0.250000X-0.100000X0.250000X-0.100000X0*%
%TD*%
%TA.AperFunction,SMDPad,CuDef*%
%ADD12RoundRect,0.218750X0.256250X-0.218750X0.256250X0.218750X-0.256250X0.218750X-0.256250X-0.218750X0*%
%TD*%
%TA.AperFunction,SMDPad,CuDef*%
%ADD13R,3.000000X1.000000*%
%TD*%
%TA.AperFunction,SMDPad,CuDef*%
%ADD14RoundRect,0.225000X0.069856X0.329006X-0.319856X0.104006X-0.069856X-0.329006X0.319856X-0.104006X0*%
%TD*%
%TA.AperFunction,SMDPad,CuDef*%
%ADD15RoundRect,0.140000X-0.140000X-0.170000X0.140000X-0.170000X0.140000X0.170000X-0.140000X0.170000X0*%
%TD*%
%TA.AperFunction,SMDPad,CuDef*%
%ADD16RoundRect,0.140000X-0.207631X0.073414X-0.111865X-0.189700X0.207631X-0.073414X0.111865X0.189700X0*%
%TD*%
%TA.AperFunction,SMDPad,CuDef*%
%ADD17RoundRect,0.225000X0.225000X0.250000X-0.225000X0.250000X-0.225000X-0.250000X0.225000X-0.250000X0*%
%TD*%
%TA.AperFunction,SMDPad,CuDef*%
%ADD18R,1.000000X3.000000*%
%TD*%
%TA.AperFunction,SMDPad,CuDef*%
%ADD19RoundRect,0.225000X0.250000X-0.225000X0.250000X0.225000X-0.250000X0.225000X-0.250000X-0.225000X0*%
%TD*%
%TA.AperFunction,SMDPad,CuDef*%
%ADD20RoundRect,0.295000X-2.055000X0.295000X-2.055000X-0.295000X2.055000X-0.295000X2.055000X0.295000X0*%
%TD*%
%TA.AperFunction,SMDPad,CuDef*%
%ADD21RoundRect,0.135000X-0.185000X0.135000X-0.185000X-0.135000X0.185000X-0.135000X0.185000X0.135000X0*%
%TD*%
%TA.AperFunction,SMDPad,CuDef*%
%ADD22RoundRect,0.135000X0.185000X-0.135000X0.185000X0.135000X-0.185000X0.135000X-0.185000X-0.135000X0*%
%TD*%
%TA.AperFunction,SMDPad,CuDef*%
%ADD23RoundRect,0.250000X0.925000X-0.412500X0.925000X0.412500X-0.925000X0.412500X-0.925000X-0.412500X0*%
%TD*%
%TA.AperFunction,SMDPad,CuDef*%
%ADD24RoundRect,0.225000X0.335876X0.017678X0.017678X0.335876X-0.335876X-0.017678X-0.017678X-0.335876X0*%
%TD*%
%TA.AperFunction,SMDPad,CuDef*%
%ADD25RoundRect,0.140000X-0.055038X-0.213239X0.198728X-0.094906X0.055038X0.213239X-0.198728X0.094906X0*%
%TD*%
%TA.AperFunction,SMDPad,CuDef*%
%ADD26C,0.750000*%
%TD*%
%TA.AperFunction,SMDPad,CuDef*%
%ADD27RoundRect,0.140000X0.191728X-0.108353X0.143107X0.167393X-0.191728X0.108353X-0.143107X-0.167393X0*%
%TD*%
%TA.AperFunction,SMDPad,CuDef*%
%ADD28C,1.000000*%
%TD*%
%TA.AperFunction,SMDPad,CuDef*%
%ADD29RoundRect,0.250000X-0.925000X0.412500X-0.925000X-0.412500X0.925000X-0.412500X0.925000X0.412500X0*%
%TD*%
%TA.AperFunction,SMDPad,CuDef*%
%ADD30FreePoly0,0.000000*%
%TD*%
%TA.AperFunction,SMDPad,CuDef*%
%ADD31FreePoly1,0.000000*%
%TD*%
%TA.AperFunction,SMDPad,CuDef*%
%ADD32RoundRect,0.140000X-0.058955X0.212189X-0.219557X-0.017173X0.058955X-0.212189X0.219557X0.017173X0*%
%TD*%
%TA.AperFunction,SMDPad,CuDef*%
%ADD33RoundRect,0.225000X-0.250000X0.225000X-0.250000X-0.225000X0.250000X-0.225000X0.250000X0.225000X0*%
%TD*%
%TA.AperFunction,SMDPad,CuDef*%
%ADD34RoundRect,0.295000X2.055000X-0.295000X2.055000X0.295000X-2.055000X0.295000X-2.055000X-0.295000X0*%
%TD*%
%TA.AperFunction,SMDPad,CuDef*%
%ADD35RoundRect,0.225000X-0.225000X-0.250000X0.225000X-0.250000X0.225000X0.250000X-0.225000X0.250000X0*%
%TD*%
%TA.AperFunction,SMDPad,CuDef*%
%ADD36RoundRect,0.062500X-0.212500X0.062500X-0.212500X-0.062500X0.212500X-0.062500X0.212500X0.062500X0*%
%TD*%
%TA.AperFunction,SMDPad,CuDef*%
%ADD37RoundRect,0.050000X-0.050000X-0.425000X0.050000X-0.425000X0.050000X0.425000X-0.050000X0.425000X0*%
%TD*%
%TA.AperFunction,SMDPad,CuDef*%
%ADD38RoundRect,0.135000X0.135000X0.185000X-0.135000X0.185000X-0.135000X-0.185000X0.135000X-0.185000X0*%
%TD*%
%TA.AperFunction,SMDPad,CuDef*%
%ADD39RoundRect,0.062500X0.212500X-0.062500X0.212500X0.062500X-0.212500X0.062500X-0.212500X-0.062500X0*%
%TD*%
%TA.AperFunction,SMDPad,CuDef*%
%ADD40RoundRect,0.050000X0.050000X0.425000X-0.050000X0.425000X-0.050000X-0.425000X0.050000X-0.425000X0*%
%TD*%
%TA.AperFunction,SMDPad,CuDef*%
%ADD41RoundRect,0.140000X0.140000X0.170000X-0.140000X0.170000X-0.140000X-0.170000X0.140000X-0.170000X0*%
%TD*%
%TA.AperFunction,SMDPad,CuDef*%
%ADD42R,1.000000X1.500000*%
%TD*%
%TA.AperFunction,SMDPad,CuDef*%
%ADD43RoundRect,0.225000X-0.017678X0.335876X-0.335876X0.017678X0.017678X-0.335876X0.335876X-0.017678X0*%
%TD*%
%TA.AperFunction,SMDPad,CuDef*%
%ADD44C,0.200000*%
%TD*%
%TA.AperFunction,SMDPad,CuDef*%
%ADD45C,0.208000*%
%TD*%
%TA.AperFunction,SMDPad,CuDef*%
%ADD46FreePoly2,295.000000*%
%TD*%
%TA.AperFunction,SMDPad,CuDef*%
%ADD47RoundRect,0.050000X-0.193232X0.296077X0.102601X-0.338339X0.193232X-0.296077X-0.102601X0.338339X0*%
%TD*%
%TA.AperFunction,SMDPad,CuDef*%
%ADD48FreePoly3,295.000000*%
%TD*%
%TA.AperFunction,SMDPad,CuDef*%
%ADD49FreePoly4,295.000000*%
%TD*%
%TA.AperFunction,SMDPad,CuDef*%
%ADD50RoundRect,0.050000X-0.338339X-0.102601X-0.296077X-0.193232X0.338339X0.102601X0.296077X0.193232X0*%
%TD*%
%TA.AperFunction,SMDPad,CuDef*%
%ADD51FreePoly5,295.000000*%
%TD*%
%TA.AperFunction,SMDPad,CuDef*%
%ADD52FreePoly6,295.000000*%
%TD*%
%TA.AperFunction,SMDPad,CuDef*%
%ADD53FreePoly7,295.000000*%
%TD*%
%TA.AperFunction,SMDPad,CuDef*%
%ADD54FreePoly8,295.000000*%
%TD*%
%TA.AperFunction,SMDPad,CuDef*%
%ADD55FreePoly9,295.000000*%
%TD*%
%TA.AperFunction,HeatsinkPad*%
%ADD56RotRect,1.700000X1.700000X295.000000*%
%TD*%
%TA.AperFunction,SMDPad,CuDef*%
%ADD57RoundRect,0.075000X0.162500X-0.075000X0.162500X0.075000X-0.162500X0.075000X-0.162500X-0.075000X0*%
%TD*%
%TA.AperFunction,SMDPad,CuDef*%
%ADD58RoundRect,0.325000X0.325000X1.025000X-0.325000X1.025000X-0.325000X-1.025000X0.325000X-1.025000X0*%
%TD*%
%TA.AperFunction,SMDPad,CuDef*%
%ADD59RoundRect,0.140000X0.170000X-0.140000X0.170000X0.140000X-0.170000X0.140000X-0.170000X-0.140000X0*%
%TD*%
%TA.AperFunction,SMDPad,CuDef*%
%ADD60RoundRect,0.218750X0.381250X-0.218750X0.381250X0.218750X-0.381250X0.218750X-0.381250X-0.218750X0*%
%TD*%
%TA.AperFunction,ViaPad*%
%ADD61C,0.250000*%
%TD*%
%TA.AperFunction,ViaPad*%
%ADD62C,0.300000*%
%TD*%
%TA.AperFunction,Conductor*%
%ADD63C,0.088900*%
%TD*%
%TA.AperFunction,Conductor*%
%ADD64C,0.127000*%
%TD*%
%TA.AperFunction,Conductor*%
%ADD65C,0.304800*%
%TD*%
%TA.AperFunction,Conductor*%
%ADD66C,0.250000*%
%TD*%
%TA.AperFunction,Conductor*%
%ADD67C,0.300000*%
%TD*%
%TA.AperFunction,Conductor*%
%ADD68C,0.101600*%
%TD*%
%TA.AperFunction,Conductor*%
%ADD69C,0.254000*%
%TD*%
%TA.AperFunction,Conductor*%
%ADD70C,0.152400*%
%TD*%
%TA.AperFunction,Conductor*%
%ADD71C,0.200000*%
%TD*%
%TA.AperFunction,Conductor*%
%ADD72C,0.203200*%
%TD*%
G04 APERTURE END LIST*
D10*
%TO.P,Q1,1,G*%
%TO.N,Net-(Q1-G)*%
X18609332Y3891502D03*
%TO.P,Q1,2,S*%
%TO.N,GND*%
X18159332Y3891502D03*
D11*
%TO.P,Q1,3,D*%
%TO.N,U10*%
X18384332Y3191502D03*
%TD*%
D12*
%TO.P,D1,1,K*%
%TO.N,GND*%
X16284332Y3541502D03*
%TO.P,D1,2,A*%
%TO.N,Net-(D1-A)*%
X16284332Y5116504D03*
%TD*%
D13*
%TO.P,TP5,1,1*%
%TO.N,GND*%
X23744777Y28576232D03*
%TD*%
D14*
%TO.P,C23,1*%
%TO.N,+3V3*%
X23955502Y46379002D03*
%TO.P,C23,2*%
%TO.N,GND*%
X22613162Y45604002D03*
%TD*%
D15*
%TO.P,C8,1*%
%TO.N,+1V15*%
X-1595668Y2141502D03*
%TO.P,C8,2*%
%TO.N,GND*%
X-635668Y2141502D03*
%TD*%
D16*
%TO.P,C17,1*%
%TO.N,+1V8*%
X-15179838Y45392554D03*
%TO.P,C17,2*%
%TO.N,GND*%
X-14851498Y44490450D03*
%TD*%
D17*
%TO.P,C1,1*%
%TO.N,VBAT*%
X-6140668Y9541502D03*
%TO.P,C1,2*%
%TO.N,GND*%
X-7690668Y9541502D03*
%TD*%
D18*
%TO.P,TP3,1,1*%
%TO.N,+1V15*%
X6974469Y-4473101D03*
%TD*%
D19*
%TO.P,C11,1*%
%TO.N,+1V15*%
X4284332Y-2333498D03*
%TO.P,C11,2*%
%TO.N,GND*%
X4284332Y-783498D03*
%TD*%
%TO.P,C10,1*%
%TO.N,+1V15*%
X5584332Y-2333498D03*
%TO.P,C10,2*%
%TO.N,GND*%
X5584332Y-783498D03*
%TD*%
D20*
%TO.P,L2,1*%
%TO.N,Net-(U2-SW)*%
X-3215668Y7196502D03*
%TO.P,L2,2*%
%TO.N,+1V15*%
X-3215668Y3886502D03*
%TD*%
D21*
%TO.P,R4,1*%
%TO.N,+1V8*%
X15084332Y17651502D03*
%TO.P,R4,2*%
%TO.N,SDA*%
X15084332Y16631502D03*
%TD*%
D22*
%TO.P,R7,1*%
%TO.N,GND*%
X20205970Y9056432D03*
%TO.P,R7,2*%
%TO.N,EN*%
X20205970Y10076430D03*
%TD*%
D19*
%TO.P,C20,1*%
%TO.N,+1V8*%
X-17315668Y45966502D03*
%TO.P,C20,2*%
%TO.N,GND*%
X-17315668Y47516502D03*
%TD*%
D23*
%TO.P,C189,1*%
%TO.N,+3V3*%
X23384332Y23604002D03*
%TO.P,C189,2*%
%TO.N,GND*%
X23384332Y26679002D03*
%TD*%
D22*
%TO.P,R3,1*%
%TO.N,Net-(U3-VSET)*%
X-14915668Y42431502D03*
%TO.P,R3,2*%
%TO.N,GND*%
X-14915668Y43451502D03*
%TD*%
D24*
%TO.P,C24,1*%
%TO.N,VBAT*%
X-8867660Y8693494D03*
%TO.P,C24,2*%
%TO.N,GND*%
X-9963676Y9789510D03*
%TD*%
D25*
%TO.P,C25,1*%
%TO.N,+1V8_ALW*%
X17049306Y8888645D03*
%TO.P,C25,2*%
%TO.N,GND*%
X17919358Y9294359D03*
%TD*%
D19*
%TO.P,C4,1*%
%TO.N,+1V0*%
X-12815668Y25066502D03*
%TO.P,C4,2*%
%TO.N,GND*%
X-12815668Y26616502D03*
%TD*%
D26*
%TO.P,TP11,1,1*%
%TO.N,GND*%
X19852013Y3084181D03*
%TD*%
D27*
%TO.P,C22,1*%
%TO.N,VBAT*%
X16217683Y11018794D03*
%TO.P,C22,2*%
%TO.N,GND*%
X16050981Y11964210D03*
%TD*%
D28*
%TO.P,TP9,1,1*%
%TO.N,SCL*%
X20484332Y40041502D03*
%TD*%
D29*
%TO.P,C5,1*%
%TO.N,+1V8*%
X-19715668Y46179002D03*
%TO.P,C5,2*%
%TO.N,GND*%
X-19715668Y43104002D03*
%TD*%
D22*
%TO.P,R2,1*%
%TO.N,Net-(U2-VSET)*%
X-815668Y9531502D03*
%TO.P,R2,2*%
%TO.N,GND*%
X-815668Y10551502D03*
%TD*%
D30*
%TO.P,JP1,1,A*%
%TO.N,GND*%
X11534332Y16641502D03*
D31*
%TO.P,JP1,2,B*%
%TO.N,SAFEMODE*%
X12834332Y16641502D03*
%TD*%
D32*
%TO.P,C2,1*%
%TO.N,+1V0*%
X-10340351Y13134695D03*
%TO.P,C2,2*%
%TO.N,GND*%
X-10890985Y12348309D03*
%TD*%
D17*
%TO.P,C15,1*%
%TO.N,VBAT*%
X19859332Y11241502D03*
%TO.P,C15,2*%
%TO.N,GND*%
X18309332Y11241502D03*
%TD*%
%TO.P,C16,1*%
%TO.N,VBAT*%
X-11640668Y42341502D03*
%TO.P,C16,2*%
%TO.N,GND*%
X-13190668Y42341502D03*
%TD*%
D33*
%TO.P,C18,1*%
%TO.N,+1V8*%
X-16215668Y44816502D03*
%TO.P,C18,2*%
%TO.N,GND*%
X-16215668Y43266502D03*
%TD*%
D34*
%TO.P,L1,1*%
%TO.N,Net-(U1-SW)*%
X-6915668Y13586502D03*
%TO.P,L1,2*%
%TO.N,+1V0*%
X-6915668Y16896502D03*
%TD*%
D35*
%TO.P,C9,1*%
%TO.N,+1V15*%
X-2290668Y1141502D03*
%TO.P,C9,2*%
%TO.N,GND*%
X-740668Y1141502D03*
%TD*%
D36*
%TO.P,U2,1,AGND*%
%TO.N,GND*%
X-2040668Y10041502D03*
D37*
%TO.P,U2,2,PGND*%
X-2815668Y10016502D03*
%TO.P,U2,3,VIN*%
%TO.N,VBAT*%
X-3615668Y10016502D03*
D36*
%TO.P,U2,4,EN*%
%TO.N,EN*%
X-4390668Y10041502D03*
%TO.P,U2,5,SDA*%
%TO.N,SDA*%
X-4390668Y9541502D03*
%TO.P,U2,6,SCL*%
%TO.N,SCL*%
X-4390668Y9041502D03*
D37*
%TO.P,U2,7,SW*%
%TO.N,Net-(U2-SW)*%
X-3215668Y9066502D03*
D36*
%TO.P,U2,8,VOS*%
%TO.N,+1V15*%
X-2040668Y9041502D03*
%TO.P,U2,9,VSET*%
%TO.N,Net-(U2-VSET)*%
X-2040668Y9541502D03*
%TD*%
D26*
%TO.P,TP10,1,1*%
%TO.N,+1V8_ALW*%
X21484332Y5041502D03*
%TD*%
D38*
%TO.P,R1,1*%
%TO.N,Net-(U1-VSET)*%
X-9105668Y11241502D03*
%TO.P,R1,2*%
%TO.N,GND*%
X-10125668Y11241502D03*
%TD*%
D35*
%TO.P,C7,1*%
%TO.N,VBAT*%
X-3990668Y11241502D03*
%TO.P,C7,2*%
%TO.N,GND*%
X-2440668Y11241502D03*
%TD*%
D33*
%TO.P,C19,1*%
%TO.N,+1V8*%
X-17315668Y44816502D03*
%TO.P,C19,2*%
%TO.N,GND*%
X-17315668Y43266502D03*
%TD*%
D28*
%TO.P,TP8,1,1*%
%TO.N,SDA*%
X20484332Y41941502D03*
%TD*%
D13*
%TO.P,TP7,1,1*%
%TO.N,GND*%
X-14341747Y14085424D03*
%TD*%
D39*
%TO.P,U1,1,AGND*%
%TO.N,GND*%
X-8090668Y10741502D03*
D40*
%TO.P,U1,2,PGND*%
X-7315668Y10766502D03*
%TO.P,U1,3,VIN*%
%TO.N,VBAT*%
X-6515668Y10766502D03*
D39*
%TO.P,U1,4,EN*%
%TO.N,EN*%
X-5740668Y10741502D03*
%TO.P,U1,5,SDA*%
%TO.N,SDA*%
X-5740668Y11241502D03*
%TO.P,U1,6,SCL*%
%TO.N,SCL*%
X-5740668Y11741502D03*
D40*
%TO.P,U1,7,SW*%
%TO.N,Net-(U1-SW)*%
X-6915668Y11716502D03*
D39*
%TO.P,U1,8,VOS*%
%TO.N,+1V0*%
X-8090668Y11741502D03*
%TO.P,U1,9,VSET*%
%TO.N,Net-(U1-VSET)*%
X-8090668Y11241502D03*
%TD*%
D21*
%TO.P,R5,1*%
%TO.N,+1V8*%
X16084332Y17651502D03*
%TO.P,R5,2*%
%TO.N,SCL*%
X16084332Y16631502D03*
%TD*%
D41*
%TO.P,C14,1*%
%TO.N,+3V3*%
X19564332Y15441502D03*
%TO.P,C14,2*%
%TO.N,GND*%
X18604332Y15441502D03*
%TD*%
D42*
%TO.P,TP1,1,1*%
%TO.N,+3V3*%
X24452171Y47535042D03*
%TD*%
D43*
%TO.P,C3,1*%
%TO.N,+1V0*%
X-10667660Y14389510D03*
%TO.P,C3,2*%
%TO.N,GND*%
X-11763676Y13293494D03*
%TD*%
D44*
%TO.P,U4,A1,EN*%
%TO.N,EN*%
X19784332Y12641502D03*
%TO.P,U4,A2,VIN*%
%TO.N,VBAT*%
X19384332Y12641502D03*
%TO.P,U4,A3,VIN_2*%
X18984332Y12641502D03*
%TO.P,U4,B1,VSEL*%
%TO.N,GND*%
X19784332Y13041502D03*
%TO.P,U4,B2,LX1*%
%TO.N,Net-(U4-LX1)*%
X19384332Y13041502D03*
%TO.P,U4,B3,LX1_2*%
X18984332Y13041502D03*
%TO.P,U4,C1,AGND*%
%TO.N,GND*%
X19784332Y13441502D03*
%TO.P,U4,C2,GND*%
X19384332Y13441502D03*
%TO.P,U4,C3,GND_2*%
X18984332Y13441502D03*
%TO.P,U4,D1,SCL*%
%TO.N,SCL*%
X19784332Y13841502D03*
%TO.P,U4,D2,LX2*%
%TO.N,Net-(U4-LX2)*%
X19384332Y13841502D03*
%TO.P,U4,D3,LX2_2*%
X18984332Y13841502D03*
%TO.P,U4,E1,SDA*%
%TO.N,SDA*%
X19784332Y14241502D03*
%TO.P,U4,E2,VOUT*%
%TO.N,+3V3*%
X19384332Y14241502D03*
%TO.P,U4,E3,VOUT_2*%
X18984332Y14241502D03*
%TD*%
D45*
%TO.P,IC4,A1,IN*%
%TO.N,VBAT*%
X16731819Y9941502D03*
%TO.P,IC4,A2,OUT*%
%TO.N,+1V8_ALW*%
X16484332Y9694015D03*
%TO.P,IC4,B1,EN*%
%TO.N,VBAT*%
X16484332Y10188989D03*
%TO.P,IC4,B2,GND*%
%TO.N,GND*%
X16236845Y9941502D03*
%TD*%
D39*
%TO.P,U3,1,AGND*%
%TO.N,GND*%
X-13790668Y43541502D03*
D40*
%TO.P,U3,2,PGND*%
X-13015668Y43566502D03*
%TO.P,U3,3,VIN*%
%TO.N,VBAT*%
X-12215668Y43566502D03*
D39*
%TO.P,U3,4,EN*%
%TO.N,EN*%
X-11440668Y43541502D03*
%TO.P,U3,5,SDA*%
%TO.N,SDA*%
X-11440668Y44041502D03*
%TO.P,U3,6,SCL*%
%TO.N,SCL*%
X-11440668Y44541502D03*
D40*
%TO.P,U3,7,SW*%
%TO.N,Net-(U3-SW)*%
X-12615668Y44516502D03*
D39*
%TO.P,U3,8,VOS*%
%TO.N,+1V8*%
X-13790668Y44541502D03*
%TO.P,U3,9,VSET*%
%TO.N,Net-(U3-VSET)*%
X-13790668Y44041502D03*
%TD*%
D13*
%TO.P,TP4,1,1*%
%TO.N,+1V0*%
X-14341747Y23737080D03*
%TD*%
D28*
%TO.P,TP6,1,1*%
%TO.N,U10*%
X18384332Y1641502D03*
%TD*%
D19*
%TO.P,C6,1*%
%TO.N,+1V0*%
X-14115668Y25066502D03*
%TO.P,C6,2*%
%TO.N,GND*%
X-14115668Y26616502D03*
%TD*%
D26*
%TO.P,TP12,1,1*%
%TO.N,UPDI*%
X20690077Y4045633D03*
%TD*%
D46*
%TO.P,U5,1,PA2*%
%TO.N,unconnected-(U5-PA2-Pad1)*%
X18546581Y8443742D03*
D47*
%TO.P,U5,2,PA3*%
%TO.N,SAFEMODE*%
X18184059Y8274697D03*
%TO.P,U5,3,GND*%
%TO.N,GND*%
X17821535Y8105647D03*
%TO.P,U5,4,VCC*%
%TO.N,+1V8_ALW*%
X17459012Y7936601D03*
D48*
%TO.P,U5,5,PA4*%
%TO.N,ALERT*%
X17096490Y7767553D03*
D49*
%TO.P,U5,6,PA5*%
%TO.N,unconnected-(U5-PA5-Pad6)*%
X16782092Y6903751D03*
D50*
%TO.P,U5,7,PA6*%
%TO.N,unconnected-(U5-PA6-Pad7)*%
X16951137Y6541229D03*
%TO.P,U5,8,PA7*%
%TO.N,GND*%
X17120187Y6178705D03*
%TO.P,U5,9,PB5*%
%TO.N,unconnected-(U5-PB5-Pad9)*%
X17289233Y5816182D03*
D51*
%TO.P,U5,10,PB4*%
%TO.N,unconnected-(U5-PB4-Pad10)*%
X17458281Y5453660D03*
D52*
%TO.P,U5,11,PB3*%
%TO.N,Net-(Q1-G)*%
X18322083Y5139262D03*
D47*
%TO.P,U5,12,PB2*%
%TO.N,unconnected-(U5-PB2-Pad12)*%
X18684605Y5308307D03*
%TO.P,U5,13,PB1*%
%TO.N,SDA*%
X19047129Y5477357D03*
%TO.P,U5,14,PB0*%
%TO.N,SCL*%
X19409652Y5646403D03*
D53*
%TO.P,U5,15,PC0*%
%TO.N,Net-(D1-A)*%
X19772174Y5815451D03*
D54*
%TO.P,U5,16,PC1*%
%TO.N,unconnected-(U5-PC1-Pad16)*%
X20086572Y6679253D03*
D50*
%TO.P,U5,17,PC2*%
%TO.N,unconnected-(U5-PC2-Pad17)*%
X19917527Y7041775D03*
%TO.P,U5,18,PC3*%
%TO.N,unconnected-(U5-PC3-Pad18)*%
X19748477Y7404299D03*
%TO.P,U5,19,~{RESET}/PA0*%
%TO.N,UPDI*%
X19579431Y7766822D03*
D55*
%TO.P,U5,20,PA1*%
%TO.N,EN*%
X19410383Y8129344D03*
D56*
%TO.P,U5,21,GND*%
%TO.N,GND*%
X18434332Y6791502D03*
%TD*%
D57*
%TO.P,U7,1,SCL*%
%TO.N,SCL*%
X7146332Y17641502D03*
%TO.P,U7,2,GND*%
%TO.N,GND*%
X7146332Y17141502D03*
%TO.P,U7,3,ALERT*%
%TO.N,ALERT*%
X7146332Y16641502D03*
%TO.P,U7,4,A0*%
%TO.N,+1V8_ALW*%
X8822332Y16641502D03*
%TO.P,U7,5,V+*%
X8822332Y17141502D03*
%TO.P,U7,6,SDA*%
%TO.N,SDA*%
X8822332Y17641502D03*
%TD*%
D17*
%TO.P,C12,1*%
%TO.N,+3V3*%
X19859332Y16541502D03*
%TO.P,C12,2*%
%TO.N,GND*%
X18309332Y16541502D03*
%TD*%
D13*
%TO.P,TP2,1,1*%
%TO.N,+1V8*%
X-20168970Y47731639D03*
%TD*%
D58*
%TO.P,L3,1*%
%TO.N,Net-(U3-SW)*%
X-11215668Y46641502D03*
%TO.P,L3,2*%
%TO.N,+1V8*%
X-14015668Y46641502D03*
%TD*%
D19*
%TO.P,C21,1*%
%TO.N,+1V8*%
X-16215668Y45966502D03*
%TO.P,C21,2*%
%TO.N,GND*%
X-16215668Y47516502D03*
%TD*%
D59*
%TO.P,C26,1*%
%TO.N,+1V8_ALW*%
X9834332Y16661502D03*
%TO.P,C26,2*%
%TO.N,GND*%
X9834332Y17621502D03*
%TD*%
D17*
%TO.P,C13,1*%
%TO.N,+3V3*%
X19859332Y17641502D03*
%TO.P,C13,2*%
%TO.N,GND*%
X18309332Y17641502D03*
%TD*%
D60*
%TO.P,L4,1*%
%TO.N,Net-(U4-LX1)*%
X17284332Y12379002D03*
%TO.P,L4,2*%
%TO.N,Net-(U4-LX2)*%
X17284332Y14504002D03*
%TD*%
D61*
%TO.N,Net-(D1-A)*%
X16484332Y5161502D03*
D62*
%TO.N,GND*%
X-9687095Y9784750D03*
X-13415668Y42541502D03*
X-17515668Y47741502D03*
X20984332Y13841502D03*
X23384332Y28341502D03*
X-665668Y1641502D03*
X-13315668Y11041502D03*
X-17115668Y43441502D03*
X-13015668Y26441502D03*
X-1015668Y1641502D03*
X13934332Y17291502D03*
X18484332Y17841502D03*
X22244824Y10373253D03*
X22134332Y27741502D03*
X18084332Y17841502D03*
X-2615668Y11041502D03*
X-11115697Y9819638D03*
X-13915668Y26441502D03*
X21185067Y43778918D03*
X-13015668Y13141502D03*
X6234332Y16716039D03*
X18084332Y16741502D03*
X-13015668Y43441502D03*
X-13015668Y42141502D03*
X-10890985Y12348309D03*
X16216344Y7216418D03*
X-3515668Y17841502D03*
X18084332Y16341502D03*
X-13915668Y12241502D03*
X5184332Y-358498D03*
X-2815668Y10544371D03*
X-13615668Y11341502D03*
X-19015668Y43541502D03*
X-15311552Y26348714D03*
X24184332Y26241502D03*
X-12715668Y11041502D03*
X-13649019Y40162552D03*
X-15160825Y13795414D03*
X-14715668Y14241502D03*
X-18615668Y42741502D03*
X18484332Y16341502D03*
X-18615668Y43141502D03*
X11084332Y-1858498D03*
X4784332Y17941502D03*
X17842378Y2797052D03*
X-1315668Y13941502D03*
X-16415668Y47741502D03*
X22584332Y28741502D03*
X-12368504Y27728276D03*
X-19415668Y43541502D03*
X18484332Y16741502D03*
X-14904824Y27578745D03*
X-815668Y10551502D03*
X-8090668Y10741502D03*
X18084332Y11041502D03*
X18484332Y17441502D03*
X23384332Y26641502D03*
X23784332Y28341502D03*
X-11515668Y13241502D03*
X20184332Y13041502D03*
X21218682Y44121790D03*
X-9988477Y9514546D03*
X-19015668Y43141502D03*
X-20615668Y43541502D03*
X-17115668Y47341502D03*
X21184332Y43441502D03*
X-16015668Y43041502D03*
X-16015668Y47741502D03*
X-14515668Y11641502D03*
X24184332Y28341502D03*
X19784332Y13041502D03*
X17824332Y4771502D03*
X-14315668Y26841502D03*
X-14857846Y44486707D03*
X-13615668Y10741502D03*
X5184332Y-958498D03*
X-19815668Y43141502D03*
X-13658727Y36803503D03*
X24184332Y28741502D03*
X-13790668Y43541502D03*
X3684332Y-658498D03*
X-7915668Y9341502D03*
X1858303Y16196228D03*
X-13415668Y42141502D03*
X15384332Y-1558498D03*
X18384332Y14741502D03*
X584332Y17241502D03*
X17584332Y10741502D03*
X-13015668Y10741502D03*
X-17515668Y43041502D03*
X-2215668Y11041502D03*
X11584332Y-458498D03*
X-16415668Y47341502D03*
X22984332Y26241502D03*
X-13615668Y12541502D03*
X-13915668Y13841502D03*
X-11604726Y10512945D03*
X19384332Y13441502D03*
X-14915668Y43441502D03*
X11534332Y16641502D03*
X-17115668Y47741502D03*
X24184332Y27041502D03*
X-11784158Y13552781D03*
X18484332Y10441502D03*
X20984332Y13041502D03*
X-13515668Y14241502D03*
X18984332Y13441502D03*
X4584332Y-958498D03*
X21064332Y8481502D03*
X-20215668Y43541502D03*
X22584332Y26641502D03*
X-12615668Y26841502D03*
X-14215668Y11941502D03*
X-2815668Y10141502D03*
X17984332Y10441502D03*
X23384332Y26241502D03*
X-2615668Y11441502D03*
X-19415668Y43141502D03*
X-14315668Y26441502D03*
X23784332Y26241502D03*
X-13315668Y12241502D03*
X-12372316Y14004243D03*
X-11623297Y12270974D03*
X23784332Y26641502D03*
X9284332Y-458498D03*
X23484332Y6941502D03*
X-11796211Y12997633D03*
X-2215668Y11441502D03*
X15834332Y7941502D03*
X10534332Y16391502D03*
X-13015668Y11941502D03*
X-13649019Y33735700D03*
X-13015668Y43841502D03*
X-13615668Y11941502D03*
X-13474993Y43120430D03*
X-2315668Y10441502D03*
X13784332Y-458498D03*
X-14515668Y12241502D03*
X16384332Y841502D03*
X-7315668Y10267261D03*
X19428562Y2102219D03*
X20184332Y13441502D03*
X-2040668Y10041502D03*
X-13653006Y31521619D03*
X21984332Y28741502D03*
X-13515668Y13841502D03*
X-13404897Y43619069D03*
X-2460454Y9972493D03*
X-13015668Y26841502D03*
X-20215668Y42741502D03*
X-13915668Y26841502D03*
X-14315668Y13841502D03*
X-2815668Y9741502D03*
X19784332Y13441502D03*
X23384332Y27691502D03*
X23384332Y27041502D03*
X24184332Y26641502D03*
X-7915668Y9741502D03*
X19063599Y4207773D03*
X-18615668Y43541502D03*
X-7845159Y10360397D03*
X-19415668Y42741502D03*
X23784332Y28741502D03*
X-13115668Y14241502D03*
X-12615668Y26441502D03*
X3984332Y-358498D03*
X22984332Y28741502D03*
X-10762853Y10333428D03*
X15954374Y6120177D03*
X-13015668Y11341502D03*
X16394161Y9245210D03*
X16904332Y15615502D03*
X22984332Y26641502D03*
X-13015668Y42541502D03*
X-15147572Y14153247D03*
X-9931319Y10054955D03*
X4584332Y-358498D03*
X-19815668Y43541502D03*
X21185067Y43096537D03*
X-13315668Y10441502D03*
X-20615668Y43141502D03*
X-17115668Y43041502D03*
X16609332Y11766502D03*
X-1055973Y1242401D03*
X22634332Y45591502D03*
X17484332Y11241502D03*
X-665668Y2141502D03*
X22405303Y6635950D03*
X7484332Y-1858498D03*
X-12415668Y11341502D03*
X22584332Y28341502D03*
X-17515668Y47341502D03*
X-7691976Y10811606D03*
X-20615668Y42741502D03*
X20234332Y6091502D03*
X-16015668Y43441502D03*
X-7315668Y10641502D03*
X16894332Y17721502D03*
X4284332Y-658498D03*
X-11097126Y11268155D03*
X-13115668Y13841502D03*
X18084332Y17441502D03*
X17919359Y9294359D03*
X-13915668Y11641502D03*
X-11530443Y8402072D03*
X23784332Y27041502D03*
X18584332Y15441502D03*
X-12347555Y9225374D03*
X-16015668Y47341502D03*
X21548107Y44743665D03*
X-12071836Y13291040D03*
X-7315668Y11041502D03*
X24034332Y27691502D03*
X18484332Y11041502D03*
X24584332Y27791502D03*
X-10222308Y9779554D03*
X18434332Y6791502D03*
X-12409458Y12592867D03*
X-17515668Y43441502D03*
X-3615668Y14641502D03*
X-20215668Y43141502D03*
X5484332Y-658498D03*
X-13315668Y11641502D03*
X23384332Y28741502D03*
X-14715668Y13841502D03*
X3984332Y-958498D03*
X22984332Y27041502D03*
X21332972Y44451215D03*
X3199200Y17300060D03*
X-19015668Y42741502D03*
X22144824Y13273253D03*
X-16415668Y43041502D03*
X20205970Y9056432D03*
X-14280748Y28670626D03*
X18084332Y11441502D03*
X-13915668Y14241502D03*
X-665668Y1241502D03*
X-13008888Y42979798D03*
X18584332Y13441502D03*
X6284332Y-658498D03*
X-12715668Y11641502D03*
X5884332Y-358498D03*
X20584332Y13441502D03*
X22984332Y28341502D03*
X20584332Y13841502D03*
X-14215668Y12541502D03*
X13143435Y18008229D03*
X10684332Y17291502D03*
X-665668Y841502D03*
X18484332Y11441502D03*
X-3015668Y12641502D03*
X-7515668Y9741502D03*
X-13915668Y12841502D03*
X20584332Y13041502D03*
X-19815668Y42741502D03*
X24584332Y28341502D03*
X-7515668Y9341502D03*
X4884332Y-658498D03*
X21984332Y28241502D03*
X22584332Y27041502D03*
X-8915668Y10241502D03*
X-16415668Y43441502D03*
X20853125Y12386758D03*
X14184332Y16541502D03*
X22584332Y26241502D03*
X22734332Y27691502D03*
X5884332Y-958498D03*
X-13915668Y11041502D03*
X18184332Y13441502D03*
X-1115668Y841502D03*
X3384332Y-358498D03*
X20984332Y13441502D03*
X-10125668Y11241502D03*
X-14815668Y11941502D03*
X-10484292Y9021096D03*
X-14315668Y14241502D03*
X-14215668Y11341502D03*
%TO.N,+3V3*%
X20084332Y16341502D03*
X23955502Y46379002D03*
X18984332Y14241502D03*
X23384332Y23541502D03*
X24234332Y45691502D03*
X23784332Y23941502D03*
X22984332Y23541502D03*
X24184332Y23941502D03*
X20084332Y17441502D03*
X23784332Y23541502D03*
X19684332Y17841502D03*
X19484332Y14841502D03*
X24584332Y47141502D03*
X23184332Y46591502D03*
X20084332Y15741502D03*
X19684332Y16741502D03*
X19084332Y14841502D03*
X19684332Y17441502D03*
X23384332Y23941502D03*
X24184332Y23541502D03*
X23586974Y46755603D03*
X23384332Y23141502D03*
X22984332Y23141502D03*
X23784332Y47141502D03*
X24584332Y47541502D03*
X19884332Y14941502D03*
X20084332Y16741502D03*
X22584332Y23141502D03*
X24350023Y46697893D03*
X24184332Y47541502D03*
X20084332Y17841502D03*
X23934332Y45291502D03*
X22584332Y23541502D03*
X22984332Y23941502D03*
X24184332Y47141502D03*
X24184332Y23141502D03*
X23784332Y23141502D03*
X24584332Y47941502D03*
X22584332Y23941502D03*
X20084332Y15341502D03*
X19684332Y16341502D03*
X23701256Y45721429D03*
X23434332Y46141502D03*
X24334332Y46141502D03*
X19384332Y14241502D03*
X19584332Y15441502D03*
%TO.N,+1V8*%
X-15115668Y47841502D03*
X15084332Y17651502D03*
X-13790658Y44543362D03*
X-19897251Y47459919D03*
%TO.N,+1V0*%
X-14341747Y23541502D03*
X-8665668Y11741502D03*
%TO.N,+1V15*%
X6784332Y-4473101D03*
X-1515668Y9041502D03*
%TO.N,SDA*%
X-897441Y12846329D03*
X-10915668Y44041502D03*
X20884332Y14436143D03*
X-5215668Y11241502D03*
X-4915668Y9541502D03*
X19784332Y14241502D03*
X20484332Y41941502D03*
X15084332Y17041502D03*
X18934332Y5691502D03*
%TO.N,SCL*%
X18814332Y18466502D03*
X-10915668Y44541502D03*
X20484332Y40041502D03*
X-582318Y12541502D03*
X19384332Y5691502D03*
X7995838Y16160971D03*
X7584332Y17641502D03*
X-5415668Y11741502D03*
X-4915668Y9041502D03*
X16084332Y17041502D03*
X20037332Y18969502D03*
X19784332Y13841502D03*
%TO.N,EN*%
X19410383Y8129344D03*
X-10515668Y43541502D03*
X-5015668Y10398014D03*
%TO.N,VBAT*%
X-7615668Y5941502D03*
X19584332Y11941502D03*
X-6109635Y8996864D03*
X-6515668Y10241502D03*
X-3615668Y10541502D03*
X-11415668Y42541502D03*
X-8515668Y5641502D03*
X-3815668Y11441502D03*
X-5915668Y9341502D03*
X-7315668Y5041502D03*
X-6041307Y10239779D03*
X19684332Y11041502D03*
X20084332Y11041502D03*
X-7615668Y4741502D03*
X-12215668Y43041502D03*
X20084332Y11441502D03*
X-8215668Y7141502D03*
X-6315668Y9341502D03*
X-8515668Y6841502D03*
X-4521148Y10746356D03*
X-12215668Y43841502D03*
X-3615668Y9741502D03*
X-3615668Y10141502D03*
X-8215668Y5341502D03*
X-8855138Y8968317D03*
X-8215668Y6541502D03*
X-6515668Y10641502D03*
X-7915668Y6241502D03*
X19684332Y11441502D03*
X-7915668Y6841502D03*
X-6653004Y9042416D03*
X-11815668Y42541502D03*
X-11815668Y42141502D03*
X-12329478Y42615810D03*
X19184332Y11941502D03*
X-6315668Y9741502D03*
X-8815668Y6541502D03*
X-8815668Y5941502D03*
X-9115668Y6241502D03*
X-4501231Y11748826D03*
X-7015668Y5341502D03*
X-12215668Y43441502D03*
X-8215668Y5941502D03*
X-8633297Y8714784D03*
X-4215668Y11441502D03*
X-7315668Y5641502D03*
X-6715668Y5641502D03*
X19384332Y12641502D03*
X-11748792Y43044551D03*
X-6695302Y9540233D03*
X-4026552Y11805256D03*
X16784332Y10691502D03*
X-11260245Y42981737D03*
X-4215668Y11041502D03*
X-5637848Y9029401D03*
X-8515668Y6241502D03*
X-7915668Y5641502D03*
X-3409137Y11257549D03*
X-3498762Y11742187D03*
X-7915668Y5041502D03*
X-3815668Y11041502D03*
X-7015668Y5941502D03*
X-4099579Y10540551D03*
X-8931198Y8429560D03*
X-7615668Y5341502D03*
X-4538774Y11239878D03*
X-12282593Y42202373D03*
X-9165716Y8695769D03*
X19984332Y11941502D03*
X-5915668Y9741502D03*
X-6515668Y11041502D03*
X18984332Y12641502D03*
X-7315668Y6241502D03*
X-7615668Y6541502D03*
X-11415668Y42141502D03*
%TO.N,Net-(U4-LX2)*%
X17684332Y14341502D03*
X17284332Y14341502D03*
X18984332Y13841502D03*
X17284332Y14741502D03*
X16884332Y14741502D03*
X16884332Y14341502D03*
X19384332Y13841502D03*
X17684332Y14741502D03*
%TO.N,Net-(U4-LX1)*%
X17684332Y12141502D03*
X17684332Y12541502D03*
X17284332Y12541502D03*
X16884332Y12541502D03*
X16884332Y12141502D03*
X17284332Y12141502D03*
X18984332Y13041502D03*
X19384332Y13041502D03*
%TO.N,Net-(D1-A)*%
X19834332Y5691502D03*
%TO.N,Net-(U3-VSET)*%
X-13815668Y44041502D03*
X-14915668Y42441502D03*
%TO.N,+1V8_ALW*%
X17095648Y9089286D03*
X9834332Y16641502D03*
X17459012Y7936601D03*
X19591352Y8685420D03*
%TO.N,ALERT*%
X7584332Y16641502D03*
X16998332Y7891502D03*
%TO.N,SAFEMODE*%
X18184059Y8274697D03*
X12484332Y16141502D03*
%TD*%
D63*
%TO.N,Net-(Q1-G)*%
X18609332Y4283286D02*
X18609332Y3891502D01*
X18402902Y4489716D02*
X18609332Y4283286D01*
X18402902Y5058443D02*
X18402902Y4489716D01*
X18322083Y5139262D02*
X18402902Y5058443D01*
D64*
%TO.N,U10*%
X18384332Y3241502D02*
X18384332Y1641502D01*
D65*
%TO.N,GND*%
X-7315668Y11041502D02*
X-7315668Y10766502D01*
D66*
%TO.N,+1V8*%
X-15179838Y45392554D02*
X-15179838Y47777332D01*
X-15179838Y47777332D02*
X-15115668Y47841502D01*
D67*
X16084332Y17651502D02*
X15084332Y17651502D01*
D65*
X-13790668Y44541502D02*
X-13790658Y44543362D01*
D68*
X16084332Y17651502D02*
X16084332Y17641502D01*
D69*
%TO.N,+1V0*%
X-8090668Y11741502D02*
X-8665668Y11741502D01*
%TO.N,+1V15*%
X-2040668Y9041502D02*
X-1515668Y9041502D01*
D63*
%TO.N,SDA*%
X14294332Y15841502D02*
X15084332Y16631502D01*
X8009332Y16619502D02*
X8009332Y17316502D01*
X20884332Y14436143D02*
X19978973Y14436143D01*
X7231332Y15841502D02*
X8009332Y16619502D01*
D65*
X15084332Y17041502D02*
X15084332Y16631502D01*
D63*
X-415668Y13274502D02*
X-415668Y15541502D01*
D68*
X-4390668Y9541502D02*
X-4915668Y9541502D01*
D63*
X8009332Y17316502D02*
X8334332Y17641502D01*
X-843841Y12846329D02*
X-415668Y13274502D01*
X8795332Y15841502D02*
X14294332Y15841502D01*
X-897441Y12846329D02*
X-843841Y12846329D01*
D68*
X-5740668Y11241502D02*
X-5215668Y11241502D01*
D63*
X8334332Y17641502D02*
X8822332Y17641502D01*
D68*
X-11440668Y44041502D02*
X-10915668Y44041502D01*
D63*
X-115668Y15841502D02*
X7231332Y15841502D01*
X19978973Y14436143D02*
X19784332Y14241502D01*
X8026332Y16610502D02*
X8795332Y15841502D01*
X-415668Y15541502D02*
X-115668Y15841502D01*
%TO.N,SCL*%
X15536532Y15663702D02*
X16084332Y16211502D01*
X-582318Y12541502D02*
X-582318Y12674128D01*
X7995838Y16160971D02*
X7984332Y16149465D01*
X16084332Y16211502D02*
X16084332Y16631502D01*
D70*
X19384332Y5671723D02*
X19409652Y5646403D01*
D63*
X18994474Y18498790D02*
X18962186Y18466502D01*
X20037332Y18969502D02*
X20033332Y18969502D01*
D68*
X-5740668Y11741502D02*
X-5415668Y11741502D01*
D65*
X16084332Y16631502D02*
X16084332Y17041502D01*
D63*
X7984332Y16149465D02*
X7984332Y15663702D01*
X7984332Y15663702D02*
X7784332Y15663702D01*
X-237868Y15467854D02*
X-42020Y15663702D01*
X19562620Y18498790D02*
X18994474Y18498790D01*
X18962186Y18466502D02*
X18814332Y18466502D01*
X20033332Y18969502D02*
X19562620Y18498790D01*
D70*
X19384332Y5691502D02*
X19384332Y5671723D01*
D63*
X-42020Y15663702D02*
X7784332Y15663702D01*
X7784332Y15663702D02*
X15536532Y15663702D01*
X-582318Y12674128D02*
X-237868Y13018578D01*
D68*
X-11440668Y44541502D02*
X-10915668Y44541502D01*
D64*
X7146332Y17641502D02*
X7584332Y17641502D01*
D63*
X-237868Y13018578D02*
X-237868Y15467854D01*
D68*
X-4390668Y9041502D02*
X-4915668Y9041502D01*
D63*
%TO.N,EN*%
X19176656Y8633826D02*
X19176656Y9105311D01*
D68*
X-5015668Y10398014D02*
X-5359156Y10741502D01*
X-4659156Y10041502D02*
X-4390668Y10041502D01*
X-11440668Y43541502D02*
X-10515668Y43541502D01*
D63*
X19176656Y9105311D02*
X20147775Y10076430D01*
D68*
X-5359156Y10741502D02*
X-5740668Y10741502D01*
D63*
X20810323Y10601782D02*
X20237188Y10028647D01*
X19410383Y8129344D02*
X19176656Y8633826D01*
X19784332Y12641502D02*
X20150134Y12641502D01*
X20150134Y12641502D02*
X20810323Y11981313D01*
X20147775Y10076430D02*
X20205970Y10076430D01*
X20810323Y11981313D02*
X20810323Y10601782D01*
D68*
X-5015668Y10398014D02*
X-4659156Y10041502D01*
D65*
%TO.N,Net-(U4-LX2)*%
X19384332Y13841502D02*
X18984332Y13841502D01*
%TO.N,Net-(U4-LX1)*%
X19384332Y13041502D02*
X18984332Y13041502D01*
D70*
%TO.N,Net-(D1-A)*%
X19834332Y5691502D02*
X19834332Y5753293D01*
X19834332Y5753293D02*
X19772174Y5815451D01*
D69*
%TO.N,Net-(U1-VSET)*%
X-8090668Y11241502D02*
X-9105668Y11241502D01*
%TO.N,Net-(U2-VSET)*%
X-2040668Y9541502D02*
X-825668Y9541502D01*
X-825668Y9541502D02*
X-815668Y9531502D01*
%TO.N,Net-(U3-VSET)*%
X-13790668Y44041502D02*
X-13815668Y44041502D01*
X-14915668Y42431502D02*
X-14915668Y42441502D01*
D70*
%TO.N,UPDI*%
X20074332Y7991502D02*
X20201324Y7910856D01*
X20684332Y4051378D02*
X20690077Y4045633D01*
X19579431Y7766822D02*
X20074332Y7991502D01*
X20201324Y7910856D02*
X20684332Y6841502D01*
X20684332Y6841502D02*
X20684332Y4051378D01*
D63*
%TO.N,Net-(Q1-G)*%
X18414035Y5047310D02*
X18322083Y5139262D01*
D64*
%TO.N,+1V8_ALW*%
X20971964Y5881083D02*
X20973303Y5879744D01*
D71*
X17459012Y7936601D02*
X17013858Y8861028D01*
D72*
X16734332Y9441502D02*
X17013858Y8861028D01*
D70*
X17041475Y8888645D02*
X17013858Y8861028D01*
D64*
X20433692Y8141502D02*
X19591352Y8685420D01*
D71*
X9834332Y16641502D02*
X8822332Y16641502D01*
X8822332Y17141502D02*
X8822332Y16641502D01*
D70*
X17049305Y8888645D02*
X17041475Y8888645D01*
D64*
X20973303Y5879744D02*
X20973303Y5552531D01*
X20971964Y6945349D02*
X20971964Y5881083D01*
D72*
X16484332Y9694015D02*
X16734332Y9444015D01*
X16734332Y9444015D02*
X16734332Y9441502D01*
D64*
X9834332Y16661502D02*
X9834332Y16641502D01*
X20433692Y8141502D02*
X20971964Y6945349D01*
X20973303Y5552531D02*
X21484332Y5041502D01*
D63*
%TO.N,ALERT*%
X7146332Y16641502D02*
X7584332Y16641502D01*
%TO.N,U10*%
X18384332Y1641502D02*
X18414035Y1671205D01*
%TD*%
%TA.AperFunction,Conductor*%
%TO.N,VBAT*%
G36*
X16456391Y11457347D02*
G01*
X16473255Y11453901D01*
X16549762Y11421462D01*
X16563968Y11411732D01*
X16608973Y11365395D01*
X16618544Y11355541D01*
X16624953Y11348943D01*
X16630333Y11342167D01*
X16726739Y11192202D01*
X16960755Y10828178D01*
X16962549Y10825121D01*
X16979524Y10793276D01*
X16982334Y10786776D01*
X16993903Y10752620D01*
X16994903Y10749219D01*
X17152604Y10118412D01*
X17153896Y10108528D01*
X17155409Y10007951D01*
X17151186Y9988602D01*
X17107905Y9897800D01*
X17102612Y9889352D01*
X17063646Y9840645D01*
X17056768Y9833786D01*
X16980029Y9772734D01*
X16962630Y9764372D01*
X16867020Y9742588D01*
X16857368Y9741502D01*
X16843821Y9741502D01*
X16835344Y9742337D01*
X16750815Y9759152D01*
X16735156Y9765638D01*
X16663492Y9813522D01*
X16656914Y9818920D01*
X15947645Y10528189D01*
X15943061Y10533590D01*
X15901195Y10591963D01*
X15894941Y10604619D01*
X15874001Y10673343D01*
X15872500Y10680243D01*
X15816333Y11101485D01*
X15816020Y11109644D01*
X15820623Y11192202D01*
X15824551Y11207982D01*
X15857437Y11279278D01*
X15866885Y11292500D01*
X15923684Y11346716D01*
X15937331Y11355539D01*
X16013954Y11386645D01*
X16021773Y11388991D01*
X16360245Y11456686D01*
X16368854Y11457529D01*
X16456391Y11457347D01*
G37*
%TD.AperFunction*%
%TD*%
%TA.AperFunction,Conductor*%
%TO.N,VBAT*%
G36*
X-6267667Y11410041D02*
G01*
X-6208440Y11393994D01*
X-6189031Y11382729D01*
X-6145717Y11339270D01*
X-6134516Y11319822D01*
X-6117142Y11254838D01*
X-6115668Y11243615D01*
X-6115668Y10770498D01*
X-6105975Y10723796D01*
X-6105068Y10714966D01*
X-6105068Y10664040D01*
X-6096255Y10619734D01*
X-6062682Y10569488D01*
X-6012436Y10535915D01*
X-5968132Y10527102D01*
X-5942875Y10527102D01*
X-5928262Y10524572D01*
X-5588436Y10403205D01*
X-5580438Y10399388D01*
X-5503803Y10352650D01*
X-5490914Y10340587D01*
X-5441839Y10270949D01*
X-5434813Y10254749D01*
X-5416575Y10166869D01*
X-5415668Y10158040D01*
X-5415668Y9141502D01*
X-6915668Y9141502D01*
X-6915668Y10927225D01*
X-6914980Y10934927D01*
X-6901094Y11012027D01*
X-6895719Y11026463D01*
X-6857815Y11090477D01*
X-6847747Y11102126D01*
X-6786806Y11151387D01*
X-6780409Y11155677D01*
X-6607621Y11250431D01*
X-6605673Y11251511D01*
X-6603734Y11252607D01*
X-6603647Y11252656D01*
X-6452072Y11339271D01*
X-6365622Y11388672D01*
X-6355154Y11392957D01*
X-6290106Y11410115D01*
X-6267667Y11410041D01*
G37*
%TD.AperFunction*%
%TD*%
%TA.AperFunction,Conductor*%
%TO.N,Net-(U2-SW)*%
G36*
X-3211128Y9540520D02*
G01*
X-3189191Y9535776D01*
X-3133790Y9523795D01*
X-3117062Y9516204D01*
X-3053546Y9469014D01*
X-3046760Y9462749D01*
X-2462780Y8795343D01*
X-2419718Y8757978D01*
X-2410273Y8749782D01*
X-2347385Y8720163D01*
X-998296Y8298573D01*
X-989904Y8294940D01*
X-909247Y8249379D01*
X-895612Y8237285D01*
X-843538Y8166456D01*
X-836062Y8149832D01*
X-816635Y8059271D01*
X-815668Y8050158D01*
X-815668Y6799782D01*
X-816503Y6791305D01*
X-833317Y6706777D01*
X-839805Y6691114D01*
X-885262Y6623083D01*
X-897249Y6611096D01*
X-965280Y6565639D01*
X-980943Y6559151D01*
X-1065470Y6542337D01*
X-1073947Y6541502D01*
X-5357389Y6541502D01*
X-5365866Y6542337D01*
X-5450394Y6559151D01*
X-5466057Y6565639D01*
X-5534088Y6611096D01*
X-5546075Y6623083D01*
X-5591533Y6691117D01*
X-5598019Y6706776D01*
X-5614833Y6791306D01*
X-5615668Y6799782D01*
X-5615668Y8089470D01*
X-5614996Y8097080D01*
X-5601438Y8173297D01*
X-5596192Y8187573D01*
X-5559138Y8251082D01*
X-5549291Y8262673D01*
X-5489596Y8311992D01*
X-5483321Y8316308D01*
X-4589557Y8821479D01*
X-4568177Y8827102D01*
X-4163204Y8827102D01*
X-4133669Y8832978D01*
X-4118900Y8835915D01*
X-4068654Y8869488D01*
X-4035081Y8919734D01*
X-4026268Y8964040D01*
X-4026268Y9114508D01*
X-4013542Y9145232D01*
X-4004204Y9152330D01*
X-3734711Y9304653D01*
X-3730588Y9306649D01*
X-3730591Y9306657D01*
X-3730579Y9306664D01*
X-3730588Y9306685D01*
X-3729970Y9306963D01*
X-3729949Y9306971D01*
X-3718876Y9312373D01*
X-3520997Y9425448D01*
X-3464357Y9457461D01*
X-3464080Y9457616D01*
X-3365331Y9511768D01*
X-3360818Y9513913D01*
X-3318670Y9531033D01*
X-3307901Y9533866D01*
X-3251629Y9541144D01*
X-3246056Y9541502D01*
X-3220312Y9541502D01*
X-3211128Y9540520D01*
G37*
%TD.AperFunction*%
%TD*%
%TA.AperFunction,Conductor*%
%TO.N,+1V0*%
G36*
X-10016365Y25955930D02*
G01*
X-9927274Y25943750D01*
X-9910606Y25937836D01*
X-9870632Y25913556D01*
X-9850979Y25886730D01*
X-9849738Y25876420D01*
X-9849738Y19023134D01*
X-9834438Y18986196D01*
X-9806167Y18957925D01*
X-9769229Y18942625D01*
X-9769228Y18942625D01*
X-4495844Y18942625D01*
X-4491732Y18940922D01*
X-4487367Y18941790D01*
X-4476831Y18934750D01*
X-4465120Y18929899D01*
X-4459717Y18923314D01*
X-4439806Y18893515D01*
X-4433318Y18877853D01*
X-4416503Y18793323D01*
X-4415668Y18784846D01*
X-4415668Y16499782D01*
X-4416503Y16491305D01*
X-4433317Y16406777D01*
X-4439805Y16391114D01*
X-4485262Y16323083D01*
X-4497249Y16311096D01*
X-4565280Y16265639D01*
X-4580943Y16259151D01*
X-4665470Y16242337D01*
X-4673947Y16241502D01*
X-9284371Y16241502D01*
X-9376055Y16224377D01*
X-9376058Y16224376D01*
X-9455383Y16175303D01*
X-9455386Y16175300D01*
X-9511647Y16100904D01*
X-9537257Y16011216D01*
X-9537260Y16011202D01*
X-9809450Y13107834D01*
X-9810277Y13102545D01*
X-9821980Y13049407D01*
X-9825545Y13039330D01*
X-9849870Y12990649D01*
X-9852554Y12986017D01*
X-10016452Y12739470D01*
X-10021924Y12732788D01*
X-10083732Y12671029D01*
X-10098054Y12661525D01*
X-10174870Y12630238D01*
X-10191756Y12627031D01*
X-10274694Y12627978D01*
X-10291503Y12631570D01*
X-10371645Y12666368D01*
X-10379186Y12670578D01*
X-10831727Y12986017D01*
X-10847849Y12997254D01*
X-10855163Y13003683D01*
X-10887543Y13039330D01*
X-10921283Y13076475D01*
X-10930778Y13093340D01*
X-10958720Y13187622D01*
X-10960423Y13197211D01*
X-10974462Y13418144D01*
X-10974462Y13418147D01*
X-10989666Y13489994D01*
X-11024789Y13554489D01*
X-11187864Y13771809D01*
X-11788974Y14572874D01*
X-11797670Y14598953D01*
X-11797670Y23261630D01*
X-11812970Y23298568D01*
X-11841241Y23326839D01*
X-11878179Y23342139D01*
X-11878180Y23342139D01*
X-14813532Y23342139D01*
X-14817790Y23342348D01*
X-14986883Y23359000D01*
X-14995237Y23360662D01*
X-15155771Y23409355D01*
X-15163639Y23412613D01*
X-15311601Y23491690D01*
X-15318683Y23496422D01*
X-15448369Y23602838D01*
X-15454390Y23608857D01*
X-15560839Y23738541D01*
X-15565561Y23745608D01*
X-15644661Y23893557D01*
X-15647921Y23901425D01*
X-15696640Y24061954D01*
X-15698303Y24070307D01*
X-15714958Y24239157D01*
X-15715168Y24243422D01*
X-15715168Y25493179D01*
X-15713830Y25496411D01*
X-15714659Y25499807D01*
X-15707628Y25511383D01*
X-15702442Y25523903D01*
X-15697403Y25528224D01*
X-15677554Y25542765D01*
X-15662923Y25549735D01*
X-15614852Y25562360D01*
X-15583165Y25570681D01*
X-15575131Y25572002D01*
X-14050345Y25677564D01*
X-10998526Y25888843D01*
X-10025235Y25956225D01*
X-10016365Y25955930D01*
G37*
%TD.AperFunction*%
%TD*%
%TA.AperFunction,Conductor*%
%TO.N,+3V3*%
G36*
X20134529Y18390667D02*
G01*
X20151681Y18387256D01*
X20219058Y18373853D01*
X20234717Y18367367D01*
X20302752Y18321908D01*
X20314738Y18309922D01*
X20360195Y18241891D01*
X20366683Y18226228D01*
X20383497Y18141700D01*
X20384332Y18133223D01*
X20384332Y14915890D01*
X20383494Y14907398D01*
X20366622Y14822732D01*
X20360112Y14807046D01*
X20314503Y14738943D01*
X20302478Y14726952D01*
X20230611Y14679112D01*
X20223076Y14675104D01*
X20164913Y14651154D01*
X19980816Y14575349D01*
X19975755Y14573266D01*
X19959215Y14569993D01*
X19952349Y14569993D01*
X19903153Y14549615D01*
X19903151Y14549614D01*
X19898678Y14545141D01*
X19884499Y14535690D01*
X19746663Y14478935D01*
X19738598Y14476497D01*
X19690923Y14467012D01*
X19690919Y14467011D01*
X19611733Y14414101D01*
X19611733Y14414100D01*
X19608984Y14409986D01*
X19602659Y14403661D01*
X19603189Y14403129D01*
X19600155Y14400104D01*
X19551442Y14327364D01*
X19551442Y14327363D01*
X19534610Y14242900D01*
X19533968Y14240147D01*
X19517249Y14177749D01*
X19506003Y14158270D01*
X19467564Y14119831D01*
X19448086Y14108586D01*
X19389855Y14092983D01*
X19378609Y14091502D01*
X18942611Y14091502D01*
X18934134Y14092337D01*
X18930886Y14092983D01*
X18849606Y14109151D01*
X18833943Y14115639D01*
X18827669Y14119831D01*
X18765911Y14161097D01*
X18753925Y14173083D01*
X18708467Y14241117D01*
X18701981Y14256776D01*
X18685167Y14341306D01*
X18684332Y14349782D01*
X18684332Y14767759D01*
X18685370Y14777199D01*
X18706211Y14870834D01*
X18714216Y14887925D01*
X18772810Y14963885D01*
X18779391Y14970719D01*
X18892939Y15065341D01*
X18960352Y15152734D01*
X18984332Y15260469D01*
X18984332Y15850283D01*
X18981052Y15890970D01*
X18971298Y15930605D01*
X18947914Y16000754D01*
X18946948Y16004096D01*
X18938448Y16038636D01*
X18937331Y16045512D01*
X18934471Y16080997D01*
X18934332Y16084463D01*
X18934332Y18133223D01*
X18935167Y18141699D01*
X18937858Y18155234D01*
X18951981Y18226231D01*
X18958466Y18241887D01*
X19003928Y18309926D01*
X19015908Y18321906D01*
X19069356Y18357619D01*
X19093494Y18364940D01*
X19589242Y18364940D01*
X19589244Y18364940D01*
X19638440Y18385318D01*
X19638441Y18385320D01*
X19642393Y18386956D01*
X19642783Y18386014D01*
X19660875Y18391502D01*
X20126053Y18391502D01*
X20134529Y18390667D01*
G37*
%TD.AperFunction*%
%TD*%
%TA.AperFunction,Conductor*%
%TO.N,+3V3*%
G36*
X24839700Y48160842D02*
G01*
X24852426Y48130118D01*
X24852426Y46918018D01*
X24839700Y46887294D01*
X24808976Y46874568D01*
X24759696Y46874568D01*
X24719714Y46874568D01*
X24701245Y46866918D01*
X24682775Y46859268D01*
X24654505Y46830998D01*
X24639205Y46794059D01*
X24639205Y45784236D01*
X24638996Y45779974D01*
X24622330Y45610868D01*
X24620667Y45602515D01*
X24571959Y45441975D01*
X24568700Y45434107D01*
X24489608Y45286145D01*
X24484876Y45279063D01*
X24378441Y45149373D01*
X24372419Y45143351D01*
X24242729Y45036916D01*
X24235647Y45032184D01*
X24087685Y44953091D01*
X24079817Y44949832D01*
X23919277Y44901124D01*
X23910923Y44899461D01*
X23822274Y44890725D01*
X23790450Y44900377D01*
X23775328Y44925851D01*
X23774916Y44928019D01*
X22848284Y46615811D01*
X22844654Y46648865D01*
X22855649Y46667442D01*
X24349490Y48160847D01*
X24380209Y48173568D01*
X24808976Y48173568D01*
X24839700Y48160842D01*
G37*
%TD.AperFunction*%
%TD*%
%TA.AperFunction,Conductor*%
%TO.N,GND*%
G36*
X-15690120Y48118139D02*
G01*
X-15684717Y48111554D01*
X-15664806Y48081755D01*
X-15658318Y48066093D01*
X-15641503Y47981563D01*
X-15640668Y47973086D01*
X-15640668Y47224782D01*
X-15641503Y47216305D01*
X-15658317Y47131777D01*
X-15664805Y47116114D01*
X-15710262Y47048083D01*
X-15722249Y47036096D01*
X-15790280Y46990639D01*
X-15805943Y46984151D01*
X-15890470Y46967337D01*
X-15898947Y46966502D01*
X-17632389Y46966502D01*
X-17640866Y46967337D01*
X-17725394Y46984151D01*
X-17741057Y46990639D01*
X-17809088Y47036096D01*
X-17821075Y47048083D01*
X-17866533Y47116117D01*
X-17873019Y47131776D01*
X-17889833Y47216306D01*
X-17890668Y47224782D01*
X-17890668Y47973086D01*
X-17889833Y47981563D01*
X-17873019Y48066093D01*
X-17866534Y48081750D01*
X-17846618Y48111556D01*
X-17818968Y48130030D01*
X-17810492Y48130865D01*
X-15720844Y48130865D01*
X-15690120Y48118139D01*
G37*
%TD.AperFunction*%
%TD*%
%TA.AperFunction,Conductor*%
%TO.N,VBAT*%
G36*
X19338529Y12790667D02*
G01*
X19352169Y12787954D01*
X19402393Y12777964D01*
X19418052Y12771479D01*
X19468568Y12737724D01*
X19480553Y12725739D01*
X19483112Y12721909D01*
X19514306Y12675226D01*
X19520794Y12659563D01*
X19534332Y12591502D01*
X19549556Y12514966D01*
X19549557Y12514962D01*
X19592909Y12450083D01*
X19592912Y12450080D01*
X19657791Y12406728D01*
X19657792Y12406728D01*
X19657795Y12406726D01*
X19712548Y12395836D01*
X19734330Y12391502D01*
X19734332Y12391502D01*
X19967431Y12391502D01*
X19976413Y12390564D01*
X20065745Y12371687D01*
X20082173Y12364420D01*
X20156231Y12311018D01*
X20162966Y12305005D01*
X20451269Y11987871D01*
X20515578Y11917131D01*
X20520388Y11910746D01*
X20562982Y11841792D01*
X20568729Y11826927D01*
X20583595Y11747256D01*
X20584332Y11739286D01*
X20584332Y10950992D01*
X20583497Y10942515D01*
X20566682Y10857986D01*
X20560195Y10842324D01*
X20512318Y10770670D01*
X20506914Y10764085D01*
X20461749Y10718920D01*
X20455166Y10713518D01*
X20383510Y10665639D01*
X20367848Y10659152D01*
X20283320Y10642337D01*
X20274843Y10641502D01*
X19227102Y10641502D01*
X19219807Y10642119D01*
X19146650Y10654578D01*
X19132883Y10659407D01*
X19067971Y10695381D01*
X19061890Y10699456D01*
X18983474Y10762188D01*
X18976615Y10769066D01*
X18975339Y10770670D01*
X18915562Y10845807D01*
X18907202Y10863202D01*
X18885418Y10958815D01*
X18884332Y10968467D01*
X18884332Y11581540D01*
X18884331Y11581549D01*
X18877537Y11639899D01*
X18877536Y11639901D01*
X18857518Y11695129D01*
X18857517Y11695133D01*
X18712270Y11985624D01*
X18710291Y11990233D01*
X18692848Y12038357D01*
X18690541Y12048135D01*
X18684624Y12098956D01*
X18684332Y12103981D01*
X18684332Y12533223D01*
X18685167Y12541699D01*
X18695073Y12591502D01*
X18701981Y12626231D01*
X18708466Y12641887D01*
X18753928Y12709926D01*
X18765908Y12721906D01*
X18833947Y12767368D01*
X18849603Y12773853D01*
X18920600Y12787976D01*
X18934135Y12790667D01*
X18942611Y12791502D01*
X19330053Y12791502D01*
X19338529Y12790667D01*
G37*
%TD.AperFunction*%
%TD*%
%TA.AperFunction,Conductor*%
%TO.N,VBAT*%
G36*
X-11967667Y44210041D02*
G01*
X-11908440Y44193994D01*
X-11889031Y44182729D01*
X-11845717Y44139270D01*
X-11834516Y44119822D01*
X-11817142Y44054838D01*
X-11815668Y44043615D01*
X-11815668Y43592124D01*
X-11806142Y43550089D01*
X-11805068Y43540487D01*
X-11805068Y43464040D01*
X-11796255Y43419734D01*
X-11762682Y43369488D01*
X-11712436Y43335915D01*
X-11668132Y43327102D01*
X-11550289Y43327102D01*
X-11540225Y43325920D01*
X-10965566Y43189097D01*
X-10956476Y43185829D01*
X-10868907Y43142815D01*
X-10853966Y43130747D01*
X-10796584Y43058097D01*
X-10788305Y43040769D01*
X-10766742Y42945618D01*
X-10765668Y42936015D01*
X-10765668Y41899782D01*
X-10766503Y41891305D01*
X-10783317Y41806777D01*
X-10789805Y41791114D01*
X-10835262Y41723083D01*
X-10847249Y41711096D01*
X-10915280Y41665639D01*
X-10930943Y41659151D01*
X-11015470Y41642337D01*
X-11023947Y41641502D01*
X-11994281Y41641502D01*
X-12002609Y41642308D01*
X-12028414Y41647349D01*
X-12085731Y41658544D01*
X-12101164Y41664812D01*
X-12137271Y41688399D01*
X-12172071Y41711133D01*
X-12178596Y41716357D01*
X-12535652Y42063669D01*
X-12541230Y42070301D01*
X-12590694Y42142692D01*
X-12597402Y42158576D01*
X-12614804Y42244511D01*
X-12615668Y42253134D01*
X-12615668Y43727225D01*
X-12614980Y43734927D01*
X-12601094Y43812027D01*
X-12595719Y43826463D01*
X-12557815Y43890477D01*
X-12547747Y43902126D01*
X-12486806Y43951387D01*
X-12480409Y43955677D01*
X-12307621Y44050431D01*
X-12305673Y44051511D01*
X-12303734Y44052607D01*
X-12303647Y44052656D01*
X-12152072Y44139271D01*
X-12065622Y44188672D01*
X-12055154Y44192957D01*
X-11990106Y44210115D01*
X-11967667Y44210041D01*
G37*
%TD.AperFunction*%
%TD*%
%TA.AperFunction,Conductor*%
%TO.N,Net-(U3-SW)*%
G36*
X-10776160Y48130863D02*
G01*
X-10751360Y48130865D01*
X-10747109Y48130657D01*
X-10577995Y48114011D01*
X-10569649Y48112352D01*
X-10417125Y48066093D01*
X-10409083Y48063654D01*
X-10401215Y48060396D01*
X-10338636Y48026951D01*
X-10317540Y48001248D01*
X-10315668Y47988632D01*
X-10315668Y45490210D01*
X-10316316Y45482737D01*
X-10329392Y45407845D01*
X-10334456Y45393783D01*
X-10370238Y45331077D01*
X-10379768Y45319564D01*
X-10437588Y45270212D01*
X-10443692Y45265853D01*
X-11296457Y44761945D01*
X-11318561Y44755902D01*
X-11668132Y44755902D01*
X-11712436Y44747090D01*
X-11712436Y44747089D01*
X-11762682Y44713517D01*
X-11762683Y44713516D01*
X-11796255Y44663270D01*
X-11796256Y44663270D01*
X-11805068Y44618967D01*
X-11805068Y44486197D01*
X-11817794Y44455473D01*
X-11826414Y44448790D01*
X-12453388Y44078305D01*
X-12458560Y44075697D01*
X-12512754Y44052766D01*
X-12523905Y44049717D01*
X-12571232Y44043365D01*
X-12582231Y44041888D01*
X-12588009Y44041502D01*
X-12607025Y44041502D01*
X-12623651Y44044809D01*
X-12669752Y44063904D01*
X-12693267Y44087420D01*
X-12712361Y44133519D01*
X-12715668Y44150146D01*
X-12715668Y47973086D01*
X-12714833Y47981563D01*
X-12698019Y48066093D01*
X-12691534Y48081750D01*
X-12671618Y48111556D01*
X-12643968Y48130030D01*
X-12635492Y48130865D01*
X-10776163Y48130865D01*
X-10776160Y48130863D01*
G37*
%TD.AperFunction*%
%TD*%
%TA.AperFunction,Conductor*%
%TO.N,VBAT*%
G36*
X-3465471Y11990667D02*
G01*
X-3448319Y11987256D01*
X-3380942Y11973853D01*
X-3365283Y11967367D01*
X-3297248Y11921908D01*
X-3285262Y11909922D01*
X-3239805Y11841891D01*
X-3233317Y11826228D01*
X-3216503Y11741700D01*
X-3215668Y11733223D01*
X-3215668Y9855780D01*
X-3216356Y9848078D01*
X-3230243Y9770978D01*
X-3235618Y9756542D01*
X-3273522Y9692528D01*
X-3283594Y9680875D01*
X-3344520Y9631626D01*
X-3350943Y9627320D01*
X-3523639Y9532616D01*
X-3523715Y9532573D01*
X-3524541Y9532116D01*
X-3525679Y9531485D01*
X-3526766Y9530871D01*
X-3527579Y9530411D01*
X-3765712Y9394335D01*
X-3776187Y9390047D01*
X-3841228Y9372890D01*
X-3863673Y9372965D01*
X-3922896Y9389011D01*
X-3942308Y9400277D01*
X-3985621Y9443736D01*
X-3996820Y9463182D01*
X-4014194Y9528168D01*
X-4015668Y9539390D01*
X-4015668Y10012504D01*
X-4025362Y10059215D01*
X-4026268Y10068044D01*
X-4026268Y10118967D01*
X-4029562Y10135525D01*
X-4035081Y10163270D01*
X-4068654Y10213516D01*
X-4118900Y10247089D01*
X-4118901Y10247090D01*
X-4163204Y10255902D01*
X-4163206Y10255902D01*
X-4188461Y10255902D01*
X-4203075Y10258433D01*
X-4542899Y10379799D01*
X-4550902Y10383619D01*
X-4627534Y10430355D01*
X-4640422Y10442417D01*
X-4689499Y10512058D01*
X-4696524Y10528253D01*
X-4714762Y10616136D01*
X-4715668Y10624965D01*
X-4715668Y11733223D01*
X-4714833Y11741699D01*
X-4712142Y11755234D01*
X-4698019Y11826231D01*
X-4691534Y11841887D01*
X-4646072Y11909926D01*
X-4634092Y11921906D01*
X-4566053Y11967368D01*
X-4550397Y11973853D01*
X-4479400Y11987976D01*
X-4465865Y11990667D01*
X-4457389Y11991502D01*
X-3473947Y11991502D01*
X-3465471Y11990667D01*
G37*
%TD.AperFunction*%
%TD*%
%TA.AperFunction,Conductor*%
%TO.N,+1V8*%
G36*
X-17978604Y48118139D02*
G01*
X-17965878Y48087415D01*
X-17966713Y48078938D01*
X-17982422Y47999969D01*
X-17982422Y47999966D01*
X-17983775Y47990845D01*
X-17983777Y47990831D01*
X-17983778Y47990817D01*
X-17984595Y47982531D01*
X-17984614Y47982330D01*
X-17985068Y47973104D01*
X-17985068Y47224765D01*
X-17984613Y47215520D01*
X-17983778Y47207048D01*
X-17983778Y47207043D01*
X-17982421Y47197901D01*
X-17982416Y47197873D01*
X-17965606Y47113363D01*
X-17965605Y47113360D01*
X-17960234Y47095651D01*
X-17953748Y47079992D01*
X-17953745Y47079988D01*
X-17945022Y47063669D01*
X-17945013Y47063654D01*
X-17899573Y46995647D01*
X-17899559Y46995628D01*
X-17887837Y46981345D01*
X-17887826Y46981332D01*
X-17875844Y46969350D01*
X-17875840Y46969346D01*
X-17861527Y46957599D01*
X-17861526Y46957598D01*
X-17793514Y46912154D01*
X-17793508Y46912151D01*
X-17793506Y46912150D01*
X-17793503Y46912148D01*
X-17777183Y46903425D01*
X-17761520Y46896937D01*
X-17743811Y46891565D01*
X-17659283Y46874751D01*
X-17650120Y46873392D01*
X-17641643Y46872557D01*
X-17632406Y46872103D01*
X-17632399Y46872102D01*
X-17632389Y46872102D01*
X-15898937Y46872102D01*
X-15898932Y46872103D01*
X-15889693Y46872557D01*
X-15881216Y46873392D01*
X-15872053Y46874751D01*
X-15787526Y46891565D01*
X-15769817Y46896937D01*
X-15754154Y46903425D01*
X-15737834Y46912148D01*
X-15737829Y46912152D01*
X-15737824Y46912154D01*
X-15669812Y46957598D01*
X-15669811Y46957599D01*
X-15669807Y46957603D01*
X-15669803Y46957605D01*
X-15655498Y46969345D01*
X-15643511Y46981332D01*
X-15631771Y46995637D01*
X-15631769Y46995641D01*
X-15631765Y46995645D01*
X-15631764Y46995646D01*
X-15586320Y47063658D01*
X-15586317Y47063664D01*
X-15586314Y47063668D01*
X-15577591Y47079988D01*
X-15571103Y47095651D01*
X-15565731Y47113360D01*
X-15548917Y47197888D01*
X-15547558Y47207051D01*
X-15546723Y47215528D01*
X-15546268Y47224782D01*
X-15546268Y47973086D01*
X-15546723Y47982340D01*
X-15547558Y47990817D01*
X-15548917Y47999981D01*
X-15564623Y48078938D01*
X-15558135Y48111554D01*
X-15530485Y48130030D01*
X-15522008Y48130865D01*
X-13395844Y48130865D01*
X-13391732Y48129162D01*
X-13387367Y48130030D01*
X-13376831Y48122990D01*
X-13365120Y48118139D01*
X-13359717Y48111554D01*
X-13339806Y48081755D01*
X-13333318Y48066093D01*
X-13316503Y47981563D01*
X-13315668Y47973086D01*
X-13315668Y45299782D01*
X-13316503Y45291305D01*
X-13333317Y45206777D01*
X-13339805Y45191114D01*
X-13385262Y45123083D01*
X-13397249Y45111096D01*
X-13465280Y45065639D01*
X-13480943Y45059151D01*
X-13565470Y45042337D01*
X-13573947Y45041502D01*
X-14666752Y45041502D01*
X-14690769Y45039211D01*
X-14714787Y45036919D01*
X-14714789Y45036918D01*
X-14761085Y45023336D01*
X-15138602Y44872330D01*
X-15138605Y44872328D01*
X-15207189Y44831362D01*
X-15207190Y44831361D01*
X-15259660Y44771116D01*
X-15639108Y44163998D01*
X-15643498Y44158138D01*
X-15692844Y44102698D01*
X-15704237Y44093583D01*
X-15765892Y44059411D01*
X-15779659Y44054581D01*
X-15828605Y44046245D01*
X-15852826Y44042119D01*
X-15860119Y44041502D01*
X-21419881Y44041502D01*
X-21428357Y44042337D01*
X-21512875Y44059147D01*
X-21528537Y44065634D01*
X-21558324Y44085535D01*
X-21576801Y44113184D01*
X-21577636Y44121648D01*
X-21578061Y47229100D01*
X-21577852Y47233357D01*
X-21576094Y47251211D01*
X-21561202Y47402473D01*
X-21559544Y47410815D01*
X-21510840Y47571394D01*
X-21507583Y47579254D01*
X-21428497Y47727231D01*
X-21423766Y47734313D01*
X-21317330Y47864021D01*
X-21311313Y47870040D01*
X-21181608Y47976500D01*
X-21174542Y47981222D01*
X-21026562Y48060333D01*
X-21018701Y48063589D01*
X-20858137Y48112310D01*
X-20849788Y48113971D01*
X-20756624Y48123155D01*
X-20680539Y48130655D01*
X-20676276Y48130865D01*
X-18009328Y48130865D01*
X-17978604Y48118139D01*
G37*
%TD.AperFunction*%
%TD*%
%TA.AperFunction,Conductor*%
%TO.N,VBAT*%
G36*
X-8826940Y9518643D02*
G01*
X-8811283Y9512157D01*
X-8739623Y9464276D01*
X-8733039Y9458873D01*
X-8290063Y9015897D01*
X-8207659Y8960837D01*
X-8110460Y8941502D01*
X-7220878Y8941502D01*
X-7220876Y8941502D01*
X-7156078Y8954392D01*
X-7123677Y8960837D01*
X-7041273Y9015897D01*
X-6990063Y9067107D01*
X-6915668Y9141502D01*
X-5415668Y9141502D01*
X-5415668Y8682804D01*
X-5416973Y8672235D01*
X-5443073Y8568156D01*
X-5453046Y8549521D01*
X-5525167Y8470072D01*
X-5533237Y8463124D01*
X-5602560Y8416908D01*
X-5602562Y8416906D01*
X-5685613Y8325417D01*
X-5715668Y8205569D01*
X-5715668Y2536638D01*
X-5716501Y2528172D01*
X-5733273Y2443746D01*
X-5739745Y2428099D01*
X-5785093Y2360121D01*
X-5797053Y2348137D01*
X-5864944Y2302651D01*
X-5880578Y2296148D01*
X-5915406Y2289157D01*
X-5948033Y2295588D01*
X-5954588Y2300941D01*
X-11063657Y7379427D01*
X-11065389Y7383572D01*
X-11069126Y7386063D01*
X-11071606Y7398454D01*
X-11076476Y7410113D01*
X-11075653Y7418661D01*
X-11068603Y7454310D01*
X-11062119Y7469998D01*
X-11014170Y7541819D01*
X-11008767Y7548405D01*
X-9098293Y9458878D01*
X-9091721Y9464271D01*
X-9020053Y9512158D01*
X-9004397Y9518643D01*
X-8924144Y9534606D01*
X-8907192Y9534606D01*
X-8826940Y9518643D01*
G37*
%TD.AperFunction*%
%TD*%
%TA.AperFunction,Conductor*%
%TO.N,GND*%
G36*
X-265471Y2540668D02*
G01*
X-180941Y2523853D01*
X-165284Y2517368D01*
X-119809Y2486983D01*
X-101335Y2459335D01*
X-100500Y2450858D01*
X-100500Y732149D01*
X-113226Y701425D01*
X-119810Y696022D01*
X-165280Y665639D01*
X-180943Y659151D01*
X-265470Y642337D01*
X-273947Y641502D01*
X-1097778Y641502D01*
X-1107357Y642571D01*
X-1202285Y664027D01*
X-1219581Y672266D01*
X-1292150Y729389D01*
X-1304220Y744265D01*
X-1345170Y827049D01*
X-1349668Y845666D01*
X-1351107Y942987D01*
X-1350181Y952567D01*
X-1059147Y2334982D01*
X-1056041Y2344320D01*
X-1014160Y2434514D01*
X-1002135Y2449947D01*
X-928866Y2509398D01*
X-911282Y2517987D01*
X-814405Y2540385D01*
X-804617Y2541502D01*
X-273947Y2541502D01*
X-265471Y2540668D01*
G37*
%TD.AperFunction*%
%TD*%
%TA.AperFunction,Conductor*%
%TO.N,+1V15*%
G36*
X-249803Y4540668D02*
G01*
X-165273Y4523853D01*
X-149616Y4517368D01*
X-119809Y4497452D01*
X-101335Y4469804D01*
X-100500Y4461327D01*
X-100500Y2656211D01*
X-113226Y2625487D01*
X-143950Y2612761D01*
X-156559Y2614631D01*
X-162515Y2616437D01*
X-162522Y2616439D01*
X-247052Y2633254D01*
X-249497Y2633617D01*
X-256227Y2634614D01*
X-256236Y2634615D01*
X-256250Y2634617D01*
X-264706Y2635449D01*
X-273445Y2635878D01*
X-273947Y2635902D01*
X-804617Y2635902D01*
X-804630Y2635902D01*
X-815310Y2635294D01*
X-815330Y2635292D01*
X-825104Y2634177D01*
X-833847Y2632673D01*
X-835669Y2632359D01*
X-835682Y2632357D01*
X-835692Y2632354D01*
X-932539Y2609963D01*
X-932560Y2609957D01*
X-952704Y2602814D01*
X-952723Y2602806D01*
X-970299Y2594220D01*
X-970300Y2594220D01*
X-988340Y2582707D01*
X-1061612Y2523254D01*
X-1061624Y2523244D01*
X-1076589Y2507979D01*
X-1076595Y2507973D01*
X-1076599Y2507968D01*
X-1076601Y2507965D01*
X-1088620Y2492542D01*
X-1088628Y2492530D01*
X-1099781Y2474270D01*
X-1141663Y2384073D01*
X-1145612Y2374127D01*
X-1145613Y2374123D01*
X-1148724Y2364771D01*
X-1151522Y2354434D01*
X-1442557Y972009D01*
X-1442560Y971996D01*
X-1444140Y961678D01*
X-1444145Y961632D01*
X-1445069Y952077D01*
X-1445069Y952075D01*
X-1445497Y941580D01*
X-1444058Y844268D01*
X-1441428Y823498D01*
X-1436929Y804876D01*
X-1429790Y785208D01*
X-1429787Y785202D01*
X-1429784Y785194D01*
X-1388834Y702410D01*
X-1388832Y702407D01*
X-1388831Y702405D01*
X-1377523Y684782D01*
X-1366076Y670676D01*
X-1365456Y669911D01*
X-1350538Y655212D01*
X-1277969Y598089D01*
X-1260178Y587041D01*
X-1242882Y578802D01*
X-1233901Y575692D01*
X-1223107Y571953D01*
X-1223103Y571952D01*
X-1223097Y571950D01*
X-1128169Y550494D01*
X-1128163Y550493D01*
X-1128160Y550492D01*
X-1117827Y548753D01*
X-1108248Y547684D01*
X-1097778Y547102D01*
X-273937Y547102D01*
X-273932Y547103D01*
X-264693Y547557D01*
X-256216Y548392D01*
X-247053Y549751D01*
X-162526Y566565D01*
X-159491Y567486D01*
X-156565Y568373D01*
X-123470Y565116D01*
X-102372Y539410D01*
X-100500Y526795D01*
X-100500Y19991D01*
X-100500Y-19991D01*
X-85200Y-56929D01*
X-56929Y-85200D01*
X-19991Y-100500D01*
X-19990Y-100500D01*
X2608336Y-100500D01*
X2639060Y-113226D01*
X3809937Y-1284103D01*
X3892341Y-1339163D01*
X3989540Y-1358498D01*
X3989542Y-1358498D01*
X5416847Y-1358498D01*
X5422257Y-1358836D01*
X5476916Y-1365695D01*
X5487398Y-1368368D01*
X5510697Y-1377526D01*
X5538660Y-1388518D01*
X5543571Y-1390811D01*
X7335528Y-2368241D01*
X7341971Y-2372542D01*
X7354614Y-2382723D01*
X7370563Y-2411903D01*
X7370814Y-2416565D01*
X7370814Y-6021090D01*
X7370813Y-6021092D01*
X7370813Y-6032658D01*
X7370813Y-6045179D01*
X7370813Y-6045180D01*
X7370444Y-6050833D01*
X7358025Y-6145472D01*
X7355106Y-6156399D01*
X7319778Y-6241973D01*
X7314138Y-6251777D01*
X7257920Y-6325335D01*
X7249941Y-6333351D01*
X7176641Y-6389908D01*
X7166863Y-6395593D01*
X7081452Y-6431315D01*
X7070538Y-6434284D01*
X6976144Y-6447111D01*
X6970278Y-6447507D01*
X6430573Y-6447317D01*
X6430177Y-6447317D01*
X6430175Y-6447316D01*
X6426940Y-6447316D01*
X6424843Y-6447265D01*
X6148823Y-6433846D01*
X6144655Y-6433441D01*
X5872259Y-6393664D01*
X5868148Y-6392860D01*
X5600837Y-6327039D01*
X5596824Y-6325843D01*
X5337087Y-6234590D01*
X5333207Y-6233012D01*
X5083481Y-6117183D01*
X5079771Y-6115240D01*
X4841183Y-5975216D01*
X4839402Y-5974112D01*
X4819869Y-5961344D01*
X4819866Y-5961342D01*
X4819866Y-5961343D01*
X-599218Y-2419261D01*
X-599706Y-2418842D01*
X-610383Y-2411903D01*
X-626473Y-2401445D01*
X-627029Y-2401077D01*
X-1192749Y-2019434D01*
X-1193971Y-2018578D01*
X-1745876Y-1618007D01*
X-1747055Y-1617120D01*
X-2284935Y-1197787D01*
X-2286094Y-1196851D01*
X-2646395Y-895506D01*
X-2809224Y-759320D01*
X-2810348Y-758347D01*
X-2817532Y-751907D01*
X-3063836Y-531096D01*
X-3318139Y-303115D01*
X-3319233Y-302100D01*
X-3811590Y170781D01*
X-3812123Y171302D01*
X-3830646Y189714D01*
X-3830739Y189806D01*
X-3830786Y189853D01*
X-3830786Y189854D01*
X-5602849Y1951309D01*
X-5615668Y1981995D01*
X-5615668Y4283223D01*
X-5614833Y4291699D01*
X-5612142Y4305234D01*
X-5598019Y4376231D01*
X-5591534Y4391887D01*
X-5546072Y4459926D01*
X-5534092Y4471906D01*
X-5466053Y4517368D01*
X-5450397Y4523853D01*
X-5379400Y4537976D01*
X-5365865Y4540667D01*
X-5357389Y4541502D01*
X-258279Y4541502D01*
X-249803Y4540668D01*
G37*
%TD.AperFunction*%
%TD*%
%TA.AperFunction,Conductor*%
%TO.N,GND*%
G36*
X23692167Y44882588D02*
G01*
X22558752Y44882588D01*
X22558749Y44882590D01*
X22531820Y44882588D01*
X22507881Y44882588D01*
X22507570Y44882559D01*
X22435542Y44882552D01*
X22245925Y44849103D01*
X22245920Y44849102D01*
X22103666Y44797317D01*
X22064983Y44783235D01*
X22064981Y44783235D01*
X22064981Y44783234D01*
X22064978Y44783233D01*
X21898233Y44686958D01*
X21750725Y44563183D01*
X21750722Y44563181D01*
X21626952Y44415686D01*
X21530667Y44248933D01*
X21464795Y44067995D01*
X21464794Y44067992D01*
X21431340Y43878379D01*
X21431332Y43805592D01*
X21431332Y43802085D01*
X21431330Y43802079D01*
X21431330Y43782105D01*
X21431330Y43782096D01*
X21431326Y43749284D01*
X21431330Y43749255D01*
X21431330Y42641502D01*
X19551262Y42641502D01*
X19551262Y45279941D01*
X19551472Y45284205D01*
X19568145Y45453301D01*
X19569807Y45461651D01*
X19580205Y45495919D01*
X19618524Y45622208D01*
X19621774Y45630054D01*
X19700880Y45778039D01*
X19705604Y45785107D01*
X19812042Y45914803D01*
X19818058Y45920820D01*
X19947757Y46027269D01*
X19954825Y46031992D01*
X20102793Y46111097D01*
X20110650Y46114353D01*
X20271213Y46163079D01*
X20279552Y46164738D01*
X20448244Y46181379D01*
X20452509Y46181588D01*
X22328022Y46181588D01*
X22348012Y46181585D01*
X22348019Y46181588D01*
X22348027Y46181588D01*
X22368376Y46190017D01*
X22383596Y46196319D01*
X22384805Y46196770D01*
X22384950Y46196880D01*
X22384952Y46196880D01*
X22384953Y46196882D01*
X22384959Y46196887D01*
X22384965Y46196888D01*
X22384974Y46196898D01*
X22385503Y46197295D01*
X22386626Y46198550D01*
X22402106Y46214030D01*
X22763063Y46574883D01*
X23692167Y44882588D01*
G37*
%TD.AperFunction*%
%TD*%
%TA.AperFunction,Conductor*%
%TO.N,Net-(U1-SW)*%
G36*
X-4765471Y14240667D02*
G01*
X-4748319Y14237256D01*
X-4680942Y14223853D01*
X-4665283Y14217367D01*
X-4597248Y14171908D01*
X-4585262Y14159922D01*
X-4539805Y14091891D01*
X-4533317Y14076228D01*
X-4516503Y13991700D01*
X-4515668Y13983223D01*
X-4515668Y12693535D01*
X-4516340Y12685925D01*
X-4529898Y12609714D01*
X-4535147Y12595427D01*
X-4572196Y12531928D01*
X-4582050Y12520328D01*
X-4641731Y12471020D01*
X-4648026Y12466691D01*
X-5541779Y11961526D01*
X-5563159Y11955902D01*
X-5968132Y11955902D01*
X-6012436Y11947090D01*
X-6012436Y11947089D01*
X-6062682Y11913517D01*
X-6062683Y11913516D01*
X-6096255Y11863270D01*
X-6096256Y11863270D01*
X-6105068Y11818967D01*
X-6105068Y11668498D01*
X-6117794Y11637774D01*
X-6127138Y11630672D01*
X-6396605Y11478365D01*
X-6400743Y11476355D01*
X-6400731Y11476329D01*
X-6401370Y11476043D01*
X-6412467Y11470630D01*
X-6498908Y11421233D01*
X-6498909Y11421233D01*
X-6610249Y11357610D01*
X-6610427Y11357509D01*
X-6666793Y11325651D01*
X-6667280Y11325380D01*
X-6765998Y11271244D01*
X-6770538Y11269085D01*
X-6812662Y11251974D01*
X-6823440Y11249139D01*
X-6871474Y11242926D01*
X-6879709Y11241861D01*
X-6885280Y11241502D01*
X-6911024Y11241502D01*
X-6920209Y11242484D01*
X-6997547Y11259210D01*
X-7014275Y11266801D01*
X-7077791Y11313991D01*
X-7084577Y11320256D01*
X-7668557Y11987662D01*
X-7721063Y12033222D01*
X-7783948Y12062840D01*
X-7783951Y12062841D01*
X-9133037Y12484430D01*
X-9141438Y12488067D01*
X-9222089Y12533626D01*
X-9235725Y12545720D01*
X-9277177Y12602102D01*
X-9287800Y12616552D01*
X-9295273Y12633166D01*
X-9314703Y12723740D01*
X-9315668Y12732847D01*
X-9315668Y13983223D01*
X-9314833Y13991699D01*
X-9312142Y14005234D01*
X-9298019Y14076231D01*
X-9291534Y14091887D01*
X-9246072Y14159926D01*
X-9234092Y14171906D01*
X-9166053Y14217368D01*
X-9150397Y14223853D01*
X-9079400Y14237976D01*
X-9065865Y14240667D01*
X-9057389Y14241502D01*
X-4773947Y14241502D01*
X-4765471Y14240667D01*
G37*
%TD.AperFunction*%
%TD*%
%TA.AperFunction,Conductor*%
%TO.N,GND*%
G36*
X21431330Y29099972D02*
G01*
X21431330Y29059990D01*
X21446630Y29023052D01*
X21474901Y28994781D01*
X21511839Y28979481D01*
X24249008Y28979481D01*
X24253266Y28979273D01*
X24422374Y28962615D01*
X24430721Y28960954D01*
X24591278Y28912247D01*
X24599141Y28908990D01*
X24747104Y28829901D01*
X24754186Y28825169D01*
X24883877Y28718734D01*
X24889900Y28712712D01*
X24996334Y28583023D01*
X25001066Y28575941D01*
X25080157Y28427976D01*
X25083417Y28420106D01*
X25132121Y28259559D01*
X25133783Y28251206D01*
X25150437Y28082143D01*
X25150646Y28077877D01*
X25147973Y8679581D01*
X25147895Y8676990D01*
X25134593Y8454796D01*
X25133976Y8449653D01*
X25094552Y8231892D01*
X25093327Y8226858D01*
X25028264Y8015331D01*
X25026448Y8010479D01*
X24936677Y7808213D01*
X24934297Y7803611D01*
X24821084Y7613460D01*
X24818173Y7609174D01*
X24682383Y7432876D01*
X24680741Y7430871D01*
X16537662Y-1929134D01*
X16537657Y-1929141D01*
X16526363Y-1942123D01*
X16523817Y-1944810D01*
X16417481Y-2047782D01*
X16411730Y-2052469D01*
X16290975Y-2134792D01*
X16284510Y-2138433D01*
X16151505Y-2199014D01*
X16144515Y-2201501D01*
X16003151Y-2238567D01*
X15995840Y-2239829D01*
X15848288Y-2252472D01*
X15844579Y-2252631D01*
X7491305Y-2252631D01*
X7451323Y-2252631D01*
X7432854Y-2260281D01*
X7414384Y-2267931D01*
X7414208Y-2268108D01*
X7413977Y-2268203D01*
X7410828Y-2270308D01*
X7410408Y-2269680D01*
X7383482Y-2280829D01*
X7362686Y-2275524D01*
X6070356Y-1570618D01*
X5588763Y-1307931D01*
X5583525Y-1305282D01*
X5580388Y-1303818D01*
X5578598Y-1302982D01*
X5578590Y-1302978D01*
X5578576Y-1302972D01*
X5573207Y-1300667D01*
X5573202Y-1300665D01*
X5573195Y-1300662D01*
X5545232Y-1289670D01*
X5545232Y-1289669D01*
X5521924Y-1280508D01*
X5510743Y-1276900D01*
X5510710Y-1276891D01*
X5500246Y-1274223D01*
X5500245Y-1274222D01*
X5500242Y-1274222D01*
X5500234Y-1274220D01*
X5500208Y-1274215D01*
X5488666Y-1272029D01*
X5434022Y-1265172D01*
X5433013Y-1265077D01*
X5428143Y-1264620D01*
X5428137Y-1264619D01*
X5428120Y-1264618D01*
X5422745Y-1264282D01*
X5418024Y-1264134D01*
X5416847Y-1264098D01*
X5416844Y-1264098D01*
X4003117Y-1264098D01*
X3994640Y-1263263D01*
X3937649Y-1251926D01*
X3921986Y-1245438D01*
X3873673Y-1213156D01*
X3867089Y-1207753D01*
X2834010Y-174674D01*
X2821284Y-143950D01*
X2834010Y-113226D01*
X2864734Y-100500D01*
X15517235Y-100500D01*
X15517236Y-100500D01*
X15554174Y-85200D01*
X15582445Y-56929D01*
X15597745Y-19991D01*
X15597745Y1641505D01*
X17789846Y1641505D01*
X17789846Y1641500D01*
X17810100Y1487648D01*
X17810102Y1487642D01*
X17810103Y1487638D01*
X17844891Y1403651D01*
X17869491Y1344260D01*
X17869492Y1344259D01*
X17963967Y1221137D01*
X18087089Y1126662D01*
X18230468Y1067273D01*
X18230473Y1067273D01*
X18230477Y1067271D01*
X18384329Y1047016D01*
X18384332Y1047016D01*
X18384335Y1047016D01*
X18538186Y1067271D01*
X18538188Y1067273D01*
X18538196Y1067273D01*
X18681575Y1126662D01*
X18804697Y1221137D01*
X18899172Y1344259D01*
X18958561Y1487638D01*
X18958561Y1487646D01*
X18958563Y1487648D01*
X18978818Y1641500D01*
X18978818Y1641505D01*
X18958563Y1795357D01*
X18958561Y1795361D01*
X18958561Y1795366D01*
X18899172Y1938745D01*
X18804697Y2061867D01*
X18804695Y2061869D01*
X18681574Y2156343D01*
X18564055Y2205020D01*
X18540540Y2228535D01*
X18537232Y2245163D01*
X18537232Y2511234D01*
X19491197Y2511234D01*
X19610898Y2448409D01*
X19770049Y2409182D01*
X19770057Y2409181D01*
X19933969Y2409181D01*
X19933976Y2409182D01*
X20093127Y2448409D01*
X20212827Y2511234D01*
X19852013Y2872049D01*
X19491197Y2511234D01*
X18537232Y2511234D01*
X18537232Y2858652D01*
X18549958Y2889376D01*
X18580682Y2902102D01*
X18652990Y2902102D01*
X18689817Y2909428D01*
X18708232Y2913091D01*
X18770882Y2954952D01*
X18812743Y3017602D01*
X18823732Y3072846D01*
X18823732Y3084183D01*
X19172055Y3084183D01*
X19172055Y3084180D01*
X19191813Y2921456D01*
X19249940Y2768189D01*
X19249943Y2768183D01*
X19280137Y2724441D01*
X19639879Y3084182D01*
X20064145Y3084182D01*
X20423887Y2724441D01*
X20454083Y2768186D01*
X20454087Y2768193D01*
X20512212Y2921456D01*
X20531971Y3084180D01*
X20531971Y3084183D01*
X20512212Y3246907D01*
X20454085Y3400174D01*
X20454082Y3400179D01*
X20423887Y3443923D01*
X20064145Y3084182D01*
X19639879Y3084182D01*
X19280137Y3443923D01*
X19249940Y3400174D01*
X19191813Y3246907D01*
X19172055Y3084183D01*
X18823732Y3084183D01*
X18823732Y3310158D01*
X18823732Y3310161D01*
X18819624Y3330807D01*
X18812743Y3365402D01*
X18770882Y3428052D01*
X18708232Y3469913D01*
X18708231Y3469914D01*
X18652990Y3480902D01*
X18652988Y3480902D01*
X18115676Y3480902D01*
X18115674Y3480902D01*
X18060432Y3469914D01*
X18060432Y3469913D01*
X17997782Y3428053D01*
X17997781Y3428052D01*
X17955921Y3365402D01*
X17955920Y3365402D01*
X17944932Y3310161D01*
X17944932Y3310158D01*
X17944932Y3072846D01*
X17955921Y3017602D01*
X17997782Y2954952D01*
X18060432Y2913091D01*
X18115674Y2902102D01*
X18115676Y2902102D01*
X18187982Y2902102D01*
X18218706Y2889376D01*
X18231432Y2858652D01*
X18231432Y2245163D01*
X18218706Y2214439D01*
X18204609Y2205020D01*
X18087089Y2156343D01*
X17963968Y2061869D01*
X17963965Y2061866D01*
X17869491Y1938745D01*
X17810103Y1795365D01*
X17810100Y1795357D01*
X17789846Y1641505D01*
X15597745Y1641505D01*
X15597745Y5381264D01*
X15719932Y5381264D01*
X15719932Y4851744D01*
X15721547Y4837827D01*
X15722921Y4825980D01*
X15769454Y4720592D01*
X15769455Y4720591D01*
X15850919Y4639127D01*
X15956307Y4592594D01*
X15956306Y4592594D01*
X15956309Y4592593D01*
X15982072Y4589604D01*
X15982077Y4589604D01*
X16586587Y4589604D01*
X16586592Y4589604D01*
X16612355Y4592593D01*
X16717745Y4639127D01*
X16799209Y4720591D01*
X16845743Y4825981D01*
X16848732Y4851744D01*
X16848732Y5381264D01*
X16845743Y5407027D01*
X16799209Y5512417D01*
X16717745Y5593881D01*
X16717744Y5593882D01*
X16612355Y5640415D01*
X16612357Y5640415D01*
X16604994Y5641269D01*
X16586592Y5643404D01*
X15982072Y5643404D01*
X15963669Y5641269D01*
X15956307Y5640415D01*
X15850919Y5593882D01*
X15769454Y5512417D01*
X15722921Y5407029D01*
X15722921Y5407028D01*
X15722921Y5407027D01*
X15719932Y5381264D01*
X15597745Y5381264D01*
X15597745Y5707381D01*
X16808899Y5707381D01*
X16818753Y5667112D01*
X16818754Y5667110D01*
X16818755Y5667107D01*
X16865949Y5565897D01*
X16865951Y5565893D01*
X16872619Y5551594D01*
X16881858Y5538994D01*
X16881865Y5538982D01*
X16897132Y5518161D01*
X16922060Y5503034D01*
X16944544Y5489390D01*
X16958725Y5487208D01*
X16987156Y5469957D01*
X16995062Y5437655D01*
X16990918Y5424709D01*
X16989541Y5421979D01*
X16973949Y5365754D01*
X16975784Y5323702D01*
X16975785Y5323698D01*
X16984540Y5287920D01*
X17000216Y5254303D01*
X17026802Y5197288D01*
X17048580Y5167586D01*
X17079612Y5139151D01*
X17079615Y5139149D01*
X17079618Y5139146D01*
X17091290Y5130026D01*
X17147510Y5114435D01*
X17189565Y5116271D01*
X17225343Y5125026D01*
X17813799Y5399428D01*
X17820134Y5404073D01*
X18004289Y5404073D01*
X18004289Y5404070D01*
X18006126Y5362015D01*
X18014881Y5326240D01*
X18248156Y4825980D01*
X18264981Y4789899D01*
X18269052Y4771536D01*
X18269052Y4516340D01*
X18269052Y4463092D01*
X18289430Y4413896D01*
X18289431Y4413895D01*
X18462756Y4240570D01*
X18475482Y4209846D01*
X18475482Y4187242D01*
X18462756Y4156518D01*
X18456172Y4151115D01*
X18437319Y4138518D01*
X18437317Y4138516D01*
X18403745Y4088270D01*
X18403744Y4088270D01*
X18394932Y4043967D01*
X18394932Y3739038D01*
X18400807Y3709503D01*
X18403745Y3694734D01*
X18437318Y3644488D01*
X18487564Y3610915D01*
X18531868Y3602102D01*
X18531870Y3602102D01*
X18686796Y3602102D01*
X18716331Y3607978D01*
X18731100Y3610915D01*
X18781346Y3644488D01*
X18789793Y3657130D01*
X19491197Y3657130D01*
X19852012Y3296315D01*
X20212827Y3657130D01*
X20093127Y3719954D01*
X19933976Y3759181D01*
X19770049Y3759181D01*
X19610894Y3719953D01*
X19491197Y3657130D01*
X18789793Y3657130D01*
X18814919Y3694734D01*
X18817856Y3709503D01*
X18823732Y3739038D01*
X18823732Y4043967D01*
X18820438Y4060525D01*
X18814919Y4088270D01*
X18781346Y4138516D01*
X18781344Y4138518D01*
X18762492Y4151115D01*
X18744017Y4178766D01*
X18743182Y4187242D01*
X18743182Y4309909D01*
X18743182Y4309910D01*
X18722804Y4359106D01*
X18685152Y4396758D01*
X18549478Y4532432D01*
X18536752Y4563156D01*
X18536752Y4660657D01*
X18549478Y4691381D01*
X18561836Y4700035D01*
X18578454Y4707783D01*
X18608158Y4729563D01*
X18636597Y4760599D01*
X18645717Y4772271D01*
X18658981Y4820102D01*
X18679453Y4846306D01*
X18712461Y4850359D01*
X18723392Y4845634D01*
X18738594Y4836409D01*
X18793406Y4827973D01*
X18833675Y4837827D01*
X18949193Y4891693D01*
X18982627Y4916208D01*
X19011397Y4963618D01*
X19015057Y4987408D01*
X19032308Y5015838D01*
X19064609Y5023744D01*
X19080544Y5017944D01*
X19101118Y5005459D01*
X19155930Y4997023D01*
X19196199Y5006877D01*
X19311717Y5060743D01*
X19345151Y5085258D01*
X19373921Y5132668D01*
X19377581Y5156455D01*
X19394830Y5184883D01*
X19427132Y5192790D01*
X19443067Y5186990D01*
X19463641Y5174505D01*
X19518453Y5166069D01*
X19558722Y5175923D01*
X19674240Y5229789D01*
X19707674Y5254304D01*
X19736444Y5301714D01*
X19738626Y5315896D01*
X19755877Y5344327D01*
X19788178Y5352233D01*
X19801130Y5348087D01*
X19803859Y5346712D01*
X19803861Y5346710D01*
X19860081Y5331119D01*
X19902136Y5332955D01*
X19937914Y5341710D01*
X20028545Y5383972D01*
X20058249Y5405752D01*
X20086688Y5436788D01*
X20095808Y5448460D01*
X20111399Y5504680D01*
X20109563Y5546735D01*
X20100808Y5582513D01*
X20075928Y5635867D01*
X20072693Y5662703D01*
X20078422Y5691502D01*
X20059842Y5784911D01*
X20006930Y5864100D01*
X19962663Y5893678D01*
X19947426Y5911440D01*
X19826406Y6170969D01*
X19817994Y6182442D01*
X19804627Y6200674D01*
X19773593Y6229111D01*
X19744227Y6246931D01*
X19742103Y6248220D01*
X19742102Y6248221D01*
X19742101Y6248221D01*
X19742099Y6248222D01*
X19674718Y6272747D01*
X19674704Y6272751D01*
X19638306Y6278352D01*
X19638304Y6278352D01*
X19617276Y6277434D01*
X19596247Y6276515D01*
X19573066Y6270843D01*
X19560475Y6267761D01*
X19560473Y6267761D01*
X19560472Y6267760D01*
X19560469Y6267759D01*
X19515804Y6246932D01*
X19486099Y6225152D01*
X19457664Y6194120D01*
X19448540Y6182442D01*
X19435275Y6134611D01*
X19414800Y6108406D01*
X19381793Y6104353D01*
X19370864Y6109077D01*
X19355663Y6118301D01*
X19300853Y6126737D01*
X19300850Y6126737D01*
X19298746Y6126222D01*
X19260582Y6116883D01*
X19260580Y6116883D01*
X19260579Y6116882D01*
X19260576Y6116881D01*
X19145064Y6063018D01*
X19111630Y6038504D01*
X19082859Y5991092D01*
X19079200Y5967308D01*
X19061949Y5938877D01*
X19029647Y5930971D01*
X19013714Y5936771D01*
X18993145Y5949254D01*
X18993140Y5949255D01*
X18938330Y5957691D01*
X18938327Y5957691D01*
X18919026Y5952968D01*
X18898059Y5947837D01*
X18898057Y5947837D01*
X18898056Y5947836D01*
X18898053Y5947835D01*
X18782541Y5893972D01*
X18749107Y5869458D01*
X18720337Y5822047D01*
X18717822Y5805708D01*
X18711006Y5788180D01*
X18707132Y5782382D01*
X18679481Y5763906D01*
X18648463Y5769375D01*
X18630616Y5780205D01*
X18575806Y5788641D01*
X18575803Y5788641D01*
X18560561Y5784911D01*
X18535535Y5778787D01*
X18535533Y5778787D01*
X18535532Y5778786D01*
X18535529Y5778785D01*
X18420017Y5724922D01*
X18386583Y5700408D01*
X18357812Y5652996D01*
X18355631Y5638817D01*
X18338379Y5610386D01*
X18306078Y5602480D01*
X18293127Y5606626D01*
X18290396Y5608003D01*
X18234176Y5623594D01*
X18192124Y5621759D01*
X18179870Y5618761D01*
X18156342Y5613003D01*
X18156340Y5613002D01*
X18111671Y5592173D01*
X18081965Y5570390D01*
X18053531Y5539360D01*
X18034420Y5507867D01*
X18034419Y5507865D01*
X18009893Y5440485D01*
X18009890Y5440471D01*
X18004289Y5404073D01*
X17820134Y5404073D01*
X17843502Y5421206D01*
X17871941Y5452241D01*
X17891050Y5483731D01*
X17915579Y5551123D01*
X17921182Y5587530D01*
X17919345Y5629585D01*
X17910591Y5665359D01*
X17889761Y5710030D01*
X17867981Y5739735D01*
X17836949Y5768170D01*
X17835407Y5769375D01*
X17825272Y5777294D01*
X17784356Y5788641D01*
X17777440Y5790559D01*
X17751235Y5811033D01*
X17747182Y5844041D01*
X17751907Y5854971D01*
X17761130Y5870169D01*
X17761130Y5870170D01*
X17761131Y5870171D01*
X17769567Y5924983D01*
X17759713Y5965252D01*
X17705847Y6080770D01*
X17699423Y6089531D01*
X17681333Y6114204D01*
X17646266Y6135483D01*
X17633922Y6142974D01*
X17633921Y6142975D01*
X17633922Y6142975D01*
X17586419Y6150285D01*
X17579110Y6151409D01*
X17579109Y6151409D01*
X17579106Y6151409D01*
X17538846Y6141559D01*
X17538840Y6141556D01*
X16879541Y5834121D01*
X16879541Y5834120D01*
X16846103Y5809602D01*
X16846102Y5809601D01*
X16817336Y5762199D01*
X16817335Y5762194D01*
X16809307Y5710030D01*
X16808899Y5707381D01*
X15597745Y5707381D01*
X15597745Y6815845D01*
X16297760Y6815845D01*
X16299595Y6773793D01*
X16299596Y6773789D01*
X16308351Y6738011D01*
X16328150Y6695552D01*
X16350613Y6647379D01*
X16372391Y6617677D01*
X16403423Y6589242D01*
X16403426Y6589240D01*
X16403429Y6589237D01*
X16415101Y6580117D01*
X16462930Y6566853D01*
X16489135Y6546380D01*
X16493188Y6513373D01*
X16488464Y6502443D01*
X16479239Y6487242D01*
X16479239Y6487241D01*
X16471836Y6439138D01*
X16470803Y6432428D01*
X16480657Y6392159D01*
X16480658Y6392157D01*
X16480659Y6392154D01*
X16534522Y6276642D01*
X16559036Y6243208D01*
X16559038Y6243207D01*
X16606448Y6214437D01*
X16606447Y6214437D01*
X16613757Y6213313D01*
X16661260Y6206002D01*
X16695735Y6214437D01*
X16701523Y6215853D01*
X16701524Y6215854D01*
X16701530Y6215855D01*
X17339559Y6513373D01*
X17360828Y6523291D01*
X17360828Y6523292D01*
X17360832Y6523293D01*
X17394265Y6547808D01*
X17395165Y6549291D01*
X17423033Y6595213D01*
X17423033Y6595216D01*
X17423035Y6595218D01*
X17431471Y6650030D01*
X17421617Y6690299D01*
X17367751Y6805817D01*
X17360398Y6815845D01*
X17343237Y6839251D01*
X17308170Y6860530D01*
X17295826Y6868021D01*
X17295825Y6868022D01*
X17295826Y6868022D01*
X17283552Y6869910D01*
X17281645Y6870204D01*
X17253215Y6887454D01*
X17245309Y6919756D01*
X17249458Y6932712D01*
X17250828Y6935433D01*
X17250833Y6935438D01*
X17266424Y6991658D01*
X17264588Y7033713D01*
X17255833Y7069492D01*
X17235002Y7114163D01*
X17213222Y7143866D01*
X17213219Y7143869D01*
X17182189Y7172303D01*
X17150696Y7191414D01*
X17150694Y7191415D01*
X17083314Y7215941D01*
X17083300Y7215944D01*
X17046902Y7221545D01*
X17046900Y7221545D01*
X17025872Y7220627D01*
X17004843Y7219708D01*
X16989464Y7215944D01*
X16969070Y7210953D01*
X16969068Y7210952D01*
X16380612Y6936552D01*
X16350910Y6914774D01*
X16322475Y6883742D01*
X16313351Y6872064D01*
X16297760Y6815845D01*
X15597745Y6815845D01*
X15597745Y11106032D01*
X15721688Y11106032D01*
X15721752Y11104371D01*
X15722002Y11097866D01*
X15722761Y11089008D01*
X15725442Y11068904D01*
X15778927Y10667769D01*
X15780258Y10660168D01*
X15780899Y10657224D01*
X15781758Y10653277D01*
X15783669Y10645945D01*
X15783705Y10645810D01*
X15804635Y10577118D01*
X15804641Y10577100D01*
X15810310Y10562797D01*
X15810314Y10562788D01*
X15816560Y10550148D01*
X15824479Y10536954D01*
X15824482Y10536949D01*
X15824485Y10536945D01*
X15844477Y10509071D01*
X15866351Y10478572D01*
X15871090Y10472504D01*
X15875675Y10467101D01*
X15880096Y10462304D01*
X15880894Y10461438D01*
X16156281Y10186051D01*
X16405762Y9936570D01*
X16407465Y9932459D01*
X16411165Y9929986D01*
X16413637Y9917557D01*
X16418488Y9905846D01*
X16416784Y9901735D01*
X16417653Y9897370D01*
X16410612Y9886834D01*
X16405762Y9875122D01*
X16399178Y9869719D01*
X16386047Y9860945D01*
X16378541Y9856933D01*
X16377207Y9856380D01*
X16376136Y9855936D01*
X16376135Y9855936D01*
X16374296Y9854096D01*
X16367720Y9848699D01*
X16344898Y9833449D01*
X16332999Y9815641D01*
X16327272Y9807071D01*
X16322410Y9802208D01*
X16319778Y9795857D01*
X16317403Y9792301D01*
X16317401Y9792301D01*
X16302154Y9769480D01*
X16302153Y9769477D01*
X16296797Y9742561D01*
X16296798Y9742560D01*
X16295963Y9738361D01*
X16293332Y9732007D01*
X16293332Y9725130D01*
X16293029Y9723603D01*
X16292498Y9720935D01*
X16292497Y9720934D01*
X16292497Y9720933D01*
X16289209Y9704400D01*
X16287143Y9694015D01*
X16293332Y9662901D01*
X16293332Y9656023D01*
X16295963Y9649670D01*
X16296797Y9645476D01*
X16302071Y9618967D01*
X16302153Y9618554D01*
X16319778Y9592176D01*
X16322410Y9585822D01*
X16327272Y9580960D01*
X16329651Y9577400D01*
X16329651Y9577398D01*
X16344894Y9554585D01*
X16344898Y9554581D01*
X16364472Y9541502D01*
X16367713Y9539337D01*
X16374299Y9533933D01*
X16564522Y9343710D01*
X16568996Y9338462D01*
X16571987Y9334329D01*
X16572410Y9333309D01*
X16573552Y9332167D01*
X16575581Y9329364D01*
X16575960Y9327771D01*
X16579530Y9322739D01*
X16661571Y9152370D01*
X16663435Y9119168D01*
X16659570Y9110979D01*
X16630789Y9063549D01*
X16630789Y9063548D01*
X16626663Y9036737D01*
X16616906Y8973348D01*
X16633123Y8907078D01*
X16759659Y8635723D01*
X16792836Y8564574D01*
X16795910Y8557983D01*
X16836251Y8502962D01*
X16914272Y8455618D01*
X16983025Y8445036D01*
X17011455Y8427784D01*
X17015563Y8420943D01*
X17069025Y8309921D01*
X17070888Y8276718D01*
X17048728Y8251922D01*
X17018266Y8249200D01*
X17008584Y8251885D01*
X17008583Y8251885D01*
X17006572Y8251798D01*
X16966531Y8250050D01*
X16963058Y8249200D01*
X16930750Y8241294D01*
X16930748Y8241293D01*
X16840117Y8199032D01*
X16810415Y8177254D01*
X16781980Y8146222D01*
X16772856Y8134544D01*
X16757265Y8078325D01*
X16759100Y8036273D01*
X16759101Y8036269D01*
X16767856Y8000491D01*
X16767857Y8000489D01*
X16768565Y7998476D01*
X16767864Y7998230D01*
X16770734Y7974420D01*
X16755489Y7897773D01*
X16754242Y7891502D01*
X16772822Y7798093D01*
X16805701Y7748886D01*
X16824200Y7721199D01*
X16825734Y7718904D01*
X16904923Y7665992D01*
X16904925Y7665991D01*
X16908879Y7664353D01*
X16908438Y7663289D01*
X16931820Y7647670D01*
X16935075Y7641889D01*
X16997562Y7507885D01*
X17028542Y7441448D01*
X17042259Y7412033D01*
X17064036Y7382331D01*
X17092674Y7356090D01*
X17095071Y7353893D01*
X17126561Y7334784D01*
X17193953Y7310255D01*
X17230360Y7304652D01*
X17272415Y7306489D01*
X17308189Y7315243D01*
X17352860Y7336073D01*
X17382565Y7357854D01*
X17411004Y7388890D01*
X17420124Y7400562D01*
X17433388Y7448395D01*
X17453862Y7474599D01*
X17486869Y7478652D01*
X17497799Y7473928D01*
X17513001Y7464703D01*
X17567813Y7456267D01*
X17608082Y7466121D01*
X17723600Y7519987D01*
X17757034Y7544502D01*
X17785804Y7591912D01*
X17794239Y7646724D01*
X17789525Y7665992D01*
X17784388Y7686988D01*
X17784386Y7686991D01*
X17784386Y7686994D01*
X17698612Y7870935D01*
X17695377Y7897770D01*
X17703102Y7936601D01*
X17684522Y8030010D01*
X17631610Y8109199D01*
X17631608Y8109201D01*
X17577651Y8145254D01*
X17562412Y8163018D01*
X17476948Y8346297D01*
X17471366Y8353908D01*
X17464729Y8362960D01*
X17460625Y8369793D01*
X17371175Y8555549D01*
X17370669Y8564574D01*
X17848832Y8564574D01*
X17848832Y8564571D01*
X17858682Y8524311D01*
X17858684Y8524306D01*
X17858685Y8524304D01*
X17903693Y8427784D01*
X17944456Y8340367D01*
X17947692Y8313528D01*
X17940446Y8277095D01*
X17939969Y8274697D01*
X17958549Y8181288D01*
X17993902Y8128377D01*
X18006715Y8109201D01*
X18011461Y8102099D01*
X18065419Y8066046D01*
X18080657Y8048283D01*
X18166123Y7865000D01*
X18190636Y7831571D01*
X18190640Y7831567D01*
X18238042Y7802801D01*
X18238046Y7802801D01*
X18238048Y7802799D01*
X18292860Y7794363D01*
X18333129Y7804217D01*
X18448647Y7858083D01*
X18482081Y7882598D01*
X18510851Y7930008D01*
X18513033Y7944188D01*
X18530281Y7972618D01*
X18562583Y7980525D01*
X18575539Y7976378D01*
X18578262Y7975006D01*
X18578268Y7975001D01*
X18634488Y7959410D01*
X18676543Y7961246D01*
X18712322Y7970001D01*
X18756993Y7990832D01*
X18786696Y8012612D01*
X18815135Y8043648D01*
X18834243Y8075136D01*
X18851668Y8123009D01*
X18858770Y8142520D01*
X18858773Y8142534D01*
X18860224Y8151965D01*
X18864375Y8178934D01*
X18862538Y8220989D01*
X18853783Y8256764D01*
X18579382Y8845220D01*
X18579381Y8845222D01*
X18557603Y8874924D01*
X18526571Y8903359D01*
X18526566Y8903363D01*
X18514894Y8912483D01*
X18458674Y8928074D01*
X18416622Y8926239D01*
X18404368Y8923241D01*
X18380841Y8917483D01*
X18380839Y8917482D01*
X18290208Y8875221D01*
X18260506Y8853443D01*
X18232071Y8822411D01*
X18222947Y8810733D01*
X18209683Y8762904D01*
X18189209Y8736699D01*
X18156201Y8732646D01*
X18145272Y8737370D01*
X18130070Y8746595D01*
X18075260Y8755031D01*
X18075257Y8755031D01*
X18055956Y8750308D01*
X18034989Y8745177D01*
X18034987Y8745177D01*
X18034986Y8745176D01*
X18034983Y8745175D01*
X17919471Y8691312D01*
X17886037Y8666798D01*
X17857266Y8619386D01*
X17848832Y8564574D01*
X17370669Y8564574D01*
X17369313Y8588751D01*
X17384630Y8609439D01*
X17420479Y8635722D01*
X17467823Y8713743D01*
X17481706Y8803942D01*
X17465489Y8870212D01*
X17322187Y9177522D01*
X17321158Y9182695D01*
X17316578Y9189549D01*
X17302702Y9219307D01*
X17262361Y9274328D01*
X17262360Y9274329D01*
X17226259Y9296235D01*
X17184340Y9321672D01*
X17139240Y9328614D01*
X17094142Y9335555D01*
X17094139Y9335555D01*
X17041743Y9322734D01*
X17008875Y9327793D01*
X16992269Y9346088D01*
X16984020Y9363219D01*
X16916189Y9504079D01*
X16896254Y9552208D01*
X16890002Y9558460D01*
X16889935Y9558600D01*
X16889248Y9559214D01*
X16870245Y9578217D01*
X16857519Y9608941D01*
X16870245Y9639665D01*
X16891316Y9651305D01*
X16983601Y9672331D01*
X17003521Y9679288D01*
X17020920Y9687650D01*
X17038801Y9698861D01*
X17115540Y9759913D01*
X17123426Y9766943D01*
X17130304Y9773802D01*
X17137360Y9781673D01*
X17176326Y9830380D01*
X17182608Y9839232D01*
X17187901Y9847680D01*
X17193120Y9857182D01*
X17214356Y9901735D01*
X17236396Y9947973D01*
X17236396Y9947975D01*
X17236401Y9947984D01*
X17243415Y9968473D01*
X17247638Y9987822D01*
X17249798Y10009371D01*
X17248285Y10109948D01*
X17247500Y10120764D01*
X17246208Y10130648D01*
X17244185Y10141307D01*
X17086484Y10772114D01*
X17085469Y10775848D01*
X17084469Y10779249D01*
X17084465Y10779261D01*
X17084457Y10779289D01*
X17083315Y10782900D01*
X17075857Y10804916D01*
X17071744Y10817060D01*
X17068984Y10824235D01*
X17066174Y10830735D01*
X17065515Y10832102D01*
X17062835Y10837667D01*
X17060397Y10842241D01*
X17045853Y10869526D01*
X17045834Y10869560D01*
X17043979Y10872876D01*
X17042178Y10875945D01*
X17042171Y10875957D01*
X17040162Y10879226D01*
X16848380Y11177553D01*
X16800151Y11252576D01*
X16800148Y11252578D01*
X16709747Y11393204D01*
X16709744Y11393208D01*
X16704278Y11400846D01*
X16704264Y11400866D01*
X16698884Y11407642D01*
X16692667Y11414717D01*
X16692659Y11414725D01*
X16692654Y11414731D01*
X16680122Y11427632D01*
X16676691Y11431164D01*
X16676690Y11431166D01*
X16631691Y11477496D01*
X16631678Y11477509D01*
X16617324Y11489605D01*
X16617322Y11489606D01*
X16617312Y11489615D01*
X16614385Y11491620D01*
X16603111Y11499343D01*
X16586610Y11508373D01*
X16586596Y11508379D01*
X16510101Y11540813D01*
X16492171Y11546385D01*
X16492162Y11546388D01*
X16492154Y11546390D01*
X16492149Y11546391D01*
X16492142Y11546393D01*
X16475287Y11549837D01*
X16456583Y11551748D01*
X16369061Y11551929D01*
X16369060Y11551929D01*
X16369050Y11551929D01*
X16360437Y11551518D01*
X16359653Y11551480D01*
X16351050Y11550638D01*
X16351033Y11550636D01*
X16344291Y11549634D01*
X16341731Y11549253D01*
X16341706Y11549249D01*
X16341706Y11549248D01*
X16003277Y11481563D01*
X15994624Y11479404D01*
X15986824Y11477063D01*
X15986820Y11477062D01*
X15978448Y11474113D01*
X15901817Y11443004D01*
X15886077Y11434814D01*
X15872426Y11425988D01*
X15858505Y11415003D01*
X15801713Y11360795D01*
X15790077Y11347381D01*
X15790069Y11347372D01*
X15780638Y11334172D01*
X15780632Y11334164D01*
X15771717Y11318818D01*
X15771714Y11318813D01*
X15738832Y11247525D01*
X15738827Y11247512D01*
X15732945Y11230784D01*
X15732945Y11230783D01*
X15729017Y11215004D01*
X15729015Y11214991D01*
X15726369Y11197464D01*
X15721765Y11114881D01*
X15721688Y11106032D01*
X15597745Y11106032D01*
X15597745Y14768762D01*
X16594932Y14768762D01*
X16594932Y14239242D01*
X16596390Y14226677D01*
X16597921Y14213478D01*
X16644454Y14108090D01*
X16671606Y14080938D01*
X16684332Y14050214D01*
X16684332Y12832790D01*
X16671606Y12802066D01*
X16644454Y12774915D01*
X16597921Y12669527D01*
X16597516Y12666037D01*
X16594932Y12643762D01*
X16594932Y12114242D01*
X16596758Y12098505D01*
X16597921Y12088478D01*
X16644454Y11983090D01*
X16644455Y11983089D01*
X16725919Y11901625D01*
X16831307Y11855092D01*
X16831306Y11855092D01*
X16831309Y11855091D01*
X16857072Y11852102D01*
X16857077Y11852102D01*
X17711587Y11852102D01*
X17711592Y11852102D01*
X17737355Y11855091D01*
X17842745Y11901625D01*
X17924209Y11983089D01*
X17970743Y12088479D01*
X17973732Y12114242D01*
X17973732Y12533241D01*
X18589932Y12533241D01*
X18589932Y12103996D01*
X18590091Y12098501D01*
X18590384Y12093469D01*
X18590818Y12088478D01*
X18590857Y12088039D01*
X18595768Y12045859D01*
X18596774Y12037218D01*
X18598665Y12026454D01*
X18600972Y12016674D01*
X18604096Y12006194D01*
X18621538Y11958071D01*
X18623541Y11953007D01*
X18625531Y11948372D01*
X18627837Y11943404D01*
X18769507Y11660065D01*
X18771493Y11655441D01*
X18783317Y11622820D01*
X18785625Y11613043D01*
X18789640Y11578567D01*
X18789932Y11573541D01*
X18789932Y10968468D01*
X18790523Y10957916D01*
X18791611Y10948250D01*
X18791611Y10948244D01*
X18793371Y10937873D01*
X18793380Y10937832D01*
X18815158Y10842241D01*
X18815165Y10842217D01*
X18822116Y10822314D01*
X18822118Y10822309D01*
X18830472Y10804927D01*
X18830475Y10804921D01*
X18830477Y10804917D01*
X18830478Y10804916D01*
X18841689Y10787035D01*
X18841697Y10787025D01*
X18841700Y10787021D01*
X18901461Y10711904D01*
X18902344Y10710794D01*
X18902740Y10710297D01*
X18909772Y10702408D01*
X18909777Y10702403D01*
X18916632Y10695529D01*
X18924502Y10688475D01*
X18924504Y10688473D01*
X19002932Y10625731D01*
X19009019Y10621271D01*
X19009339Y10621036D01*
X19015420Y10616961D01*
X19015427Y10616957D01*
X19022220Y10612808D01*
X19050828Y10596954D01*
X19087124Y10576839D01*
X19101637Y10570328D01*
X19115404Y10565499D01*
X19115414Y10565497D01*
X19115419Y10565495D01*
X19130791Y10561520D01*
X19130797Y10561519D01*
X19130801Y10561518D01*
X19203958Y10549059D01*
X19211851Y10548055D01*
X19219146Y10547438D01*
X19221987Y10547318D01*
X19227093Y10547102D01*
X19227102Y10547102D01*
X20274853Y10547102D01*
X20274858Y10547103D01*
X20284097Y10547557D01*
X20289215Y10548062D01*
X20292555Y10548390D01*
X20292558Y10548391D01*
X20292574Y10548392D01*
X20301738Y10549751D01*
X20386266Y10566566D01*
X20386269Y10566568D01*
X20386274Y10566568D01*
X20395898Y10569488D01*
X20403971Y10571937D01*
X20419633Y10578424D01*
X20435956Y10587148D01*
X20507612Y10635027D01*
X20515049Y10640543D01*
X20521632Y10645945D01*
X20528500Y10652169D01*
X20573665Y10697334D01*
X20579887Y10704199D01*
X20585291Y10710784D01*
X20590809Y10718225D01*
X20596895Y10727333D01*
X20624545Y10745810D01*
X20657161Y10739323D01*
X20675638Y10711673D01*
X20676473Y10703195D01*
X20676473Y10675223D01*
X20663747Y10644499D01*
X20464530Y10445283D01*
X20433806Y10432557D01*
X20425329Y10433392D01*
X20413072Y10435830D01*
X20413070Y10435830D01*
X19998870Y10435830D01*
X19998868Y10435830D01*
X19933414Y10422811D01*
X19933410Y10422809D01*
X19859190Y10373217D01*
X19859183Y10373210D01*
X19809591Y10298990D01*
X19809589Y10298986D01*
X19796570Y10233533D01*
X19796570Y9932516D01*
X19783844Y9901792D01*
X19100836Y9218783D01*
X19063185Y9181133D01*
X19063184Y9181132D01*
X19063184Y9181131D01*
X19042806Y9131935D01*
X19042806Y8657598D01*
X19041824Y8654920D01*
X19042806Y8631075D01*
X19042806Y8607204D01*
X19043360Y8604417D01*
X19044013Y8601720D01*
X19053685Y8580843D01*
X19054403Y8579205D01*
X19063184Y8558005D01*
X19064836Y8555533D01*
X19068133Y8549658D01*
X19187029Y8293029D01*
X19188398Y8259802D01*
X19165968Y8235385D01*
X19054862Y8183575D01*
X19025160Y8161798D01*
X18996723Y8130764D01*
X18977613Y8099272D01*
X18977612Y8099270D01*
X18953087Y8031889D01*
X18953083Y8031875D01*
X18947906Y7998230D01*
X18947482Y7995474D01*
X18949319Y7953419D01*
X18958073Y7917645D01*
X18958074Y7917643D01*
X18958075Y7917640D01*
X18978902Y7872975D01*
X19000682Y7843270D01*
X19031714Y7814835D01*
X19031717Y7814833D01*
X19031720Y7814830D01*
X19043392Y7805710D01*
X19091222Y7792446D01*
X19117428Y7771972D01*
X19121481Y7738965D01*
X19116757Y7728036D01*
X19107534Y7712838D01*
X19107533Y7712834D01*
X19099686Y7661846D01*
X19099097Y7658021D01*
X19108951Y7617752D01*
X19108952Y7617750D01*
X19108953Y7617747D01*
X19162816Y7502235D01*
X19187330Y7468801D01*
X19194082Y7464704D01*
X19234742Y7440030D01*
X19234741Y7440030D01*
X19238033Y7439524D01*
X19258527Y7436370D01*
X19286956Y7419121D01*
X19294863Y7386819D01*
X19289064Y7370885D01*
X19276579Y7350312D01*
X19276579Y7350311D01*
X19268816Y7299869D01*
X19268143Y7295498D01*
X19277997Y7255229D01*
X19277998Y7255227D01*
X19277999Y7255224D01*
X19331862Y7139712D01*
X19356376Y7106278D01*
X19356378Y7106277D01*
X19403788Y7077507D01*
X19427576Y7073847D01*
X19456007Y7056596D01*
X19463913Y7024295D01*
X19458114Y7008361D01*
X19445629Y6987788D01*
X19445629Y6987787D01*
X19437744Y6936552D01*
X19437193Y6932974D01*
X19447047Y6892705D01*
X19447048Y6892703D01*
X19447049Y6892700D01*
X19500912Y6777188D01*
X19525426Y6743754D01*
X19525428Y6743753D01*
X19572838Y6714983D01*
X19587016Y6712802D01*
X19615447Y6695552D01*
X19623354Y6663251D01*
X19619209Y6650300D01*
X19617831Y6647568D01*
X19602240Y6591347D01*
X19604075Y6549295D01*
X19604076Y6549291D01*
X19612831Y6513512D01*
X19612896Y6513373D01*
X19633661Y6468842D01*
X19633662Y6468841D01*
X19655442Y6439138D01*
X19655443Y6439137D01*
X19655444Y6439136D01*
X19686474Y6410702D01*
X19686476Y6410701D01*
X19686478Y6410699D01*
X19717966Y6391591D01*
X19717969Y6391590D01*
X19785349Y6367064D01*
X19785355Y6367063D01*
X19785357Y6367062D01*
X19821764Y6361459D01*
X19863819Y6363296D01*
X19899594Y6372051D01*
X20456920Y6631937D01*
X20490143Y6633387D01*
X20514661Y6610920D01*
X20518732Y6592557D01*
X20518732Y4511093D01*
X20506006Y4480369D01*
X20497533Y4474487D01*
X20497788Y4474091D01*
X20382833Y4400214D01*
X20382832Y4400213D01*
X20295381Y4299290D01*
X20295381Y4299289D01*
X20239906Y4177815D01*
X20220901Y4045633D01*
X20239906Y3913451D01*
X20295381Y3791977D01*
X20382832Y3691053D01*
X20382833Y3691052D01*
X20495170Y3618857D01*
X20495174Y3618855D01*
X20623305Y3581233D01*
X20623306Y3581233D01*
X20756849Y3581233D01*
X20857938Y3610915D01*
X20884980Y3618855D01*
X20997322Y3691053D01*
X21084773Y3791977D01*
X21140248Y3913451D01*
X21159253Y4045633D01*
X21140248Y4177815D01*
X21084773Y4299289D01*
X20997322Y4400213D01*
X20997320Y4400214D01*
X20997320Y4400215D01*
X20884984Y4472409D01*
X20884982Y4472410D01*
X20884980Y4472411D01*
X20881138Y4473539D01*
X20855246Y4494406D01*
X20849932Y4515228D01*
X20849932Y5354771D01*
X20862658Y5385495D01*
X20893382Y5398221D01*
X20924106Y5385495D01*
X21044730Y5264871D01*
X21057456Y5234147D01*
X21053530Y5216098D01*
X21034162Y5173689D01*
X21034161Y5173685D01*
X21034161Y5173684D01*
X21015156Y5041502D01*
X21034161Y4909320D01*
X21089636Y4787846D01*
X21177087Y4686922D01*
X21177088Y4686921D01*
X21289425Y4614726D01*
X21289429Y4614724D01*
X21417560Y4577102D01*
X21417561Y4577102D01*
X21551104Y4577102D01*
X21666783Y4611068D01*
X21679235Y4614724D01*
X21791577Y4686922D01*
X21879028Y4787846D01*
X21934503Y4909320D01*
X21953508Y5041502D01*
X21934503Y5173684D01*
X21879028Y5295158D01*
X21791577Y5396082D01*
X21791575Y5396083D01*
X21791575Y5396084D01*
X21679238Y5468279D01*
X21679234Y5468281D01*
X21551104Y5505902D01*
X21551103Y5505902D01*
X21417561Y5505902D01*
X21417559Y5505902D01*
X21302073Y5471994D01*
X21269008Y5475549D01*
X21259108Y5482960D01*
X21138929Y5603139D01*
X21126203Y5633863D01*
X21126203Y5910159D01*
X21125698Y5912699D01*
X21124864Y5921172D01*
X21124864Y6917327D01*
X21125711Y6919560D01*
X21124864Y6947639D01*
X21124864Y6975763D01*
X21124862Y6975768D01*
X21124570Y6977234D01*
X21124543Y6977473D01*
X21124282Y6978684D01*
X21124214Y6978898D01*
X21123878Y6980356D01*
X21123877Y6980359D01*
X21112589Y7005443D01*
X21112118Y7006533D01*
X21101586Y7031960D01*
X21101583Y7031963D01*
X21100748Y7033213D01*
X21097254Y7039519D01*
X20579762Y8189497D01*
X20576767Y8203412D01*
X20567404Y8216960D01*
X20560644Y8231982D01*
X20550276Y8241742D01*
X20542184Y8253452D01*
X20528348Y8262386D01*
X20525462Y8265103D01*
X20525462Y8265104D01*
X20516355Y8273678D01*
X20507344Y8277095D01*
X20499183Y8281219D01*
X20242488Y8446973D01*
X19845329Y8703428D01*
X19826423Y8730785D01*
X19826285Y8731453D01*
X19825108Y8737370D01*
X19816862Y8778829D01*
X19763950Y8858018D01*
X19747656Y8868905D01*
X19737672Y8875577D01*
X19684761Y8910930D01*
X19591352Y8929510D01*
X19497943Y8910930D01*
X19418754Y8858019D01*
X19418750Y8858015D01*
X19390083Y8815110D01*
X19362433Y8796634D01*
X19329817Y8803122D01*
X19311341Y8830772D01*
X19310506Y8839249D01*
X19310506Y9031872D01*
X19323231Y9062595D01*
X19965036Y9704401D01*
X19995759Y9717126D01*
X19997713Y9717030D01*
X19998870Y9717030D01*
X20413072Y9717030D01*
X20456707Y9725710D01*
X20478526Y9730050D01*
X20495195Y9741188D01*
X20552749Y9779644D01*
X20552749Y9779645D01*
X20552753Y9779647D01*
X20554104Y9781668D01*
X20602348Y9853871D01*
X20602350Y9853875D01*
X20603013Y9857205D01*
X20607125Y9877881D01*
X20615370Y9919328D01*
X20615370Y10199539D01*
X20628096Y10230263D01*
X20771327Y10373494D01*
X20923795Y10525962D01*
X20930440Y10542004D01*
X20944173Y10575158D01*
X20944173Y12007937D01*
X20923795Y12057133D01*
X20886143Y12094785D01*
X20225954Y12754974D01*
X20176758Y12775352D01*
X20176756Y12775352D01*
X19938104Y12775352D01*
X19913965Y12782674D01*
X19887440Y12800397D01*
X19858232Y12819913D01*
X19858231Y12819914D01*
X19784333Y12834613D01*
X19784331Y12834613D01*
X19710432Y12819914D01*
X19710432Y12819913D01*
X19647780Y12778051D01*
X19645193Y12775464D01*
X19641082Y12773763D01*
X19638612Y12770064D01*
X19626180Y12767592D01*
X19614468Y12762741D01*
X19610358Y12764444D01*
X19605996Y12763576D01*
X19595457Y12770618D01*
X19583745Y12775470D01*
X19578345Y12782051D01*
X19554750Y12817362D01*
X19548262Y12849978D01*
X19554750Y12865642D01*
X19561078Y12875112D01*
X19566476Y12881691D01*
X19589320Y12904533D01*
X19603320Y12938333D01*
X19609842Y12948093D01*
X19612132Y12959607D01*
X19626132Y12993405D01*
X19626132Y13029990D01*
X19628422Y13041502D01*
X19626132Y13053015D01*
X19626132Y13089599D01*
X19624619Y13093251D01*
X19613768Y13119449D01*
X19612131Y13123400D01*
X19609842Y13134911D01*
X19603320Y13144672D01*
X19601683Y13148625D01*
X19601683Y13148627D01*
X19589320Y13178471D01*
X19563452Y13204339D01*
X19556930Y13214100D01*
X19547168Y13220623D01*
X19521301Y13246490D01*
X19521299Y13246492D01*
X19491454Y13258854D01*
X19487499Y13260493D01*
X19477741Y13267012D01*
X19466230Y13269303D01*
X19462272Y13270942D01*
X19432429Y13283302D01*
X19395845Y13283302D01*
X19384332Y13285592D01*
X19372819Y13283302D01*
X19000123Y13283302D01*
X18991648Y13284137D01*
X18984332Y13285592D01*
X18977015Y13284137D01*
X18968541Y13283302D01*
X18936235Y13283302D01*
X18927412Y13279648D01*
X18906386Y13270941D01*
X18906387Y13270940D01*
X18902433Y13269303D01*
X18890923Y13267012D01*
X18881163Y13260493D01*
X18877209Y13258854D01*
X18877208Y13258854D01*
X18847365Y13246492D01*
X18847363Y13246490D01*
X18821495Y13220623D01*
X18811734Y13214100D01*
X18805211Y13204339D01*
X18802184Y13201312D01*
X18779342Y13178469D01*
X18766979Y13148626D01*
X18766980Y13148625D01*
X18765343Y13144672D01*
X18758822Y13134911D01*
X18756531Y13123401D01*
X18754895Y13119450D01*
X18754895Y13119449D01*
X18742532Y13089599D01*
X18742532Y13053015D01*
X18740242Y13041502D01*
X18742532Y13029990D01*
X18742532Y12993405D01*
X18754893Y12963560D01*
X18756531Y12959605D01*
X18758822Y12948093D01*
X18765341Y12938336D01*
X18766979Y12934382D01*
X18766980Y12934380D01*
X18779342Y12904535D01*
X18781721Y12900975D01*
X18780370Y12900073D01*
X18790669Y12875210D01*
X18777943Y12844486D01*
X18771359Y12839083D01*
X18713462Y12800398D01*
X18713460Y12800397D01*
X18699156Y12788657D01*
X18687177Y12776678D01*
X18675437Y12762374D01*
X18675430Y12762363D01*
X18629981Y12694344D01*
X18629971Y12694328D01*
X18621250Y12678010D01*
X18614766Y12662355D01*
X18614763Y12662349D01*
X18609397Y12644657D01*
X18609394Y12644645D01*
X18602487Y12609918D01*
X18592585Y12560141D01*
X18592579Y12560105D01*
X18591222Y12550963D01*
X18591222Y12550958D01*
X18590387Y12542486D01*
X18589932Y12533241D01*
X17973732Y12533241D01*
X17973732Y12643762D01*
X17970743Y12669525D01*
X17924209Y12774915D01*
X17897058Y12802066D01*
X17884332Y12832790D01*
X17884332Y14050214D01*
X17897058Y14080938D01*
X17910466Y14094346D01*
X17924209Y14108089D01*
X17970743Y14213479D01*
X17973732Y14239242D01*
X17973732Y14768762D01*
X17970743Y14794525D01*
X17924209Y14899915D01*
X17842745Y14981379D01*
X17842744Y14981380D01*
X17737355Y15027913D01*
X17737357Y15027913D01*
X17729994Y15028767D01*
X17711592Y15030902D01*
X16857072Y15030902D01*
X16838669Y15028767D01*
X16831307Y15027913D01*
X16725919Y14981380D01*
X16644454Y14899915D01*
X16597921Y14794527D01*
X16597921Y14794525D01*
X16594932Y14768762D01*
X15597745Y14768762D01*
X15597745Y15380110D01*
X15597751Y15380179D01*
X15597750Y15384547D01*
X15597751Y15384549D01*
X15597745Y15407652D01*
X15597745Y15424502D01*
X15597740Y15424515D01*
X15597740Y15424531D01*
X15589257Y15444993D01*
X15582445Y15461440D01*
X15582442Y15461443D01*
X15582439Y15461451D01*
X15582434Y15461459D01*
X15582430Y15461465D01*
X15574414Y15469476D01*
X15561678Y15500195D01*
X15574395Y15530923D01*
X15588497Y15540349D01*
X15612352Y15550230D01*
X16197804Y16135682D01*
X16218182Y16184878D01*
X16218182Y16228652D01*
X16230908Y16259376D01*
X16261632Y16272102D01*
X16291434Y16272102D01*
X16335069Y16280782D01*
X16356888Y16285122D01*
X16431115Y16334719D01*
X16431806Y16335752D01*
X16480710Y16408943D01*
X16480712Y16408947D01*
X16482114Y16415992D01*
X16487840Y16444779D01*
X16493732Y16474400D01*
X16493732Y16788605D01*
X16480712Y16854058D01*
X16480710Y16854062D01*
X16431118Y16928282D01*
X16431111Y16928289D01*
X16356888Y16977883D01*
X16352954Y16979512D01*
X16346843Y16985623D01*
X16338858Y16988930D01*
X16335550Y16996916D01*
X16329439Y17003027D01*
X16326132Y17019654D01*
X16326132Y17025711D01*
X16326967Y17034189D01*
X16328422Y17041503D01*
X16328422Y17041504D01*
X16326967Y17048819D01*
X16326132Y17057295D01*
X16326132Y17089599D01*
X16313768Y17119449D01*
X16312131Y17123400D01*
X16309842Y17134911D01*
X16303320Y17144672D01*
X16301683Y17148625D01*
X16301683Y17148627D01*
X16289320Y17178471D01*
X16266477Y17201314D01*
X16263753Y17204305D01*
X16262319Y17206034D01*
X16256930Y17214100D01*
X16254019Y17216046D01*
X16249978Y17220919D01*
X16246797Y17231216D01*
X16240812Y17240172D01*
X16242072Y17246514D01*
X16240164Y17252694D01*
X16245196Y17262224D01*
X16247297Y17272788D01*
X16252672Y17276381D01*
X16255693Y17282100D01*
X16265989Y17285281D01*
X16274946Y17291266D01*
X16283426Y17292102D01*
X16291434Y17292102D01*
X16335069Y17300782D01*
X16356888Y17305122D01*
X16401644Y17335027D01*
X16431111Y17354716D01*
X16431111Y17354717D01*
X16431115Y17354719D01*
X16431554Y17355375D01*
X16480710Y17428943D01*
X16480712Y17428947D01*
X16493732Y17494400D01*
X16493732Y17808605D01*
X16480712Y17874058D01*
X16480710Y17874062D01*
X16431118Y17948282D01*
X16431111Y17948289D01*
X16356891Y17997881D01*
X16356887Y17997883D01*
X16291434Y18010902D01*
X16291432Y18010902D01*
X15877232Y18010902D01*
X15877230Y18010902D01*
X15811776Y17997883D01*
X15811772Y17997881D01*
X15737552Y17948289D01*
X15737549Y17948286D01*
X15726235Y17931354D01*
X15712109Y17910212D01*
X15684460Y17891737D01*
X15675983Y17890902D01*
X15492681Y17890902D01*
X15461957Y17903628D01*
X15456557Y17910208D01*
X15431115Y17948285D01*
X15431114Y17948286D01*
X15431111Y17948289D01*
X15356891Y17997881D01*
X15356887Y17997883D01*
X15291434Y18010902D01*
X15291432Y18010902D01*
X14877232Y18010902D01*
X14877230Y18010902D01*
X14811776Y17997883D01*
X14811772Y17997881D01*
X14737552Y17948289D01*
X14737545Y17948282D01*
X14687953Y17874062D01*
X14687951Y17874058D01*
X14674932Y17808605D01*
X14674932Y17494400D01*
X14687951Y17428947D01*
X14687953Y17428943D01*
X14737545Y17354723D01*
X14737552Y17354716D01*
X14811772Y17305124D01*
X14811776Y17305122D01*
X14877230Y17292102D01*
X14885237Y17292102D01*
X14915961Y17279376D01*
X14928687Y17248652D01*
X14918685Y17220919D01*
X14914642Y17216044D01*
X14911734Y17214100D01*
X14906346Y17206038D01*
X14904907Y17204302D01*
X14904431Y17204052D01*
X14902184Y17201312D01*
X14879342Y17178469D01*
X14866979Y17148626D01*
X14866980Y17148625D01*
X14865343Y17144672D01*
X14858822Y17134911D01*
X14856531Y17123401D01*
X14854895Y17119450D01*
X14854895Y17119449D01*
X14842532Y17089599D01*
X14842532Y17053016D01*
X14840242Y17041502D01*
X14842532Y17029990D01*
X14842532Y17019654D01*
X14829806Y16988930D01*
X14815710Y16979512D01*
X14811775Y16977883D01*
X14737552Y16928289D01*
X14737545Y16928282D01*
X14687953Y16854062D01*
X14687951Y16854058D01*
X14674932Y16788605D01*
X14674932Y16474400D01*
X14680854Y16444628D01*
X14674366Y16412012D01*
X14668963Y16405427D01*
X14251616Y15988078D01*
X14220892Y15975352D01*
X13268732Y15975352D01*
X13238008Y15988078D01*
X13225282Y16018802D01*
X13235895Y16047256D01*
X13236473Y16047923D01*
X13330627Y16156584D01*
X13345153Y16179187D01*
X13404881Y16309972D01*
X13412451Y16335752D01*
X13432913Y16478067D01*
X13432913Y16504936D01*
X13429173Y16530943D01*
X13428732Y16537125D01*
X13428732Y16745880D01*
X13429174Y16752064D01*
X13429707Y16755771D01*
X13432913Y16778068D01*
X13432913Y16804937D01*
X13412451Y16947252D01*
X13408666Y16960142D01*
X13404882Y16973030D01*
X13345159Y17103804D01*
X13345151Y17103820D01*
X13330626Y17126422D01*
X13254653Y17214100D01*
X13236473Y17235081D01*
X13227262Y17243062D01*
X13216169Y17252675D01*
X13216166Y17252677D01*
X13095212Y17330409D01*
X13095207Y17330411D01*
X13095203Y17330414D01*
X13070771Y17341571D01*
X13070763Y17341574D01*
X12932817Y17382078D01*
X12932813Y17382079D01*
X12906223Y17385902D01*
X12906221Y17385902D01*
X12334332Y17385902D01*
X12334329Y17385902D01*
X12305162Y17381283D01*
X12305159Y17381282D01*
X12257960Y17346990D01*
X12257960Y17346989D01*
X12239932Y17291505D01*
X12239932Y16837126D01*
X12239490Y16830942D01*
X12235751Y16804940D01*
X12235751Y16778066D01*
X12239490Y16752064D01*
X12239932Y16745880D01*
X12239932Y16537125D01*
X12239490Y16530941D01*
X12235751Y16504939D01*
X12235751Y16478065D01*
X12239490Y16452063D01*
X12239932Y16445879D01*
X12239932Y16018802D01*
X12227206Y15988078D01*
X12196482Y15975352D01*
X8868772Y15975352D01*
X8838048Y15988078D01*
X8155908Y16670218D01*
X8143182Y16700942D01*
X8143182Y17243062D01*
X8155908Y17273786D01*
X8377049Y17494926D01*
X8407773Y17507652D01*
X8478207Y17507652D01*
X8508931Y17494926D01*
X8514334Y17488341D01*
X8541302Y17447980D01*
X8541307Y17447975D01*
X8571756Y17427629D01*
X8590231Y17399978D01*
X8583743Y17367362D01*
X8571756Y17355375D01*
X8541307Y17335030D01*
X8541304Y17335027D01*
X8504970Y17280649D01*
X8504969Y17280648D01*
X8495432Y17232699D01*
X8495432Y17050306D01*
X8504969Y17002357D01*
X8504970Y17002356D01*
X8541304Y16947978D01*
X8541305Y16947977D01*
X8541306Y16947976D01*
X8571755Y16927630D01*
X8590231Y16899980D01*
X8583744Y16867364D01*
X8571757Y16855376D01*
X8541305Y16835028D01*
X8541304Y16835027D01*
X8504970Y16780649D01*
X8504969Y16780648D01*
X8495432Y16732699D01*
X8495432Y16550306D01*
X8504969Y16502357D01*
X8504970Y16502356D01*
X8541304Y16447978D01*
X8541307Y16447975D01*
X8557596Y16437091D01*
X8595129Y16412012D01*
X8595685Y16411641D01*
X8595686Y16411640D01*
X8643636Y16402102D01*
X8643638Y16402102D01*
X9001028Y16402102D01*
X9035439Y16408947D01*
X9048978Y16411640D01*
X9087068Y16437091D01*
X9098574Y16444779D01*
X9122714Y16452102D01*
X9411582Y16452102D01*
X9442306Y16439376D01*
X9447709Y16432792D01*
X9498942Y16356116D01*
X9498947Y16356111D01*
X9574821Y16305414D01*
X9574825Y16305412D01*
X9641739Y16292102D01*
X10026924Y16292103D01*
X10026927Y16292103D01*
X10060381Y16298758D01*
X10093839Y16305412D01*
X10093842Y16305415D01*
X10093844Y16305415D01*
X10169716Y16356111D01*
X10169716Y16356112D01*
X10169720Y16356114D01*
X10179430Y16370645D01*
X10220420Y16431992D01*
X10220422Y16431996D01*
X10233732Y16498909D01*
X10233731Y16824094D01*
X10233731Y16824098D01*
X10224329Y16871365D01*
X10220422Y16891009D01*
X10220420Y16891012D01*
X10220419Y16891015D01*
X10169723Y16966887D01*
X10169716Y16966894D01*
X10093842Y17017591D01*
X10093838Y17017593D01*
X10026927Y17030902D01*
X9641736Y17030902D01*
X9574827Y17017593D01*
X9574819Y17017590D01*
X9498947Y16966894D01*
X9498940Y16966887D01*
X9448243Y16891013D01*
X9448241Y16891008D01*
X9443243Y16865876D01*
X9424768Y16838225D01*
X9400628Y16830902D01*
X9122714Y16830902D01*
X9098574Y16838225D01*
X9072907Y16855376D01*
X9054432Y16883027D01*
X9060920Y16915643D01*
X9072904Y16927628D01*
X9103358Y16947976D01*
X9139694Y17002356D01*
X9143135Y17019654D01*
X9149232Y17050306D01*
X9149232Y17232699D01*
X9139694Y17280648D01*
X9139693Y17280649D01*
X9138723Y17282100D01*
X9121526Y17307838D01*
X9103359Y17335027D01*
X9103354Y17335032D01*
X9072908Y17355375D01*
X9054432Y17383025D01*
X9060920Y17415641D01*
X9072908Y17427629D01*
X9103354Y17447973D01*
X9103354Y17447974D01*
X9103358Y17447976D01*
X9139694Y17502356D01*
X9142873Y17518340D01*
X9149232Y17550306D01*
X9149232Y17732699D01*
X9139694Y17780648D01*
X9139693Y17780649D01*
X9103359Y17835027D01*
X9103356Y17835030D01*
X9048978Y17871364D01*
X9048977Y17871365D01*
X9001028Y17880902D01*
X9001026Y17880902D01*
X8643638Y17880902D01*
X8643636Y17880902D01*
X8595686Y17871365D01*
X8595685Y17871364D01*
X8541307Y17835030D01*
X8541302Y17835025D01*
X8514334Y17794663D01*
X8486684Y17776187D01*
X8478207Y17775352D01*
X8307708Y17775352D01*
X8272920Y17760943D01*
X8264479Y17757447D01*
X8258510Y17754974D01*
X7933512Y17429974D01*
X7895861Y17392324D01*
X7895860Y17392323D01*
X7895860Y17392322D01*
X7877083Y17346989D01*
X7875482Y17343125D01*
X7875482Y16779910D01*
X7862756Y16749186D01*
X7832032Y16736460D01*
X7801308Y16749186D01*
X7795905Y16755771D01*
X7756933Y16814097D01*
X7756929Y16814101D01*
X7720824Y16838225D01*
X7677741Y16867012D01*
X7584332Y16885592D01*
X7490923Y16867012D01*
X7459346Y16845913D01*
X7426730Y16839426D01*
X7411068Y16845914D01*
X7372981Y16871363D01*
X7372977Y16871365D01*
X7325028Y16880902D01*
X7325026Y16880902D01*
X6967638Y16880902D01*
X6967636Y16880902D01*
X6919686Y16871365D01*
X6919685Y16871364D01*
X6865307Y16835030D01*
X6865304Y16835027D01*
X6828970Y16780649D01*
X6828969Y16780648D01*
X6819432Y16732699D01*
X6819432Y16550306D01*
X6828969Y16502357D01*
X6828970Y16502356D01*
X6865304Y16447978D01*
X6865307Y16447975D01*
X6881596Y16437091D01*
X6919129Y16412012D01*
X6919685Y16411641D01*
X6919686Y16411640D01*
X6967636Y16402102D01*
X6967638Y16402102D01*
X7325028Y16402102D01*
X7359439Y16408947D01*
X7372978Y16411640D01*
X7411068Y16437092D01*
X7443682Y16443579D01*
X7453055Y16440578D01*
X7456349Y16439094D01*
X7490923Y16415992D01*
X7520818Y16410046D01*
X7525334Y16408011D01*
X7533590Y16399234D01*
X7543612Y16392537D01*
X7544610Y16387516D01*
X7548118Y16383787D01*
X7547748Y16371742D01*
X7550100Y16359921D01*
X7547221Y16354535D01*
X7547099Y16350548D01*
X7543059Y16346750D01*
X7538209Y16337673D01*
X7188616Y15988078D01*
X7157892Y15975352D01*
X-89044Y15975352D01*
X-142292Y15975352D01*
X-190399Y15955425D01*
X-191490Y15954973D01*
X-529139Y15617324D01*
X-549518Y15568125D01*
X-549518Y13347943D01*
X-562244Y13317219D01*
X-790606Y13088857D01*
X-821330Y13076131D01*
X-829807Y13076966D01*
X-897441Y13090419D01*
X-990850Y13071839D01*
X-1070039Y13018928D01*
X-1070040Y13018927D01*
X-1120557Y12943321D01*
X-1122951Y12939738D01*
X-1141531Y12846329D01*
X-1122951Y12752920D01*
X-1102912Y12722929D01*
X-1077727Y12685236D01*
X-1070039Y12673731D01*
X-990850Y12620819D01*
X-897441Y12602239D01*
X-874680Y12606767D01*
X-842066Y12600280D01*
X-823589Y12572630D01*
X-823589Y12555676D01*
X-826212Y12542486D01*
X-826408Y12541502D01*
X-807828Y12448093D01*
X-779622Y12405880D01*
X-759273Y12375424D01*
X-754916Y12368904D01*
X-675727Y12315992D01*
X-582318Y12297412D01*
X-488909Y12315992D01*
X-409720Y12368904D01*
X-356808Y12448093D01*
X-338228Y12541502D01*
X-356808Y12634911D01*
X-362719Y12643758D01*
X-367213Y12650485D01*
X-373700Y12683101D01*
X-361811Y12705345D01*
X-174673Y12892482D01*
X-143950Y12905207D01*
X-113226Y12892481D01*
X-100500Y12861757D01*
X-100500Y4660163D01*
X-113226Y4629439D01*
X-143950Y4616713D01*
X-152427Y4617548D01*
X-231384Y4633254D01*
X-233829Y4633617D01*
X-240559Y4634614D01*
X-240568Y4634615D01*
X-240582Y4634617D01*
X-249038Y4635449D01*
X-257777Y4635878D01*
X-258279Y4635902D01*
X-258280Y4635902D01*
X-772218Y4635902D01*
X-802942Y4648628D01*
X-815668Y4679352D01*
X-815668Y6544287D01*
X-807272Y6569688D01*
X-807363Y6569749D01*
X-807141Y6570082D01*
X-807107Y6570184D01*
X-806760Y6570652D01*
X-761320Y6638658D01*
X-761317Y6638664D01*
X-761314Y6638668D01*
X-752591Y6654988D01*
X-746103Y6670651D01*
X-740731Y6688360D01*
X-723917Y6772888D01*
X-722558Y6782051D01*
X-721723Y6790528D01*
X-721268Y6799782D01*
X-721268Y8050158D01*
X-721268Y8050169D01*
X-721795Y8060122D01*
X-722762Y8069233D01*
X-724333Y8079058D01*
X-724339Y8079093D01*
X-743760Y8169626D01*
X-749968Y8188553D01*
X-757443Y8205173D01*
X-757443Y8205174D01*
X-767481Y8222373D01*
X-789206Y8251922D01*
X-819556Y8293204D01*
X-832968Y8307905D01*
X-846606Y8320001D01*
X-862828Y8331579D01*
X-943433Y8377111D01*
X-943472Y8377132D01*
X-952419Y8381580D01*
X-960781Y8385199D01*
X-960785Y8385201D01*
X-960793Y8385204D01*
X-966173Y8387203D01*
X-970146Y8388679D01*
X-970150Y8388680D01*
X-2064889Y8730785D01*
X-2094954Y8740181D01*
X-2120482Y8761491D01*
X-2123465Y8794612D01*
X-2102154Y8820141D01*
X-2081993Y8825102D01*
X-1635891Y8825102D01*
X-1611752Y8817780D01*
X-1609077Y8815992D01*
X-1515668Y8797412D01*
X-1422259Y8815992D01*
X-1343070Y8868904D01*
X-1290158Y8948093D01*
X-1271578Y9041502D01*
X-1290158Y9134911D01*
X-1343070Y9214100D01*
X-1343076Y9214104D01*
X-1390100Y9245524D01*
X-1408576Y9273175D01*
X-1402089Y9305791D01*
X-1374438Y9324267D01*
X-1365961Y9325102D01*
X-1246068Y9325102D01*
X-1215344Y9312376D01*
X-1209941Y9305792D01*
X-1162453Y9234721D01*
X-1162448Y9234716D01*
X-1088228Y9185124D01*
X-1088224Y9185122D01*
X-1022770Y9172102D01*
X-1022768Y9172102D01*
X-608566Y9172102D01*
X-563166Y9181133D01*
X-543112Y9185122D01*
X-543109Y9185124D01*
X-468889Y9234716D01*
X-468889Y9234717D01*
X-468885Y9234719D01*
X-460619Y9247089D01*
X-419290Y9308943D01*
X-419288Y9308947D01*
X-417886Y9315992D01*
X-413995Y9335555D01*
X-406268Y9374400D01*
X-406268Y9688605D01*
X-419288Y9754058D01*
X-419290Y9754062D01*
X-468882Y9828282D01*
X-468889Y9828289D01*
X-543109Y9877881D01*
X-543113Y9877883D01*
X-608566Y9890902D01*
X-608568Y9890902D01*
X-1022768Y9890902D01*
X-1022770Y9890902D01*
X-1088224Y9877883D01*
X-1088228Y9877881D01*
X-1162448Y9828289D01*
X-1162455Y9828282D01*
X-1196577Y9777213D01*
X-1224227Y9758737D01*
X-1232704Y9757902D01*
X-2083713Y9757902D01*
X-2087911Y9757067D01*
X-2088041Y9757721D01*
X-2097185Y9755902D01*
X-2268132Y9755902D01*
X-2312436Y9747090D01*
X-2312436Y9747089D01*
X-2362682Y9713517D01*
X-2362683Y9713516D01*
X-2396255Y9663270D01*
X-2396256Y9663270D01*
X-2405068Y9618967D01*
X-2405068Y9618964D01*
X-2405068Y9464040D01*
X-2396255Y9419734D01*
X-2377681Y9391936D01*
X-2362829Y9369707D01*
X-2362682Y9369488D01*
X-2312436Y9335915D01*
X-2303397Y9334117D01*
X-2275746Y9315641D01*
X-2269259Y9283025D01*
X-2287735Y9255374D01*
X-2303397Y9248887D01*
X-2312436Y9247090D01*
X-2312436Y9247089D01*
X-2362682Y9213517D01*
X-2362683Y9213516D01*
X-2396255Y9163270D01*
X-2396256Y9163270D01*
X-2405068Y9118967D01*
X-2405068Y8988381D01*
X-2417794Y8957657D01*
X-2448518Y8944931D01*
X-2479242Y8957657D01*
X-2481217Y8959769D01*
X-2798440Y9322309D01*
X-2975717Y9524912D01*
X-2982725Y9532109D01*
X-2982737Y9532121D01*
X-2989497Y9538362D01*
X-2989521Y9538383D01*
X-2997222Y9544769D01*
X-2997240Y9544783D01*
X-3060766Y9591981D01*
X-3073310Y9599372D01*
X-3078053Y9602167D01*
X-3085294Y9605453D01*
X-3111277Y9622814D01*
X-3139455Y9628419D01*
X-3143594Y9630182D01*
X-3152325Y9639089D01*
X-3162695Y9646018D01*
X-3163606Y9650597D01*
X-3166873Y9653930D01*
X-3166749Y9666402D01*
X-3169182Y9678635D01*
X-3166559Y9685489D01*
X-3166542Y9687184D01*
X-3165531Y9688176D01*
X-3163956Y9692291D01*
X-3154390Y9708445D01*
X-3147151Y9723603D01*
X-3141776Y9738039D01*
X-3137338Y9754244D01*
X-3123451Y9831344D01*
X-3122330Y9839679D01*
X-3121642Y9847381D01*
X-3121268Y9855780D01*
X-3121268Y11733223D01*
X-3121723Y11742477D01*
X-3122558Y11750954D01*
X-3123917Y11760117D01*
X-3140731Y11844645D01*
X-3146103Y11862354D01*
X-3152591Y11878017D01*
X-3161314Y11894337D01*
X-3161317Y11894342D01*
X-3161320Y11894348D01*
X-3206764Y11962360D01*
X-3206765Y11962361D01*
X-3216261Y11973931D01*
X-3218511Y11976673D01*
X-3230497Y11988659D01*
X-3230510Y11988670D01*
X-3244793Y12000392D01*
X-3244812Y12000406D01*
X-3312820Y12045847D01*
X-3312835Y12045856D01*
X-3312836Y12045857D01*
X-3312838Y12045858D01*
X-3323151Y12051371D01*
X-3329163Y12054585D01*
X-3344812Y12061067D01*
X-3344826Y12061072D01*
X-3362515Y12066437D01*
X-3362524Y12066439D01*
X-3429818Y12079826D01*
X-3429863Y12079835D01*
X-3429901Y12079842D01*
X-3429906Y12079843D01*
X-3447058Y12083254D01*
X-3447083Y12083259D01*
X-3456201Y12084610D01*
X-3456227Y12084614D01*
X-3464685Y12085447D01*
X-3464684Y12085447D01*
X-3473930Y12085902D01*
X-3473947Y12085902D01*
X-4457389Y12085902D01*
X-4457407Y12085902D01*
X-4466641Y12085448D01*
X-4475115Y12084613D01*
X-4484261Y12083257D01*
X-4484281Y12083254D01*
X-4494189Y12081284D01*
X-4497808Y12080564D01*
X-4497818Y12080562D01*
X-4497823Y12080562D01*
X-4568824Y12066438D01*
X-4586523Y12061068D01*
X-4602176Y12054584D01*
X-4618494Y12045863D01*
X-4618510Y12045853D01*
X-4686529Y12000404D01*
X-4686540Y12000397D01*
X-4700844Y11988657D01*
X-4712823Y11976678D01*
X-4724563Y11962374D01*
X-4724570Y11962363D01*
X-4770019Y11894344D01*
X-4770029Y11894328D01*
X-4778750Y11878010D01*
X-4785234Y11862357D01*
X-4790604Y11844658D01*
X-4804719Y11773696D01*
X-4804726Y11773666D01*
X-4804728Y11773652D01*
X-4804730Y11773642D01*
X-4806726Y11763602D01*
X-4807421Y11760107D01*
X-4807423Y11760095D01*
X-4808779Y11750949D01*
X-4809614Y11742475D01*
X-4810068Y11733241D01*
X-4810068Y10629850D01*
X-4822794Y10599126D01*
X-4853518Y10586400D01*
X-4877657Y10593722D01*
X-4896781Y10606500D01*
X-4922259Y10623524D01*
X-4980139Y10635037D01*
X-5015667Y10642104D01*
X-5015671Y10642104D01*
X-5031107Y10639034D01*
X-5063723Y10645522D01*
X-5070306Y10650925D01*
X-5279739Y10860358D01*
X-5301955Y10869560D01*
X-5331268Y10881702D01*
X-5331269Y10881702D01*
X-5374172Y10881702D01*
X-5404896Y10894428D01*
X-5410300Y10901013D01*
X-5418655Y10913517D01*
X-5439173Y10927226D01*
X-5468900Y10947089D01*
X-5477941Y10948888D01*
X-5505590Y10967362D01*
X-5512078Y10999979D01*
X-5493603Y11027629D01*
X-5490192Y11029689D01*
X-5484404Y11032832D01*
X-5468900Y11035915D01*
X-5426367Y11064335D01*
X-5424627Y11065279D01*
X-5409922Y11066823D01*
X-5395422Y11069707D01*
X-5392799Y11068621D01*
X-5391553Y11068751D01*
X-5389919Y11067428D01*
X-5379759Y11063219D01*
X-5309081Y11015994D01*
X-5309080Y11015994D01*
X-5309077Y11015992D01*
X-5215668Y10997412D01*
X-5122259Y11015992D01*
X-5043070Y11068904D01*
X-4990158Y11148093D01*
X-4971578Y11241502D01*
X-4990158Y11334911D01*
X-5043070Y11414100D01*
X-5044420Y11415002D01*
X-5074071Y11434814D01*
X-5122259Y11467012D01*
X-5215668Y11485592D01*
X-5215669Y11485592D01*
X-5217982Y11485132D01*
X-5250598Y11491620D01*
X-5269073Y11519271D01*
X-5262585Y11551887D01*
X-5250599Y11563874D01*
X-5243070Y11568904D01*
X-5190158Y11648093D01*
X-5171578Y11741502D01*
X-5190158Y11834911D01*
X-5243070Y11914100D01*
X-5271799Y11933296D01*
X-5290274Y11960946D01*
X-5283787Y11993562D01*
X-5269041Y12007248D01*
X-4601576Y12384510D01*
X-4594536Y12388908D01*
X-4588241Y12393237D01*
X-4581605Y12398245D01*
X-4521924Y12447553D01*
X-4510105Y12459212D01*
X-4500251Y12470812D01*
X-4490660Y12484355D01*
X-4453611Y12547854D01*
X-4446538Y12562872D01*
X-4441289Y12577159D01*
X-4436957Y12593180D01*
X-4423399Y12669391D01*
X-4422306Y12677621D01*
X-4421634Y12685231D01*
X-4421268Y12693535D01*
X-4421268Y13983223D01*
X-4421723Y13992477D01*
X-4422558Y14000954D01*
X-4423917Y14010117D01*
X-4440731Y14094645D01*
X-4446103Y14112354D01*
X-4452591Y14128017D01*
X-4461314Y14144337D01*
X-4461317Y14144342D01*
X-4461320Y14144348D01*
X-4506761Y14212355D01*
X-4507117Y14212835D01*
X-4507152Y14212940D01*
X-4507363Y14213256D01*
X-4507276Y14213315D01*
X-4515668Y14238719D01*
X-4515668Y16162030D01*
X-4502942Y16192754D01*
X-4496360Y16198156D01*
X-4444803Y16232605D01*
X-4430498Y16244345D01*
X-4418511Y16256332D01*
X-4406771Y16270637D01*
X-4406769Y16270641D01*
X-4406765Y16270645D01*
X-4406764Y16270646D01*
X-4361320Y16338658D01*
X-4361317Y16338664D01*
X-4361314Y16338668D01*
X-4352591Y16354988D01*
X-4346103Y16370651D01*
X-4340731Y16388360D01*
X-4323917Y16472888D01*
X-4322558Y16482051D01*
X-4321723Y16490528D01*
X-4321268Y16499782D01*
X-4321268Y17732699D01*
X6819432Y17732699D01*
X6819432Y17550306D01*
X6828969Y17502357D01*
X6828970Y17502356D01*
X6865304Y17447978D01*
X6865306Y17447976D01*
X6913698Y17415641D01*
X6919685Y17411641D01*
X6919686Y17411640D01*
X6967636Y17402102D01*
X6967638Y17402102D01*
X7325028Y17402102D01*
X7356994Y17408461D01*
X7372978Y17411640D01*
X7411068Y17437092D01*
X7443682Y17443579D01*
X7459345Y17437091D01*
X7490919Y17415994D01*
X7490920Y17415994D01*
X7490923Y17415992D01*
X7584332Y17397412D01*
X7677741Y17415992D01*
X7756930Y17468904D01*
X7809842Y17548093D01*
X7828422Y17641502D01*
X7809842Y17734911D01*
X7756930Y17814100D01*
X7677741Y17867012D01*
X7584332Y17885592D01*
X7490923Y17867012D01*
X7459346Y17845913D01*
X7426730Y17839426D01*
X7411068Y17845914D01*
X7372981Y17871363D01*
X7372977Y17871365D01*
X7325028Y17880902D01*
X7325026Y17880902D01*
X6967638Y17880902D01*
X6967636Y17880902D01*
X6919686Y17871365D01*
X6919685Y17871364D01*
X6865307Y17835030D01*
X6865304Y17835027D01*
X6828970Y17780649D01*
X6828969Y17780648D01*
X6819432Y17732699D01*
X-4321268Y17732699D01*
X-4321268Y18466502D01*
X18570242Y18466502D01*
X18588822Y18373093D01*
X18595993Y18362361D01*
X18641444Y18294337D01*
X18641734Y18293904D01*
X18720923Y18240992D01*
X18810809Y18223113D01*
X18838459Y18204638D01*
X18844948Y18172027D01*
X18842583Y18160132D01*
X18842577Y18160095D01*
X18841221Y18150949D01*
X18840386Y18142475D01*
X18839932Y18133241D01*
X18839932Y16084445D01*
X18840007Y16080692D01*
X18840146Y16077211D01*
X18840373Y16073447D01*
X18841094Y16064504D01*
X18842430Y16047923D01*
X18843237Y16037921D01*
X18844153Y16030363D01*
X18845266Y16023512D01*
X18846785Y16016069D01*
X18855278Y15981556D01*
X18856258Y15977888D01*
X18857231Y15974525D01*
X18858362Y15970888D01*
X18879986Y15906020D01*
X18880957Y15902664D01*
X18886731Y15879203D01*
X18887849Y15872312D01*
X18889791Y15848232D01*
X18889932Y15844739D01*
X18889932Y15275625D01*
X18888894Y15266184D01*
X18874873Y15203196D01*
X18866865Y15186099D01*
X18827449Y15135001D01*
X18820861Y15128160D01*
X18718955Y15043238D01*
X18711397Y15036204D01*
X18704835Y15029391D01*
X18704796Y15029348D01*
X18698083Y15021567D01*
X18698072Y15021554D01*
X18639471Y14945584D01*
X18639464Y14945574D01*
X18628725Y14927960D01*
X18620724Y14910878D01*
X18614065Y14891340D01*
X18614063Y14891333D01*
X18594689Y14804285D01*
X18593225Y14797708D01*
X18591536Y14787517D01*
X18591534Y14787506D01*
X18591534Y14787501D01*
X18590498Y14778085D01*
X18590498Y14778077D01*
X18589932Y14767759D01*
X18589932Y14767749D01*
X18589932Y14349765D01*
X18590387Y14340520D01*
X18591222Y14332048D01*
X18591222Y14332043D01*
X18592579Y14322901D01*
X18592584Y14322873D01*
X18609335Y14238659D01*
X18609395Y14238360D01*
X18614766Y14220651D01*
X18621252Y14204992D01*
X18628169Y14192054D01*
X18629978Y14188669D01*
X18629987Y14188654D01*
X18675427Y14120647D01*
X18675441Y14120628D01*
X18685731Y14108090D01*
X18687174Y14106332D01*
X18699160Y14094346D01*
X18713465Y14082607D01*
X18738855Y14065642D01*
X18770516Y14044486D01*
X18770517Y14044485D01*
X18770807Y14044291D01*
X18771332Y14043941D01*
X18771332Y14043940D01*
X18771361Y14043921D01*
X18775597Y14037581D01*
X18777100Y14039083D01*
X18777103Y14039080D01*
X18775599Y14037577D01*
X18780364Y14030446D01*
X18789829Y14016305D01*
X18789825Y14016287D01*
X18789836Y14016270D01*
X18786678Y14000399D01*
X18783366Y13983683D01*
X18783347Y13983661D01*
X18783346Y13983654D01*
X18783337Y13983649D01*
X18780451Y13980128D01*
X18779342Y13978470D01*
X18766979Y13948626D01*
X18766980Y13948625D01*
X18765343Y13944672D01*
X18758822Y13934911D01*
X18756531Y13923401D01*
X18754895Y13919450D01*
X18752182Y13912898D01*
X18742532Y13889599D01*
X18742532Y13853015D01*
X18740242Y13841502D01*
X18742532Y13829990D01*
X18742532Y13793405D01*
X18754892Y13763562D01*
X18756531Y13759604D01*
X18758822Y13748093D01*
X18765341Y13738335D01*
X18766980Y13734380D01*
X18779342Y13704535D01*
X18779344Y13704533D01*
X18805211Y13678666D01*
X18811734Y13668904D01*
X18821495Y13662382D01*
X18847363Y13636514D01*
X18877208Y13624151D01*
X18877209Y13624151D01*
X18881163Y13622514D01*
X18890923Y13615992D01*
X18902434Y13613703D01*
X18906385Y13612066D01*
X18906390Y13612064D01*
X18936235Y13599702D01*
X18936236Y13599702D01*
X18972819Y13599702D01*
X18984332Y13597412D01*
X18995845Y13599702D01*
X19368541Y13599702D01*
X19377015Y13598868D01*
X19384332Y13597412D01*
X19391648Y13598868D01*
X19400123Y13599702D01*
X19432428Y13599702D01*
X19432429Y13599702D01*
X19466227Y13613702D01*
X19477741Y13615992D01*
X19487501Y13622514D01*
X19521301Y13636514D01*
X19544143Y13659358D01*
X19550722Y13664756D01*
X19560192Y13671084D01*
X19592808Y13677572D01*
X19608472Y13671084D01*
X19611733Y13668905D01*
X19611734Y13668904D01*
X19690923Y13615992D01*
X19784332Y13597412D01*
X19877741Y13615992D01*
X19956930Y13668904D01*
X20009842Y13748093D01*
X20028422Y13841502D01*
X20009842Y13934911D01*
X19956930Y14014100D01*
X19956929Y14014101D01*
X19954750Y14017362D01*
X19948262Y14049979D01*
X19954750Y14065642D01*
X19961578Y14075861D01*
X20009842Y14148093D01*
X20028422Y14241502D01*
X20026659Y14250366D01*
X20033147Y14282983D01*
X20060797Y14301458D01*
X20069274Y14302293D01*
X20662619Y14302293D01*
X20693343Y14289567D01*
X20698746Y14282983D01*
X20711734Y14263545D01*
X20790923Y14210633D01*
X20884332Y14192053D01*
X20977741Y14210633D01*
X21056930Y14263545D01*
X21109842Y14342734D01*
X21128422Y14436143D01*
X21109842Y14529552D01*
X21056930Y14608741D01*
X20977741Y14661653D01*
X20884332Y14680233D01*
X20790923Y14661653D01*
X20711734Y14608742D01*
X20698747Y14589304D01*
X20671096Y14570828D01*
X20662619Y14569993D01*
X20380634Y14569993D01*
X20349910Y14582719D01*
X20337184Y14613443D01*
X20349910Y14644167D01*
X20353978Y14647672D01*
X20353961Y14647693D01*
X20361065Y14653507D01*
X20369134Y14660107D01*
X20381159Y14672098D01*
X20392938Y14686414D01*
X20438547Y14754517D01*
X20447301Y14770861D01*
X20453811Y14786547D01*
X20459202Y14804283D01*
X20476074Y14888949D01*
X20477438Y14898128D01*
X20477438Y14898132D01*
X20477440Y14898143D01*
X20477825Y14902058D01*
X20478276Y14906620D01*
X20478732Y14915890D01*
X20478732Y18133223D01*
X20478277Y18142477D01*
X20477442Y18150954D01*
X20476083Y18160117D01*
X20459269Y18244645D01*
X20453897Y18262354D01*
X20447409Y18278017D01*
X20438686Y18294337D01*
X20438683Y18294342D01*
X20438680Y18294348D01*
X20393236Y18362360D01*
X20393235Y18362361D01*
X20381488Y18376674D01*
X20381484Y18376678D01*
X20369503Y18388659D01*
X20369490Y18388670D01*
X20355207Y18400392D01*
X20355188Y18400406D01*
X20287180Y18445847D01*
X20287165Y18445856D01*
X20287164Y18445857D01*
X20287162Y18445858D01*
X20278221Y18450638D01*
X20270837Y18454585D01*
X20255188Y18461067D01*
X20255174Y18461072D01*
X20237485Y18466437D01*
X20237476Y18466439D01*
X20170182Y18479826D01*
X20170137Y18479835D01*
X20170099Y18479842D01*
X20170094Y18479843D01*
X20152942Y18483254D01*
X20152917Y18483259D01*
X20143799Y18484610D01*
X20143773Y18484614D01*
X20135315Y18485447D01*
X20135316Y18485447D01*
X20126070Y18485902D01*
X20126053Y18485902D01*
X19843922Y18485902D01*
X19813198Y18498628D01*
X19800472Y18529352D01*
X19813198Y18560076D01*
X19898487Y18645366D01*
X19971867Y18718747D01*
X20002590Y18731472D01*
X20011064Y18730638D01*
X20037332Y18725412D01*
X20130741Y18743992D01*
X20209930Y18796904D01*
X20262842Y18876093D01*
X20281422Y18969502D01*
X20262842Y19062911D01*
X20209930Y19142100D01*
X20130741Y19195012D01*
X20037332Y19213592D01*
X19943923Y19195012D01*
X19864734Y19142101D01*
X19864733Y19142100D01*
X19811822Y19062911D01*
X19793242Y18969503D01*
X19793242Y18969500D01*
X19797138Y18949910D01*
X19790650Y18917294D01*
X19785247Y18910711D01*
X19519904Y18645366D01*
X19489180Y18632640D01*
X19009779Y18632640D01*
X18985640Y18639962D01*
X18977552Y18645366D01*
X18907741Y18692012D01*
X18814332Y18710592D01*
X18720923Y18692012D01*
X18641734Y18639101D01*
X18641733Y18639100D01*
X18588932Y18560076D01*
X18588822Y18559911D01*
X18570242Y18466502D01*
X-4321268Y18466502D01*
X-4321268Y18784846D01*
X-4321723Y18794100D01*
X-4322558Y18802577D01*
X-4323917Y18811741D01*
X-4339623Y18890698D01*
X-4333135Y18923314D01*
X-4305485Y18941790D01*
X-4297008Y18942625D01*
X19470752Y18942625D01*
X19470753Y18942625D01*
X19507691Y18957925D01*
X19535962Y18986196D01*
X19551262Y19023134D01*
X19551262Y24056274D01*
X22119932Y24056274D01*
X22119932Y23151730D01*
X22126439Y23102304D01*
X22177023Y22993827D01*
X22261657Y22909193D01*
X22370134Y22858609D01*
X22419558Y22852103D01*
X22419559Y22852102D01*
X22419560Y22852102D01*
X24349105Y22852102D01*
X24349105Y22852103D01*
X24398530Y22858609D01*
X24507007Y22909193D01*
X24591641Y22993827D01*
X24642225Y23102304D01*
X24648732Y23151730D01*
X24648732Y24056274D01*
X24642225Y24105700D01*
X24591641Y24214177D01*
X24507007Y24298811D01*
X24398530Y24349395D01*
X24349106Y24355902D01*
X24349104Y24355902D01*
X22419560Y24355902D01*
X22419557Y24355902D01*
X22370134Y24349395D01*
X22370132Y24349395D01*
X22261655Y24298810D01*
X22177024Y24214179D01*
X22126439Y24105702D01*
X22126439Y24105700D01*
X22119932Y24056274D01*
X19551262Y24056274D01*
X19551262Y40041505D01*
X19889846Y40041505D01*
X19889846Y40041500D01*
X19910100Y39887648D01*
X19910102Y39887642D01*
X19910103Y39887638D01*
X19944891Y39803651D01*
X19969491Y39744260D01*
X19969492Y39744259D01*
X20063967Y39621137D01*
X20187089Y39526662D01*
X20330468Y39467273D01*
X20330473Y39467273D01*
X20330477Y39467271D01*
X20484329Y39447016D01*
X20484332Y39447016D01*
X20484335Y39447016D01*
X20638186Y39467271D01*
X20638188Y39467273D01*
X20638196Y39467273D01*
X20781575Y39526662D01*
X20904697Y39621137D01*
X20999172Y39744259D01*
X21058561Y39887638D01*
X21058561Y39887646D01*
X21058563Y39887648D01*
X21078818Y40041500D01*
X21078818Y40041505D01*
X21058563Y40195357D01*
X21058561Y40195361D01*
X21058561Y40195366D01*
X20999172Y40338745D01*
X20904697Y40461867D01*
X20904695Y40461869D01*
X20781574Y40556343D01*
X20722183Y40580943D01*
X20638196Y40615731D01*
X20638192Y40615732D01*
X20638186Y40615734D01*
X20484335Y40635988D01*
X20484329Y40635988D01*
X20330477Y40615734D01*
X20330469Y40615732D01*
X20330468Y40615731D01*
X20288474Y40598337D01*
X20187089Y40556343D01*
X20063968Y40461869D01*
X20063965Y40461866D01*
X19969491Y40338745D01*
X19910103Y40195365D01*
X19910100Y40195357D01*
X19889846Y40041505D01*
X19551262Y40041505D01*
X19551262Y41941505D01*
X19889846Y41941505D01*
X19889846Y41941500D01*
X19910100Y41787648D01*
X19910102Y41787642D01*
X19910103Y41787638D01*
X19923627Y41754988D01*
X19969491Y41644260D01*
X20044042Y41547103D01*
X20063967Y41521137D01*
X20187089Y41426662D01*
X20330468Y41367273D01*
X20330473Y41367273D01*
X20330477Y41367271D01*
X20484329Y41347016D01*
X20484332Y41347016D01*
X20484335Y41347016D01*
X20638186Y41367271D01*
X20638188Y41367273D01*
X20638196Y41367273D01*
X20781575Y41426662D01*
X20904697Y41521137D01*
X20999172Y41644259D01*
X21058561Y41787638D01*
X21058561Y41787646D01*
X21058563Y41787648D01*
X21078818Y41941500D01*
X21078818Y41941505D01*
X21058563Y42095357D01*
X21058561Y42095361D01*
X21058561Y42095366D01*
X20999172Y42238745D01*
X20904697Y42361867D01*
X20904695Y42361869D01*
X20781574Y42456343D01*
X20722183Y42480943D01*
X20638196Y42515731D01*
X20638192Y42515732D01*
X20638186Y42515734D01*
X20484335Y42535988D01*
X20484329Y42535988D01*
X20330477Y42515734D01*
X20330469Y42515732D01*
X20330468Y42515731D01*
X20304513Y42504980D01*
X20187089Y42456343D01*
X20063968Y42361869D01*
X20063965Y42361866D01*
X19969491Y42238745D01*
X19910103Y42095365D01*
X19910100Y42095357D01*
X19889846Y41941505D01*
X19551262Y41941505D01*
X19551262Y42641502D01*
X21431330Y42641502D01*
X21431330Y29099972D01*
G37*
%TD.AperFunction*%
%TA.AperFunction,Conductor*%
G36*
X-1336041Y1019739D02*
G01*
X-1059948Y2331190D01*
X-1059918Y2331317D01*
X-1336041Y1019739D01*
G37*
%TD.AperFunction*%
%TA.AperFunction,Conductor*%
G36*
X-9322160Y16095608D02*
G01*
X-9315668Y16072761D01*
X-9315668Y14238720D01*
X-9324058Y14213317D01*
X-9323971Y14213259D01*
X-9324180Y14212948D01*
X-9324213Y14212845D01*
X-9324564Y14212372D01*
X-9370019Y14144344D01*
X-9370029Y14144328D01*
X-9378750Y14128010D01*
X-9385234Y14112357D01*
X-9390604Y14094658D01*
X-9398874Y14053080D01*
X-9403778Y14028425D01*
X-9404719Y14023696D01*
X-9404726Y14023666D01*
X-9404728Y14023652D01*
X-9404730Y14023642D01*
X-9406627Y14014100D01*
X-9407421Y14010107D01*
X-9407423Y14010095D01*
X-9408779Y14000949D01*
X-9409614Y13992475D01*
X-9410068Y13983241D01*
X-9410068Y12732837D01*
X-9409544Y12722929D01*
X-9409540Y12722877D01*
X-9408580Y12713810D01*
X-9408577Y12713793D01*
X-9407228Y12705347D01*
X-9407000Y12703924D01*
X-9406997Y12703908D01*
X-9387577Y12613378D01*
X-9387574Y12613369D01*
X-9381365Y12594441D01*
X-9373894Y12577831D01*
X-9373890Y12577824D01*
X-9363862Y12560643D01*
X-9363861Y12560641D01*
X-9363858Y12560637D01*
X-9354461Y12547854D01*
X-9354336Y12547685D01*
X-9354331Y12547677D01*
X-9350509Y12542478D01*
X-9322920Y12504952D01*
X-9311778Y12489798D01*
X-9298361Y12475092D01*
X-9298356Y12475088D01*
X-9284736Y12463008D01*
X-9284731Y12463004D01*
X-9284727Y12463001D01*
X-9268519Y12451433D01*
X-9268513Y12451430D01*
X-9268512Y12451429D01*
X-9268510Y12451427D01*
X-9187880Y12405880D01*
X-9187872Y12405876D01*
X-9187868Y12405874D01*
X-9178942Y12401437D01*
X-9170541Y12397800D01*
X-9161194Y12394327D01*
X-8353519Y12141929D01*
X-8036383Y12042824D01*
X-8010854Y12021513D01*
X-8007871Y11988392D01*
X-8029182Y11962863D01*
X-8049343Y11957902D01*
X-8545445Y11957902D01*
X-8569585Y11965225D01*
X-8572259Y11967012D01*
X-8665668Y11985592D01*
X-8759077Y11967012D01*
X-8838266Y11914101D01*
X-8838267Y11914100D01*
X-8891178Y11834911D01*
X-8909758Y11741502D01*
X-8909758Y11741501D01*
X-8902031Y11702653D01*
X-8908519Y11670037D01*
X-8936170Y11651562D01*
X-8946434Y11651055D01*
X-8946434Y11650902D01*
X-9262770Y11650902D01*
X-9328224Y11637883D01*
X-9328228Y11637881D01*
X-9402448Y11588289D01*
X-9402455Y11588282D01*
X-9452047Y11514062D01*
X-9452049Y11514058D01*
X-9465068Y11448605D01*
X-9465068Y11034400D01*
X-9452049Y10968947D01*
X-9452047Y10968943D01*
X-9402455Y10894723D01*
X-9402448Y10894716D01*
X-9328228Y10845124D01*
X-9328224Y10845122D01*
X-9262770Y10832102D01*
X-9262768Y10832102D01*
X-8948566Y10832102D01*
X-8904931Y10840782D01*
X-8883112Y10845122D01*
X-8828366Y10881702D01*
X-8808889Y10894716D01*
X-8808889Y10894717D01*
X-8808885Y10894719D01*
X-8796324Y10913517D01*
X-8759290Y10968943D01*
X-8759290Y10968944D01*
X-8759288Y10968946D01*
X-8755075Y10990129D01*
X-8736600Y11017779D01*
X-8712460Y11025102D01*
X-8047622Y11025102D01*
X-8043425Y11025937D01*
X-8043296Y11025284D01*
X-8034151Y11027102D01*
X-7863204Y11027102D01*
X-7833669Y11032978D01*
X-7818900Y11035915D01*
X-7768654Y11069488D01*
X-7735081Y11119734D01*
X-7729290Y11148846D01*
X-7726268Y11164038D01*
X-7726268Y11318967D01*
X-7731919Y11347372D01*
X-7735081Y11363270D01*
X-7768654Y11413516D01*
X-7769530Y11414101D01*
X-7789780Y11427632D01*
X-7818900Y11447089D01*
X-7827941Y11448888D01*
X-7855590Y11467362D01*
X-7862078Y11499979D01*
X-7843603Y11527629D01*
X-7827941Y11534117D01*
X-7818900Y11535915D01*
X-7768654Y11569488D01*
X-7735081Y11619734D01*
X-7727506Y11657817D01*
X-7726268Y11664038D01*
X-7726268Y11794624D01*
X-7713542Y11825348D01*
X-7682818Y11838074D01*
X-7652094Y11825348D01*
X-7650129Y11823246D01*
X-7208882Y11318964D01*
X-7155618Y11258091D01*
X-7148617Y11250901D01*
X-7148601Y11250885D01*
X-7141841Y11244644D01*
X-7141817Y11244623D01*
X-7134116Y11238237D01*
X-7134099Y11238224D01*
X-7134089Y11238216D01*
X-7102829Y11214991D01*
X-7070572Y11191025D01*
X-7066923Y11188875D01*
X-7053284Y11180838D01*
X-7046045Y11177553D01*
X-7020059Y11160190D01*
X-6991883Y11154586D01*
X-6987745Y11152823D01*
X-6979016Y11143917D01*
X-6968644Y11136987D01*
X-6967734Y11132408D01*
X-6964466Y11129074D01*
X-6964591Y11116605D01*
X-6962157Y11104371D01*
X-6964781Y11097517D01*
X-6964797Y11095821D01*
X-6965809Y11094830D01*
X-6967384Y11090712D01*
X-6976938Y11074577D01*
X-6976950Y11074554D01*
X-6984187Y11059400D01*
X-6989559Y11044973D01*
X-6992454Y11034400D01*
X-6993999Y11028760D01*
X-7004772Y10968946D01*
X-7007886Y10951654D01*
X-7009007Y10943321D01*
X-7009694Y10935632D01*
X-7010068Y10927226D01*
X-7010068Y9198603D01*
X-7022794Y9167879D01*
X-7098427Y9092247D01*
X-7105011Y9086844D01*
X-7153324Y9054562D01*
X-7168983Y9048075D01*
X-7174495Y9046978D01*
X-7174496Y9046978D01*
X-7225977Y9036737D01*
X-7234454Y9035902D01*
X-8096883Y9035902D01*
X-8105360Y9036737D01*
X-8162351Y9048074D01*
X-8178014Y9054562D01*
X-8190038Y9062596D01*
X-8226327Y9086844D01*
X-8232911Y9092247D01*
X-8449607Y9308943D01*
X-8666288Y9525624D01*
X-8666299Y9525634D01*
X-8666306Y9525641D01*
X-8673146Y9531839D01*
X-8673148Y9531841D01*
X-8673155Y9531847D01*
X-8679739Y9537250D01*
X-8687178Y9542767D01*
X-8687183Y9542771D01*
X-8687196Y9542780D01*
X-8758821Y9590638D01*
X-8758826Y9590641D01*
X-8758834Y9590646D01*
X-8758838Y9590648D01*
X-8775155Y9599370D01*
X-8775162Y9599373D01*
X-8775164Y9599374D01*
X-8790806Y9605854D01*
X-8790810Y9605855D01*
X-8790809Y9605855D01*
X-8790812Y9605856D01*
X-8799668Y9608543D01*
X-8808526Y9611230D01*
X-8888768Y9627191D01*
X-8888774Y9627192D01*
X-8888776Y9627192D01*
X-8907192Y9629006D01*
X-8924144Y9629006D01*
X-8942560Y9627192D01*
X-8942565Y9627192D01*
X-8942573Y9627190D01*
X-9022811Y9611230D01*
X-9022823Y9611227D01*
X-9040515Y9605861D01*
X-9040521Y9605858D01*
X-9056176Y9599374D01*
X-9072502Y9590648D01*
X-9144168Y9542762D01*
X-9144181Y9542753D01*
X-9151578Y9537266D01*
X-9151612Y9537240D01*
X-9158176Y9531853D01*
X-9165027Y9525646D01*
X-11075535Y7615139D01*
X-11081737Y7608294D01*
X-11081755Y7608273D01*
X-11087143Y7601708D01*
X-11087152Y7601696D01*
X-11092683Y7594232D01*
X-11137989Y7526371D01*
X-11165633Y7507885D01*
X-11198251Y7514361D01*
X-11204756Y7519681D01*
X-11212025Y7526906D01*
X-11984829Y8295084D01*
X-15472974Y11762349D01*
X-15475381Y11764944D01*
X-15563691Y11868327D01*
X-15567699Y11873843D01*
X-15568919Y11875833D01*
X-15629496Y11974674D01*
X-15637883Y11988358D01*
X-15640979Y11994434D01*
X-15654244Y12026454D01*
X-15692384Y12118521D01*
X-15694490Y12125002D01*
X-15725851Y12255606D01*
X-15726916Y12262329D01*
X-15737552Y12397430D01*
X-15737686Y12400840D01*
X-15737686Y13545742D01*
X-15737675Y13545761D01*
X-15737686Y13570596D01*
X-15737479Y13574800D01*
X-15720883Y13743957D01*
X-15719227Y13752297D01*
X-15670561Y13912903D01*
X-15667306Y13920766D01*
X-15588233Y14068782D01*
X-15583508Y14075856D01*
X-15477065Y14205598D01*
X-15471052Y14211612D01*
X-15341333Y14318086D01*
X-15334265Y14322809D01*
X-15186266Y14401917D01*
X-15178408Y14405172D01*
X-15017808Y14453876D01*
X-15009466Y14455534D01*
X-14857267Y14470502D01*
X-14840308Y14472169D01*
X-14836065Y14472378D01*
X-14811276Y14472373D01*
X-14811267Y14472378D01*
X-11918161Y14472378D01*
X-11878179Y14472378D01*
X-11873783Y14474200D01*
X-11840530Y14474202D01*
X-11822401Y14460137D01*
X-11263370Y13715150D01*
X-11106308Y13505844D01*
X-11102904Y13500546D01*
X-11082204Y13462536D01*
X-11077853Y13450751D01*
X-11068892Y13408406D01*
X-11068038Y13402166D01*
X-11054633Y13191225D01*
X-11053369Y13180704D01*
X-11053367Y13180695D01*
X-11051668Y13171124D01*
X-11051664Y13171102D01*
X-11049230Y13160802D01*
X-11021288Y13066517D01*
X-11021284Y13066507D01*
X-11013042Y13047037D01*
X-11013033Y13047018D01*
X-11003544Y13030165D01*
X-10991170Y13013017D01*
X-10991166Y13013012D01*
X-10991160Y13013004D01*
X-10957420Y12975859D01*
X-10957419Y12975858D01*
X-10925039Y12940211D01*
X-10917486Y12932780D01*
X-10910172Y12926351D01*
X-10902996Y12920725D01*
X-10901823Y12919805D01*
X-10874806Y12900975D01*
X-10433167Y12593135D01*
X-10425202Y12588153D01*
X-10425195Y12588149D01*
X-10425190Y12588146D01*
X-10421575Y12586128D01*
X-10417661Y12583943D01*
X-10409243Y12579778D01*
X-10409229Y12579772D01*
X-10409223Y12579769D01*
X-10403207Y12577157D01*
X-10329101Y12544980D01*
X-10311230Y12539254D01*
X-10294421Y12535662D01*
X-10275772Y12533584D01*
X-10192837Y12532637D01*
X-10192834Y12532637D01*
X-10192831Y12532637D01*
X-10188161Y12533050D01*
X-10174142Y12534289D01*
X-10157256Y12537496D01*
X-10139261Y12542812D01*
X-10062445Y12574099D01*
X-10045858Y12582868D01*
X-10031536Y12592372D01*
X-10017008Y12604252D01*
X-9955200Y12666011D01*
X-9948889Y12672978D01*
X-9943417Y12679660D01*
X-9937838Y12687209D01*
X-9773940Y12933756D01*
X-9770875Y12938689D01*
X-9768191Y12943321D01*
X-9765425Y12948454D01*
X-9741100Y12997135D01*
X-9736550Y13007846D01*
X-9732985Y13017923D01*
X-9729789Y13029103D01*
X-9718086Y13082241D01*
X-9717010Y13087962D01*
X-9716183Y13093251D01*
X-9715462Y13099023D01*
X-9444464Y15989692D01*
X-9442984Y15997561D01*
X-9437699Y16016069D01*
X-9427945Y16050229D01*
X-9420824Y16064501D01*
X-9395621Y16097829D01*
X-9383816Y16108575D01*
X-9382795Y16109207D01*
X-9381965Y16109719D01*
X-9349139Y16115050D01*
X-9322160Y16095608D01*
G37*
%TD.AperFunction*%
%TA.AperFunction,Conductor*%
G36*
X-10150257Y47897883D02*
G01*
X-10116453Y47870142D01*
X-10110434Y47864123D01*
X-10003989Y47734429D01*
X-9999256Y47727346D01*
X-9920162Y47579379D01*
X-9916902Y47571510D01*
X-9868194Y47410952D01*
X-9866532Y47402597D01*
X-9849947Y47234228D01*
X-9849738Y47229969D01*
X-9849738Y26076819D01*
X-9862464Y26046095D01*
X-9893188Y26033369D01*
X-9903447Y26034598D01*
X-9914481Y26037280D01*
X-10003590Y26049462D01*
X-10013220Y26050278D01*
X-10016925Y26050401D01*
X-10022097Y26050573D01*
X-10022104Y26050573D01*
X-10022107Y26050573D01*
X-10031745Y26050401D01*
X-10031789Y26050399D01*
X-11005046Y25983018D01*
X-14056865Y25771739D01*
X-15581633Y25666179D01*
X-15581674Y25666175D01*
X-15590448Y25665151D01*
X-15598484Y25663830D01*
X-15598488Y25663829D01*
X-15607149Y25661984D01*
X-15607180Y25661976D01*
X-15636129Y25654375D01*
X-15636131Y25654373D01*
X-15660683Y25647926D01*
X-15693631Y25652432D01*
X-15713743Y25678916D01*
X-15715168Y25689951D01*
X-15715168Y25955734D01*
X-15715136Y25957411D01*
X-15712456Y26026802D01*
X-15700638Y26332803D01*
X-15700379Y26336134D01*
X-15675923Y26546366D01*
X-15657071Y26708439D01*
X-15656556Y26711741D01*
X-15612796Y26935650D01*
X-15584662Y27079605D01*
X-15583901Y27082834D01*
X-15483847Y27444067D01*
X-15482837Y27447233D01*
X-15355228Y27799660D01*
X-15353966Y27802764D01*
X-15240811Y28053048D01*
X-15199546Y28144321D01*
X-15198066Y28147284D01*
X-15017584Y28476244D01*
X-15016775Y28477655D01*
X-14633962Y29115677D01*
X-14540780Y29270914D01*
X-14364712Y29623442D01*
X-14216362Y29988503D01*
X-14096617Y30363919D01*
X-14006189Y30747454D01*
X-13945617Y31136822D01*
X-13915263Y31529703D01*
X-13915320Y31726728D01*
X-13915323Y31753657D01*
X-13915324Y31753658D01*
X-13916422Y41792759D01*
X-13916422Y41811006D01*
X-13916424Y41811011D01*
X-13916424Y41811030D01*
X-13931728Y41847966D01*
X-13960002Y41876234D01*
X-13960005Y41876236D01*
X-13960006Y41876236D01*
X-13996937Y41891529D01*
X-13996942Y41891530D01*
X-13996943Y41891530D01*
X-14041086Y41891527D01*
X-14041199Y41891515D01*
X-20675817Y41891515D01*
X-20680075Y41891724D01*
X-20849165Y41908375D01*
X-20857518Y41910037D01*
X-21018047Y41958727D01*
X-21025917Y41961986D01*
X-21173867Y42041060D01*
X-21180949Y42045791D01*
X-21289320Y42134719D01*
X-21310637Y42152212D01*
X-21316659Y42158234D01*
X-21358282Y42208946D01*
X-21423090Y42287906D01*
X-21427820Y42294986D01*
X-21506909Y42442930D01*
X-21510169Y42450798D01*
X-21548801Y42578121D01*
X-21551982Y42588605D01*
X-15325068Y42588605D01*
X-15325068Y42274400D01*
X-15312049Y42208947D01*
X-15312047Y42208943D01*
X-15262455Y42134723D01*
X-15262448Y42134716D01*
X-15188228Y42085124D01*
X-15188224Y42085122D01*
X-15122770Y42072102D01*
X-15122768Y42072102D01*
X-14708566Y42072102D01*
X-14664931Y42080782D01*
X-14643112Y42085122D01*
X-14611917Y42105966D01*
X-14568889Y42134716D01*
X-14568889Y42134717D01*
X-14568885Y42134719D01*
X-14519288Y42208946D01*
X-14506268Y42274402D01*
X-14506268Y42588602D01*
X-14506268Y42588605D01*
X-14519288Y42654058D01*
X-14519290Y42654062D01*
X-14568882Y42728282D01*
X-14568889Y42728289D01*
X-14643109Y42777881D01*
X-14643113Y42777883D01*
X-14708566Y42790902D01*
X-14708568Y42790902D01*
X-15122768Y42790902D01*
X-15122770Y42790902D01*
X-15188224Y42777883D01*
X-15188228Y42777881D01*
X-15262448Y42728289D01*
X-15262455Y42728282D01*
X-15312047Y42654062D01*
X-15312049Y42654058D01*
X-15325068Y42588605D01*
X-21551982Y42588605D01*
X-21558877Y42611329D01*
X-21560539Y42619682D01*
X-21577245Y42789160D01*
X-21577454Y42793389D01*
X-21577455Y42817815D01*
X-21577455Y42824235D01*
X-21577458Y42824255D01*
X-21577476Y42956110D01*
X-21577609Y43922827D01*
X-21564887Y43953551D01*
X-21534165Y43966281D01*
X-21525685Y43965447D01*
X-21446772Y43949751D01*
X-21437612Y43948392D01*
X-21429136Y43947557D01*
X-21419898Y43947103D01*
X-21419891Y43947102D01*
X-21419881Y43947102D01*
X-15860109Y43947102D01*
X-15854814Y43947326D01*
X-15852161Y43947438D01*
X-15844868Y43948055D01*
X-15839160Y43948782D01*
X-15836980Y43949059D01*
X-15836974Y43949060D01*
X-15823177Y43951411D01*
X-15823171Y43951410D01*
X-15823171Y43951411D01*
X-15804170Y43954648D01*
X-15763810Y43961521D01*
X-15763805Y43961523D01*
X-15763801Y43961523D01*
X-15758288Y43962950D01*
X-15748407Y43965504D01*
X-15734640Y43970334D01*
X-15720130Y43976845D01*
X-15658475Y44011017D01*
X-15645263Y44019871D01*
X-15633870Y44028986D01*
X-15622330Y44039935D01*
X-15572984Y44095375D01*
X-15567947Y44101539D01*
X-15563557Y44107399D01*
X-15559057Y44113966D01*
X-15243433Y44618967D01*
X-14155068Y44618967D01*
X-14155068Y44618964D01*
X-14155068Y44464040D01*
X-14146255Y44419734D01*
X-14127681Y44391936D01*
X-14112829Y44369707D01*
X-14112682Y44369488D01*
X-14062436Y44335915D01*
X-14053397Y44334117D01*
X-14025746Y44315641D01*
X-14019259Y44283025D01*
X-14037735Y44255374D01*
X-14053397Y44248887D01*
X-14062436Y44247090D01*
X-14062436Y44247089D01*
X-14112682Y44213517D01*
X-14112683Y44213516D01*
X-14146255Y44163270D01*
X-14146256Y44163270D01*
X-14155068Y44118967D01*
X-14155068Y43964038D01*
X-14151766Y43947438D01*
X-14146255Y43919734D01*
X-14135990Y43904371D01*
X-14112829Y43869707D01*
X-14112682Y43869488D01*
X-14062436Y43835915D01*
X-14018132Y43827102D01*
X-14018130Y43827102D01*
X-13938885Y43827102D01*
X-13914746Y43819780D01*
X-13909077Y43815992D01*
X-13815668Y43797412D01*
X-13722259Y43815992D01*
X-13716591Y43819780D01*
X-13692451Y43827102D01*
X-13563204Y43827102D01*
X-13533669Y43832978D01*
X-13518900Y43835915D01*
X-13468654Y43869488D01*
X-13435081Y43919734D01*
X-13429570Y43947438D01*
X-13426268Y43964038D01*
X-13426268Y44118967D01*
X-13429562Y44135525D01*
X-13435081Y44163270D01*
X-13468654Y44213516D01*
X-13469530Y44214101D01*
X-13492259Y44229288D01*
X-13518900Y44247089D01*
X-13527941Y44248888D01*
X-13555590Y44267362D01*
X-13562078Y44299979D01*
X-13543603Y44327629D01*
X-13527941Y44334117D01*
X-13518900Y44335915D01*
X-13468654Y44369488D01*
X-13435081Y44419734D01*
X-13426268Y44464040D01*
X-13426268Y44618964D01*
X-13426268Y44618967D01*
X-13429562Y44635525D01*
X-13435081Y44663270D01*
X-13468654Y44713516D01*
X-13469530Y44714101D01*
X-13503479Y44736785D01*
X-13518900Y44747089D01*
X-13518901Y44747090D01*
X-13563204Y44755902D01*
X-13563206Y44755902D01*
X-13663540Y44755902D01*
X-13680386Y44759301D01*
X-13683403Y44760570D01*
X-13690696Y44764493D01*
X-13697249Y44768872D01*
X-13697251Y44768873D01*
X-13697253Y44768874D01*
X-13697252Y44768874D01*
X-13704134Y44770243D01*
X-13712497Y44772804D01*
X-13741261Y44784900D01*
X-13741264Y44784901D01*
X-13774682Y44785080D01*
X-13778847Y44785103D01*
X-13790658Y44787452D01*
X-13801850Y44785227D01*
X-13806249Y44785250D01*
X-13806250Y44785251D01*
X-13837451Y44785418D01*
X-13837459Y44785416D01*
X-13868399Y44772797D01*
X-13868398Y44772796D01*
X-13872258Y44771222D01*
X-13884067Y44768872D01*
X-13893552Y44762536D01*
X-13897624Y44760874D01*
X-13897624Y44760873D01*
X-13901912Y44759123D01*
X-13918330Y44755902D01*
X-14018132Y44755902D01*
X-14062436Y44747090D01*
X-14062436Y44747089D01*
X-14112682Y44713517D01*
X-14112683Y44713516D01*
X-14146255Y44663270D01*
X-14146256Y44663270D01*
X-14155068Y44618967D01*
X-15243433Y44618967D01*
X-15185384Y44711846D01*
X-15181318Y44717336D01*
X-15150416Y44752816D01*
X-15139945Y44761572D01*
X-15099547Y44785702D01*
X-15093418Y44788733D01*
X-14732116Y44933253D01*
X-14728226Y44934599D01*
X-14700831Y44942636D01*
X-14692732Y44944196D01*
X-14681801Y44945238D01*
X-14681802Y44945239D01*
X-14667349Y44946618D01*
X-14664319Y44946907D01*
X-14660195Y44947102D01*
X-13573937Y44947102D01*
X-13573932Y44947103D01*
X-13564693Y44947557D01*
X-13556216Y44948392D01*
X-13547053Y44949751D01*
X-13462526Y44966565D01*
X-13444817Y44971937D01*
X-13429154Y44978425D01*
X-13412834Y44987148D01*
X-13412829Y44987152D01*
X-13412824Y44987154D01*
X-13344818Y45032594D01*
X-13344350Y45032941D01*
X-13344248Y45032975D01*
X-13343915Y45033197D01*
X-13343854Y45033106D01*
X-13318453Y45041502D01*
X-13315668Y45041502D01*
X-12853518Y45041502D01*
X-12822794Y45028776D01*
X-12810068Y44998052D01*
X-12810068Y44150146D01*
X-12808567Y44134911D01*
X-12808254Y44131730D01*
X-12805903Y44119913D01*
X-12805068Y44111436D01*
X-12805068Y44077772D01*
X-12796980Y44037111D01*
X-12766170Y43991000D01*
X-12720059Y43960190D01*
X-12696295Y43955463D01*
X-12668644Y43936987D01*
X-12662157Y43904371D01*
X-12667384Y43890712D01*
X-12676938Y43874577D01*
X-12676950Y43874554D01*
X-12684187Y43859400D01*
X-12689559Y43844973D01*
X-12692039Y43835916D01*
X-12693999Y43828760D01*
X-12699645Y43797413D01*
X-12707886Y43751654D01*
X-12709007Y43743321D01*
X-12709694Y43735632D01*
X-12710068Y43727226D01*
X-12710068Y42253117D01*
X-12709598Y42243718D01*
X-12709598Y42243710D01*
X-12708734Y42235100D01*
X-12707326Y42225775D01*
X-12689924Y42139840D01*
X-12689923Y42139835D01*
X-12689921Y42139828D01*
X-12684371Y42121867D01*
X-12684368Y42121857D01*
X-12677656Y42105964D01*
X-12668638Y42089437D01*
X-12656793Y42072102D01*
X-12619172Y42017044D01*
X-12613474Y42009538D01*
X-12607896Y42002906D01*
X-12601473Y41996001D01*
X-12244417Y41648689D01*
X-12237595Y41642665D01*
X-12231070Y41637441D01*
X-12227427Y41634802D01*
X-12223727Y41632121D01*
X-12223720Y41632117D01*
X-12223700Y41632102D01*
X-12188900Y41609368D01*
X-12183602Y41605907D01*
X-12183597Y41605905D01*
X-12154884Y41587148D01*
X-12152786Y41585778D01*
X-12145618Y41582026D01*
X-12136686Y41577350D01*
X-12121253Y41571082D01*
X-12103827Y41565895D01*
X-12061814Y41557690D01*
X-12061813Y41557689D01*
X-12046513Y41554701D01*
X-12046513Y41554700D01*
X-12020708Y41549659D01*
X-12016264Y41549012D01*
X-12011743Y41548352D01*
X-12011725Y41548351D01*
X-12011703Y41548347D01*
X-12003375Y41547541D01*
X-12003338Y41547540D01*
X-12003335Y41547539D01*
X-12001694Y41547460D01*
X-11994281Y41547102D01*
X-11994272Y41547102D01*
X-11023937Y41547102D01*
X-11023932Y41547103D01*
X-11014693Y41547557D01*
X-11006216Y41548392D01*
X-10997053Y41549751D01*
X-10912526Y41566565D01*
X-10894817Y41571937D01*
X-10879154Y41578425D01*
X-10862834Y41587148D01*
X-10862829Y41587152D01*
X-10862824Y41587154D01*
X-10794812Y41632598D01*
X-10794811Y41632599D01*
X-10794807Y41632603D01*
X-10794803Y41632605D01*
X-10780498Y41644345D01*
X-10768511Y41656332D01*
X-10756771Y41670637D01*
X-10756769Y41670641D01*
X-10756765Y41670645D01*
X-10756764Y41670646D01*
X-10711320Y41738658D01*
X-10711317Y41738664D01*
X-10711314Y41738668D01*
X-10702591Y41754988D01*
X-10696103Y41770651D01*
X-10690731Y41788360D01*
X-10673917Y41872888D01*
X-10672558Y41882051D01*
X-10671723Y41890528D01*
X-10671268Y41899782D01*
X-10671268Y42936015D01*
X-10671853Y42946507D01*
X-10672927Y42956110D01*
X-10674676Y42966482D01*
X-10696239Y43061633D01*
X-10703128Y43081465D01*
X-10711407Y43098793D01*
X-10722504Y43116608D01*
X-10779886Y43189258D01*
X-10794650Y43204184D01*
X-10801877Y43210021D01*
X-10809589Y43216251D01*
X-10809590Y43216252D01*
X-10827276Y43227538D01*
X-10827288Y43227545D01*
X-10914847Y43270554D01*
X-10914857Y43270559D01*
X-10924539Y43274662D01*
X-10924547Y43274665D01*
X-10933633Y43277932D01*
X-10939527Y43279687D01*
X-10943701Y43280930D01*
X-10943711Y43280933D01*
X-10943713Y43280933D01*
X-11084924Y43314555D01*
X-11091296Y43319167D01*
X-11099010Y43320703D01*
X-11104238Y43328532D01*
X-11111865Y43334051D01*
X-11113110Y43341818D01*
X-11117478Y43348359D01*
X-11115639Y43357593D01*
X-11117128Y43366887D01*
X-11110980Y43380973D01*
X-11110292Y43382002D01*
X-11082636Y43400470D01*
X-11074172Y43401302D01*
X-10733138Y43401302D01*
X-10702414Y43388576D01*
X-10697011Y43381992D01*
X-10688266Y43368904D01*
X-10609077Y43315992D01*
X-10515668Y43297412D01*
X-10422259Y43315992D01*
X-10343070Y43368904D01*
X-10290158Y43448093D01*
X-10271578Y43541502D01*
X-10290158Y43634911D01*
X-10343070Y43714100D01*
X-10362715Y43727226D01*
X-10375295Y43735632D01*
X-10422259Y43767012D01*
X-10515668Y43785592D01*
X-10609077Y43767012D01*
X-10688266Y43714101D01*
X-10697011Y43701012D01*
X-10724662Y43682537D01*
X-10733138Y43681702D01*
X-11074172Y43681702D01*
X-11104896Y43694428D01*
X-11110300Y43701013D01*
X-11118655Y43713517D01*
X-11139173Y43727226D01*
X-11168900Y43747089D01*
X-11177941Y43748888D01*
X-11205590Y43767362D01*
X-11212078Y43799979D01*
X-11193603Y43827629D01*
X-11190192Y43829689D01*
X-11184404Y43832832D01*
X-11168900Y43835915D01*
X-11126367Y43864335D01*
X-11124627Y43865279D01*
X-11109922Y43866823D01*
X-11095422Y43869707D01*
X-11092799Y43868621D01*
X-11091553Y43868751D01*
X-11089919Y43867428D01*
X-11079759Y43863219D01*
X-11009081Y43815994D01*
X-11009080Y43815994D01*
X-11009077Y43815992D01*
X-10915668Y43797412D01*
X-10822259Y43815992D01*
X-10743070Y43868904D01*
X-10690158Y43948093D01*
X-10671578Y44041502D01*
X-10690158Y44134911D01*
X-10743070Y44214100D01*
X-10751580Y44219786D01*
X-10792442Y44247089D01*
X-10804843Y44255375D01*
X-10823318Y44283025D01*
X-10816831Y44315641D01*
X-10804844Y44327629D01*
X-10743070Y44368904D01*
X-10690158Y44448093D01*
X-10671578Y44541502D01*
X-10690158Y44634911D01*
X-10743070Y44714100D01*
X-10744477Y44715040D01*
X-10792442Y44747089D01*
X-10822259Y44767012D01*
X-10915668Y44785592D01*
X-10919866Y44786427D01*
X-10919417Y44788688D01*
X-10942666Y44798318D01*
X-10955392Y44829042D01*
X-10942666Y44859766D01*
X-10934046Y44866449D01*
X-10632992Y45044345D01*
X-10395668Y45184582D01*
X-10388831Y45189031D01*
X-10382727Y45193390D01*
X-10376302Y45198411D01*
X-10318482Y45247763D01*
X-10307049Y45259370D01*
X-10297519Y45270883D01*
X-10288248Y45284291D01*
X-10252466Y45346997D01*
X-10245640Y45361798D01*
X-10240576Y45375860D01*
X-10236400Y45391604D01*
X-10236399Y45391607D01*
X-10223323Y45466498D01*
X-10222959Y45469296D01*
X-10222269Y45474582D01*
X-10221621Y45482055D01*
X-10221268Y45490210D01*
X-10221268Y47864293D01*
X-10208542Y47895017D01*
X-10177818Y47907743D01*
X-10150257Y47897883D01*
G37*
%TD.AperFunction*%
%TD*%
M02*
