M48
; DRILL file {KiCad 8.99.0-344-gfbc433deaa} date 2024-07-04T10:19:19-0400
; FORMAT={-:-/ absolute / inch / decimal}
; #@! TF.CreationDate,2024-07-04T10:19:19-04:00
; #@! TF.GenerationSoftware,Kicad,Pcbnew,8.99.0-344-gfbc433deaa
; #@! TF.FileFunction,Plated,1,4,PTH
FMAT,2
INCH
; #@! TA.AperFunction,Plated,PTH,ViaDrill
T1C0.0079
%
G90
G05
T1
X-0.8116Y1.7142
X-0.8116Y1.6985
X-0.8116Y1.6827
X-0.7959Y1.7142
X-0.7959Y1.6985
X-0.7959Y1.6827
X-0.7834Y1.8685
X-0.7801Y1.7142
X-0.7801Y1.6985
X-0.7801Y1.6827
X-0.7644Y1.7142
X-0.7644Y1.6985
X-0.7644Y1.6827
X-0.7486Y1.7142
X-0.7486Y1.6985
X-0.7486Y1.6827
X-0.7329Y1.7142
X-0.7329Y1.6985
X-0.7329Y1.6827
X-0.6896Y1.8796
X-0.6896Y1.8638
X-0.6896Y1.7103
X-0.6896Y1.6945
X-0.6738Y1.8796
X-0.6738Y1.8638
X-0.6738Y1.7103
X-0.6738Y1.6945
X-0.6463Y1.8796
X-0.6463Y1.8638
X-0.6463Y1.7103
X-0.6463Y1.6945
X-0.6305Y1.8796
X-0.6305Y1.8638
X-0.6305Y1.7103
X-0.6305Y1.6945
X-0.6028Y1.0374
X-0.5969Y0.5431
X-0.5964Y0.5572
X-0.5951Y1.8835
X-0.5872Y1.7103
X-0.5872Y1.6709
X-0.5868Y1.0858
X-0.585Y1.7514
X-0.5833Y0.4701
X-0.5794Y0.5607
X-0.5794Y0.5449
X-0.5715Y0.4819
X-0.5715Y0.4583
X-0.5646Y0.9268
X-0.5636Y1.0568
X-0.5636Y1.041
X-0.5636Y0.5607
X-0.5636Y0.5449
X-0.5622Y1.1288
X-0.5597Y0.4938
X-0.5597Y0.4701
X-0.5597Y0.4465
X-0.5479Y1.0568
X-0.5479Y1.041
X-0.5479Y0.5607
X-0.5479Y0.5449
X-0.5479Y0.5056
X-0.5479Y0.4819
X-0.5479Y0.4583
X-0.5479Y0.4347
X-0.5439Y1.7339
X-0.5429Y1.7142
X-0.5429Y1.7537
X-0.5377Y1.449
X-0.5375Y1.241
X-0.5374Y1.5812
X-0.5374Y1.3282
X-0.536Y0.4938
X-0.536Y0.4701
X-0.536Y0.4465
X-0.536Y0.4229
X-0.5321Y0.5607
X-0.5321Y0.5449
X-0.5305Y1.6977
X-0.5282Y1.6749
X-0.5282Y1.6591
X-0.5278Y1.7173
X-0.5242Y0.4819
X-0.5242Y0.4583
X-0.5242Y0.4347
X-0.5242Y0.4111
X-0.5164Y0.5607
X-0.5164Y0.5449
X-0.5124Y1.726
X-0.5124Y1.7103
X-0.5124Y1.6749
X-0.5124Y1.6591
X-0.5124Y1.0568
X-0.5124Y1.041
X-0.5124Y0.5174
X-0.5124Y0.4701
X-0.5124Y0.4465
X-0.5124Y0.4229
X-0.5122Y1.6921
X-0.5006Y0.4583
X-0.5006Y0.4347
X-0.4967Y1.0568
X-0.4967Y1.041
X-0.4888Y0.4465
X-0.4886Y0.4958
X-0.4871Y0.5513
X-0.4869Y1.0917
X-0.4861Y0.3632
X-0.4854Y1.6778
X-0.4836Y1.6615
X-0.4809Y1.726
X-0.4809Y1.7103
X-0.4809Y1.6945
X-0.4753Y0.5233
X-0.4652Y1.6749
X-0.4652Y1.6591
X-0.4644Y0.5117
X-0.4639Y0.5336
X-0.4626Y1.6947
X-0.4576Y0.4831
X-0.4569Y0.4139
X-0.454Y0.3308
X-0.4534Y0.5213
X-0.4494Y1.6749
X-0.4494Y1.6591
X-0.4433Y1.6922
X-0.4376Y0.3866
X-0.4369Y0.4436
X-0.4298Y1.7536
X-0.4298Y1.7339
X-0.4288Y0.4862
X-0.4237Y0.4068
X-0.414Y1.7142
X-0.4128Y0.3552
X-0.4025Y0.385
X-0.3986Y0.4426
X-0.3932Y0.3746
X-0.391Y0.3959
X-0.3814Y0.3852
X-0.3609Y0.3424
X-0.3589Y0.2457
X-0.3516Y0.3319
X-0.351Y0.4032
X-0.3486Y0.3531
X-0.3471Y0.2575
X-0.3471Y0.2339
X-0.3412Y0.4623
X-0.3399Y0.3431
X-0.3353Y0.2694
X-0.3353Y0.2457
X-0.3353Y0.2221
X-0.3235Y0.2812
X-0.3235Y0.2575
X-0.3235Y0.2339
X-0.3235Y0.2103
X-0.3185Y0.4229
X-0.3116Y0.3835
X-0.3116Y0.3678
X-0.3116Y0.2694
X-0.3116Y0.2457
X-0.3116Y0.2221
X-0.3116Y0.1985
X-0.3089Y0.4079
X-0.3028Y0.4257
X-0.2998Y0.2575
X-0.2998Y0.2339
X-0.2998Y0.2103
X-0.2998Y0.1867
X-0.2959Y0.3835
X-0.2959Y0.3678
X-0.288Y0.4347
X-0.288Y0.419
X-0.288Y0.4042
X-0.288Y0.2457
X-0.288Y0.2221
X-0.288Y0.1985
X-0.2762Y0.2339
X-0.2762Y0.2103
X-0.2644Y0.2221
X-0.2636Y0.3756
X-0.2619Y0.356
X-0.2565Y0.4347
X-0.2565Y0.419
X-0.2565Y0.4032
X-0.2486Y0.3835
X-0.2486Y0.3678
X-0.2405Y0.3542
X-0.2378Y0.4031
X-0.2329Y0.3835
X-0.2329Y0.3678
X-0.222Y0.3555
X-0.2132Y0.4623
X-0.2053Y0.4426
X-0.1975Y0.4094
X-0.1935Y0.3756
X-0.1935Y0.356
X-0.1787Y0.4425
X-0.178Y0.4231
X-0.1772Y0.4626
X-0.166Y0.4505
X-0.166Y0.4347
X-0.1614Y0.415
X-0.1585Y0.4648
X-0.1502Y0.4505
X-0.1502Y0.4347
X-0.1423Y0.5764
X-0.1423Y0.415
X-0.1423Y0.3993
X-0.1423Y0.3835
X-0.1384Y0.7024
X-0.1377Y0.4623
X-0.1342Y0.4432
X-0.1187Y0.4977
X-0.1109Y0.4151
X-0.1109Y0.3993
X-0.1109Y0.3835
X-0.103Y0.4505
X-0.103Y0.4347
X-0.0969Y0.3926
X-0.0912Y0.4111
X-0.0872Y0.4505
X-0.0872Y0.4347
X-0.0803Y0.3953
X-0.0597Y0.356
X-0.0518Y0.5489
X-0.0439Y0.0331
X-0.0416Y0.0489
X-0.04Y0.0646
X-0.0353Y0.5058
X-0.0321Y0.4154
X-0.0262Y0.0843
X-0.0262Y0.0646
X-0.0262Y0.0489
X-0.0262Y0.0331
X-0.0229Y0.4938
X0.023Y0.6788
X0.0732Y0.6376
X0.126Y0.6811
X0.1332Y-0.0141
X0.1451Y-0.0259
X0.1569Y-0.0141
X0.1569Y-0.0377
X0.1687Y-0.0259
X0.1805Y-0.0141
X0.1805Y-0.0377
X0.1884Y0.7064
X0.1923Y-0.0259
X0.2041Y-0.0141
X0.2041Y-0.0377
X0.2159Y-0.0259
X0.2317Y-0.0141
X0.2317Y-0.0377
X0.2454Y0.6581
X0.2474Y-0.0259
X0.2671Y-0.1761
X0.2947Y-0.0732
X0.2986Y0.6945
X0.2986Y0.6552
X0.3148Y0.6363
X0.3655Y-0.0181
X0.3872Y0.6552
X0.4147Y0.6453
X0.4206Y0.6808
X0.4364Y-0.0732
X0.4541Y0.6552
X0.4561Y-0.0181
X0.4915Y0.6355
X0.5175Y0.709
X0.5427Y-0.0181
X0.5486Y0.6808
X0.5584Y0.6512
X0.5939Y0.6949
X0.5939Y0.6709
X0.6057Y-0.0614
X0.6234Y0.3127
X0.6281Y0.241
X0.6332Y0.6709
X0.6384Y0.2841
X0.6448Y0.2032
X0.6451Y0.0331
X0.6454Y0.364
X0.651Y0.0942
X0.6539Y0.4632
X0.6608Y0.4209
X0.6647Y0.5804
X0.6647Y0.5646
X0.6647Y0.4938
X0.6647Y0.478
X0.6651Y0.6977
X0.6655Y0.6148
X0.6692Y0.3107
X0.6731Y0.3578
X0.6805Y0.5804
X0.6805Y0.5646
X0.6805Y0.4938
X0.6805Y0.478
X0.6874Y0.3125
X0.6884Y0.4426
X0.6923Y0.4229
X0.6962Y0.5804
X0.6962Y0.5646
X0.6962Y0.4938
X0.6962Y0.478
X0.7017Y0.1879
X0.7025Y0.1101
X0.7055Y0.3659
X0.708Y0.4111
X0.712Y0.7024
X0.712Y0.6867
X0.712Y0.6591
X0.712Y0.6434
X0.712Y0.4505
X0.712Y0.4347
X0.7159Y0.3258
X0.7159Y0.5292
X0.7238Y0.5804
X0.7258Y0.2674
X0.7277Y0.7024
X0.7277Y0.6867
X0.7277Y0.6591
X0.7277Y0.6434
X0.7277Y0.4505
X0.7277Y0.4347
X0.7277Y0.4111
X0.7317Y0.6079
X0.7317Y0.5292
X0.7407Y0.727
X0.7454Y0.2241
X0.7474Y0.5607
X0.7474Y0.5449
X0.7474Y0.5292
X0.7474Y0.5134
X0.7474Y0.4977
X0.7505Y0.1657
X0.7514Y0.5843
X0.7553Y0.4701
X0.7632Y0.5607
X0.7632Y0.5449
X0.7632Y0.5292
X0.7632Y0.5134
X0.7632Y0.4977
X0.7632Y0.2241
X0.7642Y0.3201
X0.7649Y0.0828
X0.7671Y0.5843
X0.771Y0.6079
X0.771Y0.4701
X0.7713Y0.3419
X0.775Y0.7024
X0.775Y0.6867
X0.775Y0.6591
X0.775Y0.6434
X0.775Y0.4505
X0.775Y0.4347
X0.7789Y0.5607
X0.7789Y0.5449
X0.7789Y0.5292
X0.7789Y0.5134
X0.7809Y0.2241
X0.7828Y0.5882
X0.7868Y0.4701
X0.7889Y0.7468
X0.7907Y0.7024
X0.7907Y0.6867
X0.7907Y0.6591
X0.7907Y0.6434
X0.7907Y0.6197
X0.7907Y0.604
X0.7907Y0.4505
X0.7907Y0.4347
X0.7947Y0.5292
X0.7947Y0.5134
X0.7955Y0.3566
X0.7966Y0.2398
X0.8065Y1.6512
X0.8065Y1.5764
X0.8104Y0.5449
X0.8104Y0.5292
X0.8104Y0.5134
X0.821Y0.4877
X0.8222Y0.5684
X0.8262Y0.5449
X0.8262Y0.5292
X0.8262Y0.5134
X0.8293Y0.3339
X0.834Y1.7103
X0.8341Y1.7236
X0.8341Y1.6967
X0.8354Y1.7371
X0.8399Y1.75
X0.8484Y1.7616
X0.8655Y1.1316
X0.8655Y1.1119
X0.8714Y1.0922
X0.8718Y0.5226
X0.8758Y0.4084
X0.8821Y0.2613
X0.8891Y1.1316
X0.8891Y1.1158
X0.8891Y1.0646
X0.8891Y1.0489
X0.8891Y1.0331
X0.8891Y0.9426
X0.8891Y0.9268
X0.8891Y0.9111
X0.8911Y1.7949
X0.8951Y1.0902
X0.9049Y1.1316
X0.9049Y1.1158
X0.9049Y1.0646
X0.9049Y1.0489
X0.9049Y1.0331
X0.9049Y0.9426
X0.9049Y0.9268
X0.9049Y0.9111
X0.9128Y1.8343
X0.9206Y1.1316
X0.9206Y1.1158
X0.9206Y1.0902
X0.9206Y1.0646
X0.9206Y1.0489
X0.9206Y1.0331
X0.9206Y0.9426
X0.9206Y0.9268
X0.9206Y0.9111
X0.9226Y1.8166
X0.9246Y0.2733
X0.9286Y1.8408
X0.9331Y1.8001
X0.9364Y1.856
X0.9364Y1.1316
X0.9364Y1.1158
X0.9364Y1.0646
X0.9364Y1.0489
X0.9364Y1.0331
X0.9364Y0.9426
X0.9364Y0.9268
X0.9364Y0.9111
X0.9423Y1.7831
X0.9431Y1.8259
X0.9462Y1.0902
X0.9521Y1.8717
X0.9521Y1.856
X0.9521Y1.1316
X0.9521Y1.1158
X0.9521Y1.0646
X0.9521Y1.0489
X0.9521Y1.0331
X0.9521Y0.9426
X0.9521Y0.9268
X0.9521Y0.9111
X0.9541Y1.7989
X0.958Y1.8166
X0.9587Y1.8385
X0.9679Y1.8875
X0.9679Y1.8717
X0.9679Y1.856
X0.9679Y1.1158
X0.9679Y1.0942
M30
