%TF.GenerationSoftware,KiCad,Pcbnew,8.99.0-2194-gb3b7cbcab2*%
%TF.CreationDate,2024-09-04T20:38:51-04:00*%
%TF.ProjectId,thundervolt_hw1,7468756e-6465-4727-966f-6c745f687731,rev?*%
%TF.SameCoordinates,PX85b368ePY7384544*%
%TF.FileFunction,Copper,L3,Inr*%
%TF.FilePolarity,Positive*%
%FSLAX46Y46*%
G04 Gerber Fmt 4.6, Leading zero omitted, Abs format (unit mm)*
G04 Created by KiCad (PCBNEW 8.99.0-2194-gb3b7cbcab2) date 2024-09-04 20:38:51*
%MOMM*%
%LPD*%
G01*
G04 APERTURE LIST*
%TA.AperFunction,ViaPad*%
%ADD10C,0.250000*%
%TD*%
%TA.AperFunction,ViaPad*%
%ADD11C,0.300000*%
%TD*%
%TA.AperFunction,Conductor*%
%ADD12C,0.300000*%
%TD*%
%TA.AperFunction,Conductor*%
%ADD13C,0.350000*%
%TD*%
G04 APERTURE END LIST*
D10*
%TO.N,Net-(D1-A)*%
X16484332Y5161502D03*
D11*
%TO.N,GND*%
X-9687095Y9784750D03*
X-13415668Y42541502D03*
X-17515668Y47741502D03*
X20984332Y13841502D03*
X23384332Y28341502D03*
X-665668Y1641502D03*
X-13315668Y11041502D03*
X-17115668Y43441502D03*
X-13015668Y26441502D03*
X-1015668Y1641502D03*
X13934332Y17291502D03*
X18484332Y17841502D03*
X22244824Y10373253D03*
X22134332Y27741502D03*
X18084332Y17841502D03*
X-2615668Y11041502D03*
X-11115697Y9819638D03*
X-13915668Y26441502D03*
X21185067Y43778918D03*
X-13015668Y13141502D03*
X6234332Y16716039D03*
X18084332Y16741502D03*
X-13015668Y43441502D03*
X-13015668Y42141502D03*
X-10890985Y12348309D03*
X16216344Y7216418D03*
X-3515668Y17841502D03*
X18084332Y16341502D03*
X-13915668Y12241502D03*
X5184332Y-358498D03*
X-2815668Y10544371D03*
X-13615668Y11341502D03*
X-19015668Y43541502D03*
X-15311552Y26348714D03*
X24184332Y26241502D03*
X-12715668Y11041502D03*
X-13649019Y40162552D03*
X-15160825Y13795414D03*
X-14715668Y14241502D03*
X-18615668Y42741502D03*
X18484332Y16341502D03*
X-18615668Y43141502D03*
X11084332Y-1858498D03*
X4784332Y17941502D03*
X17842378Y2797052D03*
X-1315668Y13941502D03*
X-16415668Y47741502D03*
X22584332Y28741502D03*
X-12368504Y27728276D03*
X-19415668Y43541502D03*
X18484332Y16741502D03*
X-14904824Y27578745D03*
X-815668Y10551502D03*
X-8090668Y10741502D03*
X18084332Y11041502D03*
X18484332Y17441502D03*
X23384332Y26641502D03*
X23784332Y28341502D03*
X-11515668Y13241502D03*
X20184332Y13041502D03*
X21218682Y44121790D03*
X-9988477Y9514546D03*
X-19015668Y43141502D03*
X-20615668Y43541502D03*
X-17115668Y47341502D03*
X21184332Y43441502D03*
X-16015668Y43041502D03*
X-16015668Y47741502D03*
X-14515668Y11641502D03*
X24184332Y28341502D03*
X19784332Y13041502D03*
X17824332Y4771502D03*
X-14315668Y26841502D03*
X-14857846Y44486707D03*
X-13615668Y10741502D03*
X5184332Y-958498D03*
X-19815668Y43141502D03*
X-13658727Y36803503D03*
X24184332Y28741502D03*
X-13790668Y43541502D03*
X3684332Y-658498D03*
X-7915668Y9341502D03*
X1858303Y16196228D03*
X-13415668Y42141502D03*
X15384332Y-1558498D03*
X18384332Y14741502D03*
X584332Y17241502D03*
X17584332Y10741502D03*
X-13015668Y10741502D03*
X-17515668Y43041502D03*
X-2215668Y11041502D03*
X11584332Y-458498D03*
X-16415668Y47341502D03*
X22984332Y26241502D03*
X-13615668Y12541502D03*
X-13915668Y13841502D03*
X-11604726Y10512945D03*
X19384332Y13441502D03*
X-14915668Y43441502D03*
X11534332Y16641502D03*
X-17115668Y47741502D03*
X24184332Y27041502D03*
X-11784158Y13552781D03*
X18484332Y10441502D03*
X20984332Y13041502D03*
X-13515668Y14241502D03*
X18984332Y13441502D03*
X4584332Y-958498D03*
X21064332Y8481502D03*
X-20215668Y43541502D03*
X22584332Y26641502D03*
X-12615668Y26841502D03*
X-14215668Y11941502D03*
X-2815668Y10141502D03*
X17984332Y10441502D03*
X23384332Y26241502D03*
X-2615668Y11441502D03*
X-19415668Y43141502D03*
X-14315668Y26441502D03*
X23784332Y26241502D03*
X-13315668Y12241502D03*
X-12372316Y14004243D03*
X-11623297Y12270974D03*
X23784332Y26641502D03*
X9284332Y-458498D03*
X23484332Y6941502D03*
X-11796211Y12997633D03*
X-2215668Y11441502D03*
X15834332Y7941502D03*
X10534332Y16391502D03*
X-13015668Y11941502D03*
X-13649019Y33735700D03*
X-13015668Y43841502D03*
X-13615668Y11941502D03*
X-13474993Y43120430D03*
X-2315668Y10441502D03*
X13784332Y-458498D03*
X-14515668Y12241502D03*
X16384332Y841502D03*
X-7315668Y10267261D03*
X19428562Y2102219D03*
X20184332Y13441502D03*
X-2040668Y10041502D03*
X-13653006Y31521619D03*
X21984332Y28741502D03*
X-13515668Y13841502D03*
X-13404897Y43619069D03*
X-2460454Y9972493D03*
X-13015668Y26841502D03*
X-20215668Y42741502D03*
X-13915668Y26841502D03*
X-14315668Y13841502D03*
X-2815668Y9741502D03*
X19784332Y13441502D03*
X23384332Y27691502D03*
X23384332Y27041502D03*
X24184332Y26641502D03*
X-7915668Y9741502D03*
X19063599Y4207773D03*
X-18615668Y43541502D03*
X-7845159Y10360397D03*
X-19415668Y42741502D03*
X23784332Y28741502D03*
X-13115668Y14241502D03*
X-12615668Y26441502D03*
X3984332Y-358498D03*
X22984332Y28741502D03*
X-10762853Y10333428D03*
X15954374Y6120177D03*
X-13015668Y11341502D03*
X16394161Y9245210D03*
X16904332Y15615502D03*
X22984332Y26641502D03*
X-13015668Y42541502D03*
X-15147572Y14153247D03*
X-9931319Y10054955D03*
X4584332Y-358498D03*
X-19815668Y43541502D03*
X21185067Y43096537D03*
X-13315668Y10441502D03*
X-20615668Y43141502D03*
X-17115668Y43041502D03*
X16609332Y11766502D03*
X-1055973Y1242401D03*
X22634332Y45591502D03*
X17484332Y11241502D03*
X-665668Y2141502D03*
X22405303Y6635950D03*
X7484332Y-1858498D03*
X-12415668Y11341502D03*
X22584332Y28341502D03*
X-17515668Y47341502D03*
X-7691976Y10811606D03*
X-20615668Y42741502D03*
X20234332Y6091502D03*
X-16015668Y43441502D03*
X-7315668Y10641502D03*
X16894332Y17721502D03*
X4284332Y-658498D03*
X-11097126Y11268155D03*
X-13115668Y13841502D03*
X18084332Y17441502D03*
X17919359Y9294359D03*
X-13915668Y11641502D03*
X-11530443Y8402072D03*
X23784332Y27041502D03*
X18584332Y15441502D03*
X-12347555Y9225374D03*
X-16015668Y47341502D03*
X21548107Y44743665D03*
X-12071836Y13291040D03*
X-7315668Y11041502D03*
X24034332Y27691502D03*
X18484332Y11041502D03*
X24584332Y27791502D03*
X-10222308Y9779554D03*
X18434332Y6791502D03*
X-12409458Y12592867D03*
X-17515668Y43441502D03*
X-3615668Y14641502D03*
X-20215668Y43141502D03*
X5484332Y-658498D03*
X-13315668Y11641502D03*
X23384332Y28741502D03*
X-14715668Y13841502D03*
X3984332Y-958498D03*
X22984332Y27041502D03*
X21332972Y44451215D03*
X3199200Y17300060D03*
X-19015668Y42741502D03*
X22144824Y13273253D03*
X-16415668Y43041502D03*
X20205970Y9056432D03*
X-14280748Y28670626D03*
X18084332Y11441502D03*
X-13915668Y14241502D03*
X-665668Y1241502D03*
X-13008888Y42979798D03*
X18584332Y13441502D03*
X6284332Y-658498D03*
X-12715668Y11641502D03*
X5884332Y-358498D03*
X20584332Y13441502D03*
X22984332Y28341502D03*
X20584332Y13841502D03*
X-14215668Y12541502D03*
X13143435Y18008229D03*
X10684332Y17291502D03*
X-665668Y841502D03*
X18484332Y11441502D03*
X-3015668Y12641502D03*
X-7515668Y9741502D03*
X-13915668Y12841502D03*
X20584332Y13041502D03*
X-19815668Y42741502D03*
X24584332Y28341502D03*
X-7515668Y9341502D03*
X4884332Y-658498D03*
X21984332Y28241502D03*
X22584332Y27041502D03*
X-8915668Y10241502D03*
X-16415668Y43441502D03*
X20853125Y12386758D03*
X14184332Y16541502D03*
X22584332Y26241502D03*
X22734332Y27691502D03*
X5884332Y-958498D03*
X-13915668Y11041502D03*
X18184332Y13441502D03*
X-1115668Y841502D03*
X3384332Y-358498D03*
X20984332Y13441502D03*
X-10125668Y11241502D03*
X-14815668Y11941502D03*
X-10484292Y9021096D03*
X-14315668Y14241502D03*
X-14215668Y11341502D03*
%TO.N,+3V3*%
X20084332Y16341502D03*
X23955502Y46379002D03*
X18984332Y14241502D03*
X23384332Y23541502D03*
X24234332Y45691502D03*
X23784332Y23941502D03*
X22984332Y23541502D03*
X24184332Y23941502D03*
X20084332Y17441502D03*
X23784332Y23541502D03*
X19684332Y17841502D03*
X19484332Y14841502D03*
X24584332Y47141502D03*
X23184332Y46591502D03*
X20084332Y15741502D03*
X19684332Y16741502D03*
X19084332Y14841502D03*
X19684332Y17441502D03*
X23384332Y23941502D03*
X24184332Y23541502D03*
X23586974Y46755603D03*
X23384332Y23141502D03*
X22984332Y23141502D03*
X23784332Y47141502D03*
X24584332Y47541502D03*
X19884332Y14941502D03*
X20084332Y16741502D03*
X22584332Y23141502D03*
X24350023Y46697893D03*
X24184332Y47541502D03*
X20084332Y17841502D03*
X23934332Y45291502D03*
X22584332Y23541502D03*
X22984332Y23941502D03*
X24184332Y47141502D03*
X24184332Y23141502D03*
X23784332Y23141502D03*
X24584332Y47941502D03*
X22584332Y23941502D03*
X20084332Y15341502D03*
X19684332Y16341502D03*
X23701256Y45721429D03*
X23434332Y46141502D03*
X24334332Y46141502D03*
X19384332Y14241502D03*
X19584332Y15441502D03*
%TO.N,+1V8*%
X-15115668Y47841502D03*
X15084332Y17651502D03*
X-13790658Y44543362D03*
X-19897251Y47459919D03*
%TO.N,+1V0*%
X-14341747Y23541502D03*
X-8665668Y11741502D03*
%TO.N,+1V15*%
X6784332Y-4473101D03*
X-1515668Y9041502D03*
%TO.N,SDA*%
X-897441Y12846329D03*
X-10915668Y44041502D03*
X20884332Y14436143D03*
X-5215668Y11241502D03*
X-4915668Y9541502D03*
X19784332Y14241502D03*
X20484332Y41941502D03*
X15084332Y17041502D03*
X18934332Y5691502D03*
%TO.N,SCL*%
X18814332Y18466502D03*
X-10915668Y44541502D03*
X20484332Y40041502D03*
X-582318Y12541502D03*
X19384332Y5691502D03*
X7995838Y16160971D03*
X7584332Y17641502D03*
X-5415668Y11741502D03*
X-4915668Y9041502D03*
X16084332Y17041502D03*
X20037332Y18969502D03*
X19784332Y13841502D03*
%TO.N,EN*%
X19410383Y8129344D03*
X-10515668Y43541502D03*
X-5015668Y10398014D03*
%TO.N,VBAT*%
X-7615668Y5941502D03*
X19584332Y11941502D03*
X-6109635Y8996864D03*
X-6515668Y10241502D03*
X-3615668Y10541502D03*
X-11415668Y42541502D03*
X-8515668Y5641502D03*
X-3815668Y11441502D03*
X-5915668Y9341502D03*
X-7315668Y5041502D03*
X-6041307Y10239779D03*
X19684332Y11041502D03*
X20084332Y11041502D03*
X-7615668Y4741502D03*
X-12215668Y43041502D03*
X20084332Y11441502D03*
X-8215668Y7141502D03*
X-6315668Y9341502D03*
X-8515668Y6841502D03*
X-4521148Y10746356D03*
X-12215668Y43841502D03*
X-3615668Y9741502D03*
X-3615668Y10141502D03*
X-8215668Y5341502D03*
X-8855138Y8968317D03*
X-8215668Y6541502D03*
X-6515668Y10641502D03*
X-7915668Y6241502D03*
X19684332Y11441502D03*
X-7915668Y6841502D03*
X-6653004Y9042416D03*
X-11815668Y42541502D03*
X-11815668Y42141502D03*
X-12329478Y42615810D03*
X19184332Y11941502D03*
X-6315668Y9741502D03*
X-8815668Y6541502D03*
X-8815668Y5941502D03*
X-9115668Y6241502D03*
X-4501231Y11748826D03*
X-7015668Y5341502D03*
X-12215668Y43441502D03*
X-8215668Y5941502D03*
X-8633297Y8714784D03*
X-4215668Y11441502D03*
X-7315668Y5641502D03*
X-6715668Y5641502D03*
X19384332Y12641502D03*
X-11748792Y43044551D03*
X-6695302Y9540233D03*
X-4026552Y11805256D03*
X16784332Y10691502D03*
X-11260245Y42981737D03*
X-4215668Y11041502D03*
X-5637848Y9029401D03*
X-8515668Y6241502D03*
X-7915668Y5641502D03*
X-3409137Y11257549D03*
X-3498762Y11742187D03*
X-7915668Y5041502D03*
X-3815668Y11041502D03*
X-7015668Y5941502D03*
X-4099579Y10540551D03*
X-8931198Y8429560D03*
X-7615668Y5341502D03*
X-4538774Y11239878D03*
X-12282593Y42202373D03*
X-9165716Y8695769D03*
X19984332Y11941502D03*
X-5915668Y9741502D03*
X-6515668Y11041502D03*
X18984332Y12641502D03*
X-7315668Y6241502D03*
X-7615668Y6541502D03*
X-11415668Y42141502D03*
%TO.N,Net-(U4-LX2)*%
X17684332Y14341502D03*
X17284332Y14341502D03*
X18984332Y13841502D03*
X17284332Y14741502D03*
X16884332Y14741502D03*
X16884332Y14341502D03*
X19384332Y13841502D03*
X17684332Y14741502D03*
%TO.N,Net-(U4-LX1)*%
X17684332Y12141502D03*
X17684332Y12541502D03*
X17284332Y12541502D03*
X16884332Y12541502D03*
X16884332Y12141502D03*
X17284332Y12141502D03*
X18984332Y13041502D03*
X19384332Y13041502D03*
%TO.N,Net-(D1-A)*%
X19834332Y5691502D03*
%TO.N,Net-(U3-VSET)*%
X-13815668Y44041502D03*
X-14915668Y42441502D03*
%TO.N,+1V8_ALW*%
X17095648Y9089286D03*
X9834332Y16641502D03*
X17459012Y7936601D03*
X19591352Y8685420D03*
%TO.N,ALERT*%
X7584332Y16641502D03*
X16998332Y7891502D03*
%TO.N,SAFEMODE*%
X18184059Y8274697D03*
X12484332Y16141502D03*
%TD*%
D12*
%TO.N,+3V3*%
X19684332Y16741502D02*
X20084332Y16741502D01*
D13*
X23934332Y45291502D02*
X24234332Y45691502D01*
X22584332Y23941502D02*
X24184332Y23941502D01*
X24584332Y47941502D02*
X24584332Y47141502D01*
D12*
X19084332Y14841502D02*
X19484332Y14841502D01*
X18984332Y14241502D02*
X19384332Y14241502D01*
D13*
X23586974Y46755603D02*
X23955502Y46379002D01*
D12*
X19684332Y16341502D02*
X20084332Y16341502D01*
X19584332Y15441502D02*
X20084332Y15741502D01*
D13*
X23955502Y46379002D02*
X24184332Y47141502D01*
X23184332Y46591502D02*
X23934332Y45291502D01*
X22584332Y23141502D02*
X23384332Y23941502D01*
X23434332Y46141502D02*
X23955502Y46379002D01*
D12*
X20084332Y15741502D02*
X20084332Y15341502D01*
D13*
X24584332Y47941502D02*
X24184332Y47541502D01*
X24234332Y45691502D02*
X24334332Y46141502D01*
D12*
X19484332Y14841502D02*
X20084332Y15741502D01*
D13*
X23784332Y47141502D02*
X24184332Y47541502D01*
X22584332Y23141502D02*
X24184332Y23141502D01*
D12*
X20084332Y17841502D02*
X20084332Y17441502D01*
X19684332Y17841502D02*
X20084332Y17841502D01*
X19684332Y16741502D02*
X19684332Y16341502D01*
X19884332Y14941502D02*
X19484332Y14841502D01*
X19584332Y15441502D02*
X19884332Y14941502D01*
D13*
X23586974Y46755603D02*
X24334332Y46141502D01*
X23434332Y46141502D02*
X23586974Y46755603D01*
D12*
X19684332Y16741502D02*
X20084332Y16341502D01*
D13*
X24184332Y47541502D02*
X24350023Y46697893D01*
X23784332Y47141502D02*
X23184332Y46591502D01*
X23955502Y46379002D02*
X24234332Y45691502D01*
D12*
X20084332Y17441502D02*
X19684332Y17441502D01*
X19684332Y17841502D02*
X19684332Y17441502D01*
X20084332Y15341502D02*
X19884332Y14941502D01*
X19684332Y17841502D02*
X20084332Y17441502D01*
D13*
X23384332Y23141502D02*
X24184332Y23941502D01*
X22584332Y23941502D02*
X22584332Y23141502D01*
X23784332Y47141502D02*
X23934332Y45291502D01*
X24184332Y23541502D02*
X22584332Y23541502D01*
X24584332Y47541502D02*
X24184332Y47141502D01*
X23784332Y47141502D02*
X24350023Y46697893D01*
X24334332Y46141502D02*
X24350023Y46697893D01*
X23586974Y46755603D02*
X23701256Y45721429D01*
D12*
X19084332Y14841502D02*
X19584332Y15441502D01*
X20084332Y16741502D02*
X20084332Y16341502D01*
D13*
X23384332Y23941502D02*
X24184332Y23141502D01*
X22584332Y23941502D02*
X23384332Y23141502D01*
X23701256Y45721429D02*
X24350023Y46697893D01*
X24184332Y23941502D02*
X24184332Y23141502D01*
X24584332Y47141502D02*
X24350023Y46697893D01*
%TO.N,VBAT*%
X-6109635Y8996864D02*
X-5637848Y9029401D01*
X-11415668Y42541502D02*
X-11415668Y42141502D01*
X-7615668Y6541502D02*
X-7615668Y4741502D01*
X-3409137Y11257549D02*
X-4215668Y11041502D01*
X-3615668Y10141502D02*
X-3615668Y10541502D01*
X-6715668Y5641502D02*
X-8215668Y7141502D01*
X-4026552Y11805256D02*
X-4521148Y10746356D01*
X-7615668Y6541502D02*
X-8515668Y5641502D01*
X-5915668Y9341502D02*
X-5637848Y9029401D01*
X-8215668Y7141502D02*
X-9115668Y6241502D01*
X-12215668Y43841502D02*
X-12215668Y43441502D01*
X-8855138Y8968317D02*
X-9165716Y8695769D01*
X-6515668Y10241502D02*
X-6695302Y9540233D01*
X-11815668Y42541502D02*
X-11815668Y42141502D01*
X-6041307Y10239779D02*
X-5915668Y9741502D01*
X-12215668Y43041502D02*
X-11815668Y42541502D01*
X-7015668Y5941502D02*
X-7915668Y5041502D01*
D12*
X19684332Y11441502D02*
X20084332Y11441502D01*
D13*
X-6041307Y10239779D02*
X-6315668Y9341502D01*
X-6695302Y9540233D02*
X-5915668Y9341502D01*
X-4501231Y11748826D02*
X-3815668Y11041502D01*
X-8633297Y8714784D02*
X-8855138Y8968317D01*
X-11260245Y42981737D02*
X-11815668Y42541502D01*
X-6515668Y11041502D02*
X-6515668Y10641502D01*
X-11815668Y42141502D02*
X-11415668Y42141502D01*
X-12329478Y42615810D02*
X-12282593Y42202373D01*
X-12282593Y42202373D02*
X-11815668Y42541502D01*
X-4538774Y11239878D02*
X-4521148Y10746356D01*
X-9115668Y6241502D02*
X-7615668Y4741502D01*
X-6653004Y9042416D02*
X-6109635Y8996864D01*
X-4215668Y11041502D02*
X-3498762Y11742187D01*
D12*
X20084332Y11441502D02*
X19684332Y11041502D01*
D13*
X-3409137Y11257549D02*
X-3498762Y11742187D01*
X-5915668Y9341502D02*
X-5915668Y9741502D01*
X-9165716Y8695769D02*
X-8931198Y8429560D01*
D12*
X19984332Y11941502D02*
X20084332Y11441502D01*
X18984332Y12641502D02*
X19384332Y12641502D01*
D13*
X-8815668Y6541502D02*
X-7315668Y5041502D01*
X-12329478Y42615810D02*
X-11815668Y42541502D01*
D12*
X19184332Y11941502D02*
X19984332Y11941502D01*
D13*
X-3815668Y11441502D02*
X-4099579Y10540551D01*
X-4521148Y10746356D02*
X-4099579Y10540551D01*
X-4215668Y11041502D02*
X-3615668Y10541502D01*
X-4026552Y11805256D02*
X-3815668Y11041502D01*
X-8515668Y6841502D02*
X-7015668Y5341502D01*
X-6515668Y10241502D02*
X-6515668Y10641502D01*
X-4521148Y10746356D02*
X-3815668Y11041502D01*
X-11815668Y42141502D02*
X-12282593Y42202373D01*
X-6695302Y9540233D02*
X-6653004Y9042416D01*
X-12215668Y43041502D02*
X-12329478Y42615810D01*
X-3615668Y10141502D02*
X-3615668Y9741502D01*
X-11748792Y43044551D02*
X-11260245Y42981737D01*
X-4099579Y10540551D02*
X-3615668Y10141502D01*
D12*
X20084332Y11441502D02*
X20084332Y11041502D01*
D13*
X-5915668Y9741502D02*
X-6653004Y9042416D01*
X-3815668Y11441502D02*
X-3615668Y10541502D01*
X-7615668Y4741502D02*
X-6715668Y5641502D01*
X-6041307Y10239779D02*
X-6515668Y10641502D01*
X-8215668Y5341502D02*
X-7315668Y6241502D01*
D12*
X20084332Y11041502D02*
X19684332Y11041502D01*
D13*
X-3498762Y11742187D02*
X-4026552Y11805256D01*
X-6109635Y8996864D02*
X-6515668Y10241502D01*
X-4501231Y11748826D02*
X-4026552Y11805256D01*
X-12215668Y43441502D02*
X-12215668Y43041502D01*
X-4501231Y11748826D02*
X-4538774Y11239878D01*
X-12215668Y43441502D02*
X-11748792Y43044551D01*
X-11415668Y42141502D02*
X-11815668Y42541502D01*
X-8931198Y8429560D02*
X-8633297Y8714784D01*
X-8215668Y7141502D02*
X-8215668Y5341502D01*
X-11260245Y42981737D02*
X-11415668Y42541502D01*
X-6515668Y10241502D02*
X-6041307Y10239779D01*
X-8515668Y5641502D02*
X-8515668Y6841502D01*
X-3615668Y10541502D02*
X-3409137Y11257549D01*
X-11748792Y43044551D02*
X-11815668Y42541502D01*
X-8815668Y5941502D02*
X-7915668Y6841502D01*
X-12215668Y43041502D02*
X-11748792Y43044551D01*
X-7315668Y5041502D02*
X-7315668Y6241502D01*
D12*
X19584332Y11941502D02*
X20084332Y11441502D01*
D13*
X-7015668Y5941502D02*
X-7015668Y5341502D01*
X-8815668Y6541502D02*
X-8815668Y5941502D01*
X-7915668Y5041502D02*
X-7915668Y6841502D01*
D12*
X19684332Y11041502D02*
X19684332Y11441502D01*
X19684332Y11441502D02*
X19184332Y11941502D01*
%TO.N,Net-(U4-LX2)*%
X17684332Y14341502D02*
X17684332Y14741502D01*
X17284332Y14741502D02*
X16884332Y14341502D01*
X16884332Y14741502D02*
X16884332Y14341502D01*
X16884332Y14741502D02*
X17684332Y14741502D01*
X19384332Y13841502D02*
X18984332Y13841502D01*
X17284332Y14341502D02*
X17684332Y14741502D01*
X16884332Y14341502D02*
X17684332Y14341502D01*
X16884332Y14741502D02*
X17684332Y14341502D01*
%TO.N,Net-(U4-LX1)*%
X16884332Y12541502D02*
X17684332Y12541502D01*
X17284332Y12141502D02*
X17284332Y12541502D01*
X18984332Y13041502D02*
X19384332Y13041502D01*
X16884332Y12541502D02*
X17684332Y12141502D01*
X17684332Y12541502D02*
X17284332Y12141502D01*
X16884332Y12141502D02*
X16884332Y12541502D01*
X17284332Y12141502D02*
X16884332Y12541502D01*
X17684332Y12541502D02*
X17684332Y12141502D01*
X16884332Y12141502D02*
X17684332Y12141502D01*
%TD*%
%TA.AperFunction,Conductor*%
%TO.N,GND*%
G36*
X-15226026Y48118139D02*
G01*
X-15213300Y48087415D01*
X-15226026Y48056691D01*
X-15232611Y48051287D01*
X-15288266Y48014101D01*
X-15288267Y48014100D01*
X-15341178Y47934911D01*
X-15359758Y47841502D01*
X-15341178Y47748093D01*
X-15288266Y47668904D01*
X-15209077Y47615992D01*
X-15115668Y47597412D01*
X-15022259Y47615992D01*
X-14943070Y47668904D01*
X-14890158Y47748093D01*
X-14871578Y47841502D01*
X-14890158Y47934911D01*
X-14943070Y48014100D01*
X-14998726Y48051288D01*
X-15017201Y48078938D01*
X-15010714Y48111554D01*
X-14983063Y48130030D01*
X-14974586Y48130865D01*
X-10776163Y48130865D01*
X-10776160Y48130863D01*
X-10751360Y48130865D01*
X-10747109Y48130657D01*
X-10577995Y48114011D01*
X-10569649Y48112352D01*
X-10409077Y48063653D01*
X-10401212Y48060394D01*
X-10384172Y48051287D01*
X-10253241Y47981311D01*
X-10246158Y47976579D01*
X-10116457Y47870145D01*
X-10110434Y47864123D01*
X-10003989Y47734429D01*
X-9999256Y47727346D01*
X-9920162Y47579379D01*
X-9916902Y47571510D01*
X-9868194Y47410952D01*
X-9866532Y47402597D01*
X-9849947Y47234228D01*
X-9849738Y47229969D01*
X-9849738Y19023134D01*
X-9834438Y18986196D01*
X-9806167Y18957925D01*
X-9769229Y18942625D01*
X-9769228Y18942625D01*
X19470752Y18942625D01*
X19470753Y18942625D01*
X19507691Y18957925D01*
X19519268Y18969502D01*
X19793242Y18969502D01*
X19811822Y18876093D01*
X19864734Y18796904D01*
X19943923Y18743992D01*
X20037332Y18725412D01*
X20130741Y18743992D01*
X20209930Y18796904D01*
X20262842Y18876093D01*
X20281422Y18969502D01*
X20262842Y19062911D01*
X20209930Y19142100D01*
X20130741Y19195012D01*
X20037332Y19213592D01*
X19943923Y19195012D01*
X19864734Y19142101D01*
X19864733Y19142100D01*
X19811822Y19062911D01*
X19793242Y18969502D01*
X19519268Y18969502D01*
X19535962Y18986196D01*
X19551262Y19023134D01*
X19551262Y23994096D01*
X22319931Y23994096D01*
X22319931Y23883856D01*
X22319932Y23883847D01*
X22319932Y23197604D01*
X22319931Y23197590D01*
X22319931Y23088909D01*
X22340057Y23040323D01*
X22340057Y23040321D01*
X22340058Y23040321D01*
X22360184Y22991731D01*
X22434561Y22917354D01*
X22482706Y22897412D01*
X22531740Y22877101D01*
X22531741Y22877101D01*
X22641979Y22877101D01*
X22641987Y22877102D01*
X23326677Y22877102D01*
X23326685Y22877101D01*
X23331740Y22877101D01*
X23441980Y22877101D01*
X23441988Y22877102D01*
X24126677Y22877102D01*
X24126685Y22877101D01*
X24131740Y22877101D01*
X24236925Y22877101D01*
X24293850Y22900682D01*
X24334103Y22917354D01*
X24408480Y22991731D01*
X24425152Y23031984D01*
X24448733Y23088909D01*
X24448733Y23194094D01*
X24448733Y23197590D01*
X24448732Y23197604D01*
X24448732Y23883847D01*
X24448733Y23883856D01*
X24448733Y23994094D01*
X24448732Y23994096D01*
X24418927Y24066050D01*
X24408480Y24091273D01*
X24334103Y24165650D01*
X24285958Y24185592D01*
X24285957Y24185593D01*
X24285956Y24185593D01*
X24236926Y24205903D01*
X24236925Y24205903D01*
X24131740Y24205903D01*
X24126685Y24205903D01*
X24126677Y24205902D01*
X23441988Y24205902D01*
X23441980Y24205903D01*
X23436925Y24205903D01*
X23331740Y24205903D01*
X23326685Y24205903D01*
X23326677Y24205902D01*
X22641987Y24205902D01*
X22641979Y24205903D01*
X22636924Y24205903D01*
X22531740Y24205903D01*
X22483150Y24185776D01*
X22482706Y24185592D01*
X22434559Y24165649D01*
X22360184Y24091274D01*
X22349737Y24066050D01*
X22349736Y24066049D01*
X22319931Y23994096D01*
X19551262Y23994096D01*
X19551262Y40041502D01*
X20240242Y40041502D01*
X20258822Y39948093D01*
X20311734Y39868904D01*
X20390923Y39815992D01*
X20484332Y39797412D01*
X20577741Y39815992D01*
X20656930Y39868904D01*
X20709842Y39948093D01*
X20728422Y40041502D01*
X20709842Y40134911D01*
X20656930Y40214100D01*
X20577741Y40267012D01*
X20484332Y40285592D01*
X20390923Y40267012D01*
X20311734Y40214101D01*
X20311733Y40214100D01*
X20258822Y40134911D01*
X20240242Y40041502D01*
X19551262Y40041502D01*
X19551262Y41941502D01*
X20240242Y41941502D01*
X20258822Y41848093D01*
X20311734Y41768904D01*
X20390923Y41715992D01*
X20484332Y41697412D01*
X20577741Y41715992D01*
X20656930Y41768904D01*
X20709842Y41848093D01*
X20728422Y41941502D01*
X20709842Y42034911D01*
X20656930Y42114100D01*
X20577741Y42167012D01*
X20484332Y42185592D01*
X20390923Y42167012D01*
X20311734Y42114101D01*
X20311733Y42114100D01*
X20266092Y42045791D01*
X20258822Y42034911D01*
X20240242Y41941502D01*
X19551262Y41941502D01*
X19551262Y45279941D01*
X19551472Y45284205D01*
X19566253Y45434107D01*
X19568145Y45453301D01*
X19569807Y45461651D01*
X19577794Y45487973D01*
X19618524Y45622208D01*
X19621774Y45630054D01*
X19700880Y45778039D01*
X19705604Y45785107D01*
X19812042Y45914803D01*
X19818058Y45920820D01*
X19947757Y46027269D01*
X19954825Y46031992D01*
X20102793Y46111097D01*
X20110650Y46114353D01*
X20271213Y46163079D01*
X20279552Y46164738D01*
X20448244Y46181379D01*
X20452509Y46181588D01*
X22328022Y46181588D01*
X22348012Y46181585D01*
X22348019Y46181588D01*
X22348027Y46181588D01*
X22368376Y46190017D01*
X22383596Y46196319D01*
X22384805Y46196770D01*
X22384950Y46196880D01*
X22384952Y46196880D01*
X22384953Y46196882D01*
X22384959Y46196887D01*
X22384965Y46196888D01*
X22384974Y46196898D01*
X22385503Y46197295D01*
X22386626Y46198550D01*
X22402106Y46214030D01*
X22843836Y46655632D01*
X22874560Y46668353D01*
X22905282Y46655622D01*
X22917993Y46625876D01*
X22918132Y46619652D01*
X22915334Y46609220D01*
X22918990Y46581377D01*
X22919043Y46579022D01*
X22918903Y46578664D01*
X22919013Y46576163D01*
X22917895Y46550447D01*
X22917896Y46550443D01*
X22924330Y46532776D01*
X22925962Y46528294D01*
X22929031Y46504930D01*
X22943782Y46479361D01*
X22945080Y46475797D01*
X22945081Y46475796D01*
X22953891Y46451609D01*
X22966592Y46437753D01*
X22972198Y46430106D01*
X23018904Y46349150D01*
X23154363Y46114354D01*
X23167068Y46092333D01*
X23169879Y46086493D01*
X23171868Y46081424D01*
X23171928Y46079718D01*
X23176321Y46070077D01*
X23176750Y46068984D01*
X23176733Y46068120D01*
X23179270Y46059568D01*
X23180673Y46050227D01*
X23180674Y46050225D01*
X23198725Y46020230D01*
X23198724Y46020230D01*
X23200009Y46018095D01*
X23215545Y45984004D01*
X23226901Y45973414D01*
X23230041Y45968197D01*
X23230043Y45968195D01*
X23234913Y45960102D01*
X23242338Y45954616D01*
X23254153Y45941383D01*
X23676968Y45208505D01*
X23677005Y45208440D01*
X23679808Y45203561D01*
X23680026Y45202046D01*
X23702131Y45164714D01*
X23702325Y45164376D01*
X23702329Y45164340D01*
X23703319Y45162546D01*
X23723019Y45124109D01*
X23723784Y45123142D01*
X23729704Y45116694D01*
X23730923Y45114983D01*
X23731594Y45113821D01*
X23731942Y45113554D01*
X23732459Y45112829D01*
X23732763Y45112487D01*
X23733553Y45111586D01*
X23733617Y45111538D01*
X23733618Y45111537D01*
X23762340Y45089996D01*
X23768165Y45085627D01*
X23770230Y45083978D01*
X23803166Y45055983D01*
X23803167Y45055983D01*
X23803169Y45055981D01*
X23804249Y45055380D01*
X23812171Y45051696D01*
X23813950Y45050584D01*
X23815022Y45049761D01*
X23815450Y45049646D01*
X23816201Y45049177D01*
X23816533Y45049015D01*
X23817680Y45048449D01*
X23859625Y45037702D01*
X23862160Y45036970D01*
X23903280Y45023717D01*
X23903284Y45023718D01*
X23904531Y45023573D01*
X23913249Y45023201D01*
X23915294Y45022859D01*
X23916614Y45022504D01*
X23917057Y45022563D01*
X23917925Y45022417D01*
X23918394Y45022388D01*
X23919582Y45022310D01*
X23919659Y45022322D01*
X23919660Y45022321D01*
X23962474Y45028439D01*
X23965044Y45028726D01*
X24008120Y45032217D01*
X24008124Y45032220D01*
X24009323Y45032560D01*
X24017530Y45035557D01*
X24019557Y45036025D01*
X24020904Y45036201D01*
X24021289Y45036424D01*
X24022159Y45036624D01*
X24022189Y45036634D01*
X24022662Y45036797D01*
X24023717Y45037155D01*
X24023785Y45037196D01*
X24023788Y45037196D01*
X24060978Y45059219D01*
X24063267Y45060481D01*
X24101728Y45080191D01*
X24101731Y45080194D01*
X24102703Y45080964D01*
X24109145Y45086880D01*
X24110835Y45088085D01*
X24112013Y45088764D01*
X24112284Y45089118D01*
X24113006Y45089632D01*
X24113347Y45089934D01*
X24114249Y45090726D01*
X24114294Y45090787D01*
X24114297Y45090788D01*
X24140211Y45125343D01*
X24140279Y45125382D01*
X24141855Y45127402D01*
X24169851Y45160336D01*
X24169853Y45160343D01*
X24170460Y45161432D01*
X24174140Y45169347D01*
X24175243Y45171112D01*
X24176073Y45172192D01*
X24176188Y45172624D01*
X24177803Y45175206D01*
X24178190Y45175482D01*
X24179880Y45178235D01*
X24412186Y45487977D01*
X24417951Y45493308D01*
X24417560Y45493717D01*
X24420648Y45496672D01*
X24420652Y45496673D01*
X24434766Y45516811D01*
X24439846Y45522816D01*
X24457366Y45540077D01*
X24463188Y45553847D01*
X24466726Y45560525D01*
X24467531Y45561771D01*
X24477407Y45574936D01*
X24478294Y45578401D01*
X24480773Y45582231D01*
X24481024Y45582803D01*
X24481027Y45582806D01*
X24486360Y45606814D01*
X24488754Y45614302D01*
X24498336Y45636955D01*
X24498445Y45651903D01*
X24499159Y45659422D01*
X24499429Y45660895D01*
X24503513Y45676830D01*
X24503006Y45680372D01*
X24504288Y45687347D01*
X24504564Y45687774D01*
X24504607Y45688921D01*
X24553340Y45908216D01*
X24572428Y45935446D01*
X24605181Y45941204D01*
X24632412Y45922116D01*
X24639205Y45898789D01*
X24639205Y45784236D01*
X24638996Y45779974D01*
X24622330Y45610868D01*
X24620667Y45602515D01*
X24571959Y45441975D01*
X24568700Y45434107D01*
X24489608Y45286145D01*
X24484876Y45279063D01*
X24378441Y45149373D01*
X24372419Y45143351D01*
X24242729Y45036916D01*
X24235647Y45032184D01*
X24087685Y44953091D01*
X24079817Y44949832D01*
X23919272Y44901123D01*
X23910919Y44899461D01*
X23741858Y44882798D01*
X23737596Y44882588D01*
X22558752Y44882588D01*
X22558749Y44882590D01*
X22531820Y44882588D01*
X22507881Y44882588D01*
X22507570Y44882559D01*
X22435542Y44882552D01*
X22245925Y44849103D01*
X22245920Y44849102D01*
X22103666Y44797317D01*
X22064983Y44783235D01*
X22064981Y44783235D01*
X22064981Y44783234D01*
X22064978Y44783233D01*
X21898233Y44686958D01*
X21750725Y44563183D01*
X21750722Y44563181D01*
X21626952Y44415686D01*
X21576108Y44327630D01*
X21539749Y44264661D01*
X21530667Y44248933D01*
X21464795Y44067995D01*
X21464794Y44067992D01*
X21431340Y43878379D01*
X21431332Y43805592D01*
X21431332Y43802085D01*
X21431330Y43802079D01*
X21431330Y43786427D01*
X21431330Y43782101D01*
X21431326Y43749284D01*
X21431330Y43749255D01*
X21431330Y29099972D01*
X21431330Y29059990D01*
X21446630Y29023052D01*
X21474901Y28994781D01*
X21511839Y28979481D01*
X24249008Y28979481D01*
X24253266Y28979273D01*
X24422374Y28962615D01*
X24430721Y28960954D01*
X24591278Y28912247D01*
X24599141Y28908990D01*
X24747104Y28829901D01*
X24754186Y28825169D01*
X24883877Y28718734D01*
X24889900Y28712712D01*
X24996334Y28583023D01*
X25001066Y28575941D01*
X25080157Y28427976D01*
X25083417Y28420106D01*
X25132121Y28259559D01*
X25133783Y28251206D01*
X25150437Y28082143D01*
X25150646Y28077877D01*
X25147974Y8685420D01*
X25147974Y8685419D01*
X25147973Y8679580D01*
X25147895Y8676990D01*
X25134593Y8454796D01*
X25133976Y8449653D01*
X25094552Y8231892D01*
X25093327Y8226858D01*
X25028264Y8015331D01*
X25026448Y8010479D01*
X24936677Y7808213D01*
X24934297Y7803611D01*
X24821084Y7613460D01*
X24818173Y7609175D01*
X24682378Y7432870D01*
X24680735Y7430864D01*
X24678707Y7428534D01*
X24678708Y7428533D01*
X16537662Y-1929134D01*
X16537657Y-1929141D01*
X16526363Y-1942123D01*
X16523817Y-1944810D01*
X16417481Y-2047782D01*
X16411730Y-2052469D01*
X16290975Y-2134792D01*
X16284510Y-2138433D01*
X16151505Y-2199014D01*
X16144515Y-2201501D01*
X16003151Y-2238567D01*
X15995840Y-2239829D01*
X15848288Y-2252472D01*
X15844579Y-2252631D01*
X7491305Y-2252631D01*
X7451323Y-2252631D01*
X7432854Y-2260281D01*
X7414384Y-2267931D01*
X7386114Y-2296201D01*
X7386114Y-2296202D01*
X7370814Y-2333140D01*
X7370814Y-6021090D01*
X7370813Y-6021092D01*
X7370813Y-6032658D01*
X7370813Y-6045179D01*
X7370813Y-6045180D01*
X7370444Y-6050833D01*
X7358025Y-6145472D01*
X7355106Y-6156399D01*
X7319778Y-6241973D01*
X7314138Y-6251777D01*
X7257920Y-6325335D01*
X7249941Y-6333351D01*
X7176641Y-6389908D01*
X7166863Y-6395593D01*
X7081452Y-6431315D01*
X7070538Y-6434284D01*
X6976144Y-6447111D01*
X6970278Y-6447507D01*
X6430573Y-6447317D01*
X6430177Y-6447317D01*
X6430175Y-6447316D01*
X6426940Y-6447316D01*
X6424843Y-6447265D01*
X6148823Y-6433846D01*
X6144655Y-6433441D01*
X5872259Y-6393664D01*
X5868148Y-6392860D01*
X5600837Y-6327039D01*
X5596824Y-6325843D01*
X5337087Y-6234590D01*
X5333207Y-6233012D01*
X5083481Y-6117183D01*
X5079771Y-6115240D01*
X4841183Y-5975216D01*
X4839402Y-5974112D01*
X4819869Y-5961344D01*
X4819866Y-5961342D01*
X4819866Y-5961343D01*
X2592079Y-4505192D01*
X2542982Y-4473101D01*
X6540242Y-4473101D01*
X6558822Y-4566510D01*
X6611734Y-4645699D01*
X6690923Y-4698611D01*
X6784332Y-4717191D01*
X6877741Y-4698611D01*
X6956930Y-4645699D01*
X7009842Y-4566510D01*
X7028422Y-4473101D01*
X7009842Y-4379692D01*
X6956930Y-4300503D01*
X6877741Y-4247591D01*
X6784332Y-4229011D01*
X6690923Y-4247591D01*
X6611734Y-4300502D01*
X6611733Y-4300503D01*
X6558822Y-4379692D01*
X6540242Y-4473101D01*
X2542982Y-4473101D01*
X-599218Y-2419261D01*
X-599706Y-2418842D01*
X-605605Y-2415008D01*
X-626473Y-2401445D01*
X-627029Y-2401077D01*
X-1192749Y-2019434D01*
X-1193971Y-2018578D01*
X-1745876Y-1618007D01*
X-1747055Y-1617120D01*
X-2284935Y-1197787D01*
X-2286094Y-1196851D01*
X-2809220Y-759324D01*
X-2810348Y-758347D01*
X-3318139Y-303115D01*
X-3319233Y-302100D01*
X-3811590Y170781D01*
X-3812123Y171302D01*
X-3830646Y189714D01*
X-3830739Y189806D01*
X-3830786Y189853D01*
X-3830786Y189854D01*
X-9945092Y6267558D01*
X-9971790Y6294096D01*
X-9380069Y6294096D01*
X-9380069Y6188909D01*
X-9339817Y6091733D01*
X-9339815Y6091731D01*
X-9039817Y5791733D01*
X-9039816Y5791731D01*
X-8965439Y5717354D01*
X-8965438Y5717354D01*
X-8739817Y5491733D01*
X-8739816Y5491731D01*
X-8665439Y5417354D01*
X-8665438Y5417354D01*
X-8439817Y5191733D01*
X-8439816Y5191731D01*
X-8365439Y5117354D01*
X-8365438Y5117354D01*
X-8139817Y4891733D01*
X-8139816Y4891731D01*
X-8065439Y4817354D01*
X-8065438Y4817354D01*
X-7839817Y4591733D01*
X-7839816Y4591731D01*
X-7765439Y4517354D01*
X-7717294Y4497412D01*
X-7668260Y4477101D01*
X-7668259Y4477101D01*
X-7563077Y4477101D01*
X-7563076Y4477101D01*
X-7514042Y4497412D01*
X-7465897Y4517354D01*
X-7391520Y4591731D01*
X-7391520Y4591733D01*
X-7165899Y4817354D01*
X-7165897Y4817354D01*
X-7091520Y4891731D01*
X-7091520Y4891733D01*
X-6865899Y5117354D01*
X-6865897Y5117354D01*
X-6791520Y5191731D01*
X-6791520Y5191733D01*
X-6491521Y5491731D01*
X-6451267Y5588909D01*
X-6451267Y5694094D01*
X-6460902Y5717354D01*
X-6491520Y5791272D01*
X-6791520Y6091272D01*
X-6791520Y6091273D01*
X-6865897Y6165650D01*
X-6865899Y6165651D01*
X-7091520Y6391272D01*
X-7091520Y6391273D01*
X-7165897Y6465650D01*
X-7165899Y6465651D01*
X-7391520Y6691272D01*
X-7391520Y6691273D01*
X-7465897Y6765650D01*
X-7465899Y6765651D01*
X-7691520Y6991272D01*
X-7691520Y6991273D01*
X-7765897Y7065650D01*
X-7765899Y7065651D01*
X-7991520Y7291272D01*
X-7991520Y7291273D01*
X-8065897Y7365650D01*
X-8114487Y7385776D01*
X-8114487Y7385777D01*
X-8114489Y7385777D01*
X-8163075Y7405903D01*
X-8163076Y7405903D01*
X-8268261Y7405903D01*
X-8268263Y7405903D01*
X-8317293Y7385593D01*
X-8317294Y7385592D01*
X-8365439Y7365650D01*
X-8365441Y7365649D01*
X-9039817Y6691272D01*
X-9265439Y6465649D01*
X-9339817Y6391272D01*
X-9380069Y6294096D01*
X-9971790Y6294096D01*
X-12320012Y8628261D01*
X-12352434Y8660489D01*
X-9432980Y8660489D01*
X-9432948Y8660255D01*
X-9432948Y8660252D01*
X-9432912Y8659985D01*
X-9415930Y8610323D01*
X-9415928Y8610319D01*
X-9399135Y8560903D01*
X-9398962Y8560706D01*
X-9398876Y8560455D01*
X-9364188Y8521080D01*
X-9329757Y8481844D01*
X-9329521Y8481728D01*
X-9171139Y8301942D01*
X-9165700Y8295769D01*
X-9161070Y8288160D01*
X-9160845Y8288302D01*
X-9158548Y8284696D01*
X-9126605Y8251335D01*
X-9125391Y8250014D01*
X-9111972Y8234781D01*
X-9094829Y8215321D01*
X-9094828Y8215320D01*
X-9089730Y8212820D01*
X-9085805Y8208721D01*
X-9042702Y8189760D01*
X-9041880Y8189356D01*
X-9000387Y8169009D01*
X-8994719Y8168651D01*
X-8989525Y8166365D01*
X-8942439Y8165342D01*
X-8908080Y8163167D01*
X-8895415Y8162365D01*
X-8895414Y8162366D01*
X-8895411Y8162365D01*
X-8895408Y8162366D01*
X-8890037Y8164203D01*
X-8884365Y8164079D01*
X-8840475Y8181152D01*
X-8795884Y8196400D01*
X-8791624Y8200154D01*
X-8786334Y8202211D01*
X-8752318Y8234781D01*
X-8716958Y8265930D01*
X-8716956Y8265936D01*
X-8714359Y8269333D01*
X-8714147Y8269171D01*
X-8708892Y8276359D01*
X-8454727Y8519708D01*
X-8419609Y8550435D01*
X-8416890Y8555935D01*
X-8412458Y8560177D01*
X-8393666Y8602895D01*
X-8372981Y8644720D01*
X-8372573Y8650841D01*
X-8370102Y8656457D01*
X-8369088Y8703119D01*
X-8365984Y8749672D01*
X-8367950Y8755483D01*
X-8367816Y8761617D01*
X-8384383Y8804205D01*
X-8385046Y8806031D01*
X-8386725Y8810996D01*
X-8399684Y8849313D01*
X-8399685Y8849314D01*
X-8399685Y8849315D01*
X-8403725Y8853932D01*
X-8405948Y8859648D01*
X-8438209Y8893343D01*
X-8438836Y8894059D01*
X-8438858Y8894083D01*
X-8542119Y9012096D01*
X-8618734Y9099657D01*
X-8619219Y9100334D01*
X-8656278Y9142564D01*
X-8656279Y9142565D01*
X-8690789Y9182005D01*
X-8690968Y9182094D01*
X-8691098Y9182242D01*
X-8691105Y9182246D01*
X-8737784Y9205247D01*
X-8737778Y9205260D01*
X-8737840Y9205275D01*
X-8785074Y9228634D01*
X-8785076Y9228635D01*
X-8785440Y9228734D01*
X-8837594Y9232135D01*
X-8837625Y9232151D01*
X-8837655Y9232139D01*
X-8890027Y9235631D01*
X-8890411Y9235581D01*
X-8923395Y9224373D01*
X-8940373Y9218604D01*
X-8940868Y9218436D01*
X-8989667Y9201930D01*
X-8989816Y9201801D01*
X-8990004Y9201736D01*
X-8990041Y9201705D01*
X-8990041Y9201704D01*
X-9011703Y9182695D01*
X-9021091Y9174456D01*
X-9029491Y9167085D01*
X-9029492Y9167086D01*
X-9029537Y9167047D01*
X-9029537Y9167045D01*
X-9029787Y9166827D01*
X-9030084Y9166568D01*
X-9068826Y9132666D01*
X-9068914Y9132491D01*
X-9072241Y9129570D01*
X-9297410Y8931974D01*
X-9298307Y8931328D01*
X-9339084Y8895407D01*
X-9340396Y8894251D01*
X-9379641Y8859810D01*
X-9379758Y8859575D01*
X-9379956Y8859399D01*
X-9379975Y8859360D01*
X-9403082Y8812242D01*
X-9403123Y8812156D01*
X-9426133Y8765457D01*
X-9426151Y8765196D01*
X-9426267Y8764957D01*
X-9426270Y8764921D01*
X-9426271Y8764917D01*
X-9429583Y8712572D01*
X-9429588Y8712489D01*
X-9432980Y8660489D01*
X-12352434Y8660489D01*
X-13218868Y9521736D01*
X-13251915Y9554585D01*
X-6964502Y9554585D01*
X-6958280Y9511405D01*
X-6957992Y9508888D01*
X-6918655Y9045921D01*
X-6918651Y9038613D01*
X-6920874Y9012099D01*
X-6920874Y9012096D01*
X-6920742Y9011685D01*
X-6919862Y9008521D01*
X-6918549Y9002997D01*
X-6918711Y8996880D01*
X-6914456Y8985780D01*
X-6913787Y8982967D01*
X-6913968Y8981843D01*
X-6912765Y8976599D01*
X-6912003Y8967631D01*
X-6912003Y8967630D01*
X-6912002Y8967628D01*
X-6901896Y8948094D01*
X-6899774Y8943993D01*
X-6898154Y8940486D01*
X-6897497Y8938881D01*
X-6888880Y8911894D01*
X-6884172Y8906324D01*
X-6881572Y8899972D01*
X-6881574Y8899678D01*
X-6881216Y8899073D01*
X-6881059Y8898665D01*
X-6874864Y8892131D01*
X-6867806Y8882205D01*
X-6863667Y8874206D01*
X-6843327Y8857052D01*
X-6840486Y8854431D01*
X-6839273Y8853208D01*
X-6820977Y8831563D01*
X-6814491Y8828217D01*
X-6809660Y8823345D01*
X-6809548Y8823072D01*
X-6808986Y8822650D01*
X-6808688Y8822335D01*
X-6800467Y8818671D01*
X-6790144Y8812199D01*
X-6783262Y8806394D01*
X-6783261Y8806394D01*
X-6783260Y8806393D01*
X-6757886Y8798323D01*
X-6754272Y8796994D01*
X-6752688Y8796330D01*
X-6727500Y8783334D01*
X-6720234Y8782726D01*
X-6713906Y8780073D01*
X-6713697Y8779862D01*
X-6713012Y8779686D01*
X-6712616Y8779509D01*
X-6703615Y8779270D01*
X-6691605Y8777242D01*
X-6683023Y8774512D01*
X-6656499Y8776767D01*
X-6649201Y8776770D01*
X-6188190Y8738124D01*
X-6187807Y8738089D01*
X-6183144Y8737645D01*
X-6182504Y8737319D01*
X-6167691Y8736172D01*
X-6167323Y8736136D01*
X-6167048Y8735990D01*
X-6157621Y8734074D01*
X-6143911Y8729472D01*
X-6114899Y8731473D01*
X-6108730Y8731459D01*
X-6108539Y8731445D01*
X-6079315Y8728995D01*
X-6078545Y8729242D01*
X-6077695Y8729179D01*
X-6077659Y8729183D01*
X-6077635Y8729192D01*
X-6077633Y8729191D01*
X-6063889Y8733676D01*
X-6053410Y8735714D01*
X-5636424Y8764472D01*
X-5600683Y8762394D01*
X-5584391Y8768060D01*
X-5567189Y8769246D01*
X-5537610Y8783960D01*
X-5532545Y8786091D01*
X-5501333Y8796943D01*
X-5492792Y8804546D01*
X-5483250Y8810996D01*
X-5480457Y8812386D01*
X-5473010Y8816089D01*
X-5449498Y8843085D01*
X-5422767Y8866879D01*
X-5415256Y8882400D01*
X-5403926Y8895407D01*
X-5392536Y8929344D01*
X-5376944Y8961558D01*
X-5375944Y8978777D01*
X-5370456Y8995125D01*
X-5372730Y9028074D01*
X-5372759Y9033583D01*
X-5370841Y9066566D01*
X-5376507Y9082859D01*
X-5377693Y9100060D01*
X-5393635Y9132112D01*
X-5405390Y9165916D01*
X-5406494Y9167156D01*
X-5412991Y9174456D01*
X-5419438Y9183993D01*
X-5424533Y9194236D01*
X-5424536Y9194240D01*
X-5449455Y9215944D01*
X-5453371Y9219818D01*
X-5640272Y9429782D01*
X-5651268Y9458672D01*
X-5651268Y9541502D01*
X-5159758Y9541502D01*
X-5141178Y9448093D01*
X-5137196Y9442134D01*
X-5088267Y9368905D01*
X-5088263Y9368901D01*
X-5026495Y9327629D01*
X-5008019Y9299979D01*
X-5014507Y9267363D01*
X-5026495Y9255375D01*
X-5088263Y9214104D01*
X-5088267Y9214100D01*
X-5136065Y9142563D01*
X-5141178Y9134911D01*
X-5159758Y9041502D01*
X-5141178Y8948093D01*
X-5105976Y8895409D01*
X-5097154Y8882205D01*
X-5088266Y8868904D01*
X-5009077Y8815992D01*
X-4915668Y8797412D01*
X-4822259Y8815992D01*
X-4743070Y8868904D01*
X-4690158Y8948093D01*
X-4671578Y9041502D01*
X-1759758Y9041502D01*
X-1741178Y8948093D01*
X-1705976Y8895409D01*
X-1697154Y8882205D01*
X-1688266Y8868904D01*
X-1609077Y8815992D01*
X-1515668Y8797412D01*
X-1422259Y8815992D01*
X-1343070Y8868904D01*
X-1290158Y8948093D01*
X-1271578Y9041502D01*
X-1290158Y9134911D01*
X-1343070Y9214100D01*
X-1343076Y9214104D01*
X-1369348Y9231659D01*
X-1422259Y9267012D01*
X-1515668Y9285592D01*
X-1609077Y9267012D01*
X-1688266Y9214101D01*
X-1688267Y9214100D01*
X-1736065Y9142563D01*
X-1741178Y9134911D01*
X-1759758Y9041502D01*
X-4671578Y9041502D01*
X-4690158Y9134911D01*
X-4743070Y9214100D01*
X-4743076Y9214104D01*
X-4775294Y9235631D01*
X-4804843Y9255375D01*
X-4823318Y9283025D01*
X-4816831Y9315641D01*
X-4804844Y9327629D01*
X-4743070Y9368904D01*
X-4690158Y9448093D01*
X-4671578Y9541502D01*
X-4690158Y9634911D01*
X-4743070Y9714100D01*
X-4750453Y9719033D01*
X-4769348Y9731659D01*
X-4822259Y9767012D01*
X-4915668Y9785592D01*
X-5009077Y9767012D01*
X-5088266Y9714101D01*
X-5088267Y9714100D01*
X-5126664Y9656633D01*
X-5141178Y9634911D01*
X-5159758Y9541502D01*
X-5651268Y9541502D01*
X-5651268Y9719033D01*
X-5650808Y9725341D01*
X-5646434Y9755150D01*
X-5648931Y9765050D01*
X-5650205Y9773721D01*
X-5650275Y9775276D01*
X-5649961Y9787038D01*
X-5650916Y9789528D01*
X-5651077Y9793132D01*
X-5651268Y9794093D01*
X-5651268Y9794094D01*
X-5662803Y9821941D01*
X-5664786Y9827930D01*
X-5775455Y10266834D01*
X-5776317Y10271180D01*
X-5776781Y10274366D01*
X-5776718Y10291410D01*
X-5780665Y10301037D01*
X-5781433Y10306317D01*
X-5781260Y10307001D01*
X-5781738Y10308987D01*
X-5782156Y10314038D01*
X-5782157Y10314040D01*
X-5782166Y10314151D01*
X-5782571Y10315496D01*
X-5782740Y10316071D01*
X-5783132Y10317438D01*
X-5783186Y10317539D01*
X-5783186Y10317542D01*
X-5790316Y10330942D01*
X-5794082Y10340712D01*
X-5797790Y10355419D01*
X-5806037Y10366502D01*
X-5811379Y10375955D01*
X-5816617Y10388735D01*
X-5820189Y10392334D01*
X-5824582Y10398014D01*
X-5259758Y10398014D01*
X-5241178Y10304605D01*
X-5188266Y10225416D01*
X-5109077Y10172504D01*
X-5015668Y10153924D01*
X-4922259Y10172504D01*
X-4843070Y10225416D01*
X-4790158Y10304605D01*
X-4771578Y10398014D01*
X-4790158Y10491423D01*
X-4843070Y10570612D01*
X-4922259Y10623524D01*
X-5015668Y10642104D01*
X-5109077Y10623524D01*
X-5188266Y10570613D01*
X-5188267Y10570612D01*
X-5232869Y10503859D01*
X-5241178Y10491423D01*
X-5259758Y10398014D01*
X-5824582Y10398014D01*
X-5826732Y10400793D01*
X-5827389Y10401902D01*
X-5830301Y10407558D01*
X-5831186Y10408308D01*
X-5832027Y10409727D01*
X-5832504Y10410327D01*
X-5832593Y10410400D01*
X-5832593Y10410401D01*
X-5844299Y10420045D01*
X-5851529Y10427642D01*
X-5860580Y10439807D01*
X-5872438Y10446890D01*
X-5876131Y10449360D01*
X-5878717Y10451288D01*
X-5890723Y10463382D01*
X-5900324Y10467400D01*
X-5904603Y10470591D01*
X-5904965Y10471198D01*
X-5906709Y10472266D01*
X-6235898Y10751048D01*
X-6251119Y10780615D01*
X-6251268Y10784205D01*
X-6251268Y11094094D01*
X-6274854Y11151036D01*
X-6291520Y11191273D01*
X-6365897Y11265650D01*
X-6463076Y11305902D01*
X-6568260Y11305902D01*
X-6589894Y11296941D01*
X-6665440Y11265650D01*
X-6739816Y11191274D01*
X-6780068Y11094094D01*
X-6780068Y10694094D01*
X-6780068Y10682814D01*
X-6783510Y10672068D01*
X-6780068Y10630553D01*
X-6780068Y10280306D01*
X-6781427Y10269524D01*
X-6937345Y9660845D01*
X-6937576Y9660205D01*
X-6949289Y9614257D01*
X-6949985Y9611824D01*
X-6963205Y9570254D01*
X-6963205Y9570250D01*
X-6963166Y9569792D01*
X-6964184Y9556095D01*
X-6964292Y9555643D01*
X-6964483Y9554895D01*
X-6964478Y9554859D01*
X-6964490Y9554808D01*
X-6964502Y9554585D01*
X-13251915Y9554585D01*
X-15425305Y11714965D01*
X-15452002Y11741502D01*
X-8909758Y11741502D01*
X-8891178Y11648093D01*
X-8838266Y11568904D01*
X-8759077Y11515992D01*
X-8665668Y11497412D01*
X-8572259Y11515992D01*
X-8493070Y11568904D01*
X-8440158Y11648093D01*
X-8421578Y11741502D01*
X-5659758Y11741502D01*
X-5641178Y11648093D01*
X-5588266Y11568904D01*
X-5509077Y11515992D01*
X-5415668Y11497412D01*
X-5413359Y11497872D01*
X-5380745Y11491389D01*
X-5362265Y11463741D01*
X-5368748Y11431124D01*
X-5380737Y11419133D01*
X-5388262Y11414105D01*
X-5388267Y11414100D01*
X-5428276Y11354220D01*
X-5441178Y11334911D01*
X-5459758Y11241502D01*
X-5441178Y11148093D01*
X-5388266Y11068904D01*
X-5309077Y11015992D01*
X-5215668Y10997412D01*
X-5122259Y11015992D01*
X-5043070Y11068904D01*
X-4990158Y11148093D01*
X-4978464Y11206882D01*
X-4806328Y11206882D01*
X-4806327Y11206877D01*
X-4803604Y11198635D01*
X-4801439Y11186558D01*
X-4785915Y10751891D01*
X-4785921Y10748614D01*
X-4785941Y10748131D01*
X-4788280Y10710101D01*
X-4787539Y10707946D01*
X-4787632Y10705608D01*
X-4786969Y10701289D01*
X-4787040Y10701279D01*
X-4786280Y10697005D01*
X-4786209Y10697019D01*
X-4784511Y10688636D01*
X-4785059Y10688526D01*
X-4785030Y10688395D01*
X-4784486Y10688523D01*
X-4783502Y10684359D01*
X-4767875Y10650139D01*
X-4766627Y10647109D01*
X-4766456Y10646643D01*
X-4754071Y10610634D01*
X-4752562Y10608927D01*
X-4751753Y10606731D01*
X-4749489Y10602996D01*
X-4749553Y10602958D01*
X-4747216Y10599301D01*
X-4747154Y10599342D01*
X-4742374Y10592242D01*
X-4742839Y10591930D01*
X-4742766Y10591825D01*
X-4742312Y10592152D01*
X-4739810Y10588683D01*
X-4739808Y10588680D01*
X-4720402Y10570613D01*
X-4712269Y10563041D01*
X-4709955Y10560718D01*
X-4709625Y10560361D01*
X-4684402Y10531830D01*
X-4682355Y10530831D01*
X-4680768Y10529113D01*
X-4680693Y10529058D01*
X-4680691Y10529056D01*
X-4680690Y10529056D01*
X-4677240Y10526522D01*
X-4677284Y10526463D01*
X-4673730Y10523983D01*
X-4673689Y10524044D01*
X-4670127Y10521682D01*
X-4670125Y10521680D01*
X-4670123Y10521679D01*
X-4666556Y10519314D01*
X-4666867Y10518846D01*
X-4666760Y10518777D01*
X-4666465Y10519254D01*
X-4662828Y10517008D01*
X-4662826Y10517007D01*
X-4662823Y10517005D01*
X-4627562Y10503854D01*
X-4623697Y10502194D01*
X-4544194Y10463382D01*
X-4249461Y10319497D01*
X-4241360Y10314364D01*
X-4241007Y10314081D01*
X-4229206Y10304182D01*
X-4228291Y10303894D01*
X-4224492Y10300851D01*
X-4224435Y10300748D01*
X-4224023Y10300468D01*
X-3895874Y10029866D01*
X-3880267Y10000502D01*
X-3880068Y9996345D01*
X-3880068Y9688910D01*
X-3839816Y9591731D01*
X-3765439Y9517354D01*
X-3668260Y9477102D01*
X-3668259Y9477102D01*
X-3563077Y9477102D01*
X-3563076Y9477102D01*
X-3465897Y9517354D01*
X-3391520Y9591731D01*
X-3351268Y9688910D01*
X-3351268Y10101963D01*
X-3347449Y10114446D01*
X-3351268Y10154182D01*
X-3351268Y10194094D01*
X-3351268Y10494654D01*
X-3349301Y10507580D01*
X-3347592Y10513063D01*
X-3347593Y10513069D01*
X-3347355Y10515304D01*
X-3345895Y10522764D01*
X-3345525Y10524044D01*
X-3168938Y11136280D01*
X-3167282Y11140986D01*
X-3165545Y11145145D01*
X-3161491Y11151036D01*
X-3159838Y11158803D01*
X-3158276Y11162539D01*
X-3157382Y11163429D01*
X-3155812Y11167516D01*
X-3153870Y11170877D01*
X-3150020Y11200117D01*
X-3149593Y11202732D01*
X-3149227Y11204619D01*
X-3140518Y11234807D01*
X-3141557Y11244047D01*
X-3140286Y11250580D01*
X-3140159Y11250773D01*
X-3140131Y11251339D01*
X-3139582Y11253914D01*
X-3140288Y11257731D01*
X-3140640Y11271315D01*
X-3140133Y11275161D01*
X-3142233Y11283000D01*
X-3147770Y11303666D01*
X-3148372Y11306228D01*
X-3148755Y11308108D01*
X-3152262Y11339334D01*
X-3156757Y11347473D01*
X-3158083Y11353996D01*
X-3158040Y11354220D01*
X-3158230Y11354751D01*
X-3169121Y11413645D01*
X-3230260Y11744241D01*
X-3230675Y11757299D01*
X-3229989Y11763035D01*
X-3230525Y11764944D01*
X-3232259Y11771117D01*
X-3233874Y11783360D01*
X-3233777Y11791751D01*
X-3241953Y11812144D01*
X-3243024Y11815130D01*
X-3243848Y11817719D01*
X-3248334Y11841983D01*
X-3254668Y11851743D01*
X-3256440Y11857318D01*
X-3256406Y11857725D01*
X-3256865Y11858741D01*
X-3258427Y11864304D01*
X-3258428Y11864305D01*
X-3263617Y11870903D01*
X-3269794Y11881596D01*
X-3271313Y11885385D01*
X-3272916Y11889384D01*
X-3272918Y11889386D01*
X-3272918Y11889387D01*
X-3288258Y11905081D01*
X-3290402Y11907442D01*
X-3292158Y11909524D01*
X-3305587Y11930222D01*
X-3315171Y11936814D01*
X-3318943Y11941288D01*
X-3319066Y11941675D01*
X-3319881Y11942439D01*
X-3323453Y11946981D01*
X-3330771Y11951090D01*
X-3340571Y11958606D01*
X-3346432Y11964603D01*
X-3346436Y11964606D01*
X-3347841Y11965207D01*
X-3366629Y11973243D01*
X-3369502Y11974599D01*
X-3371921Y11975851D01*
X-3392249Y11989833D01*
X-3403628Y11992257D01*
X-3408824Y11994945D01*
X-3409086Y11995255D01*
X-3410130Y11995649D01*
X-3415170Y11998479D01*
X-3423502Y11999475D01*
X-3435427Y12002667D01*
X-3443148Y12005969D01*
X-3443151Y12005970D01*
X-3465109Y12006221D01*
X-3468291Y12006374D01*
X-3471003Y12006605D01*
X-3495128Y12011742D01*
X-3506566Y12009628D01*
X-3512394Y12010123D01*
X-3512755Y12010310D01*
X-3513869Y12010274D01*
X-3946158Y12061931D01*
X-3959385Y12065704D01*
X-3962310Y12067070D01*
X-3979309Y12067823D01*
X-3989156Y12069405D01*
X-4005538Y12074016D01*
X-4005544Y12074016D01*
X-4020655Y12072220D01*
X-4030592Y12072183D01*
X-4030873Y12072215D01*
X-4046229Y12074117D01*
X-4046728Y12073981D01*
X-4047283Y12074042D01*
X-4047377Y12074036D01*
X-4050504Y12073157D01*
X-4064171Y12071583D01*
X-4067390Y12071726D01*
X-4067392Y12071726D01*
X-4083393Y12065914D01*
X-4093096Y12063608D01*
X-4503012Y12014877D01*
X-4507525Y12014577D01*
X-4509430Y12014551D01*
X-4534230Y12016379D01*
X-4541130Y12014101D01*
X-4547802Y12014006D01*
X-4548161Y12014149D01*
X-4549087Y12014007D01*
X-4549688Y12014017D01*
X-4561350Y12009398D01*
X-4572216Y12006650D01*
X-4584666Y12005170D01*
X-4584668Y12005169D01*
X-4604689Y11993944D01*
X-4608741Y11991942D01*
X-4610502Y11991184D01*
X-4634106Y11983385D01*
X-4639608Y11978640D01*
X-4645740Y11975997D01*
X-4646127Y11975992D01*
X-4646930Y11975505D01*
X-4647480Y11975288D01*
X-4647483Y11975286D01*
X-4656489Y11966557D01*
X-4665475Y11959861D01*
X-4676414Y11953728D01*
X-4690616Y11935694D01*
X-4693594Y11932294D01*
X-4694932Y11930918D01*
X-4713754Y11914681D01*
X-4717021Y11908193D01*
X-4721674Y11903405D01*
X-4722029Y11903253D01*
X-4722584Y11902496D01*
X-4723010Y11902084D01*
X-4727993Y11890568D01*
X-4733731Y11880945D01*
X-4741493Y11871089D01*
X-4741493Y11871087D01*
X-4747712Y11848995D01*
X-4749161Y11844713D01*
X-4749868Y11842937D01*
X-4761046Y11820727D01*
X-4761582Y11813482D01*
X-4764047Y11807281D01*
X-4764318Y11807003D01*
X-4764542Y11806090D01*
X-4764778Y11805547D01*
X-4764779Y11805543D01*
X-4764975Y11792996D01*
X-4766594Y11781909D01*
X-4769991Y11769839D01*
X-4769991Y11769835D01*
X-4767282Y11747045D01*
X-4767096Y11738720D01*
X-4799229Y11303121D01*
X-4801849Y11291139D01*
X-4804884Y11283001D01*
X-4804884Y11283000D01*
X-4803608Y11247278D01*
X-4803698Y11242532D01*
X-4806328Y11206882D01*
X-4978464Y11206882D01*
X-4971578Y11241502D01*
X-4990158Y11334911D01*
X-5043070Y11414100D01*
X-5122259Y11467012D01*
X-5215668Y11485592D01*
X-5215669Y11485592D01*
X-5217982Y11485132D01*
X-5250598Y11491620D01*
X-5269073Y11519271D01*
X-5262585Y11551887D01*
X-5250599Y11563874D01*
X-5243070Y11568904D01*
X-5190158Y11648093D01*
X-5171578Y11741502D01*
X-5190158Y11834911D01*
X-5243070Y11914100D01*
X-5243940Y11914681D01*
X-5283760Y11941288D01*
X-5322259Y11967012D01*
X-5415668Y11985592D01*
X-5509077Y11967012D01*
X-5588266Y11914101D01*
X-5588267Y11914100D01*
X-5632370Y11848093D01*
X-5641178Y11834911D01*
X-5659758Y11741502D01*
X-8421578Y11741502D01*
X-8440158Y11834911D01*
X-8493070Y11914100D01*
X-8493940Y11914681D01*
X-8533760Y11941288D01*
X-8572259Y11967012D01*
X-8665668Y11985592D01*
X-8759077Y11967012D01*
X-8838266Y11914101D01*
X-8838267Y11914100D01*
X-8882370Y11848093D01*
X-8891178Y11834911D01*
X-8909758Y11741502D01*
X-15452002Y11741502D01*
X-15472982Y11762356D01*
X-15475381Y11764944D01*
X-15555503Y11858741D01*
X-15563692Y11868328D01*
X-15567699Y11873843D01*
X-15568791Y11875624D01*
X-15625961Y11968905D01*
X-15637883Y11988358D01*
X-15640979Y11994434D01*
X-15645426Y12005169D01*
X-15692384Y12118521D01*
X-15694490Y12125002D01*
X-15694528Y12125161D01*
X-15725851Y12255606D01*
X-15726916Y12262329D01*
X-15737552Y12397430D01*
X-15737686Y12400840D01*
X-15737686Y12846329D01*
X-1141531Y12846329D01*
X-1122951Y12752920D01*
X-1097012Y12714099D01*
X-1072298Y12677111D01*
X-1070039Y12673731D01*
X-990850Y12620819D01*
X-897441Y12602239D01*
X-874680Y12606767D01*
X-842066Y12600280D01*
X-823589Y12572630D01*
X-823589Y12555676D01*
X-825097Y12548092D01*
X-826408Y12541502D01*
X-807828Y12448093D01*
X-754916Y12368904D01*
X-675727Y12315992D01*
X-582318Y12297412D01*
X-488909Y12315992D01*
X-409720Y12368904D01*
X-356808Y12448093D01*
X-338228Y12541502D01*
X-356808Y12634911D01*
X-409720Y12714100D01*
X-411856Y12715527D01*
X-455150Y12744455D01*
X-488909Y12767012D01*
X-582318Y12785592D01*
X-582319Y12785592D01*
X-605080Y12781065D01*
X-637696Y12787553D01*
X-656171Y12815204D01*
X-656171Y12832153D01*
X-653351Y12846329D01*
X-671931Y12939738D01*
X-724843Y13018927D01*
X-729625Y13022122D01*
X-787637Y13060884D01*
X-804032Y13071839D01*
X-897441Y13090419D01*
X-990850Y13071839D01*
X-1070039Y13018928D01*
X-1070040Y13018927D01*
X-1117369Y12948092D01*
X-1122951Y12939738D01*
X-1141531Y12846329D01*
X-15737686Y12846329D01*
X-15737686Y13539993D01*
X-15737674Y13540091D01*
X-15737677Y13545759D01*
X-15737675Y13545761D01*
X-15737686Y13570575D01*
X-15737479Y13574801D01*
X-15720883Y13743957D01*
X-15719227Y13752297D01*
X-15670561Y13912903D01*
X-15667306Y13920766D01*
X-15588233Y14068782D01*
X-15583508Y14075856D01*
X-15477065Y14205598D01*
X-15471052Y14211612D01*
X-15341333Y14318086D01*
X-15334265Y14322809D01*
X-15186266Y14401917D01*
X-15178408Y14405172D01*
X-15017808Y14453876D01*
X-15009466Y14455534D01*
X-14845047Y14471703D01*
X-14840308Y14472169D01*
X-14836065Y14472378D01*
X-14811276Y14472373D01*
X-14811267Y14472378D01*
X-11918161Y14472378D01*
X-11878179Y14472378D01*
X-11841241Y14487678D01*
X-11812970Y14515949D01*
X-11797670Y14552887D01*
X-11797670Y15419962D01*
X-100506Y15419962D01*
X-100500Y15399971D01*
X-100500Y19991D01*
X-100500Y-19991D01*
X-85200Y-56929D01*
X-56929Y-85200D01*
X-19991Y-100500D01*
X-19990Y-100500D01*
X15517235Y-100500D01*
X15517236Y-100500D01*
X15554174Y-85200D01*
X15582445Y-56929D01*
X15597745Y-19991D01*
X15597745Y5161502D01*
X16265732Y5161502D01*
X16282372Y5077847D01*
X16329758Y5006928D01*
X16400677Y4959542D01*
X16484332Y4942902D01*
X16567987Y4959542D01*
X16638906Y5006928D01*
X16686292Y5077847D01*
X16702932Y5161502D01*
X16686292Y5245157D01*
X16638906Y5316076D01*
X16567987Y5363462D01*
X16484332Y5380102D01*
X16400677Y5363462D01*
X16329758Y5316077D01*
X16329757Y5316076D01*
X16282372Y5245157D01*
X16265732Y5161502D01*
X15597745Y5161502D01*
X15597745Y5691502D01*
X18690242Y5691502D01*
X18708822Y5598093D01*
X18761734Y5518904D01*
X18840923Y5465992D01*
X18934332Y5447412D01*
X19027741Y5465992D01*
X19106930Y5518904D01*
X19123205Y5543262D01*
X19150854Y5561737D01*
X19183471Y5555250D01*
X19195458Y5543263D01*
X19211734Y5518904D01*
X19290923Y5465992D01*
X19384332Y5447412D01*
X19477741Y5465992D01*
X19556930Y5518904D01*
X19573205Y5543262D01*
X19600854Y5561737D01*
X19633471Y5555250D01*
X19645458Y5543263D01*
X19661734Y5518904D01*
X19740923Y5465992D01*
X19834332Y5447412D01*
X19927741Y5465992D01*
X20006930Y5518904D01*
X20059842Y5598093D01*
X20078422Y5691502D01*
X20059842Y5784911D01*
X20006930Y5864100D01*
X19927741Y5917012D01*
X19834332Y5935592D01*
X19740923Y5917012D01*
X19661734Y5864101D01*
X19661732Y5864099D01*
X19645459Y5839744D01*
X19617808Y5821269D01*
X19585192Y5827757D01*
X19573205Y5839744D01*
X19556931Y5864099D01*
X19556929Y5864101D01*
X19530652Y5881659D01*
X19477741Y5917012D01*
X19384332Y5935592D01*
X19290923Y5917012D01*
X19211734Y5864101D01*
X19211732Y5864099D01*
X19195459Y5839744D01*
X19167808Y5821269D01*
X19135192Y5827757D01*
X19123205Y5839744D01*
X19106931Y5864099D01*
X19106929Y5864101D01*
X19080652Y5881659D01*
X19027741Y5917012D01*
X18934332Y5935592D01*
X18840923Y5917012D01*
X18761734Y5864101D01*
X18761733Y5864100D01*
X18733115Y5821269D01*
X18708822Y5784911D01*
X18690242Y5691502D01*
X15597745Y5691502D01*
X15597745Y7891502D01*
X16754242Y7891502D01*
X16772822Y7798093D01*
X16825734Y7718904D01*
X16904923Y7665992D01*
X16998332Y7647412D01*
X17091741Y7665992D01*
X17170930Y7718904D01*
X17207612Y7773804D01*
X17235260Y7792278D01*
X17267877Y7785791D01*
X17279865Y7773803D01*
X17286412Y7764005D01*
X17286413Y7764004D01*
X17286414Y7764003D01*
X17365603Y7711091D01*
X17459012Y7692511D01*
X17552421Y7711091D01*
X17631610Y7764003D01*
X17684522Y7843192D01*
X17703102Y7936601D01*
X17684522Y8030010D01*
X17631610Y8109199D01*
X17552421Y8162111D01*
X17459012Y8180691D01*
X17365603Y8162111D01*
X17286414Y8109200D01*
X17286412Y8109198D01*
X17249732Y8054301D01*
X17222082Y8035826D01*
X17189465Y8042314D01*
X17177478Y8054301D01*
X17170931Y8064099D01*
X17170929Y8064101D01*
X17144652Y8081659D01*
X17091741Y8117012D01*
X16998332Y8135592D01*
X16904923Y8117012D01*
X16825734Y8064101D01*
X16825733Y8064100D01*
X16789906Y8010479D01*
X16772822Y7984911D01*
X16754242Y7891502D01*
X15597745Y7891502D01*
X15597745Y8274697D01*
X17939969Y8274697D01*
X17958549Y8181288D01*
X17989082Y8135592D01*
X18006717Y8109198D01*
X18011461Y8102099D01*
X18090650Y8049187D01*
X18184059Y8030607D01*
X18277468Y8049187D01*
X18356657Y8102099D01*
X18374861Y8129344D01*
X19166293Y8129344D01*
X19184873Y8035935D01*
X19237785Y7956746D01*
X19316974Y7903834D01*
X19410383Y7885254D01*
X19503792Y7903834D01*
X19582981Y7956746D01*
X19635893Y8035935D01*
X19654473Y8129344D01*
X19635893Y8222753D01*
X19582981Y8301942D01*
X19503792Y8354854D01*
X19410383Y8373434D01*
X19316974Y8354854D01*
X19237785Y8301943D01*
X19237784Y8301942D01*
X19203083Y8250007D01*
X19184873Y8222753D01*
X19166293Y8129344D01*
X18374861Y8129344D01*
X18409569Y8181288D01*
X18428149Y8274697D01*
X18409569Y8368106D01*
X18356657Y8447295D01*
X18277468Y8500207D01*
X18184059Y8518787D01*
X18090650Y8500207D01*
X18011461Y8447296D01*
X18011460Y8447295D01*
X17962109Y8373434D01*
X17958549Y8368106D01*
X17939969Y8274697D01*
X15597745Y8274697D01*
X15597745Y8685420D01*
X19347262Y8685420D01*
X19365842Y8592011D01*
X19386628Y8560903D01*
X19414600Y8519038D01*
X19418754Y8512822D01*
X19497943Y8459910D01*
X19591352Y8441330D01*
X19684761Y8459910D01*
X19763950Y8512822D01*
X19816862Y8592011D01*
X19835442Y8685420D01*
X19816862Y8778829D01*
X19763950Y8858018D01*
X19761883Y8859399D01*
X19727459Y8882400D01*
X19684761Y8910930D01*
X19591352Y8929510D01*
X19497943Y8910930D01*
X19418754Y8858019D01*
X19418753Y8858018D01*
X19377946Y8796944D01*
X19365842Y8778829D01*
X19347262Y8685420D01*
X15597745Y8685420D01*
X15597745Y9089286D01*
X16851558Y9089286D01*
X16870138Y8995877D01*
X16893069Y8961558D01*
X16916343Y8926725D01*
X16923050Y8916688D01*
X17002239Y8863776D01*
X17095648Y8845196D01*
X17189057Y8863776D01*
X17268246Y8916688D01*
X17321158Y8995877D01*
X17339738Y9089286D01*
X17321158Y9182695D01*
X17268246Y9261884D01*
X17260571Y9267012D01*
X17211232Y9299979D01*
X17189057Y9314796D01*
X17095648Y9333376D01*
X17002239Y9314796D01*
X16923050Y9261885D01*
X16923049Y9261884D01*
X16882839Y9201704D01*
X16870138Y9182695D01*
X16851558Y9089286D01*
X15597745Y9089286D01*
X15597745Y10691502D01*
X16540242Y10691502D01*
X16558822Y10598093D01*
X16577184Y10570612D01*
X16610995Y10520009D01*
X16611734Y10518904D01*
X16690923Y10465992D01*
X16784332Y10447412D01*
X16877741Y10465992D01*
X16956930Y10518904D01*
X17009842Y10598093D01*
X17028422Y10691502D01*
X17009842Y10784911D01*
X16956930Y10864100D01*
X16949740Y10868904D01*
X16919818Y10888897D01*
X16877741Y10917012D01*
X16784332Y10935592D01*
X16690923Y10917012D01*
X16611734Y10864101D01*
X16611733Y10864100D01*
X16567175Y10797412D01*
X16558822Y10784911D01*
X16540242Y10691502D01*
X15597745Y10691502D01*
X15597745Y12541503D01*
X16640242Y12541503D01*
X16640242Y12541502D01*
X16642113Y12532090D01*
X16642838Y12520542D01*
X16642158Y12510974D01*
X16642702Y12509344D01*
X16644932Y12495604D01*
X16644932Y12189122D01*
X16644932Y12165081D01*
X16640242Y12141502D01*
X16644932Y12117924D01*
X16644932Y12093882D01*
X16648288Y12085780D01*
X16652494Y12075624D01*
X16654965Y12067478D01*
X16658822Y12048093D01*
X16658822Y12048092D01*
X16669801Y12031660D01*
X16672179Y12028100D01*
X16681379Y12005893D01*
X16698375Y11988897D01*
X16700597Y11985571D01*
X16700752Y11985340D01*
X16700754Y11985337D01*
X16706994Y11975997D01*
X16711734Y11968904D01*
X16731726Y11955546D01*
X16748723Y11938549D01*
X16770931Y11929350D01*
X16790923Y11915992D01*
X16814501Y11911302D01*
X16836712Y11902102D01*
X16860754Y11902102D01*
X16884332Y11897412D01*
X16903712Y11901268D01*
X16912189Y11902102D01*
X17236712Y11902102D01*
X17260754Y11902102D01*
X17284332Y11897412D01*
X17307910Y11902102D01*
X17331952Y11902102D01*
X17636712Y11902102D01*
X17656475Y11902102D01*
X17664951Y11901268D01*
X17684332Y11897412D01*
X17693746Y11899285D01*
X17699146Y11900011D01*
X17702211Y11900228D01*
X17714861Y11899329D01*
X17721694Y11901607D01*
X17727163Y11901994D01*
X17727949Y11901732D01*
X17730231Y11902102D01*
X17731951Y11902102D01*
X17731952Y11902102D01*
X17750212Y11909666D01*
X17758357Y11912137D01*
X17777741Y11915992D01*
X17785729Y11921331D01*
X17790432Y11924062D01*
X17793184Y11925438D01*
X17805212Y11929446D01*
X17810653Y11934167D01*
X17815558Y11936617D01*
X17816387Y11936676D01*
X17818357Y11937893D01*
X17818494Y11937951D01*
X17819941Y11938549D01*
X17822894Y11941502D01*
X18940242Y11941502D01*
X18944317Y11921016D01*
X18944477Y11919920D01*
X18944932Y11913645D01*
X18944932Y11893882D01*
X18950021Y11881596D01*
X18952494Y11875624D01*
X18954965Y11867478D01*
X18958822Y11848093D01*
X18958822Y11848092D01*
X18969800Y11831661D01*
X18973814Y11824152D01*
X18981377Y11805894D01*
X18981378Y11805893D01*
X18998377Y11788894D01*
X19011734Y11768904D01*
X19031723Y11755548D01*
X19432206Y11355065D01*
X19444932Y11324341D01*
X19444932Y11069360D01*
X19444097Y11060884D01*
X19440242Y11041502D01*
X19444932Y11017924D01*
X19444932Y10993882D01*
X19454052Y10971866D01*
X19454129Y10971679D01*
X19454965Y10967480D01*
X19454966Y10967478D01*
X19458821Y10948094D01*
X19458823Y10948090D01*
X19469799Y10931663D01*
X19472179Y10928101D01*
X19481378Y10905893D01*
X19498377Y10888894D01*
X19511734Y10868904D01*
X19518924Y10864100D01*
X19528163Y10857927D01*
X19534748Y10852523D01*
X19548723Y10838548D01*
X19570933Y10829349D01*
X19590923Y10815992D01*
X19614501Y10811302D01*
X19636712Y10802102D01*
X19660754Y10802102D01*
X19684332Y10797412D01*
X19707910Y10802102D01*
X19731952Y10802102D01*
X20036712Y10802102D01*
X20056475Y10802102D01*
X20064951Y10801268D01*
X20084332Y10797412D01*
X20103712Y10801268D01*
X20112189Y10802102D01*
X20131951Y10802102D01*
X20131952Y10802102D01*
X20150212Y10809666D01*
X20158357Y10812137D01*
X20177741Y10815992D01*
X20197732Y10829350D01*
X20219941Y10838549D01*
X20236937Y10855546D01*
X20256930Y10868904D01*
X20270288Y10888897D01*
X20287285Y10905893D01*
X20296484Y10928102D01*
X20309842Y10948093D01*
X20314532Y10971672D01*
X20323732Y10993882D01*
X20323732Y11017924D01*
X20328422Y11041502D01*
X20324567Y11060884D01*
X20323732Y11069360D01*
X20323732Y11413645D01*
X20324323Y11420785D01*
X20324435Y11421462D01*
X20328422Y11441502D01*
X20328396Y11441630D01*
X20328422Y11441757D01*
X20324576Y11460987D01*
X20323732Y11469509D01*
X20323732Y11489122D01*
X20316169Y11507381D01*
X20313717Y11515433D01*
X20313670Y11515663D01*
X20309842Y11534911D01*
X20309776Y11535010D01*
X20309008Y11538821D01*
X20308916Y11539284D01*
X20308918Y11539293D01*
X20308907Y11539329D01*
X20224576Y11960987D01*
X20223732Y11969508D01*
X20223732Y11989122D01*
X20216169Y12007381D01*
X20213963Y12014287D01*
X20213823Y12014894D01*
X20209842Y12034911D01*
X20209769Y12035020D01*
X20209744Y12035147D01*
X20208877Y12036441D01*
X20208877Y12036443D01*
X20198830Y12051444D01*
X20194790Y12058991D01*
X20187285Y12077111D01*
X20173313Y12091083D01*
X20167964Y12097586D01*
X20156930Y12114100D01*
X20156830Y12114167D01*
X20156762Y12114269D01*
X20156754Y12114276D01*
X20156749Y12114279D01*
X20156749Y12114280D01*
X20140666Y12125002D01*
X20140428Y12125161D01*
X20133807Y12130589D01*
X20119940Y12144456D01*
X20101684Y12152019D01*
X20094272Y12155968D01*
X20093962Y12156174D01*
X20077741Y12167012D01*
X20077612Y12167038D01*
X20077505Y12167109D01*
X20058268Y12170915D01*
X20050075Y12173396D01*
X20031953Y12180902D01*
X20031952Y12180902D01*
X20012190Y12180902D01*
X20003816Y12181717D01*
X20003713Y12181738D01*
X20003713Y12181737D01*
X20003620Y12181756D01*
X20003359Y12181808D01*
X19984332Y12185592D01*
X19984209Y12185569D01*
X19984082Y12185593D01*
X19964847Y12181746D01*
X19956326Y12180902D01*
X19607910Y12180902D01*
X19584332Y12185592D01*
X19560754Y12180902D01*
X19212189Y12180902D01*
X19203712Y12181737D01*
X19203616Y12181756D01*
X19184332Y12185592D01*
X19165048Y12181756D01*
X19164952Y12181737D01*
X19156475Y12180902D01*
X19136708Y12180902D01*
X19118454Y12173341D01*
X19110308Y12170869D01*
X19090921Y12167012D01*
X19074490Y12156033D01*
X19066980Y12152019D01*
X19048725Y12144458D01*
X19048724Y12144457D01*
X19034746Y12130480D01*
X19034745Y12130481D01*
X19031716Y12127453D01*
X19011734Y12114100D01*
X18998382Y12094120D01*
X18995358Y12091095D01*
X18995354Y12091089D01*
X18981377Y12077111D01*
X18977220Y12067073D01*
X18977217Y12067066D01*
X18973812Y12058849D01*
X18969801Y12051346D01*
X18958822Y12034913D01*
X18954965Y12015526D01*
X18952493Y12007380D01*
X18944932Y11989126D01*
X18944932Y11969360D01*
X18944097Y11960884D01*
X18940867Y11944650D01*
X18940867Y11944647D01*
X18940242Y11941502D01*
X17822894Y11941502D01*
X17833922Y11952532D01*
X17837002Y11955328D01*
X17838676Y11956709D01*
X17856930Y11968904D01*
X17862258Y11976881D01*
X17869915Y11985565D01*
X17877161Y11991847D01*
X17877927Y11993382D01*
X17886070Y12004679D01*
X17887285Y12005893D01*
X17894847Y12024151D01*
X17898863Y12031663D01*
X17909842Y12048093D01*
X17911712Y12057501D01*
X17913111Y12062774D01*
X17914086Y12065700D01*
X17919754Y12077032D01*
X17920263Y12084217D01*
X17921999Y12089417D01*
X17922543Y12090045D01*
X17923074Y12092296D01*
X17923732Y12093882D01*
X17923732Y12113645D01*
X17924567Y12122122D01*
X17925140Y12125002D01*
X17928422Y12141502D01*
X17926547Y12150928D01*
X17925823Y12156318D01*
X17925606Y12159384D01*
X17926505Y12172031D01*
X17924227Y12178866D01*
X17923840Y12184334D01*
X17924102Y12185120D01*
X17923732Y12187402D01*
X17923732Y12513645D01*
X17924567Y12522122D01*
X17928422Y12541502D01*
X17928422Y12541503D01*
X17924567Y12560884D01*
X17923732Y12569360D01*
X17923732Y12589122D01*
X17916167Y12607384D01*
X17913697Y12615528D01*
X17909842Y12634911D01*
X17896484Y12654903D01*
X17887285Y12677111D01*
X17870288Y12694108D01*
X17856930Y12714100D01*
X17854794Y12715527D01*
X17840497Y12725080D01*
X17840496Y12725081D01*
X17836936Y12727460D01*
X17819941Y12744455D01*
X17797734Y12753655D01*
X17794174Y12756033D01*
X17794173Y12756034D01*
X17777742Y12767012D01*
X17758356Y12770869D01*
X17758356Y12770870D01*
X17754156Y12771706D01*
X17731952Y12780902D01*
X17707914Y12780902D01*
X17703715Y12781737D01*
X17703712Y12781737D01*
X17684332Y12785592D01*
X17664952Y12781737D01*
X17656475Y12780902D01*
X17307910Y12780902D01*
X17284332Y12785592D01*
X17260754Y12780902D01*
X16912189Y12780902D01*
X16903712Y12781737D01*
X16884333Y12785592D01*
X16884330Y12785592D01*
X16874918Y12783721D01*
X16869518Y12782996D01*
X16866438Y12782778D01*
X16853803Y12783675D01*
X16846973Y12781399D01*
X16841505Y12781011D01*
X16840719Y12781273D01*
X16838434Y12780902D01*
X16836708Y12780902D01*
X16818454Y12773341D01*
X16810308Y12770869D01*
X16790921Y12767012D01*
X16782946Y12761683D01*
X16778231Y12758944D01*
X16775471Y12757565D01*
X16763452Y12753558D01*
X16758011Y12748841D01*
X16753108Y12746390D01*
X16752282Y12746332D01*
X16750315Y12745116D01*
X16748724Y12744458D01*
X16734745Y12730480D01*
X16728165Y12725081D01*
X16711736Y12714103D01*
X16711732Y12714099D01*
X16706401Y12706122D01*
X16703096Y12701792D01*
X16701070Y12699458D01*
X16691502Y12691158D01*
X16688281Y12684718D01*
X16684688Y12680576D01*
X16683950Y12680208D01*
X16682600Y12678334D01*
X16681378Y12677113D01*
X16681377Y12677110D01*
X16673818Y12658859D01*
X16669804Y12651349D01*
X16658822Y12634912D01*
X16658822Y12634911D01*
X16656950Y12625501D01*
X16655552Y12620229D01*
X16654577Y12617308D01*
X16648910Y12605972D01*
X16648399Y12598790D01*
X16646664Y12593588D01*
X16646121Y12592964D01*
X16645591Y12590714D01*
X16644932Y12589124D01*
X16644932Y12569360D01*
X16644097Y12560883D01*
X16640242Y12541503D01*
X15597745Y12541503D01*
X15597745Y13041503D01*
X18740242Y13041503D01*
X18740242Y13041502D01*
X18744097Y13022122D01*
X18744932Y13013645D01*
X18744932Y12993882D01*
X18751337Y12978417D01*
X18752494Y12975624D01*
X18754965Y12967478D01*
X18758822Y12948093D01*
X18758822Y12948092D01*
X18769801Y12931660D01*
X18772179Y12928100D01*
X18781379Y12905893D01*
X18798375Y12888897D01*
X18800752Y12885340D01*
X18800754Y12885337D01*
X18813914Y12865641D01*
X18820401Y12833025D01*
X18813913Y12817362D01*
X18800753Y12797667D01*
X18795352Y12791085D01*
X18781379Y12777112D01*
X18781377Y12777109D01*
X18773814Y12758852D01*
X18769802Y12751346D01*
X18758822Y12734911D01*
X18754965Y12715526D01*
X18754964Y12715527D01*
X18754128Y12711328D01*
X18744932Y12689122D01*
X18744932Y12665085D01*
X18744097Y12660886D01*
X18744097Y12660884D01*
X18740242Y12641503D01*
X18740242Y12641502D01*
X18744097Y12622122D01*
X18744932Y12613645D01*
X18744932Y12593882D01*
X18746904Y12589122D01*
X18752494Y12575624D01*
X18754965Y12567478D01*
X18758822Y12548093D01*
X18758822Y12548092D01*
X18769801Y12531660D01*
X18772179Y12528100D01*
X18781379Y12505893D01*
X18798375Y12488897D01*
X18811734Y12468904D01*
X18831726Y12455546D01*
X18848723Y12438549D01*
X18870931Y12429350D01*
X18890923Y12415992D01*
X18914501Y12411302D01*
X18936712Y12402102D01*
X18960754Y12402102D01*
X18984332Y12397412D01*
X19003712Y12401268D01*
X19012189Y12402102D01*
X19360754Y12402102D01*
X19384332Y12397412D01*
X19407910Y12402102D01*
X19431952Y12402102D01*
X19450212Y12409666D01*
X19458357Y12412137D01*
X19477741Y12415992D01*
X19497732Y12429350D01*
X19519941Y12438549D01*
X19536937Y12455546D01*
X19556930Y12468904D01*
X19570288Y12488897D01*
X19587285Y12505893D01*
X19596484Y12528102D01*
X19609842Y12548093D01*
X19614532Y12571672D01*
X19623732Y12593882D01*
X19623732Y12617924D01*
X19628422Y12641502D01*
X19626463Y12651349D01*
X19624567Y12660884D01*
X19623732Y12669360D01*
X19623732Y12689122D01*
X19616167Y12707384D01*
X19613697Y12715528D01*
X19609842Y12734911D01*
X19597808Y12752921D01*
X19596483Y12754905D01*
X19587285Y12777111D01*
X19570288Y12794108D01*
X19556930Y12814100D01*
X19556929Y12814101D01*
X19554749Y12817364D01*
X19548262Y12849980D01*
X19554749Y12865642D01*
X19556927Y12868903D01*
X19556930Y12868904D01*
X19567915Y12885347D01*
X19573307Y12891917D01*
X19587285Y12905893D01*
X19594848Y12924155D01*
X19598861Y12931660D01*
X19609842Y12948093D01*
X19614532Y12971672D01*
X19623732Y12993882D01*
X19623732Y13017924D01*
X19628422Y13041502D01*
X19624567Y13060884D01*
X19623732Y13069360D01*
X19623732Y13089122D01*
X19616167Y13107384D01*
X19613697Y13115528D01*
X19609842Y13134911D01*
X19596484Y13154903D01*
X19587285Y13177111D01*
X19570288Y13194108D01*
X19556930Y13214100D01*
X19556927Y13214102D01*
X19540497Y13225080D01*
X19540496Y13225081D01*
X19536936Y13227460D01*
X19519941Y13244455D01*
X19497734Y13253655D01*
X19494174Y13256033D01*
X19494173Y13256034D01*
X19477742Y13267012D01*
X19458356Y13270869D01*
X19458356Y13270870D01*
X19454156Y13271706D01*
X19431952Y13280902D01*
X19407914Y13280902D01*
X19403715Y13281737D01*
X19403712Y13281737D01*
X19384332Y13285592D01*
X19364952Y13281737D01*
X19356475Y13280902D01*
X19007910Y13280902D01*
X18984332Y13285592D01*
X18960754Y13280902D01*
X18936708Y13280902D01*
X18918454Y13273341D01*
X18910308Y13270869D01*
X18890923Y13267012D01*
X18874490Y13256035D01*
X18874491Y13256034D01*
X18874490Y13256033D01*
X18870931Y13253655D01*
X18848723Y13244455D01*
X18831727Y13227461D01*
X18828168Y13225082D01*
X18811736Y13214102D01*
X18811732Y13214098D01*
X18800752Y13197668D01*
X18800753Y13197667D01*
X18798375Y13194108D01*
X18781379Y13177111D01*
X18772179Y13154906D01*
X18769803Y13151348D01*
X18769802Y13151346D01*
X18758822Y13134911D01*
X18754965Y13115526D01*
X18752493Y13107380D01*
X18744932Y13089126D01*
X18744932Y13069360D01*
X18744097Y13060884D01*
X18740242Y13041503D01*
X15597745Y13041503D01*
X15597745Y14741503D01*
X16640242Y14741503D01*
X16640242Y14741502D01*
X16642113Y14732090D01*
X16642838Y14720542D01*
X16642158Y14710974D01*
X16642702Y14709344D01*
X16644932Y14695604D01*
X16644932Y14389122D01*
X16644932Y14365081D01*
X16640242Y14341502D01*
X16644932Y14317924D01*
X16644932Y14293882D01*
X16646902Y14289126D01*
X16652494Y14275624D01*
X16654965Y14267478D01*
X16658822Y14248093D01*
X16658822Y14248092D01*
X16669800Y14231661D01*
X16673814Y14224152D01*
X16681377Y14205894D01*
X16681378Y14205893D01*
X16698377Y14188894D01*
X16711734Y14168904D01*
X16731723Y14155548D01*
X16748723Y14138548D01*
X16770933Y14129349D01*
X16790923Y14115992D01*
X16814501Y14111302D01*
X16836712Y14102102D01*
X16860754Y14102102D01*
X16884332Y14097412D01*
X16907910Y14102102D01*
X17256475Y14102102D01*
X17264951Y14101268D01*
X17284332Y14097412D01*
X17303712Y14101268D01*
X17312189Y14102102D01*
X17636712Y14102102D01*
X17656475Y14102102D01*
X17658357Y14102061D01*
X17661685Y14101917D01*
X17684332Y14097412D01*
X17698872Y14100305D01*
X17704096Y14100078D01*
X17704367Y14099952D01*
X17705287Y14100010D01*
X17714861Y14099329D01*
X17716490Y14099873D01*
X17730231Y14102102D01*
X17731951Y14102102D01*
X17731952Y14102102D01*
X17750212Y14109666D01*
X17758357Y14112137D01*
X17777741Y14115992D01*
X17785729Y14121331D01*
X17790432Y14124062D01*
X17793184Y14125438D01*
X17805212Y14129446D01*
X17810653Y14134167D01*
X17815558Y14136617D01*
X17816387Y14136676D01*
X17818357Y14137893D01*
X17818494Y14137951D01*
X17819941Y14138549D01*
X17833916Y14152526D01*
X17840491Y14157922D01*
X17856930Y14168904D01*
X17862263Y14176888D01*
X17865568Y14181218D01*
X17867585Y14183544D01*
X17877161Y14191847D01*
X17880382Y14198292D01*
X17883974Y14202430D01*
X17884717Y14202802D01*
X17886070Y14204679D01*
X17887285Y14205893D01*
X17894848Y14224152D01*
X17898863Y14231663D01*
X17905438Y14241503D01*
X18740242Y14241503D01*
X18740242Y14241502D01*
X18744097Y14222122D01*
X18744932Y14213645D01*
X18744932Y14193882D01*
X18750177Y14181218D01*
X18752494Y14175624D01*
X18754965Y14167478D01*
X18758822Y14148093D01*
X18758822Y14148092D01*
X18769801Y14131660D01*
X18772179Y14128100D01*
X18781379Y14105893D01*
X18798375Y14088897D01*
X18800752Y14085340D01*
X18800754Y14085337D01*
X18813914Y14065641D01*
X18820401Y14033025D01*
X18813913Y14017362D01*
X18800753Y13997667D01*
X18795352Y13991085D01*
X18781379Y13977112D01*
X18781377Y13977109D01*
X18773814Y13958852D01*
X18769802Y13951346D01*
X18758822Y13934911D01*
X18754965Y13915526D01*
X18754964Y13915527D01*
X18754128Y13911328D01*
X18744932Y13889122D01*
X18744932Y13865085D01*
X18744097Y13860886D01*
X18744097Y13860884D01*
X18740242Y13841503D01*
X18740242Y13841502D01*
X18744097Y13822122D01*
X18744932Y13813645D01*
X18744932Y13793882D01*
X18751337Y13778417D01*
X18752494Y13775624D01*
X18754965Y13767478D01*
X18758822Y13748093D01*
X18758822Y13748092D01*
X18769801Y13731660D01*
X18772179Y13728100D01*
X18781379Y13705893D01*
X18798375Y13688897D01*
X18800752Y13685340D01*
X18800754Y13685337D01*
X18810276Y13671085D01*
X18811734Y13668904D01*
X18831726Y13655546D01*
X18848723Y13638549D01*
X18870931Y13629350D01*
X18890923Y13615992D01*
X18914501Y13611302D01*
X18936712Y13602102D01*
X18960754Y13602102D01*
X18984332Y13597412D01*
X19003712Y13601268D01*
X19012189Y13602102D01*
X19360754Y13602102D01*
X19384332Y13597412D01*
X19407910Y13602102D01*
X19431952Y13602102D01*
X19450212Y13609666D01*
X19458357Y13612137D01*
X19477741Y13615992D01*
X19497732Y13629350D01*
X19519941Y13638549D01*
X19536937Y13655546D01*
X19556930Y13668904D01*
X19556931Y13668907D01*
X19560192Y13671085D01*
X19592809Y13677572D01*
X19608470Y13671084D01*
X19690919Y13615994D01*
X19690920Y13615994D01*
X19690923Y13615992D01*
X19784332Y13597412D01*
X19877741Y13615992D01*
X19956930Y13668904D01*
X20009842Y13748093D01*
X20028422Y13841502D01*
X20009842Y13934911D01*
X19956930Y14014100D01*
X19956929Y14014101D01*
X19954750Y14017362D01*
X19948262Y14049979D01*
X19954750Y14065642D01*
X19967912Y14085340D01*
X20009842Y14148093D01*
X20028422Y14241502D01*
X20009842Y14334911D01*
X20009840Y14334914D01*
X20009840Y14334915D01*
X19956931Y14414099D01*
X19956929Y14414101D01*
X19923940Y14436143D01*
X20640242Y14436143D01*
X20658822Y14342734D01*
X20682445Y14307380D01*
X20710707Y14265081D01*
X20711734Y14263545D01*
X20790923Y14210633D01*
X20884332Y14192053D01*
X20977741Y14210633D01*
X21056930Y14263545D01*
X21109842Y14342734D01*
X21128422Y14436143D01*
X21109842Y14529552D01*
X21056930Y14608741D01*
X21053097Y14611302D01*
X21024217Y14630599D01*
X20977741Y14661653D01*
X20884332Y14680233D01*
X20790923Y14661653D01*
X20711734Y14608742D01*
X20711733Y14608741D01*
X20674414Y14552888D01*
X20658822Y14529552D01*
X20640242Y14436143D01*
X19923940Y14436143D01*
X19911500Y14444455D01*
X19877741Y14467012D01*
X19784332Y14485592D01*
X19690923Y14467012D01*
X19608470Y14411920D01*
X19599992Y14410234D01*
X19592807Y14405433D01*
X19584331Y14407120D01*
X19575854Y14405433D01*
X19560191Y14411921D01*
X19556928Y14414101D01*
X19540496Y14425081D01*
X19540495Y14425082D01*
X19533912Y14430484D01*
X19519940Y14444456D01*
X19501684Y14452019D01*
X19494176Y14456032D01*
X19477742Y14467012D01*
X19458356Y14470869D01*
X19454961Y14473138D01*
X19450210Y14473340D01*
X19447417Y14474497D01*
X19431952Y14480902D01*
X19431950Y14480902D01*
X19407910Y14480902D01*
X19384332Y14485592D01*
X19360754Y14480902D01*
X19012189Y14480902D01*
X19003712Y14481737D01*
X18984332Y14485592D01*
X18964952Y14481737D01*
X18956475Y14480902D01*
X18936708Y14480902D01*
X18918454Y14473341D01*
X18910308Y14470869D01*
X18890923Y14467012D01*
X18874490Y14456035D01*
X18874491Y14456034D01*
X18870931Y14453655D01*
X18848723Y14444455D01*
X18831727Y14427461D01*
X18828168Y14425082D01*
X18811736Y14414102D01*
X18811732Y14414098D01*
X18800752Y14397668D01*
X18800753Y14397667D01*
X18798375Y14394108D01*
X18781379Y14377111D01*
X18772180Y14354908D01*
X18769801Y14351346D01*
X18769802Y14351346D01*
X18758822Y14334911D01*
X18754965Y14315526D01*
X18752493Y14307380D01*
X18744932Y14289126D01*
X18744932Y14269360D01*
X18744097Y14260884D01*
X18740242Y14241503D01*
X17905438Y14241503D01*
X17909842Y14248093D01*
X17911713Y14257500D01*
X17915466Y14268457D01*
X17919754Y14277033D01*
X17919875Y14278739D01*
X17923074Y14292296D01*
X17923732Y14293882D01*
X17923732Y14313645D01*
X17924567Y14322122D01*
X17924705Y14322814D01*
X17928422Y14341502D01*
X17926547Y14350928D01*
X17925823Y14356318D01*
X17925606Y14359384D01*
X17926505Y14372031D01*
X17924227Y14378866D01*
X17923840Y14384334D01*
X17924102Y14385120D01*
X17923732Y14387402D01*
X17923732Y14713645D01*
X17924567Y14722122D01*
X17928422Y14741502D01*
X17928422Y14741503D01*
X17924567Y14760884D01*
X17923732Y14769360D01*
X17923732Y14789122D01*
X17916167Y14807384D01*
X17913697Y14815528D01*
X17909842Y14834911D01*
X17905437Y14841504D01*
X18840242Y14841504D01*
X18840242Y14841502D01*
X18844097Y14822122D01*
X18844932Y14813645D01*
X18844932Y14793882D01*
X18846684Y14789652D01*
X18848023Y14785953D01*
X18849395Y14781549D01*
X18850227Y14772404D01*
X18855195Y14762939D01*
X18856371Y14759166D01*
X18856280Y14758175D01*
X18857503Y14754718D01*
X18858820Y14748098D01*
X18858823Y14748090D01*
X18869802Y14731658D01*
X18871454Y14728982D01*
X18872785Y14726639D01*
X18881379Y14705893D01*
X18888767Y14698505D01*
X18891669Y14693397D01*
X18891718Y14693003D01*
X18892362Y14692128D01*
X18894489Y14688075D01*
X18899676Y14683753D01*
X18907981Y14674520D01*
X18911734Y14668904D01*
X18922586Y14661653D01*
X18928167Y14657924D01*
X18930718Y14656082D01*
X18932848Y14654424D01*
X18948723Y14638549D01*
X18958375Y14634551D01*
X18963011Y14630942D01*
X18963206Y14630599D01*
X18964136Y14630037D01*
X18967655Y14627104D01*
X18974095Y14625098D01*
X18985313Y14619740D01*
X18990918Y14615994D01*
X18990922Y14615993D01*
X18990923Y14615992D01*
X19010315Y14612135D01*
X19013365Y14611413D01*
X19015956Y14610700D01*
X19036712Y14602102D01*
X19047165Y14602102D01*
X19052828Y14600542D01*
X19053141Y14600299D01*
X19054213Y14600136D01*
X19058582Y14598774D01*
X19065298Y14599385D01*
X19077712Y14598729D01*
X19084332Y14597412D01*
X19103712Y14601268D01*
X19112189Y14602102D01*
X19456475Y14602102D01*
X19464951Y14601267D01*
X19467274Y14600805D01*
X19484332Y14597412D01*
X19484336Y14597414D01*
X19484585Y14597414D01*
X19484587Y14597413D01*
X19484588Y14597414D01*
X19487758Y14597416D01*
X19487770Y14597416D01*
X19488871Y14597417D01*
X19488871Y14597229D01*
X19491928Y14597304D01*
X19491919Y14597492D01*
X19496191Y14597701D01*
X19496197Y14597700D01*
X19508617Y14600805D01*
X19519155Y14602102D01*
X19531951Y14602102D01*
X19531952Y14602102D01*
X19550213Y14609667D01*
X19557042Y14611854D01*
X19557684Y14612003D01*
X19577741Y14615992D01*
X19577849Y14616065D01*
X19577977Y14616090D01*
X19579362Y14617019D01*
X19581315Y14617470D01*
X19581981Y14617744D01*
X19582026Y14617634D01*
X19582327Y14617704D01*
X19590215Y14621206D01*
X19898756Y14698342D01*
X19899745Y14698575D01*
X19905954Y14699963D01*
X19914861Y14699329D01*
X19938733Y14707288D01*
X19940893Y14707770D01*
X19941290Y14707701D01*
X19943970Y14708342D01*
X19966668Y14711718D01*
X19966670Y14711720D01*
X19967541Y14712032D01*
X19971084Y14713816D01*
X19975040Y14715456D01*
X19977741Y14715992D01*
X19980029Y14717522D01*
X19983985Y14719160D01*
X19985122Y14719161D01*
X19988590Y14720799D01*
X19988590Y14720800D01*
X19988594Y14720800D01*
X19990651Y14722325D01*
X20002783Y14728637D01*
X20005212Y14729446D01*
X20022557Y14744490D01*
X20026068Y14747232D01*
X20027318Y14748110D01*
X20048336Y14760719D01*
X20051621Y14765154D01*
X20056836Y14768811D01*
X20056927Y14768903D01*
X20056930Y14768904D01*
X20056931Y14768907D01*
X20059957Y14771931D01*
X20060068Y14771820D01*
X20062358Y14774224D01*
X20062241Y14774330D01*
X20065113Y14777497D01*
X20065112Y14777497D01*
X20065116Y14777499D01*
X20066432Y14779694D01*
X20075225Y14790167D01*
X20077162Y14791846D01*
X20087427Y14812379D01*
X20089627Y14816264D01*
X20090455Y14817567D01*
X20105034Y14837242D01*
X20106371Y14842595D01*
X20109791Y14847971D01*
X20111481Y14852049D01*
X20111628Y14851988D01*
X20112823Y14855083D01*
X20112672Y14855137D01*
X20114114Y14859163D01*
X20114116Y14859165D01*
X20114493Y14861700D01*
X20118605Y14874734D01*
X20277954Y15193434D01*
X20278594Y15194661D01*
X20281603Y15200213D01*
X20287285Y15205893D01*
X20295712Y15226240D01*
X20296791Y15228229D01*
X20297208Y15228568D01*
X20298863Y15231663D01*
X20309842Y15248093D01*
X20311712Y15257501D01*
X20313111Y15262774D01*
X20314086Y15265700D01*
X20319754Y15277032D01*
X20320263Y15284217D01*
X20321999Y15289417D01*
X20322543Y15290045D01*
X20323074Y15292296D01*
X20323732Y15293882D01*
X20323732Y15313645D01*
X20324567Y15322122D01*
X20328422Y15341502D01*
X20326547Y15350928D01*
X20325823Y15356318D01*
X20325606Y15359384D01*
X20326505Y15372031D01*
X20324227Y15378866D01*
X20323840Y15384334D01*
X20324102Y15385120D01*
X20323732Y15387402D01*
X20323732Y15706684D01*
X20325029Y15717222D01*
X20328133Y15729637D01*
X20328132Y15729643D01*
X20328215Y15731336D01*
X20327959Y15737069D01*
X20328133Y15740055D01*
X20328422Y15741502D01*
X20328396Y15741632D01*
X20328421Y15741757D01*
X20324576Y15760983D01*
X20323732Y15769504D01*
X20323732Y15789121D01*
X20323732Y15789122D01*
X20318830Y15800955D01*
X20316818Y15807054D01*
X20316309Y15809091D01*
X20314116Y15823838D01*
X20311569Y15828082D01*
X20310002Y15834363D01*
X20310019Y15834482D01*
X20309842Y15834908D01*
X20309842Y15834911D01*
X20309840Y15834914D01*
X20309746Y15835141D01*
X20298831Y15851440D01*
X20294792Y15858986D01*
X20287285Y15877111D01*
X20278232Y15886164D01*
X20274035Y15891034D01*
X20272785Y15892723D01*
X20265115Y15905506D01*
X20261139Y15908452D01*
X20257289Y15913653D01*
X20257259Y15913773D01*
X20257089Y15913942D01*
X20257015Y15914015D01*
X20256754Y15914276D01*
X20256749Y15914279D01*
X20256749Y15914280D01*
X20245870Y15921533D01*
X20240428Y15925161D01*
X20233807Y15930589D01*
X20219940Y15944456D01*
X20208110Y15949356D01*
X20202370Y15952249D01*
X20200562Y15953335D01*
X20188592Y15962204D01*
X20183794Y15963404D01*
X20178246Y15966736D01*
X20178173Y15966835D01*
X20177965Y15966920D01*
X20177840Y15966972D01*
X20177515Y15967107D01*
X20177181Y15967173D01*
X20176774Y15967254D01*
X20158266Y15970916D01*
X20150075Y15973396D01*
X20143780Y15976003D01*
X20131952Y15980902D01*
X20131950Y15980902D01*
X20119150Y15980902D01*
X20112739Y15981378D01*
X20110651Y15981690D01*
X20096197Y15985303D01*
X20091305Y15984576D01*
X20084900Y15985531D01*
X20084794Y15985595D01*
X20084493Y15985593D01*
X20084171Y15985593D01*
X20084088Y15985594D01*
X20064851Y15981746D01*
X20056330Y15980902D01*
X20036709Y15980902D01*
X20024881Y15976003D01*
X20018781Y15973991D01*
X20016734Y15973481D01*
X20001995Y15971286D01*
X19997753Y15968742D01*
X19991471Y15967173D01*
X19991348Y15967192D01*
X19991079Y15967078D01*
X19990747Y15966940D01*
X19990698Y15966921D01*
X19974390Y15956000D01*
X19966846Y15951963D01*
X19961830Y15949886D01*
X19948722Y15944455D01*
X19948721Y15944454D01*
X19939670Y15935404D01*
X19931305Y15928874D01*
X19503302Y15672072D01*
X19502997Y15671890D01*
X19496648Y15668152D01*
X19490923Y15667012D01*
X19462734Y15648179D01*
X19461675Y15647554D01*
X19461518Y15647533D01*
X19459819Y15646522D01*
X19430907Y15631347D01*
X19430755Y15631225D01*
X19426398Y15626751D01*
X19423447Y15624159D01*
X19420328Y15622286D01*
X19418481Y15619795D01*
X19415007Y15616741D01*
X19414047Y15616415D01*
X19411737Y15614104D01*
X19393589Y15586945D01*
X19390841Y15583270D01*
X18926585Y15026162D01*
X18925689Y15025120D01*
X18921982Y15020949D01*
X18911734Y15014100D01*
X18899094Y14995186D01*
X18897109Y14992950D01*
X18896731Y14992767D01*
X18895352Y14991086D01*
X18881378Y14977112D01*
X18881378Y14977111D01*
X18879625Y14972879D01*
X18877958Y14969320D01*
X18875816Y14965239D01*
X18869934Y14958179D01*
X18866751Y14947967D01*
X18864917Y14944470D01*
X18864152Y14943833D01*
X18862573Y14940525D01*
X18858822Y14934911D01*
X18854965Y14915526D01*
X18854240Y14912469D01*
X18853522Y14909864D01*
X18844932Y14889122D01*
X18844932Y14878673D01*
X18843372Y14873008D01*
X18843128Y14872696D01*
X18842965Y14871621D01*
X18841604Y14867252D01*
X18842215Y14860527D01*
X18841558Y14848121D01*
X18840242Y14841504D01*
X17905437Y14841504D01*
X17898857Y14851351D01*
X17894848Y14858853D01*
X17887285Y14877111D01*
X17873313Y14891083D01*
X17867909Y14897668D01*
X17856930Y14914100D01*
X17856927Y14914102D01*
X17840497Y14925080D01*
X17840496Y14925081D01*
X17836936Y14927460D01*
X17819941Y14944455D01*
X17797734Y14953655D01*
X17794174Y14956033D01*
X17794173Y14956034D01*
X17777742Y14967012D01*
X17758356Y14970869D01*
X17758356Y14970870D01*
X17754156Y14971706D01*
X17731952Y14980902D01*
X17707914Y14980902D01*
X17703715Y14981737D01*
X17703712Y14981737D01*
X17684332Y14985592D01*
X17664952Y14981737D01*
X17656475Y14980902D01*
X17307910Y14980902D01*
X17284332Y14985592D01*
X17260754Y14980902D01*
X16912189Y14980902D01*
X16903712Y14981737D01*
X16884333Y14985592D01*
X16884330Y14985592D01*
X16874918Y14983721D01*
X16869518Y14982996D01*
X16866438Y14982778D01*
X16853803Y14983675D01*
X16846973Y14981399D01*
X16841505Y14981011D01*
X16840719Y14981273D01*
X16838434Y14980902D01*
X16836708Y14980902D01*
X16818454Y14973341D01*
X16810308Y14970869D01*
X16790921Y14967012D01*
X16782946Y14961683D01*
X16778232Y14958945D01*
X16775468Y14957565D01*
X16763452Y14953558D01*
X16758009Y14948839D01*
X16753107Y14946389D01*
X16752284Y14946331D01*
X16750320Y14945117D01*
X16749904Y14944945D01*
X16748721Y14944455D01*
X16734750Y14930483D01*
X16728167Y14925081D01*
X16711735Y14914102D01*
X16711732Y14914099D01*
X16706401Y14906122D01*
X16703097Y14901793D01*
X16701071Y14899459D01*
X16691502Y14891158D01*
X16688279Y14884714D01*
X16684688Y14880574D01*
X16683947Y14880204D01*
X16682595Y14878328D01*
X16681380Y14877114D01*
X16681378Y14877111D01*
X16673815Y14858853D01*
X16669802Y14851346D01*
X16658822Y14834912D01*
X16658822Y14834911D01*
X16656950Y14825501D01*
X16655552Y14820229D01*
X16654577Y14817308D01*
X16648910Y14805972D01*
X16648399Y14798790D01*
X16646664Y14793588D01*
X16646121Y14792964D01*
X16645591Y14790714D01*
X16644932Y14789124D01*
X16644932Y14769360D01*
X16644097Y14760883D01*
X16640242Y14741503D01*
X15597745Y14741503D01*
X15597745Y15380111D01*
X15597751Y15380180D01*
X15597749Y15384547D01*
X15597751Y15384549D01*
X15597745Y15406358D01*
X15597745Y15424502D01*
X15597740Y15424515D01*
X15597740Y15424531D01*
X15589257Y15444993D01*
X15582445Y15461440D01*
X15582442Y15461443D01*
X15582439Y15461451D01*
X15582434Y15461459D01*
X15582430Y15461465D01*
X15566531Y15477354D01*
X15566522Y15477363D01*
X15554174Y15489711D01*
X15554162Y15489716D01*
X15554150Y15489728D01*
X15534198Y15497985D01*
X15534197Y15497986D01*
X15534198Y15497988D01*
X15534183Y15497991D01*
X15528141Y15500494D01*
X15517233Y15505013D01*
X15517210Y15505017D01*
X15517207Y15505017D01*
X15501748Y15505013D01*
X15496595Y15505011D01*
X15477254Y15505011D01*
X15477242Y15505007D01*
X15473496Y15505006D01*
X15473496Y15505005D01*
X591Y15500500D01*
X-19998Y15500500D01*
X-20013Y15500498D01*
X-37149Y15493394D01*
X-37158Y15493390D01*
X-56934Y15485199D01*
X-56951Y15485187D01*
X-70940Y15471192D01*
X-71082Y15471049D01*
X-71086Y15471044D01*
X-85200Y15456929D01*
X-85206Y15456916D01*
X-85217Y15456904D01*
X-93244Y15437510D01*
X-100500Y15419991D01*
X-100500Y15419977D01*
X-100506Y15419962D01*
X-11797670Y15419962D01*
X-11797670Y16160971D01*
X7751748Y16160971D01*
X7770328Y16067562D01*
X7823240Y15988373D01*
X7902429Y15935461D01*
X7995838Y15916881D01*
X8089247Y15935461D01*
X8168436Y15988373D01*
X8221348Y16067562D01*
X8236055Y16141502D01*
X12240242Y16141502D01*
X12258822Y16048093D01*
X12294175Y15995182D01*
X12310389Y15970916D01*
X12311734Y15968904D01*
X12390923Y15915992D01*
X12484332Y15897412D01*
X12577741Y15915992D01*
X12656930Y15968904D01*
X12709842Y16048093D01*
X12728422Y16141502D01*
X12709842Y16234911D01*
X12656930Y16314100D01*
X12577741Y16367012D01*
X12484332Y16385592D01*
X12390923Y16367012D01*
X12311734Y16314101D01*
X12311733Y16314100D01*
X12267631Y16248095D01*
X12258822Y16234911D01*
X12240242Y16141502D01*
X8236055Y16141502D01*
X8239928Y16160971D01*
X8221348Y16254380D01*
X8168436Y16333569D01*
X8156563Y16341502D01*
X8127556Y16360884D01*
X8089247Y16386481D01*
X7995838Y16405061D01*
X7902429Y16386481D01*
X7823240Y16333570D01*
X7823239Y16333569D01*
X7781882Y16271672D01*
X7770328Y16254380D01*
X7751748Y16160971D01*
X-11797670Y16160971D01*
X-11797670Y16641502D01*
X7340242Y16641502D01*
X7358822Y16548093D01*
X7411734Y16468904D01*
X7490923Y16415992D01*
X7584332Y16397412D01*
X7677741Y16415992D01*
X7756930Y16468904D01*
X7809842Y16548093D01*
X7828422Y16641502D01*
X9590242Y16641502D01*
X9608822Y16548093D01*
X9661734Y16468904D01*
X9740923Y16415992D01*
X9834332Y16397412D01*
X9927741Y16415992D01*
X10006930Y16468904D01*
X10059842Y16548093D01*
X10078422Y16641502D01*
X10059842Y16734911D01*
X10055437Y16741503D01*
X19440242Y16741503D01*
X19440242Y16741502D01*
X19444097Y16722122D01*
X19444932Y16713645D01*
X19444932Y16365081D01*
X19440242Y16341502D01*
X19444932Y16317924D01*
X19444932Y16293882D01*
X19451337Y16278417D01*
X19452494Y16275624D01*
X19454965Y16267478D01*
X19458822Y16248093D01*
X19458822Y16248092D01*
X19469801Y16231660D01*
X19472179Y16228100D01*
X19481379Y16205893D01*
X19498375Y16188897D01*
X19511734Y16168904D01*
X19531726Y16155546D01*
X19548723Y16138549D01*
X19570931Y16129350D01*
X19590923Y16115992D01*
X19614501Y16111302D01*
X19636712Y16102102D01*
X19660754Y16102102D01*
X19684332Y16097412D01*
X19703712Y16101268D01*
X19712189Y16102102D01*
X19731952Y16102102D01*
X20036712Y16102102D01*
X20056475Y16102102D01*
X20064951Y16101268D01*
X20084332Y16097412D01*
X20103712Y16101268D01*
X20112189Y16102102D01*
X20131951Y16102102D01*
X20131952Y16102102D01*
X20150212Y16109666D01*
X20158357Y16112137D01*
X20177741Y16115992D01*
X20197732Y16129350D01*
X20219941Y16138549D01*
X20236937Y16155546D01*
X20256930Y16168904D01*
X20270288Y16188897D01*
X20287285Y16205893D01*
X20296484Y16228102D01*
X20309842Y16248093D01*
X20314532Y16271672D01*
X20323732Y16293882D01*
X20323732Y16317924D01*
X20328422Y16341502D01*
X20324567Y16360884D01*
X20323732Y16369360D01*
X20323732Y16717924D01*
X20328422Y16741502D01*
X20323732Y16765081D01*
X20323732Y16789122D01*
X20316167Y16807384D01*
X20313697Y16815528D01*
X20309842Y16834911D01*
X20296485Y16854901D01*
X20296483Y16854905D01*
X20287285Y16877111D01*
X20270288Y16894108D01*
X20256930Y16914100D01*
X20236937Y16927459D01*
X20219941Y16944455D01*
X20197734Y16953655D01*
X20194174Y16956033D01*
X20194173Y16956034D01*
X20177742Y16967012D01*
X20158356Y16970869D01*
X20158356Y16970870D01*
X20154156Y16971706D01*
X20131952Y16980902D01*
X20107914Y16980902D01*
X20103715Y16981737D01*
X20103712Y16981737D01*
X20084332Y16985592D01*
X20064952Y16981737D01*
X20056475Y16980902D01*
X19731952Y16980902D01*
X19707910Y16980902D01*
X19684332Y16985592D01*
X19660754Y16980902D01*
X19636708Y16980902D01*
X19618454Y16973341D01*
X19610308Y16970869D01*
X19590921Y16967012D01*
X19574490Y16956033D01*
X19566980Y16952019D01*
X19548725Y16944458D01*
X19548724Y16944457D01*
X19548723Y16944456D01*
X19531723Y16927457D01*
X19511734Y16914100D01*
X19498377Y16894111D01*
X19495354Y16891088D01*
X19481377Y16877110D01*
X19481376Y16877109D01*
X19473815Y16858854D01*
X19472176Y16854899D01*
X19458822Y16834911D01*
X19454132Y16811340D01*
X19452493Y16807382D01*
X19452493Y16807380D01*
X19444932Y16789126D01*
X19444932Y16769360D01*
X19444097Y16760884D01*
X19440242Y16741503D01*
X10055437Y16741503D01*
X10006930Y16814100D01*
X10004785Y16815533D01*
X9975784Y16834911D01*
X9927741Y16867012D01*
X9834332Y16885592D01*
X9740923Y16867012D01*
X9661734Y16814101D01*
X9661733Y16814100D01*
X9626176Y16760884D01*
X9608822Y16734911D01*
X9590242Y16641502D01*
X7828422Y16641502D01*
X7809842Y16734911D01*
X7756930Y16814100D01*
X7754785Y16815533D01*
X7725784Y16834911D01*
X7677741Y16867012D01*
X7584332Y16885592D01*
X7490923Y16867012D01*
X7411734Y16814101D01*
X7411733Y16814100D01*
X7376176Y16760884D01*
X7358822Y16734911D01*
X7340242Y16641502D01*
X-11797670Y16641502D01*
X-11797670Y17041502D01*
X14840242Y17041502D01*
X14858822Y16948093D01*
X14874198Y16925081D01*
X14906251Y16877109D01*
X14911734Y16868904D01*
X14990923Y16815992D01*
X15084332Y16797412D01*
X15177741Y16815992D01*
X15256930Y16868904D01*
X15309842Y16948093D01*
X15328422Y17041502D01*
X15840242Y17041502D01*
X15858822Y16948093D01*
X15874198Y16925081D01*
X15906251Y16877109D01*
X15911734Y16868904D01*
X15990923Y16815992D01*
X16084332Y16797412D01*
X16177741Y16815992D01*
X16256930Y16868904D01*
X16309842Y16948093D01*
X16328422Y17041502D01*
X16309842Y17134911D01*
X16256930Y17214100D01*
X16254098Y17215992D01*
X16191342Y17257924D01*
X16177741Y17267012D01*
X16084332Y17285592D01*
X15990923Y17267012D01*
X15911734Y17214101D01*
X15911733Y17214100D01*
X15858822Y17134911D01*
X15840242Y17041502D01*
X15328422Y17041502D01*
X15309842Y17134911D01*
X15256930Y17214100D01*
X15254098Y17215992D01*
X15191342Y17257924D01*
X15177741Y17267012D01*
X15084332Y17285592D01*
X14990923Y17267012D01*
X14911734Y17214101D01*
X14911733Y17214100D01*
X14858822Y17134911D01*
X14840242Y17041502D01*
X-11797670Y17041502D01*
X-11797670Y17641502D01*
X7340242Y17641502D01*
X7358822Y17548093D01*
X7394175Y17495182D01*
X7405051Y17478905D01*
X7411734Y17468904D01*
X7490923Y17415992D01*
X7584332Y17397412D01*
X7677741Y17415992D01*
X7756930Y17468904D01*
X7809842Y17548093D01*
X7828422Y17641502D01*
X7826433Y17651502D01*
X14840242Y17651502D01*
X14858822Y17558093D01*
X14911734Y17478904D01*
X14990923Y17425992D01*
X15084332Y17407412D01*
X15177741Y17425992D01*
X15256930Y17478904D01*
X15309842Y17558093D01*
X15328422Y17651502D01*
X15309842Y17744911D01*
X15309840Y17744914D01*
X15309840Y17744915D01*
X15258578Y17821635D01*
X15258573Y17821640D01*
X15256930Y17824100D01*
X15230884Y17841503D01*
X19440242Y17841503D01*
X19440242Y17841502D01*
X19444097Y17822122D01*
X19444932Y17813645D01*
X19444932Y17465081D01*
X19440242Y17441502D01*
X19444932Y17417924D01*
X19444932Y17393882D01*
X19451337Y17378417D01*
X19452494Y17375624D01*
X19454965Y17367478D01*
X19458822Y17348093D01*
X19458822Y17348092D01*
X19469801Y17331660D01*
X19472179Y17328100D01*
X19481379Y17305893D01*
X19498375Y17288897D01*
X19511734Y17268904D01*
X19531726Y17255546D01*
X19548723Y17238549D01*
X19570931Y17229350D01*
X19590923Y17215992D01*
X19614501Y17211302D01*
X19636712Y17202102D01*
X19660754Y17202102D01*
X19684332Y17197412D01*
X19703712Y17201268D01*
X19712189Y17202102D01*
X19731952Y17202102D01*
X20036712Y17202102D01*
X20060754Y17202102D01*
X20084332Y17197412D01*
X20107910Y17202102D01*
X20131952Y17202102D01*
X20150212Y17209666D01*
X20158357Y17212137D01*
X20177741Y17215992D01*
X20197732Y17229350D01*
X20219941Y17238549D01*
X20236937Y17255546D01*
X20256930Y17268904D01*
X20270288Y17288897D01*
X20287285Y17305893D01*
X20296484Y17328102D01*
X20309842Y17348093D01*
X20314532Y17371672D01*
X20323732Y17393882D01*
X20323732Y17417924D01*
X20328422Y17441502D01*
X20324567Y17460884D01*
X20323732Y17469360D01*
X20323732Y17817924D01*
X20328422Y17841502D01*
X20323732Y17865081D01*
X20323732Y17889122D01*
X20316167Y17907384D01*
X20313697Y17915528D01*
X20309842Y17934911D01*
X20296485Y17954901D01*
X20296483Y17954905D01*
X20287285Y17977111D01*
X20270288Y17994108D01*
X20256930Y18014100D01*
X20236937Y18027459D01*
X20219941Y18044455D01*
X20197734Y18053655D01*
X20194174Y18056033D01*
X20194173Y18056034D01*
X20177742Y18067012D01*
X20158356Y18070869D01*
X20158356Y18070870D01*
X20154156Y18071706D01*
X20131952Y18080902D01*
X20107914Y18080902D01*
X20103715Y18081737D01*
X20103712Y18081737D01*
X20084332Y18085592D01*
X20064952Y18081737D01*
X20056475Y18080902D01*
X19731952Y18080902D01*
X19707910Y18080902D01*
X19684332Y18085592D01*
X19660754Y18080902D01*
X19636708Y18080902D01*
X19618454Y18073341D01*
X19610308Y18070869D01*
X19590921Y18067012D01*
X19574490Y18056033D01*
X19566980Y18052019D01*
X19548725Y18044458D01*
X19548724Y18044457D01*
X19548723Y18044456D01*
X19531723Y18027457D01*
X19511734Y18014100D01*
X19498377Y17994111D01*
X19495354Y17991088D01*
X19481377Y17977110D01*
X19481376Y17977109D01*
X19473815Y17958854D01*
X19472176Y17954899D01*
X19458822Y17934911D01*
X19454132Y17911340D01*
X19452493Y17907382D01*
X19452493Y17907380D01*
X19444932Y17889126D01*
X19444932Y17869360D01*
X19444097Y17860884D01*
X19440242Y17841503D01*
X15230884Y17841503D01*
X15177741Y17877012D01*
X15084332Y17895592D01*
X14990923Y17877012D01*
X14911734Y17824101D01*
X14911733Y17824100D01*
X14858825Y17744915D01*
X14858822Y17744911D01*
X14840242Y17651502D01*
X7826433Y17651502D01*
X7809842Y17734911D01*
X7756930Y17814100D01*
X7741962Y17824101D01*
X7730652Y17831659D01*
X7677741Y17867012D01*
X7584332Y17885592D01*
X7490923Y17867012D01*
X7411734Y17814101D01*
X7411733Y17814100D01*
X7365506Y17744915D01*
X7358822Y17734911D01*
X7340242Y17641502D01*
X-11797670Y17641502D01*
X-11797670Y18466502D01*
X18570242Y18466502D01*
X18588822Y18373093D01*
X18641734Y18293904D01*
X18720923Y18240992D01*
X18814332Y18222412D01*
X18907741Y18240992D01*
X18986930Y18293904D01*
X19039842Y18373093D01*
X19058422Y18466502D01*
X19039842Y18559911D01*
X18986930Y18639100D01*
X18907741Y18692012D01*
X18814332Y18710592D01*
X18720923Y18692012D01*
X18641734Y18639101D01*
X18641733Y18639100D01*
X18588822Y18559911D01*
X18570242Y18466502D01*
X-11797670Y18466502D01*
X-11797670Y23261630D01*
X-11812970Y23298568D01*
X-11841241Y23326839D01*
X-11878179Y23342139D01*
X-11878180Y23342139D01*
X-14105744Y23342139D01*
X-14136468Y23354865D01*
X-14149194Y23385589D01*
X-14141871Y23409728D01*
X-14116239Y23448090D01*
X-14116239Y23448091D01*
X-14116237Y23448093D01*
X-14097657Y23541502D01*
X-14116237Y23634911D01*
X-14169149Y23714100D01*
X-14248338Y23767012D01*
X-14341747Y23785592D01*
X-14435156Y23767012D01*
X-14514345Y23714101D01*
X-14514346Y23714100D01*
X-14567257Y23634911D01*
X-14585837Y23541502D01*
X-14567257Y23448094D01*
X-14567256Y23448090D01*
X-14541623Y23409728D01*
X-14535135Y23377112D01*
X-14553611Y23349462D01*
X-14577750Y23342139D01*
X-14813532Y23342139D01*
X-14817790Y23342348D01*
X-14986883Y23359000D01*
X-14995237Y23360662D01*
X-15155771Y23409355D01*
X-15163639Y23412613D01*
X-15311601Y23491690D01*
X-15318683Y23496422D01*
X-15448369Y23602838D01*
X-15454390Y23608857D01*
X-15560839Y23738541D01*
X-15565561Y23745608D01*
X-15639470Y23883847D01*
X-15644661Y23893557D01*
X-15647921Y23901425D01*
X-15696640Y24061954D01*
X-15698303Y24070307D01*
X-15714958Y24239157D01*
X-15715168Y24243422D01*
X-15715168Y25955734D01*
X-15715136Y25957411D01*
X-15700638Y26332791D01*
X-15700379Y26336134D01*
X-15675923Y26546366D01*
X-15657071Y26708439D01*
X-15656556Y26711741D01*
X-15612796Y26935650D01*
X-15584662Y27079605D01*
X-15583901Y27082834D01*
X-15483847Y27444067D01*
X-15482837Y27447233D01*
X-15355228Y27799660D01*
X-15353966Y27802764D01*
X-15240811Y28053048D01*
X-15199546Y28144321D01*
X-15198066Y28147284D01*
X-15017584Y28476244D01*
X-15016775Y28477655D01*
X-14633962Y29115677D01*
X-14540780Y29270914D01*
X-14364712Y29623442D01*
X-14216362Y29988503D01*
X-14096617Y30363919D01*
X-14006189Y30747454D01*
X-13945617Y31136822D01*
X-13915263Y31529703D01*
X-13915320Y31726728D01*
X-13915323Y31753657D01*
X-13915324Y31753658D01*
X-13916422Y41792759D01*
X-13916422Y41811006D01*
X-13916424Y41811011D01*
X-13916424Y41811030D01*
X-13931728Y41847966D01*
X-13960002Y41876234D01*
X-13960005Y41876236D01*
X-13960006Y41876236D01*
X-13996937Y41891529D01*
X-13996942Y41891530D01*
X-13996943Y41891530D01*
X-14041086Y41891527D01*
X-14041199Y41891515D01*
X-20675817Y41891515D01*
X-20680075Y41891724D01*
X-20849165Y41908375D01*
X-20857518Y41910037D01*
X-21018047Y41958727D01*
X-21025917Y41961986D01*
X-21173867Y42041060D01*
X-21180949Y42045791D01*
X-21271779Y42120325D01*
X-21310637Y42152212D01*
X-21316659Y42158234D01*
X-21423090Y42287906D01*
X-21427820Y42294985D01*
X-21456212Y42348094D01*
X-21506146Y42441502D01*
X-15159758Y42441502D01*
X-15141178Y42348093D01*
X-15088266Y42268904D01*
X-15009077Y42215992D01*
X-14915668Y42197412D01*
X-14822259Y42215992D01*
X-14743070Y42268904D01*
X-14690158Y42348093D01*
X-14671578Y42441502D01*
X-14690158Y42534911D01*
X-14690160Y42534914D01*
X-14690160Y42534915D01*
X-14719912Y42579442D01*
X-14719915Y42579445D01*
X-14734724Y42601609D01*
X-12598683Y42601609D01*
X-12598683Y42601601D01*
X-12590894Y42570977D01*
X-12589830Y42565163D01*
X-12550025Y42214154D01*
X-12549907Y42205550D01*
X-12550042Y42203982D01*
X-12551967Y42191832D01*
X-12551316Y42189114D01*
X-12551637Y42185357D01*
X-12551573Y42184404D01*
X-12551573Y42184402D01*
X-12546890Y42167012D01*
X-12543919Y42155978D01*
X-12542702Y42149579D01*
X-12539384Y42120325D01*
X-12539383Y42120323D01*
X-12534175Y42110915D01*
X-12530773Y42103010D01*
X-12530301Y42101520D01*
X-12527428Y42089549D01*
X-12525786Y42087288D01*
X-12524645Y42083692D01*
X-12524221Y42082835D01*
X-12506270Y42059502D01*
X-12502694Y42054052D01*
X-12488439Y42028301D01*
X-12488438Y42028300D01*
X-12488437Y42028299D01*
X-12480025Y42021601D01*
X-12473856Y42015598D01*
X-12472845Y42014397D01*
X-12465615Y42004443D01*
X-12463233Y42002983D01*
X-12460803Y42000098D01*
X-12460086Y41999471D01*
X-12460083Y41999467D01*
X-12446644Y41991731D01*
X-12434570Y41984780D01*
X-12429182Y41981114D01*
X-12406153Y41962776D01*
X-12395820Y41959808D01*
X-12387822Y41956623D01*
X-12386439Y41955906D01*
X-12375939Y41949469D01*
X-12373177Y41949032D01*
X-12369832Y41947298D01*
X-12368926Y41946992D01*
X-12368923Y41946990D01*
X-12351049Y41944660D01*
X-12339737Y41943185D01*
X-12333356Y41941861D01*
X-12324715Y41939379D01*
X-12305057Y41933731D01*
X-12294371Y41934944D01*
X-12285769Y41935061D01*
X-12284221Y41934929D01*
X-12272052Y41932999D01*
X-12269332Y41933652D01*
X-12262323Y41933051D01*
X-12261775Y41932767D01*
X-12260418Y41932845D01*
X-11890230Y41884586D01*
X-11879230Y41881646D01*
X-11868260Y41877102D01*
X-11832829Y41877102D01*
X-11797697Y41872522D01*
X-11780690Y41877102D01*
X-11468261Y41877102D01*
X-11468260Y41877102D01*
X-11363076Y41877102D01*
X-11265897Y41917354D01*
X-11191520Y41991731D01*
X-11151268Y42088910D01*
X-11151268Y42488754D01*
X-11148790Y42503219D01*
X-11125882Y42568105D01*
X-11020234Y42867356D01*
X-11017442Y42873630D01*
X-11017224Y42874033D01*
X-11004710Y42895857D01*
X-11004508Y42897432D01*
X-11003654Y42899003D01*
X-11003653Y42899005D01*
X-11003641Y42899107D01*
X-11001580Y42916929D01*
X-10999394Y42926385D01*
X-10993418Y42943308D01*
X-10994731Y42967907D01*
X-10994553Y42974777D01*
X-10994504Y42975242D01*
X-10991297Y43000182D01*
X-10991712Y43001710D01*
X-10991525Y43003480D01*
X-10991526Y43003503D01*
X-10996467Y43020845D01*
X-10998068Y43030437D01*
X-10999023Y43048343D01*
X-10999023Y43048344D01*
X-11009650Y43070568D01*
X-11012111Y43076974D01*
X-11012245Y43077426D01*
X-11018827Y43101701D01*
X-11019799Y43102960D01*
X-11020305Y43104670D01*
X-11020371Y43104753D01*
X-11020371Y43104755D01*
X-11031516Y43118817D01*
X-11036657Y43127052D01*
X-11044397Y43143239D01*
X-11044400Y43143242D01*
X-11062710Y43159697D01*
X-11067444Y43164682D01*
X-11067745Y43165053D01*
X-11083112Y43184956D01*
X-11084488Y43185745D01*
X-11085612Y43187134D01*
X-11101383Y43195912D01*
X-11109295Y43201561D01*
X-11122632Y43213547D01*
X-11122634Y43213549D01*
X-11145852Y43221746D01*
X-11152129Y43224538D01*
X-11152586Y43224786D01*
X-11174365Y43237272D01*
X-11175941Y43237476D01*
X-11177512Y43238329D01*
X-11177615Y43238341D01*
X-11195436Y43240404D01*
X-11204902Y43242593D01*
X-11211342Y43244867D01*
X-11221818Y43248565D01*
X-11246409Y43247253D01*
X-11254263Y43247546D01*
X-11624497Y43295148D01*
X-11647101Y43305141D01*
X-11891195Y43512678D01*
X-11891197Y43512678D01*
X-11925099Y43541502D01*
X-10759758Y43541502D01*
X-10741178Y43448093D01*
X-10688266Y43368904D01*
X-10609077Y43315992D01*
X-10515668Y43297412D01*
X-10422259Y43315992D01*
X-10343070Y43368904D01*
X-10290158Y43448093D01*
X-10271578Y43541502D01*
X-10290158Y43634911D01*
X-10343070Y43714100D01*
X-10422259Y43767012D01*
X-10515668Y43785592D01*
X-10609077Y43767012D01*
X-10688266Y43714101D01*
X-10688267Y43714100D01*
X-10741178Y43634911D01*
X-10759758Y43541502D01*
X-11925099Y43541502D01*
X-11935963Y43550739D01*
X-11951126Y43580336D01*
X-11951268Y43583842D01*
X-11951268Y43894094D01*
X-11973635Y43948094D01*
X-11991520Y43991273D01*
X-12065897Y44065650D01*
X-12163076Y44105902D01*
X-12268260Y44105902D01*
X-12316850Y44085776D01*
X-12365440Y44065650D01*
X-12439816Y43991274D01*
X-12480068Y43894094D01*
X-12480068Y43494094D01*
X-12480068Y43483079D01*
X-12483450Y43472590D01*
X-12480068Y43430812D01*
X-12480068Y43098261D01*
X-12480421Y43094555D01*
X-12480334Y43081239D01*
X-12481807Y43069735D01*
X-12573902Y42725265D01*
X-12573968Y42725021D01*
X-12575522Y42719344D01*
X-12583628Y42705705D01*
X-12588536Y42671775D01*
X-12589244Y42669186D01*
X-12589293Y42669124D01*
X-12589393Y42668656D01*
X-12598121Y42638273D01*
X-12598237Y42636887D01*
X-12598270Y42636696D01*
X-12598304Y42636177D01*
X-12598303Y42636176D01*
X-12598400Y42634681D01*
X-12598491Y42633289D01*
X-12597183Y42623396D01*
X-12597255Y42611488D01*
X-12598683Y42601609D01*
X-14734724Y42601609D01*
X-14743070Y42614100D01*
X-14745049Y42615422D01*
X-14776888Y42636696D01*
X-14822259Y42667012D01*
X-14915668Y42685592D01*
X-15009077Y42667012D01*
X-15088266Y42614101D01*
X-15088267Y42614100D01*
X-15141175Y42534915D01*
X-15141178Y42534911D01*
X-15159758Y42441502D01*
X-21506146Y42441502D01*
X-21506912Y42442934D01*
X-21510169Y42450798D01*
X-21521686Y42488754D01*
X-21545762Y42568105D01*
X-21558877Y42611329D01*
X-21560539Y42619682D01*
X-21561880Y42633289D01*
X-21577245Y42789160D01*
X-21577454Y42793389D01*
X-21577455Y42817815D01*
X-21577457Y42817818D01*
X-21577625Y44041502D01*
X-14059758Y44041502D01*
X-14041178Y43948093D01*
X-13988266Y43868904D01*
X-13909077Y43815992D01*
X-13815668Y43797412D01*
X-13722259Y43815992D01*
X-13643070Y43868904D01*
X-13590158Y43948093D01*
X-13571578Y44041502D01*
X-13590158Y44134911D01*
X-13643070Y44214100D01*
X-13643071Y44214101D01*
X-13643074Y44214104D01*
X-13693729Y44247950D01*
X-13712205Y44275600D01*
X-13705717Y44308216D01*
X-13693733Y44320202D01*
X-13618060Y44370764D01*
X-13565148Y44449953D01*
X-13546938Y44541502D01*
X-11159758Y44541502D01*
X-11141178Y44448093D01*
X-11121125Y44418082D01*
X-11088267Y44368905D01*
X-11088263Y44368901D01*
X-11026495Y44327629D01*
X-11008019Y44299979D01*
X-11014507Y44267363D01*
X-11026495Y44255375D01*
X-11088263Y44214104D01*
X-11088267Y44214100D01*
X-11141178Y44134911D01*
X-11159758Y44041502D01*
X-11141178Y43948093D01*
X-11088266Y43868904D01*
X-11009077Y43815992D01*
X-10915668Y43797412D01*
X-10822259Y43815992D01*
X-10743070Y43868904D01*
X-10690158Y43948093D01*
X-10671578Y44041502D01*
X-10690158Y44134911D01*
X-10743070Y44214100D01*
X-10743073Y44214102D01*
X-10770326Y44232312D01*
X-10804843Y44255375D01*
X-10823318Y44283025D01*
X-10816831Y44315641D01*
X-10804844Y44327629D01*
X-10743070Y44368904D01*
X-10690158Y44448093D01*
X-10671578Y44541502D01*
X-10690158Y44634911D01*
X-10743070Y44714100D01*
X-10744477Y44715040D01*
X-10769348Y44731659D01*
X-10822259Y44767012D01*
X-10915668Y44785592D01*
X-11009077Y44767012D01*
X-11088266Y44714101D01*
X-11088267Y44714100D01*
X-11139935Y44636771D01*
X-11141178Y44634911D01*
X-11159758Y44541502D01*
X-13546938Y44541502D01*
X-13546568Y44543362D01*
X-13565148Y44636771D01*
X-13618060Y44715960D01*
X-13697249Y44768872D01*
X-13790658Y44787452D01*
X-13884067Y44768872D01*
X-13963256Y44715961D01*
X-13963257Y44715960D01*
X-14016168Y44636771D01*
X-14034748Y44543362D01*
X-14016168Y44449953D01*
X-13963256Y44370764D01*
X-13912598Y44336916D01*
X-13894122Y44309265D01*
X-13900609Y44276649D01*
X-13912597Y44264661D01*
X-13988265Y44214102D01*
X-13988267Y44214100D01*
X-14041178Y44134911D01*
X-14059758Y44041502D01*
X-21577625Y44041502D01*
X-21577657Y44275600D01*
X-21577760Y45034201D01*
X-21578061Y47229100D01*
X-21577852Y47233357D01*
X-21572539Y47287322D01*
X-21561202Y47402473D01*
X-21559544Y47410815D01*
X-21544651Y47459919D01*
X-20141341Y47459919D01*
X-20122761Y47366510D01*
X-20069849Y47287321D01*
X-19990660Y47234409D01*
X-19897251Y47215829D01*
X-19803842Y47234409D01*
X-19724653Y47287321D01*
X-19671741Y47366510D01*
X-19653161Y47459919D01*
X-19671741Y47553328D01*
X-19724653Y47632517D01*
X-19803842Y47685429D01*
X-19897251Y47704009D01*
X-19990660Y47685429D01*
X-20069849Y47632518D01*
X-20069850Y47632517D01*
X-20107960Y47575480D01*
X-20122761Y47553328D01*
X-20141341Y47459919D01*
X-21544651Y47459919D01*
X-21510840Y47571394D01*
X-21507583Y47579254D01*
X-21428497Y47727231D01*
X-21423766Y47734313D01*
X-21370548Y47799167D01*
X-21317329Y47864023D01*
X-21311313Y47870040D01*
X-21181608Y47976500D01*
X-21174542Y47981222D01*
X-21026562Y48060333D01*
X-21018701Y48063589D01*
X-20858137Y48112310D01*
X-20849788Y48113971D01*
X-20756624Y48123155D01*
X-20680539Y48130655D01*
X-20676276Y48130865D01*
X-15256750Y48130865D01*
X-15226026Y48118139D01*
G37*
%TD.AperFunction*%
%TD*%
M02*
