%TF.GenerationSoftware,KiCad,Pcbnew,8.99.0-344-gfbc433deaa*%
%TF.CreationDate,2024-07-04T10:19:27-04:00*%
%TF.ProjectId,thundervolt_hw1,7468756e-6465-4727-966f-6c745f687731,rev?*%
%TF.SameCoordinates,PX85b368ePY7384544*%
%TF.FileFunction,Copper,L2,Inr*%
%TF.FilePolarity,Positive*%
%FSLAX46Y46*%
G04 Gerber Fmt 4.6, Leading zero omitted, Abs format (unit mm)*
G04 Created by KiCad (PCBNEW 8.99.0-344-gfbc433deaa) date 2024-07-04 10:19:27*
%MOMM*%
%LPD*%
G01*
G04 APERTURE LIST*
%TA.AperFunction,ViaPad*%
%ADD10C,0.300000*%
%TD*%
%TA.AperFunction,Conductor*%
%ADD11C,0.350000*%
%TD*%
%TA.AperFunction,Conductor*%
%ADD12C,0.300000*%
%TD*%
%TA.AperFunction,Conductor*%
%ADD13C,0.304800*%
%TD*%
%TA.AperFunction,Conductor*%
%ADD14C,0.250000*%
%TD*%
G04 APERTURE END LIST*
D10*
%TO.N,GND*%
X-9687095Y9784750D03*
X-13415668Y42541502D03*
X-17515668Y47741502D03*
X20984332Y13841502D03*
X23384332Y28341502D03*
X-665668Y1641502D03*
X-13315668Y11041502D03*
X-17115668Y43441502D03*
X-13015668Y26441502D03*
X-1015668Y1641502D03*
X13934332Y17291502D03*
X18484332Y17841502D03*
X22244824Y10373253D03*
X22134332Y27741502D03*
X18084332Y17841502D03*
X-2615668Y11041502D03*
X-11115697Y9819638D03*
X-13915668Y26441502D03*
X21185067Y43778918D03*
X-13015668Y13141502D03*
X6234332Y16716039D03*
X18084332Y16741502D03*
X-13015668Y43441502D03*
X-13015668Y42141502D03*
X-10890985Y12348309D03*
X16216344Y7216418D03*
X-3515668Y17841502D03*
X18084332Y16341502D03*
X-13915668Y12241502D03*
X5184332Y-358498D03*
X-2815668Y10544371D03*
X-13615668Y11341502D03*
X-19015668Y43541502D03*
X-15311552Y26348714D03*
X24184332Y26241502D03*
X-12715668Y11041502D03*
X-13649019Y40162552D03*
X-15160825Y13795414D03*
X-14715668Y14241502D03*
X-18615668Y42741502D03*
X18484332Y16341502D03*
X-18615668Y43141502D03*
X11084332Y-1858498D03*
X4784332Y17941502D03*
X17842378Y2797052D03*
X-1315668Y13941502D03*
X-16415668Y47741502D03*
X22584332Y28741502D03*
X-12368504Y27728276D03*
X-19415668Y43541502D03*
X18484332Y16741502D03*
X-14904824Y27578745D03*
X-815668Y10551502D03*
X-8090668Y10741502D03*
X18084332Y11041502D03*
X18484332Y17441502D03*
X23384332Y26641502D03*
X23784332Y28341502D03*
X-11515668Y13241502D03*
X20184332Y13041502D03*
X21218682Y44121790D03*
X-9988477Y9514546D03*
X-19015668Y43141502D03*
X-20615668Y43541502D03*
X-17115668Y47341502D03*
X21184332Y43441502D03*
X-16015668Y43041502D03*
X-16015668Y47741502D03*
X-14515668Y11641502D03*
X24184332Y28341502D03*
X19784332Y13041502D03*
X17824332Y4771502D03*
X-14315668Y26841502D03*
X-14857846Y44486707D03*
X-13615668Y10741502D03*
X5184332Y-958498D03*
X-19815668Y43141502D03*
X-13658727Y36803503D03*
X24184332Y28741502D03*
X-13790668Y43541502D03*
X3684332Y-658498D03*
X-7915668Y9341502D03*
X1858303Y16196228D03*
X-13415668Y42141502D03*
X15384332Y-1558498D03*
X18384332Y14741502D03*
X584332Y17241502D03*
X17584332Y10741502D03*
X-13015668Y10741502D03*
X-17515668Y43041502D03*
X-2215668Y11041502D03*
X16534332Y2391502D03*
X11584332Y-458498D03*
X-16415668Y47341502D03*
X22984332Y26241502D03*
X-13615668Y12541502D03*
X-13915668Y13841502D03*
X-11604726Y10512945D03*
X19384332Y13441502D03*
X-14915668Y43441502D03*
X11534332Y16641502D03*
X-17115668Y47741502D03*
X24184332Y27041502D03*
X-11784158Y13552781D03*
X18484332Y10441502D03*
X20984332Y13041502D03*
X-13515668Y14241502D03*
X18984332Y13441502D03*
X4584332Y-958498D03*
X21064332Y8481502D03*
X-20215668Y43541502D03*
X22584332Y26641502D03*
X-12615668Y26841502D03*
X-14215668Y11941502D03*
X-2815668Y10141502D03*
X17984332Y10441502D03*
X23384332Y26241502D03*
X-2615668Y11441502D03*
X-19415668Y43141502D03*
X-14315668Y26441502D03*
X23784332Y26241502D03*
X-13315668Y12241502D03*
X-12372316Y14004243D03*
X-11623297Y12270974D03*
X23784332Y26641502D03*
X9284332Y-458498D03*
X23484332Y6941502D03*
X-11796211Y12997633D03*
X-2215668Y11441502D03*
X15834332Y7941502D03*
X10534332Y16391502D03*
X-13015668Y11941502D03*
X-13649019Y33735700D03*
X-13015668Y43841502D03*
X-13615668Y11941502D03*
X-13474993Y43120430D03*
X-2315668Y10441502D03*
X13784332Y-458498D03*
X-14515668Y12241502D03*
X16384332Y841502D03*
X-7315668Y10267261D03*
X19428562Y2102219D03*
X20184332Y13441502D03*
X-2040668Y10041502D03*
X-13653006Y31521619D03*
X21984332Y28741502D03*
X-13515668Y13841502D03*
X-13404897Y43619069D03*
X-2460454Y9972493D03*
X-13015668Y26841502D03*
X-20215668Y42741502D03*
X-13915668Y26841502D03*
X-14315668Y13841502D03*
X-2815668Y9741502D03*
X19784332Y13441502D03*
X23384332Y27691502D03*
X23384332Y27041502D03*
X24184332Y26641502D03*
X-7915668Y9741502D03*
X19063599Y4207773D03*
X-18615668Y43541502D03*
X-7845159Y10360397D03*
X-19415668Y42741502D03*
X23784332Y28741502D03*
X-13115668Y14241502D03*
X-12615668Y26441502D03*
X3984332Y-358498D03*
X22984332Y28741502D03*
X-10762853Y10333428D03*
X15954374Y6120177D03*
X-13015668Y11341502D03*
X16394161Y9245210D03*
X16904332Y15615502D03*
X22984332Y26641502D03*
X-13015668Y42541502D03*
X-15147572Y14153247D03*
X-9931319Y10054955D03*
X4584332Y-358498D03*
X-19815668Y43541502D03*
X21185067Y43096537D03*
X-13315668Y10441502D03*
X-20615668Y43141502D03*
X-17115668Y43041502D03*
X16609332Y11766502D03*
X-1055973Y1242401D03*
X22634332Y45591502D03*
X17484332Y11241502D03*
X-665668Y2141502D03*
X22405303Y6635950D03*
X7484332Y-1858498D03*
X-12415668Y11341502D03*
X22584332Y28341502D03*
X-17515668Y47341502D03*
X-7691976Y10811606D03*
X-20615668Y42741502D03*
X20234332Y6091502D03*
X-16015668Y43441502D03*
X-7315668Y10641502D03*
X16894332Y17721502D03*
X4284332Y-658498D03*
X-11097126Y11268155D03*
X-13115668Y13841502D03*
X18084332Y17441502D03*
X17919359Y9294359D03*
X-13915668Y11641502D03*
X-11530443Y8402072D03*
X23784332Y27041502D03*
X18584332Y15441502D03*
X-12347555Y9225374D03*
X-16015668Y47341502D03*
X21548107Y44743665D03*
X-12071836Y13291040D03*
X-7315668Y11041502D03*
X24034332Y27691502D03*
X18484332Y11041502D03*
X24584332Y27791502D03*
X-10222308Y9779554D03*
X18434332Y6791502D03*
X-12409458Y12592867D03*
X-17515668Y43441502D03*
X-3615668Y14641502D03*
X-20215668Y43141502D03*
X5484332Y-658498D03*
X-13315668Y11641502D03*
X23384332Y28741502D03*
X-14715668Y13841502D03*
X3984332Y-958498D03*
X22984332Y27041502D03*
X21332972Y44451215D03*
X3199200Y17300060D03*
X-19015668Y42741502D03*
X22144824Y13273253D03*
X-16415668Y43041502D03*
X20205970Y9056432D03*
X-14280748Y28670626D03*
X18084332Y11441502D03*
X-13915668Y14241502D03*
X-665668Y1241502D03*
X-13008888Y42979798D03*
X18584332Y13441502D03*
X6284332Y-658498D03*
X-12715668Y11641502D03*
X5884332Y-358498D03*
X20584332Y13441502D03*
X22984332Y28341502D03*
X20584332Y13841502D03*
X-14215668Y12541502D03*
X13143435Y18008229D03*
X10684332Y17291502D03*
X-665668Y841502D03*
X18484332Y11441502D03*
X-3015668Y12641502D03*
X-7515668Y9741502D03*
X-13915668Y12841502D03*
X20584332Y13041502D03*
X-19815668Y42741502D03*
X24584332Y28341502D03*
X-7515668Y9341502D03*
X4884332Y-658498D03*
X21984332Y28241502D03*
X22584332Y27041502D03*
X-8915668Y10241502D03*
X-16415668Y43441502D03*
X20853125Y12386758D03*
X14184332Y16541502D03*
X22584332Y26241502D03*
X22734332Y27691502D03*
X5884332Y-958498D03*
X-13915668Y11041502D03*
X18184332Y13441502D03*
X-1115668Y841502D03*
X3384332Y-358498D03*
X20984332Y13441502D03*
X-10125668Y11241502D03*
X-14815668Y11941502D03*
X-10484292Y9021096D03*
X-14315668Y14241502D03*
X-14215668Y11341502D03*
%TO.N,+3V3*%
X20084332Y16341502D03*
X23955502Y46379002D03*
X18984332Y14241502D03*
X23384332Y23541502D03*
X24234332Y45691502D03*
X23784332Y23941502D03*
X22984332Y23541502D03*
X24184332Y23941502D03*
X20084332Y17441502D03*
X23784332Y23541502D03*
X19684332Y17841502D03*
X19484332Y14841502D03*
X24584332Y47141502D03*
X23184332Y46591502D03*
X20084332Y15741502D03*
X19684332Y16741502D03*
X19084332Y14841502D03*
X19684332Y17441502D03*
X23384332Y23941502D03*
X24184332Y23541502D03*
X23586974Y46755603D03*
X23384332Y23141502D03*
X22984332Y23141502D03*
X23784332Y47141502D03*
X24584332Y47541502D03*
X19884332Y14941502D03*
X20084332Y16741502D03*
X22584332Y23141502D03*
X24350023Y46697893D03*
X24184332Y47541502D03*
X20084332Y17841502D03*
X23934332Y45291502D03*
X22584332Y23541502D03*
X22984332Y23941502D03*
X24184332Y47141502D03*
X24184332Y23141502D03*
X23784332Y23141502D03*
X24584332Y47941502D03*
X22584332Y23941502D03*
X20084332Y15341502D03*
X19684332Y16341502D03*
X23701256Y45721429D03*
X23434332Y46141502D03*
X24334332Y46141502D03*
X19384332Y14241502D03*
X19584332Y15441502D03*
%TO.N,+1V8*%
X-15115668Y47841502D03*
X15084332Y17651502D03*
X-13790658Y44543362D03*
X-19897251Y47459919D03*
%TO.N,+1V0*%
X-14341747Y23541502D03*
X-8665668Y11741502D03*
%TO.N,+1V15*%
X6784332Y-4473101D03*
X-1515668Y9041502D03*
%TO.N,SDA*%
X-897441Y12846329D03*
X-10915668Y44041502D03*
X20884332Y14436143D03*
X-5215668Y11241502D03*
X-4915668Y9541502D03*
X19784332Y14241502D03*
X20484332Y41941502D03*
X15084332Y17041502D03*
X18934332Y5691502D03*
%TO.N,SCL*%
X18814332Y18466502D03*
X-10915668Y44541502D03*
X20484332Y40041502D03*
X-582318Y12541502D03*
X19384332Y5691502D03*
X7995838Y16160971D03*
X7584332Y17641502D03*
X-5415668Y11741502D03*
X-4915668Y9041502D03*
X16084332Y17041502D03*
X20037332Y18969502D03*
X19784332Y13841502D03*
%TO.N,EN*%
X19410383Y8129344D03*
X-10515668Y43541502D03*
X-5015668Y10398014D03*
%TO.N,VBAT*%
X-7615668Y5941502D03*
X19584332Y11941502D03*
X-6109635Y8996864D03*
X-6515668Y10241502D03*
X-3615668Y10541502D03*
X-11415668Y42541502D03*
X-8515668Y5641502D03*
X-3815668Y11441502D03*
X-5915668Y9341502D03*
X-7315668Y5041502D03*
X-6041307Y10239779D03*
X19684332Y11041502D03*
X20084332Y11041502D03*
X-7615668Y4741502D03*
X-12215668Y43041502D03*
X20084332Y11441502D03*
X-8215668Y7141502D03*
X-6315668Y9341502D03*
X-8515668Y6841502D03*
X-4521148Y10746356D03*
X-12215668Y43841502D03*
X-3615668Y9741502D03*
X-3615668Y10141502D03*
X-8215668Y5341502D03*
X-8855138Y8968317D03*
X-8215668Y6541502D03*
X-6515668Y10641502D03*
X-7915668Y6241502D03*
X19684332Y11441502D03*
X-7915668Y6841502D03*
X-6653004Y9042416D03*
X-11815668Y42541502D03*
X-11815668Y42141502D03*
X-12329478Y42615810D03*
X19184332Y11941502D03*
X-6315668Y9741502D03*
X-8815668Y6541502D03*
X-8815668Y5941502D03*
X-9115668Y6241502D03*
X-4501231Y11748826D03*
X-7015668Y5341502D03*
X-12215668Y43441502D03*
X-8215668Y5941502D03*
X-8633297Y8714784D03*
X-4215668Y11441502D03*
X-7315668Y5641502D03*
X-6715668Y5641502D03*
X19384332Y12641502D03*
X-11748792Y43044551D03*
X-6695302Y9540233D03*
X-4026552Y11805256D03*
X16784332Y10691502D03*
X-11260245Y42981737D03*
X-4215668Y11041502D03*
X-5637848Y9029401D03*
X-8515668Y6241502D03*
X-7915668Y5641502D03*
X-3409137Y11257549D03*
X-3498762Y11742187D03*
X-7915668Y5041502D03*
X-3815668Y11041502D03*
X-7015668Y5941502D03*
X-4099579Y10540551D03*
X-8931198Y8429560D03*
X-7615668Y5341502D03*
X-4538774Y11239878D03*
X-12282593Y42202373D03*
X-9165716Y8695769D03*
X19984332Y11941502D03*
X-5915668Y9741502D03*
X-6515668Y11041502D03*
X18984332Y12641502D03*
X-7315668Y6241502D03*
X-7615668Y6541502D03*
X-11415668Y42141502D03*
%TO.N,Net-(U4-LX2)*%
X17684332Y14341502D03*
X17284332Y14341502D03*
X18984332Y13841502D03*
X17284332Y14741502D03*
X16884332Y14741502D03*
X16884332Y14341502D03*
X19384332Y13841502D03*
X17684332Y14741502D03*
%TO.N,Net-(U4-LX1)*%
X17684332Y12141502D03*
X17684332Y12541502D03*
X17284332Y12541502D03*
X16884332Y12541502D03*
X16884332Y12141502D03*
X17284332Y12141502D03*
X18984332Y13041502D03*
X19384332Y13041502D03*
%TO.N,Net-(U3-VSET)*%
X-13815668Y44041502D03*
X-14915668Y42441502D03*
%TO.N,Net-(U5-PC0)*%
X16378025Y5161502D03*
X19834332Y5691502D03*
%TO.N,+1V8_ALW*%
X17095648Y9089286D03*
X9834332Y16641502D03*
X17459012Y7936601D03*
X19591352Y8685420D03*
%TO.N,ALERT*%
X7584332Y16641502D03*
X16998332Y7891502D03*
%TO.N,SAFEMODE*%
X18184059Y8274697D03*
X12484332Y16141502D03*
%TD*%
D11*
%TO.N,GND*%
X-17515668Y43441502D02*
X-17115668Y43041502D01*
X-17515668Y47341502D02*
X-17515668Y47741502D01*
X22134332Y27741502D02*
X22734332Y27691502D01*
X24034332Y27691502D02*
X24584332Y28341502D01*
X23784332Y28341502D02*
X23384332Y27691502D01*
D12*
X20184332Y13441502D02*
X20584332Y13841502D01*
D11*
X-18615668Y42741502D02*
X-20615668Y42741502D01*
X-665668Y1291502D02*
X-665668Y841502D01*
X23384332Y27041502D02*
X24184332Y26241502D01*
X-7691976Y10811606D02*
X-7315668Y11041502D01*
X-2615668Y11441502D02*
X-2215668Y11441502D01*
X-13015668Y26441502D02*
X-13015668Y26841502D01*
X-13404897Y43619069D02*
X-13474993Y43120430D01*
D12*
X18084332Y11441502D02*
X18484332Y11441502D01*
D11*
X-11784158Y13552781D02*
X-11515668Y13241502D01*
X-17515668Y47741502D02*
X-17115668Y47341502D01*
D12*
X18484332Y17441502D02*
X18084332Y17441502D01*
D11*
X-17515668Y43441502D02*
X-17115668Y43441502D01*
D12*
X18484332Y11441502D02*
X18484332Y11041502D01*
D11*
X23784332Y28741502D02*
X24184332Y28341502D01*
X-16415668Y47741502D02*
X-16015668Y47741502D01*
X23384332Y28741502D02*
X23784332Y28341502D01*
X22584332Y27041502D02*
X24184332Y27041502D01*
X-1015668Y1641502D02*
X-665668Y1991502D01*
X-11796211Y12997633D02*
X-11515668Y13241502D01*
X-8090668Y10741502D02*
X-7315668Y11041502D01*
D12*
X18084332Y17841502D02*
X18484332Y17841502D01*
D11*
X-7845159Y10360397D02*
X-7315668Y11041502D01*
D12*
X20184332Y13441502D02*
X20584332Y13041502D01*
X17584332Y10741502D02*
X17984332Y10441502D01*
D11*
X23384332Y27041502D02*
X22584332Y26241502D01*
X-7691976Y10811606D02*
X-7515668Y9341502D01*
X-16015668Y47341502D02*
X-16415668Y47341502D01*
X-1115668Y841502D02*
X-1055973Y1242401D01*
X-12615668Y26441502D02*
X-13015668Y26441502D01*
X-14515668Y12241502D02*
X-14515668Y11641502D01*
X22734332Y27691502D02*
X21984332Y28241502D01*
X21984332Y28741502D02*
X24184332Y28741502D01*
X-17115668Y47341502D02*
X-17515668Y47341502D01*
X-7915668Y9341502D02*
X-7515668Y9741502D01*
X-13115668Y13841502D02*
X-14715668Y14241502D01*
X-12715668Y11041502D02*
X-14215668Y12541502D01*
D12*
X18084332Y17441502D02*
X18484332Y17841502D01*
D11*
X23384332Y27691502D02*
X24184332Y28341502D01*
X-19015668Y42741502D02*
X-18615668Y43141502D01*
X6284332Y-658498D02*
X5884332Y-358498D01*
X-13404897Y43619069D02*
X-13015668Y43441502D01*
X-13404897Y43619069D02*
X-13015668Y43841502D01*
D12*
X17984332Y10441502D02*
X18484332Y10441502D01*
D11*
X-14815668Y11941502D02*
X-13315668Y10441502D01*
D12*
X19784332Y13041502D02*
X20984332Y13041502D01*
D11*
X-20615668Y42741502D02*
X-20615668Y43541502D01*
X21185067Y43096537D02*
X21184332Y43441502D01*
X-13415668Y42141502D02*
X-13415668Y42541502D01*
X23384332Y27691502D02*
X22584332Y28341502D01*
X-8090668Y10741502D02*
X-7845159Y10360397D01*
X-15160825Y13795414D02*
X-14715668Y13841502D01*
X21984332Y28741502D02*
X21984332Y28241502D01*
D12*
X20184332Y13441502D02*
X20184332Y13041502D01*
D11*
X-13315668Y12241502D02*
X-13315668Y10441502D01*
X22584332Y27041502D02*
X22584332Y26241502D01*
X-9931319Y10054955D02*
X-9687095Y9784750D01*
D12*
X20984332Y13041502D02*
X20984332Y13441502D01*
X17484332Y11241502D02*
X18084332Y11441502D01*
D11*
X23384332Y28341502D02*
X23384332Y27691502D01*
X-665668Y841502D02*
X-665668Y2141502D01*
X-15160825Y13795414D02*
X-13115668Y14241502D01*
X-2615668Y11441502D02*
X-2215668Y11041502D01*
X-12071836Y13291040D02*
X-11796211Y12997633D01*
X-16015668Y47741502D02*
X-16015668Y47341502D01*
D12*
X20584332Y13441502D02*
X20584332Y13041502D01*
X18184332Y13441502D02*
X20984332Y13441502D01*
D11*
X-14315668Y26841502D02*
X-13915668Y26841502D01*
X5884332Y-358498D02*
X3384332Y-358498D01*
X-16415668Y47341502D02*
X-16015668Y47741502D01*
X-19937668Y43419502D02*
X-20615668Y42741502D01*
X-13015668Y42541502D02*
X-13015668Y42141502D01*
X21184332Y43441502D02*
X21185067Y43778918D01*
X23384332Y26241502D02*
X24184332Y27041502D01*
X-665668Y841502D02*
X-1115668Y841502D01*
X22734332Y27691502D02*
X22984332Y28341502D01*
X-11784158Y13552781D02*
X-11796211Y12997633D01*
X5884332Y-958498D02*
X6284332Y-658498D01*
X-7915668Y9741502D02*
X-7915668Y9525502D01*
X-10222308Y9779554D02*
X-9988477Y9514546D01*
X-666567Y1242401D02*
X-665668Y1241502D01*
X-2815668Y10141502D02*
X-2215668Y11041502D01*
X-9687095Y9784750D02*
X-9988477Y9514546D01*
X-9988477Y9514546D02*
X-9931319Y10054955D01*
X-19415668Y43541502D02*
X-19415668Y42741502D01*
X24184332Y27041502D02*
X24184332Y26241502D01*
X-19815668Y43419502D02*
X-19937668Y43419502D01*
X-17515668Y47741502D02*
X-17115668Y47741502D01*
D12*
X17984332Y10441502D02*
X18484332Y11041502D01*
D11*
X-13315668Y10441502D02*
X-12415668Y11341502D01*
X5884332Y-958498D02*
X3984332Y-958498D01*
X-12071836Y13291040D02*
X-11784158Y13552781D01*
X-13615668Y12541502D02*
X-13615668Y10741502D01*
X-1115668Y841502D02*
X-715668Y1241502D01*
X-13415668Y42541502D02*
X-13474993Y43120430D01*
X-8090668Y10741502D02*
X-7691976Y10811606D01*
X-2040668Y10041502D02*
X-2315668Y10441502D01*
X-16415668Y43441502D02*
X-16015668Y43441502D01*
D12*
X20584332Y13841502D02*
X20984332Y13841502D01*
D11*
X22584332Y28741502D02*
X22984332Y28341502D01*
X3984332Y-358498D02*
X4584332Y-958498D01*
X-2615668Y11441502D02*
X-2615668Y11041502D01*
X21185067Y43778918D02*
X21218682Y44121790D01*
X-12615668Y26841502D02*
X-12615668Y26441502D01*
X-2315668Y10441502D02*
X-2215668Y11041502D01*
X-13015668Y11941502D02*
X-13015668Y10741502D01*
X-20615668Y43541502D02*
X-18615668Y43541502D01*
X21984332Y28241502D02*
X23384332Y28341502D01*
X-13008888Y42979798D02*
X-13015668Y42541502D01*
D12*
X20584332Y13841502D02*
X20584332Y13441502D01*
D11*
X-20615668Y43541502D02*
X-19815668Y42741502D01*
D12*
X18084332Y16741502D02*
X18484332Y16741502D01*
D11*
X-13015668Y26841502D02*
X-12615668Y26441502D01*
X22984332Y28341502D02*
X23384332Y27691502D01*
X-17515668Y43041502D02*
X-17115668Y43041502D01*
D12*
X18484332Y10441502D02*
X18484332Y11041502D01*
D11*
X-7845159Y10360397D02*
X-7915668Y9741502D01*
X24584332Y28341502D02*
X24184332Y28741502D01*
X24184332Y28341502D02*
X24034332Y27691502D01*
X-14515668Y12241502D02*
X-13015668Y10741502D01*
X-715668Y1241502D02*
X-665668Y1241502D01*
X-13915668Y26841502D02*
X-13915668Y26441502D01*
X-7915668Y9525502D02*
X-7315668Y10641502D01*
X23784332Y28341502D02*
X24034332Y27691502D01*
X22134332Y27741502D02*
X22584332Y28341502D01*
D12*
X18484332Y10441502D02*
X17484332Y11241502D01*
D11*
X-14315668Y26441502D02*
X-13915668Y26441502D01*
X-14215668Y12541502D02*
X-14215668Y11341502D01*
X-18615668Y43141502D02*
X-18615668Y42741502D01*
X-18615668Y43141502D02*
X-18615668Y43541502D01*
X-20615668Y43141502D02*
X-18615668Y43141502D01*
D12*
X18484332Y17841502D02*
X18484332Y17441502D01*
D11*
X22734332Y27691502D02*
X23384332Y27691502D01*
X-19015668Y42741502D02*
X-19015668Y43541502D01*
D12*
X20984332Y13841502D02*
X20984332Y13441502D01*
D11*
X-16015668Y43441502D02*
X-16015668Y43041502D01*
D12*
X18084332Y11041502D02*
X18484332Y11441502D01*
D11*
X-15147572Y14153247D02*
X-14715668Y14241502D01*
X-13115668Y13841502D02*
X-13115668Y14241502D01*
X21332972Y44451215D02*
X21548107Y44743665D01*
X-7915668Y9341502D02*
X-7515668Y9341502D01*
X-12715668Y11641502D02*
X-12715668Y11041502D01*
X21984332Y28241502D02*
X22134332Y27741502D01*
X-2215668Y11441502D02*
X-2215668Y11041502D01*
D12*
X18084332Y11441502D02*
X18084332Y11041502D01*
D11*
X-19815668Y43419502D02*
X-19815668Y43541502D01*
X-13015668Y42141502D02*
X-13415668Y42141502D01*
X-1055973Y1242401D02*
X-666567Y1242401D01*
X-7915668Y9525502D02*
X-7915668Y9341502D01*
X24584332Y27791502D02*
X24584332Y28341502D01*
X-16015668Y43041502D02*
X-16415668Y43041502D01*
X-16415668Y43441502D02*
X-16415668Y43041502D01*
D12*
X20584332Y13041502D02*
X20984332Y13441502D01*
D11*
X24584332Y27791502D02*
X24034332Y27691502D01*
X-13915668Y12841502D02*
X-14815668Y11941502D01*
X-2815668Y9741502D02*
X-2040668Y10041502D01*
X-19815668Y43541502D02*
X-19015668Y42741502D01*
D12*
X17484332Y11241502D02*
X17984332Y10441502D01*
D11*
X-14715668Y13841502D02*
X-13115668Y13841502D01*
X21218682Y44121790D02*
X21332972Y44451215D01*
X-1055973Y1242401D02*
X-1015668Y1641502D01*
D12*
X18084332Y16341502D02*
X18084332Y16741502D01*
X18484332Y16741502D02*
X18484332Y16341502D01*
D11*
X5184332Y-358498D02*
X4584332Y-958498D01*
X-13015668Y43441502D02*
X-13008888Y42979798D01*
X22984332Y28741502D02*
X23384332Y28341502D01*
X24184332Y26241502D02*
X22584332Y26241502D01*
D12*
X18084332Y17441502D02*
X18084332Y17841502D01*
D11*
X24584332Y28341502D02*
X22584332Y28341502D01*
D12*
X17584332Y10741502D02*
X18484332Y11041502D01*
D11*
X-2460454Y9972493D02*
X-2615668Y11041502D01*
X-13015668Y43841502D02*
X-13015668Y43441502D01*
X-20215668Y43541502D02*
X-20215668Y42741502D01*
X24584332Y27791502D02*
X24184332Y28341502D01*
X-13915668Y12841502D02*
X-13915668Y11041502D01*
X-1015668Y1641502D02*
X-665668Y1291502D01*
D12*
X17484332Y11241502D02*
X17584332Y10741502D01*
X19784332Y13041502D02*
X20184332Y13441502D01*
D11*
X-17115668Y43041502D02*
X-17115668Y43441502D01*
X-19015668Y42741502D02*
X-18615668Y42741502D01*
X-19815668Y42741502D02*
X-19815668Y43419502D01*
X-13915668Y12841502D02*
X-12415668Y11341502D01*
X22584332Y27041502D02*
X23384332Y26241502D01*
X-17515668Y43441502D02*
X-17515668Y43041502D01*
X21984332Y28241502D02*
X22584332Y28741502D01*
X-665668Y1991502D02*
X-665668Y2141502D01*
D12*
X18484332Y16341502D02*
X18084332Y16341502D01*
D13*
X-7315668Y10267261D02*
X-7515668Y9741502D01*
D11*
X-13790668Y43541502D02*
X-13474993Y43120430D01*
X-19015668Y43541502D02*
X-18615668Y43141502D01*
D12*
X20584332Y13841502D02*
X20984332Y13441502D01*
D11*
X-17115668Y47741502D02*
X-17115668Y47341502D01*
X-13790668Y43541502D02*
X-13404897Y43619069D01*
X-2615668Y11041502D02*
X-2215668Y11441502D01*
X24034332Y27691502D02*
X23384332Y27691502D01*
X-2815668Y10544371D02*
X-2815668Y9741502D01*
D13*
X-7315668Y11041502D02*
X-7315668Y10641502D01*
D12*
X18084332Y16741502D02*
X18484332Y16341502D01*
D11*
X-2615668Y11041502D02*
X-2815668Y10544371D01*
X-10222308Y9779554D02*
X-9931319Y10054955D01*
X-18615668Y43541502D02*
X-18615668Y42741502D01*
X-1015668Y1641502D02*
X-665668Y1641502D01*
X-16415668Y43441502D02*
X-16015668Y43041502D01*
X-13115668Y14241502D02*
X-14715668Y14241502D01*
D12*
X18084332Y11441502D02*
X17584332Y10741502D01*
D11*
X6284332Y-658498D02*
X3684332Y-658498D01*
X-16415668Y47741502D02*
X-16415668Y47341502D01*
D13*
X-7515668Y9741502D02*
X-7515668Y9341502D01*
D11*
X-19815668Y42741502D02*
X-19015668Y43541502D01*
X3684332Y-658498D02*
X3984332Y-358498D01*
D13*
X-7315668Y10641502D02*
X-7315668Y10267261D01*
D12*
X18084332Y11441502D02*
X17984332Y10441502D01*
D11*
X-14315668Y26841502D02*
X-13915668Y26441502D01*
X3384332Y-358498D02*
X3984332Y-958498D01*
X3984332Y-958498D02*
X4584332Y-358498D01*
X-13015668Y26841502D02*
X-12615668Y26841502D01*
D12*
X19784332Y13441502D02*
X19784332Y13041502D01*
D11*
X-13404897Y43619069D02*
X-13015668Y42141502D01*
X22584332Y28341502D02*
X22734332Y27691502D01*
X-15147572Y14153247D02*
X-15160825Y13795414D01*
X-14315668Y26841502D02*
X-14315668Y26441502D01*
D14*
%TO.N,+1V8*%
X-14950805Y48006365D02*
X-15115668Y47841502D01*
X-9849827Y18775661D02*
X-10013146Y18938980D01*
X-10015668Y45041502D02*
X-10015668Y47241502D01*
X-10780531Y48006365D02*
X-14950805Y48006365D01*
X15084332Y17651502D02*
X13960173Y18775661D01*
X-10013146Y18938980D02*
X-10013146Y45001120D01*
X-10013146Y45001120D02*
X-10015668Y45041502D01*
X13960173Y18775661D02*
X-9849827Y18775661D01*
X-10015668Y47241502D02*
G75*
G03*
X-10780531Y48006362I-764902J-42D01*
G01*
D12*
%TO.N,Net-(U4-LX2)*%
X18984332Y13841502D02*
X17384332Y13841502D01*
X16884332Y14741502D02*
X17684332Y14741502D01*
X18184332Y13841502D02*
X17684332Y14341502D01*
X17284332Y14741502D02*
X17284332Y14341502D01*
X18584332Y13841502D02*
X17684332Y14741502D01*
X17284332Y14341502D02*
X17684332Y14741502D01*
X16884332Y14741502D02*
X16884332Y14341502D01*
X19384332Y13841502D02*
X18984332Y13841502D01*
X18984332Y13841502D02*
X18184332Y13841502D01*
X17684332Y14741502D02*
X18568032Y13857802D01*
X16884332Y14741502D02*
X17284332Y14341502D01*
X17784332Y13841502D02*
X17284332Y14341502D01*
X16884332Y14341502D02*
X17684332Y14341502D01*
X17684332Y14741502D02*
X17684332Y14341502D01*
X18984332Y13841502D02*
X17784332Y13841502D01*
X18984332Y13841502D02*
X18584332Y13841502D01*
X17384332Y13841502D02*
X16884332Y14341502D01*
%TO.N,Net-(U4-LX1)*%
X19384332Y13041502D02*
X18984332Y13041502D01*
X18984332Y13041502D02*
X17784332Y13041502D01*
X17684332Y12541502D02*
X17684332Y12141502D01*
X18584332Y13041502D02*
X17684332Y12141502D01*
X17384332Y13041502D02*
X16884332Y12541502D01*
X16884332Y12541502D02*
X17284332Y12141502D01*
X17284332Y12541502D02*
X17284332Y12141502D01*
X18184332Y13041502D02*
X17684332Y12541502D01*
X17784332Y13041502D02*
X17284332Y12541502D01*
X17284332Y12141502D02*
X17684332Y12541502D01*
X18984332Y13041502D02*
X17384332Y13041502D01*
X16884332Y12541502D02*
X17684332Y12541502D01*
X17684332Y12141502D02*
X16884332Y12141502D01*
X16884332Y12541502D02*
X16884332Y12141502D01*
X18984332Y13041502D02*
X18584332Y13041502D01*
X18984332Y13041502D02*
X18184332Y13041502D01*
%TD*%
%TA.AperFunction,Conductor*%
%TO.N,+3V3*%
G36*
X24839700Y48160842D02*
G01*
X24852426Y48130118D01*
X24852426Y46918018D01*
X24839700Y46887294D01*
X24808976Y46874568D01*
X24759696Y46874568D01*
X24719714Y46874568D01*
X24701245Y46866918D01*
X24682775Y46859268D01*
X24654505Y46830998D01*
X24639205Y46794059D01*
X24639205Y45784236D01*
X24638996Y45779974D01*
X24622330Y45610868D01*
X24620667Y45602515D01*
X24571959Y45441975D01*
X24568700Y45434107D01*
X24489608Y45286145D01*
X24484876Y45279063D01*
X24378441Y45149373D01*
X24372419Y45143351D01*
X24242729Y45036916D01*
X24235647Y45032184D01*
X24087685Y44953091D01*
X24079817Y44949832D01*
X23919272Y44901123D01*
X23910919Y44899461D01*
X23741858Y44882798D01*
X23737596Y44882588D01*
X22565187Y44882588D01*
X22565172Y44882590D01*
X22558749Y44882590D01*
X22531820Y44882588D01*
X22507881Y44882588D01*
X22507570Y44882559D01*
X22435542Y44882552D01*
X22245925Y44849103D01*
X22245920Y44849102D01*
X22103666Y44797317D01*
X22064983Y44783235D01*
X22064981Y44783235D01*
X22064981Y44783234D01*
X22064978Y44783233D01*
X21898233Y44686958D01*
X21884475Y44675414D01*
X21852758Y44665416D01*
X21823261Y44680772D01*
X21813263Y44712489D01*
X21814356Y44719081D01*
X21817413Y44731487D01*
X21801574Y44835472D01*
X21747146Y44925481D01*
X21662418Y44987810D01*
X21560286Y45012971D01*
X21560285Y45012971D01*
X21456299Y44997132D01*
X21366291Y44942704D01*
X21128427Y44619358D01*
X21125904Y44616240D01*
X21100416Y44587564D01*
X21100415Y44587561D01*
X21098443Y44581877D01*
X21092397Y44570378D01*
X21088829Y44565528D01*
X21088826Y44565521D01*
X21079653Y44528287D01*
X21078515Y44524439D01*
X20976799Y44231256D01*
X20974078Y44225035D01*
X20960675Y44199932D01*
X20960674Y44199927D01*
X20959105Y44183936D01*
X20956914Y44173942D01*
X20951650Y44158766D01*
X20951649Y44158765D01*
X20953319Y44130360D01*
X20953187Y44123572D01*
X20926423Y43850573D01*
X20923289Y43838103D01*
X20920782Y43832087D01*
X20920698Y43794211D01*
X20920491Y43790071D01*
X20916797Y43752375D01*
X20918691Y43746139D01*
X20920566Y43733416D01*
X20920055Y43498846D01*
X20919814Y43496394D01*
X20919931Y43441630D01*
X20919931Y43441444D01*
X20919812Y43386615D01*
X20920053Y43384160D01*
X20920779Y43043385D01*
X20920780Y43043382D01*
X20961239Y42946289D01*
X21035774Y42872070D01*
X21133038Y42832025D01*
X21238222Y42832249D01*
X21335315Y42872708D01*
X21335316Y42872709D01*
X21357091Y42894576D01*
X21387787Y42907368D01*
X21418538Y42894707D01*
X21431330Y42864011D01*
X21431330Y29099972D01*
X21431330Y29059990D01*
X21446630Y29023052D01*
X21474901Y28994781D01*
X21511839Y28979481D01*
X21743494Y28979481D01*
X21774218Y28966755D01*
X21786944Y28936031D01*
X21774218Y28905307D01*
X21760184Y28891274D01*
X21719932Y28794094D01*
X21719932Y28291403D01*
X21717709Y28277682D01*
X21716857Y28275124D01*
X21716856Y28275120D01*
X21717161Y28270853D01*
X21716026Y28257438D01*
X21715009Y28253284D01*
X21715009Y28253279D01*
X21717032Y28240128D01*
X21717315Y28229134D01*
X21715963Y28215819D01*
X21716085Y28214669D01*
X21716131Y28214213D01*
X21716233Y28213136D01*
X21717965Y28207579D01*
X21719932Y28194654D01*
X21719932Y28188910D01*
X21720962Y28186423D01*
X21724159Y28172892D01*
X21724350Y28170207D01*
X21726265Y28166381D01*
X21730351Y28153548D01*
X21731001Y28149320D01*
X21737904Y28137942D01*
X21742373Y28127891D01*
X21864784Y27719857D01*
X21866337Y27712284D01*
X21866477Y27711051D01*
X21874617Y27685598D01*
X21876245Y27678508D01*
X21880025Y27652049D01*
X21880026Y27652046D01*
X21887663Y27639148D01*
X21891892Y27629496D01*
X21896194Y27615156D01*
X21896774Y27614063D01*
X21896858Y27613862D01*
X21897185Y27613272D01*
X21897537Y27612623D01*
X21897809Y27612110D01*
X21897914Y27611955D01*
X21898516Y27610868D01*
X21915783Y27590461D01*
X21920000Y27584534D01*
X21930174Y27567354D01*
X21933618Y27561537D01*
X21940741Y27556195D01*
X21945600Y27552551D01*
X21953203Y27545251D01*
X21962675Y27533636D01*
X21963632Y27532846D01*
X21963772Y27532709D01*
X21964226Y27532347D01*
X21964835Y27531854D01*
X21965332Y27531444D01*
X21965496Y27531335D01*
X21966460Y27530568D01*
X21966464Y27530566D01*
X21982826Y27522134D01*
X21990222Y27518323D01*
X21996383Y27514464D01*
X22017766Y27498427D01*
X22032273Y27494710D01*
X22042088Y27490877D01*
X22055288Y27483770D01*
X22056477Y27483405D01*
X22056655Y27483333D01*
X22057219Y27483171D01*
X22057987Y27482943D01*
X22058569Y27482765D01*
X22058768Y27482726D01*
X22059964Y27482383D01*
X22086595Y27480164D01*
X22093771Y27478955D01*
X22119660Y27472321D01*
X22134495Y27474442D01*
X22145035Y27474655D01*
X22159933Y27473141D01*
X22159938Y27473143D01*
X22161163Y27473259D01*
X22168898Y27473306D01*
X22664511Y27432005D01*
X22677523Y27428849D01*
X22681740Y27427102D01*
X22681741Y27427102D01*
X22681743Y27427101D01*
X22685115Y27426431D01*
X22688500Y27425848D01*
X22688504Y27425846D01*
X22699971Y27426139D01*
X22711409Y27424908D01*
X22722555Y27422179D01*
X22725659Y27422657D01*
X22739441Y27422567D01*
X22742540Y27422047D01*
X22746921Y27423059D01*
X22760303Y27424022D01*
X22764785Y27423648D01*
X22769128Y27425038D01*
X22782364Y27427102D01*
X23331740Y27427102D01*
X23339436Y27427102D01*
X23351845Y27425292D01*
X23353138Y27424907D01*
X23359225Y27423093D01*
X23359466Y27423118D01*
X23374008Y27422169D01*
X23374254Y27422110D01*
X23377453Y27422623D01*
X23391211Y27422623D01*
X23394410Y27422110D01*
X23394646Y27422167D01*
X23409190Y27423119D01*
X23409439Y27423093D01*
X23414449Y27424586D01*
X23416819Y27425292D01*
X23429228Y27427102D01*
X23986295Y27427102D01*
X23999531Y27425037D01*
X24003874Y27423648D01*
X24003874Y27423649D01*
X24003878Y27423647D01*
X24008367Y27424022D01*
X24021742Y27423059D01*
X24026124Y27422047D01*
X24026124Y27422048D01*
X24026194Y27422031D01*
X24026294Y27422019D01*
X24027672Y27421996D01*
X24028290Y27421982D01*
X24029713Y27421939D01*
X24029813Y27421947D01*
X24029882Y27421960D01*
X24029886Y27421959D01*
X24050417Y27425693D01*
X24059293Y27426379D01*
X24080159Y27425846D01*
X24080162Y27425848D01*
X24083531Y27426428D01*
X24086918Y27427102D01*
X24086924Y27427102D01*
X24091130Y27428845D01*
X24104157Y27432004D01*
X24108700Y27432382D01*
X24112695Y27434442D01*
X24125427Y27438675D01*
X24129866Y27439417D01*
X24129869Y27439420D01*
X24129927Y27439429D01*
X24137428Y27441513D01*
X24580186Y27522015D01*
X24594734Y27522183D01*
X24595045Y27522134D01*
X24610686Y27525898D01*
X24620849Y27527102D01*
X24636922Y27527102D01*
X24636924Y27527102D01*
X24655142Y27534649D01*
X24663979Y27537250D01*
X24683373Y27540775D01*
X24683627Y27540940D01*
X24697015Y27546668D01*
X24697312Y27546739D01*
X24710319Y27556200D01*
X24719240Y27561199D01*
X24734103Y27567354D01*
X24748040Y27581292D01*
X24755221Y27587086D01*
X24756133Y27587674D01*
X24771784Y27597761D01*
X24771957Y27598012D01*
X24782129Y27608425D01*
X24782378Y27608605D01*
X24790773Y27622321D01*
X24797104Y27630357D01*
X24808480Y27641731D01*
X24816023Y27659945D01*
X24820436Y27668039D01*
X24831656Y27684244D01*
X24831718Y27684536D01*
X24837133Y27698053D01*
X24837295Y27698316D01*
X24839803Y27714209D01*
X24842579Y27724057D01*
X24848732Y27738910D01*
X24848732Y27758620D01*
X24849713Y27767800D01*
X24853875Y27787056D01*
X24853822Y27787347D01*
X24853652Y27801911D01*
X24853700Y27802214D01*
X24849937Y27817856D01*
X24848732Y27828019D01*
X24848732Y28293468D01*
X24850798Y28306707D01*
X24852187Y28311048D01*
X24848882Y28350709D01*
X24848732Y28354317D01*
X24848732Y28394095D01*
X24846988Y28398304D01*
X24843830Y28411330D01*
X24843452Y28415870D01*
X24841269Y28420106D01*
X24825220Y28451247D01*
X24823709Y28454504D01*
X24808480Y28491273D01*
X24805253Y28494500D01*
X24797353Y28505322D01*
X24795266Y28509371D01*
X24764906Y28535060D01*
X24762249Y28537505D01*
X24731627Y28568126D01*
X24731626Y28568126D01*
X24421429Y28878323D01*
X24408703Y28909047D01*
X24421429Y28939771D01*
X24452153Y28952497D01*
X24464763Y28950627D01*
X24591278Y28912247D01*
X24599141Y28908990D01*
X24747104Y28829901D01*
X24754186Y28825169D01*
X24883877Y28718734D01*
X24889900Y28712712D01*
X24996334Y28583023D01*
X25001066Y28575941D01*
X25080157Y28427976D01*
X25083417Y28420106D01*
X25132121Y28259559D01*
X25133783Y28251206D01*
X25150437Y28082143D01*
X25150646Y28077877D01*
X25148784Y14571656D01*
X25136054Y14540934D01*
X25129472Y14535534D01*
X25099689Y14515635D01*
X25084027Y14509148D01*
X24999507Y14492337D01*
X24991031Y14491502D01*
X21153069Y14491502D01*
X21122345Y14504228D01*
X21110454Y14526475D01*
X21109842Y14529552D01*
X21056930Y14608741D01*
X21056929Y14608742D01*
X21030652Y14626300D01*
X20977741Y14661653D01*
X20884332Y14680233D01*
X20790923Y14661653D01*
X20711734Y14608742D01*
X20711733Y14608741D01*
X20658822Y14529552D01*
X20658821Y14529552D01*
X20658210Y14526475D01*
X20639734Y14498824D01*
X20615595Y14491502D01*
X19833248Y14491502D01*
X19817237Y14489975D01*
X19785211Y14486919D01*
X19774883Y14483889D01*
X19771133Y14482968D01*
X19690923Y14467013D01*
X19690919Y14467011D01*
X19611733Y14414101D01*
X19608706Y14411073D01*
X19608555Y14411224D01*
X19599912Y14402667D01*
X19593722Y14398622D01*
X19549779Y14333718D01*
X19549778Y14333717D01*
X19534332Y14256877D01*
X19534332Y14247225D01*
X19532851Y14235979D01*
X19517248Y14177748D01*
X19506003Y14158270D01*
X19467564Y14119831D01*
X19448086Y14108586D01*
X19389855Y14092983D01*
X19378609Y14091502D01*
X18942611Y14091502D01*
X18934134Y14092337D01*
X18930886Y14092983D01*
X18849606Y14109151D01*
X18833943Y14115639D01*
X18827669Y14119831D01*
X18765911Y14161097D01*
X18753925Y14173083D01*
X18750808Y14177748D01*
X18708467Y14241117D01*
X18701981Y14256776D01*
X18691405Y14309941D01*
X18685167Y14341306D01*
X18684332Y14349782D01*
X18684332Y15197172D01*
X18697058Y15227896D01*
X18703636Y15233295D01*
X18756930Y15268904D01*
X18809842Y15348093D01*
X18828422Y15441502D01*
X18809842Y15534911D01*
X18756930Y15614100D01*
X18756928Y15614102D01*
X18703642Y15649707D01*
X18685167Y15677358D01*
X18684332Y15685834D01*
X18684332Y16190122D01*
X18687640Y16206750D01*
X18694847Y16224149D01*
X18698863Y16231662D01*
X18709840Y16248090D01*
X18709840Y16248091D01*
X18709842Y16248093D01*
X18713697Y16267477D01*
X18716168Y16275622D01*
X18723732Y16293882D01*
X18723732Y16313645D01*
X18724567Y16322122D01*
X18728422Y16341502D01*
X18728422Y16341503D01*
X18724567Y16360884D01*
X18723732Y16369360D01*
X18723732Y16713645D01*
X18724567Y16722122D01*
X18728422Y16741502D01*
X18728422Y16741503D01*
X18724567Y16760884D01*
X18723732Y16769360D01*
X18723732Y16789122D01*
X18716167Y16807384D01*
X18713697Y16815528D01*
X18709842Y16834911D01*
X18698857Y16851351D01*
X18694846Y16858857D01*
X18687639Y16876257D01*
X18684332Y16892883D01*
X18684332Y17290122D01*
X18687640Y17306750D01*
X18694847Y17324149D01*
X18698863Y17331662D01*
X18709840Y17348090D01*
X18709840Y17348091D01*
X18709842Y17348093D01*
X18713697Y17367477D01*
X18716168Y17375622D01*
X18723732Y17393882D01*
X18723732Y17413645D01*
X18724567Y17422122D01*
X18728422Y17441502D01*
X18728422Y17441503D01*
X18724567Y17460884D01*
X18723732Y17469360D01*
X18723732Y17813645D01*
X18724567Y17822122D01*
X18728422Y17841502D01*
X18728422Y17841503D01*
X18724567Y17860884D01*
X18723732Y17869360D01*
X18723732Y17889122D01*
X18716167Y17907384D01*
X18713697Y17915528D01*
X18709842Y17934911D01*
X18698857Y17951351D01*
X18694846Y17958857D01*
X18687639Y17976257D01*
X18684332Y17992883D01*
X18684332Y18195327D01*
X18697058Y18226051D01*
X18727782Y18238777D01*
X18736254Y18237943D01*
X18814332Y18222412D01*
X18907741Y18240992D01*
X18986930Y18293904D01*
X19039842Y18373093D01*
X19058422Y18466502D01*
X19039842Y18559911D01*
X18986930Y18639100D01*
X18907741Y18692012D01*
X18814332Y18710592D01*
X18814331Y18710592D01*
X18736258Y18695063D01*
X18703642Y18701551D01*
X18685167Y18729202D01*
X18684332Y18737678D01*
X18684332Y18784846D01*
X18685167Y18793323D01*
X18701981Y18877853D01*
X18708466Y18893510D01*
X18728382Y18923316D01*
X18756032Y18941790D01*
X18764508Y18942625D01*
X19470752Y18942625D01*
X19470753Y18942625D01*
X19507691Y18957925D01*
X19519268Y18969502D01*
X19793242Y18969502D01*
X19811822Y18876093D01*
X19864734Y18796904D01*
X19943923Y18743992D01*
X20037332Y18725412D01*
X20130741Y18743992D01*
X20209930Y18796904D01*
X20262842Y18876093D01*
X20281422Y18969502D01*
X20262842Y19062911D01*
X20209930Y19142100D01*
X20130741Y19195012D01*
X20037332Y19213592D01*
X19943923Y19195012D01*
X19864734Y19142101D01*
X19864733Y19142100D01*
X19836640Y19100054D01*
X19811822Y19062911D01*
X19793242Y18969502D01*
X19519268Y18969502D01*
X19535962Y18986196D01*
X19551262Y19023134D01*
X19551262Y26188909D01*
X22319931Y26188909D01*
X22340057Y26140323D01*
X22340057Y26140321D01*
X22340058Y26140321D01*
X22360184Y26091731D01*
X22434561Y26017354D01*
X22482706Y25997412D01*
X22531740Y25977101D01*
X22531741Y25977101D01*
X22641979Y25977101D01*
X22641987Y25977102D01*
X23326677Y25977102D01*
X23326685Y25977101D01*
X23331740Y25977101D01*
X23441980Y25977101D01*
X23441988Y25977102D01*
X24126677Y25977102D01*
X24126685Y25977101D01*
X24131740Y25977101D01*
X24236925Y25977101D01*
X24293850Y26000682D01*
X24334103Y26017354D01*
X24408480Y26091731D01*
X24425152Y26131984D01*
X24448733Y26188909D01*
X24448733Y26294094D01*
X24448733Y26297590D01*
X24448732Y26297604D01*
X24448732Y26983847D01*
X24448733Y26983856D01*
X24448733Y27094096D01*
X24440872Y27113071D01*
X24425152Y27151021D01*
X24408480Y27191273D01*
X24334103Y27265650D01*
X24285958Y27285592D01*
X24285957Y27285593D01*
X24285956Y27285593D01*
X24236926Y27305903D01*
X24236925Y27305903D01*
X24131740Y27305903D01*
X24126685Y27305903D01*
X24126677Y27305902D01*
X23441988Y27305902D01*
X23441980Y27305903D01*
X23436925Y27305903D01*
X23331740Y27305903D01*
X23326685Y27305903D01*
X23326677Y27305902D01*
X22641987Y27305902D01*
X22641979Y27305903D01*
X22636924Y27305903D01*
X22531740Y27305903D01*
X22483150Y27285776D01*
X22482706Y27285592D01*
X22434559Y27265649D01*
X22360185Y27191275D01*
X22360184Y27191274D01*
X22360184Y27191273D01*
X22340058Y27142684D01*
X22319932Y27094095D01*
X22319931Y27094093D01*
X22319931Y26983856D01*
X22319932Y26983847D01*
X22319932Y26297604D01*
X22319931Y26297590D01*
X22319931Y26188909D01*
X19551262Y26188909D01*
X19551262Y40041502D01*
X20240242Y40041502D01*
X20258822Y39948093D01*
X20311734Y39868904D01*
X20390923Y39815992D01*
X20484332Y39797412D01*
X20577741Y39815992D01*
X20656930Y39868904D01*
X20709842Y39948093D01*
X20728422Y40041502D01*
X20709842Y40134911D01*
X20656930Y40214100D01*
X20577741Y40267012D01*
X20484332Y40285592D01*
X20390923Y40267012D01*
X20311734Y40214101D01*
X20311733Y40214100D01*
X20258822Y40134911D01*
X20240242Y40041502D01*
X19551262Y40041502D01*
X19551262Y41941502D01*
X20240242Y41941502D01*
X20258822Y41848093D01*
X20311734Y41768904D01*
X20390923Y41715992D01*
X20484332Y41697412D01*
X20577741Y41715992D01*
X20656930Y41768904D01*
X20709842Y41848093D01*
X20728422Y41941502D01*
X20709842Y42034911D01*
X20656930Y42114100D01*
X20577741Y42167012D01*
X20484332Y42185592D01*
X20390923Y42167012D01*
X20311734Y42114101D01*
X20311733Y42114100D01*
X20258822Y42034911D01*
X20240242Y41941502D01*
X19551262Y41941502D01*
X19551262Y45279941D01*
X19551472Y45284205D01*
X19557704Y45347412D01*
X19568145Y45453301D01*
X19569807Y45461651D01*
X19609207Y45591502D01*
X22390242Y45591502D01*
X22408822Y45498093D01*
X22461734Y45418904D01*
X22540923Y45365992D01*
X22634332Y45347412D01*
X22727741Y45365992D01*
X22806930Y45418904D01*
X22859842Y45498093D01*
X22878422Y45591502D01*
X22859842Y45684911D01*
X22806930Y45764100D01*
X22727741Y45817012D01*
X22634332Y45835592D01*
X22540923Y45817012D01*
X22461734Y45764101D01*
X22461733Y45764100D01*
X22409417Y45685802D01*
X22408822Y45684911D01*
X22390242Y45591502D01*
X19609207Y45591502D01*
X19618524Y45622208D01*
X19621774Y45630054D01*
X19700880Y45778039D01*
X19705604Y45785107D01*
X19812042Y45914803D01*
X19818058Y45920820D01*
X19947757Y46027269D01*
X19954825Y46031992D01*
X20102793Y46111097D01*
X20110650Y46114353D01*
X20271213Y46163079D01*
X20279552Y46164738D01*
X20448244Y46181379D01*
X20452509Y46181588D01*
X22328022Y46181588D01*
X22348008Y46181585D01*
X22348008Y46181586D01*
X22348012Y46181585D01*
X22348015Y46181587D01*
X22348023Y46181588D01*
X22348027Y46181588D01*
X22368376Y46190017D01*
X22383596Y46196319D01*
X22385123Y46196889D01*
X22385167Y46196919D01*
X22386626Y46198550D01*
X22402106Y46214030D01*
X24349490Y48160847D01*
X24380209Y48173568D01*
X24808976Y48173568D01*
X24839700Y48160842D01*
G37*
%TD.AperFunction*%
%TD*%
%TA.AperFunction,Conductor*%
%TO.N,VBAT*%
G36*
X-15226027Y48118139D02*
G01*
X-15213301Y48087415D01*
X-15226027Y48056691D01*
X-15232611Y48051288D01*
X-15288265Y48014102D01*
X-15288267Y48014100D01*
X-15320639Y47965650D01*
X-15341178Y47934911D01*
X-15359758Y47841502D01*
X-15341178Y47748093D01*
X-15311722Y47704009D01*
X-15291983Y47674466D01*
X-15288266Y47668904D01*
X-15209077Y47615992D01*
X-15115668Y47597412D01*
X-15022259Y47615992D01*
X-14943070Y47668904D01*
X-14890158Y47748093D01*
X-14888828Y47754782D01*
X-14876933Y47777031D01*
X-14874717Y47779246D01*
X-14844000Y47791965D01*
X-10782987Y47791965D01*
X-10778120Y47791692D01*
X-10662914Y47778706D01*
X-10653430Y47776540D01*
X-10591239Y47754777D01*
X-10546327Y47739061D01*
X-10537564Y47734841D01*
X-10441480Y47674466D01*
X-10433873Y47668400D01*
X-10353632Y47588159D01*
X-10347566Y47580552D01*
X-10287192Y47484471D01*
X-10282971Y47475706D01*
X-10245491Y47368604D01*
X-10243325Y47359119D01*
X-10230341Y47243939D01*
X-10230068Y47239072D01*
X-10230068Y45084480D01*
X-10232075Y45072442D01*
X-10232309Y45070703D01*
X-10230152Y45036162D01*
X-10230068Y45033455D01*
X-10230068Y44998855D01*
X-10229233Y44994657D01*
X-10229627Y44994579D01*
X-10227546Y44984124D01*
X-10227546Y43684442D01*
X-10240272Y43653718D01*
X-10270996Y43640992D01*
X-10301720Y43653718D01*
X-10307123Y43660302D01*
X-10343069Y43714099D01*
X-10343071Y43714101D01*
X-10369452Y43731728D01*
X-10422259Y43767012D01*
X-10515668Y43785592D01*
X-10609077Y43767012D01*
X-10688266Y43714101D01*
X-10688267Y43714100D01*
X-10736308Y43642199D01*
X-10741178Y43634911D01*
X-10759758Y43541502D01*
X-10741178Y43448093D01*
X-10724212Y43422702D01*
X-10701634Y43388910D01*
X-10688266Y43368904D01*
X-10609077Y43315992D01*
X-10515668Y43297412D01*
X-10422259Y43315992D01*
X-10343070Y43368904D01*
X-10307124Y43422703D01*
X-10279473Y43441178D01*
X-10246857Y43434691D01*
X-10228381Y43407040D01*
X-10227546Y43398563D01*
X-10227546Y18981626D01*
X-10227546Y18896334D01*
X-10194906Y18817532D01*
X-9971275Y18593901D01*
X-9916087Y18571042D01*
X-9892474Y18561261D01*
X-9892473Y18561261D01*
X-9807181Y18561261D01*
X13853367Y18561261D01*
X13884091Y18548535D01*
X14845600Y17587026D01*
X14857490Y17564783D01*
X14858820Y17558096D01*
X14858823Y17558089D01*
X14911730Y17478908D01*
X14911733Y17478905D01*
X14911734Y17478904D01*
X14990923Y17425992D01*
X15084332Y17407412D01*
X15177741Y17425992D01*
X15256930Y17478904D01*
X15309842Y17558093D01*
X15328422Y17651502D01*
X15314498Y17721502D01*
X16650242Y17721502D01*
X16668822Y17628093D01*
X16721734Y17548904D01*
X16800923Y17495992D01*
X16894332Y17477412D01*
X16987741Y17495992D01*
X17066930Y17548904D01*
X17119842Y17628093D01*
X17138422Y17721502D01*
X17119842Y17814911D01*
X17066930Y17894100D01*
X16987741Y17947012D01*
X16894332Y17965592D01*
X16800923Y17947012D01*
X16721734Y17894101D01*
X16721733Y17894100D01*
X16674962Y17824100D01*
X16668822Y17814911D01*
X16650242Y17721502D01*
X15314498Y17721502D01*
X15309842Y17744911D01*
X15256930Y17824100D01*
X15256926Y17824104D01*
X15177745Y17877011D01*
X15177738Y17877014D01*
X15171051Y17878344D01*
X15148808Y17890234D01*
X14170591Y18868451D01*
X14157865Y18899175D01*
X14170591Y18929899D01*
X14201315Y18942625D01*
X18565672Y18942625D01*
X18596396Y18929899D01*
X18609122Y18899175D01*
X18608287Y18890698D01*
X18592578Y18811729D01*
X18592578Y18811726D01*
X18591225Y18802605D01*
X18591223Y18802591D01*
X18591222Y18802577D01*
X18590405Y18794291D01*
X18590386Y18794090D01*
X18589932Y18784864D01*
X18589932Y18737661D01*
X18590386Y18728432D01*
X18590387Y18728423D01*
X18591222Y18719947D01*
X18606675Y18676758D01*
X18606676Y18676756D01*
X18606678Y18676753D01*
X18620656Y18655832D01*
X18627143Y18623216D01*
X18620656Y18607555D01*
X18588822Y18559911D01*
X18570242Y18466502D01*
X18588822Y18373094D01*
X18588823Y18373090D01*
X18621356Y18324401D01*
X18627844Y18291785D01*
X18618271Y18272046D01*
X18609844Y18262179D01*
X18597116Y18231451D01*
X18597115Y18231447D01*
X18589932Y18195331D01*
X18589932Y18121913D01*
X18577206Y18091189D01*
X18546482Y18078463D01*
X18536233Y18080502D01*
X18536147Y18080067D01*
X18531953Y18080902D01*
X18531952Y18080902D01*
X18531950Y18080902D01*
X18512189Y18080902D01*
X18503712Y18081737D01*
X18484332Y18085592D01*
X18464952Y18081737D01*
X18456475Y18080902D01*
X18112189Y18080902D01*
X18103712Y18081737D01*
X18084332Y18085592D01*
X18064952Y18081737D01*
X18056475Y18080902D01*
X18036708Y18080902D01*
X18018454Y18073341D01*
X18010308Y18070869D01*
X17990923Y18067012D01*
X17974488Y18056032D01*
X17966982Y18052020D01*
X17948725Y18044457D01*
X17948722Y18044455D01*
X17934749Y18030482D01*
X17928168Y18025082D01*
X17911736Y18014102D01*
X17911732Y18014098D01*
X17900752Y17997666D01*
X17895352Y17991085D01*
X17881379Y17977112D01*
X17881377Y17977109D01*
X17873814Y17958852D01*
X17869802Y17951346D01*
X17858822Y17934911D01*
X17854965Y17915526D01*
X17852493Y17907380D01*
X17844932Y17889126D01*
X17844932Y17869360D01*
X17844097Y17860884D01*
X17840242Y17841503D01*
X17840242Y17841502D01*
X17844097Y17822122D01*
X17844932Y17813645D01*
X17844932Y17469360D01*
X17844097Y17460884D01*
X17840242Y17441503D01*
X17840242Y17441502D01*
X17844097Y17422122D01*
X17844932Y17413645D01*
X17844932Y17393882D01*
X17848648Y17384911D01*
X17852494Y17375624D01*
X17854965Y17367478D01*
X17858822Y17348093D01*
X17858822Y17348092D01*
X17869800Y17331661D01*
X17873814Y17324152D01*
X17881377Y17305894D01*
X17895352Y17291919D01*
X17900756Y17285334D01*
X17911733Y17268905D01*
X17928163Y17257927D01*
X17934748Y17252523D01*
X17948723Y17238548D01*
X17966981Y17230986D01*
X17974491Y17226972D01*
X17990923Y17215992D01*
X18010306Y17212137D01*
X18018450Y17209667D01*
X18036712Y17202102D01*
X18056475Y17202102D01*
X18064951Y17201268D01*
X18084332Y17197412D01*
X18103712Y17201268D01*
X18112189Y17202102D01*
X18131952Y17202102D01*
X18436712Y17202102D01*
X18456475Y17202102D01*
X18464951Y17201268D01*
X18484332Y17197412D01*
X18503712Y17201268D01*
X18512189Y17202102D01*
X18531951Y17202102D01*
X18531952Y17202102D01*
X18531952Y17202103D01*
X18536148Y17202937D01*
X18536487Y17201233D01*
X18563106Y17201235D01*
X18586623Y17177723D01*
X18589932Y17161091D01*
X18589932Y17021913D01*
X18577206Y16991189D01*
X18546482Y16978463D01*
X18536233Y16980502D01*
X18536147Y16980067D01*
X18531953Y16980902D01*
X18531952Y16980902D01*
X18531950Y16980902D01*
X18512189Y16980902D01*
X18503712Y16981737D01*
X18484332Y16985592D01*
X18464952Y16981737D01*
X18456475Y16980902D01*
X18112189Y16980902D01*
X18103712Y16981737D01*
X18084332Y16985592D01*
X18064952Y16981737D01*
X18056475Y16980902D01*
X18036708Y16980902D01*
X18018454Y16973341D01*
X18010308Y16970869D01*
X17990921Y16967012D01*
X17974490Y16956033D01*
X17966980Y16952019D01*
X17948725Y16944458D01*
X17948724Y16944457D01*
X17934746Y16930480D01*
X17928165Y16925080D01*
X17911736Y16914102D01*
X17911732Y16914098D01*
X17900754Y16897669D01*
X17895354Y16891088D01*
X17881377Y16877110D01*
X17881376Y16877109D01*
X17873815Y16858854D01*
X17869801Y16851344D01*
X17858822Y16834913D01*
X17854965Y16815526D01*
X17852493Y16807380D01*
X17844932Y16789126D01*
X17844932Y16769360D01*
X17844097Y16760884D01*
X17840242Y16741503D01*
X17840242Y16741502D01*
X17844097Y16722122D01*
X17844932Y16713645D01*
X17844932Y16369360D01*
X17844097Y16360884D01*
X17840242Y16341503D01*
X17840242Y16341502D01*
X17844097Y16322122D01*
X17844932Y16313645D01*
X17844932Y16293882D01*
X17851337Y16278417D01*
X17852494Y16275624D01*
X17854965Y16267478D01*
X17858822Y16248093D01*
X17858822Y16248092D01*
X17869802Y16231658D01*
X17873815Y16224150D01*
X17881378Y16205895D01*
X17881378Y16205894D01*
X17895350Y16191922D01*
X17900752Y16185339D01*
X17911734Y16168904D01*
X17923607Y16160971D01*
X17928166Y16157925D01*
X17934751Y16152521D01*
X17948723Y16138549D01*
X17966981Y16130986D01*
X17974483Y16126977D01*
X17990923Y16115992D01*
X18010306Y16112137D01*
X18018450Y16109667D01*
X18036712Y16102102D01*
X18056475Y16102102D01*
X18064951Y16101268D01*
X18084332Y16097412D01*
X18103712Y16101268D01*
X18112189Y16102102D01*
X18436712Y16102102D01*
X18456475Y16102102D01*
X18464951Y16101268D01*
X18484332Y16097412D01*
X18503712Y16101268D01*
X18512189Y16102102D01*
X18531951Y16102102D01*
X18531952Y16102102D01*
X18531952Y16102103D01*
X18536148Y16102937D01*
X18536487Y16101233D01*
X18563106Y16101235D01*
X18586623Y16077723D01*
X18589932Y16061091D01*
X18589932Y15722365D01*
X18577206Y15691641D01*
X18554959Y15679750D01*
X18490923Y15667013D01*
X18490923Y15667012D01*
X18411734Y15614101D01*
X18411733Y15614100D01*
X18358822Y15534911D01*
X18340242Y15441502D01*
X18358822Y15348093D01*
X18411734Y15268904D01*
X18490923Y15215992D01*
X18554958Y15203255D01*
X18582609Y15184780D01*
X18589932Y15160640D01*
X18589932Y14973338D01*
X18577206Y14942614D01*
X18546482Y14929888D01*
X18522343Y14937210D01*
X18514255Y14942614D01*
X18477741Y14967012D01*
X18384332Y14985592D01*
X18290923Y14967012D01*
X18211734Y14914101D01*
X18211733Y14914100D01*
X18158822Y14834911D01*
X18140242Y14741503D01*
X18141436Y14735500D01*
X18134946Y14702884D01*
X18107295Y14684409D01*
X18074679Y14690899D01*
X18068096Y14696301D01*
X17873311Y14891086D01*
X17867907Y14897671D01*
X17856930Y14914100D01*
X17856927Y14914102D01*
X17840500Y14925078D01*
X17833915Y14930482D01*
X17819940Y14944457D01*
X17801682Y14952020D01*
X17794173Y14956034D01*
X17777742Y14967012D01*
X17758356Y14970869D01*
X17750210Y14973340D01*
X17747417Y14974497D01*
X17731952Y14980902D01*
X17731950Y14980902D01*
X17712189Y14980902D01*
X17703712Y14981737D01*
X17684332Y14985592D01*
X17664952Y14981737D01*
X17656475Y14980902D01*
X17312189Y14980902D01*
X17303712Y14981737D01*
X17284332Y14985592D01*
X17264952Y14981737D01*
X17256475Y14980902D01*
X16912189Y14980902D01*
X16903712Y14981737D01*
X16884332Y14985592D01*
X16864952Y14981737D01*
X16856475Y14980902D01*
X16836708Y14980902D01*
X16818454Y14973341D01*
X16810308Y14970869D01*
X16790921Y14967012D01*
X16774490Y14956033D01*
X16766980Y14952019D01*
X16748725Y14944458D01*
X16748724Y14944457D01*
X16734746Y14930480D01*
X16728165Y14925080D01*
X16711736Y14914102D01*
X16711733Y14914099D01*
X16700754Y14897669D01*
X16695354Y14891089D01*
X16681377Y14877111D01*
X16673819Y14858861D01*
X16669805Y14851350D01*
X16658822Y14834911D01*
X16654965Y14815526D01*
X16652493Y14807380D01*
X16644932Y14789126D01*
X16644932Y14769360D01*
X16644097Y14760884D01*
X16640242Y14741503D01*
X16640242Y14741502D01*
X16644097Y14722122D01*
X16644932Y14713645D01*
X16644932Y14369360D01*
X16644097Y14360884D01*
X16640242Y14341503D01*
X16640242Y14341502D01*
X16644097Y14322122D01*
X16644932Y14313645D01*
X16644932Y14293882D01*
X16651337Y14278417D01*
X16652494Y14275624D01*
X16654965Y14267478D01*
X16658822Y14248093D01*
X16658822Y14248092D01*
X16669800Y14231661D01*
X16673814Y14224153D01*
X16674818Y14221730D01*
X16681024Y14206747D01*
X16684332Y14190119D01*
X16684332Y12692887D01*
X16681025Y12676260D01*
X16673816Y12658855D01*
X16669801Y12651344D01*
X16658822Y12634913D01*
X16654965Y12615526D01*
X16652493Y12607380D01*
X16644932Y12589126D01*
X16644932Y12569360D01*
X16644097Y12560884D01*
X16640242Y12541503D01*
X16640242Y12541502D01*
X16644097Y12522122D01*
X16644932Y12513645D01*
X16644932Y12169360D01*
X16644097Y12160884D01*
X16640242Y12141503D01*
X16640242Y12141502D01*
X16644097Y12122122D01*
X16644932Y12113645D01*
X16644932Y12093882D01*
X16651337Y12078417D01*
X16652494Y12075624D01*
X16654963Y12067484D01*
X16655950Y12062527D01*
X16649469Y12029909D01*
X16621822Y12011429D01*
X16613337Y12010592D01*
X16609332Y12010592D01*
X16515923Y11992012D01*
X16436734Y11939101D01*
X16436733Y11939100D01*
X16395976Y11878101D01*
X16383822Y11859911D01*
X16365242Y11766502D01*
X16383822Y11673093D01*
X16415903Y11625080D01*
X16436597Y11594108D01*
X16436734Y11593904D01*
X16515923Y11540992D01*
X16609332Y11522412D01*
X16702741Y11540992D01*
X16781930Y11593904D01*
X16834842Y11673093D01*
X16853422Y11766502D01*
X16837711Y11845487D01*
X16844199Y11878101D01*
X16871849Y11896577D01*
X16880326Y11897412D01*
X16884332Y11897412D01*
X16903712Y11901268D01*
X16912189Y11902102D01*
X16931952Y11902102D01*
X17236712Y11902102D01*
X17256475Y11902102D01*
X17264951Y11901268D01*
X17284332Y11897412D01*
X17303712Y11901268D01*
X17312189Y11902102D01*
X17331952Y11902102D01*
X17636712Y11902102D01*
X17656475Y11902102D01*
X17664951Y11901268D01*
X17684332Y11897412D01*
X17703712Y11901268D01*
X17712189Y11902102D01*
X17731951Y11902102D01*
X17731952Y11902102D01*
X17750212Y11909666D01*
X17758357Y11912137D01*
X17777741Y11915992D01*
X17794176Y11926975D01*
X17801681Y11930986D01*
X17819941Y11938548D01*
X17833920Y11952529D01*
X17840493Y11957923D01*
X17856930Y11968904D01*
X17867914Y11985345D01*
X17873305Y11991914D01*
X18268150Y12386758D01*
X20609035Y12386758D01*
X20627615Y12293349D01*
X20680527Y12214160D01*
X20759716Y12161248D01*
X20853125Y12142668D01*
X20946534Y12161248D01*
X21025723Y12214160D01*
X21078635Y12293349D01*
X21097215Y12386758D01*
X21078635Y12480167D01*
X21025723Y12559356D01*
X21023436Y12560884D01*
X20999445Y12576915D01*
X20946534Y12612268D01*
X20853125Y12630848D01*
X20759716Y12612268D01*
X20680527Y12559357D01*
X20680526Y12559356D01*
X20627615Y12480167D01*
X20609035Y12386758D01*
X18268150Y12386758D01*
X18670769Y12789376D01*
X18701493Y12802102D01*
X18936712Y12802102D01*
X18956475Y12802102D01*
X18964951Y12801268D01*
X18984332Y12797412D01*
X19003712Y12801268D01*
X19012189Y12802102D01*
X19356475Y12802102D01*
X19364951Y12801268D01*
X19384332Y12797412D01*
X19403712Y12801268D01*
X19412189Y12802102D01*
X19431951Y12802102D01*
X19431952Y12802102D01*
X19450212Y12809666D01*
X19458357Y12812137D01*
X19477741Y12815992D01*
X19494178Y12826976D01*
X19501679Y12830986D01*
X19519941Y12838549D01*
X19533917Y12852527D01*
X19540487Y12857919D01*
X19556930Y12868904D01*
X19556931Y12868907D01*
X19560192Y12871085D01*
X19592809Y12877572D01*
X19608470Y12871085D01*
X19611733Y12868905D01*
X19611734Y12868904D01*
X19628125Y12857952D01*
X19628163Y12857927D01*
X19634748Y12852523D01*
X19648723Y12838548D01*
X19666981Y12830986D01*
X19674491Y12826972D01*
X19690923Y12815992D01*
X19710306Y12812137D01*
X19718450Y12809667D01*
X19736712Y12802102D01*
X19756475Y12802102D01*
X19764951Y12801268D01*
X19784332Y12797412D01*
X19803712Y12801268D01*
X19812189Y12802102D01*
X19831952Y12802102D01*
X20136712Y12802102D01*
X20156475Y12802102D01*
X20164951Y12801268D01*
X20184332Y12797412D01*
X20203712Y12801268D01*
X20212189Y12802102D01*
X20231952Y12802102D01*
X20536712Y12802102D01*
X20556475Y12802102D01*
X20564951Y12801268D01*
X20584332Y12797412D01*
X20603712Y12801268D01*
X20612189Y12802102D01*
X20631952Y12802102D01*
X20936712Y12802102D01*
X20956475Y12802102D01*
X20964951Y12801268D01*
X20984332Y12797412D01*
X21003712Y12801268D01*
X21012189Y12802102D01*
X21031951Y12802102D01*
X21031952Y12802102D01*
X21050212Y12809666D01*
X21058357Y12812137D01*
X21077741Y12815992D01*
X21094178Y12826976D01*
X21101679Y12830986D01*
X21119941Y12838549D01*
X21133917Y12852527D01*
X21140486Y12857918D01*
X21156930Y12868904D01*
X21167916Y12885348D01*
X21173307Y12891917D01*
X21187285Y12905893D01*
X21194848Y12924155D01*
X21198858Y12931656D01*
X21209842Y12948093D01*
X21213697Y12967477D01*
X21216168Y12975622D01*
X21223732Y12993882D01*
X21223732Y13013645D01*
X21224567Y13022122D01*
X21228422Y13041502D01*
X21228422Y13041503D01*
X21224567Y13060884D01*
X21223732Y13069360D01*
X21223732Y13273253D01*
X21900734Y13273253D01*
X21919314Y13179844D01*
X21938994Y13150391D01*
X21965110Y13111304D01*
X21972226Y13100655D01*
X22051415Y13047743D01*
X22144824Y13029163D01*
X22238233Y13047743D01*
X22317422Y13100655D01*
X22370334Y13179844D01*
X22388914Y13273253D01*
X22370334Y13366662D01*
X22317422Y13445851D01*
X22314596Y13447739D01*
X22282238Y13469360D01*
X22238233Y13498763D01*
X22144824Y13517343D01*
X22051415Y13498763D01*
X21972226Y13445852D01*
X21972225Y13445851D01*
X21919548Y13367012D01*
X21919314Y13366662D01*
X21900734Y13273253D01*
X21223732Y13273253D01*
X21223732Y13413645D01*
X21224567Y13422122D01*
X21228422Y13441502D01*
X21228422Y13441503D01*
X21224567Y13460884D01*
X21223732Y13469360D01*
X21223732Y13813645D01*
X21224567Y13822122D01*
X21226462Y13831646D01*
X21228422Y13841502D01*
X21227875Y13844250D01*
X21224567Y13860884D01*
X21223732Y13869360D01*
X21223732Y13889122D01*
X21216167Y13907384D01*
X21213697Y13915528D01*
X21209842Y13934911D01*
X21198857Y13951351D01*
X21194848Y13958853D01*
X21187285Y13977111D01*
X21173313Y13991083D01*
X21167909Y13997668D01*
X21156930Y14014100D01*
X21156927Y14014102D01*
X21140497Y14025080D01*
X21133912Y14030484D01*
X21119940Y14044456D01*
X21101684Y14052019D01*
X21094176Y14056032D01*
X21077742Y14067012D01*
X21058356Y14070869D01*
X21050210Y14073340D01*
X21044123Y14075861D01*
X21031952Y14080902D01*
X21031950Y14080902D01*
X21012189Y14080902D01*
X21003712Y14081737D01*
X20984332Y14085592D01*
X20964952Y14081737D01*
X20956475Y14080902D01*
X20612189Y14080902D01*
X20603712Y14081737D01*
X20584332Y14085592D01*
X20564952Y14081737D01*
X20556475Y14080902D01*
X20536708Y14080902D01*
X20518454Y14073341D01*
X20510308Y14070869D01*
X20490921Y14067012D01*
X20474490Y14056033D01*
X20466980Y14052019D01*
X20448725Y14044458D01*
X20448724Y14044457D01*
X20434746Y14030480D01*
X20428165Y14025080D01*
X20411736Y14014102D01*
X20411733Y14014099D01*
X20400754Y13997669D01*
X20395354Y13991089D01*
X20381380Y13977113D01*
X20097895Y13693628D01*
X20067171Y13680902D01*
X20046236Y13680902D01*
X20015512Y13693628D01*
X20002786Y13724352D01*
X20008721Y13743925D01*
X20008204Y13744139D01*
X20009838Y13748088D01*
X20009842Y13748093D01*
X20028422Y13841502D01*
X20009842Y13934911D01*
X19956930Y14014100D01*
X19956929Y14014101D01*
X19954750Y14017362D01*
X19948262Y14049979D01*
X19954750Y14065642D01*
X19959894Y14073340D01*
X20009842Y14148093D01*
X20028422Y14241502D01*
X20009842Y14334911D01*
X20008966Y14337025D01*
X20008967Y14370280D01*
X20032482Y14393795D01*
X20049109Y14397102D01*
X20612349Y14397102D01*
X20643073Y14384376D01*
X20654964Y14362129D01*
X20658822Y14342734D01*
X20678259Y14313645D01*
X20699425Y14281966D01*
X20711734Y14263545D01*
X20790923Y14210633D01*
X20884332Y14192053D01*
X20977741Y14210633D01*
X21056930Y14263545D01*
X21109842Y14342734D01*
X21113699Y14362129D01*
X21132174Y14389779D01*
X21156314Y14397102D01*
X24991041Y14397102D01*
X24991046Y14397103D01*
X25000286Y14397557D01*
X25008762Y14398392D01*
X25017922Y14399751D01*
X25096831Y14415446D01*
X25129447Y14408958D01*
X25147922Y14381307D01*
X25148757Y14372825D01*
X25147974Y8685420D01*
X25147974Y8685419D01*
X25147973Y8679580D01*
X25147895Y8676990D01*
X25134593Y8454796D01*
X25133976Y8449653D01*
X25094552Y8231892D01*
X25093327Y8226858D01*
X25028264Y8015331D01*
X25026448Y8010479D01*
X24936677Y7808213D01*
X24934297Y7803611D01*
X24821084Y7613460D01*
X24818173Y7609175D01*
X24682378Y7432870D01*
X24680735Y7430864D01*
X24678707Y7428534D01*
X24678708Y7428533D01*
X16537662Y-1929134D01*
X16537657Y-1929141D01*
X16526363Y-1942123D01*
X16523817Y-1944810D01*
X16417481Y-2047782D01*
X16411730Y-2052469D01*
X16290975Y-2134792D01*
X16284510Y-2138433D01*
X16151505Y-2199014D01*
X16144515Y-2201501D01*
X16003151Y-2238567D01*
X15995840Y-2239829D01*
X15848288Y-2252472D01*
X15844579Y-2252631D01*
X7491305Y-2252631D01*
X7451323Y-2252631D01*
X7432854Y-2260281D01*
X7414384Y-2267931D01*
X7386114Y-2296201D01*
X7370814Y-2333140D01*
X7370814Y-6016029D01*
X7370813Y-6016039D01*
X7370813Y-6045180D01*
X7370444Y-6050833D01*
X7358025Y-6145472D01*
X7355106Y-6156399D01*
X7319778Y-6241973D01*
X7314138Y-6251777D01*
X7257920Y-6325335D01*
X7249941Y-6333351D01*
X7176641Y-6389908D01*
X7166863Y-6395593D01*
X7081452Y-6431315D01*
X7070538Y-6434284D01*
X6976144Y-6447111D01*
X6970278Y-6447507D01*
X6430573Y-6447317D01*
X6430177Y-6447317D01*
X6430175Y-6447316D01*
X6426940Y-6447316D01*
X6424843Y-6447265D01*
X6148823Y-6433846D01*
X6144655Y-6433441D01*
X5872259Y-6393664D01*
X5868148Y-6392860D01*
X5600837Y-6327039D01*
X5596824Y-6325843D01*
X5337087Y-6234590D01*
X5333207Y-6233012D01*
X5083481Y-6117183D01*
X5079771Y-6115240D01*
X4841183Y-5975216D01*
X4839402Y-5974112D01*
X4819869Y-5961344D01*
X4819866Y-5961342D01*
X4819866Y-5961343D01*
X2542982Y-4473101D01*
X6540242Y-4473101D01*
X6558822Y-4566510D01*
X6611734Y-4645699D01*
X6690923Y-4698611D01*
X6784332Y-4717191D01*
X6877741Y-4698611D01*
X6956930Y-4645699D01*
X7009842Y-4566510D01*
X7028422Y-4473101D01*
X7009842Y-4379692D01*
X6956930Y-4300503D01*
X6877741Y-4247591D01*
X6784332Y-4229011D01*
X6690923Y-4247591D01*
X6611734Y-4300502D01*
X6611733Y-4300503D01*
X6558822Y-4379692D01*
X6540242Y-4473101D01*
X2542982Y-4473101D01*
X-599218Y-2419261D01*
X-599706Y-2418842D01*
X-605605Y-2415008D01*
X-626473Y-2401445D01*
X-627029Y-2401077D01*
X-1192749Y-2019434D01*
X-1193971Y-2018578D01*
X-1414528Y-1858498D01*
X7240242Y-1858498D01*
X7258822Y-1951907D01*
X7311734Y-2031096D01*
X7390923Y-2084008D01*
X7484332Y-2102588D01*
X7577741Y-2084008D01*
X7656930Y-2031096D01*
X7709842Y-1951907D01*
X7728422Y-1858498D01*
X10840242Y-1858498D01*
X10858822Y-1951907D01*
X10911734Y-2031096D01*
X10990923Y-2084008D01*
X11084332Y-2102588D01*
X11177741Y-2084008D01*
X11256930Y-2031096D01*
X11309842Y-1951907D01*
X11328422Y-1858498D01*
X11309842Y-1765089D01*
X11256930Y-1685900D01*
X11177741Y-1632988D01*
X11084332Y-1614408D01*
X10990923Y-1632988D01*
X10911734Y-1685899D01*
X10911733Y-1685900D01*
X10881535Y-1731096D01*
X10858822Y-1765089D01*
X10840242Y-1858498D01*
X7728422Y-1858498D01*
X7709842Y-1765089D01*
X7656930Y-1685900D01*
X7577741Y-1632988D01*
X7484332Y-1614408D01*
X7390923Y-1632988D01*
X7311734Y-1685899D01*
X7311733Y-1685900D01*
X7281535Y-1731096D01*
X7258822Y-1765089D01*
X7240242Y-1858498D01*
X-1414528Y-1858498D01*
X-1652333Y-1685900D01*
X-1745890Y-1617996D01*
X-1747055Y-1617120D01*
X-1822250Y-1558498D01*
X15140242Y-1558498D01*
X15158822Y-1651907D01*
X15211734Y-1731096D01*
X15290923Y-1784008D01*
X15384332Y-1802588D01*
X15477741Y-1784008D01*
X15556930Y-1731096D01*
X15609842Y-1651907D01*
X15628422Y-1558498D01*
X15609842Y-1465089D01*
X15556930Y-1385900D01*
X15477741Y-1332988D01*
X15384332Y-1314408D01*
X15290923Y-1332988D01*
X15211734Y-1385899D01*
X15211733Y-1385900D01*
X15158822Y-1465089D01*
X15140242Y-1558498D01*
X-1822250Y-1558498D01*
X-2284935Y-1197787D01*
X-2286094Y-1196851D01*
X-2809224Y-759320D01*
X-2810348Y-758347D01*
X-2878437Y-697306D01*
X-3145616Y-457781D01*
X-3318139Y-303115D01*
X-3319233Y-302100D01*
X-3811590Y170781D01*
X-3812123Y171302D01*
X-3830646Y189714D01*
X-3830739Y189806D01*
X-3830786Y189853D01*
X-3830786Y189854D01*
X-4473201Y828423D01*
X-1384930Y828423D01*
X-1381365Y814158D01*
X-1380069Y803625D01*
X-1380069Y788909D01*
X-1368667Y761384D01*
X-1366655Y755290D01*
X-1359430Y726377D01*
X-1359429Y726375D01*
X-1350676Y714560D01*
X-1345447Y705324D01*
X-1339817Y691732D01*
X-1318748Y670663D01*
X-1314559Y665803D01*
X-1296821Y641859D01*
X-1296819Y641857D01*
X-1296818Y641856D01*
X-1284207Y634288D01*
X-1275842Y627757D01*
X-1265439Y617354D01*
X-1237903Y605949D01*
X-1232185Y603069D01*
X-1206627Y587731D01*
X-1192075Y585565D01*
X-1181858Y582734D01*
X-1168260Y577101D01*
X-1138452Y577101D01*
X-1132053Y576627D01*
X-1102590Y572240D01*
X-1088323Y575805D01*
X-1077790Y577101D01*
X-1058021Y577101D01*
X-1058013Y577102D01*
X-613077Y577102D01*
X-613076Y577102D01*
X-515897Y617354D01*
X-441520Y691731D01*
X-401268Y788910D01*
X-401268Y1233846D01*
X-401267Y1233855D01*
X-401267Y1347590D01*
X-401268Y1347604D01*
X-401268Y1933847D01*
X-401267Y1933856D01*
X-401267Y2047591D01*
X-401268Y2047605D01*
X-401268Y2194094D01*
X-401903Y2195628D01*
X-441520Y2291273D01*
X-515897Y2365650D01*
X-613076Y2405902D01*
X-718260Y2405902D01*
X-753025Y2391502D01*
X-815440Y2365650D01*
X-889816Y2291274D01*
X-930068Y2194094D01*
X-930068Y2119019D01*
X-942794Y2088295D01*
X-1165439Y1865650D01*
X-1165440Y1865650D01*
X-1191661Y1839430D01*
X-1194902Y1836500D01*
X-1223631Y1813041D01*
X-1223636Y1813035D01*
X-1227101Y1806590D01*
X-1234640Y1796450D01*
X-1239815Y1791275D01*
X-1239816Y1791274D01*
X-1239816Y1791273D01*
X-1249723Y1767354D01*
X-1254011Y1757004D01*
X-1255880Y1753065D01*
X-1273447Y1720394D01*
X-1274182Y1713114D01*
X-1277268Y1700859D01*
X-1280069Y1694097D01*
X-1280069Y1657001D01*
X-1280289Y1652635D01*
X-1314486Y1314015D01*
X-1317573Y1301754D01*
X-1320373Y1294994D01*
X-1320373Y1265194D01*
X-1320847Y1258795D01*
X-1371605Y917920D01*
X-1374437Y907695D01*
X-1380069Y894096D01*
X-1380069Y864286D01*
X-1380543Y857887D01*
X-1384930Y828426D01*
X-1384930Y828423D01*
X-4473201Y828423D01*
X-12092461Y8402072D01*
X-11774533Y8402072D01*
X-11755953Y8308663D01*
X-11703041Y8229474D01*
X-11623852Y8176562D01*
X-11530443Y8157982D01*
X-11437034Y8176562D01*
X-11357845Y8229474D01*
X-11304933Y8308663D01*
X-11286353Y8402072D01*
X-11304933Y8495481D01*
X-11357845Y8574670D01*
X-11358206Y8574911D01*
X-11384123Y8592229D01*
X-11437034Y8627582D01*
X-11530443Y8646162D01*
X-11623852Y8627582D01*
X-11703041Y8574671D01*
X-11703042Y8574670D01*
X-11740381Y8518787D01*
X-11755953Y8495481D01*
X-11774533Y8402072D01*
X-12092461Y8402072D01*
X-12920721Y9225374D01*
X-12591645Y9225374D01*
X-12573065Y9131965D01*
X-12520153Y9052776D01*
X-12440964Y8999864D01*
X-12347555Y8981284D01*
X-12254146Y8999864D01*
X-12222370Y9021096D01*
X-10728382Y9021096D01*
X-10709802Y8927687D01*
X-10656890Y8848498D01*
X-10577701Y8795586D01*
X-10484292Y8777006D01*
X-10390883Y8795586D01*
X-10311694Y8848498D01*
X-10258782Y8927687D01*
X-10240202Y9021096D01*
X-10244261Y9041502D01*
X-5159758Y9041502D01*
X-5141178Y8948093D01*
X-5088266Y8868904D01*
X-5009077Y8815992D01*
X-4915668Y8797412D01*
X-4822259Y8815992D01*
X-4743070Y8868904D01*
X-4690158Y8948093D01*
X-4671578Y9041502D01*
X-1759758Y9041502D01*
X-1741178Y8948093D01*
X-1688266Y8868904D01*
X-1609077Y8815992D01*
X-1515668Y8797412D01*
X-1422259Y8815992D01*
X-1343070Y8868904D01*
X-1290158Y8948093D01*
X-1271578Y9041502D01*
X-1290158Y9134911D01*
X-1343070Y9214100D01*
X-1343076Y9214104D01*
X-1389630Y9245210D01*
X-1422259Y9267012D01*
X-1515668Y9285592D01*
X-1609077Y9267012D01*
X-1688266Y9214101D01*
X-1688267Y9214100D01*
X-1729892Y9151802D01*
X-1741178Y9134911D01*
X-1759758Y9041502D01*
X-4671578Y9041502D01*
X-4690158Y9134911D01*
X-4743070Y9214100D01*
X-4743076Y9214104D01*
X-4789630Y9245210D01*
X-4804843Y9255375D01*
X-4823318Y9283025D01*
X-4816831Y9315641D01*
X-4804844Y9327629D01*
X-4743070Y9368904D01*
X-4690158Y9448093D01*
X-4671578Y9541502D01*
X-4690158Y9634911D01*
X-4743070Y9714100D01*
X-4748660Y9717835D01*
X-4773234Y9734255D01*
X-4822259Y9767012D01*
X-4915668Y9785592D01*
X-5009077Y9767012D01*
X-5088266Y9714101D01*
X-5088267Y9714100D01*
X-5137697Y9640121D01*
X-5141178Y9634911D01*
X-5159758Y9541502D01*
X-5141178Y9448093D01*
X-5120943Y9417809D01*
X-5088267Y9368905D01*
X-5088263Y9368901D01*
X-5026495Y9327629D01*
X-5008019Y9299979D01*
X-5014507Y9267363D01*
X-5026495Y9255375D01*
X-5088263Y9214104D01*
X-5088267Y9214100D01*
X-5129892Y9151802D01*
X-5141178Y9134911D01*
X-5159758Y9041502D01*
X-10244261Y9041502D01*
X-10258782Y9114505D01*
X-10311694Y9193694D01*
X-10390883Y9246606D01*
X-10484292Y9265186D01*
X-10577701Y9246606D01*
X-10656890Y9193695D01*
X-10656891Y9193694D01*
X-10700229Y9128832D01*
X-10709802Y9114505D01*
X-10728382Y9021096D01*
X-12222370Y9021096D01*
X-12174957Y9052776D01*
X-12122045Y9131965D01*
X-12103465Y9225374D01*
X-12122045Y9318783D01*
X-12174957Y9397972D01*
X-12183331Y9403567D01*
X-12204645Y9417809D01*
X-12254146Y9450884D01*
X-12347555Y9469464D01*
X-12440964Y9450884D01*
X-12520153Y9397973D01*
X-12520154Y9397972D01*
X-12567154Y9327630D01*
X-12573065Y9318783D01*
X-12591645Y9225374D01*
X-12920721Y9225374D01*
X-13518564Y9819638D01*
X-11359787Y9819638D01*
X-11341207Y9726229D01*
X-11288295Y9647040D01*
X-11209106Y9594128D01*
X-11115697Y9575548D01*
X-11022288Y9594128D01*
X-10943099Y9647040D01*
X-10890187Y9726229D01*
X-10886740Y9743557D01*
X-10489475Y9743557D01*
X-10488903Y9739314D01*
X-10489371Y9739252D01*
X-10489240Y9738393D01*
X-10488774Y9738472D01*
X-10488055Y9734254D01*
X-10471188Y9690135D01*
X-10470672Y9688711D01*
X-10455362Y9644058D01*
X-10453211Y9640358D01*
X-10453619Y9640121D01*
X-10453167Y9639375D01*
X-10452768Y9639625D01*
X-10450491Y9636006D01*
X-10418015Y9601692D01*
X-10417017Y9600600D01*
X-10224276Y9382160D01*
X-10221629Y9378522D01*
X-10190578Y9343887D01*
X-10189147Y9342207D01*
X-10160993Y9307394D01*
X-10160990Y9307393D01*
X-10157704Y9304655D01*
X-10157846Y9304485D01*
X-10155480Y9302600D01*
X-10155347Y9302774D01*
X-10153477Y9301349D01*
X-10153320Y9301204D01*
X-10151291Y9299682D01*
X-10151031Y9299486D01*
X-10150274Y9298909D01*
X-10150236Y9298891D01*
X-10150234Y9298889D01*
X-10109857Y9279525D01*
X-10107922Y9278535D01*
X-10068590Y9257145D01*
X-10064504Y9255874D01*
X-10064571Y9255662D01*
X-10061663Y9254825D01*
X-10061606Y9255038D01*
X-10059347Y9254441D01*
X-10059133Y9254362D01*
X-10056516Y9253691D01*
X-10056194Y9253607D01*
X-10055430Y9253405D01*
X-10055395Y9253404D01*
X-10055392Y9253402D01*
X-10010673Y9250964D01*
X-10008478Y9250788D01*
X-9963987Y9246081D01*
X-9963984Y9246083D01*
X-9959722Y9246470D01*
X-9959702Y9246248D01*
X-9956714Y9246586D01*
X-9956743Y9246803D01*
X-9954423Y9247117D01*
X-9954211Y9247125D01*
X-9951651Y9247490D01*
X-9951318Y9247537D01*
X-9950398Y9247662D01*
X-9950367Y9247674D01*
X-9950363Y9247673D01*
X-9908086Y9262544D01*
X-9906061Y9263199D01*
X-9863113Y9275888D01*
X-9863112Y9275890D01*
X-9859325Y9277878D01*
X-9859222Y9277682D01*
X-9856585Y9279140D01*
X-9856696Y9279330D01*
X-9854676Y9280506D01*
X-9854481Y9280596D01*
X-9852229Y9281928D01*
X-9851944Y9282095D01*
X-9851165Y9282549D01*
X-9844069Y9288911D01*
X-9817810Y9312455D01*
X-9816174Y9313849D01*
X-9781325Y9342030D01*
X-9781324Y9342033D01*
X-9778589Y9345316D01*
X-9778418Y9345174D01*
X-9776537Y9347534D01*
X-9776712Y9347667D01*
X-9775284Y9349542D01*
X-9769722Y9355568D01*
X-9767792Y9357298D01*
X-9552883Y9549975D01*
X-9551030Y9551338D01*
X-9548823Y9553334D01*
X-9548821Y9553334D01*
X-9521428Y9578094D01*
X-9510280Y9588170D01*
X-9510279Y9588168D01*
X-9510189Y9588253D01*
X-9471438Y9622993D01*
X-9471436Y9622999D01*
X-9471307Y9623169D01*
X-9471205Y9623305D01*
X-9470793Y9623855D01*
X-9470790Y9623863D01*
X-9470788Y9623864D01*
X-9448513Y9670794D01*
X-9425951Y9717835D01*
X-9425952Y9717835D01*
X-9425950Y9717837D01*
X-9425904Y9718019D01*
X-9425867Y9718167D01*
X-9425686Y9718878D01*
X-9425686Y9718885D01*
X-9425684Y9718888D01*
X-9423063Y9770786D01*
X-9423059Y9770786D01*
X-9423055Y9770939D01*
X-9421294Y9803217D01*
X-9420221Y9822871D01*
X-9420267Y9823184D01*
X-9420291Y9823349D01*
X-9420374Y9823928D01*
X-9437759Y9872725D01*
X-9437817Y9872889D01*
X-9451610Y9912101D01*
X-9455123Y9922090D01*
X-9455125Y9922092D01*
X-9455126Y9922096D01*
X-9455318Y9922418D01*
X-9455408Y9922570D01*
X-9455674Y9923019D01*
X-9490406Y9961446D01*
X-9490524Y9961576D01*
X-9527324Y10002622D01*
X-9529035Y10004183D01*
X-9697090Y10190117D01*
X-9701634Y10196116D01*
X-9703136Y10198504D01*
X-9731043Y10227989D01*
X-9733271Y10230534D01*
X-9733638Y10230988D01*
X-9742141Y10241502D01*
X-9159758Y10241502D01*
X-9141178Y10148093D01*
X-9116407Y10111020D01*
X-9101920Y10089338D01*
X-9088266Y10068904D01*
X-9009077Y10015992D01*
X-8915668Y9997412D01*
X-8822259Y10015992D01*
X-8743070Y10068904D01*
X-8690158Y10148093D01*
X-8671578Y10241502D01*
X-8690158Y10334911D01*
X-8743070Y10414100D01*
X-8751206Y10419536D01*
X-8778429Y10437726D01*
X-8822259Y10467012D01*
X-8915668Y10485592D01*
X-9009077Y10467012D01*
X-9088266Y10414101D01*
X-9088267Y10414100D01*
X-9132370Y10348093D01*
X-9141178Y10334911D01*
X-9159758Y10241502D01*
X-9742141Y10241502D01*
X-9758803Y10262106D01*
X-9758804Y10262107D01*
X-9758899Y10262158D01*
X-9770369Y10271191D01*
X-9770431Y10271260D01*
X-9770432Y10271261D01*
X-9770433Y10271262D01*
X-9770435Y10271263D01*
X-9772693Y10272942D01*
X-9772771Y10273012D01*
X-9773052Y10273216D01*
X-9773135Y10273264D01*
X-9775436Y10274895D01*
X-9775438Y10274897D01*
X-9775442Y10274899D01*
X-9812521Y10291468D01*
X-9815551Y10292966D01*
X-9851207Y10312355D01*
X-9851212Y10312357D01*
X-9851309Y10312367D01*
X-9865363Y10316322D01*
X-9865456Y10316366D01*
X-9868186Y10317054D01*
X-9868273Y10317084D01*
X-9868636Y10317171D01*
X-9868721Y10317183D01*
X-9871470Y10317809D01*
X-9912085Y10318928D01*
X-9915457Y10319153D01*
X-9955809Y10323421D01*
X-9955911Y10323390D01*
X-9970395Y10321667D01*
X-9970509Y10321673D01*
X-9973299Y10321263D01*
X-9973391Y10321258D01*
X-9973737Y10321203D01*
X-9973826Y10321179D01*
X-9976620Y10320703D01*
X-10014552Y10306201D01*
X-10017752Y10305118D01*
X-10056686Y10293612D01*
X-10056687Y10293611D01*
X-10056773Y10293541D01*
X-10069493Y10286407D01*
X-10069593Y10286372D01*
X-10072012Y10284926D01*
X-10072101Y10284883D01*
X-10072409Y10284695D01*
X-10072472Y10284646D01*
X-10074867Y10283140D01*
X-10104360Y10255227D01*
X-10106904Y10253001D01*
X-10138468Y10227476D01*
X-10138477Y10227464D01*
X-10138528Y10227369D01*
X-10147545Y10215916D01*
X-10147624Y10215845D01*
X-10149305Y10213585D01*
X-10154298Y10207964D01*
X-10400156Y9975276D01*
X-10401275Y9974253D01*
X-10436675Y9943017D01*
X-10439269Y9939614D01*
X-10439642Y9939899D01*
X-10440158Y9939198D01*
X-10439775Y9938927D01*
X-10442251Y9935435D01*
X-10461526Y9892301D01*
X-10462167Y9890931D01*
X-10482914Y9848536D01*
X-10484008Y9844401D01*
X-10484461Y9844521D01*
X-10484669Y9843674D01*
X-10484213Y9843570D01*
X-10485162Y9839403D01*
X-10486462Y9792169D01*
X-10486531Y9790655D01*
X-10489475Y9743557D01*
X-10886740Y9743557D01*
X-10871607Y9819638D01*
X-10890187Y9913047D01*
X-10943099Y9992236D01*
X-11022288Y10045148D01*
X-11115697Y10063728D01*
X-11209106Y10045148D01*
X-11288295Y9992237D01*
X-11288296Y9992236D01*
X-11323456Y9939614D01*
X-11341207Y9913047D01*
X-11359787Y9819638D01*
X-13518564Y9819638D01*
X-15472974Y11762349D01*
X-15475381Y11764944D01*
X-15563691Y11868327D01*
X-15567699Y11873843D01*
X-15570309Y11878101D01*
X-15576933Y11888909D01*
X-15080069Y11888909D01*
X-15039817Y11791733D01*
X-15039815Y11791731D01*
X-14739817Y11491733D01*
X-14739816Y11491731D01*
X-14665439Y11417354D01*
X-14665438Y11417354D01*
X-14439817Y11191733D01*
X-14439816Y11191731D01*
X-14365439Y11117354D01*
X-14365438Y11117354D01*
X-14139817Y10891733D01*
X-14139816Y10891731D01*
X-14065439Y10817354D01*
X-14065438Y10817354D01*
X-13839817Y10591733D01*
X-13839816Y10591731D01*
X-13765439Y10517354D01*
X-13765438Y10517354D01*
X-13539817Y10291733D01*
X-13539816Y10291731D01*
X-13465439Y10217354D01*
X-13418168Y10197774D01*
X-13368260Y10177101D01*
X-13368259Y10177101D01*
X-13263077Y10177101D01*
X-13263076Y10177101D01*
X-13213168Y10197774D01*
X-13165897Y10217354D01*
X-13091520Y10291731D01*
X-13091520Y10291733D01*
X-12870308Y10512945D01*
X-11848816Y10512945D01*
X-11830236Y10419536D01*
X-11795450Y10367475D01*
X-11782503Y10348097D01*
X-11777324Y10340347D01*
X-11698135Y10287435D01*
X-11604726Y10268855D01*
X-11511317Y10287435D01*
X-11442483Y10333428D01*
X-11006943Y10333428D01*
X-10988363Y10240019D01*
X-10960387Y10198150D01*
X-10937056Y10163231D01*
X-10935451Y10160830D01*
X-10856262Y10107918D01*
X-10762853Y10089338D01*
X-10669444Y10107918D01*
X-10590255Y10160830D01*
X-10537343Y10240019D01*
X-10518763Y10333428D01*
X-10537343Y10426837D01*
X-10590255Y10506026D01*
X-10598066Y10511245D01*
X-10639286Y10538787D01*
X-10669444Y10558938D01*
X-10762853Y10577518D01*
X-10856262Y10558938D01*
X-10935451Y10506027D01*
X-10935452Y10506026D01*
X-10965614Y10460884D01*
X-10988363Y10426837D01*
X-11006943Y10333428D01*
X-11442483Y10333428D01*
X-11432128Y10340347D01*
X-11379216Y10419536D01*
X-11360636Y10512945D01*
X-11379216Y10606354D01*
X-11432128Y10685543D01*
X-11446433Y10695101D01*
X-11458406Y10703102D01*
X-11511317Y10738455D01*
X-11549440Y10746038D01*
X-8360215Y10746038D01*
X-8356416Y10725111D01*
X-8355729Y10716338D01*
X-8356225Y10695103D01*
X-8348124Y10674173D01*
X-8345852Y10666016D01*
X-8341962Y10643895D01*
X-8341734Y10643318D01*
X-8341652Y10643108D01*
X-8341434Y10642546D01*
X-8329916Y10624667D01*
X-8325923Y10616821D01*
X-8318256Y10597013D01*
X-8318255Y10597012D01*
X-8318254Y10597010D01*
X-8313218Y10591733D01*
X-8302764Y10580778D01*
X-8297543Y10574111D01*
X-8295814Y10571395D01*
X-8284153Y10553071D01*
X-8282199Y10550593D01*
X-8198464Y10420612D01*
X-8126944Y10309591D01*
X-8120300Y10281142D01*
X-8173472Y9814418D01*
X-8176500Y9802710D01*
X-8180068Y9794097D01*
X-8180068Y9758986D01*
X-8180347Y9754068D01*
X-8184322Y9719179D01*
X-8184322Y9719174D01*
X-8181751Y9710210D01*
X-8180068Y9698235D01*
X-8180068Y9541002D01*
X-8180288Y9536638D01*
X-8184015Y9499730D01*
X-8181909Y9492730D01*
X-8180068Y9480216D01*
X-8180068Y9397604D01*
X-8180069Y9397590D01*
X-8180069Y9288909D01*
X-8162329Y9246083D01*
X-8162329Y9246081D01*
X-8162328Y9246081D01*
X-8139816Y9191731D01*
X-8065439Y9117354D01*
X-8022822Y9099702D01*
X-7968260Y9077101D01*
X-7968259Y9077101D01*
X-7858021Y9077101D01*
X-7858013Y9077102D01*
X-7558004Y9077102D01*
X-7546276Y9075489D01*
X-7543674Y9074760D01*
X-7536402Y9072721D01*
X-7502449Y9076793D01*
X-7497276Y9077102D01*
X-7463077Y9077102D01*
X-7463076Y9077102D01*
X-7453598Y9081029D01*
X-7442150Y9084026D01*
X-7431967Y9085246D01*
X-7402161Y9102000D01*
X-7397499Y9104265D01*
X-7365897Y9117354D01*
X-7358644Y9124609D01*
X-7349209Y9131761D01*
X-7340272Y9136783D01*
X-7319135Y9163683D01*
X-7315711Y9167542D01*
X-7291520Y9191731D01*
X-7287596Y9201207D01*
X-7281619Y9211425D01*
X-7275281Y9219488D01*
X-7266050Y9252418D01*
X-7264362Y9257303D01*
X-7251268Y9288910D01*
X-7251268Y9299166D01*
X-7249655Y9310895D01*
X-7249014Y9313181D01*
X-7246887Y9320768D01*
X-7250959Y9354723D01*
X-7251268Y9359896D01*
X-7251268Y9394093D01*
X-7251268Y9394094D01*
X-7255195Y9403573D01*
X-7258192Y9415024D01*
X-7258526Y9417808D01*
X-7270660Y9518994D01*
X-7273559Y9543168D01*
X-7273868Y9548341D01*
X-7273868Y9625707D01*
X-7270560Y9642335D01*
X-7258706Y9670953D01*
X-7251268Y9688909D01*
X-7251268Y9748492D01*
X-7248430Y9763938D01*
X-7104911Y10141219D01*
X-3085248Y10141219D01*
X-3080912Y10119541D01*
X-3080068Y10111020D01*
X-3080068Y9745099D01*
X-3080080Y9744084D01*
X-3081225Y9695102D01*
X-3080716Y9692193D01*
X-3080709Y9692104D01*
X-3080668Y9691885D01*
X-3080645Y9691807D01*
X-3080070Y9688914D01*
X-3079986Y9688711D01*
X-3061490Y9644057D01*
X-3061308Y9643619D01*
X-3060931Y9642676D01*
X-3043257Y9597013D01*
X-3041678Y9594528D01*
X-3041639Y9594453D01*
X-3041505Y9594248D01*
X-3041456Y9594186D01*
X-3039816Y9591731D01*
X-3005159Y9557074D01*
X-3004450Y9556347D01*
X-2987369Y9538449D01*
X-2970635Y9520914D01*
X-2970632Y9520913D01*
X-2968219Y9519217D01*
X-2968151Y9519160D01*
X-2967974Y9519039D01*
X-2967893Y9518994D01*
X-2965443Y9517358D01*
X-2965439Y9517354D01*
X-2920160Y9498600D01*
X-2919323Y9498241D01*
X-2878529Y9480216D01*
X-2874424Y9478402D01*
X-2871547Y9477760D01*
X-2871473Y9477737D01*
X-2871224Y9477685D01*
X-2871132Y9477674D01*
X-2868261Y9477103D01*
X-2868260Y9477102D01*
X-2819264Y9477102D01*
X-2818249Y9477090D01*
X-2769268Y9475946D01*
X-2769268Y9475947D01*
X-2769267Y9475946D01*
X-2769267Y9475947D01*
X-2766359Y9476454D01*
X-2766275Y9476462D01*
X-2766045Y9476505D01*
X-2765967Y9476527D01*
X-2763081Y9477102D01*
X-2763076Y9477102D01*
X-2717751Y9495877D01*
X-2716892Y9496221D01*
X-1968194Y9786040D01*
X-1961561Y9788015D01*
X-1945480Y9791435D01*
X-1934219Y9793830D01*
X-1934219Y9793831D01*
X-1934216Y9793831D01*
X-1920562Y9803220D01*
X-1911631Y9807935D01*
X-1896175Y9813917D01*
X-1875952Y9833217D01*
X-1870573Y9837587D01*
X-1847540Y9853420D01*
X-1838515Y9867323D01*
X-1832078Y9875087D01*
X-1820080Y9886535D01*
X-1808779Y9912113D01*
X-1805492Y9918190D01*
X-1790264Y9941644D01*
X-1787247Y9957939D01*
X-1784265Y9967590D01*
X-1777569Y9982744D01*
X-1777569Y9982745D01*
X-1777568Y9982747D01*
X-1776916Y10010696D01*
X-1776201Y10017586D01*
X-1771111Y10045070D01*
X-1771111Y10045071D01*
X-1774561Y10061289D01*
X-1775499Y10071332D01*
X-1775111Y10087903D01*
X-1785208Y10113984D01*
X-1787184Y10120624D01*
X-1791565Y10141219D01*
X-1792997Y10147954D01*
X-1802385Y10161610D01*
X-1807099Y10170538D01*
X-1808381Y10173850D01*
X-1813082Y10185995D01*
X-1832386Y10206223D01*
X-1836753Y10211599D01*
X-1839774Y10215993D01*
X-2027381Y10488876D01*
X-2034434Y10520631D01*
X-2029289Y10551502D01*
X-1059758Y10551502D01*
X-1041178Y10458093D01*
X-1015416Y10419537D01*
X-1003265Y10401351D01*
X-988266Y10378904D01*
X-909077Y10325992D01*
X-815668Y10307412D01*
X-722259Y10325992D01*
X-643070Y10378904D01*
X-590158Y10458093D01*
X-571578Y10551502D01*
X-590158Y10644911D01*
X-643070Y10724100D01*
X-646273Y10726240D01*
X-676991Y10746765D01*
X-722259Y10777012D01*
X-815668Y10795592D01*
X-909077Y10777012D01*
X-988266Y10724101D01*
X-988267Y10724100D01*
X-1032897Y10657304D01*
X-1041178Y10644911D01*
X-1059758Y10551502D01*
X-2029289Y10551502D01*
X-1960648Y10963342D01*
X-1957933Y10972821D01*
X-1951268Y10988910D01*
X-1951268Y11011344D01*
X-1950442Y11019777D01*
X-1946088Y11041784D01*
X-1946090Y11041790D01*
X-1946093Y11045850D01*
X-1946220Y11049907D01*
X-1946219Y11049911D01*
X-1948370Y11059199D01*
X-1950148Y11066881D01*
X-1951268Y11076682D01*
X-1951268Y11494094D01*
X-1956771Y11507380D01*
X-1991520Y11591273D01*
X-2065897Y11665650D01*
X-2163076Y11705902D01*
X-2163077Y11705902D01*
X-2558013Y11705902D01*
X-2558021Y11705903D01*
X-2563076Y11705903D01*
X-2668260Y11705903D01*
X-2716850Y11685776D01*
X-2765439Y11665650D01*
X-2765441Y11665649D01*
X-2839816Y11591274D01*
X-2851164Y11563875D01*
X-2854325Y11556244D01*
X-2878694Y11497412D01*
X-2880069Y11494093D01*
X-2880069Y11383856D01*
X-2880068Y11383847D01*
X-2880068Y11101106D01*
X-2883208Y11084889D01*
X-2950418Y10917829D01*
X-3059030Y10647856D01*
X-3060350Y10644576D01*
X-3060517Y10644167D01*
X-3080095Y10596898D01*
X-3080298Y10595820D01*
X-3080380Y10595397D01*
X-3080592Y10594335D01*
X-3080070Y10543194D01*
X-3080068Y10542751D01*
X-3080068Y10171662D01*
X-3080894Y10163231D01*
X-3085248Y10141222D01*
X-3085248Y10141219D01*
X-7104911Y10141219D01*
X-7097337Y10161129D01*
X-7092855Y10169816D01*
X-7090158Y10173852D01*
X-7088703Y10181172D01*
X-7086230Y10189321D01*
X-7083645Y10195562D01*
X-7073868Y10219164D01*
X-7073868Y10219170D01*
X-7073166Y10222699D01*
X-7072569Y10226241D01*
X-7072567Y10226244D01*
X-7073342Y10252751D01*
X-7072526Y10262501D01*
X-7071578Y10267261D01*
X-7073033Y10274577D01*
X-7073868Y10283053D01*
X-7073868Y10398014D01*
X-5259758Y10398014D01*
X-5241178Y10304605D01*
X-5217323Y10268903D01*
X-5188820Y10226244D01*
X-5188266Y10225416D01*
X-5109077Y10172504D01*
X-5015668Y10153924D01*
X-4922259Y10172504D01*
X-4843070Y10225416D01*
X-4790158Y10304605D01*
X-4771578Y10398014D01*
X-4790158Y10491423D01*
X-4843070Y10570612D01*
X-4844242Y10571395D01*
X-4874680Y10591733D01*
X-4922259Y10623524D01*
X-5015668Y10642104D01*
X-5109077Y10623524D01*
X-5188266Y10570613D01*
X-5188267Y10570612D01*
X-5227935Y10511243D01*
X-5241178Y10491423D01*
X-5259758Y10398014D01*
X-7073868Y10398014D01*
X-7073868Y10521959D01*
X-7068689Y10542532D01*
X-7057887Y10562621D01*
X-7047322Y10667275D01*
X-7064713Y10725111D01*
X-7072028Y10749438D01*
X-7073868Y10761950D01*
X-7073868Y10912553D01*
X-7071351Y10923984D01*
X-7072010Y10924143D01*
X-7066158Y10948377D01*
X-7065147Y10952565D01*
X-7062657Y10959916D01*
X-7052568Y10982747D01*
X-7052225Y10997475D01*
X-7050685Y11007967D01*
X-7046781Y11022174D01*
X-7046782Y11022180D01*
X-7046480Y11026384D01*
X-7046310Y11030549D01*
X-7048030Y11041501D01*
X-7050182Y11055204D01*
X-7050695Y11062958D01*
X-7050490Y11071716D01*
X-7050111Y11087903D01*
X-7055429Y11101639D01*
X-7058022Y11111923D01*
X-7059852Y11126544D01*
X-7059853Y11126546D01*
X-7059853Y11126547D01*
X-7061148Y11130444D01*
X-7062624Y11134463D01*
X-7068261Y11143690D01*
X-7075635Y11155759D01*
X-7079073Y11162721D01*
X-7088082Y11185995D01*
X-7093558Y11191733D01*
X-7098256Y11196656D01*
X-7104584Y11205160D01*
X-7111870Y11217967D01*
X-7111874Y11217970D01*
X-7114611Y11221131D01*
X-7117460Y11224223D01*
X-7128871Y11232537D01*
X-7137627Y11238917D01*
X-7143464Y11244028D01*
X-7157768Y11259017D01*
X-7160701Y11262091D01*
X-7174180Y11268047D01*
X-7183283Y11273484D01*
X-7194912Y11282524D01*
X-7194913Y11282525D01*
X-7198635Y11284389D01*
X-7202476Y11286167D01*
X-7226721Y11292023D01*
X-7234078Y11294514D01*
X-7256911Y11304602D01*
X-7256914Y11304603D01*
X-7271641Y11304947D01*
X-7282132Y11306487D01*
X-7296339Y11310389D01*
X-7300508Y11310689D01*
X-7304720Y11310861D01*
X-7329368Y11306991D01*
X-7337120Y11306477D01*
X-7362066Y11307060D01*
X-7362072Y11307059D01*
X-7375807Y11301742D01*
X-7386087Y11299150D01*
X-7400709Y11297318D01*
X-7404654Y11296007D01*
X-7408629Y11294546D01*
X-7429921Y11281540D01*
X-7436885Y11278100D01*
X-8157999Y10998958D01*
X-8166158Y10996685D01*
X-8188276Y10992796D01*
X-8188810Y10992584D01*
X-8189052Y10992490D01*
X-8189623Y10992269D01*
X-8207509Y10980749D01*
X-8215348Y10976759D01*
X-8235159Y10969089D01*
X-8251396Y10953596D01*
X-8258061Y10948377D01*
X-8277016Y10936313D01*
X-8277365Y10935975D01*
X-8277558Y10935789D01*
X-8278051Y10935319D01*
X-8290167Y10917829D01*
X-8295883Y10911142D01*
X-8311255Y10896471D01*
X-8311258Y10896467D01*
X-8320329Y10875939D01*
X-8324490Y10868565D01*
X-8337381Y10850173D01*
X-8337652Y10849546D01*
X-8337754Y10849312D01*
X-8337961Y10848844D01*
X-8342459Y10828063D01*
X-8345180Y10819698D01*
X-8353768Y10800258D01*
X-8353769Y10800257D01*
X-8354293Y10777823D01*
X-8355315Y10769417D01*
X-8360188Y10747483D01*
X-8360200Y10746715D01*
X-8360205Y10746477D01*
X-8360215Y10746038D01*
X-11549440Y10746038D01*
X-11604726Y10757035D01*
X-11698135Y10738455D01*
X-11777324Y10685544D01*
X-11777325Y10685543D01*
X-11823242Y10616821D01*
X-11830236Y10606354D01*
X-11848816Y10512945D01*
X-12870308Y10512945D01*
X-12865899Y10517354D01*
X-12865897Y10517354D01*
X-12791520Y10591731D01*
X-12791520Y10591733D01*
X-12565899Y10817354D01*
X-12565897Y10817354D01*
X-12491520Y10891731D01*
X-12491520Y10891733D01*
X-12191521Y11191731D01*
X-12159864Y11268155D01*
X-11341216Y11268155D01*
X-11322636Y11174746D01*
X-11292908Y11130255D01*
X-11277118Y11106622D01*
X-11269724Y11095557D01*
X-11190535Y11042645D01*
X-11097126Y11024065D01*
X-11003717Y11042645D01*
X-10924528Y11095557D01*
X-10871616Y11174746D01*
X-10858338Y11241502D01*
X-10369758Y11241502D01*
X-10351178Y11148093D01*
X-10316075Y11095558D01*
X-10300356Y11072031D01*
X-10298266Y11068904D01*
X-10219077Y11015992D01*
X-10125668Y10997412D01*
X-10032259Y11015992D01*
X-9953070Y11068904D01*
X-9900158Y11148093D01*
X-9881578Y11241502D01*
X-9900158Y11334911D01*
X-9953070Y11414100D01*
X-9956213Y11416200D01*
X-9990300Y11438976D01*
X-10032259Y11467012D01*
X-10125668Y11485592D01*
X-10219077Y11467012D01*
X-10298266Y11414101D01*
X-10298267Y11414100D01*
X-10348925Y11338283D01*
X-10351178Y11334911D01*
X-10369758Y11241502D01*
X-10858338Y11241502D01*
X-10853036Y11268155D01*
X-10871616Y11361564D01*
X-10924528Y11440753D01*
X-10925649Y11441502D01*
X-10963681Y11466914D01*
X-11003717Y11493665D01*
X-11097126Y11512245D01*
X-11190535Y11493665D01*
X-11269724Y11440754D01*
X-11269725Y11440753D01*
X-11322636Y11361564D01*
X-11341216Y11268155D01*
X-12159864Y11268155D01*
X-12151267Y11288909D01*
X-12151267Y11394094D01*
X-12170595Y11440754D01*
X-12191520Y11491272D01*
X-12441750Y11741502D01*
X-8909758Y11741502D01*
X-8891178Y11648093D01*
X-8875801Y11625080D01*
X-8843751Y11577112D01*
X-8838266Y11568904D01*
X-8759077Y11515992D01*
X-8665668Y11497412D01*
X-8572259Y11515992D01*
X-8493070Y11568904D01*
X-8440158Y11648093D01*
X-8421578Y11741502D01*
X-5659758Y11741502D01*
X-5641178Y11648093D01*
X-5625801Y11625080D01*
X-5593751Y11577112D01*
X-5588266Y11568904D01*
X-5509077Y11515992D01*
X-5415668Y11497412D01*
X-5413359Y11497872D01*
X-5380745Y11491389D01*
X-5362265Y11463741D01*
X-5368748Y11431124D01*
X-5380737Y11419133D01*
X-5388262Y11414105D01*
X-5388267Y11414100D01*
X-5438925Y11338283D01*
X-5441178Y11334911D01*
X-5459758Y11241502D01*
X-5441178Y11148093D01*
X-5406075Y11095558D01*
X-5390356Y11072031D01*
X-5388266Y11068904D01*
X-5309077Y11015992D01*
X-5215668Y10997412D01*
X-5122259Y11015992D01*
X-5043070Y11068904D01*
X-4990158Y11148093D01*
X-4971578Y11241502D01*
X-4990158Y11334911D01*
X-5043070Y11414100D01*
X-5046213Y11416200D01*
X-5080300Y11438976D01*
X-5122259Y11467012D01*
X-5215668Y11485592D01*
X-5215669Y11485592D01*
X-5217982Y11485132D01*
X-5250598Y11491620D01*
X-5269073Y11519271D01*
X-5262585Y11551887D01*
X-5250599Y11563874D01*
X-5243070Y11568904D01*
X-5190158Y11648093D01*
X-5171578Y11741502D01*
X-5190158Y11834911D01*
X-5243070Y11914100D01*
X-5243690Y11914514D01*
X-5279661Y11938549D01*
X-5322259Y11967012D01*
X-5415668Y11985592D01*
X-5509077Y11967012D01*
X-5588266Y11914101D01*
X-5588267Y11914100D01*
X-5620639Y11865650D01*
X-5641178Y11834911D01*
X-5659758Y11741502D01*
X-8421578Y11741502D01*
X-8440158Y11834911D01*
X-8493070Y11914100D01*
X-8493690Y11914514D01*
X-8529661Y11938549D01*
X-8572259Y11967012D01*
X-8665668Y11985592D01*
X-8759077Y11967012D01*
X-8838266Y11914101D01*
X-8838267Y11914100D01*
X-8870639Y11865650D01*
X-8891178Y11834911D01*
X-8909758Y11741502D01*
X-12441750Y11741502D01*
X-12491520Y11791272D01*
X-12491520Y11791273D01*
X-12565897Y11865650D01*
X-12565899Y11865651D01*
X-12791520Y12091272D01*
X-12791520Y12091273D01*
X-12865897Y12165650D01*
X-12865899Y12165651D01*
X-12971222Y12270974D01*
X-11867387Y12270974D01*
X-11848807Y12177565D01*
X-11813686Y12125002D01*
X-11808957Y12117924D01*
X-11795895Y12098376D01*
X-11716706Y12045464D01*
X-11623297Y12026884D01*
X-11529888Y12045464D01*
X-11450699Y12098376D01*
X-11397787Y12177565D01*
X-11379207Y12270974D01*
X-11394590Y12348309D01*
X-11135075Y12348309D01*
X-11116495Y12254900D01*
X-11081142Y12201989D01*
X-11064823Y12177566D01*
X-11063583Y12175711D01*
X-10984394Y12122799D01*
X-10890985Y12104219D01*
X-10797576Y12122799D01*
X-10718387Y12175711D01*
X-10665475Y12254900D01*
X-10646895Y12348309D01*
X-10665475Y12441718D01*
X-10718387Y12520907D01*
X-10797576Y12573819D01*
X-10890985Y12592399D01*
X-10984394Y12573819D01*
X-11063583Y12520908D01*
X-11063584Y12520907D01*
X-11112235Y12448094D01*
X-11116495Y12441718D01*
X-11135075Y12348309D01*
X-11394590Y12348309D01*
X-11397787Y12364383D01*
X-11450699Y12443572D01*
X-11457467Y12448094D01*
X-11483743Y12465651D01*
X-11529888Y12496484D01*
X-11623297Y12515064D01*
X-11716706Y12496484D01*
X-11795895Y12443573D01*
X-11795896Y12443572D01*
X-11833857Y12386758D01*
X-11848807Y12364383D01*
X-11867387Y12270974D01*
X-12971222Y12270974D01*
X-13091520Y12391272D01*
X-13091520Y12391273D01*
X-13165897Y12465650D01*
X-13165899Y12465651D01*
X-13293115Y12592867D01*
X-12653548Y12592867D01*
X-12634968Y12499458D01*
X-12582056Y12420269D01*
X-12502867Y12367357D01*
X-12409458Y12348777D01*
X-12316049Y12367357D01*
X-12236860Y12420269D01*
X-12183948Y12499458D01*
X-12165368Y12592867D01*
X-12175042Y12641502D01*
X-3259758Y12641502D01*
X-3241178Y12548093D01*
X-3188266Y12468904D01*
X-3109077Y12415992D01*
X-3015668Y12397412D01*
X-2922259Y12415992D01*
X-2843070Y12468904D01*
X-2790158Y12548093D01*
X-2771578Y12641502D01*
X-2790158Y12734911D01*
X-2843070Y12814100D01*
X-2845902Y12815992D01*
X-2879661Y12838549D01*
X-2891305Y12846329D01*
X-1141531Y12846329D01*
X-1122951Y12752920D01*
X-1087598Y12700009D01*
X-1072298Y12677111D01*
X-1070039Y12673731D01*
X-990850Y12620819D01*
X-897441Y12602239D01*
X-874680Y12606767D01*
X-842066Y12600280D01*
X-823589Y12572630D01*
X-823589Y12555676D01*
X-826408Y12541502D01*
X-807828Y12448093D01*
X-754916Y12368904D01*
X-675727Y12315992D01*
X-582318Y12297412D01*
X-488909Y12315992D01*
X-409720Y12368904D01*
X-356808Y12448093D01*
X-338228Y12541502D01*
X-356808Y12634911D01*
X-409720Y12714100D01*
X-433828Y12730208D01*
X-436420Y12731940D01*
X-488909Y12767012D01*
X-582318Y12785592D01*
X-582319Y12785592D01*
X-605080Y12781065D01*
X-637696Y12787553D01*
X-656171Y12815204D01*
X-656171Y12832153D01*
X-653351Y12846329D01*
X-671931Y12939738D01*
X-724843Y13018927D01*
X-729625Y13022122D01*
X-767971Y13047744D01*
X-804032Y13071839D01*
X-897441Y13090419D01*
X-990850Y13071839D01*
X-1070039Y13018928D01*
X-1070040Y13018927D01*
X-1122951Y12939738D01*
X-1141531Y12846329D01*
X-2891305Y12846329D01*
X-2922259Y12867012D01*
X-3015668Y12885592D01*
X-3109077Y12867012D01*
X-3188266Y12814101D01*
X-3188267Y12814100D01*
X-3239417Y12737547D01*
X-3241178Y12734911D01*
X-3259758Y12641502D01*
X-12175042Y12641502D01*
X-12183948Y12686276D01*
X-12236860Y12765465D01*
X-12237137Y12765650D01*
X-12272646Y12789376D01*
X-12316049Y12818377D01*
X-12409458Y12836957D01*
X-12502867Y12818377D01*
X-12582056Y12765466D01*
X-12582057Y12765465D01*
X-12605614Y12730208D01*
X-12634968Y12686276D01*
X-12653548Y12592867D01*
X-13293115Y12592867D01*
X-13391520Y12691272D01*
X-13391520Y12691273D01*
X-13465897Y12765650D01*
X-13465899Y12765651D01*
X-13691520Y12991272D01*
X-13691520Y12991273D01*
X-13765897Y13065650D01*
X-13822562Y13089121D01*
X-13822562Y13089122D01*
X-13822564Y13089122D01*
X-13863075Y13105903D01*
X-13863076Y13105903D01*
X-13968261Y13105903D01*
X-13968263Y13105903D01*
X-14017293Y13085593D01*
X-14017294Y13085592D01*
X-14065439Y13065650D01*
X-14065441Y13065649D01*
X-14739817Y12391272D01*
X-14965439Y12165649D01*
X-15039817Y12091272D01*
X-15080069Y11994096D01*
X-15080069Y11888909D01*
X-15576933Y11888909D01*
X-15637883Y11988358D01*
X-15640979Y11994434D01*
X-15654422Y12026885D01*
X-15692384Y12118521D01*
X-15694490Y12125002D01*
X-15698452Y12141503D01*
X-15725851Y12255606D01*
X-15726916Y12262329D01*
X-15737552Y12397430D01*
X-15737686Y12400840D01*
X-15737686Y13141502D01*
X-13259758Y13141502D01*
X-13241178Y13048093D01*
X-13188266Y12968904D01*
X-13109077Y12915992D01*
X-13015668Y12897412D01*
X-12922259Y12915992D01*
X-12843070Y12968904D01*
X-12790158Y13048093D01*
X-12771578Y13141502D01*
X-12790158Y13234911D01*
X-12800888Y13250970D01*
X-12338423Y13250970D01*
X-12338339Y13250412D01*
X-12338325Y13250184D01*
X-12338170Y13249254D01*
X-12338061Y13248566D01*
X-12337904Y13247518D01*
X-12337840Y13247275D01*
X-12337749Y13246728D01*
X-12320038Y13199882D01*
X-12319798Y13199234D01*
X-12302796Y13152005D01*
X-12302508Y13151527D01*
X-12302399Y13151303D01*
X-12301854Y13150429D01*
X-12301492Y13149839D01*
X-12300992Y13149008D01*
X-12300850Y13148821D01*
X-12300552Y13148343D01*
X-12266185Y13111759D01*
X-12265765Y13111304D01*
X-12232010Y13074205D01*
X-12231567Y13073877D01*
X-12225716Y13068678D01*
X-12027761Y12857952D01*
X-12024454Y12853699D01*
X-11992309Y12820128D01*
X-11990900Y12818584D01*
X-11961253Y12784478D01*
X-11957870Y12781859D01*
X-11958087Y12781580D01*
X-11956603Y12780476D01*
X-11956397Y12780764D01*
X-11954085Y12779113D01*
X-11953890Y12778944D01*
X-11951980Y12777607D01*
X-11951635Y12777362D01*
X-11950868Y12776814D01*
X-11950813Y12776790D01*
X-11950812Y12776789D01*
X-11909440Y12758591D01*
X-11907579Y12757719D01*
X-11867121Y12737546D01*
X-11867117Y12737546D01*
X-11862993Y12736421D01*
X-11863088Y12736076D01*
X-11861302Y12735626D01*
X-11861222Y12735972D01*
X-11858469Y12735336D01*
X-11858249Y12735263D01*
X-11856036Y12734772D01*
X-11855630Y12734680D01*
X-11854587Y12734439D01*
X-11854532Y12734438D01*
X-11854530Y12734437D01*
X-11809340Y12733457D01*
X-11807290Y12733362D01*
X-11762192Y12730208D01*
X-11762186Y12730211D01*
X-11757948Y12730749D01*
X-11757903Y12730391D01*
X-11756073Y12730659D01*
X-11756132Y12731014D01*
X-11753333Y12731481D01*
X-11753101Y12731498D01*
X-11750995Y12731869D01*
X-11750583Y12731940D01*
X-11749429Y12732133D01*
X-11749375Y12732155D01*
X-11749371Y12732154D01*
X-11707248Y12748541D01*
X-11705298Y12749245D01*
X-11662442Y12763583D01*
X-11662438Y12763587D01*
X-11658727Y12765707D01*
X-11658548Y12765394D01*
X-11656961Y12766342D01*
X-11657151Y12766647D01*
X-11654746Y12768148D01*
X-11654530Y12768257D01*
X-11652623Y12769471D01*
X-11652274Y12769691D01*
X-11651385Y12770247D01*
X-11651345Y12770286D01*
X-11651341Y12770287D01*
X-11618691Y12801550D01*
X-11617182Y12802928D01*
X-11342729Y13041503D01*
X-11342646Y13041574D01*
X-11303152Y13075639D01*
X-11303065Y13075750D01*
X-11302982Y13075858D01*
X-11302517Y13076455D01*
X-11279344Y13122933D01*
X-11279268Y13123084D01*
X-11255856Y13169589D01*
X-11255809Y13169758D01*
X-11255583Y13170577D01*
X-11255583Y13170590D01*
X-11255581Y13170592D01*
X-11251956Y13222423D01*
X-11248113Y13274491D01*
X-11248114Y13274493D01*
X-11248113Y13274501D01*
X-11248170Y13274956D01*
X-11248191Y13275123D01*
X-11248239Y13275513D01*
X-11264794Y13324989D01*
X-11264758Y13325002D01*
X-11264845Y13325143D01*
X-11281105Y13374368D01*
X-11281108Y13374371D01*
X-11281111Y13374382D01*
X-11281462Y13374997D01*
X-11281546Y13375145D01*
X-11281616Y13375269D01*
X-11315879Y13414684D01*
X-11315989Y13414811D01*
X-11322295Y13422122D01*
X-11546816Y13682426D01*
X-11551140Y13688398D01*
X-11554948Y13694726D01*
X-11556812Y13697651D01*
X-11564552Y13705734D01*
X-11587654Y13729862D01*
X-11589168Y13731527D01*
X-11596453Y13739973D01*
X-11618295Y13765297D01*
X-11618296Y13765298D01*
X-11618297Y13765299D01*
X-11621090Y13767479D01*
X-11626700Y13771624D01*
X-11629553Y13773621D01*
X-11629557Y13773625D01*
X-11647216Y13781393D01*
X-11670358Y13791573D01*
X-11672400Y13792535D01*
X-11712245Y13812593D01*
X-11712246Y13812594D01*
X-11712247Y13812594D01*
X-11712250Y13812595D01*
X-11715728Y13813558D01*
X-11722360Y13815206D01*
X-11725842Y13815978D01*
X-11770417Y13816946D01*
X-11772670Y13817054D01*
X-11817148Y13820336D01*
X-11820701Y13819899D01*
X-11827534Y13818873D01*
X-11830994Y13818262D01*
X-11872548Y13802098D01*
X-11874670Y13801336D01*
X-11917024Y13787346D01*
X-11920172Y13785562D01*
X-11926160Y13781957D01*
X-11929027Y13780130D01*
X-11961235Y13749290D01*
X-11962904Y13747773D01*
X-11996678Y13718642D01*
X-11999140Y13715487D01*
X-12004146Y13710089D01*
X-12207823Y13524775D01*
X-12214052Y13520057D01*
X-12214532Y13519758D01*
X-12251122Y13485387D01*
X-12251628Y13484918D01*
X-12288675Y13451210D01*
X-12289010Y13450756D01*
X-12289174Y13450572D01*
X-12289768Y13449740D01*
X-12290146Y13449220D01*
X-12290744Y13448411D01*
X-12290868Y13448198D01*
X-12291198Y13447738D01*
X-12311810Y13402066D01*
X-12312099Y13401439D01*
X-12333464Y13356042D01*
X-12333604Y13355477D01*
X-12333683Y13355248D01*
X-12333895Y13354332D01*
X-12334056Y13353661D01*
X-12334303Y13352668D01*
X-12334337Y13352421D01*
X-12334465Y13351871D01*
X-12336030Y13301795D01*
X-12336057Y13301105D01*
X-12338423Y13250970D01*
X-12800888Y13250970D01*
X-12843070Y13314100D01*
X-12859367Y13324989D01*
X-12902278Y13353661D01*
X-12922259Y13367012D01*
X-13015668Y13385592D01*
X-13109077Y13367012D01*
X-13188266Y13314101D01*
X-13188267Y13314100D01*
X-13231821Y13248915D01*
X-13241178Y13234911D01*
X-13259758Y13141502D01*
X-15737686Y13141502D01*
X-15737686Y13539993D01*
X-15737674Y13540091D01*
X-15737677Y13545759D01*
X-15737675Y13545761D01*
X-15737686Y13570575D01*
X-15737479Y13574801D01*
X-15720883Y13743957D01*
X-15719227Y13752297D01*
X-15670561Y13912903D01*
X-15667306Y13920766D01*
X-15588233Y14068782D01*
X-15583503Y14075861D01*
X-15493896Y14185081D01*
X-15464570Y14200762D01*
X-15432746Y14191113D01*
X-15417065Y14161787D01*
X-15417328Y14156121D01*
X-15417171Y14156121D01*
X-15417149Y14151845D01*
X-15414006Y14136462D01*
X-15413157Y14126157D01*
X-15423598Y13844250D01*
X-15425375Y13833459D01*
X-15425915Y13831645D01*
X-15429236Y13820496D01*
X-15428305Y13811510D01*
X-15428759Y13799352D01*
X-15430359Y13790452D01*
X-15427804Y13778733D01*
X-15427454Y13777131D01*
X-15426487Y13766271D01*
X-15426991Y13752644D01*
X-15426990Y13752641D01*
X-15422284Y13739973D01*
X-15419795Y13729318D01*
X-15418403Y13715872D01*
X-15414105Y13707926D01*
X-15409872Y13696517D01*
X-15407946Y13687690D01*
X-15407945Y13687686D01*
X-15407945Y13687685D01*
X-15407944Y13687684D01*
X-15400163Y13676491D01*
X-15395111Y13666824D01*
X-15390364Y13654044D01*
X-15390363Y13654042D01*
X-15381166Y13644137D01*
X-15374791Y13635246D01*
X-15368360Y13623358D01*
X-15368358Y13623355D01*
X-15361343Y13617657D01*
X-15353064Y13608735D01*
X-15351125Y13605946D01*
X-15347906Y13601316D01*
X-15336429Y13593950D01*
X-15328069Y13586956D01*
X-15320302Y13578592D01*
X-15318927Y13577111D01*
X-15318789Y13576963D01*
X-15306503Y13571333D01*
X-15297213Y13565560D01*
X-15286717Y13557034D01*
X-15278055Y13554454D01*
X-15266991Y13549378D01*
X-15259388Y13544498D01*
X-15245974Y13542086D01*
X-15235559Y13538821D01*
X-15223167Y13533142D01*
X-15209662Y13532643D01*
X-15198867Y13530865D01*
X-15185909Y13527004D01*
X-15176922Y13527935D01*
X-15164760Y13527481D01*
X-15155863Y13525880D01*
X-15142538Y13528788D01*
X-15131681Y13529755D01*
X-15118055Y13529249D01*
X-15105382Y13533958D01*
X-15094734Y13536445D01*
X-14704252Y13576871D01*
X-14699778Y13577102D01*
X-13168260Y13577102D01*
X-13153567Y13577102D01*
X-13143030Y13575806D01*
X-13128773Y13572241D01*
X-13099284Y13576630D01*
X-13092889Y13577102D01*
X-13063076Y13577102D01*
X-13049501Y13582726D01*
X-13039270Y13585560D01*
X-13024733Y13587722D01*
X-12999162Y13603066D01*
X-12993448Y13605944D01*
X-12965897Y13617354D01*
X-12955502Y13627750D01*
X-12947138Y13634280D01*
X-12934538Y13641839D01*
X-12916786Y13665801D01*
X-12912617Y13670636D01*
X-12891520Y13691731D01*
X-12885894Y13705316D01*
X-12880668Y13714546D01*
X-12871918Y13726354D01*
X-12864686Y13755283D01*
X-12862683Y13761354D01*
X-12851268Y13788910D01*
X-12851268Y13803603D01*
X-12849971Y13814142D01*
X-12846407Y13828397D01*
X-12850795Y13857888D01*
X-12851268Y13864283D01*
X-12851268Y14004243D01*
X-12616406Y14004243D01*
X-12597826Y13910834D01*
X-12570114Y13869360D01*
X-12553337Y13844250D01*
X-12544914Y13831645D01*
X-12465725Y13778733D01*
X-12372316Y13760153D01*
X-12278907Y13778733D01*
X-12199718Y13831645D01*
X-12146806Y13910834D01*
X-12140706Y13941502D01*
X-1559758Y13941502D01*
X-1541178Y13848093D01*
X-1517458Y13812593D01*
X-1488743Y13769617D01*
X-1488266Y13768904D01*
X-1409077Y13715992D01*
X-1315668Y13697412D01*
X-1222259Y13715992D01*
X-1143070Y13768904D01*
X-1090158Y13848093D01*
X-1071578Y13941502D01*
X-1090158Y14034911D01*
X-1143070Y14114100D01*
X-1222259Y14167012D01*
X-1315668Y14185592D01*
X-1409077Y14167012D01*
X-1488266Y14114101D01*
X-1488267Y14114100D01*
X-1528653Y14053656D01*
X-1541178Y14034911D01*
X-1559758Y13941502D01*
X-12140706Y13941502D01*
X-12128226Y14004243D01*
X-12146806Y14097652D01*
X-12199718Y14176841D01*
X-12209590Y14183437D01*
X-12238777Y14202939D01*
X-12278907Y14229753D01*
X-12372316Y14248333D01*
X-12465725Y14229753D01*
X-12544914Y14176842D01*
X-12544915Y14176841D01*
X-12586835Y14114101D01*
X-12597826Y14097652D01*
X-12616406Y14004243D01*
X-12851268Y14004243D01*
X-12851268Y14214040D01*
X-12850582Y14221730D01*
X-12846134Y14246464D01*
X-12850270Y14265428D01*
X-12851268Y14274687D01*
X-12851268Y14294093D01*
X-12851268Y14294094D01*
X-12860889Y14317321D01*
X-12863195Y14324682D01*
X-12864800Y14332043D01*
X-12868549Y14349232D01*
X-12876649Y14360884D01*
X-12879627Y14365169D01*
X-12884093Y14373342D01*
X-12887392Y14381307D01*
X-12891520Y14391273D01*
X-12898451Y14398204D01*
X-12911177Y14428928D01*
X-12898451Y14459652D01*
X-12867727Y14472378D01*
X-11878180Y14472378D01*
X-11878179Y14472378D01*
X-11841241Y14487678D01*
X-11812970Y14515949D01*
X-11797670Y14552887D01*
X-11797670Y14641502D01*
X-3859758Y14641502D01*
X-3841178Y14548093D01*
X-3819729Y14515992D01*
X-3790588Y14472378D01*
X-3788266Y14468904D01*
X-3709077Y14415992D01*
X-3615668Y14397412D01*
X-3522259Y14415992D01*
X-3443070Y14468904D01*
X-3390158Y14548093D01*
X-3371578Y14641502D01*
X-3390158Y14734911D01*
X-3443070Y14814100D01*
X-3522259Y14867012D01*
X-3615668Y14885592D01*
X-3709077Y14867012D01*
X-3788266Y14814101D01*
X-3788267Y14814100D01*
X-3823824Y14760884D01*
X-3841178Y14734911D01*
X-3859758Y14641502D01*
X-11797670Y14641502D01*
X-11797670Y15419962D01*
X-100506Y15419962D01*
X-100500Y15399971D01*
X-100500Y19991D01*
X-100500Y-19991D01*
X-85200Y-56929D01*
X-56929Y-85200D01*
X-19991Y-100500D01*
X3163513Y-100500D01*
X3194237Y-113226D01*
X3206963Y-143950D01*
X3194237Y-174674D01*
X3160185Y-208725D01*
X3160184Y-208726D01*
X3160184Y-208727D01*
X3140058Y-257316D01*
X3121295Y-302615D01*
X3119931Y-305907D01*
X3119931Y-411091D01*
X3139272Y-457782D01*
X3139272Y-457784D01*
X3139273Y-457784D01*
X3160184Y-508269D01*
X3234561Y-582646D01*
X3234562Y-582646D01*
X3460183Y-808267D01*
X3460184Y-808269D01*
X3534561Y-882646D01*
X3534562Y-882646D01*
X3760183Y-1108267D01*
X3760184Y-1108269D01*
X3834561Y-1182646D01*
X3870027Y-1197336D01*
X3931739Y-1222899D01*
X3931740Y-1222899D01*
X4041979Y-1222899D01*
X4041987Y-1222898D01*
X4526676Y-1222898D01*
X4526684Y-1222899D01*
X4531739Y-1222899D01*
X4641979Y-1222899D01*
X4641987Y-1222898D01*
X5862450Y-1222898D01*
X5868595Y-1223335D01*
X5899000Y-1227679D01*
X5899001Y-1227678D01*
X5899004Y-1227679D01*
X5912361Y-1224256D01*
X5923144Y-1222898D01*
X5936922Y-1222898D01*
X5936924Y-1222898D01*
X5965310Y-1211139D01*
X5971145Y-1209196D01*
X5987018Y-1205128D01*
X6000898Y-1201573D01*
X6011923Y-1193303D01*
X6021356Y-1187925D01*
X6034103Y-1182646D01*
X6055836Y-1160911D01*
X6060468Y-1156894D01*
X6411926Y-893301D01*
X6421362Y-887922D01*
X6434103Y-882646D01*
X6443853Y-872894D01*
X6452439Y-866233D01*
X6464294Y-859214D01*
X6464294Y-859213D01*
X6464297Y-859212D01*
X6469467Y-852317D01*
X6478151Y-843633D01*
X6485046Y-838463D01*
X6492067Y-826605D01*
X6498728Y-818019D01*
X6508480Y-808269D01*
X6513759Y-795522D01*
X6519137Y-786089D01*
X6527407Y-775064D01*
X6529543Y-766725D01*
X6534245Y-755371D01*
X6538638Y-747954D01*
X6540588Y-734303D01*
X6543457Y-723822D01*
X6548732Y-711090D01*
X6548732Y-697306D01*
X6550091Y-686523D01*
X6553513Y-673170D01*
X6552295Y-664644D01*
X6552295Y-652351D01*
X6553513Y-643827D01*
X6553513Y-643826D01*
X6550252Y-631096D01*
X6550091Y-630468D01*
X6548732Y-619685D01*
X6548732Y-605907D01*
X6548731Y-605904D01*
X6543458Y-593174D01*
X6540588Y-582697D01*
X6538638Y-569042D01*
X6534247Y-561627D01*
X6529543Y-550270D01*
X6527407Y-541932D01*
X6519138Y-530907D01*
X6513755Y-521463D01*
X6508480Y-508727D01*
X6498731Y-498978D01*
X6492070Y-490396D01*
X6485046Y-478533D01*
X6485044Y-478531D01*
X6478154Y-473364D01*
X6469468Y-464679D01*
X6464832Y-458498D01*
X9040242Y-458498D01*
X9058822Y-551907D01*
X9111734Y-631096D01*
X9190923Y-684008D01*
X9284332Y-702588D01*
X9377741Y-684008D01*
X9456930Y-631096D01*
X9509842Y-551907D01*
X9528422Y-458498D01*
X11340242Y-458498D01*
X11358822Y-551907D01*
X11411734Y-631096D01*
X11490923Y-684008D01*
X11584332Y-702588D01*
X11677741Y-684008D01*
X11756930Y-631096D01*
X11809842Y-551907D01*
X11828422Y-458498D01*
X13540242Y-458498D01*
X13558822Y-551907D01*
X13611734Y-631096D01*
X13690923Y-684008D01*
X13784332Y-702588D01*
X13877741Y-684008D01*
X13956930Y-631096D01*
X14009842Y-551907D01*
X14028422Y-458498D01*
X14009842Y-365089D01*
X13956930Y-285900D01*
X13877741Y-232988D01*
X13784332Y-214408D01*
X13690923Y-232988D01*
X13611734Y-285899D01*
X13611733Y-285900D01*
X13558822Y-365089D01*
X13540242Y-458498D01*
X11828422Y-458498D01*
X11809842Y-365089D01*
X11756930Y-285900D01*
X11677741Y-232988D01*
X11584332Y-214408D01*
X11490923Y-232988D01*
X11411734Y-285899D01*
X11411733Y-285900D01*
X11358822Y-365089D01*
X11340242Y-458498D01*
X9528422Y-458498D01*
X9509842Y-365089D01*
X9456930Y-285900D01*
X9377741Y-232988D01*
X9284332Y-214408D01*
X9190923Y-232988D01*
X9111734Y-285899D01*
X9111733Y-285900D01*
X9058822Y-365089D01*
X9040242Y-458498D01*
X6464832Y-458498D01*
X6464297Y-457784D01*
X6464294Y-457782D01*
X6464293Y-457781D01*
X6452437Y-450761D01*
X6443851Y-444098D01*
X6434102Y-434349D01*
X6421368Y-429075D01*
X6411926Y-423693D01*
X6085280Y-178709D01*
X6068338Y-150095D01*
X6076591Y-117880D01*
X6105206Y-100937D01*
X6111351Y-100500D01*
X15517235Y-100500D01*
X15517236Y-100500D01*
X15554174Y-85200D01*
X15582445Y-56929D01*
X15597745Y-19991D01*
X15597745Y841502D01*
X16140242Y841502D01*
X16158822Y748093D01*
X16187399Y705324D01*
X16210558Y670663D01*
X16211734Y668904D01*
X16290923Y615992D01*
X16384332Y597412D01*
X16477741Y615992D01*
X16556930Y668904D01*
X16609842Y748093D01*
X16628422Y841502D01*
X16609842Y934911D01*
X16556930Y1014100D01*
X16477741Y1067012D01*
X16384332Y1085592D01*
X16290923Y1067012D01*
X16211734Y1014101D01*
X16211733Y1014100D01*
X16158822Y934911D01*
X16140242Y841502D01*
X15597745Y841502D01*
X15597745Y2102219D01*
X19184472Y2102219D01*
X19203052Y2008810D01*
X19238405Y1955899D01*
X19249758Y1938908D01*
X19255964Y1929621D01*
X19335153Y1876709D01*
X19428562Y1858129D01*
X19521971Y1876709D01*
X19601160Y1929621D01*
X19654072Y2008810D01*
X19672652Y2102219D01*
X19654072Y2195628D01*
X19601160Y2274817D01*
X19521971Y2327729D01*
X19428562Y2346309D01*
X19335153Y2327729D01*
X19255964Y2274818D01*
X19255963Y2274817D01*
X19218605Y2218905D01*
X19203052Y2195628D01*
X19184472Y2102219D01*
X15597745Y2102219D01*
X15597745Y2391502D01*
X16290242Y2391502D01*
X16308822Y2298093D01*
X16361734Y2218904D01*
X16440923Y2165992D01*
X16534332Y2147412D01*
X16627741Y2165992D01*
X16706930Y2218904D01*
X16759842Y2298093D01*
X16778422Y2391502D01*
X16759842Y2484911D01*
X16706930Y2564100D01*
X16627741Y2617012D01*
X16534332Y2635592D01*
X16440923Y2617012D01*
X16361734Y2564101D01*
X16361733Y2564100D01*
X16308822Y2484911D01*
X16290242Y2391502D01*
X15597745Y2391502D01*
X15597745Y2797052D01*
X17598288Y2797052D01*
X17616868Y2703643D01*
X17669780Y2624454D01*
X17748969Y2571542D01*
X17842378Y2552962D01*
X17935787Y2571542D01*
X18014976Y2624454D01*
X18067888Y2703643D01*
X18086468Y2797052D01*
X18067888Y2890461D01*
X18014976Y2969650D01*
X17935787Y3022562D01*
X17842378Y3041142D01*
X17748969Y3022562D01*
X17669780Y2969651D01*
X17669779Y2969650D01*
X17616868Y2890461D01*
X17598288Y2797052D01*
X15597745Y2797052D01*
X15597745Y4207773D01*
X18819509Y4207773D01*
X18838089Y4114364D01*
X18891001Y4035175D01*
X18970190Y3982263D01*
X19063599Y3963683D01*
X19157008Y3982263D01*
X19236197Y4035175D01*
X19289109Y4114364D01*
X19307689Y4207773D01*
X19289109Y4301182D01*
X19236197Y4380371D01*
X19157008Y4433283D01*
X19063599Y4451863D01*
X18970190Y4433283D01*
X18891001Y4380372D01*
X18891000Y4380371D01*
X18838089Y4301182D01*
X18819509Y4207773D01*
X15597745Y4207773D01*
X15597745Y4771502D01*
X17580242Y4771502D01*
X17598822Y4678093D01*
X17651734Y4598904D01*
X17730923Y4545992D01*
X17824332Y4527412D01*
X17917741Y4545992D01*
X17996930Y4598904D01*
X18049842Y4678093D01*
X18068422Y4771502D01*
X18049842Y4864911D01*
X17996930Y4944100D01*
X17917741Y4997012D01*
X17824332Y5015592D01*
X17730923Y4997012D01*
X17651734Y4944101D01*
X17651733Y4944100D01*
X17598822Y4864911D01*
X17580242Y4771502D01*
X15597745Y4771502D01*
X15597745Y5161502D01*
X16133935Y5161502D01*
X16152515Y5068093D01*
X16205427Y4988904D01*
X16284616Y4935992D01*
X16378025Y4917412D01*
X16471434Y4935992D01*
X16550623Y4988904D01*
X16603535Y5068093D01*
X16622115Y5161502D01*
X16603535Y5254911D01*
X16550623Y5334100D01*
X16471434Y5387012D01*
X16378025Y5405592D01*
X16284616Y5387012D01*
X16205427Y5334101D01*
X16205426Y5334100D01*
X16152515Y5254911D01*
X16133935Y5161502D01*
X15597745Y5161502D01*
X15597745Y5691502D01*
X18690242Y5691502D01*
X18708822Y5598093D01*
X18761734Y5518904D01*
X18840923Y5465992D01*
X18934332Y5447412D01*
X19027741Y5465992D01*
X19106930Y5518904D01*
X19123205Y5543262D01*
X19150854Y5561737D01*
X19183471Y5555250D01*
X19195458Y5543263D01*
X19211734Y5518904D01*
X19290923Y5465992D01*
X19384332Y5447412D01*
X19477741Y5465992D01*
X19556930Y5518904D01*
X19573205Y5543262D01*
X19600854Y5561737D01*
X19633471Y5555250D01*
X19645458Y5543263D01*
X19661734Y5518904D01*
X19740923Y5465992D01*
X19834332Y5447412D01*
X19927741Y5465992D01*
X20006930Y5518904D01*
X20059842Y5598093D01*
X20078422Y5691502D01*
X20059842Y5784911D01*
X20059840Y5784914D01*
X20059840Y5784915D01*
X20017931Y5847637D01*
X20013467Y5870074D01*
X20006128Y5868614D01*
X19990466Y5875101D01*
X19961181Y5894668D01*
X19927741Y5917012D01*
X19834332Y5935592D01*
X19740923Y5917012D01*
X19661734Y5864101D01*
X19661732Y5864099D01*
X19645459Y5839744D01*
X19617808Y5821269D01*
X19585192Y5827757D01*
X19573205Y5839744D01*
X19556931Y5864099D01*
X19556929Y5864101D01*
X19511181Y5894668D01*
X19477741Y5917012D01*
X19384332Y5935592D01*
X19290923Y5917012D01*
X19211734Y5864101D01*
X19211732Y5864099D01*
X19195459Y5839744D01*
X19167808Y5821269D01*
X19135192Y5827757D01*
X19123205Y5839744D01*
X19106931Y5864099D01*
X19106929Y5864101D01*
X19061181Y5894668D01*
X19027741Y5917012D01*
X18934332Y5935592D01*
X18840923Y5917012D01*
X18761734Y5864101D01*
X18761733Y5864100D01*
X18733115Y5821269D01*
X18708822Y5784911D01*
X18690242Y5691502D01*
X15597745Y5691502D01*
X15597745Y6120177D01*
X15710284Y6120177D01*
X15728864Y6026768D01*
X15781776Y5947579D01*
X15860965Y5894667D01*
X15954374Y5876087D01*
X16047783Y5894667D01*
X16126972Y5947579D01*
X16179884Y6026768D01*
X16192760Y6091502D01*
X19990242Y6091502D01*
X20008822Y5998093D01*
X20041465Y5949238D01*
X20050733Y5935368D01*
X20055195Y5912932D01*
X20062535Y5914391D01*
X20078197Y5907903D01*
X20140919Y5865994D01*
X20140920Y5865994D01*
X20140923Y5865992D01*
X20234332Y5847412D01*
X20327741Y5865992D01*
X20406930Y5918904D01*
X20459842Y5998093D01*
X20478422Y6091502D01*
X20459842Y6184911D01*
X20406930Y6264100D01*
X20327741Y6317012D01*
X20234332Y6335592D01*
X20140923Y6317012D01*
X20061734Y6264101D01*
X20061733Y6264100D01*
X20027982Y6213586D01*
X20008822Y6184911D01*
X19990242Y6091502D01*
X16192760Y6091502D01*
X16198464Y6120177D01*
X16179884Y6213586D01*
X16126972Y6292775D01*
X16047783Y6345687D01*
X15954374Y6364267D01*
X15860965Y6345687D01*
X15781776Y6292776D01*
X15781775Y6292775D01*
X15728864Y6213586D01*
X15710284Y6120177D01*
X15597745Y6120177D01*
X15597745Y6791502D01*
X18190242Y6791502D01*
X18208822Y6698093D01*
X18261734Y6618904D01*
X18340923Y6565992D01*
X18434332Y6547412D01*
X18527741Y6565992D01*
X18606930Y6618904D01*
X18618320Y6635950D01*
X22161213Y6635950D01*
X22179793Y6542541D01*
X22232705Y6463352D01*
X22311894Y6410440D01*
X22405303Y6391860D01*
X22498712Y6410440D01*
X22577901Y6463352D01*
X22630813Y6542541D01*
X22649393Y6635950D01*
X22630813Y6729359D01*
X22577901Y6808548D01*
X22498712Y6861460D01*
X22405303Y6880040D01*
X22311894Y6861460D01*
X22232705Y6808549D01*
X22232704Y6808548D01*
X22179793Y6729359D01*
X22161213Y6635950D01*
X18618320Y6635950D01*
X18659842Y6698093D01*
X18678422Y6791502D01*
X18659842Y6884911D01*
X18622029Y6941502D01*
X23240242Y6941502D01*
X23258822Y6848093D01*
X23311734Y6768904D01*
X23390923Y6715992D01*
X23484332Y6697412D01*
X23577741Y6715992D01*
X23656930Y6768904D01*
X23709842Y6848093D01*
X23728422Y6941502D01*
X23709842Y7034911D01*
X23656930Y7114100D01*
X23577741Y7167012D01*
X23484332Y7185592D01*
X23390923Y7167012D01*
X23311734Y7114101D01*
X23311733Y7114100D01*
X23264775Y7043821D01*
X23258822Y7034911D01*
X23240242Y6941502D01*
X18622029Y6941502D01*
X18606930Y6964100D01*
X18594614Y6972329D01*
X18580652Y6981659D01*
X18527741Y7017012D01*
X18434332Y7035592D01*
X18340923Y7017012D01*
X18261734Y6964101D01*
X18261733Y6964100D01*
X18208822Y6884911D01*
X18190242Y6791502D01*
X15597745Y6791502D01*
X15597745Y7216418D01*
X15972254Y7216418D01*
X15990834Y7123009D01*
X16043746Y7043820D01*
X16122935Y6990908D01*
X16216344Y6972328D01*
X16309753Y6990908D01*
X16388942Y7043820D01*
X16441854Y7123009D01*
X16460434Y7216418D01*
X16441854Y7309827D01*
X16388942Y7389016D01*
X16380673Y7394541D01*
X16329800Y7428533D01*
X16309753Y7441928D01*
X16216344Y7460508D01*
X16122935Y7441928D01*
X16043746Y7389017D01*
X16043745Y7389016D01*
X15994262Y7314957D01*
X15990834Y7309827D01*
X15972254Y7216418D01*
X15597745Y7216418D01*
X15597745Y7730371D01*
X15610471Y7761095D01*
X15641195Y7773821D01*
X15665334Y7766498D01*
X15740919Y7715994D01*
X15740920Y7715994D01*
X15740923Y7715992D01*
X15834332Y7697412D01*
X15927741Y7715992D01*
X16006930Y7768904D01*
X16059842Y7848093D01*
X16068476Y7891502D01*
X16754242Y7891502D01*
X16772822Y7798093D01*
X16825734Y7718904D01*
X16904923Y7665992D01*
X16998332Y7647412D01*
X17091741Y7665992D01*
X17170930Y7718904D01*
X17207612Y7773804D01*
X17235260Y7792278D01*
X17267877Y7785791D01*
X17279865Y7773803D01*
X17286412Y7764005D01*
X17286413Y7764004D01*
X17286414Y7764003D01*
X17365603Y7711091D01*
X17459012Y7692511D01*
X17552421Y7711091D01*
X17631610Y7764003D01*
X17684522Y7843192D01*
X17703102Y7936601D01*
X17684522Y8030010D01*
X17631610Y8109199D01*
X17620674Y8116506D01*
X17566604Y8152634D01*
X17552421Y8162111D01*
X17459012Y8180691D01*
X17365603Y8162111D01*
X17286414Y8109200D01*
X17286412Y8109198D01*
X17249732Y8054301D01*
X17222082Y8035826D01*
X17189465Y8042314D01*
X17177478Y8054301D01*
X17170931Y8064099D01*
X17170929Y8064101D01*
X17144652Y8081659D01*
X17091741Y8117012D01*
X16998332Y8135592D01*
X16904923Y8117012D01*
X16825734Y8064101D01*
X16825733Y8064100D01*
X16789906Y8010479D01*
X16772822Y7984911D01*
X16754242Y7891502D01*
X16068476Y7891502D01*
X16078422Y7941502D01*
X16059842Y8034911D01*
X16006930Y8114100D01*
X16003329Y8116506D01*
X15941255Y8157982D01*
X15927741Y8167012D01*
X15834332Y8185592D01*
X15740923Y8167012D01*
X15665334Y8116506D01*
X15632718Y8110019D01*
X15605067Y8128495D01*
X15597745Y8152634D01*
X15597745Y8274697D01*
X17939969Y8274697D01*
X17958549Y8181288D01*
X17977695Y8152634D01*
X18006717Y8109198D01*
X18011461Y8102099D01*
X18090650Y8049187D01*
X18184059Y8030607D01*
X18277468Y8049187D01*
X18356657Y8102099D01*
X18374861Y8129344D01*
X19166293Y8129344D01*
X19184873Y8035935D01*
X19237785Y7956746D01*
X19316974Y7903834D01*
X19410383Y7885254D01*
X19503792Y7903834D01*
X19582981Y7956746D01*
X19635893Y8035935D01*
X19654473Y8129344D01*
X19635893Y8222753D01*
X19582981Y8301942D01*
X19572922Y8308663D01*
X19556703Y8319501D01*
X19503792Y8354854D01*
X19410383Y8373434D01*
X19316974Y8354854D01*
X19237785Y8301943D01*
X19237784Y8301942D01*
X19207083Y8255993D01*
X19184873Y8222753D01*
X19166293Y8129344D01*
X18374861Y8129344D01*
X18409569Y8181288D01*
X18428149Y8274697D01*
X18409569Y8368106D01*
X18356657Y8447295D01*
X18277468Y8500207D01*
X18184059Y8518787D01*
X18090650Y8500207D01*
X18011461Y8447296D01*
X18011460Y8447295D01*
X17981244Y8402072D01*
X17958549Y8368106D01*
X17939969Y8274697D01*
X15597745Y8274697D01*
X15597745Y8685420D01*
X19347262Y8685420D01*
X19365842Y8592011D01*
X19418754Y8512822D01*
X19497943Y8459910D01*
X19591352Y8441330D01*
X19684761Y8459910D01*
X19717076Y8481502D01*
X20820242Y8481502D01*
X20838822Y8388093D01*
X20891734Y8308904D01*
X20970923Y8255992D01*
X21064332Y8237412D01*
X21157741Y8255992D01*
X21236930Y8308904D01*
X21289842Y8388093D01*
X21308422Y8481502D01*
X21289842Y8574911D01*
X21236930Y8654100D01*
X21157741Y8707012D01*
X21064332Y8725592D01*
X20970923Y8707012D01*
X20891734Y8654101D01*
X20891733Y8654100D01*
X20874015Y8627582D01*
X20838822Y8574911D01*
X20820242Y8481502D01*
X19717076Y8481502D01*
X19763950Y8512822D01*
X19816862Y8592011D01*
X19835442Y8685420D01*
X19816862Y8778829D01*
X19763950Y8858018D01*
X19755332Y8863776D01*
X19725312Y8883835D01*
X19684761Y8910930D01*
X19591352Y8929510D01*
X19497943Y8910930D01*
X19418754Y8858019D01*
X19418753Y8858018D01*
X19365842Y8778829D01*
X19347262Y8685420D01*
X15597745Y8685420D01*
X15597745Y9245210D01*
X16150071Y9245210D01*
X16168651Y9151801D01*
X16188723Y9121761D01*
X16221489Y9072722D01*
X16221563Y9072612D01*
X16300752Y9019700D01*
X16394161Y9001120D01*
X16487570Y9019700D01*
X16566759Y9072612D01*
X16577900Y9089286D01*
X16851558Y9089286D01*
X16870138Y8995877D01*
X16923050Y8916688D01*
X17002239Y8863776D01*
X17095648Y8845196D01*
X17189057Y8863776D01*
X17268246Y8916688D01*
X17321158Y8995877D01*
X17339738Y9089286D01*
X17321158Y9182695D01*
X17268246Y9261884D01*
X17266267Y9263206D01*
X17219643Y9294359D01*
X17675269Y9294359D01*
X17693849Y9200950D01*
X17717394Y9165712D01*
X17740078Y9131762D01*
X17746761Y9121761D01*
X17825950Y9068849D01*
X17919359Y9050269D01*
X17950343Y9056432D01*
X19961880Y9056432D01*
X19980460Y8963023D01*
X20033372Y8883834D01*
X20112561Y8830922D01*
X20205970Y8812342D01*
X20299379Y8830922D01*
X20378568Y8883834D01*
X20431480Y8963023D01*
X20450060Y9056432D01*
X20431480Y9149841D01*
X20378568Y9229030D01*
X20299379Y9281942D01*
X20205970Y9300522D01*
X20112561Y9281942D01*
X20033372Y9229031D01*
X20033371Y9229030D01*
X19989701Y9163671D01*
X19980460Y9149841D01*
X19961880Y9056432D01*
X17950343Y9056432D01*
X18012768Y9068849D01*
X18091957Y9121761D01*
X18144869Y9200950D01*
X18163449Y9294359D01*
X18144869Y9387768D01*
X18091957Y9466957D01*
X18086325Y9470720D01*
X18058518Y9489300D01*
X18012768Y9519869D01*
X17919359Y9538449D01*
X17825950Y9519869D01*
X17746761Y9466958D01*
X17746760Y9466957D01*
X17708096Y9409090D01*
X17693849Y9387768D01*
X17675269Y9294359D01*
X17219643Y9294359D01*
X17215074Y9297412D01*
X17189057Y9314796D01*
X17095648Y9333376D01*
X17002239Y9314796D01*
X16923050Y9261885D01*
X16923049Y9261884D01*
X16877488Y9193695D01*
X16870138Y9182695D01*
X16851558Y9089286D01*
X16577900Y9089286D01*
X16619671Y9151801D01*
X16638251Y9245210D01*
X16619671Y9338619D01*
X16566759Y9417808D01*
X16487570Y9470720D01*
X16394161Y9489300D01*
X16300752Y9470720D01*
X16221563Y9417809D01*
X16221562Y9417808D01*
X16176980Y9351085D01*
X16168651Y9338619D01*
X16150071Y9245210D01*
X15597745Y9245210D01*
X15597745Y11244929D01*
X17240234Y11244929D01*
X17240241Y11241511D01*
X17240241Y11241392D01*
X17240240Y11241256D01*
X17242093Y11231992D01*
X17242827Y11220396D01*
X17242157Y11210973D01*
X17247741Y11194224D01*
X17249705Y11185281D01*
X17251654Y11167738D01*
X17252678Y11164508D01*
X17254890Y11158149D01*
X17257599Y11151000D01*
X17257539Y11150978D01*
X17259753Y11143690D01*
X17342092Y10731993D01*
X17342827Y10720394D01*
X17342539Y10716338D01*
X17342158Y10710973D01*
X17342158Y10710971D01*
X17342159Y10710970D01*
X17349153Y10689988D01*
X17350946Y10682393D01*
X17354072Y10660506D01*
X17354830Y10658352D01*
X17354863Y10658226D01*
X17355161Y10657410D01*
X17355212Y10657304D01*
X17357432Y10651429D01*
X17358854Y10648015D01*
X17358890Y10647929D01*
X17358919Y10647858D01*
X17358920Y10647856D01*
X17361117Y10644576D01*
X17364173Y10640012D01*
X17369290Y10629577D01*
X17372275Y10620623D01*
X17372275Y10620622D01*
X17386764Y10603917D01*
X17391328Y10597585D01*
X17402597Y10578552D01*
X17404116Y10576858D01*
X17404185Y10576767D01*
X17404782Y10576116D01*
X17404870Y10576037D01*
X17409232Y10571395D01*
X17411772Y10568866D01*
X17411858Y10568781D01*
X17411911Y10568728D01*
X17411913Y10568727D01*
X17411915Y10568724D01*
X17419775Y10563485D01*
X17428493Y10555803D01*
X17434677Y10548673D01*
X17454461Y10538782D01*
X17461088Y10534686D01*
X17799270Y10281049D01*
X17804844Y10276064D01*
X17806558Y10274242D01*
X17806560Y10274239D01*
X17806562Y10274238D01*
X17809144Y10271493D01*
X17811728Y10268909D01*
X17811732Y10268906D01*
X17811734Y10268904D01*
X17816267Y10265875D01*
X17825753Y10257264D01*
X17829200Y10253051D01*
X17829199Y10253051D01*
X17834380Y10250272D01*
X17844565Y10242707D01*
X17848723Y10238549D01*
X17852946Y10236800D01*
X17864136Y10230037D01*
X17867655Y10227104D01*
X17867657Y10227104D01*
X17871417Y10225056D01*
X17871375Y10224981D01*
X17874890Y10223184D01*
X17874928Y10223262D01*
X17878784Y10221413D01*
X17878788Y10221410D01*
X17878792Y10221409D01*
X17881055Y10220324D01*
X17881157Y10220264D01*
X17881703Y10220010D01*
X17881814Y10219971D01*
X17887506Y10217408D01*
X17890919Y10215995D01*
X17890923Y10215992D01*
X17896261Y10214931D01*
X17908321Y10210606D01*
X17913127Y10208028D01*
X17918976Y10207444D01*
X17931279Y10204352D01*
X17935164Y10202743D01*
X17936712Y10202102D01*
X17941289Y10202102D01*
X17954213Y10200136D01*
X17958582Y10198774D01*
X17958585Y10198775D01*
X17962840Y10198323D01*
X17962830Y10198237D01*
X17966764Y10197922D01*
X17966769Y10198007D01*
X17971045Y10197775D01*
X17971047Y10197774D01*
X17971048Y10197775D01*
X17973552Y10197638D01*
X17973670Y10197621D01*
X17974277Y10197596D01*
X17974403Y10197603D01*
X17976897Y10197527D01*
X17976901Y10197526D01*
X17976904Y10197527D01*
X17980662Y10197412D01*
X17984331Y10197412D01*
X17984331Y10197413D01*
X17984332Y10197412D01*
X17989675Y10198476D01*
X18002476Y10199094D01*
X18007894Y10198552D01*
X18013522Y10200250D01*
X18026072Y10202102D01*
X18436712Y10202102D01*
X18444180Y10202102D01*
X18456271Y10200386D01*
X18463441Y10198308D01*
X18467270Y10198734D01*
X18480550Y10198164D01*
X18484329Y10197412D01*
X18484332Y10197412D01*
X18503712Y10201268D01*
X18512189Y10202102D01*
X18531953Y10202102D01*
X18538843Y10204957D01*
X18550675Y10208001D01*
X18558098Y10208825D01*
X18561472Y10210684D01*
X18573959Y10215241D01*
X18577741Y10215992D01*
X18594174Y10226973D01*
X18601683Y10230987D01*
X18619941Y10238549D01*
X18625214Y10243824D01*
X18634984Y10251164D01*
X18640254Y10254066D01*
X18641524Y10254765D01*
X18643929Y10257773D01*
X18653724Y10266762D01*
X18654472Y10267262D01*
X18656930Y10268904D01*
X18667913Y10285344D01*
X18673307Y10291917D01*
X18687285Y10305893D01*
X18690140Y10312789D01*
X18696354Y10323305D01*
X18701020Y10329135D01*
X18702091Y10332835D01*
X18707700Y10344888D01*
X18709842Y10348093D01*
X18713697Y10367477D01*
X18715449Y10373253D01*
X22000734Y10373253D01*
X22019314Y10279844D01*
X22045924Y10240019D01*
X22069755Y10204352D01*
X22072226Y10200655D01*
X22151415Y10147743D01*
X22244824Y10129163D01*
X22338233Y10147743D01*
X22417422Y10200655D01*
X22470334Y10279844D01*
X22488914Y10373253D01*
X22470334Y10466662D01*
X22417422Y10545851D01*
X22406616Y10553071D01*
X22383184Y10568728D01*
X22338233Y10598763D01*
X22244824Y10617343D01*
X22151415Y10598763D01*
X22072226Y10545852D01*
X22072225Y10545851D01*
X22021117Y10469360D01*
X22019314Y10466662D01*
X22000734Y10373253D01*
X18715449Y10373253D01*
X18716168Y10375622D01*
X18723732Y10393882D01*
X18723732Y10401351D01*
X18725449Y10413444D01*
X18725639Y10414100D01*
X18727526Y10420611D01*
X18727100Y10424443D01*
X18727669Y10437723D01*
X18728422Y10441502D01*
X18724567Y10460884D01*
X18723732Y10469360D01*
X18723732Y10998460D01*
X18725698Y11011383D01*
X18727060Y11015752D01*
X18726449Y11022470D01*
X18727104Y11034882D01*
X18728422Y11041502D01*
X18726549Y11050918D01*
X18725824Y11062459D01*
X18726505Y11072031D01*
X18725961Y11073664D01*
X18723732Y11087402D01*
X18723732Y11413645D01*
X18724567Y11422122D01*
X18728422Y11441502D01*
X18728422Y11441503D01*
X18724567Y11460884D01*
X18723732Y11469360D01*
X18723732Y11489122D01*
X18716167Y11507384D01*
X18713697Y11515528D01*
X18709842Y11534911D01*
X18698857Y11551351D01*
X18694848Y11558853D01*
X18687285Y11577111D01*
X18673313Y11591083D01*
X18667909Y11597668D01*
X18664760Y11602381D01*
X18656930Y11614100D01*
X18640495Y11625082D01*
X18633912Y11630484D01*
X18619940Y11644456D01*
X18601684Y11652019D01*
X18594176Y11656032D01*
X18577742Y11667012D01*
X18558356Y11670869D01*
X18550210Y11673340D01*
X18546086Y11675048D01*
X18531952Y11680902D01*
X18531950Y11680902D01*
X18512189Y11680902D01*
X18503712Y11681737D01*
X18484332Y11685592D01*
X18464952Y11681737D01*
X18456475Y11680902D01*
X18116652Y11680902D01*
X18106851Y11682022D01*
X18091948Y11685473D01*
X18088120Y11685592D01*
X18084330Y11685592D01*
X18078987Y11684530D01*
X18066197Y11683911D01*
X18060768Y11684454D01*
X18057293Y11684117D01*
X18053803Y11683677D01*
X18052171Y11683132D01*
X18038431Y11680902D01*
X18036710Y11680902D01*
X18022577Y11675048D01*
X18013096Y11672332D01*
X17998003Y11669816D01*
X17994453Y11668474D01*
X17990923Y11667012D01*
X17986388Y11663983D01*
X17974809Y11658517D01*
X17972077Y11657693D01*
X17969590Y11656942D01*
X17966098Y11655082D01*
X17959418Y11652215D01*
X17437053Y11478093D01*
X17428111Y11476129D01*
X17410568Y11474180D01*
X17407375Y11473168D01*
X17400981Y11470945D01*
X17394690Y11468561D01*
X17394367Y11468429D01*
X17394233Y11468389D01*
X17394004Y11468302D01*
X17390929Y11467016D01*
X17390710Y11466925D01*
X17390694Y11466919D01*
X17382841Y11461660D01*
X17372408Y11456544D01*
X17363449Y11453558D01*
X17363448Y11453557D01*
X17350110Y11441990D01*
X17342605Y11436756D01*
X17327139Y11428239D01*
X17324558Y11426066D01*
X17319535Y11421595D01*
X17314672Y11417019D01*
X17314673Y11417018D01*
X17314366Y11416714D01*
X17314219Y11416594D01*
X17314006Y11416393D01*
X17311832Y11414201D01*
X17311609Y11413977D01*
X17311559Y11413928D01*
X17306315Y11406062D01*
X17298633Y11397342D01*
X17291505Y11391160D01*
X17291502Y11391156D01*
X17283607Y11375369D01*
X17278678Y11367665D01*
X17267643Y11353869D01*
X17266090Y11350875D01*
X17263168Y11344837D01*
X17260332Y11338540D01*
X17260256Y11338357D01*
X17260216Y11338283D01*
X17260039Y11337889D01*
X17258831Y11334938D01*
X17258736Y11334706D01*
X17258725Y11334681D01*
X17256890Y11325409D01*
X17253132Y11314420D01*
X17248912Y11305978D01*
X17248910Y11305971D01*
X17247657Y11288360D01*
X17246051Y11279355D01*
X17242808Y11268155D01*
X17241137Y11262388D01*
X17240847Y11259017D01*
X17240459Y11252344D01*
X17240234Y11244929D01*
X15597745Y11244929D01*
X15597745Y15380111D01*
X15597751Y15380180D01*
X15597749Y15384547D01*
X15597751Y15384549D01*
X15597745Y15406358D01*
X15597745Y15424502D01*
X15597745Y15424514D01*
X15597742Y15424526D01*
X15592359Y15437510D01*
X15589257Y15444993D01*
X15582445Y15461440D01*
X15582442Y15461443D01*
X15582439Y15461451D01*
X15582434Y15461459D01*
X15582430Y15461465D01*
X15566531Y15477354D01*
X15566525Y15477367D01*
X15566522Y15477363D01*
X15554168Y15489717D01*
X15554155Y15489725D01*
X15554151Y15489727D01*
X15554150Y15489728D01*
X15533986Y15498073D01*
X15533979Y15498080D01*
X15533978Y15498077D01*
X15517230Y15505014D01*
X15517213Y15505017D01*
X15517207Y15505017D01*
X15499540Y15505012D01*
X15496595Y15505011D01*
X15473568Y15505011D01*
X15473496Y15505005D01*
X591Y15500500D01*
X-20007Y15500500D01*
X-37149Y15493394D01*
X-37158Y15493390D01*
X-56945Y15485194D01*
X-71080Y15471051D01*
X-71086Y15471044D01*
X-85211Y15456919D01*
X-93240Y15437519D01*
X-93244Y15437510D01*
X-100503Y15419985D01*
X-100506Y15419967D01*
X-100506Y15419963D01*
X-100506Y15419962D01*
X-11797670Y15419962D01*
X-11797670Y15615502D01*
X16660242Y15615502D01*
X16678822Y15522093D01*
X16712927Y15471051D01*
X16722379Y15456904D01*
X16731734Y15442904D01*
X16810923Y15389992D01*
X16904332Y15371412D01*
X16997741Y15389992D01*
X17076930Y15442904D01*
X17129842Y15522093D01*
X17148422Y15615502D01*
X17129842Y15708911D01*
X17076930Y15788100D01*
X16997741Y15841012D01*
X16904332Y15859592D01*
X16810923Y15841012D01*
X16731734Y15788101D01*
X16731733Y15788100D01*
X16678822Y15708911D01*
X16660242Y15615502D01*
X-11797670Y15615502D01*
X-11797670Y16196228D01*
X1614213Y16196228D01*
X1632793Y16102819D01*
X1685705Y16023630D01*
X1764894Y15970718D01*
X1858303Y15952138D01*
X1951712Y15970718D01*
X2030901Y16023630D01*
X2083813Y16102819D01*
X2095380Y16160971D01*
X7751748Y16160971D01*
X7770328Y16067562D01*
X7823240Y15988373D01*
X7902429Y15935461D01*
X7995838Y15916881D01*
X8089247Y15935461D01*
X8168436Y15988373D01*
X8221348Y16067562D01*
X8236055Y16141502D01*
X12240242Y16141502D01*
X12258822Y16048093D01*
X12311734Y15968904D01*
X12390923Y15915992D01*
X12484332Y15897412D01*
X12577741Y15915992D01*
X12656930Y15968904D01*
X12709842Y16048093D01*
X12728422Y16141502D01*
X12709842Y16234911D01*
X12656930Y16314100D01*
X12654098Y16315992D01*
X12627791Y16333570D01*
X12577741Y16367012D01*
X12484332Y16385592D01*
X12390923Y16367012D01*
X12311734Y16314101D01*
X12311733Y16314100D01*
X12267630Y16248093D01*
X12258822Y16234911D01*
X12240242Y16141502D01*
X8236055Y16141502D01*
X8239928Y16160971D01*
X8221348Y16254380D01*
X8168436Y16333569D01*
X8156563Y16341502D01*
X8127556Y16360884D01*
X8089247Y16386481D01*
X8064004Y16391502D01*
X10290242Y16391502D01*
X10308822Y16298093D01*
X10326476Y16271672D01*
X10358228Y16224150D01*
X10361734Y16218904D01*
X10440923Y16165992D01*
X10534332Y16147412D01*
X10627741Y16165992D01*
X10706930Y16218904D01*
X10759842Y16298093D01*
X10778422Y16391502D01*
X10759842Y16484911D01*
X10706930Y16564100D01*
X10627741Y16617012D01*
X10534332Y16635592D01*
X10440923Y16617012D01*
X10361734Y16564101D01*
X10361733Y16564100D01*
X10312576Y16490530D01*
X10308822Y16484911D01*
X10290242Y16391502D01*
X8064004Y16391502D01*
X7995838Y16405061D01*
X7902429Y16386481D01*
X7823240Y16333570D01*
X7823239Y16333569D01*
X7781882Y16271672D01*
X7770328Y16254380D01*
X7751748Y16160971D01*
X2095380Y16160971D01*
X2102393Y16196228D01*
X2083813Y16289637D01*
X2030901Y16368826D01*
X2030784Y16368904D01*
X1996964Y16391502D01*
X1951712Y16421738D01*
X1858303Y16440318D01*
X1764894Y16421738D01*
X1685705Y16368827D01*
X1685704Y16368826D01*
X1638444Y16298094D01*
X1632793Y16289637D01*
X1614213Y16196228D01*
X-11797670Y16196228D01*
X-11797670Y16716039D01*
X5990242Y16716039D01*
X6008822Y16622630D01*
X6012576Y16617012D01*
X6058625Y16548093D01*
X6061734Y16543441D01*
X6140923Y16490529D01*
X6234332Y16471949D01*
X6327741Y16490529D01*
X6406930Y16543441D01*
X6459842Y16622630D01*
X6463596Y16641502D01*
X7340242Y16641502D01*
X7358822Y16548093D01*
X7394175Y16495182D01*
X7409698Y16471950D01*
X7411734Y16468904D01*
X7490923Y16415992D01*
X7584332Y16397412D01*
X7677741Y16415992D01*
X7756930Y16468904D01*
X7809842Y16548093D01*
X7828422Y16641502D01*
X9590242Y16641502D01*
X9608822Y16548093D01*
X9644175Y16495182D01*
X9659698Y16471950D01*
X9661734Y16468904D01*
X9740923Y16415992D01*
X9834332Y16397412D01*
X9927741Y16415992D01*
X10006930Y16468904D01*
X10059842Y16548093D01*
X10078422Y16641502D01*
X11290242Y16641502D01*
X11308822Y16548093D01*
X11344175Y16495182D01*
X11359698Y16471950D01*
X11361734Y16468904D01*
X11440923Y16415992D01*
X11534332Y16397412D01*
X11627741Y16415992D01*
X11706930Y16468904D01*
X11755438Y16541502D01*
X13940242Y16541502D01*
X13958822Y16448093D01*
X13980271Y16415992D01*
X14000583Y16385592D01*
X14011734Y16368904D01*
X14090923Y16315992D01*
X14184332Y16297412D01*
X14277741Y16315992D01*
X14356930Y16368904D01*
X14409842Y16448093D01*
X14428422Y16541502D01*
X14409842Y16634911D01*
X14356930Y16714100D01*
X14354028Y16716039D01*
X14325784Y16734911D01*
X14277741Y16767012D01*
X14184332Y16785592D01*
X14090923Y16767012D01*
X14011734Y16714101D01*
X14011733Y16714100D01*
X13963226Y16641502D01*
X13958822Y16634911D01*
X13940242Y16541502D01*
X11755438Y16541502D01*
X11759842Y16548093D01*
X11778422Y16641502D01*
X11759842Y16734911D01*
X11706930Y16814100D01*
X11704098Y16815992D01*
X11675781Y16834913D01*
X11627741Y16867012D01*
X11534332Y16885592D01*
X11440923Y16867012D01*
X11361734Y16814101D01*
X11361733Y16814100D01*
X11326176Y16760884D01*
X11308822Y16734911D01*
X11290242Y16641502D01*
X10078422Y16641502D01*
X10059842Y16734911D01*
X10006930Y16814100D01*
X10004098Y16815992D01*
X9975781Y16834913D01*
X9927741Y16867012D01*
X9834332Y16885592D01*
X9740923Y16867012D01*
X9661734Y16814101D01*
X9661733Y16814100D01*
X9626176Y16760884D01*
X9608822Y16734911D01*
X9590242Y16641502D01*
X7828422Y16641502D01*
X7809842Y16734911D01*
X7756930Y16814100D01*
X7754098Y16815992D01*
X7725781Y16834913D01*
X7677741Y16867012D01*
X7584332Y16885592D01*
X7490923Y16867012D01*
X7411734Y16814101D01*
X7411733Y16814100D01*
X7376176Y16760884D01*
X7358822Y16734911D01*
X7340242Y16641502D01*
X6463596Y16641502D01*
X6478422Y16716039D01*
X6459842Y16809448D01*
X6406930Y16888637D01*
X6327741Y16941549D01*
X6234332Y16960129D01*
X6140923Y16941549D01*
X6061734Y16888638D01*
X6061733Y16888637D01*
X6008822Y16809448D01*
X5990242Y16716039D01*
X-11797670Y16716039D01*
X-11797670Y17241502D01*
X340242Y17241502D01*
X358822Y17148093D01*
X411734Y17068904D01*
X490923Y17015992D01*
X584332Y16997412D01*
X677741Y17015992D01*
X715920Y17041502D01*
X14840242Y17041502D01*
X14858822Y16948093D01*
X14874199Y16925080D01*
X14906251Y16877109D01*
X14911734Y16868904D01*
X14990923Y16815992D01*
X15084332Y16797412D01*
X15177741Y16815992D01*
X15256930Y16868904D01*
X15309842Y16948093D01*
X15328422Y17041502D01*
X15840242Y17041502D01*
X15858822Y16948093D01*
X15874199Y16925080D01*
X15906251Y16877109D01*
X15911734Y16868904D01*
X15990923Y16815992D01*
X16084332Y16797412D01*
X16177741Y16815992D01*
X16256930Y16868904D01*
X16309842Y16948093D01*
X16328422Y17041502D01*
X16309842Y17134911D01*
X16256930Y17214100D01*
X16254098Y17215992D01*
X16220339Y17238549D01*
X16177741Y17267012D01*
X16084332Y17285592D01*
X15990923Y17267012D01*
X15911734Y17214101D01*
X15911733Y17214100D01*
X15867630Y17148093D01*
X15858822Y17134911D01*
X15840242Y17041502D01*
X15328422Y17041502D01*
X15309842Y17134911D01*
X15256930Y17214100D01*
X15254098Y17215992D01*
X15220339Y17238549D01*
X15177741Y17267012D01*
X15084332Y17285592D01*
X14990923Y17267012D01*
X14911734Y17214101D01*
X14911733Y17214100D01*
X14867630Y17148093D01*
X14858822Y17134911D01*
X14840242Y17041502D01*
X715920Y17041502D01*
X756930Y17068904D01*
X809842Y17148093D01*
X828422Y17241502D01*
X816774Y17300060D01*
X2955110Y17300060D01*
X2973690Y17206651D01*
X3026602Y17127462D01*
X3105791Y17074550D01*
X3199200Y17055970D01*
X3292609Y17074550D01*
X3371798Y17127462D01*
X3424710Y17206651D01*
X3441588Y17291502D01*
X10440242Y17291502D01*
X10458822Y17198093D01*
X10472433Y17177723D01*
X10501038Y17134911D01*
X10511734Y17118904D01*
X10590923Y17065992D01*
X10684332Y17047412D01*
X10777741Y17065992D01*
X10856930Y17118904D01*
X10909842Y17198093D01*
X10928422Y17291502D01*
X13690242Y17291502D01*
X13708822Y17198093D01*
X13722433Y17177723D01*
X13751038Y17134911D01*
X13761734Y17118904D01*
X13840923Y17065992D01*
X13934332Y17047412D01*
X14027741Y17065992D01*
X14106930Y17118904D01*
X14159842Y17198093D01*
X14178422Y17291502D01*
X14159842Y17384911D01*
X14106930Y17464100D01*
X14099740Y17468904D01*
X14074765Y17485592D01*
X14027741Y17517012D01*
X13934332Y17535592D01*
X13840923Y17517012D01*
X13761734Y17464101D01*
X13761733Y17464100D01*
X13714816Y17393882D01*
X13708822Y17384911D01*
X13690242Y17291502D01*
X10928422Y17291502D01*
X10909842Y17384911D01*
X10856930Y17464100D01*
X10849740Y17468904D01*
X10824765Y17485592D01*
X10777741Y17517012D01*
X10684332Y17535592D01*
X10590923Y17517012D01*
X10511734Y17464101D01*
X10511733Y17464100D01*
X10464816Y17393882D01*
X10458822Y17384911D01*
X10440242Y17291502D01*
X3441588Y17291502D01*
X3443290Y17300060D01*
X3424710Y17393469D01*
X3371798Y17472658D01*
X3292609Y17525570D01*
X3199200Y17544150D01*
X3105791Y17525570D01*
X3026602Y17472659D01*
X3026601Y17472658D01*
X2987475Y17414100D01*
X2973690Y17393469D01*
X2955110Y17300060D01*
X816774Y17300060D01*
X809842Y17334911D01*
X756930Y17414100D01*
X754098Y17415992D01*
X730652Y17431659D01*
X677741Y17467012D01*
X584332Y17485592D01*
X490923Y17467012D01*
X411734Y17414101D01*
X411733Y17414100D01*
X380582Y17367478D01*
X358822Y17334911D01*
X340242Y17241502D01*
X-11797670Y17241502D01*
X-11797670Y17841502D01*
X-3759758Y17841502D01*
X-3741178Y17748093D01*
X-3688266Y17668904D01*
X-3609077Y17615992D01*
X-3515668Y17597412D01*
X-3422259Y17615992D01*
X-3384080Y17641502D01*
X7340242Y17641502D01*
X7358822Y17548093D01*
X7379590Y17517012D01*
X7409225Y17472658D01*
X7411734Y17468904D01*
X7490923Y17415992D01*
X7584332Y17397412D01*
X7677741Y17415992D01*
X7756930Y17468904D01*
X7809842Y17548093D01*
X7828422Y17641502D01*
X7809842Y17734911D01*
X7756930Y17814100D01*
X7755716Y17814911D01*
X7724705Y17835632D01*
X7677741Y17867012D01*
X7584332Y17885592D01*
X7490923Y17867012D01*
X7411734Y17814101D01*
X7411733Y17814100D01*
X7367630Y17748093D01*
X7358822Y17734911D01*
X7340242Y17641502D01*
X-3384080Y17641502D01*
X-3343070Y17668904D01*
X-3290158Y17748093D01*
X-3271578Y17841502D01*
X-3290158Y17934911D01*
X-3294562Y17941502D01*
X4540242Y17941502D01*
X4558822Y17848093D01*
X4581535Y17814101D01*
X4602502Y17782720D01*
X4611734Y17768904D01*
X4690923Y17715992D01*
X4784332Y17697412D01*
X4877741Y17715992D01*
X4956930Y17768904D01*
X5009842Y17848093D01*
X5028422Y17941502D01*
X5015149Y18008229D01*
X12899345Y18008229D01*
X12917925Y17914820D01*
X12943186Y17877014D01*
X12962509Y17848094D01*
X12970837Y17835631D01*
X13050026Y17782719D01*
X13143435Y17764139D01*
X13236844Y17782719D01*
X13316033Y17835631D01*
X13368945Y17914820D01*
X13387525Y18008229D01*
X13368945Y18101638D01*
X13316033Y18180827D01*
X13236844Y18233739D01*
X13143435Y18252319D01*
X13050026Y18233739D01*
X12970837Y18180828D01*
X12970836Y18180827D01*
X12931472Y18121913D01*
X12917925Y18101638D01*
X12899345Y18008229D01*
X5015149Y18008229D01*
X5009842Y18034911D01*
X4956930Y18114100D01*
X4877741Y18167012D01*
X4784332Y18185592D01*
X4690923Y18167012D01*
X4611734Y18114101D01*
X4611733Y18114100D01*
X4572934Y18056032D01*
X4558822Y18034911D01*
X4540242Y17941502D01*
X-3294562Y17941502D01*
X-3343070Y18014100D01*
X-3343073Y18014102D01*
X-3402269Y18053655D01*
X-3422259Y18067012D01*
X-3515668Y18085592D01*
X-3609077Y18067012D01*
X-3688266Y18014101D01*
X-3688267Y18014100D01*
X-3736774Y17941502D01*
X-3741178Y17934911D01*
X-3759758Y17841502D01*
X-11797670Y17841502D01*
X-11797670Y23261630D01*
X-11812970Y23298568D01*
X-11841241Y23326839D01*
X-11878179Y23342139D01*
X-11878180Y23342139D01*
X-14105744Y23342139D01*
X-14136468Y23354865D01*
X-14149194Y23385589D01*
X-14141871Y23409728D01*
X-14116239Y23448090D01*
X-14116239Y23448091D01*
X-14116237Y23448093D01*
X-14097657Y23541502D01*
X-14116237Y23634911D01*
X-14169149Y23714100D01*
X-14248338Y23767012D01*
X-14341747Y23785592D01*
X-14435156Y23767012D01*
X-14514345Y23714101D01*
X-14514346Y23714100D01*
X-14567257Y23634911D01*
X-14585837Y23541502D01*
X-14567257Y23448094D01*
X-14567256Y23448090D01*
X-14541623Y23409728D01*
X-14535135Y23377112D01*
X-14553611Y23349462D01*
X-14577750Y23342139D01*
X-14813532Y23342139D01*
X-14817790Y23342348D01*
X-14986883Y23359000D01*
X-14995237Y23360662D01*
X-15155771Y23409355D01*
X-15163639Y23412613D01*
X-15311601Y23491690D01*
X-15318683Y23496422D01*
X-15448369Y23602838D01*
X-15454390Y23608857D01*
X-15560839Y23738541D01*
X-15565561Y23745608D01*
X-15644661Y23893557D01*
X-15647921Y23901425D01*
X-15696640Y24061954D01*
X-15698303Y24070307D01*
X-15714958Y24239157D01*
X-15715168Y24243422D01*
X-15715168Y25955734D01*
X-15715136Y25957411D01*
X-15709450Y26104625D01*
X-15700638Y26332803D01*
X-15700379Y26336134D01*
X-15698915Y26348714D01*
X-15555642Y26348714D01*
X-15537062Y26255305D01*
X-15484150Y26176116D01*
X-15404961Y26123204D01*
X-15311552Y26104624D01*
X-15218143Y26123204D01*
X-15138954Y26176116D01*
X-15086042Y26255305D01*
X-15067462Y26348714D01*
X-15086042Y26442123D01*
X-15138954Y26521312D01*
X-15218143Y26574224D01*
X-15311552Y26592804D01*
X-15404961Y26574224D01*
X-15484150Y26521313D01*
X-15484151Y26521312D01*
X-15537062Y26442123D01*
X-15555642Y26348714D01*
X-15698915Y26348714D01*
X-15657071Y26708439D01*
X-15656556Y26711741D01*
X-15642462Y26783856D01*
X-14580069Y26783856D01*
X-14580068Y26783847D01*
X-14580068Y26388910D01*
X-14539816Y26291731D01*
X-14465439Y26217354D01*
X-14368260Y26177102D01*
X-14368259Y26177102D01*
X-13863077Y26177102D01*
X-13863076Y26177102D01*
X-13765897Y26217354D01*
X-13691520Y26291731D01*
X-13651268Y26388910D01*
X-13651268Y26783856D01*
X-13280069Y26783856D01*
X-13280068Y26783847D01*
X-13280068Y26494095D01*
X-13280068Y26494094D01*
X-13280068Y26388910D01*
X-13239816Y26291731D01*
X-13165439Y26217354D01*
X-13068260Y26177102D01*
X-13068259Y26177102D01*
X-12563077Y26177102D01*
X-12563076Y26177102D01*
X-12465897Y26217354D01*
X-12391520Y26291731D01*
X-12351268Y26388910D01*
X-12351268Y26894094D01*
X-12391520Y26991273D01*
X-12465897Y27065650D01*
X-12563076Y27105902D01*
X-12563077Y27105902D01*
X-12958013Y27105902D01*
X-12958021Y27105903D01*
X-12963076Y27105903D01*
X-13068260Y27105903D01*
X-13116850Y27085776D01*
X-13165439Y27065650D01*
X-13165441Y27065649D01*
X-13239816Y26991274D01*
X-13257701Y26948093D01*
X-13257702Y26948092D01*
X-13280069Y26894096D01*
X-13280069Y26783856D01*
X-13651268Y26783856D01*
X-13651268Y26894094D01*
X-13691520Y26991273D01*
X-13765897Y27065650D01*
X-13863076Y27105902D01*
X-13863077Y27105902D01*
X-14258013Y27105902D01*
X-14258021Y27105903D01*
X-14263076Y27105903D01*
X-14368260Y27105903D01*
X-14416850Y27085776D01*
X-14465439Y27065650D01*
X-14465441Y27065649D01*
X-14539816Y26991274D01*
X-14557701Y26948093D01*
X-14557702Y26948092D01*
X-14580069Y26894096D01*
X-14580069Y26783856D01*
X-15642462Y26783856D01*
X-15584662Y27079605D01*
X-15583901Y27082834D01*
X-15483847Y27444067D01*
X-15482837Y27447233D01*
X-15435218Y27578745D01*
X-15148914Y27578745D01*
X-15130334Y27485336D01*
X-15077422Y27406147D01*
X-14998233Y27353235D01*
X-14904824Y27334655D01*
X-14811415Y27353235D01*
X-14732226Y27406147D01*
X-14679314Y27485336D01*
X-14660734Y27578745D01*
X-14679314Y27672154D01*
X-14716813Y27728276D01*
X-12612594Y27728276D01*
X-12594014Y27634867D01*
X-12541102Y27555678D01*
X-12461913Y27502766D01*
X-12368504Y27484186D01*
X-12275095Y27502766D01*
X-12195906Y27555678D01*
X-12142994Y27634867D01*
X-12124414Y27728276D01*
X-12142994Y27821685D01*
X-12195906Y27900874D01*
X-12275095Y27953786D01*
X-12368504Y27972366D01*
X-12461913Y27953786D01*
X-12541102Y27900875D01*
X-12541103Y27900874D01*
X-12593246Y27822835D01*
X-12594014Y27821685D01*
X-12612594Y27728276D01*
X-14716813Y27728276D01*
X-14732226Y27751343D01*
X-14811415Y27804255D01*
X-14904824Y27822835D01*
X-14998233Y27804255D01*
X-15077422Y27751344D01*
X-15077423Y27751343D01*
X-15130334Y27672154D01*
X-15148914Y27578745D01*
X-15435218Y27578745D01*
X-15355228Y27799660D01*
X-15353966Y27802764D01*
X-15309610Y27900874D01*
X-15199546Y28144321D01*
X-15198066Y28147284D01*
X-15017584Y28476244D01*
X-15016775Y28477655D01*
X-14900992Y28670626D01*
X-14524838Y28670626D01*
X-14506258Y28577217D01*
X-14453346Y28498028D01*
X-14374157Y28445116D01*
X-14280748Y28426536D01*
X-14187339Y28445116D01*
X-14108150Y28498028D01*
X-14055238Y28577217D01*
X-14036658Y28670626D01*
X-14055238Y28764035D01*
X-14108150Y28843224D01*
X-14187339Y28896136D01*
X-14280748Y28914716D01*
X-14374157Y28896136D01*
X-14453346Y28843225D01*
X-14453347Y28843224D01*
X-14506258Y28764035D01*
X-14524838Y28670626D01*
X-14900992Y28670626D01*
X-14633962Y29115677D01*
X-14540780Y29270914D01*
X-14364712Y29623442D01*
X-14216362Y29988503D01*
X-14096617Y30363919D01*
X-14006189Y30747454D01*
X-13945617Y31136822D01*
X-13928158Y31362810D01*
X-13913103Y31392460D01*
X-13881490Y31402782D01*
X-13851838Y31387727D01*
X-13848710Y31383601D01*
X-13825606Y31349023D01*
X-13825605Y31349022D01*
X-13825604Y31349021D01*
X-13746415Y31296109D01*
X-13653006Y31277529D01*
X-13559597Y31296109D01*
X-13480408Y31349021D01*
X-13427496Y31428210D01*
X-13408916Y31521619D01*
X-13427496Y31615028D01*
X-13480408Y31694217D01*
X-13493827Y31703183D01*
X-13529068Y31726730D01*
X-13559597Y31747129D01*
X-13653006Y31765709D01*
X-13746415Y31747129D01*
X-13825604Y31694218D01*
X-13825607Y31694215D01*
X-13835738Y31679053D01*
X-13863389Y31660579D01*
X-13896005Y31667068D01*
X-13914479Y31694719D01*
X-13915314Y31703175D01*
X-13915320Y31726728D01*
X-13915323Y31753657D01*
X-13915324Y31753658D01*
X-13915324Y31762295D01*
X-13915325Y31762301D01*
X-13915522Y33560400D01*
X-13902799Y33591125D01*
X-13872077Y33603855D01*
X-13841352Y33591132D01*
X-13835945Y33584544D01*
X-13821621Y33563106D01*
X-13821618Y33563103D01*
X-13821617Y33563102D01*
X-13742428Y33510190D01*
X-13649019Y33491610D01*
X-13555610Y33510190D01*
X-13476421Y33563102D01*
X-13423509Y33642291D01*
X-13404929Y33735700D01*
X-13423509Y33829109D01*
X-13476421Y33908298D01*
X-13555610Y33961210D01*
X-13649019Y33979790D01*
X-13742428Y33961210D01*
X-13821617Y33908299D01*
X-13821619Y33908297D01*
X-13835983Y33886799D01*
X-13863634Y33868324D01*
X-13896250Y33874812D01*
X-13914725Y33902463D01*
X-13915560Y33910934D01*
X-13915856Y36614176D01*
X-13903133Y36644899D01*
X-13872411Y36657629D01*
X-13841686Y36644906D01*
X-13836279Y36638320D01*
X-13831325Y36630905D01*
X-13752136Y36577993D01*
X-13658727Y36559413D01*
X-13565318Y36577993D01*
X-13486129Y36630905D01*
X-13433217Y36710094D01*
X-13414637Y36803503D01*
X-13433217Y36896912D01*
X-13486129Y36976101D01*
X-13565318Y37029013D01*
X-13658727Y37047593D01*
X-13752136Y37029013D01*
X-13831325Y36976102D01*
X-13831329Y36976098D01*
X-13836320Y36968627D01*
X-13863970Y36950151D01*
X-13896586Y36956639D01*
X-13915062Y36984289D01*
X-13915897Y36992761D01*
X-13916225Y39988304D01*
X-13903502Y40019029D01*
X-13872780Y40031759D01*
X-13842055Y40019036D01*
X-13836648Y40012448D01*
X-13821621Y39989958D01*
X-13821618Y39989955D01*
X-13821617Y39989954D01*
X-13742428Y39937042D01*
X-13649019Y39918462D01*
X-13555610Y39937042D01*
X-13476421Y39989954D01*
X-13423509Y40069143D01*
X-13404929Y40162552D01*
X-13423509Y40255961D01*
X-13476421Y40335150D01*
X-13478792Y40336734D01*
X-13502699Y40352709D01*
X-13555610Y40388062D01*
X-13649019Y40406642D01*
X-13742428Y40388062D01*
X-13821617Y40335151D01*
X-13821619Y40335149D01*
X-13836686Y40312599D01*
X-13864337Y40294124D01*
X-13896953Y40300612D01*
X-13915428Y40328263D01*
X-13916263Y40336734D01*
X-13916269Y40388062D01*
X-13916422Y41793662D01*
X-13916422Y41811006D01*
X-13916422Y41811018D01*
X-13916424Y41811027D01*
X-13916424Y41811030D01*
X-13931728Y41847966D01*
X-13960002Y41876234D01*
X-13960005Y41876236D01*
X-13960006Y41876236D01*
X-13996937Y41891529D01*
X-13996942Y41891530D01*
X-13996943Y41891530D01*
X-14041086Y41891527D01*
X-14041199Y41891515D01*
X-20675817Y41891515D01*
X-20680075Y41891724D01*
X-20849165Y41908375D01*
X-20857518Y41910037D01*
X-21018047Y41958727D01*
X-21025917Y41961986D01*
X-21173867Y42041060D01*
X-21180949Y42045791D01*
X-21275779Y42123608D01*
X-21310637Y42152212D01*
X-21316659Y42158234D01*
X-21326566Y42170305D01*
X-21423090Y42287906D01*
X-21427820Y42294986D01*
X-21506146Y42441502D01*
X-15159758Y42441502D01*
X-15141178Y42348093D01*
X-15088266Y42268904D01*
X-15009077Y42215992D01*
X-14915668Y42197412D01*
X-14822259Y42215992D01*
X-14743070Y42268904D01*
X-14690158Y42348093D01*
X-14671578Y42441502D01*
X-14690158Y42534911D01*
X-14743070Y42614100D01*
X-14745049Y42615422D01*
X-14782316Y42640323D01*
X-14822259Y42667012D01*
X-14915668Y42685592D01*
X-15009077Y42667012D01*
X-15088266Y42614101D01*
X-15088267Y42614100D01*
X-15137927Y42539776D01*
X-15141178Y42534911D01*
X-15159758Y42441502D01*
X-21506146Y42441502D01*
X-21506909Y42442930D01*
X-21510169Y42450798D01*
X-21524313Y42497412D01*
X-21558877Y42611329D01*
X-21560539Y42619682D01*
X-21567363Y42688909D01*
X-20880069Y42688909D01*
X-20859943Y42640323D01*
X-20859943Y42640321D01*
X-20859942Y42640321D01*
X-20839816Y42591731D01*
X-20765439Y42517354D01*
X-20717294Y42497412D01*
X-20668260Y42477101D01*
X-20668259Y42477101D01*
X-20558021Y42477101D01*
X-20558013Y42477102D01*
X-20268260Y42477102D01*
X-20163076Y42477102D01*
X-19873323Y42477102D01*
X-19873315Y42477101D01*
X-19868260Y42477101D01*
X-19758020Y42477101D01*
X-19758012Y42477102D01*
X-19468260Y42477102D01*
X-19363076Y42477102D01*
X-19073323Y42477102D01*
X-19073315Y42477101D01*
X-19068260Y42477101D01*
X-18958020Y42477101D01*
X-18958012Y42477102D01*
X-18563077Y42477102D01*
X-18563076Y42477102D01*
X-18465897Y42517354D01*
X-18391520Y42591731D01*
X-18351268Y42688910D01*
X-18351268Y43383856D01*
X-17780069Y43383856D01*
X-17780068Y43383847D01*
X-17780068Y42988910D01*
X-17739816Y42891731D01*
X-17665439Y42817354D01*
X-17568260Y42777102D01*
X-17568259Y42777102D01*
X-17063077Y42777102D01*
X-17063076Y42777102D01*
X-16965897Y42817354D01*
X-16891520Y42891731D01*
X-16851268Y42988910D01*
X-16851268Y43383856D01*
X-16680069Y43383856D01*
X-16680068Y43383847D01*
X-16680068Y42988910D01*
X-16639816Y42891731D01*
X-16565439Y42817354D01*
X-16468260Y42777102D01*
X-16468259Y42777102D01*
X-15963077Y42777102D01*
X-15963076Y42777102D01*
X-15865897Y42817354D01*
X-15791520Y42891731D01*
X-15751268Y42988910D01*
X-15751268Y43441502D01*
X-15159758Y43441502D01*
X-15141178Y43348093D01*
X-15088266Y43268904D01*
X-15009077Y43215992D01*
X-14915668Y43197412D01*
X-14822259Y43215992D01*
X-14743070Y43268904D01*
X-14690158Y43348093D01*
X-14671578Y43441502D01*
X-14690158Y43534911D01*
X-14694189Y43540944D01*
X-14060247Y43540944D01*
X-14060243Y43538806D01*
X-14059965Y43528944D01*
X-14059853Y43526883D01*
X-14048798Y43483699D01*
X-14048294Y43481489D01*
X-14039515Y43437825D01*
X-14038678Y43435818D01*
X-14034693Y43426917D01*
X-14033766Y43424983D01*
X-14007036Y43389329D01*
X-14005749Y43387517D01*
X-13980894Y43350485D01*
X-13980893Y43350484D01*
X-13980891Y43350482D01*
X-13979370Y43348966D01*
X-13970472Y43340556D01*
X-13737770Y43030160D01*
X-13729311Y43008526D01*
X-13680294Y42530200D01*
X-13680068Y42525771D01*
X-13680068Y42194094D01*
X-13680068Y42088910D01*
X-13639816Y41991731D01*
X-13565439Y41917354D01*
X-13468260Y41877102D01*
X-13068260Y41877102D01*
X-13036502Y41877102D01*
X-13030650Y41876706D01*
X-13027192Y41876236D01*
X-12999173Y41872427D01*
X-12986866Y41875670D01*
X-12975798Y41877102D01*
X-12963076Y41877102D01*
X-12933734Y41889257D01*
X-12928181Y41891129D01*
X-12897459Y41899221D01*
X-12887329Y41906927D01*
X-12877655Y41912484D01*
X-12865897Y41917354D01*
X-12843428Y41939825D01*
X-12839032Y41943663D01*
X-12813739Y41962900D01*
X-12807328Y41973899D01*
X-12800515Y41982737D01*
X-12791522Y41991729D01*
X-12791522Y41991730D01*
X-12791520Y41991731D01*
X-12779366Y42021077D01*
X-12776768Y42026317D01*
X-12760762Y42053770D01*
X-12759047Y42066390D01*
X-12756138Y42077155D01*
X-12751268Y42088910D01*
X-12751268Y42120669D01*
X-12750872Y42126522D01*
X-12746593Y42157997D01*
X-12749835Y42170305D01*
X-12751268Y42181373D01*
X-12751268Y42539104D01*
X-12751263Y42539776D01*
X-12745394Y42919291D01*
X-12743895Y42926766D01*
X-12744518Y42926880D01*
X-12743744Y42931093D01*
X-12743744Y42931094D01*
X-12744449Y42979085D01*
X-12744449Y42980279D01*
X-12743706Y43028294D01*
X-12743708Y43028297D01*
X-12744476Y43032506D01*
X-12743861Y43032619D01*
X-12745345Y43040100D01*
X-12749903Y43350482D01*
X-12751184Y43437676D01*
X-12751162Y43439845D01*
X-12751103Y43441502D01*
X-12749576Y43484730D01*
X-12749577Y43484733D01*
X-12750262Y43488956D01*
X-12749810Y43489030D01*
X-12751268Y43497111D01*
X-12751268Y43800278D01*
X-12749737Y43811710D01*
X-12746745Y43822681D01*
X-12750921Y43855522D01*
X-12751268Y43861003D01*
X-12751268Y43894093D01*
X-12751269Y43894096D01*
X-12755619Y43904598D01*
X-12758580Y43915746D01*
X-12760014Y43927027D01*
X-12776434Y43955760D01*
X-12778851Y43960689D01*
X-12791520Y43991273D01*
X-12799564Y43999317D01*
X-12806562Y44008480D01*
X-12812203Y44018350D01*
X-12812205Y44018352D01*
X-12838368Y44038612D01*
X-12841649Y44041502D01*
X-11159758Y44041502D01*
X-11141178Y43948093D01*
X-11088266Y43868904D01*
X-11009077Y43815992D01*
X-10915668Y43797412D01*
X-10822259Y43815992D01*
X-10743070Y43868904D01*
X-10690158Y43948093D01*
X-10671578Y44041502D01*
X-10690158Y44134911D01*
X-10743070Y44214100D01*
X-10743073Y44214102D01*
X-10785751Y44242618D01*
X-10804843Y44255375D01*
X-10823318Y44283025D01*
X-10816831Y44315641D01*
X-10804844Y44327629D01*
X-10743070Y44368904D01*
X-10690158Y44448093D01*
X-10671578Y44541502D01*
X-10690158Y44634911D01*
X-10743070Y44714100D01*
X-10744477Y44715040D01*
X-10769348Y44731659D01*
X-10822259Y44767012D01*
X-10915668Y44785592D01*
X-11009077Y44767012D01*
X-11088266Y44714101D01*
X-11088267Y44714100D01*
X-11124878Y44659306D01*
X-11141178Y44634911D01*
X-11159758Y44541502D01*
X-11141178Y44448093D01*
X-11121125Y44418082D01*
X-11088267Y44368905D01*
X-11088263Y44368901D01*
X-11026495Y44327629D01*
X-11008019Y44299979D01*
X-11014507Y44267363D01*
X-11026495Y44255375D01*
X-11088263Y44214104D01*
X-11088267Y44214100D01*
X-11141178Y44134911D01*
X-11159758Y44041502D01*
X-12841649Y44041502D01*
X-12842489Y44042242D01*
X-12865897Y44065650D01*
X-12876405Y44070003D01*
X-12886377Y44075791D01*
X-12895364Y44082750D01*
X-12895368Y44082752D01*
X-12927302Y44091461D01*
X-12932496Y44093237D01*
X-12963075Y44105902D01*
X-12963076Y44105902D01*
X-12974445Y44105902D01*
X-12985876Y44107433D01*
X-12996848Y44110425D01*
X-12996850Y44110425D01*
X-13029687Y44106249D01*
X-13035168Y44105902D01*
X-13068262Y44105902D01*
X-13078767Y44101551D01*
X-13089907Y44098593D01*
X-13101189Y44097158D01*
X-13101197Y44097155D01*
X-13129936Y44080732D01*
X-13134865Y44078315D01*
X-13165439Y44065651D01*
X-13165442Y44065649D01*
X-13173485Y44057606D01*
X-13182649Y44050607D01*
X-13492847Y43873338D01*
X-13505840Y43868465D01*
X-13561567Y43857260D01*
X-13594197Y43863680D01*
X-13612729Y43891292D01*
X-13606310Y43923921D01*
X-13590158Y43948093D01*
X-13571578Y44041502D01*
X-13590158Y44134911D01*
X-13643070Y44214100D01*
X-13643071Y44214101D01*
X-13643074Y44214104D01*
X-13693729Y44247950D01*
X-13712205Y44275600D01*
X-13705717Y44308216D01*
X-13693733Y44320202D01*
X-13618060Y44370764D01*
X-13565148Y44449953D01*
X-13546568Y44543362D01*
X-13565148Y44636771D01*
X-13618060Y44715960D01*
X-13697249Y44768872D01*
X-13790658Y44787452D01*
X-13884067Y44768872D01*
X-13963256Y44715961D01*
X-13963257Y44715960D01*
X-14016168Y44636771D01*
X-14034748Y44543362D01*
X-14016168Y44449953D01*
X-13963256Y44370764D01*
X-13912598Y44336916D01*
X-13894122Y44309265D01*
X-13900609Y44276649D01*
X-13912597Y44264661D01*
X-13988265Y44214102D01*
X-13988267Y44214100D01*
X-14041178Y44134911D01*
X-14059758Y44041502D01*
X-14041178Y43948093D01*
X-13988266Y43868904D01*
X-13936955Y43834619D01*
X-13918479Y43806969D01*
X-13924966Y43774353D01*
X-13935033Y43763726D01*
X-13942833Y43757879D01*
X-13944678Y43756569D01*
X-13981686Y43731728D01*
X-13983173Y43730235D01*
X-13989920Y43723097D01*
X-13991348Y43721505D01*
X-14014058Y43683170D01*
X-14015262Y43681252D01*
X-14039941Y43644149D01*
X-14040745Y43642199D01*
X-14044260Y43632987D01*
X-14044957Y43631007D01*
X-14051270Y43586883D01*
X-14051649Y43584651D01*
X-14060247Y43540944D01*
X-14694189Y43540944D01*
X-14743070Y43614100D01*
X-14822259Y43667012D01*
X-14915668Y43685592D01*
X-15009077Y43667012D01*
X-15088266Y43614101D01*
X-15088267Y43614100D01*
X-15141178Y43534911D01*
X-15159758Y43441502D01*
X-15751268Y43441502D01*
X-15751268Y43494094D01*
X-15791520Y43591273D01*
X-15865897Y43665650D01*
X-15963076Y43705902D01*
X-15963077Y43705902D01*
X-16358013Y43705902D01*
X-16358021Y43705903D01*
X-16363076Y43705903D01*
X-16468260Y43705903D01*
X-16516850Y43685776D01*
X-16565439Y43665650D01*
X-16565441Y43665649D01*
X-16639815Y43591275D01*
X-16639816Y43591274D01*
X-16639816Y43591273D01*
X-16655500Y43553408D01*
X-16663559Y43533950D01*
X-16680069Y43494093D01*
X-16680069Y43383856D01*
X-16851268Y43383856D01*
X-16851268Y43494094D01*
X-16891520Y43591273D01*
X-16965897Y43665650D01*
X-17063076Y43705902D01*
X-17063077Y43705902D01*
X-17458013Y43705902D01*
X-17458021Y43705903D01*
X-17463076Y43705903D01*
X-17568260Y43705903D01*
X-17616850Y43685776D01*
X-17665439Y43665650D01*
X-17665441Y43665649D01*
X-17739815Y43591275D01*
X-17739816Y43591274D01*
X-17739816Y43591273D01*
X-17755500Y43553408D01*
X-17763559Y43533950D01*
X-17780069Y43494093D01*
X-17780069Y43383856D01*
X-18351268Y43383856D01*
X-18351268Y43594094D01*
X-18391520Y43691273D01*
X-18465897Y43765650D01*
X-18563076Y43805902D01*
X-18563077Y43805902D01*
X-18958012Y43805902D01*
X-18958020Y43805903D01*
X-18963075Y43805903D01*
X-19068260Y43805903D01*
X-19073315Y43805903D01*
X-19073323Y43805902D01*
X-19758013Y43805902D01*
X-19758021Y43805903D01*
X-19763076Y43805903D01*
X-19868260Y43805903D01*
X-19873315Y43805903D01*
X-19873323Y43805902D01*
X-20558013Y43805902D01*
X-20558021Y43805903D01*
X-20563076Y43805903D01*
X-20668260Y43805903D01*
X-20668262Y43805903D01*
X-20705813Y43790348D01*
X-20705814Y43790347D01*
X-20765440Y43765650D01*
X-20839815Y43691275D01*
X-20839816Y43691274D01*
X-20839816Y43691273D01*
X-20856041Y43652102D01*
X-20871781Y43614101D01*
X-20880069Y43594093D01*
X-20880069Y43483856D01*
X-20880068Y43483847D01*
X-20880068Y42797604D01*
X-20880069Y42797590D01*
X-20880069Y42688909D01*
X-21567363Y42688909D01*
X-21577245Y42789160D01*
X-21577454Y42793389D01*
X-21577455Y42817815D01*
X-21577455Y42824235D01*
X-21577458Y42824255D01*
X-21577479Y42980337D01*
X-21577685Y44486707D01*
X-15101936Y44486707D01*
X-15083356Y44393298D01*
X-15048003Y44340387D01*
X-15039479Y44327630D01*
X-15030444Y44314109D01*
X-14951255Y44261197D01*
X-14857846Y44242617D01*
X-14764437Y44261197D01*
X-14685248Y44314109D01*
X-14632336Y44393298D01*
X-14613756Y44486707D01*
X-14632336Y44580116D01*
X-14685248Y44659305D01*
X-14692667Y44664262D01*
X-14718602Y44681591D01*
X-14764437Y44712217D01*
X-14857846Y44730797D01*
X-14951255Y44712217D01*
X-15030444Y44659306D01*
X-15030445Y44659305D01*
X-15074496Y44593376D01*
X-15083356Y44580116D01*
X-15101936Y44486707D01*
X-21577685Y44486707D01*
X-21578061Y47229100D01*
X-21577852Y47233357D01*
X-21577049Y47241514D01*
X-21561202Y47402473D01*
X-21559544Y47410815D01*
X-21544651Y47459919D01*
X-20141341Y47459919D01*
X-20122761Y47366510D01*
X-20096796Y47327651D01*
X-20070912Y47288911D01*
X-20069849Y47287321D01*
X-19990660Y47234409D01*
X-19897251Y47215829D01*
X-19803842Y47234409D01*
X-19724653Y47287321D01*
X-19671741Y47366510D01*
X-19653161Y47459919D01*
X-19671741Y47553328D01*
X-19724653Y47632517D01*
X-19801488Y47683856D01*
X-17780069Y47683856D01*
X-17780068Y47683847D01*
X-17780068Y47394095D01*
X-17780068Y47394094D01*
X-17780068Y47288910D01*
X-17739816Y47191731D01*
X-17665439Y47117354D01*
X-17568260Y47077102D01*
X-17568259Y47077102D01*
X-17063077Y47077102D01*
X-17063076Y47077102D01*
X-16965897Y47117354D01*
X-16891520Y47191731D01*
X-16851268Y47288909D01*
X-16680069Y47288909D01*
X-16660437Y47241516D01*
X-16660437Y47241514D01*
X-16660436Y47241514D01*
X-16639816Y47191731D01*
X-16565439Y47117354D01*
X-16517294Y47097412D01*
X-16468260Y47077101D01*
X-16468259Y47077101D01*
X-16358021Y47077101D01*
X-16358013Y47077102D01*
X-15963077Y47077102D01*
X-15963076Y47077102D01*
X-15865897Y47117354D01*
X-15791520Y47191731D01*
X-15751268Y47288910D01*
X-15751268Y47794094D01*
X-15791520Y47891273D01*
X-15865897Y47965650D01*
X-15963076Y48005902D01*
X-16363076Y48005902D01*
X-16468260Y48005902D01*
X-16516850Y47985776D01*
X-16565440Y47965650D01*
X-16639816Y47891274D01*
X-16680068Y47794094D01*
X-16680068Y47397604D01*
X-16680069Y47397590D01*
X-16680069Y47288909D01*
X-16851268Y47288909D01*
X-16851268Y47288910D01*
X-16851268Y47794094D01*
X-16891520Y47891273D01*
X-16965897Y47965650D01*
X-17063076Y48005902D01*
X-17063077Y48005902D01*
X-17458013Y48005902D01*
X-17458021Y48005903D01*
X-17463076Y48005903D01*
X-17568260Y48005903D01*
X-17616850Y47985776D01*
X-17639259Y47976494D01*
X-17665441Y47965649D01*
X-17739816Y47891274D01*
X-17757701Y47848093D01*
X-17757702Y47848092D01*
X-17780069Y47794096D01*
X-17780069Y47683856D01*
X-19801488Y47683856D01*
X-19803842Y47685429D01*
X-19897251Y47704009D01*
X-19990660Y47685429D01*
X-20069849Y47632518D01*
X-20069850Y47632517D01*
X-20104571Y47580552D01*
X-20122761Y47553328D01*
X-20141341Y47459919D01*
X-21544651Y47459919D01*
X-21510840Y47571394D01*
X-21507583Y47579254D01*
X-21428497Y47727231D01*
X-21423766Y47734313D01*
X-21370548Y47799167D01*
X-21317329Y47864023D01*
X-21311313Y47870040D01*
X-21181608Y47976500D01*
X-21174542Y47981222D01*
X-21026562Y48060333D01*
X-21018701Y48063589D01*
X-20858137Y48112310D01*
X-20849788Y48113971D01*
X-20756624Y48123155D01*
X-20680539Y48130655D01*
X-20676276Y48130865D01*
X-15256751Y48130865D01*
X-15226027Y48118139D01*
G37*
%TD.AperFunction*%
%TD*%
M02*
